<?xml version="1.0" encoding="UTF-8" standalone="no"?>
<!DOCTYPE svg PUBLIC "-//W3C//DTD SVG 1.1//EN" "http://www.w3.org/Graphics/SVG/1.1/DTD/svg11.dtd">
<svg width="100%" height="100%" viewBox="0 0 1021 301" version="1.1" xmlns="http://www.w3.org/2000/svg" xmlns:xlink="http://www.w3.org/1999/xlink" xml:space="preserve" xmlns:serif="http://www.serif.com/" style="fill-rule:evenodd;clip-rule:evenodd;">
    <g transform="matrix(1,0,0,1,61.46,160.973)">
        <g id="depth-section" serif:id="depth section">
            <path d="M0,33.668L10.771,33.668L11.947,33.609L22.521,33.609L23.696,33.551L37.992,33.551L39.168,33.494L65.214,33.494L66.388,33.551L69.914,33.551L71.089,33.609L74.614,33.609L75.788,33.668L84.21,33.668L85.386,33.725L87.735,33.725L88.911,33.668L94.785,33.668L95.96,33.609L98.311,33.609L99.485,33.668L109.081,33.668L110.256,33.725L113.78,33.725L114.955,33.668L117.307,33.668L118.481,33.609L120.83,33.609L122.007,33.551L123.183,33.551L124.355,33.494L126.706,33.494L127.881,33.437L130.231,33.437L131.603,33.379L133.953,33.379L135.128,33.32L137.479,33.32L138.652,33.264L143.353,33.264L144.526,33.206L148.052,33.206L149.227,33.147L152.753,33.147L153.929,33.09L157.647,33.09L158.824,33.031L159.997,33.031L161.173,32.975L163.523,32.975L164.699,32.917L165.874,32.917L167.048,32.858L168.225,32.858L169.398,32.801L170.573,32.743L171.749,32.743L172.924,32.687L175.274,32.687L176.447,32.628L178.798,32.628L179.973,32.57L182.52,32.57L183.694,32.512L186.045,32.512L187.22,32.454L188.395,32.397L189.57,32.397L190.745,32.339L191.919,32.339L193.096,32.281L194.27,32.224L195.444,32.224L196.621,32.166L197.795,32.166L198.971,32.108L200.145,32.108L201.319,32.05L202.496,32.05L203.67,31.993L204.845,31.993L206.02,31.936L208.566,31.936L209.741,31.877L210.917,31.877L212.092,31.819L214.442,31.819L215.615,31.761L217.966,31.761L219.141,31.704L220.316,31.704L221.491,31.647L223.842,31.647L225.017,31.589L227.367,31.589L228.541,31.53L230.893,31.53L232.066,31.473L233.437,31.473L234.612,31.416L236.961,31.416L238.138,31.357L239.312,31.357L240.486,31.3L242.838,31.3L244.013,31.241L246.363,31.241L247.537,31.184L249.887,31.184L251.062,31.127L254.588,31.127L255.763,31.068L263.009,31.068L264.184,31.011L267.709,31.011L268.884,30.953L271.232,30.953L272.408,30.897L274.758,30.897L275.934,30.838L277.109,30.838L278.284,30.779L279.46,30.779L280.635,30.722L281.809,30.664L282.985,30.664L284.355,30.607L285.529,30.607L286.704,30.549L287.881,30.549L289.055,30.49L291.405,30.49L292.579,30.434L294.93,30.434L296.104,30.376L297.28,30.376L298.455,30.318L300.806,30.318L301.98,30.26L304.331,30.26L305.504,30.202L307.854,30.202L309.228,30.145L312.751,30.145L313.926,30.087L318.627,30.087L319.801,30.029L325.677,30.029L326.851,29.972L330.376,29.972L331.552,29.914L333.901,29.914L335.272,29.856L337.623,29.856L338.798,29.798L339.974,29.74L341.146,29.625L342.322,29.567L343.499,29.51L344.672,29.452L345.848,29.394L347.022,29.337L348.196,29.278L349.373,29.221L350.548,29.163L357.596,29.163L358.773,29.106L360.144,29.048L361.319,29.048L362.492,28.989L363.668,28.933L364.843,28.874L366.018,28.874L367.193,28.816L370.72,28.816L371.895,28.759L373.068,28.7L374.245,28.7L375.418,28.644L376.594,28.644L377.771,28.586L378.943,28.528L380.119,28.47L381.294,28.412L383.645,28.412L384.818,28.356L387.364,28.356L388.54,28.297L389.715,28.297L393.24,28.123L394.415,28.123L395.591,28.066L396.764,28.008L397.939,27.95L399.114,27.893L400.289,27.893L401.465,27.835L403.815,27.719L404.991,27.719L406.166,27.662L407.34,27.604L408.517,27.604L409.689,27.547L411.061,27.488L412.235,27.43L413.411,27.43L414.585,27.373L415.762,27.315L416.937,27.315L418.11,27.258L419.287,27.199L420.461,27.142L421.636,27.142L422.812,27.085L423.986,27.026L425.161,27.026L426.337,26.969L427.512,26.91L428.687,26.854L429.862,26.854L431.035,26.796L432.211,26.737L433.386,26.737L434.562,26.68L435.933,26.68L437.107,26.622L438.282,26.565L439.458,26.507L440.633,26.391L441.808,26.391L442.981,26.333L444.158,26.276L445.332,26.218L446.507,26.218L447.682,26.16L448.857,26.103L450.033,26.045L451.207,25.987L452.384,25.987L453.559,25.929L454.732,25.871L455.907,25.871L457.083,25.814L458.258,25.756L459.433,25.756L460.608,25.698L461.979,25.641L464.328,25.641L465.505,25.583L467.854,25.583L469.028,25.525L470.204,25.525L471.379,25.468L472.554,25.409L473.729,25.351L474.904,25.351L476.078,25.295L477.253,25.236L478.429,25.179L479.604,25.121L480.778,25.063L481.953,25.006L483.129,25.006L484.305,24.947L485.479,24.89L486.849,24.832L488.025,24.774L489.199,24.717L490.374,24.658L491.55,24.602L492.725,24.602L493.899,24.543L495.074,24.486L496.251,24.428L497.426,24.37L498.6,24.313L499.776,24.255L500.95,24.197L502.125,24.197L503.3,24.139L504.476,24.081L505.65,24.024L506.825,23.966L508.001,23.908L509.176,23.851L511.524,23.735L512.897,23.735L514.071,23.677L515.246,23.619L516.421,23.562L517.597,23.505L518.771,23.446L519.946,23.388L521.12,23.331L522.297,23.272L523.471,23.216L524.646,23.157L525.821,23.1L528.171,22.984L529.346,22.927L530.522,22.868L531.697,22.812L532.871,22.754L535.222,22.754L536.396,22.695L537.767,22.638L538.942,22.579L540.117,22.522L541.293,22.406L542.467,22.349L543.644,22.291L544.818,22.176L545.992,22.06L547.169,22.002L548.343,21.945L549.518,21.887L550.692,21.829L551.868,21.772L553.043,21.714L554.217,21.598L555.392,21.54L556.568,21.426L557.742,21.367L558.917,21.367L560.093,21.309L561.268,21.252L562.639,21.137L563.813,21.02L564.989,20.964L566.164,20.905L567.338,20.848L569.688,20.732L572.038,20.5L573.214,20.386L574.389,20.271L575.563,20.212L576.738,20.155L577.915,20.097L579.089,20.039L580.264,19.981L581.439,19.924L583.789,19.808L584.964,19.693L586.14,19.635L587.314,19.577L588.686,19.462L589.859,19.404L591.036,19.346L592.21,19.23L593.385,19.174L594.56,19.115L595.735,19.058L596.91,19L598.085,18.941L599.261,18.885L600.436,18.885L601.609,18.826L602.784,18.769L603.96,18.711L605.135,18.596L606.31,18.537L607.484,18.423L608.66,18.307L609.835,18.248L611.01,18.191L612.187,18.134L613.557,18.018L614.73,17.903L615.905,17.845L617.081,17.729L618.256,17.614L619.431,17.556L620.606,17.44L621.782,17.325L622.957,17.267L624.131,17.152L625.308,17.036L626.481,16.978L627.656,16.863L628.831,16.747L630.007,16.689L631.182,16.574L632.356,16.459L633.532,16.401L634.707,16.285L635.881,16.228L637.056,16.113L638.231,15.997L639.603,15.939L640.777,15.824L641.952,15.709L643.128,15.65L644.303,15.477L646.651,15.131L647.828,14.957L649.002,14.784L650.177,14.495L651.353,14.149L652.527,13.917L653.702,13.745L654.878,13.572L656.054,13.397L657.229,13.225L658.402,13.053L659.579,12.878L660.753,12.647L661.928,12.475L663.103,12.302L664.474,12.128L665.648,11.955L666.823,11.782L667.997,11.608L669.175,11.435L671.523,11.089L672.699,10.857L673.874,10.685L675.049,10.512L677.399,10.164L678.574,9.992L679.748,9.818L680.923,9.645L682.099,9.472L683.273,9.299L684.448,9.125L685.624,8.952L686.799,8.778L687.974,8.606L689.149,8.433L690.521,8.259L691.695,8.085L692.869,7.913L694.046,7.739L695.22,7.508L696.395,7.335L697.569,7.162L698.745,6.932L699.92,6.699L701.095,6.526L702.269,6.295L703.446,5.949L704.62,4.91L705.795,4.621L706.971,4.274L708.146,3.928L709.32,3.582L710.495,3.293L711.671,3.062L712.846,2.946L714.02,2.772L715.391,2.484L716.567,2.427L717.741,2.312L718.916,2.253L720.091,2.138L721.267,2.08L722.441,1.964L723.616,1.907L724.792,1.792L725.967,1.733L727.141,1.733L728.317,1.676L729.491,1.618L733.017,1.618L734.191,1.561L740.262,1.561L741.437,1.503L746.138,1.503L747.312,1.444L750.839,1.444L752.013,1.387L759.063,1.387L760.238,1.33L761.412,1.33L762.589,1.272L764.937,1.272L766.309,1.214L769.834,1.214L771.008,1.156L778.059,1.156L779.233,1.099L782.758,1.099L783.934,1.041L787.459,1.041L788.634,0.982L789.81,0.925L791.18,0.925L792.354,0.867L793.528,0.811L794.706,0.811L795.88,0.752L797.055,0.693L799.405,0.693L800.58,0.637L801.756,0.637L802.931,0.579L805.279,0.579L806.456,0.522L812.33,0.522L813.505,0.463L827.8,0.463L828.978,0.404L837.202,0.404L838.377,0.348L852.672,0.348L853.849,0.29L857.372,0.29L858.548,0.348L859.723,0.348L860.896,0.29L862.071,0.29L863.249,0.232L864.423,0.232L865.598,0.174L871.669,0.174L872.844,0.117L878.719,0.117L879.895,0.06L884.595,0.06L885.769,0.001L891.644,0.001L893.016,-0.057L898.89,-0.057" style="fill:none;fill-rule:nonzero;stroke:rgb(35,31,32);stroke-width:0.65px;"/>
        </g>
    </g>
</svg>
