<?xml version="1.0" encoding="UTF-8" standalone="no"?>
<!DOCTYPE svg PUBLIC "-//W3C//DTD SVG 1.1//EN" "http://www.w3.org/Graphics/SVG/1.1/DTD/svg11.dtd">
<svg width="100%" height="100%" viewBox="0 0 1021 301" version="1.1" xmlns="http://www.w3.org/2000/svg" xmlns:xlink="http://www.w3.org/1999/xlink" xml:space="preserve" xmlns:serif="http://www.serif.com/" style="fill-rule:evenodd;clip-rule:evenodd;">
    <g transform="matrix(1,0,0,1,61.46,162.475)">
        <g id="depth-section" serif:id="depth section">
            <path d="M0,32.166L1.175,32.916L2.35,33.725L4.896,33.725L6.071,33.667L30.942,33.667L32.117,33.608L53.267,33.608L54.441,33.551L65.214,33.551L66.388,33.493L71.089,33.493L72.264,33.437L80.684,33.437L81.86,33.378L100.659,33.378L101.836,33.319L111.43,33.319L112.606,33.263L117.307,33.263L118.481,33.319L122.007,33.319L123.183,33.263L124.355,33.263L125.531,33.205L126.706,33.147L127.881,33.147L129.057,33.089L130.231,33.089L131.603,33.03L132.776,33.03L133.953,32.974L135.128,32.974L136.302,32.916L137.479,32.858L138.652,32.858L139.827,32.801L141.003,32.801L142.176,32.742L143.353,32.686L144.526,32.686L145.701,32.627L146.878,32.627L148.052,32.569L149.227,32.512L150.403,32.512L151.578,32.454L152.753,32.454L153.929,32.396L155.102,32.396L156.277,32.338L157.647,32.281L159.997,32.281L161.173,32.223L163.523,32.223L164.699,32.166L167.048,32.166L168.225,32.107L171.749,32.107L172.924,32.049L175.274,32.049L176.447,31.992L177.624,31.992L178.798,31.935L181.148,31.935L182.52,31.877L183.694,31.877L184.869,31.818L186.045,31.818L187.22,31.762L188.395,31.762L189.57,31.704L191.919,31.704L193.096,31.645L194.27,31.645L195.444,31.588L197.795,31.588L198.971,31.529L200.145,31.529L201.319,31.473L202.496,31.473L203.67,31.415L204.845,31.415L206.02,31.356L207.195,31.356L208.566,31.299L212.092,31.299L213.267,31.241L221.491,31.241L222.666,31.185L229.716,31.185L230.893,31.126L239.312,31.126L240.486,31.068L246.363,31.068L247.537,31.01L253.412,31.01L254.588,30.952L258.308,30.952L259.484,30.895L264.184,30.895L265.358,30.837L267.709,30.837L268.884,30.779L272.408,30.779L273.583,30.722L275.934,30.722L277.109,30.664L282.985,30.664L284.355,30.722L290.23,30.722L291.405,30.779L298.455,30.779L299.63,30.837L300.806,30.837L301.98,30.779L305.504,30.779L306.68,30.722L310.4,30.722L311.576,30.664L313.926,30.664L315.102,30.606L318.627,30.606L319.801,30.548L322.151,30.548L323.326,30.491L324.502,30.491L325.677,30.434L326.851,30.375L328.027,30.375L329.201,30.317L330.376,30.259L331.552,30.202L332.727,30.202L333.901,30.145L335.272,30.087L336.448,30.028L337.623,30.028L338.798,29.971L339.974,29.971L341.146,29.914L342.322,29.914L343.499,29.855L345.848,29.855L347.022,29.798L348.196,29.798L349.373,29.739L350.548,29.739L351.722,29.798L352.898,29.855L354.072,29.798L355.247,29.739L358.773,29.739L360.144,29.682L361.319,29.682L362.492,29.625L363.668,29.566L364.843,29.566L366.018,29.509L374.245,29.509L375.418,29.451L376.594,29.451L377.771,29.395L378.943,29.395L380.119,29.336L381.294,29.277L382.468,29.277L383.645,29.22L386.189,29.22L387.364,29.162L388.54,29.162L389.715,29.105L390.89,29.105L392.065,29.047L393.24,28.988L394.415,28.932L404.991,28.932L406.166,28.874L411.061,28.874L412.235,28.816L416.937,28.816L418.11,28.758L422.812,28.758L423.986,28.7L428.687,28.7L429.862,28.643L431.035,28.643L432.211,28.585L433.386,28.527L434.562,28.527L435.933,28.47L437.107,28.412L438.282,28.354L439.458,28.354L440.633,28.296L441.808,28.296L442.981,28.238L444.158,28.18L445.332,28.18L446.507,28.123L447.682,28.065L448.857,28.18L450.033,28.008L451.207,27.95L452.384,27.95L453.559,27.892L455.907,27.892L457.083,27.835L458.258,27.835L459.433,27.776L460.608,27.776L461.979,27.719L463.154,27.719L464.328,27.661L465.505,27.604L466.679,27.604L467.854,27.546L469.028,27.487L470.204,27.487L471.379,27.431L472.554,27.431L473.729,27.372L474.904,27.372L476.078,27.314L478.429,27.314L479.604,27.257L480.778,27.257L481.953,27.198L484.305,27.198L485.479,27.142L486.849,27.142L488.025,27.084L490.374,27.084L491.55,27.026L492.725,27.026L493.899,26.968L496.251,26.968L497.426,26.91L498.6,26.91L499.776,26.854L502.125,26.854L503.3,26.795L504.476,26.795L505.65,26.737L508.001,26.737L509.176,26.679L510.35,26.679L511.524,26.621L514.071,26.621L515.246,26.564L516.421,26.564L517.597,26.506L519.946,26.506L521.12,26.448L522.297,26.333L523.471,26.275L524.646,26.16L525.821,26.102L526.996,25.986L528.171,25.928L530.522,25.928L531.697,25.986L532.871,26.045L537.767,26.045L538.942,26.102L542.467,26.102L543.644,26.045L544.818,25.986L545.992,25.928L547.169,25.871L548.343,25.756L549.518,25.697L550.692,25.64L551.868,25.64L553.043,25.583L554.217,25.583L555.392,25.524L556.568,25.524L557.742,25.467L558.917,25.352L560.093,25.235L561.268,25.178L562.639,25.235L563.813,25.235L564.989,25.178L566.164,25.063L567.338,24.946L568.513,24.774L569.688,24.658L570.863,24.543L572.038,24.485L579.089,24.485L580.264,24.369L581.439,24.254L582.614,24.196L583.789,24.139L584.964,24.081L586.14,24.023L587.314,23.966L588.686,23.849L589.859,23.734L591.036,23.677L592.21,23.561L593.385,23.561L594.56,23.504L595.735,23.504L596.91,23.445L598.085,23.388L599.261,23.33L600.436,23.215L601.609,23.1L602.784,23.041L603.96,22.926L605.135,22.868L606.31,22.811L607.484,22.753L608.66,22.695L609.835,22.637L611.01,22.522L612.187,22.464L613.557,22.349L614.73,22.291L615.905,22.175L617.081,22.117L618.256,22.003L619.431,21.944L620.606,21.829L621.782,21.77L622.957,21.655L624.131,21.54L625.308,21.482L626.481,21.366L627.656,21.31L628.831,21.193L630.007,21.136L631.182,21.02L632.356,20.963L633.532,20.847L634.707,20.789L635.881,20.674L637.056,20.558L638.231,20.443L639.603,20.327L640.777,20.27L641.952,20.154L643.128,20.038L644.303,19.981L645.477,19.924L646.651,19.865L647.828,19.807L649.002,19.692L650.177,19.635L651.353,19.692L652.527,19.635L653.702,19.518L654.878,19.462L656.054,19.403L657.229,19.346L658.402,19.288L659.579,19.23L660.753,19.173L661.928,19.114L663.103,19.057L664.474,18.998L665.648,18.884L666.823,18.769L667.997,18.595L669.175,18.479L671.523,18.249L672.699,18.133L673.874,18.133L675.049,17.96L676.224,17.786L677.399,17.672L678.574,17.556L679.748,17.439L680.923,17.267L682.099,17.151L683.273,16.978L684.448,16.863L685.624,16.805L686.799,16.401L687.974,16.343L689.149,16.112L690.521,15.707L691.695,15.419L692.869,15.187L694.046,14.611L695.22,14.091L696.395,13.514L697.569,12.821L698.745,11.492L699.92,9.991L701.095,8.547L702.269,7.45L703.446,6.411L704.62,5.833L705.795,5.545L706.971,5.256L708.146,4.852L709.32,4.679L710.495,4.562L711.671,4.447L712.846,4.331L714.02,4.216L715.391,4.216L716.567,4.101L717.741,3.985L718.916,3.928L720.091,3.87L721.267,3.87L722.441,3.812L723.616,3.754L724.792,3.696L725.967,3.639L727.141,3.581L728.317,3.522L729.491,3.466L730.666,3.408L731.841,3.351L733.017,3.292L734.191,3.233L735.366,3.177L736.54,3.119L737.718,3.062L738.892,3.003L740.262,2.945L741.437,2.889L742.612,2.83L744.962,2.83L746.138,2.772L747.312,2.772L748.488,2.714L750.839,2.714L752.013,2.657L753.187,2.657L754.362,2.6L755.538,2.541L756.713,2.541L757.887,2.483L759.063,2.426L760.238,2.426L761.412,2.369L762.589,2.369L763.763,2.311L764.937,2.252L766.309,2.252L767.484,2.194L768.659,2.138L769.834,2.138L771.008,2.021L772.185,1.964L773.358,1.906L774.533,1.732L775.708,1.56L776.884,1.502L778.059,1.502L779.233,1.444L780.409,1.444L781.584,1.387L782.758,1.387L783.934,1.329L785.109,1.329L786.284,1.27L791.18,1.27L792.354,1.214L797.055,1.214L798.23,1.154L801.756,1.154L802.931,1.099L804.105,1.099L805.279,1.04L806.456,1.04L807.63,0.982L808.805,0.982L809.979,0.925L811.155,0.925L812.33,0.866L814.681,0.866L815.855,0.81L817.227,0.81L818.4,0.751L819.577,0.694L820.751,0.694L821.926,0.636L823.101,0.636L825.451,0.52L826.626,0.52L827.8,0.462L828.978,0.462L830.151,0.405L831.326,0.405L832.502,0.347L833.677,0.347L834.852,0.29L836.027,0.29L837.202,0.231L838.377,0.174L839.551,0.174L840.728,0.116L842.099,0.116L843.272,0.059L844.447,0.059L845.623,0.001L846.798,-0.058L847.973,-0.115L860.896,-0.115L862.071,-0.346L863.249,-0.346L864.423,-0.403L865.598,-0.403L866.773,-0.461L868.144,-0.52L869.318,-0.52L870.493,-0.577L871.669,-0.635L872.844,-0.691L874.018,-0.691L875.195,-0.75L876.369,-0.809L877.544,-0.865L878.719,-0.865L879.895,-0.923L881.069,-0.98L882.244,-0.98L883.418,-1.039L884.595,-1.098L885.769,-1.154L886.943,-1.154L888.119,-1.212L889.294,-1.27L890.469,-1.27L891.644,-1.328L893.016,-1.385L894.19,-1.442L895.365,-1.442L896.539,-1.501L897.716,-1.559L898.89,-1.559" style="fill:none;fill-rule:nonzero;stroke:rgb(88,89,91);stroke-width:0.65px;"/>
        </g>
    </g>
</svg>
