<?xml version="1.0" encoding="UTF-8" standalone="no"?>
<!DOCTYPE svg PUBLIC "-//W3C//DTD SVG 1.1//EN" "http://www.w3.org/Graphics/SVG/1.1/DTD/svg11.dtd">
<svg width="100%" height="100%" viewBox="0 0 1021 301" version="1.1" xmlns="http://www.w3.org/2000/svg" xmlns:xlink="http://www.w3.org/1999/xlink" xml:space="preserve" xmlns:serif="http://www.serif.com/" style="fill-rule:evenodd;clip-rule:evenodd;">
    <g transform="matrix(1,0,0,1,61.46,170.098)">
        <g id="depth-section" serif:id="depth section">
            <path d="M0,24.543L1.175,27.949L2.35,27.949L3.525,28.181L4.896,28.412L6.071,28.643L7.246,28.931L8.422,29.22L9.597,29.509L10.771,29.797L11.947,30.086L13.12,30.316L14.296,30.548L15.472,30.778L16.646,30.953L17.821,31.125L18.996,31.298L20.17,31.473L21.347,31.587L22.521,31.761L23.696,31.876L24.872,32.049L26.047,32.223L27.222,32.338L28.397,32.396L29.57,32.454L30.942,32.511L35.643,32.511L36.817,32.454L43.868,32.454L45.042,32.396L54.441,32.396L55.813,32.338L60.514,32.338L61.688,32.28L67.564,32.28L68.737,32.223L72.264,32.223L73.439,32.165L76.965,32.165L78.139,32.223L80.684,32.223L81.86,32.28L83.035,32.338L84.21,32.338L85.386,32.396L86.559,32.396L87.735,32.454L88.911,32.454L90.084,32.511L91.26,32.511L92.435,32.568L93.609,32.568L94.785,32.627L97.135,32.627L98.311,32.685L103.009,32.685L104.186,32.743L112.606,32.743L113.78,32.8L116.132,32.8L117.307,32.857L118.481,32.857L119.657,32.916L122.007,32.916L123.183,32.974L124.355,32.974L125.531,33.031L127.881,33.031L129.057,33.088L132.776,33.088L133.953,33.147L138.652,33.147L139.827,33.088L143.353,33.088L144.526,33.031L145.701,32.974L146.878,32.916L148.052,32.857L149.227,32.8L150.403,32.8L151.578,32.743L153.929,32.743L155.102,32.685L167.048,32.685L168.225,32.743L171.749,32.743L172.924,32.8L177.624,32.8L178.798,32.857L184.869,32.857L186.045,32.916L188.395,32.916L189.57,32.974L190.745,32.974L191.919,33.031L193.096,33.031L194.27,33.088L195.444,33.088L196.621,33.147L197.795,33.147L198.971,33.204L200.145,33.204L201.319,33.262L204.845,33.262L206.02,33.32L209.741,33.32L210.917,33.377L214.442,33.377L215.615,33.436L219.141,33.436L220.316,33.492L225.017,33.492L226.19,33.551L230.893,33.551L232.066,33.608L235.788,33.608L236.961,33.666L240.486,33.666L241.662,33.725L244.013,33.725L245.188,33.666L248.714,33.666L249.887,33.608L252.237,33.608L253.412,33.551L255.763,33.551L256.937,33.492L258.308,33.492L259.484,33.436L260.658,33.436L261.833,33.377L264.184,33.377L265.358,33.32L267.709,33.32L268.884,33.262L272.408,33.262L273.583,33.204L286.704,33.204L287.881,33.147L292.579,33.147L293.756,33.088L298.455,33.088L299.63,33.031L303.155,33.031L304.331,32.974L307.854,32.974L309.228,32.916L312.751,32.916L313.926,32.857L316.276,32.857L317.45,32.8L318.627,32.8L319.801,32.743L320.976,32.743L322.151,32.685L324.502,32.685L325.677,32.627L328.027,32.627L329.201,32.568L331.552,32.568L332.727,32.511L336.448,32.511L337.623,32.454L338.798,32.511L339.974,32.511L341.146,32.568L342.322,32.568L343.499,32.627L344.672,32.627L345.848,32.685L347.022,32.685L348.196,32.743L349.373,32.743L350.548,32.8L356.423,32.8L357.596,32.743L358.773,32.685L360.144,32.627L361.319,32.511L362.492,32.396L364.843,32.396L366.018,32.338L368.368,32.454L369.544,32.568L370.72,32.627L371.895,32.454L373.068,32.338L374.245,32.28L375.418,32.165L376.594,31.991L387.364,31.991L388.54,31.935L389.715,31.935L392.065,31.587L393.24,31.761L394.415,31.761L395.591,31.703L396.764,31.646L397.939,31.587L399.114,31.529L400.289,31.473L401.465,31.473L402.64,31.414L404.991,31.414L406.166,31.356L408.517,31.356L409.689,31.298L412.235,31.298L413.411,31.241L414.585,31.241L415.762,31.184L418.11,31.184L419.287,31.125L421.636,31.125L422.812,31.067L425.161,31.067L426.337,31.01L428.687,31.01L429.862,30.953L431.035,30.953L432.211,31.01L433.386,31.01L434.562,31.067L438.282,31.067L439.458,31.01L440.633,30.953L441.808,30.836L442.981,30.778L444.158,30.664L445.332,30.605L446.507,30.605L447.682,30.548L448.857,30.49L450.033,30.433L451.207,30.433L452.384,30.375L453.559,30.316L454.732,30.259L455.907,30.201L457.083,30.144L459.433,30.028L460.608,30.028L461.979,29.971L463.154,29.855L464.328,29.797L465.505,29.797L466.679,29.738L467.854,29.682L469.028,29.624L470.204,29.566L471.379,29.509L472.554,29.45L473.729,29.394L474.904,29.394L476.078,29.335L477.253,29.335L478.429,29.277L480.778,29.277L481.953,29.22L483.129,29.22L484.305,29.161L485.479,29.161L486.849,29.105L488.025,29.105L489.199,29.046L490.374,29.046L491.55,28.989L493.899,28.989L495.074,28.931L496.251,28.931L497.426,28.874L498.6,28.874L499.776,28.815L500.95,28.815L502.125,28.757L504.476,28.757L505.65,28.7L506.825,28.7L508.001,28.643L509.176,28.643L510.35,28.585L511.524,28.585L512.897,28.526L514.071,28.526L515.246,28.469L517.597,28.469L518.771,28.412L519.946,28.412L521.12,28.354L522.297,28.354L523.471,28.296L524.646,28.123L525.821,28.007L526.996,27.949L528.171,27.834L529.346,27.718L530.522,27.545L531.697,27.43L532.871,27.545L534.048,27.604L535.222,27.66L536.396,27.545L538.942,27.545L540.117,27.66L541.293,27.834L542.467,27.775L543.644,27.604L544.818,27.545L545.992,27.43L547.169,27.372L548.343,27.256L549.518,27.142L550.692,27.025L551.868,26.853L553.043,26.736L554.217,26.564L555.392,26.447L556.568,26.333L557.742,26.217L558.917,26.102L560.093,26.044L561.268,25.928L562.639,25.985L563.813,26.102L564.989,26.102L566.164,26.044L567.338,26.044L568.513,25.928L569.688,25.64L570.863,25.293L572.038,25.178L573.214,25.119L574.389,25.178L576.738,25.178L577.915,25.235L579.089,25.235L580.264,25.293L581.439,25.293L582.614,25.351L583.789,25.351L584.964,25.293L586.14,25.235L587.314,25.119L588.686,25.004L589.859,24.889L591.036,24.715L592.21,24.543L593.385,24.484L594.56,24.426L596.91,24.312L598.085,24.312L599.261,24.254L600.436,24.195L601.609,24.426L602.784,24.715L603.96,24.773L606.31,24.543L607.484,24.426L608.66,24.312L609.835,24.139L611.01,24.022L612.187,23.85L613.557,23.733L614.73,23.618L615.905,23.562L617.081,23.445L618.256,23.562L619.431,23.676L620.606,23.792L621.782,23.85L622.957,23.906L624.131,23.906L625.308,23.792L626.481,23.214L627.656,23.156L628.831,23.099L630.007,23.041L631.182,23.041L632.356,22.983L637.056,22.983L638.231,22.925L639.603,22.868L640.777,22.811L641.952,22.752L643.128,22.752L644.303,22.579L645.477,22.348L646.651,22.116L647.828,21.828L649.002,21.654L650.177,21.713L651.353,22.175L652.527,22.291L653.702,22.232L654.878,22.116L656.054,22.291L657.229,22.291L658.402,22.522L659.579,22.579L660.753,22.636L663.103,22.752L664.474,22.868L665.648,22.868L666.823,23.099L667.997,23.156L669.175,23.214L670.349,23.329L671.523,23.387L672.699,23.562L673.874,23.676L675.049,23.387L676.224,23.445L677.399,23.272L678.574,23.329L679.748,22.983L680.923,22.925L682.099,23.041L683.273,23.099L684.448,23.099L685.624,23.156L686.799,23.214L687.974,23.156L689.149,22.983L690.521,22.002L691.695,21.713L692.869,21.193L694.046,20.962L695.22,20.212L696.395,20.212L697.569,19.231L698.745,18.19L699.92,16.284L701.095,14.38L702.269,12.704L703.446,11.434L704.62,11.087L705.795,10.395L706.971,10.221L708.146,9.933L709.32,9.816L710.495,9.875L711.671,9.76L712.846,9.586L714.02,9.412L715.391,9.412L716.567,9.355L717.741,9.066L718.916,8.951L720.091,8.893L721.267,8.778L722.441,8.778L723.616,8.72L724.792,8.662L725.967,8.546L727.141,8.489L728.317,8.373L729.491,8.315L730.666,8.2L731.841,8.142L733.017,8.084L734.191,8.027L735.366,7.97L736.54,7.97L737.718,7.911L738.892,7.738L740.262,7.622L741.437,7.508L742.612,7.449L743.787,7.334L744.962,7.276L746.138,7.219L747.312,7.103L748.488,7.044L749.662,6.872L750.839,6.756L752.013,6.641L753.187,6.525L754.362,6.41L755.538,6.295L756.713,6.179L757.887,6.064L759.063,5.948L760.238,5.832L761.412,5.718L762.589,5.602L763.763,5.485L764.937,5.37L766.309,5.198L767.484,5.081L768.659,4.967L769.834,4.62L771.008,4.389L772.185,4.216L773.358,4.042L774.533,3.812L775.708,3.58L776.884,3.407L778.059,3.177L779.233,3.003L780.409,2.83L781.584,2.713L782.758,2.657L783.934,2.541L785.109,2.483L786.284,2.31L787.459,2.194L788.634,2.021L789.81,1.905L791.18,1.79L792.354,1.675L793.528,1.501L794.706,1.387L795.88,1.271L798.23,1.039L799.405,0.924L800.58,0.75L801.756,0.462L802.931,0.231L804.105,0L805.279,-0.289L806.456,-0.462L807.63,-0.578L808.805,-0.751L809.979,-0.866L811.155,-1.098L812.33,-1.443L813.505,-1.674L814.681,-1.848L815.855,-2.021L817.227,-2.138L818.4,-2.311L819.577,-2.482L820.751,-2.771L821.926,-2.944L823.101,-3.118L824.276,-3.464L825.451,-4.331L826.626,-4.39L827.8,-4.793L828.978,-4.966L830.151,-4.734L831.326,-4.734L832.502,-4.909L833.677,-5.023L834.852,-4.793L836.027,-4.851L837.202,-4.966L838.377,-5.082L839.551,-5.254L840.728,-5.429L842.099,-5.602L843.272,-5.774L844.447,-6.063L845.623,-6.179L846.798,-6.353L847.973,-6.469L849.146,-6.583L850.323,-6.757L851.498,-6.813L852.672,-6.929L853.849,-6.987L855.022,-7.103L857.372,-7.333L858.548,-7.507L859.723,-7.681L860.896,-7.738L862.071,-7.969L863.249,-7.969L864.423,-8.026L865.598,-8.026L866.773,-8.084L868.144,-8.143L869.318,-8.143L870.493,-8.2L871.669,-8.258L872.844,-8.314L874.018,-8.314L875.195,-8.373L876.369,-8.432L877.544,-8.488L878.719,-8.488L879.895,-8.546L881.069,-8.603L882.244,-8.603L883.418,-8.662L884.595,-8.721L885.769,-8.777L886.943,-8.777L888.119,-8.835L889.294,-8.893L890.469,-8.893L891.644,-8.951L893.016,-9.008L894.19,-9.065L895.365,-9.065L896.539,-9.124L897.716,-9.182L898.89,-9.182" style="fill:none;fill-rule:nonzero;stroke:rgb(88,89,91);stroke-width:0.65px;"/>
        </g>
    </g>
</svg>
