<?xml version="1.0" encoding="UTF-8" standalone="no"?>
<!DOCTYPE svg PUBLIC "-//W3C//DTD SVG 1.1//EN" "http://www.w3.org/Graphics/SVG/1.1/DTD/svg11.dtd">
<svg width="100%" height="100%" viewBox="0 0 1021 301" version="1.1" xmlns="http://www.w3.org/2000/svg" xmlns:xlink="http://www.w3.org/1999/xlink" xml:space="preserve" xmlns:serif="http://www.serif.com/" style="fill-rule:evenodd;clip-rule:evenodd;">
    <g transform="matrix(1,0,0,1,61.46,163.398)">
        <g id="depth-section" serif:id="depth section">
            <path d="M0,31.243L1.175,31.878L2.35,33.379L3.525,33.436L4.896,33.553L7.246,33.667L13.12,33.667L14.296,33.725L33.293,33.725L34.466,33.667L37.992,33.667L39.168,33.61L41.517,33.61L42.693,33.553L46.219,33.553L47.392,33.494L50.916,33.494L52.093,33.436L55.813,33.436L56.988,33.379L59.338,33.379L60.514,33.322L64.039,33.322L65.214,33.264L68.737,33.264L69.914,33.206L99.485,33.206L100.659,33.147L103.009,33.147L104.186,33.09L106.731,33.09L107.905,33.033L109.081,33.033L110.256,32.974L111.43,32.974L112.606,32.917L113.78,32.859L114.955,32.802L116.132,32.744L117.307,32.685L118.481,32.628L119.657,32.628L120.83,32.57L122.007,32.57L123.183,32.514L124.355,32.514L125.531,32.455L126.706,32.455L127.881,32.396L129.057,32.396L130.231,32.34L131.603,32.282L132.776,32.282L133.953,32.224L135.128,32.224L136.302,32.166L137.479,32.166L138.652,32.107L139.827,32.107L141.003,32.051L142.176,31.993L143.353,31.993L144.526,31.935L145.701,31.935L146.878,31.878L148.052,31.878L149.227,31.819L150.403,31.819L151.578,31.763L152.753,31.763L153.929,31.704L155.102,31.704L156.277,31.646L157.647,31.646L158.824,31.589L159.997,31.589L161.173,31.531L163.523,31.531L164.699,31.473L168.225,31.473L169.398,31.415L171.749,31.415L172.924,31.358L175.274,31.358L176.447,31.3L177.624,31.3L178.798,31.243L179.973,31.243L181.148,31.184L182.52,31.184L183.694,31.126L184.869,31.126L186.045,31.069L187.22,31.069L188.395,31.012L190.745,31.012L191.919,30.954L193.096,30.954L194.27,30.895L196.621,30.895L197.795,30.839L200.145,30.839L201.319,30.781L204.845,30.781L206.02,30.722L209.741,30.722L210.917,30.665L215.615,30.665L216.791,30.606L222.666,30.606L223.842,30.55L235.788,30.55L236.961,30.492L248.714,30.492L249.887,30.433L256.937,30.433L258.308,30.376L265.358,30.376L266.534,30.318L290.23,30.318L291.405,30.262L315.102,30.262L316.276,30.203L318.627,30.203L319.801,30.145L320.976,30.145L322.151,30.087L324.502,30.087L325.677,30.029L326.851,30.029L328.027,29.972L330.376,29.972L331.552,29.914L332.727,29.914L333.901,29.856L335.272,29.856L336.448,29.799L337.623,29.799L338.798,29.741L341.146,29.741L342.322,29.683L343.499,29.625L344.672,29.625L345.848,29.568L347.022,29.568L348.196,29.511L349.373,29.511L350.548,29.452L351.722,29.511L352.898,29.625L354.072,29.625L355.247,29.568L356.423,29.568L357.596,29.511L358.773,29.511L360.144,29.452L363.668,29.452L364.843,29.511L366.018,29.452L367.193,29.452L368.368,29.336L369.544,29.279L370.72,29.336L371.895,29.394L373.068,29.511L374.245,29.452L375.418,29.452L376.594,29.222L378.943,29.222L380.119,28.991L382.468,28.991L383.645,28.932L384.818,28.875L387.364,28.875L388.54,28.932L389.715,28.991L390.89,29.105L392.065,28.991L394.415,28.991L395.591,29.048L397.939,29.048L399.114,29.105L429.862,29.105L431.035,29.048L432.211,28.932L433.386,29.048L434.562,29.164L441.808,29.164L442.981,29.105L446.507,29.105L448.857,28.991L450.033,28.932L451.207,28.991L453.559,28.991L454.732,28.932L455.907,28.875L457.083,28.816L458.258,28.816L460.608,28.702L461.979,28.528L463.154,28.297L464.328,28.297L465.505,28.354L466.679,28.413L467.854,28.413L469.028,28.354L470.204,28.297L471.379,28.239L472.554,28.182L473.729,28.124L474.904,28.124L476.078,28.065L477.253,28.065L478.429,28.009L479.604,28.009L480.778,27.951L481.953,27.893L483.129,27.893L484.305,27.835L485.479,27.835L486.849,27.777L488.025,27.72L489.199,27.72L490.374,27.662L491.55,27.662L492.725,27.604L493.899,27.547L495.074,27.547L496.251,27.489L497.426,27.489L498.6,27.431L499.776,27.431L500.95,27.373L502.125,27.315L503.3,27.315L504.476,27.257L505.65,27.257L506.825,27.2L508.001,27.2L509.176,27.142L510.35,27.085L511.524,27.085L512.897,27.027L514.071,27.027L515.246,26.969L516.421,26.969L517.597,26.912L518.771,26.853L519.946,26.853L521.12,26.796L522.297,26.623L523.471,26.623L524.646,26.508L525.821,26.391L526.996,26.275L528.171,26.219L529.346,26.103L530.522,26.045L531.697,26.103L532.871,26.161L534.048,26.161L535.222,25.987L537.767,25.987L538.942,25.931L540.117,25.872L541.293,25.872L542.467,25.814L543.644,25.698L544.818,25.641L545.992,25.698L547.169,25.468L548.343,25.294L549.518,25.237L550.692,25.237L551.868,25.179L553.043,25.122L554.217,25.122L555.392,25.063L557.742,25.063L558.917,24.89L560.093,24.774L561.268,24.833L562.639,24.89L563.813,24.833L564.989,24.717L566.164,24.601L567.338,24.544L568.513,24.485L569.688,24.197L570.863,24.082L572.038,23.966L573.214,23.908L574.389,24.023L575.563,24.082L576.738,24.14L577.915,24.255L579.089,24.197L580.264,24.082L581.439,24.023L582.614,23.908L583.789,23.851L584.964,23.793L586.14,23.735L587.314,23.678L588.686,23.62L589.859,23.446L591.036,23.389L592.21,23.389L593.385,23.331L595.735,23.331L596.91,23.273L599.261,23.273L600.436,23.216L601.609,23.158L602.784,23.1L603.96,22.984L605.135,22.926L606.31,22.87L607.484,22.754L608.66,22.581L609.835,22.522L611.01,22.465L612.187,22.349L613.557,22.233L614.73,22.118L615.905,22.003L617.081,21.888L618.256,21.83L619.431,21.83L620.606,21.772L621.782,21.714L622.957,21.656L624.131,21.541L625.308,21.31L626.481,21.137L627.656,21.021L628.831,20.963L630.007,20.847L631.182,20.732L632.356,20.617L633.532,20.559L634.707,20.502L635.881,20.443L637.056,20.329L638.231,20.213L639.603,20.097L640.777,20.04L641.952,19.924L643.128,19.809L644.303,19.751L645.477,19.751L646.651,19.693L647.828,19.577L649.002,19.462L650.177,19.52L651.353,19.577L652.527,19.52L653.702,19.462L654.878,19.404L656.054,19.347L657.229,19.289L658.402,19.231L659.579,19.173L660.753,19.115L663.103,19.001L664.474,18.942L665.648,18.884L666.823,18.827L667.997,18.769L669.175,18.653L670.349,18.595L671.523,18.48L672.699,18.423L673.874,18.307L675.049,18.25L676.224,18.134L677.399,18.075L678.574,17.961L679.748,17.902L680.923,17.672L682.099,17.556L683.273,17.441L684.448,17.326L685.624,17.268L686.799,17.152L687.974,17.095L689.149,16.805L690.521,16.516L691.695,16.228L692.869,15.998L694.046,15.823L695.22,15.593L696.395,15.131L697.569,14.496L698.745,13.86L699.92,13.052L701.095,11.667L702.269,10.453L703.446,9.01L704.62,8.721L705.795,7.509L706.971,6.585L708.146,6.008L709.32,5.949L710.495,5.776L711.671,5.602L712.846,5.43L714.02,5.314L715.391,5.314L716.567,5.199L717.741,5.083L718.916,5.026L720.091,5.026L721.267,4.968L722.441,4.968L723.616,4.91L724.792,4.795L725.967,4.737L727.141,4.622L728.317,4.562L729.491,4.562L730.666,4.448L731.841,4.389L733.017,4.333L734.191,4.218L735.366,4.333L736.54,4.274L737.718,4.159L738.892,3.986L740.262,3.929L741.437,3.87L743.787,3.756L744.962,3.639L746.138,3.582L747.312,3.524L748.488,3.467L749.662,3.408L750.839,3.35L752.013,3.35L753.187,3.293L754.362,3.236L755.538,3.178L756.713,3.178L757.887,3.12L759.063,3.062L760.238,3.005L761.412,3.005L762.589,2.947L763.763,2.947L764.937,2.889L766.309,2.831L767.484,2.831L768.659,2.773L769.834,2.773L771.008,2.716L772.185,2.658L773.358,2.658L774.533,2.599L775.708,2.543L776.884,2.485L778.059,2.485L779.233,2.428L780.409,2.369L781.584,2.369L782.758,2.31L783.934,2.31L785.109,2.254L786.284,2.254L787.459,2.196L788.634,2.139L789.81,2.139L791.18,2.08L794.706,2.08L795.88,2.022L800.58,2.022L801.756,1.966L802.931,1.907L804.105,1.849L805.279,1.849L806.456,1.791L807.63,1.791L808.805,1.677L809.979,1.618L811.155,1.446L812.33,1.271L813.505,1.215L814.681,1.157L815.855,1.157L817.227,1.041L818.4,0.868L819.577,0.809L820.751,0.752L821.926,0.809L823.101,0.695L825.451,0.579L826.626,0.464L827.8,0.406L828.978,0.347L830.151,0.291L831.326,0.291L832.502,0.231L833.677,0.176L834.852,0.176L836.027,0.117L837.202,0.117L838.377,0.059L839.551,0.002L840.728,0.002L842.099,-0.057L843.272,-0.287L844.447,-0.287L845.623,-0.345L846.798,-0.345L847.973,-0.403L849.146,-0.403L850.323,-0.461L851.498,-0.518L853.849,-0.518L855.022,-0.576L856.197,-0.576L857.372,-0.633L858.548,-0.807L859.723,-0.981L860.896,-1.038L862.071,-1.269L863.249,-1.269L864.423,-1.326L865.598,-1.326L866.773,-1.384L868.144,-1.443L869.318,-1.443L870.493,-1.5L871.669,-1.558L872.844,-1.614L874.018,-1.614L875.195,-1.673L876.369,-1.732L877.544,-1.788L878.719,-1.788L879.895,-1.846L881.069,-1.903L882.244,-1.903L883.418,-1.962L884.595,-2.021L885.769,-2.077L886.943,-2.077L888.119,-2.135L889.294,-2.193L890.469,-2.193L891.644,-2.251L893.016,-2.308L894.19,-2.365L895.365,-2.365L896.539,-2.424L897.716,-2.482L898.89,-2.482" style="fill:none;fill-rule:nonzero;stroke:rgb(88,89,91);stroke-width:0.65px;"/>
        </g>
    </g>
</svg>
