<?xml version="1.0" encoding="UTF-8" standalone="no"?>
<!DOCTYPE svg PUBLIC "-//W3C//DTD SVG 1.1//EN" "http://www.w3.org/Graphics/SVG/1.1/DTD/svg11.dtd">
<svg width="100%" height="100%" viewBox="0 0 1021 301" version="1.1" xmlns="http://www.w3.org/2000/svg" xmlns:xlink="http://www.w3.org/1999/xlink" xml:space="preserve" xmlns:serif="http://www.serif.com/" style="fill-rule:evenodd;clip-rule:evenodd;">
    <g transform="matrix(1,0,0,1,61.46,181.127)">
        <g id="depth-section" serif:id="depth section">
            <path d="M0,13.514L1.175,16.92L2.35,16.92L3.525,17.152L4.896,17.383L6.071,17.614L7.246,17.902L8.422,18.191L9.597,18.48L10.771,18.768L11.947,19.057L13.12,19.287L14.296,19.519L15.472,19.749L16.646,19.924L17.821,20.096L18.996,20.269L20.17,20.444L21.347,20.558L22.521,20.732L23.696,20.847L24.872,21.02L26.047,21.194L27.222,21.367L28.397,21.598L29.57,21.828L30.942,22.059L32.117,22.291L33.293,22.579L34.466,22.868L35.643,23.157L36.817,23.446L37.992,23.677L39.168,23.966L40.343,24.254L41.517,24.542L42.693,24.831L43.868,25.119L45.042,25.409L46.219,25.64L47.392,25.929L48.567,26.217L49.743,26.506L50.916,26.738L52.093,26.968L54.441,27.43L55.813,27.546L56.988,27.661L58.163,27.661L59.338,27.719L61.688,27.719L62.863,27.777L65.214,27.777L66.388,27.834L71.089,27.834L72.264,27.891L75.788,27.891L76.965,27.95L79.313,27.95L80.684,28.008L83.035,28.008L84.21,28.066L85.386,28.066L86.559,28.123L87.735,28.123L88.911,28.18L90.084,28.239L91.26,28.239L92.435,28.296L93.609,28.354L94.785,28.411L95.96,28.411L97.135,28.469L98.311,28.469L99.485,28.528L101.836,28.528L103.009,28.585L110.256,28.585L111.43,28.528L119.657,28.528L120.83,28.469L130.231,28.469L131.603,28.411L136.302,28.411L137.479,28.354L139.827,28.354L141.003,28.296L144.526,28.296L145.701,28.239L155.102,28.239L156.277,28.296L158.824,28.296L159.997,28.354L161.173,28.411L162.351,28.469L163.523,28.528L164.699,28.585L165.874,28.701L167.048,28.817L168.225,28.873L169.398,28.99L170.573,29.047L171.749,29.162L175.274,29.336L176.447,29.394L177.624,29.451L178.798,29.509L179.973,29.567L181.148,29.567L182.52,29.624L183.694,29.682L184.869,29.74L186.045,29.798L187.22,29.856L188.395,29.856L190.745,29.97L191.919,30.029L193.096,30.087L195.444,30.201L196.621,30.259L197.795,30.318L198.971,30.376L200.145,30.433L201.319,30.491L202.496,30.491L203.67,30.548L204.845,30.607L206.02,30.607L207.195,30.663L208.566,30.663L209.741,30.721L210.917,30.78L212.092,30.78L213.267,30.837L214.442,30.837L215.615,30.896L216.791,30.896L217.966,30.952L219.141,30.952L220.316,31.01L221.491,31.01L222.666,31.069L223.842,31.069L225.017,31.125L226.19,31.125L227.367,31.184L228.541,31.241L229.716,31.241L230.893,31.299L232.066,31.358L233.437,31.358L234.612,31.414L235.788,31.473L236.961,31.473L238.138,31.53L239.312,31.588L240.486,31.588L241.662,31.645L242.838,31.703L244.013,31.703L246.363,31.819L247.537,31.819L248.714,31.877L249.887,31.934L251.062,31.934L252.237,31.993L253.412,31.993L254.588,32.05L256.937,32.05L258.308,32.108L260.658,32.108L261.833,32.165L263.009,32.165L264.184,32.222L265.358,32.222L266.534,32.281L267.709,32.281L268.884,32.338L270.06,32.338L271.232,32.397L272.408,32.397L273.583,32.454L274.758,32.454L275.934,32.511L277.109,32.57L278.284,32.627L279.46,32.685L280.635,32.743L281.809,32.8L282.985,32.859L284.355,32.916L285.529,32.974L286.704,32.974L287.881,33.032L289.055,33.089L290.23,33.089L291.405,33.148L292.579,33.204L293.756,33.204L294.93,33.262L296.104,33.262L297.28,33.32L298.455,33.378L299.63,33.378L300.806,33.437L301.98,33.437L303.155,33.493L304.331,33.493L305.504,33.551L306.68,33.551L307.854,33.609L309.228,33.609L310.4,33.667L312.751,33.667L313.926,33.725L316.276,33.725L317.45,33.609L318.627,33.493L319.801,33.32L320.976,33.148L322.151,32.974L323.326,32.859L324.502,32.685L325.677,32.511L326.851,32.397L328.027,32.222L329.201,32.108L330.376,31.934L331.552,31.819L332.727,31.645L333.901,31.473L335.272,31.358L336.448,31.241L337.623,31.069L338.798,31.01L339.974,30.896L341.146,30.837L342.322,30.721L343.499,30.663L344.672,30.548L345.848,30.433L347.022,30.318L348.196,29.856L349.373,29.336L350.548,28.873L351.722,28.931L352.898,28.99L354.072,29.106L355.247,28.817L356.423,28.123L357.596,28.066L358.773,28.123L360.144,27.891L361.319,27.834L362.492,27.603L363.668,27.546L364.843,27.719L366.018,27.95L367.193,28.008L370.72,28.008L371.895,27.777L373.068,27.603L374.245,27.488L375.418,26.794L376.594,26.738L377.771,26.794L378.943,27.027L380.119,27.027L381.294,27.315L382.468,27.257L383.645,26.91L384.818,26.853L386.189,27.083L387.364,27.142L388.54,27.199L389.715,27.083L390.89,27.027L392.065,27.027L393.24,27.488L394.415,27.488L395.591,27.891L396.764,28.123L397.939,28.18L399.114,27.95L400.289,27.603L401.465,27.142L402.64,27.027L403.815,26.968L404.991,27.027L406.166,27.027L407.34,27.083L408.517,27.083L409.689,27.142L412.235,27.142L413.411,27.199L414.585,27.199L415.762,27.257L418.11,27.257L419.287,27.315L420.461,27.315L421.636,27.372L423.986,27.372L425.161,27.43L426.337,27.43L427.512,27.488L429.862,27.488L431.035,27.546L432.211,27.546L433.386,27.661L434.562,27.95L435.933,28.008L437.107,27.891L438.282,27.777L439.458,27.834L440.633,27.834L441.808,27.777L442.981,27.43L444.158,27.083L445.332,26.738L446.507,26.794L447.682,26.853L448.857,26.679L450.033,26.738L452.384,26.738L453.559,26.679L454.732,26.622L455.907,26.622L457.083,26.565L458.258,26.565L459.433,26.506L460.608,26.506L461.979,26.39L463.154,26.333L464.328,26.333L465.505,26.449L466.679,26.565L467.854,26.506L469.028,26.276L470.204,26.333L471.379,26.333L472.554,26.16L473.729,26.16L474.904,26.102L476.078,26.045L477.253,25.987L478.429,25.929L479.604,25.87L480.778,25.813L481.953,25.756L484.305,25.64L485.479,25.64L486.849,25.582L488.025,25.525L489.199,25.467L490.374,25.409L491.55,25.351L492.725,25.293L493.899,25.236L495.074,25.178L496.251,25.178L497.426,25.119L498.6,25.063L499.776,25.005L500.95,24.948L502.125,24.889L503.3,24.831L504.476,24.775L505.65,24.716L506.825,24.716L508.001,24.659L509.176,24.6L510.35,24.542L511.524,24.486L512.897,24.427L514.071,24.369L515.246,24.312L516.421,24.254L517.597,24.197L518.771,24.197L519.946,24.138L521.12,24.08L522.297,23.908L523.471,23.677L524.646,23.503L525.821,23.446L528.171,22.752L529.346,22.752L530.522,22.637L531.697,22.522L532.871,22.407L534.048,22.868L535.222,22.579L536.396,22.407L537.767,22.522L538.942,22.407L540.117,22.175L541.293,22.233L542.467,22.175L543.644,22.002L544.818,21.887L545.992,21.828L547.169,21.598L548.343,21.482L549.518,21.539L550.692,21.482L551.868,21.425L553.043,21.367L554.217,21.309L555.392,21.251L556.568,21.02L557.742,20.847L558.917,20.732L560.093,20.788L561.268,20.847L562.639,21.02L563.813,21.194L564.989,21.251L566.164,21.194L567.338,21.136L568.513,21.136L569.688,20.847L570.863,20.5L572.038,20.212L573.214,20.096L574.389,20.155L575.563,20.096L576.738,20.269L577.915,20.558L579.089,20.674L580.264,20.732L581.439,20.788L582.614,20.847L584.964,20.847L586.14,20.732L587.314,20.558L588.686,20.212L589.859,19.692L591.036,19.346L592.21,19.23L593.385,19.115L594.56,18.942L595.735,18.709L596.91,18.306L598.085,17.96L599.261,18.076L600.436,17.902L601.609,18.017L602.784,17.902L603.96,17.728L605.135,17.614L606.31,17.152L607.484,16.92L608.66,16.746L612.187,16.746L613.557,16.516L614.73,16.575L615.905,16.285L617.081,16.285L618.256,16.343L619.431,16.343L620.606,16.401L621.782,16.458L624.131,16.458L625.308,16.343L626.481,16.227L627.656,16.17L628.831,16.054L631.182,16.054L632.356,15.996L635.881,15.996L637.056,15.881L638.231,15.765L639.603,15.65L640.777,15.65L641.952,15.765L643.128,15.824L644.303,15.938L645.477,16.113L646.651,16.054L647.828,16.113L649.002,16.054L650.177,16.227L651.353,16.864L652.527,16.978L653.702,17.267L654.878,17.267L656.054,17.383L657.229,17.497L658.402,17.671L659.579,17.786L660.753,17.556L661.928,17.902L663.103,18.191L664.474,18.421L665.648,18.48L666.823,18.48L667.997,18.826L669.175,19.115L670.349,19.404L671.523,19.287L672.699,19.346L673.874,19.346L675.049,19.287L676.224,19.404L677.399,19.576L678.574,19.692L680.923,19.692L682.099,19.749L683.273,19.866L684.448,19.981L685.624,20.038L687.974,20.038L689.149,19.924L690.521,19.807L691.695,19.576L692.869,19.346L694.046,19.115L695.22,19.287L696.395,19.404L697.569,19.057L698.745,18.537L699.92,17.845L701.095,16.689L702.269,15.188L703.446,13.975L704.62,13.917L705.795,13.166L706.971,12.474L708.146,11.954L709.32,12.127L710.495,12.185L711.671,12.012L712.846,11.782L714.02,11.319L715.391,11.435L716.567,11.262L717.741,11.03L718.916,11.146L720.091,11.435L721.267,11.665L722.441,11.896L723.616,12.07L724.792,12.185L725.967,12.358L727.141,12.474L729.491,12.474L730.666,12.358L731.841,12.3L733.017,12.185L734.191,12.127L735.366,12.012L736.54,11.839L737.718,11.55L738.892,11.319L740.262,11.146L741.437,10.973L742.612,10.799L743.787,10.568L744.962,10.395L746.138,10.106L747.312,9.875L748.488,9.644L749.662,9.298L750.839,8.952L752.013,8.605L753.187,8.202L754.362,7.739L755.538,7.219L756.713,6.756L757.887,6.237L759.063,5.775L760.238,5.314L761.412,4.909L762.589,4.504L763.763,4.101L764.937,3.523L766.309,2.773L767.484,2.368L768.659,1.444L769.834,0.521L771.008,-0.115L772.185,-0.577L773.358,-0.924L774.533,-1.731L775.708,-2.251L776.884,-2.829L778.059,-3.291L779.233,-3.869L780.409,-4.388L781.584,-4.388L782.758,-4.734L783.934,-5.023L785.109,-5.311L786.284,-5.6L787.459,-5.948L788.634,-6.582L789.81,-7.217L791.18,-7.507L792.354,-7.622L793.528,-7.796L794.706,-8.488L795.88,-9.008L798.23,-9.586L799.405,-9.931L800.58,-10.162L801.756,-10.567L802.931,-10.798L804.105,-11.029L805.279,-11.318L806.456,-11.491L807.63,-11.607L808.805,-11.78L809.979,-11.895L811.155,-12.127L812.33,-12.472L813.505,-12.703L814.681,-12.877L815.855,-13.05L817.227,-13.167L818.4,-13.34L819.577,-13.511L820.751,-13.8L821.926,-13.973L823.101,-14.147L824.276,-14.493L825.451,-15.36L826.626,-15.419L827.8,-15.822L828.978,-15.995L830.151,-15.763L831.326,-15.763L832.502,-15.938L833.677,-16.052L834.852,-15.822L836.027,-15.88L837.202,-15.995L838.377,-16.111L839.551,-16.283L840.728,-16.458L842.099,-16.631L843.272,-16.803L844.447,-17.092L845.623,-17.208L846.798,-17.382L847.973,-17.498L849.146,-17.612L850.323,-17.786L851.498,-17.842L852.672,-17.958L853.849,-18.016L855.022,-18.132L857.372,-18.362L858.548,-18.536L859.723,-18.71L860.896,-18.767L862.071,-18.998L863.249,-18.998L864.423,-19.055L865.598,-19.055L866.773,-19.113L868.144,-19.172L869.318,-19.172L870.493,-19.229L871.669,-19.287L872.844,-19.343L874.018,-19.343L875.195,-19.402L876.369,-19.461L877.544,-19.517L878.719,-19.517L879.895,-19.575L881.069,-19.632L882.244,-19.632L883.418,-19.691L884.595,-19.75L885.769,-19.806L886.943,-19.806L888.119,-19.864L889.294,-19.922L890.469,-19.922L891.644,-19.98L893.016,-20.037L894.19,-20.094L895.365,-20.094L896.539,-20.153L897.716,-20.211L898.89,-20.211" style="fill:none;fill-rule:nonzero;stroke:rgb(46,49,145);stroke-width:1.31px;"/>
        </g>
    </g>
</svg>
