<?xml version="1.0" encoding="UTF-8" standalone="no"?>
<!DOCTYPE svg PUBLIC "-//W3C//DTD SVG 1.1//EN" "http://www.w3.org/Graphics/SVG/1.1/DTD/svg11.dtd">
<svg width="100%" height="100%" viewBox="0 0 1021 301" version="1.1" xmlns="http://www.w3.org/2000/svg" xmlns:xlink="http://www.w3.org/1999/xlink" xml:space="preserve" xmlns:serif="http://www.serif.com/" style="fill-rule:evenodd;clip-rule:evenodd;">
    <g transform="matrix(1,0,0,1,61.46,173.735)">
        <g id="depth-section" serif:id="depth section">
            <path d="M0,20.906L1.175,24.312L2.35,24.312L3.525,24.544L4.896,24.775L6.071,25.006L7.246,25.294L8.422,25.583L9.597,25.872L10.771,26.16L11.947,26.449L13.12,26.679L14.296,26.911L15.472,27.141L16.646,27.316L17.821,27.488L18.996,27.661L20.17,27.836L21.347,27.95L22.521,28.124L23.696,28.239L24.872,28.412L26.047,28.586L27.222,28.759L28.397,28.99L29.57,29.22L30.942,29.451L32.117,29.683L33.293,29.971L34.466,30.26L35.643,30.549L36.817,30.838L37.992,31.069L39.168,31.358L40.343,31.646L41.517,31.704L42.693,31.704L43.868,31.646L54.441,31.646L55.813,31.589L59.338,31.589L60.514,31.53L64.039,31.53L65.214,31.472L67.564,31.472L68.737,31.415L69.914,31.415L71.089,31.358L72.264,31.358L73.439,31.3L75.788,31.3L76.965,31.241L80.684,31.241L81.86,31.184L85.386,31.184L86.559,31.127L99.485,31.127L100.659,31.069L104.186,31.069L105.36,31.01L107.905,31.01L109.081,30.953L119.657,30.953L120.83,31.01L126.706,31.01L127.881,31.069L133.953,31.069L135.128,31.127L152.753,31.127L153.929,31.184L161.173,31.184L162.351,31.241L165.874,31.241L167.048,31.3L169.398,31.3L170.573,31.358L172.924,31.358L174.099,31.415L179.973,31.415L181.148,31.472L186.045,31.472L187.22,31.53L189.57,31.53L190.745,31.589L191.919,31.589L193.096,31.646L194.27,31.646L195.444,31.704L197.795,31.704L198.971,31.761L201.319,31.761L202.496,31.819L204.845,31.819L206.02,31.878L210.917,31.878L212.092,31.934L216.791,31.934L217.966,31.992L222.666,31.992L223.842,32.051L228.541,32.051L229.716,32.108L233.437,32.108L234.612,32.167L238.138,32.167L239.312,32.223L244.013,32.223L245.188,32.281L249.887,32.281L251.062,32.34L271.232,32.34L272.408,32.397L275.934,32.397L277.109,32.455L278.284,32.455L279.46,32.511L280.635,32.511L281.809,32.57L284.355,32.57L285.529,32.628L287.881,32.628L289.055,32.685L291.405,32.685L292.579,32.743L297.28,32.743L298.455,32.801L301.98,32.801L303.155,32.859L307.854,32.859L309.228,32.917L326.851,32.917L328.027,32.974L335.272,32.974L336.448,33.032L337.623,33.032L338.798,33.09L339.974,33.148L341.146,33.205L342.322,33.262L343.499,33.321L344.672,33.379L345.848,33.494L347.022,33.552L348.196,33.609L349.373,33.668L350.548,33.725L351.722,33.725L352.898,33.609L354.072,33.494L355.247,33.379L356.423,33.262L357.596,33.148L358.773,33.032L360.144,32.917L361.319,32.859L362.492,32.801L363.668,32.801L366.018,32.685L367.193,32.57L368.368,32.511L369.544,32.455L370.72,32.34L371.895,32.34L373.068,32.223L374.245,32.108L375.418,31.878L376.594,31.646L377.771,31.589L378.943,31.878L380.119,32.051L381.294,32.223L382.468,32.108L383.645,31.934L384.818,31.761L388.54,31.761L389.715,31.819L390.89,31.819L392.065,31.878L393.24,31.934L394.415,31.934L395.591,31.878L396.764,31.819L397.939,31.761L399.114,31.761L400.289,31.704L401.465,31.646L402.64,31.646L403.815,31.589L412.235,31.589L413.411,31.53L416.937,31.53L418.11,31.472L420.461,31.472L421.636,31.415L423.986,31.415L425.161,31.358L426.337,31.358L427.512,31.3L428.687,31.3L429.862,31.241L431.035,31.184L432.211,31.069L433.386,30.953L434.562,31.01L435.933,31.069L437.107,31.127L438.282,31.184L439.458,31.184L440.633,31.069L441.808,30.895L442.981,30.607L444.158,30.318L445.332,30.203L446.507,30.26L447.682,30.318L448.857,30.318L450.033,30.26L451.207,30.203L452.384,30.144L453.559,30.029L454.732,29.971L455.907,29.914L457.083,29.914L458.258,29.855L460.608,29.855L461.979,29.799L463.154,29.799L464.328,29.74L465.505,29.74L466.679,29.683L467.854,29.625L469.028,29.625L470.204,29.567L471.379,29.625L472.554,29.567L473.729,29.567L474.904,29.51L476.078,29.51L477.253,29.451L478.429,29.451L479.604,29.394L480.778,29.337L481.953,29.337L483.129,29.279L484.305,29.22L485.479,29.22L486.849,29.163L488.025,29.163L489.199,29.106L490.374,29.048L491.55,29.048L492.725,28.99L493.899,28.931L495.074,28.931L496.251,28.874L497.426,28.817L498.6,28.817L499.776,28.759L500.95,28.701L502.125,28.701L503.3,28.643L504.476,28.586L505.65,28.586L506.825,28.528L508.001,28.469L509.176,28.469L510.35,28.412L511.524,28.354L512.897,28.354L514.071,28.298L516.421,28.18L517.597,28.18L518.771,28.124L519.946,28.066L521.12,28.066L522.297,27.95L523.471,27.892L524.646,27.777L525.821,27.719L526.996,27.604L528.171,27.547L529.346,27.488L530.522,27.373L531.697,27.316L532.871,27.258L534.048,27.199L535.222,27.199L536.396,27.141L537.767,27.199L538.942,27.258L540.117,27.316L541.293,27.373L542.467,27.316L543.644,27.199L544.818,27.084L545.992,26.853L547.169,26.507L548.343,26.16L549.518,26.218L550.692,26.334L551.868,26.218L553.043,26.16L554.217,26.101L555.392,26.045L556.568,25.987L557.742,25.757L558.917,25.583L560.093,25.409L561.268,25.294L562.639,25.237L563.813,25.294L564.989,25.352L566.164,25.352L567.338,25.178L568.513,25.006L569.688,24.889L570.863,24.717L572.038,24.659L573.214,24.717L574.389,24.889L575.563,25.006L576.738,25.12L577.915,25.237L579.089,25.294L580.264,25.352L581.439,25.352L582.614,25.409L583.789,25.409L584.964,25.352L586.14,25.352L587.314,24.889L588.686,24.486L589.859,24.197L591.036,23.908L592.21,23.793L594.56,23.677L595.735,23.562L598.085,23.33L599.261,23.273L600.436,23.33L601.609,23.446L602.784,23.446L603.96,23.273L605.135,23.042L606.31,22.81L607.484,22.696L608.66,22.637L609.835,22.637L611.01,22.522L612.187,22.407L613.557,22.177L614.73,21.945L615.905,21.829L617.081,21.77L618.256,21.945L619.431,22.059L620.606,22.118L621.782,22.177L622.957,22.177L624.131,22.059L625.308,21.887L626.481,21.77L627.656,21.656L628.831,21.598L630.007,21.598L631.182,21.541L632.356,21.541L633.532,21.482L634.707,21.482L635.881,21.426L638.231,21.426L639.603,21.482L640.777,21.541L641.952,21.598L643.128,21.656L644.303,21.656L645.477,21.426L646.651,21.309L647.828,21.194L649.002,21.021L650.177,21.078L651.353,21.367L652.527,21.482L653.702,21.598L654.878,21.541L656.054,21.598L657.229,21.656L658.402,21.598L659.579,21.598L660.753,21.714L661.928,21.945L663.103,22.059L664.474,22.177L665.648,22.177L666.823,22.291L667.997,22.522L669.175,22.696L670.349,22.869L671.523,22.927L672.699,22.985L673.874,22.637L675.049,22.58L676.224,22.637L677.399,22.696L678.574,22.696L679.748,22.637L680.923,22.696L682.099,22.696L683.273,22.81L684.448,22.927L685.624,23.042L686.799,23.157L687.974,23.099L689.149,22.81L690.521,22.118L691.695,21.829L692.869,21.367L694.046,20.617L695.22,20.385L696.395,18.885L697.569,18.191L698.745,17.44L699.92,16.805L701.095,16.054L702.269,14.957L703.446,14.034L704.62,14.092L705.795,13.456L706.971,13.225L708.146,13.109L709.32,13.167L710.495,13.109L711.671,12.994L712.846,12.936L714.02,12.821L715.391,12.879L716.567,12.879L717.741,12.936L718.916,12.936L720.091,12.994L721.267,13.052L722.441,13.109L723.616,13.167L724.792,13.167L725.967,13.225L727.141,13.283L728.317,13.283L729.491,13.052L730.666,12.936L731.841,12.821L733.017,12.821L734.191,12.879L735.366,12.936L736.54,12.763L737.718,12.589L738.892,12.417L740.262,12.244L742.612,11.896L743.787,11.666L744.962,11.435L746.138,11.204L747.312,10.915L748.488,10.626L749.662,10.28L750.839,9.992L752.013,9.644L753.187,9.356L754.362,8.952L755.538,8.605L756.713,8.316L757.887,8.028L759.063,7.738L760.238,7.509L761.412,7.277L762.589,7.046L764.937,6.584L766.309,6.296L769.834,5.429L771.008,5.141L772.185,4.852L773.358,4.505L774.533,4.159L775.708,3.755L776.884,3.523L778.059,3.235L779.233,3.004L780.409,2.773L781.584,2.484L782.758,2.254L783.934,1.965L785.109,1.733L786.284,1.444L787.459,0.925L788.634,0.694L789.81,0.175L791.18,-0.115L792.354,-0.23L793.528,-0.404L794.706,-1.096L795.88,-1.616L798.23,-2.194L799.405,-2.539L800.58,-2.77L801.756,-3.175L802.931,-3.406L804.105,-3.637L805.279,-3.926L806.456,-4.099L807.63,-4.215L808.805,-4.388L809.979,-4.503L811.155,-4.735L812.33,-5.08L813.505,-5.311L814.681,-5.485L815.855,-5.658L817.227,-5.775L818.4,-5.948L819.577,-6.119L820.751,-6.408L821.926,-6.581L823.101,-6.755L824.276,-7.101L825.451,-7.968L826.626,-8.027L827.8,-8.43L828.978,-8.603L830.151,-8.371L831.326,-8.371L832.502,-8.546L833.677,-8.66L834.852,-8.43L836.027,-8.488L837.202,-8.603L838.377,-8.719L839.551,-8.891L840.728,-9.066L842.099,-9.239L843.272,-9.411L844.447,-9.7L845.623,-9.816L846.798,-9.99L847.973,-10.106L849.146,-10.22L850.323,-10.394L851.498,-10.45L852.672,-10.566L853.849,-10.624L855.022,-10.74L857.372,-10.97L858.548,-11.144L859.723,-11.318L860.896,-11.375L862.071,-11.606L863.249,-11.606L864.423,-11.663L865.598,-11.663L866.773,-11.721L868.144,-11.78L869.318,-11.78L870.493,-11.837L871.669,-11.895L872.844,-11.951L874.018,-11.951L875.195,-12.01L876.369,-12.069L877.544,-12.125L878.719,-12.125L879.895,-12.183L881.069,-12.24L882.244,-12.24L883.418,-12.299L884.595,-12.358L885.769,-12.414L886.943,-12.414L888.119,-12.472L889.294,-12.53L890.469,-12.53L891.644,-12.588L893.016,-12.645L894.19,-12.702L895.365,-12.702L896.539,-12.761L897.716,-12.819L898.89,-12.819" style="fill:none;fill-rule:nonzero;stroke:rgb(88,89,91);stroke-width:0.65px;"/>
        </g>
    </g>
</svg>
