<?xml version="1.0" encoding="UTF-8" standalone="no"?>
<!DOCTYPE svg PUBLIC "-//W3C//DTD SVG 1.1//EN" "http://www.w3.org/Graphics/SVG/1.1/DTD/svg11.dtd">
<svg width="100%" height="100%" viewBox="0 0 1021 301" version="1.1" xmlns="http://www.w3.org/2000/svg" xmlns:xlink="http://www.w3.org/1999/xlink" xml:space="preserve" xmlns:serif="http://www.serif.com/" style="fill-rule:evenodd;clip-rule:evenodd;">
    <g transform="matrix(1,0,0,1,61.46,167.557)">
        <g id="depth-section" serif:id="depth section">
            <path d="M0,27.084L1.175,30.49L2.35,30.49L3.525,30.722L4.896,30.953L6.071,31.184L7.246,31.472L8.422,31.761L9.597,32.05L10.771,32.338L11.947,32.627L13.12,32.857L14.296,33.089L15.472,33.319L16.646,33.494L17.821,33.666L18.996,33.666L20.17,33.725L21.347,33.666L23.696,33.666L24.872,33.608L28.397,33.608L29.57,33.551L35.643,33.551L36.817,33.494L41.517,33.494L42.693,33.436L52.093,33.436L53.267,33.377L54.441,33.436L56.988,33.436L58.163,33.494L60.514,33.494L61.688,33.436L62.863,33.377L64.039,33.262L65.214,33.205L66.388,33.146L67.564,33.089L68.737,33.031L69.914,32.916L71.089,32.857L72.264,32.8L73.439,32.742L74.614,32.627L75.788,32.569L76.965,32.454L78.139,32.396L79.313,32.279L80.684,32.223L81.86,32.107L83.035,32.05L84.21,31.935L85.386,31.876L86.559,31.761L87.735,31.761L88.911,31.702L91.26,31.702L92.435,31.646L93.609,31.646L94.785,31.587L95.96,31.587L97.135,31.53L98.311,31.53L99.485,31.472L100.659,31.472L101.836,31.415L103.009,31.415L104.186,31.356L105.36,31.356L106.731,31.298L107.905,31.298L109.081,31.241L111.43,31.241L112.606,31.184L119.657,31.184L120.83,31.126L136.302,31.126L137.479,31.067L142.176,31.067L143.353,31.01L148.052,31.01L149.227,30.953L155.102,30.953L156.277,30.895L165.874,30.895L167.048,30.837L179.973,30.837L181.148,30.778L188.395,30.778L189.57,30.837L194.27,30.837L195.444,30.895L198.971,30.895L200.145,30.953L208.566,30.953L209.741,31.01L216.791,31.01L217.966,31.067L219.141,31.067L220.316,31.126L222.666,31.126L223.842,31.184L228.541,31.184L229.716,31.126L230.893,31.126L232.066,31.067L233.437,31.01L234.612,30.953L235.788,30.953L236.961,30.895L238.138,30.895L239.312,30.837L244.013,30.837L245.188,30.778L246.363,30.722L248.714,30.722L249.887,30.664L266.534,30.664L267.709,30.722L272.408,30.722L273.583,30.778L286.704,30.778L287.881,30.722L292.579,30.722L293.756,30.664L297.28,30.664L298.455,30.605L300.806,30.605L301.98,30.548L305.504,30.548L306.68,30.49L310.4,30.49L311.576,30.548L317.45,30.548L318.627,30.605L322.151,30.605L323.326,30.722L324.502,30.953L325.677,31.126L326.851,31.126L328.027,30.837L329.201,30.548L330.376,30.434L331.552,30.49L336.448,30.49L337.623,30.548L338.798,30.548L339.974,30.605L342.322,30.605L343.499,30.548L350.548,30.548L351.722,30.605L352.898,30.722L354.072,30.778L355.247,30.664L356.423,30.605L357.596,30.548L358.773,30.434L360.144,30.375L361.319,30.316L362.492,30.375L363.668,30.434L364.843,30.49L370.72,30.49L371.895,30.434L373.068,30.434L374.245,30.49L375.418,30.49L376.594,30.259L377.771,30.375L378.943,30.201L380.119,30.028L384.818,30.028L386.189,29.913L387.364,29.797L388.54,29.683L389.715,29.624L390.89,29.683L392.065,29.74L393.24,29.74L394.415,29.797L395.591,29.74L399.114,29.74L400.289,29.683L401.465,29.624L402.64,29.566L404.991,29.566L406.166,29.508L408.517,29.508L409.689,29.451L412.235,29.451L413.411,29.394L415.762,29.394L416.937,29.335L419.287,29.335L420.461,29.277L422.812,29.277L423.986,29.22L426.337,29.22L427.512,29.163L429.862,29.163L431.035,29.105L432.211,29.105L433.386,29.047L434.562,29.047L435.933,28.988L437.107,28.988L438.282,28.931L439.458,28.931L440.633,28.988L441.808,28.931L442.981,28.874L444.158,28.758L445.332,28.7L446.507,28.643L447.682,28.585L448.857,28.469L450.033,28.411L451.207,28.411L452.384,28.355L453.559,28.296L454.732,28.237L455.907,28.181L457.083,28.123L459.433,28.007L460.608,27.948L461.979,27.834L463.154,27.719L464.328,27.604L467.854,27.604L469.028,27.545L470.204,27.487L471.379,27.487L472.554,27.372L474.904,27.256L476.078,27.256L477.253,27.199L478.429,27.141L479.604,27.084L480.778,27.025L481.953,26.967L484.305,26.853L485.479,26.795L486.849,26.736L488.025,26.68L489.199,26.622L490.374,26.563L491.55,26.506L492.725,26.506L493.899,26.447L495.074,26.391L496.251,26.333L497.426,26.274L498.6,26.217L499.776,26.159L500.95,26.103L502.125,26.044L503.3,25.986L504.476,25.928L505.65,25.87L506.825,25.813L508.001,25.755L509.176,25.755L510.35,25.697L511.524,25.64L512.897,25.582L514.071,25.524L515.246,25.466L516.421,25.409L517.597,25.352L518.771,25.293L519.946,25.235L521.12,25.177L522.297,25.12L523.471,25.005L526.996,24.657L528.171,24.543L529.346,24.6L530.522,24.657L531.697,24.657L532.871,24.716L534.048,24.716L535.222,24.657L536.396,24.657L537.767,24.716L538.942,24.773L540.117,24.773L541.293,24.716L542.467,24.6L543.644,24.427L544.818,24.427L545.992,24.484L547.169,24.427L548.343,24.254L549.518,24.313L550.692,24.313L551.868,24.254L553.043,24.195L554.217,23.792L555.392,23.503L556.568,23.561L557.742,23.561L558.917,23.388L560.093,23.33L561.268,23.33L562.639,23.445L563.813,23.503L564.989,23.561L566.164,23.503L567.338,23.272L568.513,23.041L569.688,22.753L570.863,22.405L572.038,22.405L573.214,22.464L574.389,22.464L575.563,22.349L576.738,22.232L577.915,22.405L579.089,22.349L580.264,22.29L581.439,22.175L582.614,22.116L583.789,22.116L584.964,22.002L586.14,21.944L587.314,21.886L588.686,21.828L589.859,21.539L591.036,21.309L592.21,21.251L594.56,21.135L595.735,21.02L596.91,20.846L598.085,20.789L599.261,20.846L600.436,20.904L601.609,20.963L602.784,20.846L603.96,20.674L606.31,20.442L607.484,20.326L608.66,20.27L609.835,20.153L611.01,20.038L612.187,19.981L613.557,19.923L614.73,19.864L615.905,19.807L617.081,19.749L618.256,19.634L619.431,19.576L620.606,19.576L621.782,19.519L622.957,19.519L624.131,19.461L625.308,19.403L626.481,19.287L627.656,19.23L628.831,19.114L630.007,18.999L631.182,18.941L632.356,18.825L633.532,18.884L638.231,18.884L639.603,18.825L640.777,18.825L641.952,18.767L644.303,18.767L645.477,18.711L646.651,18.711L647.828,18.652L649.002,18.652L650.177,18.767L651.353,18.652L652.527,18.767L653.702,18.767L654.878,18.652L656.054,18.711L657.229,18.711L658.402,18.767L659.579,18.711L664.474,18.711L665.648,18.652L666.823,18.595L667.997,18.537L669.175,18.479L670.349,18.479L671.523,18.422L672.699,18.363L673.874,18.133L675.049,18.018L676.224,17.959L678.574,17.613L679.748,17.44L680.923,17.324L682.099,17.151L683.273,17.093L684.448,17.035L685.624,16.978L686.799,16.978L687.974,16.747L689.149,16.4L690.521,16.054L691.695,15.65L692.869,15.303L694.046,15.014L695.22,14.553L696.395,14.032L697.569,12.936L698.745,12.357L699.92,10.511L701.095,10.163L702.269,10.337L703.446,7.97L704.62,7.796L705.795,6.18L706.971,5.371L708.146,5.429L709.32,4.794L710.495,4.505L711.671,4.101L712.846,3.928L714.02,3.754L715.391,3.639L716.567,3.465L717.741,3.234L718.916,3.061L720.091,2.945L721.267,2.83L722.441,2.83L723.616,2.772L724.792,2.599L725.967,2.426L727.141,2.311L728.317,2.252L729.491,2.194L730.666,2.138L731.841,2.138L733.017,2.079L734.191,2.022L735.366,2.022L736.54,1.963L737.718,1.906L738.892,1.849L740.262,1.732L741.437,1.675L742.612,1.617L743.787,1.617L744.962,1.56L746.138,1.501L747.312,1.443L748.488,1.443L749.662,1.387L750.839,1.329L752.013,1.329L753.187,1.271L754.362,1.271L755.538,1.212L756.713,1.155L760.238,1.155L761.412,1.098L762.589,1.04L763.763,0.981L764.937,0.981L766.309,0.924L767.484,0.867L768.659,0.809L769.834,0.809L771.008,0.751L772.185,0.693L773.358,0.636L774.533,0.578L775.708,0.463L776.884,0.403L778.059,0.403L779.233,0.348L780.409,0.289L781.584,0.23L782.758,0.23L783.934,0.174L785.109,0.115L786.284,0.059L787.459,-0.058L788.634,-0.115L789.81,-0.115L791.18,-0.173L792.354,-0.23L793.528,-0.23L794.706,-0.289L795.88,-0.346L797.055,-0.403L798.23,-0.462L799.405,-0.577L800.58,-0.635L801.756,-0.692L802.931,-0.809L804.105,-0.866L805.279,-0.981L806.456,-1.039L807.63,-1.097L808.805,-1.212L809.979,-1.27L811.155,-1.443L812.33,-1.56L813.505,-1.616L814.681,-1.674L815.855,-1.79L817.227,-1.849L818.4,-1.905L819.577,-1.963L820.751,-2.02L821.926,-2.137L823.101,-2.193L824.276,-2.252L825.451,-2.252L826.626,-2.31L827.8,-2.599L828.978,-2.713L830.151,-2.656L831.326,-2.713L832.502,-2.771L833.677,-2.83L834.852,-2.944L836.027,-3.002L837.202,-3.061L838.377,-3.118L839.551,-3.176L840.728,-3.291L842.099,-3.35L843.272,-3.407L844.447,-3.522L845.623,-3.638L846.798,-3.812L847.973,-3.928L849.146,-4.042L850.323,-4.216L851.498,-4.272L852.672,-4.388L853.849,-4.446L855.022,-4.562L857.372,-4.792L858.548,-4.966L859.723,-5.14L860.896,-5.197L862.071,-5.428L863.249,-5.428L864.423,-5.485L865.598,-5.485L866.773,-5.543L868.144,-5.602L869.318,-5.602L870.493,-5.659L871.669,-5.717L872.844,-5.773L874.018,-5.773L875.195,-5.832L876.369,-5.891L877.544,-5.947L878.719,-5.947L879.895,-6.005L881.069,-6.062L882.244,-6.062L883.418,-6.121L884.595,-6.18L885.769,-6.236L886.943,-6.236L888.119,-6.294L889.294,-6.352L890.469,-6.352L891.644,-6.41L893.016,-6.467L894.19,-6.524L895.365,-6.524L896.539,-6.583L897.716,-6.641L898.89,-6.641" style="fill:none;fill-rule:nonzero;stroke:rgb(88,89,91);stroke-width:0.65px;"/>
        </g>
    </g>
</svg>
