<?xml version="1.0" encoding="UTF-8" standalone="no"?>
<!DOCTYPE svg PUBLIC "-//W3C//DTD SVG 1.1//EN" "http://www.w3.org/Graphics/SVG/1.1/DTD/svg11.dtd">
<svg width="100%" height="100%" viewBox="0 0 1021 301" version="1.1" xmlns="http://www.w3.org/2000/svg" xmlns:xlink="http://www.w3.org/1999/xlink" xml:space="preserve" xmlns:serif="http://www.serif.com/" style="fill-rule:evenodd;clip-rule:evenodd;">
    <g transform="matrix(1,0,0,1,61.46,162.475)">
        <g id="depth-section" serif:id="depth section">
            <path d="M0,32.166L1.175,32.916L2.35,33.725L4.896,33.725L6.071,33.667L30.942,33.667L32.117,33.608L53.267,33.608L54.441,33.551L65.214,33.551L66.388,33.493L71.089,33.493L72.264,33.437L80.684,33.437L81.86,33.378L100.659,33.378L101.836,33.319L111.43,33.319L112.606,33.263L117.307,33.263L118.481,33.319L122.007,33.319L123.183,33.263L124.355,33.263L125.531,33.205L126.706,33.147L127.881,33.147L129.057,33.089L130.231,33.089L131.603,33.03L132.776,33.03L133.953,32.974L135.128,32.974L136.302,32.916L137.479,32.858L138.652,32.858L139.827,32.801L141.003,32.801L142.176,32.742L143.353,32.686L144.526,32.686L145.701,32.627L146.878,32.627L148.052,32.569L149.227,32.512L150.403,32.512L151.578,32.454L152.753,32.454L153.929,32.396L155.102,32.396L156.277,32.338L157.647,32.281L159.997,32.281L161.173,32.223L163.523,32.223L164.699,32.166L167.048,32.166L168.225,32.107L171.749,32.107L172.924,32.049L175.274,32.049L176.447,31.992L177.624,31.992L178.798,31.935L181.148,31.935L182.52,31.877L183.694,31.877L184.869,31.818L186.045,31.818L187.22,31.762L188.395,31.762L189.57,31.704L191.919,31.704L193.096,31.645L194.27,31.645L195.444,31.588L197.795,31.588L198.971,31.529L200.145,31.529L201.319,31.473L202.496,31.473L203.67,31.415L204.845,31.415L206.02,31.356L207.195,31.356L208.566,31.299L212.092,31.299L213.267,31.241L221.491,31.241L222.666,31.185L229.716,31.185L230.893,31.126L239.312,31.126L240.486,31.068L246.363,31.068L247.537,31.01L253.412,31.01L254.588,30.952L258.308,30.952L259.484,30.895L264.184,30.895L265.358,30.837L267.709,30.837L268.884,30.779L272.408,30.779L273.583,30.722L275.934,30.722L277.109,30.664L282.985,30.664L284.355,30.722L290.23,30.722L291.405,30.779L298.455,30.779L299.63,30.837L300.806,30.837L301.98,30.779L305.504,30.779L306.68,30.722L310.4,30.722L311.576,30.664L313.926,30.664L315.102,30.606L318.627,30.606L319.801,30.548L322.151,30.548L323.326,30.491L324.502,30.491L325.677,30.434L326.851,30.375L328.027,30.375L329.201,30.317L330.376,30.259L331.552,30.202L332.727,30.145L333.901,30.087L335.272,30.028L336.448,29.971L337.623,29.855L338.798,29.855L339.974,29.798L341.146,29.739L342.322,29.682L343.499,29.625L344.672,29.566L345.848,29.509L347.022,29.451L348.196,29.395L349.373,29.336L350.548,29.336L351.722,29.277L352.898,29.22L354.072,29.22L355.247,29.162L357.596,29.162L358.773,29.105L364.843,29.105L366.018,29.047L367.193,29.047L368.368,28.988L369.544,28.988L370.72,28.932L371.895,28.874L374.245,28.874L375.418,28.816L376.594,28.758L378.943,28.758L380.119,28.7L381.294,28.7L382.468,28.643L383.645,28.643L384.818,28.585L386.189,28.585L387.364,28.527L388.54,28.527L389.715,28.47L392.065,28.47L393.24,28.412L395.591,28.412L396.764,28.354L399.114,28.354L400.289,28.296L404.991,28.296L406.166,28.238L411.061,28.238L412.235,28.18L418.11,28.18L419.287,28.123L423.986,28.123L425.161,28.065L429.862,28.065L431.035,28.008L432.211,27.95L433.386,27.95L434.562,27.892L435.933,27.835L437.107,27.776L438.282,27.719L439.458,27.719L440.633,27.661L441.808,27.661L442.981,27.604L444.158,27.546L445.332,27.546L446.507,27.487L447.682,27.431L448.857,27.372L450.033,27.372L451.207,27.314L452.384,27.257L453.559,27.198L454.732,27.198L455.907,27.142L457.083,27.084L459.433,26.968L460.608,26.968L461.979,26.91L463.154,26.854L464.328,26.795L465.505,26.795L466.679,26.737L467.854,26.679L469.028,26.621L470.204,26.564L471.379,26.564L472.554,26.506L473.729,26.506L474.904,26.448L476.078,26.448L477.253,26.391L478.429,26.391L479.604,26.333L480.778,26.333L481.953,26.275L483.129,26.217L484.305,26.217L485.479,26.16L486.849,26.16L488.025,26.102L489.199,26.102L490.374,26.045L491.55,26.045L492.725,25.986L493.899,25.986L495.074,25.928L496.251,25.928L497.426,25.871L498.6,25.871L499.776,25.813L500.95,25.813L502.125,25.756L503.3,25.697L504.476,25.697L505.65,25.64L506.825,25.64L508.001,25.583L509.176,25.583L510.35,25.524L511.524,25.524L512.897,25.467L514.071,25.467L515.246,25.408L516.421,25.408L517.597,25.352L518.771,25.352L519.946,25.294L521.12,25.235L522.297,25.178L523.471,25.063L524.646,24.946L525.821,24.889L526.996,24.831L528.171,24.774L532.871,24.774L534.048,24.716L535.222,24.601L536.396,24.543L537.767,24.485L540.117,24.369L541.293,24.254L542.467,24.196L543.644,24.139L545.992,24.023L547.169,23.966L548.343,23.907L549.518,23.849L550.692,23.793L551.868,23.677L553.043,23.619L554.217,23.561L555.392,23.504L556.568,23.445L557.742,23.388L558.917,23.33L560.093,23.215L561.268,23.156L562.639,23.1L563.813,23.041L564.989,22.926L566.164,22.868L567.338,22.811L568.513,22.695L570.863,22.579L572.038,22.522L573.214,22.464L574.389,22.406L575.563,22.291L576.738,22.233L577.915,22.117L579.089,22.06L580.264,21.944L581.439,21.886L582.614,21.77L583.789,21.714L584.964,21.655L586.14,21.54L587.314,21.482L588.686,21.425L589.859,21.31L591.036,21.252L592.21,21.193L593.385,21.136L594.56,21.077L595.735,21.02L596.91,20.904L598.085,20.847L599.261,20.789L600.436,20.732L601.609,20.674L602.784,20.616L603.96,20.5L605.135,20.443L606.31,20.385L607.484,20.327L608.66,20.27L609.835,20.154L611.01,20.096L612.187,19.981L613.557,19.865L614.73,19.75L615.905,19.635L617.081,19.576L618.256,19.462L619.431,19.403L620.606,19.288L621.782,19.23L622.957,19.114L624.131,19.057L625.308,18.942L626.481,18.884L627.656,18.769L628.831,18.653L630.007,18.595L631.182,18.537L632.356,18.422L633.532,18.364L634.707,18.306L635.881,18.249L638.231,18.133L639.603,18.075L640.777,18.018L641.952,17.96L643.128,17.902L644.303,17.844L645.477,17.844L646.651,17.786L647.828,17.728L649.002,17.728L650.177,17.672L651.353,17.672L652.527,17.556L653.702,17.439L654.878,17.267L656.054,17.151L657.229,17.035L658.402,16.921L659.579,16.863L660.753,16.746L663.103,16.632L664.474,16.574L665.648,16.458L666.823,16.401L667.997,16.285L669.175,16.169L670.349,16.054L671.523,15.938L672.699,15.823L673.874,15.65L675.049,15.534L676.224,15.419L677.399,15.245L678.574,15.131L679.748,14.957L680.923,14.842L682.099,14.726L683.273,14.553L684.448,14.437L685.624,14.264L686.799,14.091L687.974,13.975L689.149,13.802L690.521,13.629L691.695,13.455L692.869,13.282L694.046,12.936L695.22,12.647L696.395,12.301L697.569,11.607L698.745,10.511L699.92,9.066L701.095,7.508L702.269,6.353L703.446,5.197L704.62,4.447L705.795,3.696L706.971,3.177L708.146,2.772L709.32,2.311L710.495,1.791L711.671,1.56L712.846,1.444L714.02,1.27L715.391,0.982L716.567,0.925L717.741,0.81L718.916,0.751L720.091,0.636L721.267,0.578L722.441,0.462L723.616,0.405L724.792,0.29L725.967,0.231L727.141,0.231L728.317,0.174L729.491,0.116L733.017,0.116L734.191,0.059L740.262,0.059L741.437,0.001L746.138,0.001L747.312,-0.058L750.839,-0.058L752.013,-0.115L764.937,-0.115L766.309,-0.058L785.109,-0.058L786.284,0.001L797.055,0.001L798.23,0.059L808.805,0.059L809.979,0.001L811.155,0.001L812.33,-0.058L813.505,-0.058L814.681,-0.115L815.855,-0.115L817.227,-0.172L818.4,-0.172L819.577,-0.23L820.751,-0.288L821.926,-0.346L823.101,-0.403L824.276,-0.461L825.451,-0.52L826.626,-0.577L827.8,-0.577L828.978,-0.635L830.151,-0.691L831.326,-0.75L832.502,-0.809L833.677,-0.809L834.852,-0.865L836.027,-0.923L837.202,-0.98L838.377,-1.039L839.551,-1.039L840.728,-1.098L842.099,-1.154L852.672,-1.154L853.849,-1.212L857.372,-1.212L858.548,-1.154L859.723,-1.154L860.896,-1.212L862.071,-1.212L863.249,-1.27L864.423,-1.27L865.598,-1.328L871.669,-1.328L872.844,-1.385L878.719,-1.385L879.895,-1.442L884.595,-1.442L885.769,-1.501L891.644,-1.501L893.016,-1.559L898.89,-1.559" style="fill:none;fill-rule:nonzero;stroke:rgb(88,89,91);stroke-width:0.65px;"/>
        </g>
    </g>
</svg>
