<?xml version="1.0" encoding="UTF-8" standalone="no"?>
<!DOCTYPE svg PUBLIC "-//W3C//DTD SVG 1.1//EN" "http://www.w3.org/Graphics/SVG/1.1/DTD/svg11.dtd">
<svg width="100%" height="100%" viewBox="0 0 3823 1211" version="1.1" xmlns="http://www.w3.org/2000/svg" xmlns:xlink="http://www.w3.org/1999/xlink" xml:space="preserve" xmlns:serif="http://www.serif.com/" style="fill-rule:evenodd;clip-rule:evenodd;">
    <g id="depth-section" serif:id="depth section" transform="matrix(4.16667,0,0,4.16667,0,0)">
        <g transform="matrix(1,0,0,1,60.627,164.045)">
            <path d="M0,17.174L1.148,18.341L2.425,19.282L3.573,20L4.722,20.582L5.998,21.166L7.146,21.57L8.295,21.973L9.443,22.332L10.719,22.735L11.867,23.094L13.016,23.408L14.292,23.722L15.439,24.081L16.588,24.35L17.865,24.663L19.014,24.933L20.162,25.156L21.31,25.426L22.586,25.651L23.734,25.874L24.883,26.098L26.158,26.278L27.307,26.457L28.455,26.637L29.604,26.816L30.88,26.951L32.028,27.085L33.177,27.219L34.453,27.354L35.602,27.444L36.75,27.533L38.025,27.668L39.174,27.713L40.322,27.803L41.471,27.893L42.747,27.937L43.896,27.983L45.044,28.027L46.32,28.072L47.469,28.116L48.617,28.161L49.893,28.205L52.189,28.295L53.338,28.295L54.614,28.34L55.763,28.385L56.91,28.43L58.188,28.475L59.336,28.475L60.485,28.52L61.76,28.565L62.908,28.61L64.058,28.654L65.206,28.654L66.48,28.699L68.778,28.789L70.056,28.834L71.204,28.834L73.5,28.924L74.776,28.968L75.925,28.968L77.073,29.014L78.349,29.058L79.497,29.103L80.646,29.103L81.922,29.148L83.07,29.193L84.219,29.237L85.367,29.282L226.624,29.282L227.773,29.237L244.362,29.237L245.638,29.193L246.786,29.237L249.083,29.237L250.359,29.326L251.507,29.371L252.655,29.461L253.933,29.596L255.081,29.731L256.229,29.82L257.505,29.91L258.653,29.91L259.802,29.955L260.95,29.955L262.226,30L264.522,30L265.8,30.045L269.372,30.045L270.521,30.089L276.39,30.089L277.666,30.134L285.96,30.134L287.108,30.089L288.257,30.045L289.533,29.955L290.682,29.91L291.83,29.865L292.978,29.776L294.255,29.731L295.403,29.686L296.552,29.641L297.827,29.596L298.976,29.551L300.124,29.506L301.4,29.461L302.548,29.416L303.696,29.416L304.846,29.371L310.844,29.371L311.992,29.461L313.141,29.596L314.416,29.776L315.564,30.045L316.713,30.314L317.989,30.492L319.138,30.627L320.286,30.672L322.711,30.672L323.859,30.582L325.008,30.537L326.283,30.492L327.432,30.447L328.58,30.403L329.856,30.403L331.005,30.358L332.153,30.314L333.43,30.314L334.578,30.268L335.727,30.224L336.874,30.179L338.15,30.134L339.299,30.089L340.447,30.089L341.724,30.045L342.872,30.045L344.021,30L354.739,30L355.888,30.045L357.035,29.955L358.312,29.865L359.46,29.82L360.608,29.731L361.885,29.641L363.033,29.596L364.182,29.506L365.458,29.461L366.605,29.371L367.754,29.326L368.902,29.237L370.179,29.193L371.327,29.148L372.476,29.103L373.752,29.058L384.344,29.058L385.619,29.014L386.769,29.058L393.914,29.058L395.062,29.014L396.211,28.968L397.486,28.968L398.635,28.924L399.783,28.924L400.932,28.879L402.208,28.879L403.356,28.834L404.505,28.834L405.781,28.789L406.93,28.744L408.077,28.654L409.354,28.475L410.502,28.295L411.65,27.983L412.799,27.488L414.075,27.041L415.224,26.772L416.372,26.637L417.647,26.547L418.796,26.412L419.944,26.322L421.221,26.188L422.369,26.098L423.518,25.964L424.666,25.83L425.942,25.651L427.091,25.516L428.239,25.381L429.515,25.201L430.663,25.067L431.812,24.843L433.088,24.663L434.236,24.484L435.385,24.305L436.533,24.125L437.81,23.991L438.958,23.812L440.105,23.722L441.382,23.588L442.53,23.452L443.679,23.362L444.827,23.229L446.104,23.139L447.252,23.049L448.4,22.96L449.676,22.87L450.824,22.78L451.973,22.735L453.249,22.645L455.546,22.645L456.694,22.691L457.971,22.735L459.118,22.78L460.267,22.824L461.543,22.87L462.691,22.914L463.84,23.004L465.116,23.049L466.265,23.139L467.414,23.184L468.562,23.274L469.837,23.319L470.986,23.362L472.135,23.408L473.41,23.408L474.56,23.498L475.708,23.542L476.984,23.588L478.133,23.678L479.281,23.722L480.43,23.766L481.705,23.812L482.854,23.856L486.427,23.856L487.575,23.766L488.724,23.678L490,23.588L491.147,23.498L492.296,23.362L493.572,23.229L494.721,23.094L495.869,22.96L497.146,22.78L498.294,22.645L499.442,22.421L500.59,22.242L501.866,22.018L503.015,21.793L504.163,21.613L505.439,21.346L506.588,21.121L507.736,20.852L509.013,20.627L510.16,20.359L511.309,20.135L512.457,19.865L513.733,19.641L514.882,19.416L516.03,19.193L517.307,19.013L518.455,18.833L519.604,18.699L520.752,18.565L522.027,18.52L523.176,18.476L524.324,18.43L525.601,18.385L526.749,18.341L527.897,18.296L529.174,18.25L530.322,18.205L531.471,18.117L532.618,18.026L533.895,17.938L535.043,17.846L536.191,17.802L537.468,17.713L538.616,17.623L539.765,17.578L541.041,17.488L542.188,17.444L543.337,17.354L544.486,17.265L545.762,17.13L546.91,16.95L548.06,16.727L549.335,16.502L550.484,16.278L551.632,16.008L552.907,15.783L554.057,15.516L555.205,15.291L556.354,15.068L557.63,14.888L558.778,14.708L559.927,14.529L561.202,14.394L562.351,14.26L563.499,14.17L564.647,14.125L565.924,14.036L567.072,14.036L568.221,13.99L569.497,13.99L570.646,13.945L571.794,13.857L573.069,13.677L574.218,13.408L575.366,13.004L576.515,13.139L577.791,13.229L578.939,13.229L580.088,13.319L582.513,13.319L583.66,13.677L584.937,13.721L586.085,13.811L587.233,13.766L588.382,14.305L589.658,14.394L590.807,14.394L591.954,14.485L593.23,14.573L594.379,14.844L595.527,14.708L596.804,14.573L597.952,14.752L599.101,14.932L600.249,15.247L601.524,15.111L602.673,15.156L603.821,15.156L605.098,15.291L606.246,15.516L608.543,15.516L609.819,16.636L610.968,16.727L612.116,16.682L613.392,16.862L614.54,17.219L615.688,16.457L616.965,16.682L618.113,17.13L619.262,17.219L620.411,17.399L621.687,17.758L622.835,17.938L623.984,18.43L625.259,18.924L626.407,18.653L627.557,18.969L628.832,19.104L629.98,19.104L631.13,19.282L632.278,19.461L633.555,19.596L634.702,19.641L635.851,19.372L637.127,19.596L638.275,19.955L639.424,20L640.7,20.403L641.849,20.718L642.996,21.031L644.145,21.39L645.421,21.793L646.569,21.839L647.718,21.883L648.994,22.018L650.143,22.108L651.291,22.242L652.439,22.332L653.715,22.421L654.863,22.557L656.012,22.601L657.288,22.645L658.437,22.735L659.585,22.78L660.861,22.87L662.01,22.914L663.158,22.645L664.307,22.557L665.582,22.557L666.73,22.645L667.879,22.914L669.155,22.87L670.304,22.824L671.452,22.824L672.729,22.78L673.877,22.735L675.025,22.645L676.173,22.467L677.449,22.287L678.598,22.108L679.746,21.793L681.022,21.48L682.171,21.211L683.319,21.031L684.596,20.807L685.743,20.492L686.892,20.135L688.04,19.776L689.316,20.044L690.465,19.955L691.613,19.91L692.89,19.82L694.037,19.776L695.186,19.731L696.334,19.507L697.61,19.149L698.759,18.833L699.907,18.565L701.184,18.385L702.332,18.205L703.48,17.982L704.756,17.623L705.904,17.174L707.053,16.771L708.202,16.457L709.478,16.188L710.627,15.963L711.775,15.739L713.051,15.471L714.2,15.201L715.349,14.977L716.623,14.708L717.772,14.44L718.921,14.215L720.069,13.945L721.346,13.677L722.494,13.362L723.643,13.004L724.919,12.824L726.067,12.735L727.215,12.601L728.363,12.241L729.64,11.793L730.788,11.076L731.937,10.403L733.213,9.686L734.361,9.014L735.509,8.789L736.785,8.072L737.934,7.444L739.082,6.995L740.23,6.547L741.507,5.695L742.655,5.291L743.804,4.26L745.079,3.139L746.228,2.467L747.376,1.66L748.652,0.987L749.801,0.18L750.949,-0.538L752.098,-1.166L753.374,-1.749L754.522,-2.332L755.671,-2.914L756.946,-3.498L758.095,-4.08L759.243,-4.664L760.52,-5.201L761.668,-5.785L762.816,-6.324L763.965,-6.861L765.241,-7.355L766.39,-7.892L767.538,-8.295L768.813,-8.654L769.962,-8.969L771.11,-9.326L772.259,-9.641L773.535,-9.955L774.684,-10.18L775.832,-10.359L777.108,-10.539L778.256,-10.762L779.404,-10.941L780.681,-11.121L781.829,-11.301L782.978,-11.48L784.127,-11.704L785.402,-11.883L786.55,-12.062L787.699,-12.242L788.975,-12.422L790.123,-12.601L791.272,-12.78L792.548,-12.96L794.846,-13.318L795.994,-13.498" style="fill:none;fill-rule:nonzero;stroke:rgb(88,89,91);stroke-width:0.65px;"/>
        </g>
        <g transform="matrix(1,0,0,1,60.627,160.502)">
            <path d="M0,20.717L1.148,21.884L2.425,22.825L3.573,23.543L4.722,24.125L5.998,24.709L7.146,25.113L8.295,25.516L9.443,25.875L10.719,26.278L11.867,26.637L13.016,26.951L14.292,27.265L15.439,27.624L16.588,27.893L17.865,28.206L19.014,28.476L20.162,28.699L21.31,28.969L22.586,29.194L23.734,29.417L24.883,29.641L26.158,29.821L27.307,29.821L28.455,29.865L65.206,29.865L66.48,29.91L103.231,29.91L104.38,29.955L139.981,29.955L141.131,30L178.008,30L179.156,30.045L214.758,30.045L215.905,30.09L240.789,30.09L242.065,30.135L245.638,30.135L246.786,30.18L251.507,30.18L252.655,30.225L256.229,30.225L257.505,30.269L260.95,30.269L262.226,30.315L265.8,30.315L266.947,30.359L270.521,30.359L271.669,30.405L275.241,30.405L276.39,30.448L279.963,30.448L281.111,30.494L284.685,30.494L285.96,30.538L288.257,30.538L289.533,30.584L292.978,30.584L294.255,30.628L297.827,30.628L298.976,30.672L301.4,30.672L302.548,30.538L303.696,30.315L304.846,30.18L306.122,30.09L307.271,30L308.419,30.135L309.694,30.269L310.844,30.359L311.992,30.494L313.141,30.538L314.416,30.584L315.564,30.494L316.713,30.359L317.989,30.135L319.138,29.955L320.286,29.865L321.562,29.731L322.711,29.641L325.008,29.641L326.283,29.686L327.432,29.776L328.58,29.821L329.856,29.821L331.005,29.776L332.153,29.731L333.43,29.731L334.578,29.686L335.727,29.641L336.874,29.597L338.15,29.551L339.299,29.507L340.447,29.463L341.724,29.417L342.872,29.373L344.021,29.373L345.297,29.327L346.444,29.283L347.593,29.238L348.741,29.194L350.018,29.148L351.166,29.104L352.314,29.104L353.591,29.059L354.739,29.014L355.888,28.969L357.035,28.924L358.312,28.924L360.608,28.834L361.885,28.789L363.033,28.789L364.182,28.744L365.458,28.699L366.605,28.699L367.754,28.655L368.902,28.655L370.179,28.61L371.327,28.566L372.476,28.52L373.752,28.476L374.9,28.43L376.049,28.386L377.324,28.386L378.473,28.342L379.621,28.342L380.77,28.296L382.046,28.252L383.194,28.252L384.344,28.206L385.619,28.162L386.769,28.162L387.916,28.116L389.191,28.116L390.34,28.072L392.638,28.072L393.914,28.116L395.062,28.072L396.211,28.027L397.486,27.983L398.635,27.938L399.783,27.848L400.932,27.758L402.208,27.713L403.356,27.624L404.505,27.534L405.781,27.445L406.93,27.355L408.077,27.265L409.354,27.175L410.502,27.041L411.65,26.951L412.799,26.862L414.075,26.772L415.224,26.637L416.372,26.547L417.647,26.457L418.796,26.367L419.944,26.234L421.221,26.144L422.369,26.054L423.518,25.964L424.666,25.875L425.942,25.785L427.091,25.696L428.239,25.651L429.515,25.561L430.663,25.471L431.812,25.382L433.088,25.292L434.236,25.202L435.385,25.113L436.533,25.023L437.81,24.933L438.958,24.844L440.105,24.754L441.382,24.664L442.53,24.574L443.679,24.44L444.827,24.305L446.104,24.17L447.252,24.035L448.4,23.902L449.676,23.813L450.824,23.678L451.973,23.543L453.249,23.453L454.397,23.319L455.546,23.229L456.694,23.139L457.971,23.05L459.118,22.959L460.267,22.87L461.543,22.78L462.691,22.736L463.84,22.647L465.116,22.647L466.265,22.602L468.562,22.602L469.837,22.556L470.986,22.512L472.135,22.467L473.41,22.422L474.56,22.422L475.708,22.376L476.984,22.332L478.133,22.287L479.281,22.287L480.43,22.242L481.705,22.196L482.854,22.153L484.002,22.108L485.278,22.063L486.427,22.019L487.575,21.928L488.724,21.839L490,21.748L491.147,21.615L492.296,21.525L493.572,21.389L494.721,21.256L495.869,21.121L497.146,21.031L498.294,20.897L499.442,20.762L500.59,20.629L501.866,20.537L503.015,20.405L504.163,20.314L505.439,20.225L506.588,20.135L507.736,20.09L509.013,20.045L510.16,20L511.309,20L512.457,19.955L513.733,19.91L514.882,19.91L516.03,19.865L517.307,19.865L518.455,19.821L519.604,19.821L520.752,19.778L523.176,19.778L524.324,19.731L526.749,19.731L527.897,19.686L530.322,19.686L531.471,19.642L532.618,19.598L533.895,19.551L535.043,19.506L536.191,19.462L537.468,19.418L538.616,19.373L539.765,19.326L541.041,19.282L542.188,19.282L544.486,19.194L545.762,19.148L546.91,19.104L548.06,19.014L549.335,18.879L550.484,18.744L551.632,18.565L552.907,18.387L554.057,18.161L555.205,17.937L556.354,17.668L557.63,17.4L558.778,17.175L559.927,16.951L561.202,16.772L562.351,16.637L563.499,16.547L564.647,16.502L565.924,16.457L568.221,16.457L569.497,16.412L570.646,15.964L571.794,15.561L573.069,15.156L574.218,14.843L575.366,14.977L576.515,15.067L577.791,15.113L578.939,15.201L580.088,15.246L581.364,15.336L582.513,15.471L583.66,15.561L584.937,15.695L586.085,15.784L587.233,15.874L588.382,16.233L590.807,16.233L591.954,16.367L593.23,16.457L594.379,16.637L595.527,16.592L597.952,16.592L599.101,16.637L600.249,16.951L603.821,16.951L605.098,16.996L606.246,17.22L607.395,17.264L608.543,17.264L609.819,17.983L610.968,17.983L612.116,18.116L613.392,18.207L614.54,18.295L615.688,17.713L616.965,17.803L618.113,17.983L619.262,18.116L620.411,18.116L621.687,18.295L622.835,18.52L623.984,19.059L625.259,19.282L626.407,19.104L627.557,19.418L628.832,19.462L629.98,19.506L631.13,19.686L632.278,19.821L633.555,19.955L634.702,19.91L635.851,19.955L637.127,20.09L638.275,20.225L639.424,20.358L640.7,20.673L641.849,20.853L642.996,21.121L644.145,21.166L645.421,21.389L646.569,21.569L647.718,21.748L648.994,21.884L650.143,21.973L652.439,22.153L653.715,22.196L654.863,22.287L656.012,22.376L657.288,22.422L658.437,22.512L659.585,22.602L660.861,22.602L662.01,22.556L664.307,22.556L665.582,22.467L666.73,22.736L667.879,23.094L669.155,23.139L670.304,23.139L671.452,23.094L672.729,23.094L673.877,23.05L675.025,22.959L676.173,22.87L677.449,22.736L678.598,22.512L679.746,22.242L681.022,21.928L682.171,21.66L683.319,21.481L684.596,21.301L685.743,21.076L686.892,20.853L688.04,20.582L689.316,20.762L690.465,20.762L691.613,20.673L692.89,20.629L694.037,20.405L695.186,20.225L696.334,19.955L697.61,19.642L698.759,19.326L699.907,18.879L701.184,18.744L702.332,18.611L703.48,18.34L704.756,18.072L705.904,17.579L707.053,17.041L708.202,16.547L709.478,16.098L710.627,15.83L711.775,15.561L713.051,15.336L714.2,15.113L715.349,14.619L716.623,14.35L717.772,14.125L718.921,13.856L720.069,13.588L721.346,13.363L722.494,13.05L723.643,12.735L724.919,12.421L726.067,12.153L727.215,11.929L728.363,11.659L729.64,11.39L730.788,10.942L731.937,10.494L733.213,10.135L734.361,9.865L735.509,9.597L736.785,9.328L737.934,9.059L739.082,8.655L740.23,8.162L741.507,7.803L742.655,7.488L743.804,7.13L745.079,6.682L746.228,6.01L747.376,5.203L748.652,4.53L749.801,3.723L750.949,3.005L752.098,2.377L753.374,1.794L754.522,1.211L755.671,0.629L756.946,0.045L758.095,-0.537L759.243,-1.121L760.52,-1.658L761.668,-2.242L762.816,-2.781L763.965,-3.318L765.241,-3.812L766.39,-4.349L767.538,-4.752L768.813,-5.111L769.962,-5.426L771.11,-5.783L772.259,-6.098L773.535,-6.412L774.684,-6.637L775.832,-6.816L777.108,-6.996L778.256,-7.219L779.404,-7.398L780.681,-7.578L781.829,-7.758L782.978,-7.937L784.127,-8.161L785.402,-8.34L786.55,-8.519L787.699,-8.699L788.975,-8.879L790.123,-9.058L791.272,-9.237L792.548,-9.417L794.846,-9.775L795.994,-9.955" style="fill:none;fill-rule:nonzero;stroke:rgb(88,89,91);stroke-width:0.65px;"/>
        </g>
        <g transform="matrix(1,0,0,1,60.627,158.44)">
            <path d="M0,22.779L1.148,23.946L2.425,24.887L3.573,25.605L4.722,26.187L5.998,26.771L7.146,27.175L8.295,27.578L9.443,27.937L10.719,28.34L11.867,28.699L13.016,29.013L14.292,29.327L15.439,29.686L16.588,29.82L17.865,29.91L19.014,29.955L28.455,29.955L29.604,30L72.352,30L73.5,30.045L115.099,30.045L116.247,30.089L157.847,30.089L158.994,30.134L200.465,30.134L201.742,30.178L239.641,30.178L240.789,30.224L242.065,30.224L243.214,30.268L244.362,30.268L245.638,30.314L246.786,30.314L247.935,30.358L249.083,30.358L250.359,30.404L252.655,30.404L253.933,30.448L255.081,30.448L256.229,30.492L257.505,30.492L258.653,30.538L260.95,30.538L262.226,30.582L264.522,30.582L265.8,30.628L268.096,30.628L269.372,30.672L274.093,30.672L275.241,30.628L276.39,30.628L277.666,30.582L279.963,30.582L281.111,30.538L284.685,30.538L285.96,30.492L289.533,30.492L290.682,30.448L294.255,30.448L295.403,30.404L298.976,30.404L300.124,30.358L303.696,30.358L304.846,30.314L307.271,30.314L308.419,30.268L311.992,30.268L313.141,30.224L315.564,30.224L316.713,30.178L319.138,30.178L320.286,30.134L322.711,30.134L323.859,30.089L325.008,30.089L326.283,30.045L328.58,30.045L329.856,30L331.005,30L332.153,29.955L333.43,29.955L334.578,29.91L335.727,29.865L336.874,29.865L338.15,29.82L339.299,29.775L340.447,29.73L341.724,29.686L342.872,29.64L344.021,29.596L345.297,29.55L346.444,29.507L347.593,29.461L348.741,29.417L350.018,29.371L352.314,29.283L353.591,29.193L354.739,29.147L355.888,29.103L357.035,29.057L358.312,29.013L359.46,28.924L360.608,28.879L361.885,28.834L363.033,28.789L364.182,28.744L365.458,28.654L366.605,28.609L367.754,28.565L368.902,28.519L370.179,28.475L371.327,28.429L372.476,28.385L373.752,28.34L374.9,28.34L376.049,28.296L377.324,28.296L378.473,28.25L379.621,28.206L380.77,28.162L382.046,28.116L383.194,28.072L384.344,27.982L385.619,27.937L386.769,27.847L387.916,27.758L389.191,27.668L390.34,27.578L391.489,27.444L392.638,27.354L393.914,27.218L395.062,27.129L396.211,26.995L397.486,26.906L398.635,26.816L399.783,26.726L400.932,26.681L402.208,26.636L403.356,26.592L404.505,26.547L405.781,26.502L406.93,26.457L408.077,26.412L409.354,26.367L410.502,26.323L411.65,26.277L412.799,26.187L414.075,26.143L415.224,26.053L416.372,26.008L417.647,25.964L418.796,25.875L419.944,25.829L421.221,25.74L422.369,25.695L423.518,25.605L424.666,25.56L425.942,25.47L427.091,25.425L428.239,25.336L429.515,25.246L430.663,25.156L431.812,25.112L433.088,25.021L434.236,24.932L435.385,24.842L436.533,24.754L437.81,24.664L438.958,24.529L440.105,24.438L441.382,24.349L442.53,24.258L443.679,24.17L444.827,24.035L446.104,23.946L447.252,23.855L448.4,23.722L449.676,23.631L450.824,23.498L451.973,23.407L453.249,23.273L454.397,23.183L455.546,23.049L456.694,22.959L457.971,22.824L459.118,22.735L460.267,22.644L461.543,22.599L462.691,22.555L463.84,22.511L465.116,22.467L466.265,22.467L467.414,22.42L469.837,22.42L472.135,22.332L474.56,22.332L475.708,22.287L480.43,22.287L481.705,22.241L484.002,22.241L485.278,22.197L486.427,22.197L487.575,22.152L488.724,22.107L490,22.062L491.147,22.017L492.296,21.972L493.572,21.883L494.721,21.748L495.869,21.613L497.146,21.48L498.294,21.3L499.442,21.21L500.59,21.076L501.866,20.986L503.015,20.896L504.163,20.852L505.439,20.806L506.588,20.806L507.736,20.761L511.309,20.761L512.457,20.716L516.03,20.716L517.307,20.673L518.455,20.673L519.604,20.627L520.752,20.627L522.027,20.582L523.176,20.537L524.324,20.449L525.601,20.357L526.749,20.269L527.897,20.178L529.174,20.09L530.322,20.045L531.471,19.999L532.618,19.91L533.895,19.865L537.468,19.865L538.616,19.91L539.765,19.955L541.041,19.999L542.188,20.045L543.337,20.09L544.486,20.134L545.762,20.134L546.91,20.178L548.06,20.178L549.335,20.134L550.484,20.134L551.632,19.91L552.907,19.685L554.057,19.326L555.205,18.967L556.354,18.609L557.63,18.206L558.778,17.846L559.927,17.578L561.202,17.398L562.351,17.308L563.499,17.263L564.647,17.175L565.924,17.039L567.072,16.951L568.221,16.861L569.497,16.457L570.646,16.097L571.794,15.784L573.069,15.425L574.218,15.246L575.366,15.201L576.515,15.156L577.791,15.201L580.088,15.201L581.364,15.246L582.513,15.514L583.66,15.381L584.937,15.65L587.233,15.83L588.382,15.918L589.658,16.053L590.807,16.143L591.954,16.232L593.23,16.322L594.379,16.367L595.527,16.412L596.804,16.502L599.101,16.502L600.249,16.905L601.524,16.995L602.673,17.039L603.821,17.085L605.098,17.129L606.246,17.308L607.395,17.308L608.543,17.263L609.819,17.668L610.968,17.936L612.116,17.846L613.392,17.936L615.688,18.116L616.965,18.206L618.113,18.295L619.262,18.384L620.411,18.474L621.687,18.609L622.835,18.744L623.984,18.924L625.259,19.103L626.407,19.282L627.557,19.416L628.832,19.506L629.98,19.641L631.13,19.82L632.278,19.955L633.555,20.09L635.851,20.09L637.127,20.269L638.275,20.493L639.424,20.673L640.7,20.806L641.849,21.076L642.996,21.793L644.145,21.568L645.421,21.748L646.569,21.883L647.718,22.017L648.994,22.062L650.143,22.107L652.439,22.197L653.715,22.197L654.863,22.241L656.012,22.241L657.288,22.287L658.437,22.287L659.585,22.241L660.861,22.197L662.01,22.062L663.158,21.972L664.307,21.883L665.582,21.793L666.73,21.793L667.879,21.748L669.155,21.704L670.304,21.66L671.452,21.524L672.729,21.344L673.877,21.166L676.173,20.806L677.449,20.627L678.598,20.402L679.746,20.178L681.022,19.82L682.171,19.462L683.319,19.192L684.596,18.879L685.743,18.519L686.892,18.206L688.04,17.936L689.316,17.846L690.465,17.713L691.613,17.533L692.89,17.218L694.037,16.905L695.186,16.547L696.334,16.232L697.61,15.604L698.759,14.797L699.907,14.125L701.184,13.811L702.332,13.498L703.48,13.138L704.756,12.824L705.904,12.556L707.053,12.107L708.202,11.927L709.478,11.569L710.627,11.39L711.775,11.345L713.051,11.031L714.2,10.851L715.349,10.672L716.623,10.492L717.772,10.314L718.921,10.134L720.069,9.955L721.346,9.82L722.494,9.64L723.643,9.461L724.919,9.148L726.067,8.924L727.215,8.699L728.363,8.43L729.64,8.117L730.788,7.802L731.937,7.488L733.213,7.175L734.361,6.861L735.509,6.636L736.785,6.368L737.934,6.098L739.082,5.785L740.23,5.515L741.507,5.201L742.655,4.843L743.804,4.529L745.079,4.17L746.228,3.856L747.376,3.498L748.652,3.183L749.801,2.869L750.949,2.645L752.098,2.152L753.374,1.883L754.522,1.479L755.671,1.121L756.946,0.717L758.095,0.314L759.243,-0.09L760.52,-0.493L762.816,-1.301L763.965,-1.658L765.241,-2.018L766.39,-2.377L767.538,-2.69L768.813,-3.049L769.962,-3.364L771.11,-3.721L772.259,-4.036L773.535,-4.35L774.684,-4.575L775.832,-4.754L777.108,-4.934L778.256,-5.157L779.404,-5.336L780.681,-5.516L781.829,-5.696L782.978,-5.875L784.127,-6.099L785.402,-6.278L786.55,-6.457L787.699,-6.637L788.975,-6.817L790.123,-6.996L791.272,-7.175L792.548,-7.355L794.846,-7.713L795.994,-7.893" style="fill:none;fill-rule:nonzero;stroke:rgb(88,89,91);stroke-width:0.65px;"/>
        </g>
        <g transform="matrix(1,0,0,1,60.627,153.508)">
            <path d="M0,27.756L1.148,28.878L2.425,29.819L3.573,30.492L4.722,30.537L72.352,30.537L73.5,30.581L138.833,30.581L139.981,30.627L202.891,30.627L204.039,30.672L243.214,30.672L244.362,30.717L256.229,30.717L257.505,30.672L258.653,30.672L259.802,30.627L260.95,30.627L262.226,30.581L263.374,30.537L264.522,30.492L265.8,30.402L266.947,30.313L268.096,30.223L269.372,30.133L270.521,30.044L271.669,29.953L272.817,29.864L274.093,29.774L275.241,29.73L276.39,29.641L277.666,29.596L278.814,29.55L279.963,29.506L281.111,29.461L290.682,29.461L291.83,29.416L297.827,29.416L298.976,29.37L304.846,29.37L306.122,29.326L307.271,29.326L308.419,29.37L309.694,29.37L310.844,29.416L311.992,29.416L313.141,29.461L315.564,29.461L316.713,29.506L323.859,29.506L325.008,29.461L326.283,29.461L327.432,29.416L328.58,29.416L329.856,29.37L331.005,29.37L332.153,29.326L333.43,29.281L334.578,29.281L335.727,29.236L336.874,29.191L338.15,29.147L339.299,29.102L340.447,29.057L341.724,28.967L342.872,28.922L344.021,28.878L345.297,28.878L346.444,28.833L347.593,28.787L348.741,28.742L350.018,28.698L351.166,28.698L352.314,28.654L353.591,28.61L354.739,28.563L355.888,28.563L357.035,28.519L358.312,28.475L359.46,28.475L360.608,28.43L361.885,28.383L363.033,28.383L364.182,28.339L365.458,28.295L366.605,28.295L367.754,28.25L368.902,28.205L370.179,28.16L371.327,28.115L372.476,28.07L373.752,28.07L374.9,28.026L376.049,27.981L377.324,27.981L378.473,27.936L379.621,27.936L380.77,27.891L382.046,27.891L383.194,27.847L384.344,27.802L385.619,27.802L386.769,27.756L387.916,27.711L389.191,27.667L390.34,27.623L391.489,27.576L392.638,27.531L393.914,27.531L395.062,27.487L396.211,27.444L397.486,27.444L398.635,27.399L399.783,27.399L400.932,27.352L402.208,27.308L403.356,27.308L404.505,27.264L405.781,27.219L406.93,27.219L408.077,27.173L409.354,27.173L410.502,27.129L411.65,27.084L412.799,27.084L414.075,27.039L415.224,26.994L417.647,26.994L418.796,26.949L419.944,26.949L421.221,26.904L422.369,26.904L423.518,26.86L424.666,26.86L425.942,26.816L428.239,26.816L429.515,26.772L430.663,26.772L431.812,26.725L433.088,26.725L434.236,26.68L435.385,26.636L436.533,26.592L437.81,26.5L438.958,26.456L440.105,26.412L441.382,26.367L442.53,26.32L443.679,26.277L444.827,26.233L446.104,26.188L447.252,26.142L448.4,26.098L449.676,26.053L450.824,26.008L451.973,25.963L453.249,25.918L454.397,25.873L455.546,25.828L456.694,25.784L457.971,25.738L459.118,25.693L460.267,25.649L461.543,25.605L462.691,25.559L463.84,25.514L465.116,25.514L466.265,25.469L467.414,25.425L468.562,25.425L469.837,25.381L470.986,25.334L472.135,25.289L473.41,25.245L474.56,25.201L475.708,25.201L476.984,25.155L478.133,25.155L479.281,25.11L480.43,25.067L481.705,25.067L482.854,25.022L484.002,24.977L485.278,24.887L486.427,24.842L487.575,24.797L488.724,24.707L490,24.662L491.147,24.573L492.296,24.527L493.572,24.438L494.721,24.394L495.869,24.303L497.146,24.258L498.294,24.169L499.442,24.124L500.59,24.035L501.866,23.99L503.015,23.9L504.163,23.811L505.439,23.766L506.588,23.676L507.736,23.631L509.013,23.541L510.16,23.496L511.309,23.406L512.457,23.361L513.733,23.272L514.882,23.227L516.03,23.183L517.307,23.092L518.455,23.048L519.604,23.004L520.752,22.958L522.027,22.868L523.176,22.824L524.324,22.778L525.601,22.735L526.749,22.689L527.897,22.645L529.174,22.555L530.322,22.465L531.471,22.33L532.618,22.195L533.895,21.971L535.043,21.793L536.191,21.657L537.468,21.524L538.616,21.434L539.765,21.479L541.041,21.479L542.188,21.524L543.337,21.568L544.486,21.613L545.762,21.613L546.91,21.657L549.335,21.657L550.484,21.613L551.632,21.613L552.907,21.568L554.057,21.479L555.205,21.344L556.354,21.254L557.63,21.075L558.778,20.94L559.927,20.806L561.202,20.626L562.351,20.492L563.499,20.402L564.647,20.268L565.924,20.133L567.072,20.044L568.221,19.954L569.497,19.864L570.646,19.729L571.794,19.595L573.069,19.461L574.218,19.281L575.366,19.057L576.515,18.877L577.791,18.833L578.939,18.653L580.088,18.474L581.364,18.34L582.513,18.384L583.66,18.474L584.937,18.52L586.085,18.564L587.233,18.61L588.382,18.653L589.658,18.743L590.807,18.787L591.954,18.877L593.23,18.923L594.379,19.013L595.527,19.102L596.804,19.192L597.952,19.236L599.101,19.326L600.249,19.415L601.524,19.505L602.673,19.595L603.821,19.685L605.098,19.775L606.246,19.864L607.395,19.998L608.543,20.088L609.819,20.178L610.968,20.268L612.116,20.358L613.392,20.402L614.54,20.446L615.688,20.582L616.965,20.762L618.113,20.896L619.262,20.94L620.411,21.029L621.687,21.164L622.835,21.344L623.984,21.524L625.259,21.657L626.407,21.793L627.557,21.927L628.832,21.971L629.98,22.107L631.13,22.285L632.278,22.375L633.555,22.42L635.851,22.42L637.127,22.555L638.275,22.555L639.424,22.6L640.7,22.778L641.849,22.914L642.996,23.048L644.145,23.138L645.421,23.272L646.569,23.183L647.718,23.092L648.994,23.004L650.143,23.048L651.291,23.092L652.439,22.914L653.715,22.958L654.863,23.004L656.012,23.092L657.288,23.004L658.437,23.004L659.585,22.868L660.861,22.824L662.01,22.868L663.158,22.778L664.307,22.645L665.582,22.6L666.73,22.555L667.879,22.555L669.155,22.51L670.304,22.465L671.452,22.375L672.729,22.24L673.877,22.107L675.025,21.927L676.173,21.703L677.449,21.479L678.598,21.209L679.746,20.85L681.022,20.492L682.171,20.268L683.319,19.908L684.596,19.595L685.743,19.281L686.892,18.697L688.04,18.25L689.316,18.026L690.465,17.712L691.613,17.174L692.89,16.681L694.037,16.233L695.186,15.783L696.334,15.201L697.61,14.572L698.759,13.945L699.907,13.362L701.184,12.735L702.332,12.285L703.48,11.613L704.756,11.164L705.904,10.627L707.053,10.179L708.202,9.686L709.478,9.371L710.627,9.102L711.775,8.832L713.051,8.654L714.2,8.475L715.349,8.25L716.623,8.027L717.772,7.757L718.921,7.309L720.069,7.084L721.346,6.905L722.494,6.68L723.643,6.367L724.919,6.098L726.067,6.008L727.215,5.873L728.363,5.694L729.64,5.649L730.788,5.246L731.937,4.887L733.213,4.663L734.361,4.617L735.509,4.485L736.785,4.393L737.934,4.305L739.082,4.26L740.23,4.528L741.507,4.349L742.655,4.169L743.804,4.169L745.079,3.856L746.228,3.721L747.376,3.541L748.652,3.361L749.801,3.002L750.949,2.6L752.098,2.33L753.374,2.107L754.522,1.883L755.671,1.703L756.946,1.524L758.095,1.344L759.243,1.119L760.52,0.94L762.816,0.582L763.965,0.402L765.241,0.178L766.39,-0.002L767.538,-0.18L768.813,-0.359L769.962,-0.539L771.11,-0.719L772.259,-0.898L773.535,-1.078L774.684,-1.212L775.832,-1.391L777.108,-1.525L778.256,-1.66L779.404,-1.84L780.681,-1.974L781.829,-2.109L784.127,-2.377L785.402,-2.467L786.55,-2.602L787.699,-2.646L788.975,-2.691L790.123,-2.736L791.272,-2.781L792.548,-2.826L794.846,-2.916L795.994,-2.961" style="fill:none;fill-rule:nonzero;stroke:rgb(88,89,91);stroke-width:0.65px;"/>
        </g>
        <g transform="matrix(1,0,0,1,60.627,153.508)">
            <path d="M0,27.756L1.148,28.878L2.425,29.819L3.573,30.492L4.722,30.537L72.352,30.537L73.5,30.581L138.833,30.581L139.981,30.627L202.891,30.627L204.039,30.672L243.214,30.672L244.362,30.717L256.229,30.717L257.505,30.672L258.653,30.672L259.802,30.627L260.95,30.627L262.226,30.581L263.374,30.537L264.522,30.492L265.8,30.402L266.947,30.313L268.096,30.223L269.372,30.133L270.521,30.044L271.669,29.953L272.817,29.864L274.093,29.774L275.241,29.73L276.39,29.641L277.666,29.596L278.814,29.55L279.963,29.506L281.111,29.461L290.682,29.461L291.83,29.416L297.827,29.416L298.976,29.37L304.846,29.37L306.122,29.326L307.271,29.326L308.419,29.37L309.694,29.37L310.844,29.416L311.992,29.416L313.141,29.461L315.564,29.461L316.713,29.506L323.859,29.506L325.008,29.461L326.283,29.461L327.432,29.416L328.58,29.416L329.856,29.37L331.005,29.37L332.153,29.326L333.43,29.281L334.578,29.281L335.727,29.236L336.874,29.191L338.15,29.147L339.299,29.102L340.447,29.057L341.724,28.967L342.872,28.922L344.021,28.878L345.297,28.878L346.444,28.833L347.593,28.787L348.741,28.742L350.018,28.698L351.166,28.698L352.314,28.654L353.591,28.61L354.739,28.563L355.888,28.563L357.035,28.519L358.312,28.475L359.46,28.475L360.608,28.43L361.885,28.383L363.033,28.383L364.182,28.339L365.458,28.295L366.605,28.295L367.754,28.25L368.902,28.205L370.179,28.16L371.327,28.115L372.476,28.07L373.752,28.07L374.9,28.026L376.049,27.981L377.324,27.981L378.473,27.936L379.621,27.936L380.77,27.891L382.046,27.891L383.194,27.847L384.344,27.802L385.619,27.802L386.769,27.756L387.916,27.711L389.191,27.667L390.34,27.623L391.489,27.576L392.638,27.531L393.914,27.531L395.062,27.487L396.211,27.444L397.486,27.444L398.635,27.399L399.783,27.399L400.932,27.352L402.208,27.308L403.356,27.308L404.505,27.264L405.781,27.219L406.93,27.219L408.077,27.173L409.354,27.173L410.502,27.129L411.65,27.084L412.799,27.084L414.075,27.039L415.224,26.994L417.647,26.994L418.796,26.949L419.944,26.949L421.221,26.904L422.369,26.904L423.518,26.86L424.666,26.86L425.942,26.816L428.239,26.816L429.515,26.772L430.663,26.772L431.812,26.725L433.088,26.725L434.236,26.68L435.385,26.636L436.533,26.592L437.81,26.5L438.958,26.456L440.105,26.412L441.382,26.367L442.53,26.32L443.679,26.277L444.827,26.233L446.104,26.188L447.252,26.142L448.4,26.098L449.676,26.053L450.824,26.008L451.973,25.963L453.249,25.918L454.397,25.873L455.546,25.828L456.694,25.784L457.971,25.738L459.118,25.693L460.267,25.649L461.543,25.605L462.691,25.559L463.84,25.514L465.116,25.514L466.265,25.469L467.414,25.425L468.562,25.425L469.837,25.381L470.986,25.334L472.135,25.289L473.41,25.245L474.56,25.201L475.708,25.201L476.984,25.155L478.133,25.155L479.281,25.11L480.43,25.067L481.705,25.067L482.854,25.022L484.002,24.977L485.278,24.887L486.427,24.842L487.575,24.797L488.724,24.707L490,24.662L491.147,24.573L492.296,24.527L493.572,24.438L494.721,24.394L495.869,24.303L497.146,24.258L498.294,24.169L499.442,24.124L500.59,24.035L501.866,23.99L503.015,23.9L504.163,23.811L505.439,23.766L506.588,23.676L507.736,23.631L509.013,23.541L510.16,23.496L511.309,23.406L512.457,23.361L513.733,23.272L514.882,23.227L516.03,23.183L517.307,23.092L518.455,23.048L519.604,23.004L520.752,22.958L522.027,22.868L523.176,22.824L524.324,22.778L525.601,22.735L526.749,22.689L527.897,22.645L529.174,22.555L530.322,22.465L531.471,22.33L532.618,22.195L533.895,21.971L535.043,21.793L536.191,21.657L537.468,21.524L538.616,21.434L539.765,21.479L541.041,21.479L542.188,21.524L543.337,21.568L544.486,21.613L545.762,21.613L546.91,21.657L549.335,21.657L550.484,21.613L551.632,21.613L552.907,21.568L554.057,21.479L555.205,21.344L556.354,21.254L557.63,21.075L558.778,20.94L559.927,20.806L561.202,20.626L562.351,20.492L563.499,20.402L564.647,20.268L565.924,20.133L567.072,20.044L568.221,19.954L569.497,19.819L570.646,19.685L571.794,19.371L573.069,19.102L574.218,18.787L575.366,18.564L576.515,18.384L577.791,18.205L578.939,18.026L580.088,17.846L581.364,17.712L582.513,17.622L583.66,17.532L584.937,17.488L586.085,17.488L587.233,17.443L588.382,17.488L589.658,17.488L590.807,17.532L591.954,17.576L593.23,17.622L594.379,17.666L595.527,17.712L596.804,17.801L597.952,17.846L599.101,17.936L600.249,18.026L601.524,18.115L602.673,18.16L603.821,18.25L605.098,18.34L606.246,18.43L607.395,18.474L608.543,18.564L609.819,18.61L610.968,18.697L612.116,18.743L613.392,18.833L615.688,19.013L616.965,19.102L618.113,19.147L619.262,19.236L620.411,19.326L621.687,19.371L622.835,19.461L623.984,19.551L625.259,19.595L626.407,19.641L627.557,19.729L628.832,19.775L629.98,19.819L631.13,19.864L632.278,19.864L633.555,19.908L634.702,19.908L635.851,19.954L638.275,19.954L639.424,19.908L640.7,19.908L641.849,19.864L642.996,19.819L644.145,19.775L645.421,19.729L646.569,19.685L647.718,19.595L648.994,19.551L650.143,19.461L652.439,19.281L653.715,19.192L654.863,19.102L656.012,19.013L657.288,18.877L658.437,18.743L659.585,18.564L660.861,18.34L662.01,18.115L663.158,17.846L664.307,17.622L665.582,17.443L666.73,17.309L667.879,17.039L669.155,16.815L670.304,16.591L671.452,16.277L672.729,15.963L673.877,15.65L676.173,14.932L677.449,14.483L678.598,14.035L679.746,13.586L681.022,13.139L682.171,12.69L683.319,12.241L684.596,11.838L685.743,11.434L686.892,11.03L688.04,10.807L689.316,10.672L690.465,11.164L691.613,11.254L692.89,10.807L694.037,10.537L695.186,10.133L696.334,9.416L697.61,8.878L698.759,8.654L699.907,8.475L701.184,8.295L702.332,8.027L703.48,7.847L704.756,7.667L705.904,7.399L708.202,6.949L709.478,6.726L710.627,6.546L711.775,6.367L713.051,6.233L715.349,5.963L716.623,5.828L717.772,5.738L718.921,5.604L720.069,5.516L721.346,5.38L722.494,5.246L723.643,5.067L724.919,4.887L726.067,4.663L727.215,4.528L728.363,4.439L729.64,4.26L730.788,3.945L731.937,3.676L733.213,3.497L734.361,3.361L735.509,3.228L736.785,3.094L737.934,2.958L739.082,2.869L740.23,2.735L741.507,2.645L742.655,2.51L743.804,2.375L745.079,2.242L746.228,2.107L747.376,1.927L748.652,1.748L749.801,1.613L750.949,1.479L752.098,1.344L753.374,1.211L754.522,1.031L755.671,0.896L756.946,0.761L758.095,0.582L759.243,0.447L760.52,0.268L761.668,0.133L762.816,-0.046L763.965,-0.224L765.241,-0.359L766.39,-0.539L767.538,-0.674L768.813,-0.808L769.962,-0.943L771.11,-1.078L772.259,-1.167L773.535,-1.302L774.684,-1.435L775.832,-1.525L777.108,-1.66L778.256,-1.795L779.404,-1.885L780.681,-2.019L781.829,-2.109L784.127,-2.377L785.402,-2.467L786.55,-2.602L787.699,-2.646L788.975,-2.691L790.123,-2.736L791.272,-2.781L792.548,-2.826L794.846,-2.916L795.994,-2.961" style="fill:none;fill-rule:nonzero;stroke:rgb(88,89,91);stroke-width:0.65px;"/>
        </g>
        <g transform="matrix(1,0,0,1,60.627,152.653)">
            <path d="M0,28.478L1.148,29.642L2.425,30.451L35.602,30.451L36.75,30.496L111.526,30.496L112.675,30.541L185.025,30.541L186.302,30.584L247.935,30.584L249.083,30.541L253.933,30.541L255.081,30.496L257.505,30.496L258.653,30.451L259.802,30.451L260.95,30.405L262.226,30.405L263.374,30.361L264.522,30.316L265.8,30.271L266.947,30.225L268.096,30.181L269.372,30.136L270.521,30.091L271.669,30.045L272.817,30.001L274.093,29.957L275.241,29.912L276.39,29.868L277.666,29.822L278.814,29.777L279.963,29.733L281.111,29.733L282.388,29.688L289.533,29.688L290.682,29.642L295.403,29.642L296.552,29.597L300.124,29.597L301.4,29.553L304.846,29.553L306.122,29.509L308.419,29.509L309.694,29.464L311.992,29.464L313.141,29.417L314.416,29.417L315.564,29.374L316.713,29.33L317.989,29.33L319.138,29.285L320.286,29.238L321.562,29.238L322.711,29.194L323.859,29.15L325.008,29.105L326.283,29.105L327.432,29.06L328.58,29.015L329.856,29.015L331.005,28.97L332.153,28.925L333.43,28.88L334.578,28.88L335.727,28.835L336.874,28.79L338.15,28.79L339.299,28.746L340.447,28.702L341.724,28.657L342.872,28.657L344.021,28.611L345.297,28.566L346.444,28.566L347.593,28.522L348.741,28.478L350.018,28.478L351.166,28.431L352.314,28.386L353.591,28.386L354.739,28.342L355.888,28.298L357.035,28.253L358.312,28.253L359.46,28.207L360.608,28.163L361.885,28.163L363.033,28.119L364.182,28.074L365.458,28.074L366.605,28.028L367.754,27.984L368.902,27.939L370.179,27.939L371.327,27.894L372.476,27.849L373.752,27.804L374.9,27.759L376.049,27.714L377.324,27.714L378.473,27.67L379.621,27.67L380.77,27.626L382.046,27.626L383.194,27.58L384.344,27.535L385.619,27.535L386.769,27.491L387.916,27.447L389.191,27.447L390.34,27.4L391.489,27.355L392.638,27.311L393.914,27.267L395.062,27.222L396.211,27.175L397.486,27.131L398.635,27.087L399.783,27.042L400.932,27.042L402.208,26.997L403.356,26.953L404.505,26.908L405.781,26.863L406.93,26.863L408.077,26.818L409.354,26.773L411.65,26.683L412.799,26.683L414.075,26.639L415.224,26.593L416.372,26.548L417.647,26.548L418.796,26.503L419.944,26.459L421.221,26.459L422.369,26.414L423.518,26.369L424.666,26.324L425.942,26.324L427.091,26.28L428.239,26.236L429.515,26.236L430.663,26.189L431.812,26.144L433.088,26.144L434.236,26.1L435.385,26.056L436.533,26.01L437.81,26.01L438.958,25.965L440.105,25.921L441.382,25.921L442.53,25.876L443.679,25.832L444.827,25.832L446.104,25.786L447.252,25.786L448.4,25.742L449.676,25.742L450.824,25.697L453.249,25.697L454.397,25.652L456.694,25.652L457.971,25.607L460.267,25.607L461.543,25.562L462.691,25.562L463.84,25.517L465.116,25.517L466.265,25.472L467.414,25.428L468.562,25.382L469.837,25.337L470.986,25.249L472.135,25.158L473.41,25.069L474.56,25.024L475.708,24.934L476.984,24.89L478.133,24.845L479.281,24.8L480.43,24.754L481.705,24.71L482.854,24.621L484.002,24.576L485.278,24.531L486.427,24.486L487.575,24.396L488.724,24.351L490,24.261L491.147,24.171L492.296,24.126L493.572,24.038L494.721,23.993L495.869,23.903L497.146,23.859L499.442,23.679L500.59,23.633L501.866,23.543L503.015,23.499L504.163,23.41L505.439,23.365L506.588,23.275L507.736,23.185L509.013,23.14L510.16,23.05L511.309,23.005L512.457,22.961L513.733,22.872L514.882,22.826L516.03,22.782L517.307,22.738L518.455,22.648L519.604,22.602L520.752,22.558L522.027,22.512L523.176,22.422L524.324,22.378L525.601,22.289L526.749,22.199L527.897,22.154L529.174,22.064L530.322,21.974L531.471,21.93L532.618,21.84L533.895,21.75L535.043,21.661L536.191,21.571L537.468,21.527L538.616,21.437L539.765,21.391L541.041,21.347L542.188,21.301L543.337,21.301L544.486,21.257L545.762,21.257L546.91,21.212L548.06,21.167L549.335,21.123L550.484,21.033L551.632,20.988L552.907,20.899L554.057,20.809L555.205,20.719L556.354,20.629L557.63,20.54L558.778,20.406L559.927,20.316L561.202,20.226L562.351,20.091L563.499,20.001L564.647,19.868L565.924,19.732L567.072,19.598L568.221,19.418L569.497,19.239L570.646,19.015L571.794,18.835L573.069,18.656L574.218,18.431L575.366,18.207L576.515,18.074L577.791,17.849L578.939,17.221L580.088,16.863L581.364,16.728L582.513,16.593L583.66,16.504L584.937,16.369L586.085,16.325L587.233,16.279L597.952,16.279L599.101,16.19L600.249,16.235L601.524,16.279L603.821,16.279L605.098,16.325L608.543,16.325L609.819,16.369L613.392,16.369L614.54,16.414L615.688,16.414L616.965,16.504L618.113,16.548L619.262,16.638L620.411,16.683L621.687,16.728L622.835,16.773L623.984,16.773L625.259,16.818L626.407,16.863L627.557,16.908L628.832,16.953L629.98,16.953L631.13,16.908L632.278,16.953L633.555,16.953L634.702,16.908L635.851,16.728L637.127,16.593L638.275,16.504L639.424,16.458L640.7,16.414L641.849,16.325L642.996,16.279L644.145,16.19L645.421,16.101L646.569,16.011L647.718,15.921L648.994,15.832L650.143,15.697L652.439,15.427L653.715,15.248L654.863,15.025L656.012,14.755L657.288,14.531L658.437,14.217L659.585,13.859L660.861,13.499L662.01,13.096L663.158,12.648L664.307,12.199L665.582,11.751L666.73,11.257L667.879,10.808L669.155,10.361L670.304,9.913L671.452,9.463L672.729,9.015L673.877,8.612L676.173,7.804L677.449,7.401L678.598,7.132L679.746,6.863L681.022,6.593L682.171,6.371L683.319,6.146L684.596,5.966L685.743,5.832L686.892,5.652L688.04,5.518L689.316,5.339L690.465,5.204L691.613,5.024L692.89,4.844L694.037,4.71L695.186,4.531L696.334,4.352L697.61,4.172L698.759,3.993L699.907,3.857L701.184,3.724L702.332,3.589L703.48,3.455L704.756,3.321L705.904,3.185L707.053,3.097L708.202,3.005L709.478,2.917L710.627,2.826L711.775,2.738L713.051,2.648L714.2,2.558L715.349,2.513L716.623,2.423L718.921,2.333L720.069,2.29L721.346,2.244L722.494,2.199L723.643,2.11L724.919,2.066L726.067,2.019L727.215,2.019L728.363,1.974L729.64,1.93L730.788,1.886L731.937,1.84L733.213,1.794L734.361,1.75L735.509,1.707L736.785,1.662L737.934,1.572L739.082,1.482L740.23,1.347L741.507,1.257L742.655,1.167L743.804,1.079L745.079,0.943L746.228,0.853L747.376,0.719L748.652,0.584L749.801,0.406L750.949,0.226L752.098,0.091L753.374,0.001L754.522,-0.088L755.671,-0.178L756.946,-0.268L758.095,-0.401L759.243,-0.491L760.52,-0.581L761.668,-0.67L762.816,-0.76L763.965,-0.85L765.241,-0.94L766.39,-1.03L767.538,-1.12L768.813,-1.209L769.962,-1.299L771.11,-1.299L772.259,-1.344L773.535,-1.344L774.684,-1.388L775.832,-1.388L777.108,-1.432L778.256,-1.478L779.404,-1.522L780.681,-1.568L781.829,-1.612L782.978,-1.658L784.127,-1.702L785.402,-1.748L786.55,-1.748L787.699,-1.792L788.975,-1.836L790.123,-1.881L791.272,-1.926L792.548,-1.971L794.846,-2.061L795.994,-2.106" style="fill:none;fill-rule:nonzero;stroke:rgb(88,89,91);stroke-width:0.65px;"/>
        </g>
        <g transform="matrix(1,0,0,1,60.627,152.653)">
            <path d="M0,28.478L1.148,29.642L2.425,30.451L35.602,30.451L36.75,30.496L111.526,30.496L112.675,30.541L185.025,30.541L186.302,30.584L247.935,30.584L249.083,30.541L253.933,30.541L255.081,30.496L257.505,30.496L258.653,30.451L259.802,30.451L260.95,30.405L262.226,30.405L263.374,30.361L264.522,30.316L265.8,30.271L266.947,30.225L268.096,30.181L269.372,30.136L270.521,30.091L271.669,30.045L272.817,30.001L274.093,29.957L275.241,29.912L276.39,29.868L277.666,29.822L278.814,29.777L279.963,29.733L281.111,29.733L282.388,29.688L283.536,29.642L284.685,29.642L285.96,29.597L287.108,29.553L288.257,29.509L289.533,29.509L290.682,29.464L291.83,29.417L292.978,29.374L294.255,29.33L295.403,29.33L296.552,29.285L297.827,29.238L298.976,29.194L300.124,29.15L301.4,29.15L303.696,29.06L304.846,29.015L306.122,28.97L307.271,28.925L308.419,28.88L309.694,28.835L310.844,28.79L311.992,28.746L313.141,28.746L314.416,28.702L315.564,28.657L316.713,28.611L317.989,28.611L319.138,28.566L320.286,28.522L321.562,28.522L322.711,28.478L323.859,28.431L325.008,28.386L326.283,28.386L327.432,28.342L328.58,28.298L329.856,28.298L331.005,28.253L332.153,28.207L333.43,28.207L334.578,28.163L335.727,28.119L336.874,28.119L338.15,28.074L339.299,28.028L340.447,28.028L341.724,27.984L342.872,27.984L344.021,27.939L345.297,27.894L346.444,27.894L347.593,27.849L348.741,27.849L350.018,27.804L351.166,27.759L352.314,27.759L353.591,27.714L354.739,27.714L355.888,27.67L357.035,27.626L358.312,27.626L359.46,27.58L360.608,27.535L361.885,27.491L363.033,27.447L364.182,27.4L365.458,27.355L366.605,27.311L367.754,27.267L368.902,27.222L370.179,27.175L371.327,27.087L372.476,27.042L373.752,26.997L374.9,26.908L376.049,26.863L377.324,26.818L378.473,26.773L379.621,26.728L380.77,26.683L382.046,26.639L383.194,26.593L384.344,26.593L385.619,26.548L386.769,26.503L387.916,26.459L389.191,26.414L391.489,26.324L392.638,26.28L393.914,26.28L395.062,26.236L397.486,26.236L398.635,26.189L399.783,26.189L400.932,26.144L402.208,26.144L403.356,26.1L404.505,26.056L405.781,26.056L406.93,26.01L408.077,25.965L409.354,25.876L410.502,25.832L411.65,25.786L412.799,25.697L414.075,25.652L415.224,25.562L416.372,25.517L417.647,25.472L418.796,25.428L419.944,25.337L421.221,25.292L422.369,25.249L423.518,25.203L424.666,25.158L425.942,25.069L427.091,25.024L428.239,24.979L429.515,24.934L430.663,24.89L431.812,24.845L433.088,24.8L434.236,24.754L435.385,24.71L436.533,24.665L437.81,24.665L438.958,24.621L440.105,24.576L441.382,24.576L442.53,24.531L443.679,24.486L444.827,24.486L446.104,24.441L447.252,24.396L448.4,24.396L449.676,24.351L450.824,24.306L451.973,24.306L453.249,24.261L454.397,24.216L455.546,24.171L456.694,24.126L457.971,24.082L459.118,24.038L460.267,23.993L461.543,23.947L462.691,23.903L463.84,23.859L465.116,23.813L466.265,23.769L467.414,23.723L468.562,23.679L469.837,23.633L470.986,23.589L472.135,23.543L473.41,23.499L474.56,23.455L475.708,23.41L476.984,23.365L478.133,23.32L479.281,23.32L480.43,23.275L481.705,23.23L482.854,23.185L484.002,23.14L485.278,23.095L486.427,23.05L487.575,23.005L488.724,22.961L490,22.872L491.147,22.826L492.296,22.738L493.572,22.648L494.721,22.558L495.869,22.512L497.146,22.422L498.294,22.378L499.442,22.333L500.59,22.244L501.866,22.199L503.015,22.154L504.163,22.064L505.439,22.019L506.588,21.93L507.736,21.884L509.013,21.794L510.16,21.75L511.309,21.661L512.457,21.571L513.733,21.527L514.882,21.437L516.03,21.347L517.307,21.301L518.455,21.212L519.604,21.123L520.752,21.078L522.027,20.988L523.176,20.899L524.324,20.809L525.601,20.763L527.897,20.583L529.174,20.45L530.322,20.27L531.471,20.091L532.618,20.001L533.895,19.957L535.043,19.912L536.191,19.868L537.468,19.822L538.616,19.778L539.765,19.732L541.041,19.688L542.188,19.642L543.337,19.598L544.486,19.552L545.762,19.464L546.91,19.418L548.06,19.329L549.335,19.239L550.484,19.105L551.632,19.015L552.907,18.88L554.057,18.747L555.205,18.656L556.354,18.521L557.63,18.387L558.778,18.253L559.927,18.164L561.202,18.164L562.351,18.207L563.499,18.207L564.647,18.029L565.924,17.849L567.072,17.58L568.221,17.356L569.497,17.177L570.646,16.998L571.794,16.773L573.069,16.458L574.218,16.146L575.366,15.832L576.515,15.382L577.791,15.159L578.939,14.935L580.088,14.71L581.364,14.71L582.513,14.486L583.66,14.127L584.937,13.769L587.233,13.679L588.382,13.634L589.658,13.589L590.807,13.589L591.954,13.544L593.23,13.499L594.379,13.455L596.804,13.455L597.952,13.41L603.821,13.41L605.098,13.365L607.395,13.365L608.543,13.32L615.688,13.32L616.965,13.365L618.113,13.365L620.411,13.455L621.687,13.499L623.984,13.499L625.259,13.455L626.407,13.455L627.557,13.41L628.832,13.365L629.98,13.32L631.13,13.32L632.278,13.275L633.555,13.23L634.702,13.14L635.851,13.096L637.127,12.916L638.275,12.827L639.424,12.693L640.7,12.558L641.849,12.423L642.996,12.199L644.145,12.019L645.421,11.795L646.569,11.482L647.718,11.167L648.994,10.898L650.143,10.584L651.291,10.316L652.439,10.002L653.715,9.687L654.863,9.374L656.012,9.06L657.288,8.746L658.437,8.388L659.585,8.074L660.861,7.714L662.01,7.357L663.158,7.042L664.307,6.683L665.582,6.371L666.73,5.966L667.879,5.607L669.155,5.339L670.304,5.068L671.452,4.844L672.729,4.621L673.877,4.308L675.025,3.949L676.173,3.679L677.449,3.455L678.598,3.277L679.746,3.005L681.022,2.782L682.171,2.513L683.319,2.244L684.596,1.974L685.743,1.75L686.892,1.527L688.04,1.347L689.316,1.167L690.465,0.988L691.613,0.853L692.89,0.719L694.037,0.584L695.186,0.451L696.334,0.361L697.61,0.271L698.759,0.226L699.907,0.181L701.184,0.136L704.756,0.136L705.904,0.091L713.051,0.091L714.2,0.046L717.772,0.046L718.921,0.001L726.067,0.001L727.215,-0.043L734.361,-0.043L735.509,-0.088L741.507,-0.088L742.655,-0.043L745.079,-0.043L746.228,-0.088L747.376,-0.133L748.652,-0.178L749.801,-0.223L750.949,-0.268L752.098,-0.312L753.374,-0.357L754.522,-0.401L755.671,-0.447L756.946,-0.491L758.095,-0.537L759.243,-0.581L760.52,-0.626L761.668,-0.67L762.816,-0.76L763.965,-0.85L765.241,-0.94L766.39,-1.03L767.538,-1.12L768.813,-1.209L769.962,-1.299L771.11,-1.299L772.259,-1.344L773.535,-1.344L774.684,-1.388L775.832,-1.388L777.108,-1.432L778.256,-1.478L779.404,-1.522L780.681,-1.568L781.829,-1.612L782.978,-1.658L784.127,-1.702L785.402,-1.748L786.55,-1.748L787.699,-1.792L788.975,-1.836L790.123,-1.881L791.272,-1.926L792.548,-1.971L794.846,-2.061L795.994,-2.106" style="fill:none;fill-rule:nonzero;stroke:rgb(88,89,91);stroke-width:0.65px;"/>
        </g>
        <g transform="matrix(1,0,0,1,60.627,166.467)">
            <path d="M0,14.752L1.148,15.919L2.425,16.86L3.573,17.578L4.722,18.16L5.998,18.744L7.146,19.148L8.295,19.551L9.443,19.91L10.719,20.313L11.867,20.672L13.016,20.986L14.292,21.3L15.439,21.659L16.588,21.928L17.865,22.241L19.014,22.511L20.162,22.734L21.31,23.004L22.586,23.229L23.734,23.452L24.883,23.676L26.158,23.856L27.307,24.035L28.455,24.215L29.604,24.394L30.88,24.529L32.028,24.663L33.177,24.797L34.453,24.932L35.602,25.022L36.75,25.111L38.025,25.246L39.174,25.291L40.322,25.381L41.471,25.471L42.747,25.515L43.896,25.561L45.044,25.605L46.32,25.65L47.469,25.694L48.617,25.739L49.893,25.783L52.189,25.873L53.338,25.873L54.614,25.918L55.763,25.963L56.91,26.008L58.188,26.053L59.336,26.053L60.485,26.098L61.76,26.143L62.908,26.188L64.058,26.232L65.206,26.232L66.48,26.277L68.778,26.367L70.056,26.412L71.204,26.412L73.5,26.502L74.776,26.546L75.925,26.546L77.073,26.592L78.349,26.636L79.497,26.681L80.646,26.681L81.922,26.726L83.07,26.771L84.219,26.815L85.367,26.86L226.624,26.86L227.773,26.815L244.362,26.815L245.638,26.771L246.786,26.815L249.083,26.815L250.359,26.904L251.507,26.949L252.655,27.039L253.933,27.174L255.081,27.309L256.229,27.398L257.505,27.488L258.653,27.488L259.802,27.533L260.95,27.533L262.226,27.578L264.522,27.578L265.8,27.623L269.372,27.623L270.521,27.667L276.39,27.667L277.666,27.712L285.96,27.712L287.108,27.667L288.257,27.623L289.533,27.533L290.682,27.488L291.83,27.443L292.978,27.354L294.255,27.309L295.403,27.264L296.552,27.219L297.827,27.174L298.976,27.129L300.124,27.084L301.4,27.039L302.548,26.994L303.696,26.994L304.846,26.949L310.844,26.949L311.992,27.039L313.141,27.174L314.416,27.354L315.564,27.623L316.713,27.892L317.989,28.07L319.138,28.205L320.286,28.25L322.711,28.25L323.859,28.16L325.008,28.115L326.283,28.07L327.432,28.025L328.58,27.981L329.856,27.981L331.005,27.936L332.153,27.892L333.43,27.892L334.578,27.846L335.727,27.802L336.874,27.757L338.15,27.712L339.299,27.667L340.447,27.667L341.724,27.623L342.872,27.623L344.021,27.578L354.739,27.578L355.888,27.623L359.46,27.623L360.608,27.667L361.885,27.667L363.033,27.712L364.182,27.712L365.458,27.757L366.605,27.936L367.754,28.16L368.902,28.385L370.179,28.609L371.327,28.877L372.476,28.967L373.752,28.923L374.9,28.923L376.049,29.461L377.324,30.178L378.473,30.672L379.621,30.672L380.77,30.627L386.769,30.627L387.916,30.582L389.191,30.537L390.34,30.537L391.489,30.447L392.638,30.402L393.914,30.313L395.062,30.268L396.211,30.178L397.486,30.088L398.635,29.998L399.783,29.954L400.932,29.864L402.208,29.774L403.356,29.686L404.505,29.596L405.781,29.461L406.93,29.371L408.077,29.236L409.354,29.103L410.502,28.967L411.65,28.833L412.799,28.654L414.075,28.475L415.224,28.295L416.372,28.115L417.647,27.936L418.796,27.712L419.944,27.488L421.221,27.264L422.369,26.994L423.518,26.726L424.666,26.457L425.942,26.143L427.091,25.828L428.239,25.561L429.515,25.246L430.663,24.932L431.812,24.619L433.088,24.304L434.236,23.99L435.385,23.721L436.533,23.408L437.81,23.139L438.958,22.869L440.105,22.601L441.382,22.377L442.53,22.151L443.679,21.973L444.827,21.793L446.104,21.613L447.252,21.523L448.4,21.434L449.676,21.39L450.824,21.344L453.249,21.344L454.397,21.39L455.546,21.434L456.694,21.48L457.971,21.523L459.118,21.613L460.267,21.659L461.543,21.703L462.691,21.748L463.84,21.793L465.116,21.838L467.414,21.928L468.562,21.973L469.837,22.018L470.986,22.062L472.135,22.062L473.41,22.107L474.56,22.151L475.708,22.241L476.984,22.331L478.133,22.421L479.281,22.511L480.43,22.601L481.705,22.734L482.854,22.824L484.002,22.959L485.278,23.049L486.427,23.139L487.575,23.229L488.724,23.318L490,23.362L491.147,23.452L492.296,23.498L493.572,23.542L495.869,23.542L497.146,23.498L498.294,23.452L499.442,23.362L500.59,23.273L501.866,23.094L503.015,22.914L504.163,22.645L505.439,22.377L506.588,22.062L507.736,21.703L509.013,21.344L510.16,20.986L511.309,20.582L512.457,20.223L513.733,19.82L514.882,19.461L516.03,19.148L517.307,18.834L518.455,18.565L519.604,18.385L520.752,18.25L522.027,18.16L523.176,18.07L524.324,18.026L525.601,17.981L526.749,17.937L527.897,17.848L529.174,17.758L530.322,17.622L531.471,17.533L532.618,17.443L533.895,17.354L536.191,17.354L537.468,17.398L538.616,17.443L541.041,17.443L542.188,17.398L543.337,17.354L544.486,17.174L545.762,16.95L546.91,16.727L548.06,16.591L549.335,16.502L550.484,16.411L551.632,16.322L552.907,16.188L554.057,15.828L555.205,15.471L556.354,15.111L557.63,14.752L558.778,14.44L559.927,14.08L561.202,13.766L562.351,13.497L563.499,13.273L564.647,13.094L565.924,13.004L567.072,13.049L568.221,13.139L569.497,13.273L570.646,13.317L571.794,13.317L573.069,13.183L574.218,13.004L575.366,12.734L576.515,12.51L577.791,12.286L578.939,12.107L580.088,12.151L581.364,12.33L582.513,12.33L583.66,12.51L584.937,12.734L586.085,13.094L587.233,13.183L588.382,13.586L589.658,13.721L590.807,13.497L591.954,13.633L593.23,13.813L594.379,14.125L595.527,13.9L596.804,14.08L597.952,14.26L599.101,14.44L600.249,14.888L601.524,14.797L602.673,14.843L603.821,14.888L605.098,15.066L606.246,15.38L607.395,15.38L608.543,15.471L609.819,16.682L610.968,16.637L612.116,16.547L613.392,16.994L614.54,17.443L615.688,16.547L616.965,16.502L618.113,17.129L619.262,17.085L620.411,17.398L621.687,17.758L622.835,18.116L623.984,18.789L625.259,19.237L626.407,18.789L627.557,19.014L628.832,19.148L629.98,19.327L631.13,19.775L632.278,19.999L633.555,20.179L634.702,20.269L635.851,20.223L637.127,20.358L638.275,20.672L639.424,20.358L640.7,20.538L641.849,20.986L642.996,21.166L644.145,21.39L645.421,21.973L646.569,21.748L647.718,21.883L648.994,21.973L650.143,22.062L651.291,22.151L652.439,22.197L653.715,22.151L654.863,22.287L656.012,22.377L657.288,22.421L658.437,22.465L660.861,22.465L662.01,22.511L663.158,22.197L664.307,23.318L665.582,23.004L666.73,22.377L667.879,22.421L669.155,22.511L670.304,22.465L671.452,22.377L672.729,22.287L673.877,22.197L675.025,22.062L676.173,21.883L677.449,21.703L678.598,21.523L679.746,21.21L681.022,20.897L682.171,20.582L683.319,20.358L684.596,19.999L685.743,19.551L686.892,19.327L688.04,18.968L689.316,19.058L690.465,19.058L691.613,19.014L692.89,18.968L694.037,18.968L695.186,18.744L696.334,18.43L697.61,18.116L698.759,17.802L699.907,17.443L701.184,17.219L702.332,16.994L703.48,16.682L704.756,16.277L705.904,15.874L707.053,15.38L708.202,15.022L709.478,14.708L710.627,14.44L711.775,14.17L713.051,13.9L714.2,13.633L715.349,13.408L716.623,13.139L717.772,12.825L718.921,12.375L720.069,12.196L721.346,11.972L722.494,11.614L723.643,11.21L724.919,10.582L726.067,10.313L727.215,10.179L728.363,9.819L729.64,9.371L730.788,8.654L731.937,7.981L733.213,7.264L734.361,6.592L735.509,6.367L736.785,5.65L737.934,5.022L739.082,4.573L740.23,4.125L741.507,3.273L742.655,2.869L743.804,1.838L745.079,0.717L746.228,0.045L747.376,-0.762L748.652,-1.435L749.801,-2.242L750.949,-2.96L752.098,-3.588L753.374,-4.171L754.522,-4.754L755.671,-5.336L756.946,-5.92L758.095,-6.502L759.243,-7.086L760.52,-7.623L761.668,-8.207L762.816,-8.746L763.965,-9.283L765.241,-9.777L766.39,-10.314L767.538,-10.717L768.813,-11.076L769.962,-11.391L771.11,-11.748L772.259,-12.063L773.535,-12.377L774.684,-12.602L775.832,-12.781L777.108,-12.961L778.256,-13.184L779.404,-13.363L780.681,-13.543L781.829,-13.723L782.978,-13.902L784.127,-14.126L785.402,-14.305L786.55,-14.484L787.699,-14.664L788.975,-14.844L790.123,-15.023L791.272,-15.202L792.548,-15.382L794.846,-15.74L795.994,-15.92" style="fill:none;fill-rule:nonzero;stroke:rgb(46,48,146);stroke-width:1.31px;"/>
        </g>
        <g transform="matrix(1,0,0,1,60.627,150.547)">
            <path d="M0,29.91L17.865,29.91L19.014,29.865L51.041,29.865L52.189,29.82L84.219,29.82L85.367,29.776L118.671,29.776L119.819,29.732L151.85,29.732L152.998,29.685L185.025,29.685L186.302,29.64L218.33,29.64L219.479,29.597L240.789,29.597L242.065,29.553L245.638,29.553L246.786,29.506L250.359,29.506L251.507,29.461L253.933,29.461L255.081,29.417L258.653,29.417L259.802,29.373L263.374,29.373L264.522,29.328L268.096,29.328L269.372,29.281L271.669,29.281L272.817,29.237L276.39,29.237L277.666,29.193L281.111,29.193L282.388,29.148L285.96,29.148L287.108,29.102L289.533,29.102L290.682,29.058L294.255,29.058L295.403,29.014L298.976,29.014L300.124,28.969L302.548,28.969L303.696,28.924L307.271,28.924L308.419,28.879L311.992,28.879L313.141,28.834L315.564,28.834L316.713,28.789L320.286,28.789L321.562,28.745L325.008,28.745L326.283,28.699L328.58,28.699L329.856,28.654L333.43,28.654L334.578,28.609L335.727,28.609L336.874,28.565L339.299,28.565L340.447,28.519L342.872,28.519L344.021,28.474L345.297,28.474L346.444,28.43L347.593,28.43L348.741,28.386L350.018,28.386L351.166,28.342L352.314,28.342L353.591,28.295L354.739,28.295L355.888,28.25L357.035,28.25L358.312,28.206L359.46,28.206L360.608,28.162L361.885,28.162L363.033,28.116L364.182,28.071L365.458,28.027L366.605,28.027L367.754,27.982L368.902,27.937L370.179,27.891L371.327,27.847L372.476,27.803L373.752,27.713L374.9,27.623L376.049,27.534L377.324,27.443L378.473,27.354L379.621,27.264L380.77,27.175L382.046,27.085L383.194,26.996L384.344,26.906L385.619,26.816L386.769,26.726L387.916,26.681L389.191,26.592L392.638,26.457L393.914,26.412L395.062,26.367L396.211,26.322L397.486,26.277L398.635,26.232L399.783,26.187L400.932,26.143L402.208,26.143L403.356,26.098L404.505,26.053L405.781,26.009L406.93,25.965L408.077,25.919L409.354,25.919L410.502,25.875L411.65,25.829L412.799,25.785L414.075,25.739L415.224,25.695L416.372,25.649L417.647,25.605L418.796,25.56L419.944,25.515L421.221,25.471L422.369,25.426L423.518,25.381L424.666,25.336L425.942,25.291L427.091,25.246L428.239,25.201L429.515,25.156L430.663,25.111L431.812,25.067L433.088,25.021L434.236,24.977L435.385,24.931L436.533,24.888L437.81,24.844L438.958,24.798L440.105,24.754L441.382,24.708L442.53,24.664L443.679,24.574L444.827,24.528L446.104,24.484L447.252,24.439L448.4,24.349L449.676,24.305L450.824,24.215L451.973,24.17L453.249,24.08L454.397,24.036L455.546,23.99L456.694,23.9L457.971,23.856L459.118,23.766L460.267,23.677L461.543,23.633L462.691,23.543L463.84,23.453L465.116,23.407L466.265,23.318L467.414,23.228L468.562,23.183L469.837,23.094L470.986,23.049L472.135,23.005L473.41,22.959L474.56,22.915L475.708,22.825L476.984,22.735L478.133,22.689L479.281,22.601L480.43,22.512L481.705,22.466L482.854,22.376L484.002,22.332L485.278,22.242L486.427,22.197L487.575,22.107L488.724,22.062L490,21.973L491.147,21.928L492.296,21.838L493.572,21.794L494.721,21.704L495.869,21.614L497.146,21.57L498.294,21.524L499.442,21.434L500.59,21.39L501.866,21.301L503.015,21.256L504.163,21.166L505.439,21.121L506.588,21.076L507.736,20.986L509.013,20.941L510.16,20.852L511.309,20.762L512.457,20.673L513.733,20.583L514.882,20.493L516.03,20.403L517.307,20.313L518.455,20.224L519.604,20.09L520.752,20L522.027,19.865L523.176,19.775L524.324,19.641L525.601,19.506L526.749,19.416L527.897,19.283L529.174,19.148L530.322,19.058L531.471,18.969L532.618,18.879L533.895,18.789L535.043,18.699L536.191,18.61L537.468,18.519L538.616,18.431L539.765,18.341L541.041,18.252L542.188,18.162L543.337,18.027L544.486,17.937L545.762,17.847L546.91,17.713L548.06,17.623L549.335,17.533L550.484,17.399L551.632,17.309L552.907,17.221L554.057,17.085L555.205,16.996L556.354,16.951L557.63,16.861L558.778,16.771L559.927,16.681L561.202,16.547L562.351,16.412L563.499,16.277L564.647,16.054L565.924,15.83L567.072,15.56L568.221,15.246L569.497,14.889L570.646,14.529L571.794,14.125L573.069,13.767L574.218,13.453L575.366,13.183L576.515,13.004L577.791,12.826L578.939,12.69L580.088,12.556L581.364,12.422L582.513,12.287L583.66,12.152L584.937,12.018L586.085,11.883L587.233,11.749L588.382,11.615L589.658,11.48L590.807,11.346L591.954,11.211L593.23,11.076L594.379,10.941L595.527,10.807L596.804,10.672L597.952,10.538L599.101,10.404L600.249,10.269L601.524,10.135L602.673,10L603.821,9.866L605.098,9.73L606.246,9.597L607.395,9.463L608.543,9.328L609.819,9.238L610.968,9.103L612.116,8.969L613.392,8.834L614.54,8.744L615.688,8.609L616.965,8.476L618.113,8.385L619.262,8.252L620.411,8.117L621.687,8.027L622.835,7.892L623.984,7.803L625.259,7.668L626.407,7.578L627.557,7.445L628.832,7.353L629.98,7.221L631.13,7.13L632.278,6.996L633.555,6.861L634.702,6.771L635.851,6.637L637.127,6.547L638.275,6.414L639.424,6.322L640.7,6.188L641.849,6.098L642.996,5.963L644.145,5.875L645.421,5.785L646.569,5.65L647.718,5.56L648.994,5.471L650.143,5.336L651.291,5.247L652.439,5.157L653.715,5.067L654.863,4.931L656.012,4.844L657.288,4.754L658.437,4.664L659.585,4.574L660.861,4.439L662.01,4.349L663.158,4.26L664.307,4.172L665.582,4.036L666.73,3.946L667.879,3.856L669.155,3.767L670.304,3.633L671.452,3.543L672.729,3.453L673.877,3.363L675.025,3.228L676.173,3.139L677.449,3.049L678.598,2.959L679.746,2.869L681.022,2.781L682.171,2.69L683.319,2.646L684.596,2.556L685.743,2.512L686.892,2.467L688.04,2.422L689.316,2.377L690.465,2.377L691.613,2.332L692.89,2.332L694.037,2.287L697.61,2.287L698.759,2.242L711.775,2.242L713.051,2.197L715.349,2.197L716.623,2.152L717.772,2.152L718.921,2.107L720.069,2.107L721.346,2.062L722.494,2.062L723.643,2.017L724.919,1.973L726.067,1.973L728.363,1.883L729.64,1.883L730.788,1.838L731.937,1.794L733.213,1.794L734.361,1.749L735.509,1.705L736.785,1.615L737.934,1.569L739.082,1.525L740.23,1.479L741.507,1.346L742.655,1.256L743.804,1.121L745.079,1.031L746.228,1.031L747.376,1.121L748.652,1.166L750.949,1.166L752.098,1.121L753.374,1.121L754.522,1.076L755.671,1.076L756.946,1.031L758.095,1.031L759.243,0.986L760.52,0.986L761.668,0.941L763.965,0.941L765.241,0.896L766.39,0.896L767.538,0.851L768.813,0.851L769.962,0.806L771.11,0.806L772.259,0.762L773.535,0.762L774.684,0.718L775.832,0.718L777.108,0.674L778.256,0.628L779.404,0.584L780.681,0.538L781.829,0.494L782.978,0.448L784.127,0.404L785.402,0.358L786.55,0.358L787.699,0.314L788.975,0.269L790.123,0.224L791.272,0.18L792.548,0.135L794.846,0.045L795.994,0" style="fill:none;fill-rule:nonzero;stroke:rgb(35,31,32);stroke-width:0.65px;"/>
        </g>
    </g>
</svg>
