<?xml version="1.0" encoding="UTF-8" standalone="no"?>
<!DOCTYPE svg PUBLIC "-//W3C//DTD SVG 1.1//EN" "http://www.w3.org/Graphics/SVG/1.1/DTD/svg11.dtd">
<svg width="100%" height="100%" viewBox="0 0 3823 1211" version="1.1" xmlns="http://www.w3.org/2000/svg" xmlns:xlink="http://www.w3.org/1999/xlink" xml:space="preserve" xmlns:serif="http://www.serif.com/" style="fill-rule:evenodd;clip-rule:evenodd;">
    <g transform="matrix(4.16667,0,0,4.16667,252.613,639.616)">
        <g id="depth-section" serif:id="depth section">
            <path d="M0,27.756L1.148,28.878L2.425,29.819L3.573,30.492L4.722,30.537L72.352,30.537L73.5,30.581L138.833,30.581L139.981,30.627L202.891,30.627L204.039,30.672L243.214,30.672L244.362,30.717L256.229,30.717L257.505,30.672L258.653,30.672L259.802,30.627L260.95,30.627L262.226,30.581L263.374,30.537L264.522,30.492L265.8,30.402L266.947,30.313L268.096,30.223L269.372,30.133L270.521,30.044L271.669,29.953L272.817,29.864L274.093,29.774L275.241,29.73L276.39,29.641L277.666,29.596L278.814,29.55L279.963,29.506L281.111,29.461L290.682,29.461L291.83,29.416L297.827,29.416L298.976,29.37L304.846,29.37L306.122,29.326L307.271,29.326L308.419,29.37L309.694,29.37L310.844,29.416L311.992,29.416L313.141,29.461L315.564,29.461L316.713,29.506L323.859,29.506L325.008,29.461L326.283,29.461L327.432,29.416L328.58,29.416L329.856,29.37L331.005,29.37L332.153,29.326L333.43,29.281L334.578,29.281L335.727,29.236L336.874,29.191L338.15,29.147L339.299,29.102L340.447,29.057L341.724,28.967L342.872,28.922L344.021,28.878L345.297,28.878L346.444,28.833L347.593,28.787L348.741,28.742L350.018,28.698L351.166,28.698L352.314,28.654L353.591,28.61L354.739,28.563L355.888,28.563L357.035,28.519L358.312,28.475L359.46,28.475L360.608,28.43L361.885,28.383L363.033,28.383L364.182,28.339L365.458,28.295L366.605,28.295L367.754,28.25L368.902,28.205L370.179,28.16L371.327,28.115L372.476,28.07L373.752,28.07L374.9,28.026L376.049,27.981L377.324,27.981L378.473,27.936L379.621,27.936L380.77,27.891L382.046,27.891L383.194,27.847L384.344,27.802L385.619,27.802L386.769,27.756L387.916,27.711L389.191,27.667L390.34,27.623L391.489,27.576L392.638,27.531L393.914,27.531L395.062,27.487L396.211,27.444L397.486,27.444L398.635,27.399L399.783,27.399L400.932,27.352L402.208,27.308L403.356,27.308L404.505,27.264L405.781,27.219L406.93,27.219L408.077,27.173L409.354,27.173L410.502,27.129L411.65,27.084L412.799,27.084L414.075,27.039L415.224,26.994L417.647,26.994L418.796,26.949L419.944,26.949L421.221,26.904L422.369,26.904L423.518,26.86L424.666,26.86L425.942,26.816L428.239,26.816L429.515,26.772L430.663,26.772L431.812,26.725L433.088,26.725L434.236,26.68L435.385,26.636L436.533,26.592L437.81,26.5L438.958,26.456L440.105,26.412L441.382,26.367L442.53,26.32L443.679,26.277L444.827,26.233L446.104,26.188L447.252,26.142L448.4,26.098L449.676,26.053L450.824,26.008L451.973,25.963L453.249,25.918L454.397,25.873L455.546,25.828L456.694,25.784L457.971,25.738L459.118,25.693L460.267,25.649L461.543,25.605L462.691,25.559L463.84,25.514L465.116,25.514L466.265,25.469L467.414,25.425L468.562,25.425L469.837,25.381L470.986,25.334L472.135,25.289L473.41,25.245L474.56,25.201L475.708,25.201L476.984,25.155L478.133,25.155L479.281,25.11L480.43,25.067L481.705,25.067L482.854,25.022L484.002,24.977L485.278,24.887L486.427,24.842L487.575,24.797L488.724,24.707L490,24.662L491.147,24.573L492.296,24.527L493.572,24.438L494.721,24.394L495.869,24.303L497.146,24.258L498.294,24.169L499.442,24.124L500.59,24.035L501.866,23.99L503.015,23.9L504.163,23.811L505.439,23.766L506.588,23.676L507.736,23.631L509.013,23.541L510.16,23.496L511.309,23.406L512.457,23.361L513.733,23.272L514.882,23.227L516.03,23.183L517.307,23.092L518.455,23.048L519.604,23.004L520.752,22.958L522.027,22.868L523.176,22.824L524.324,22.778L525.601,22.735L526.749,22.689L527.897,22.645L529.174,22.555L530.322,22.465L531.471,22.33L532.618,22.195L533.895,21.971L535.043,21.793L536.191,21.657L537.468,21.524L538.616,21.434L539.765,21.479L541.041,21.479L542.188,21.524L543.337,21.568L544.486,21.613L545.762,21.613L546.91,21.657L549.335,21.657L550.484,21.613L551.632,21.613L552.907,21.568L554.057,21.479L555.205,21.344L556.354,21.254L557.63,21.075L558.778,20.94L559.927,20.806L561.202,20.626L562.351,20.492L563.499,20.402L564.647,20.268L565.924,20.133L567.072,20.044L568.221,19.954L569.497,19.864L570.646,19.729L571.794,19.595L573.069,19.461L574.218,19.281L575.366,19.057L576.515,18.877L577.791,18.833L578.939,18.653L580.088,18.474L581.364,18.34L582.513,18.384L583.66,18.474L584.937,18.52L586.085,18.564L587.233,18.61L588.382,18.653L589.658,18.743L590.807,18.787L591.954,18.877L593.23,18.923L594.379,19.013L595.527,19.102L596.804,19.192L597.952,19.236L599.101,19.326L600.249,19.415L601.524,19.505L602.673,19.595L603.821,19.685L605.098,19.775L606.246,19.864L607.395,19.998L608.543,20.088L609.819,20.178L610.968,20.268L612.116,20.358L613.392,20.402L614.54,20.446L615.688,20.582L616.965,20.762L618.113,20.896L619.262,20.94L620.411,21.029L621.687,21.164L622.835,21.344L623.984,21.524L625.259,21.657L626.407,21.793L627.557,21.927L628.832,21.971L629.98,22.107L631.13,22.285L632.278,22.375L633.555,22.42L635.851,22.42L637.127,22.555L638.275,22.555L639.424,22.6L640.7,22.778L641.849,22.914L642.996,23.048L644.145,23.138L645.421,23.272L646.569,23.183L647.718,23.092L648.994,23.004L650.143,23.048L651.291,23.092L652.439,22.914L653.715,22.958L654.863,23.004L656.012,23.092L657.288,23.004L658.437,23.004L659.585,22.868L660.861,22.824L662.01,22.868L663.158,22.778L664.307,22.645L665.582,22.6L666.73,22.555L667.879,22.555L669.155,22.51L670.304,22.465L671.452,22.375L672.729,22.24L673.877,22.107L675.025,21.927L676.173,21.703L677.449,21.479L678.598,21.209L679.746,20.85L681.022,20.492L682.171,20.268L683.319,19.908L684.596,19.595L685.743,19.281L686.892,18.697L688.04,18.25L689.316,18.026L690.465,17.712L691.613,17.174L692.89,16.681L694.037,16.233L695.186,15.783L696.334,15.201L697.61,14.572L698.759,13.945L699.907,13.362L701.184,12.735L702.332,12.285L703.48,11.613L704.756,11.164L705.904,10.627L707.053,10.179L708.202,9.686L709.478,9.371L710.627,9.102L711.775,8.832L713.051,8.654L714.2,8.475L715.349,8.25L716.623,8.027L717.772,7.757L718.921,7.309L720.069,7.084L721.346,6.905L722.494,6.68L723.643,6.367L724.919,6.098L726.067,6.008L727.215,5.873L728.363,5.694L729.64,5.649L730.788,5.246L731.937,4.887L733.213,4.663L734.361,4.617L735.509,4.485L736.785,4.393L737.934,4.305L739.082,4.26L740.23,4.528L741.507,4.349L742.655,4.169L743.804,4.169L745.079,3.856L746.228,3.721L747.376,3.541L748.652,3.361L749.801,3.002L750.949,2.6L752.098,2.33L753.374,2.107L754.522,1.883L755.671,1.703L756.946,1.524L758.095,1.344L759.243,1.119L760.52,0.94L762.816,0.582L763.965,0.402L765.241,0.178L766.39,-0.002L767.538,-0.18L768.813,-0.359L769.962,-0.539L771.11,-0.719L772.259,-0.898L773.535,-1.078L774.684,-1.212L775.832,-1.391L777.108,-1.525L778.256,-1.66L779.404,-1.84L780.681,-1.974L781.829,-2.109L784.127,-2.377L785.402,-2.467L786.55,-2.602L787.699,-2.646L788.975,-2.691L790.123,-2.736L791.272,-2.781L792.548,-2.826L794.846,-2.916L795.994,-2.961" style="fill:none;fill-rule:nonzero;stroke:rgb(88,89,91);stroke-width:0.65px;"/>
        </g>
    </g>
</svg>
