<?xml version="1.0" encoding="UTF-8" standalone="no"?>
<!DOCTYPE svg PUBLIC "-//W3C//DTD SVG 1.1//EN" "http://www.w3.org/Graphics/SVG/1.1/DTD/svg11.dtd">
<svg width="100%" height="100%" viewBox="0 0 3823 1211" version="1.1" xmlns="http://www.w3.org/2000/svg" xmlns:xlink="http://www.w3.org/1999/xlink" xml:space="preserve" xmlns:serif="http://www.serif.com/" style="fill-rule:evenodd;clip-rule:evenodd;">
    <g transform="matrix(4.16667,0,0,4.16667,252.613,639.616)">
        <g id="depth-section" serif:id="depth section">
            <path d="M0,27.756L1.148,28.878L2.425,29.819L3.573,30.492L4.722,30.537L72.352,30.537L73.5,30.581L138.833,30.581L139.981,30.627L202.891,30.627L204.039,30.672L243.214,30.672L244.362,30.717L256.229,30.717L257.505,30.672L258.653,30.672L259.802,30.627L260.95,30.627L262.226,30.581L263.374,30.537L264.522,30.492L265.8,30.402L266.947,30.313L268.096,30.223L269.372,30.133L270.521,30.044L271.669,29.953L272.817,29.864L274.093,29.774L275.241,29.73L276.39,29.641L277.666,29.596L278.814,29.55L279.963,29.506L281.111,29.461L290.682,29.461L291.83,29.416L297.827,29.416L298.976,29.37L304.846,29.37L306.122,29.326L307.271,29.326L308.419,29.37L309.694,29.37L310.844,29.416L311.992,29.416L313.141,29.461L315.564,29.461L316.713,29.506L323.859,29.506L325.008,29.461L326.283,29.461L327.432,29.416L328.58,29.416L329.856,29.37L331.005,29.37L332.153,29.326L333.43,29.281L334.578,29.281L335.727,29.236L336.874,29.191L338.15,29.147L339.299,29.102L340.447,29.057L341.724,28.967L342.872,28.922L344.021,28.878L345.297,28.878L346.444,28.833L347.593,28.787L348.741,28.742L350.018,28.698L351.166,28.698L352.314,28.654L353.591,28.61L354.739,28.563L355.888,28.563L357.035,28.519L358.312,28.475L359.46,28.475L360.608,28.43L361.885,28.383L363.033,28.383L364.182,28.339L365.458,28.295L366.605,28.295L367.754,28.25L368.902,28.205L370.179,28.16L371.327,28.115L372.476,28.07L373.752,28.07L374.9,28.026L376.049,27.981L377.324,27.981L378.473,27.936L379.621,27.936L380.77,27.891L382.046,27.891L383.194,27.847L384.344,27.802L385.619,27.802L386.769,27.756L387.916,27.711L389.191,27.667L390.34,27.623L391.489,27.576L392.638,27.531L393.914,27.531L395.062,27.487L396.211,27.444L397.486,27.444L398.635,27.399L399.783,27.399L400.932,27.352L402.208,27.308L403.356,27.308L404.505,27.264L405.781,27.219L406.93,27.219L408.077,27.173L409.354,27.173L410.502,27.129L411.65,27.084L412.799,27.084L414.075,27.039L415.224,26.994L417.647,26.994L418.796,26.949L419.944,26.949L421.221,26.904L422.369,26.904L423.518,26.86L424.666,26.86L425.942,26.816L428.239,26.816L429.515,26.772L430.663,26.772L431.812,26.725L433.088,26.725L434.236,26.68L435.385,26.636L436.533,26.592L437.81,26.5L438.958,26.456L440.105,26.412L441.382,26.367L442.53,26.32L443.679,26.277L444.827,26.233L446.104,26.188L447.252,26.142L448.4,26.098L449.676,26.053L450.824,26.008L451.973,25.963L453.249,25.918L454.397,25.873L455.546,25.828L456.694,25.784L457.971,25.738L459.118,25.693L460.267,25.649L461.543,25.605L462.691,25.559L463.84,25.514L465.116,25.514L466.265,25.469L467.414,25.425L468.562,25.425L469.837,25.381L470.986,25.334L472.135,25.289L473.41,25.245L474.56,25.201L475.708,25.201L476.984,25.155L478.133,25.155L479.281,25.11L480.43,25.067L481.705,25.067L482.854,25.022L484.002,24.977L485.278,24.887L486.427,24.842L487.575,24.797L488.724,24.707L490,24.662L491.147,24.573L492.296,24.527L493.572,24.438L494.721,24.394L495.869,24.303L497.146,24.258L498.294,24.169L499.442,24.124L500.59,24.035L501.866,23.99L503.015,23.9L504.163,23.811L505.439,23.766L506.588,23.676L507.736,23.631L509.013,23.541L510.16,23.496L511.309,23.406L512.457,23.361L513.733,23.272L514.882,23.227L516.03,23.183L517.307,23.092L518.455,23.048L519.604,23.004L520.752,22.958L522.027,22.868L523.176,22.824L524.324,22.778L525.601,22.735L526.749,22.689L527.897,22.645L529.174,22.555L530.322,22.465L531.471,22.33L532.618,22.195L533.895,21.971L535.043,21.793L536.191,21.657L537.468,21.524L538.616,21.434L539.765,21.479L541.041,21.479L542.188,21.524L543.337,21.568L544.486,21.613L545.762,21.613L546.91,21.657L549.335,21.657L550.484,21.613L551.632,21.613L552.907,21.568L554.057,21.479L555.205,21.344L556.354,21.254L557.63,21.075L558.778,20.94L559.927,20.806L561.202,20.626L562.351,20.492L563.499,20.402L564.647,20.268L565.924,20.133L567.072,20.044L568.221,19.954L569.497,19.819L570.646,19.685L571.794,19.371L573.069,19.102L574.218,18.787L575.366,18.564L576.515,18.384L577.791,18.205L578.939,18.026L580.088,17.846L581.364,17.712L582.513,17.622L583.66,17.532L584.937,17.488L586.085,17.488L587.233,17.443L588.382,17.488L589.658,17.488L590.807,17.532L591.954,17.576L593.23,17.622L594.379,17.666L595.527,17.712L596.804,17.801L597.952,17.846L599.101,17.936L600.249,18.026L601.524,18.115L602.673,18.16L603.821,18.25L605.098,18.34L606.246,18.43L607.395,18.474L608.543,18.564L609.819,18.61L610.968,18.697L612.116,18.743L613.392,18.833L615.688,19.013L616.965,19.102L618.113,19.147L619.262,19.236L620.411,19.326L621.687,19.371L622.835,19.461L623.984,19.551L625.259,19.595L626.407,19.641L627.557,19.729L628.832,19.775L629.98,19.819L631.13,19.864L632.278,19.864L633.555,19.908L634.702,19.908L635.851,19.954L638.275,19.954L639.424,19.908L640.7,19.908L641.849,19.864L642.996,19.819L644.145,19.775L645.421,19.729L646.569,19.685L647.718,19.595L648.994,19.551L650.143,19.461L652.439,19.281L653.715,19.192L654.863,19.102L656.012,19.013L657.288,18.877L658.437,18.743L659.585,18.564L660.861,18.34L662.01,18.115L663.158,17.846L664.307,17.622L665.582,17.443L666.73,17.309L667.879,17.039L669.155,16.815L670.304,16.591L671.452,16.277L672.729,15.963L673.877,15.65L676.173,14.932L677.449,14.483L678.598,14.035L679.746,13.586L681.022,13.139L682.171,12.69L683.319,12.241L684.596,11.838L685.743,11.434L686.892,11.03L688.04,10.807L689.316,10.672L690.465,11.164L691.613,11.254L692.89,10.807L694.037,10.537L695.186,10.133L696.334,9.416L697.61,8.878L698.759,8.654L699.907,8.475L701.184,8.295L702.332,8.027L703.48,7.847L704.756,7.667L705.904,7.399L708.202,6.949L709.478,6.726L710.627,6.546L711.775,6.367L713.051,6.233L715.349,5.963L716.623,5.828L717.772,5.738L718.921,5.604L720.069,5.516L721.346,5.38L722.494,5.246L723.643,5.067L724.919,4.887L726.067,4.663L727.215,4.528L728.363,4.439L729.64,4.26L730.788,3.945L731.937,3.676L733.213,3.497L734.361,3.361L735.509,3.228L736.785,3.094L737.934,2.958L739.082,2.869L740.23,2.735L741.507,2.645L742.655,2.51L743.804,2.375L745.079,2.242L746.228,2.107L747.376,1.927L748.652,1.748L749.801,1.613L750.949,1.479L752.098,1.344L753.374,1.211L754.522,1.031L755.671,0.896L756.946,0.761L758.095,0.582L759.243,0.447L760.52,0.268L761.668,0.133L762.816,-0.046L763.965,-0.224L765.241,-0.359L766.39,-0.539L767.538,-0.674L768.813,-0.808L769.962,-0.943L771.11,-1.078L772.259,-1.167L773.535,-1.302L774.684,-1.435L775.832,-1.525L777.108,-1.66L778.256,-1.795L779.404,-1.885L780.681,-2.019L781.829,-2.109L784.127,-2.377L785.402,-2.467L786.55,-2.602L787.699,-2.646L788.975,-2.691L790.123,-2.736L791.272,-2.781L792.548,-2.826L794.846,-2.916L795.994,-2.961" style="fill:none;fill-rule:nonzero;stroke:rgb(88,89,91);stroke-width:0.65px;"/>
        </g>
    </g>
</svg>
