<?xml version="1.0" encoding="UTF-8" standalone="no"?>
<!DOCTYPE svg PUBLIC "-//W3C//DTD SVG 1.1//EN" "http://www.w3.org/Graphics/SVG/1.1/DTD/svg11.dtd">
<svg width="100%" height="100%" viewBox="0 0 3823 1211" version="1.1" xmlns="http://www.w3.org/2000/svg" xmlns:xlink="http://www.w3.org/1999/xlink" xml:space="preserve" xmlns:serif="http://www.serif.com/" style="fill-rule:evenodd;clip-rule:evenodd;">
    <g transform="matrix(4.16667,0,0,4.16667,252.613,668.758)">
        <g id="depth-section" serif:id="depth section">
            <path d="M0,20.717L1.148,21.884L2.425,22.825L3.573,23.543L4.722,24.125L5.998,24.709L7.146,25.113L8.295,25.516L9.443,25.875L10.719,26.278L11.867,26.637L13.016,26.951L14.292,27.265L15.439,27.624L16.588,27.893L17.865,28.206L19.014,28.476L20.162,28.699L21.31,28.969L22.586,29.194L23.734,29.417L24.883,29.641L26.158,29.821L27.307,29.821L28.455,29.865L65.206,29.865L66.48,29.91L103.231,29.91L104.38,29.955L139.981,29.955L141.131,30L178.008,30L179.156,30.045L214.758,30.045L215.905,30.09L240.789,30.09L242.065,30.135L245.638,30.135L246.786,30.18L251.507,30.18L252.655,30.225L256.229,30.225L257.505,30.269L260.95,30.269L262.226,30.315L265.8,30.315L266.947,30.359L270.521,30.359L271.669,30.405L275.241,30.405L276.39,30.448L279.963,30.448L281.111,30.494L284.685,30.494L285.96,30.538L288.257,30.538L289.533,30.584L292.978,30.584L294.255,30.628L297.827,30.628L298.976,30.672L301.4,30.672L302.548,30.538L303.696,30.315L304.846,30.18L306.122,30.09L307.271,30L308.419,30.135L309.694,30.269L310.844,30.359L311.992,30.494L313.141,30.538L314.416,30.584L315.564,30.494L316.713,30.359L317.989,30.135L319.138,29.955L320.286,29.865L321.562,29.731L322.711,29.641L325.008,29.641L326.283,29.686L327.432,29.776L328.58,29.821L329.856,29.821L331.005,29.776L332.153,29.731L333.43,29.731L334.578,29.686L335.727,29.641L336.874,29.597L338.15,29.551L339.299,29.507L340.447,29.463L341.724,29.417L342.872,29.373L344.021,29.373L345.297,29.327L346.444,29.283L347.593,29.238L348.741,29.194L350.018,29.148L351.166,29.104L352.314,29.104L353.591,29.059L354.739,29.014L355.888,28.969L357.035,28.924L358.312,28.924L360.608,28.834L361.885,28.789L363.033,28.789L364.182,28.744L365.458,28.699L366.605,28.699L367.754,28.655L368.902,28.655L370.179,28.61L371.327,28.566L372.476,28.52L373.752,28.476L374.9,28.43L376.049,28.386L377.324,28.386L378.473,28.342L379.621,28.342L380.77,28.296L382.046,28.252L383.194,28.252L384.344,28.206L385.619,28.162L386.769,28.162L387.916,28.116L389.191,28.116L390.34,28.072L392.638,28.072L393.914,28.116L395.062,28.072L396.211,28.027L397.486,27.983L398.635,27.938L399.783,27.848L400.932,27.758L402.208,27.713L403.356,27.624L404.505,27.534L405.781,27.445L406.93,27.355L408.077,27.265L409.354,27.175L410.502,27.041L411.65,26.951L412.799,26.862L414.075,26.772L415.224,26.637L416.372,26.547L417.647,26.457L418.796,26.367L419.944,26.234L421.221,26.144L422.369,26.054L423.518,25.964L424.666,25.875L425.942,25.785L427.091,25.696L428.239,25.651L429.515,25.561L430.663,25.471L431.812,25.382L433.088,25.292L434.236,25.202L435.385,25.113L436.533,25.023L437.81,24.933L438.958,24.844L440.105,24.754L441.382,24.664L442.53,24.574L443.679,24.44L444.827,24.305L446.104,24.17L447.252,24.035L448.4,23.902L449.676,23.813L450.824,23.678L451.973,23.543L453.249,23.453L454.397,23.319L455.546,23.229L456.694,23.139L457.971,23.05L459.118,22.959L460.267,22.87L461.543,22.78L462.691,22.736L463.84,22.647L465.116,22.647L466.265,22.602L468.562,22.602L469.837,22.556L470.986,22.512L472.135,22.467L473.41,22.422L474.56,22.422L475.708,22.376L476.984,22.332L478.133,22.287L479.281,22.287L480.43,22.242L481.705,22.196L482.854,22.153L484.002,22.108L485.278,22.063L486.427,22.019L487.575,21.928L488.724,21.839L490,21.748L491.147,21.615L492.296,21.525L493.572,21.389L494.721,21.256L495.869,21.121L497.146,21.031L498.294,20.897L499.442,20.762L500.59,20.629L501.866,20.537L503.015,20.405L504.163,20.314L505.439,20.225L506.588,20.135L507.736,20.09L509.013,20.045L510.16,20L511.309,20L512.457,19.955L513.733,19.91L514.882,19.91L516.03,19.865L517.307,19.865L518.455,19.821L519.604,19.821L520.752,19.778L523.176,19.778L524.324,19.731L526.749,19.731L527.897,19.686L530.322,19.686L531.471,19.642L532.618,19.598L533.895,19.551L535.043,19.506L536.191,19.462L537.468,19.418L538.616,19.373L539.765,19.326L541.041,19.282L542.188,19.282L544.486,19.194L545.762,19.148L546.91,19.104L548.06,19.014L549.335,18.879L550.484,18.744L551.632,18.565L552.907,18.387L554.057,18.161L555.205,17.937L556.354,17.668L557.63,17.4L558.778,17.175L559.927,16.951L561.202,16.772L562.351,16.637L563.499,16.547L564.647,16.502L565.924,16.457L568.221,16.457L569.497,16.412L570.646,15.964L571.794,15.561L573.069,15.156L574.218,14.843L575.366,14.977L576.515,15.067L577.791,15.113L578.939,15.201L580.088,15.246L581.364,15.336L582.513,15.471L583.66,15.561L584.937,15.695L586.085,15.784L587.233,15.874L588.382,16.233L590.807,16.233L591.954,16.367L593.23,16.457L594.379,16.637L595.527,16.592L597.952,16.592L599.101,16.637L600.249,16.951L603.821,16.951L605.098,16.996L606.246,17.22L607.395,17.264L608.543,17.264L609.819,17.983L610.968,17.983L612.116,18.116L613.392,18.207L614.54,18.295L615.688,17.713L616.965,17.803L618.113,17.983L619.262,18.116L620.411,18.116L621.687,18.295L622.835,18.52L623.984,19.059L625.259,19.282L626.407,19.104L627.557,19.418L628.832,19.462L629.98,19.506L631.13,19.686L632.278,19.821L633.555,19.955L634.702,19.91L635.851,19.955L637.127,20.09L638.275,20.225L639.424,20.358L640.7,20.673L641.849,20.853L642.996,21.121L644.145,21.166L645.421,21.389L646.569,21.569L647.718,21.748L648.994,21.884L650.143,21.973L652.439,22.153L653.715,22.196L654.863,22.287L656.012,22.376L657.288,22.422L658.437,22.512L659.585,22.602L660.861,22.602L662.01,22.556L664.307,22.556L665.582,22.467L666.73,22.736L667.879,23.094L669.155,23.139L670.304,23.139L671.452,23.094L672.729,23.094L673.877,23.05L675.025,22.959L676.173,22.87L677.449,22.736L678.598,22.512L679.746,22.242L681.022,21.928L682.171,21.66L683.319,21.481L684.596,21.301L685.743,21.076L686.892,20.853L688.04,20.582L689.316,20.762L690.465,20.762L691.613,20.673L692.89,20.629L694.037,20.405L695.186,20.225L696.334,19.955L697.61,19.642L698.759,19.326L699.907,18.879L701.184,18.744L702.332,18.611L703.48,18.34L704.756,18.072L705.904,17.579L707.053,17.041L708.202,16.547L709.478,16.098L710.627,15.83L711.775,15.561L713.051,15.336L714.2,15.113L715.349,14.619L716.623,14.35L717.772,14.125L718.921,13.856L720.069,13.588L721.346,13.363L722.494,13.05L723.643,12.735L724.919,12.421L726.067,12.153L727.215,11.929L728.363,11.659L729.64,11.39L730.788,10.942L731.937,10.494L733.213,10.135L734.361,9.865L735.509,9.597L736.785,9.328L737.934,9.059L739.082,8.655L740.23,8.162L741.507,7.803L742.655,7.488L743.804,7.13L745.079,6.682L746.228,6.01L747.376,5.203L748.652,4.53L749.801,3.723L750.949,3.005L752.098,2.377L753.374,1.794L754.522,1.211L755.671,0.629L756.946,0.045L758.095,-0.537L759.243,-1.121L760.52,-1.658L761.668,-2.242L762.816,-2.781L763.965,-3.318L765.241,-3.812L766.39,-4.349L767.538,-4.752L768.813,-5.111L769.962,-5.426L771.11,-5.783L772.259,-6.098L773.535,-6.412L774.684,-6.637L775.832,-6.816L777.108,-6.996L778.256,-7.219L779.404,-7.398L780.681,-7.578L781.829,-7.758L782.978,-7.937L784.127,-8.161L785.402,-8.34L786.55,-8.519L787.699,-8.699L788.975,-8.879L790.123,-9.058L791.272,-9.237L792.548,-9.417L794.846,-9.775L795.994,-9.955" style="fill:none;fill-rule:nonzero;stroke:rgb(88,89,91);stroke-width:0.65px;"/>
        </g>
    </g>
</svg>
