<?xml version="1.0" encoding="UTF-8" standalone="no"?>
<!DOCTYPE svg PUBLIC "-//W3C//DTD SVG 1.1//EN" "http://www.w3.org/Graphics/SVG/1.1/DTD/svg11.dtd">
<svg width="100%" height="100%" viewBox="0 0 3823 1211" version="1.1" xmlns="http://www.w3.org/2000/svg" xmlns:xlink="http://www.w3.org/1999/xlink" xml:space="preserve" xmlns:serif="http://www.serif.com/" style="fill-rule:evenodd;clip-rule:evenodd;">
    <g transform="matrix(4.16667,0,0,4.16667,252.613,660.167)">
        <g id="depth-section" serif:id="depth section">
            <path d="M0,22.779L1.148,23.946L2.425,24.887L3.573,25.605L4.722,26.187L5.998,26.771L7.146,27.175L8.295,27.578L9.443,27.937L10.719,28.34L11.867,28.699L13.016,29.013L14.292,29.327L15.439,29.686L16.588,29.82L17.865,29.91L19.014,29.955L28.455,29.955L29.604,30L72.352,30L73.5,30.045L115.099,30.045L116.247,30.089L157.847,30.089L158.994,30.134L200.465,30.134L201.742,30.178L239.641,30.178L240.789,30.224L242.065,30.224L243.214,30.268L244.362,30.268L245.638,30.314L246.786,30.314L247.935,30.358L249.083,30.358L250.359,30.404L252.655,30.404L253.933,30.448L255.081,30.448L256.229,30.492L257.505,30.492L258.653,30.538L260.95,30.538L262.226,30.582L264.522,30.582L265.8,30.628L268.096,30.628L269.372,30.672L274.093,30.672L275.241,30.628L276.39,30.628L277.666,30.582L279.963,30.582L281.111,30.538L284.685,30.538L285.96,30.492L289.533,30.492L290.682,30.448L294.255,30.448L295.403,30.404L298.976,30.404L300.124,30.358L303.696,30.358L304.846,30.314L307.271,30.314L308.419,30.268L311.992,30.268L313.141,30.224L315.564,30.224L316.713,30.178L319.138,30.178L320.286,30.134L322.711,30.134L323.859,30.089L325.008,30.089L326.283,30.045L328.58,30.045L329.856,30L331.005,30L332.153,29.955L333.43,29.955L334.578,29.91L335.727,29.865L336.874,29.865L338.15,29.82L339.299,29.775L340.447,29.73L341.724,29.686L342.872,29.64L344.021,29.596L345.297,29.55L346.444,29.507L347.593,29.461L348.741,29.417L350.018,29.371L352.314,29.283L353.591,29.193L354.739,29.147L355.888,29.103L357.035,29.057L358.312,29.013L359.46,28.924L360.608,28.879L361.885,28.834L363.033,28.789L364.182,28.744L365.458,28.654L366.605,28.609L367.754,28.565L368.902,28.519L370.179,28.475L371.327,28.429L372.476,28.385L373.752,28.34L374.9,28.34L376.049,28.296L377.324,28.296L378.473,28.25L379.621,28.206L380.77,28.162L382.046,28.116L383.194,28.072L384.344,27.982L385.619,27.937L386.769,27.847L387.916,27.758L389.191,27.668L390.34,27.578L391.489,27.444L392.638,27.354L393.914,27.218L395.062,27.129L396.211,26.995L397.486,26.906L398.635,26.816L399.783,26.726L400.932,26.681L402.208,26.636L403.356,26.592L404.505,26.547L405.781,26.502L406.93,26.457L408.077,26.412L409.354,26.367L410.502,26.323L411.65,26.277L412.799,26.187L414.075,26.143L415.224,26.053L416.372,26.008L417.647,25.964L418.796,25.875L419.944,25.829L421.221,25.74L422.369,25.695L423.518,25.605L424.666,25.56L425.942,25.47L427.091,25.425L428.239,25.336L429.515,25.246L430.663,25.156L431.812,25.112L433.088,25.021L434.236,24.932L435.385,24.842L436.533,24.754L437.81,24.664L438.958,24.529L440.105,24.438L441.382,24.349L442.53,24.258L443.679,24.17L444.827,24.035L446.104,23.946L447.252,23.855L448.4,23.722L449.676,23.631L450.824,23.498L451.973,23.407L453.249,23.273L454.397,23.183L455.546,23.049L456.694,22.959L457.971,22.824L459.118,22.735L460.267,22.644L461.543,22.599L462.691,22.555L463.84,22.511L465.116,22.467L466.265,22.467L467.414,22.42L469.837,22.42L472.135,22.332L474.56,22.332L475.708,22.287L480.43,22.287L481.705,22.241L484.002,22.241L485.278,22.197L486.427,22.197L487.575,22.152L488.724,22.107L490,22.062L491.147,22.017L492.296,21.972L493.572,21.883L494.721,21.748L495.869,21.613L497.146,21.48L498.294,21.3L499.442,21.21L500.59,21.076L501.866,20.986L503.015,20.896L504.163,20.852L505.439,20.806L506.588,20.806L507.736,20.761L511.309,20.761L512.457,20.716L516.03,20.716L517.307,20.673L518.455,20.673L519.604,20.627L520.752,20.627L522.027,20.582L523.176,20.537L524.324,20.449L525.601,20.357L526.749,20.269L527.897,20.178L529.174,20.09L530.322,20.045L531.471,19.999L532.618,19.91L533.895,19.865L537.468,19.865L538.616,19.91L539.765,19.955L541.041,19.999L542.188,20.045L543.337,20.09L544.486,20.134L545.762,20.134L546.91,20.178L548.06,20.178L549.335,20.134L550.484,20.134L551.632,19.91L552.907,19.685L554.057,19.326L555.205,18.967L556.354,18.609L557.63,18.206L558.778,17.846L559.927,17.578L561.202,17.398L562.351,17.308L563.499,17.263L564.647,17.175L565.924,17.039L567.072,16.951L568.221,16.861L569.497,16.457L570.646,16.097L571.794,15.784L573.069,15.425L574.218,15.246L575.366,15.201L576.515,15.156L577.791,15.201L580.088,15.201L581.364,15.246L582.513,15.514L583.66,15.381L584.937,15.65L587.233,15.83L588.382,15.918L589.658,16.053L590.807,16.143L591.954,16.232L593.23,16.322L594.379,16.367L595.527,16.412L596.804,16.502L599.101,16.502L600.249,16.905L601.524,16.995L602.673,17.039L603.821,17.085L605.098,17.129L606.246,17.308L607.395,17.308L608.543,17.263L609.819,17.668L610.968,17.936L612.116,17.846L613.392,17.936L615.688,18.116L616.965,18.206L618.113,18.295L619.262,18.384L620.411,18.474L621.687,18.609L622.835,18.744L623.984,18.924L625.259,19.103L626.407,19.282L627.557,19.416L628.832,19.506L629.98,19.641L631.13,19.82L632.278,19.955L633.555,20.09L635.851,20.09L637.127,20.269L638.275,20.493L639.424,20.673L640.7,20.806L641.849,21.076L642.996,21.793L644.145,21.568L645.421,21.748L646.569,21.883L647.718,22.017L648.994,22.062L650.143,22.107L652.439,22.197L653.715,22.197L654.863,22.241L656.012,22.241L657.288,22.287L658.437,22.287L659.585,22.241L660.861,22.197L662.01,22.062L663.158,21.972L664.307,21.883L665.582,21.793L666.73,21.793L667.879,21.748L669.155,21.704L670.304,21.66L671.452,21.524L672.729,21.344L673.877,21.166L676.173,20.806L677.449,20.627L678.598,20.402L679.746,20.178L681.022,19.82L682.171,19.462L683.319,19.192L684.596,18.879L685.743,18.519L686.892,18.206L688.04,17.936L689.316,17.846L690.465,17.713L691.613,17.533L692.89,17.218L694.037,16.905L695.186,16.547L696.334,16.232L697.61,15.604L698.759,14.797L699.907,14.125L701.184,13.811L702.332,13.498L703.48,13.138L704.756,12.824L705.904,12.556L707.053,12.107L708.202,11.927L709.478,11.569L710.627,11.39L711.775,11.345L713.051,11.031L714.2,10.851L715.349,10.672L716.623,10.492L717.772,10.314L718.921,10.134L720.069,9.955L721.346,9.82L722.494,9.64L723.643,9.461L724.919,9.148L726.067,8.924L727.215,8.699L728.363,8.43L729.64,8.117L730.788,7.802L731.937,7.488L733.213,7.175L734.361,6.861L735.509,6.636L736.785,6.368L737.934,6.098L739.082,5.785L740.23,5.515L741.507,5.201L742.655,4.843L743.804,4.529L745.079,4.17L746.228,3.856L747.376,3.498L748.652,3.183L749.801,2.869L750.949,2.645L752.098,2.152L753.374,1.883L754.522,1.479L755.671,1.121L756.946,0.717L758.095,0.314L759.243,-0.09L760.52,-0.493L762.816,-1.301L763.965,-1.658L765.241,-2.018L766.39,-2.377L767.538,-2.69L768.813,-3.049L769.962,-3.364L771.11,-3.721L772.259,-4.036L773.535,-4.35L774.684,-4.575L775.832,-4.754L777.108,-4.934L778.256,-5.157L779.404,-5.336L780.681,-5.516L781.829,-5.696L782.978,-5.875L784.127,-6.099L785.402,-6.278L786.55,-6.457L787.699,-6.637L788.975,-6.817L790.123,-6.996L791.272,-7.175L792.548,-7.355L794.846,-7.713L795.994,-7.893" style="fill:none;fill-rule:nonzero;stroke:rgb(88,89,91);stroke-width:0.65px;"/>
        </g>
    </g>
</svg>
