<?xml version="1.0" encoding="UTF-8" standalone="no"?>
<!DOCTYPE svg PUBLIC "-//W3C//DTD SVG 1.1//EN" "http://www.w3.org/Graphics/SVG/1.1/DTD/svg11.dtd">
<svg width="100%" height="100%" viewBox="0 0 3823 1211" version="1.1" xmlns="http://www.w3.org/2000/svg" xmlns:xlink="http://www.w3.org/1999/xlink" xml:space="preserve" xmlns:serif="http://www.serif.com/" style="fill-rule:evenodd;clip-rule:evenodd;">
    <g transform="matrix(4.16667,0,0,4.16667,252.613,683.521)">
        <g id="depth-section" serif:id="depth section">
            <path d="M0,17.174L1.148,18.341L2.425,19.282L3.573,20L4.722,20.582L5.998,21.166L7.146,21.57L8.295,21.973L9.443,22.332L10.719,22.735L11.867,23.094L13.016,23.408L14.292,23.722L15.439,24.081L16.588,24.35L17.865,24.663L19.014,24.933L20.162,25.156L21.31,25.426L22.586,25.651L23.734,25.874L24.883,26.098L26.158,26.278L27.307,26.457L28.455,26.637L29.604,26.816L30.88,26.951L32.028,27.085L33.177,27.219L34.453,27.354L35.602,27.444L36.75,27.533L38.025,27.668L39.174,27.713L40.322,27.803L41.471,27.893L42.747,27.937L43.896,27.983L45.044,28.027L46.32,28.072L47.469,28.116L48.617,28.161L49.893,28.205L52.189,28.295L53.338,28.295L54.614,28.34L55.763,28.385L56.91,28.43L58.188,28.475L59.336,28.475L60.485,28.52L61.76,28.565L62.908,28.61L64.058,28.654L65.206,28.654L66.48,28.699L68.778,28.789L70.056,28.834L71.204,28.834L73.5,28.924L74.776,28.968L75.925,28.968L77.073,29.014L78.349,29.058L79.497,29.103L80.646,29.103L81.922,29.148L83.07,29.193L84.219,29.237L85.367,29.282L226.624,29.282L227.773,29.237L244.362,29.237L245.638,29.193L246.786,29.237L249.083,29.237L250.359,29.326L251.507,29.371L252.655,29.461L253.933,29.596L255.081,29.731L256.229,29.82L257.505,29.91L258.653,29.91L259.802,29.955L260.95,29.955L262.226,30L264.522,30L265.8,30.045L269.372,30.045L270.521,30.089L276.39,30.089L277.666,30.134L285.96,30.134L287.108,30.089L288.257,30.045L289.533,29.955L290.682,29.91L291.83,29.865L292.978,29.776L294.255,29.731L295.403,29.686L296.552,29.641L297.827,29.596L298.976,29.551L300.124,29.506L301.4,29.461L302.548,29.416L303.696,29.416L304.846,29.371L310.844,29.371L311.992,29.461L313.141,29.596L314.416,29.776L315.564,30.045L316.713,30.314L317.989,30.492L319.138,30.627L320.286,30.672L322.711,30.672L323.859,30.582L325.008,30.537L326.283,30.492L327.432,30.447L328.58,30.403L329.856,30.403L331.005,30.358L332.153,30.314L333.43,30.314L334.578,30.268L335.727,30.224L336.874,30.179L338.15,30.134L339.299,30.089L340.447,30.089L341.724,30.045L342.872,30.045L344.021,30L354.739,30L355.888,30.045L357.035,29.955L358.312,29.865L359.46,29.82L360.608,29.731L361.885,29.641L363.033,29.596L364.182,29.506L365.458,29.461L366.605,29.371L367.754,29.326L368.902,29.237L370.179,29.193L371.327,29.148L372.476,29.103L373.752,29.058L384.344,29.058L385.619,29.014L386.769,29.058L393.914,29.058L395.062,29.014L396.211,28.968L397.486,28.968L398.635,28.924L399.783,28.924L400.932,28.879L402.208,28.879L403.356,28.834L404.505,28.834L405.781,28.789L406.93,28.744L408.077,28.654L409.354,28.475L410.502,28.295L411.65,27.983L412.799,27.488L414.075,27.041L415.224,26.772L416.372,26.637L417.647,26.547L418.796,26.412L419.944,26.322L421.221,26.188L422.369,26.098L423.518,25.964L424.666,25.83L425.942,25.651L427.091,25.516L428.239,25.381L429.515,25.201L430.663,25.067L431.812,24.843L433.088,24.663L434.236,24.484L435.385,24.305L436.533,24.125L437.81,23.991L438.958,23.812L440.105,23.722L441.382,23.588L442.53,23.452L443.679,23.362L444.827,23.229L446.104,23.139L447.252,23.049L448.4,22.96L449.676,22.87L450.824,22.78L451.973,22.735L453.249,22.645L455.546,22.645L456.694,22.691L457.971,22.735L459.118,22.78L460.267,22.824L461.543,22.87L462.691,22.914L463.84,23.004L465.116,23.049L466.265,23.139L467.414,23.184L468.562,23.274L469.837,23.319L470.986,23.362L472.135,23.408L473.41,23.408L474.56,23.498L475.708,23.542L476.984,23.588L478.133,23.678L479.281,23.722L480.43,23.766L481.705,23.812L482.854,23.856L486.427,23.856L487.575,23.766L488.724,23.678L490,23.588L491.147,23.498L492.296,23.362L493.572,23.229L494.721,23.094L495.869,22.96L497.146,22.78L498.294,22.645L499.442,22.421L500.59,22.242L501.866,22.018L503.015,21.793L504.163,21.613L505.439,21.346L506.588,21.121L507.736,20.852L509.013,20.627L510.16,20.359L511.309,20.135L512.457,19.865L513.733,19.641L514.882,19.416L516.03,19.193L517.307,19.013L518.455,18.833L519.604,18.699L520.752,18.565L522.027,18.52L523.176,18.476L524.324,18.43L525.601,18.385L526.749,18.341L527.897,18.296L529.174,18.25L530.322,18.205L531.471,18.117L532.618,18.026L533.895,17.938L535.043,17.846L536.191,17.802L537.468,17.713L538.616,17.623L539.765,17.578L541.041,17.488L542.188,17.444L543.337,17.354L544.486,17.265L545.762,17.13L546.91,16.95L548.06,16.727L549.335,16.502L550.484,16.278L551.632,16.008L552.907,15.783L554.057,15.516L555.205,15.291L556.354,15.068L557.63,14.888L558.778,14.708L559.927,14.529L561.202,14.394L562.351,14.26L563.499,14.17L564.647,14.125L565.924,14.036L567.072,14.036L568.221,13.99L569.497,13.99L570.646,13.945L571.794,13.857L573.069,13.677L574.218,13.408L575.366,13.004L576.515,13.139L577.791,13.229L578.939,13.229L580.088,13.319L582.513,13.319L583.66,13.677L584.937,13.721L586.085,13.811L587.233,13.766L588.382,14.305L589.658,14.394L590.807,14.394L591.954,14.485L593.23,14.573L594.379,14.844L595.527,14.708L596.804,14.573L597.952,14.752L599.101,14.932L600.249,15.247L601.524,15.111L602.673,15.156L603.821,15.156L605.098,15.291L606.246,15.516L608.543,15.516L609.819,16.636L610.968,16.727L612.116,16.682L613.392,16.862L614.54,17.219L615.688,16.457L616.965,16.682L618.113,17.13L619.262,17.219L620.411,17.399L621.687,17.758L622.835,17.938L623.984,18.43L625.259,18.924L626.407,18.653L627.557,18.969L628.832,19.104L629.98,19.104L631.13,19.282L632.278,19.461L633.555,19.596L634.702,19.641L635.851,19.372L637.127,19.596L638.275,19.955L639.424,20L640.7,20.403L641.849,20.718L642.996,21.031L644.145,21.39L645.421,21.793L646.569,21.839L647.718,21.883L648.994,22.018L650.143,22.108L651.291,22.242L652.439,22.332L653.715,22.421L654.863,22.557L656.012,22.601L657.288,22.645L658.437,22.735L659.585,22.78L660.861,22.87L662.01,22.914L663.158,22.645L664.307,22.557L665.582,22.557L666.73,22.645L667.879,22.914L669.155,22.87L670.304,22.824L671.452,22.824L672.729,22.78L673.877,22.735L675.025,22.645L676.173,22.467L677.449,22.287L678.598,22.108L679.746,21.793L681.022,21.48L682.171,21.211L683.319,21.031L684.596,20.807L685.743,20.492L686.892,20.135L688.04,19.776L689.316,20.044L690.465,19.955L691.613,19.91L692.89,19.82L694.037,19.776L695.186,19.731L696.334,19.507L697.61,19.149L698.759,18.833L699.907,18.565L701.184,18.385L702.332,18.205L703.48,17.982L704.756,17.623L705.904,17.174L707.053,16.771L708.202,16.457L709.478,16.188L710.627,15.963L711.775,15.739L713.051,15.471L714.2,15.201L715.349,14.977L716.623,14.708L717.772,14.44L718.921,14.215L720.069,13.945L721.346,13.677L722.494,13.362L723.643,13.004L724.919,12.824L726.067,12.735L727.215,12.601L728.363,12.241L729.64,11.793L730.788,11.076L731.937,10.403L733.213,9.686L734.361,9.014L735.509,8.789L736.785,8.072L737.934,7.444L739.082,6.995L740.23,6.547L741.507,5.695L742.655,5.291L743.804,4.26L745.079,3.139L746.228,2.467L747.376,1.66L748.652,0.987L749.801,0.18L750.949,-0.538L752.098,-1.166L753.374,-1.749L754.522,-2.332L755.671,-2.914L756.946,-3.498L758.095,-4.08L759.243,-4.664L760.52,-5.201L761.668,-5.785L762.816,-6.324L763.965,-6.861L765.241,-7.355L766.39,-7.892L767.538,-8.295L768.813,-8.654L769.962,-8.969L771.11,-9.326L772.259,-9.641L773.535,-9.955L774.684,-10.18L775.832,-10.359L777.108,-10.539L778.256,-10.762L779.404,-10.941L780.681,-11.121L781.829,-11.301L782.978,-11.48L784.127,-11.704L785.402,-11.883L786.55,-12.062L787.699,-12.242L788.975,-12.422L790.123,-12.601L791.272,-12.78L792.548,-12.96L794.846,-13.318L795.994,-13.498" style="fill:none;fill-rule:nonzero;stroke:rgb(88,89,91);stroke-width:0.65px;"/>
        </g>
    </g>
</svg>
