<?xml version="1.0" encoding="UTF-8" standalone="no"?>
<!DOCTYPE svg PUBLIC "-//W3C//DTD SVG 1.1//EN" "http://www.w3.org/Graphics/SVG/1.1/DTD/svg11.dtd">
<svg width="100%" height="100%" viewBox="0 0 3823 1211" version="1.1" xmlns="http://www.w3.org/2000/svg" xmlns:xlink="http://www.w3.org/1999/xlink" xml:space="preserve" xmlns:serif="http://www.serif.com/" style="fill-rule:evenodd;clip-rule:evenodd;">
    <g transform="matrix(4.16667,0,0,4.16667,252.613,636.055)">
        <g id="depth-section" serif:id="depth section">
            <path d="M0,28.478L1.148,29.642L2.425,30.451L35.602,30.451L36.75,30.496L111.526,30.496L112.675,30.541L185.025,30.541L186.302,30.584L247.935,30.584L249.083,30.541L253.933,30.541L255.081,30.496L257.505,30.496L258.653,30.451L259.802,30.451L260.95,30.405L262.226,30.405L263.374,30.361L264.522,30.316L265.8,30.271L266.947,30.225L268.096,30.181L269.372,30.136L270.521,30.091L271.669,30.045L272.817,30.001L274.093,29.957L275.241,29.912L276.39,29.868L277.666,29.822L278.814,29.777L279.963,29.733L281.111,29.733L282.388,29.688L283.536,29.642L284.685,29.642L285.96,29.597L287.108,29.553L288.257,29.509L289.533,29.509L290.682,29.464L291.83,29.417L292.978,29.374L294.255,29.33L295.403,29.33L296.552,29.285L297.827,29.238L298.976,29.194L300.124,29.15L301.4,29.15L303.696,29.06L304.846,29.015L306.122,28.97L307.271,28.925L308.419,28.88L309.694,28.835L310.844,28.79L311.992,28.746L313.141,28.746L314.416,28.702L315.564,28.657L316.713,28.611L317.989,28.611L319.138,28.566L320.286,28.522L321.562,28.522L322.711,28.478L323.859,28.431L325.008,28.386L326.283,28.386L327.432,28.342L328.58,28.298L329.856,28.298L331.005,28.253L332.153,28.207L333.43,28.207L334.578,28.163L335.727,28.119L336.874,28.119L338.15,28.074L339.299,28.028L340.447,28.028L341.724,27.984L342.872,27.984L344.021,27.939L345.297,27.894L346.444,27.894L347.593,27.849L348.741,27.849L350.018,27.804L351.166,27.759L352.314,27.759L353.591,27.714L354.739,27.714L355.888,27.67L357.035,27.626L358.312,27.626L359.46,27.58L360.608,27.535L361.885,27.491L363.033,27.447L364.182,27.4L365.458,27.355L366.605,27.311L367.754,27.267L368.902,27.222L370.179,27.175L371.327,27.087L372.476,27.042L373.752,26.997L374.9,26.908L376.049,26.863L377.324,26.818L378.473,26.773L379.621,26.728L380.77,26.683L382.046,26.639L383.194,26.593L384.344,26.593L385.619,26.548L386.769,26.503L387.916,26.459L389.191,26.414L391.489,26.324L392.638,26.28L393.914,26.28L395.062,26.236L397.486,26.236L398.635,26.189L399.783,26.189L400.932,26.144L402.208,26.144L403.356,26.1L404.505,26.056L405.781,26.056L406.93,26.01L408.077,25.965L409.354,25.876L410.502,25.832L411.65,25.786L412.799,25.697L414.075,25.652L415.224,25.562L416.372,25.517L417.647,25.472L418.796,25.428L419.944,25.337L421.221,25.292L422.369,25.249L423.518,25.203L424.666,25.158L425.942,25.069L427.091,25.024L428.239,24.979L429.515,24.934L430.663,24.89L431.812,24.845L433.088,24.8L434.236,24.754L435.385,24.71L436.533,24.665L437.81,24.665L438.958,24.621L440.105,24.576L441.382,24.576L442.53,24.531L443.679,24.486L444.827,24.486L446.104,24.441L447.252,24.396L448.4,24.396L449.676,24.351L450.824,24.306L451.973,24.306L453.249,24.261L454.397,24.216L455.546,24.171L456.694,24.126L457.971,24.082L459.118,24.038L460.267,23.993L461.543,23.947L462.691,23.903L463.84,23.859L465.116,23.813L466.265,23.769L467.414,23.723L468.562,23.679L469.837,23.633L470.986,23.589L472.135,23.543L473.41,23.499L474.56,23.455L475.708,23.41L476.984,23.365L478.133,23.32L479.281,23.32L480.43,23.275L481.705,23.23L482.854,23.185L484.002,23.14L485.278,23.095L486.427,23.05L487.575,23.005L488.724,22.961L490,22.872L491.147,22.826L492.296,22.738L493.572,22.648L494.721,22.558L495.869,22.512L497.146,22.422L498.294,22.378L499.442,22.333L500.59,22.244L501.866,22.199L503.015,22.154L504.163,22.064L505.439,22.019L506.588,21.93L507.736,21.884L509.013,21.794L510.16,21.75L511.309,21.661L512.457,21.571L513.733,21.527L514.882,21.437L516.03,21.347L517.307,21.301L518.455,21.212L519.604,21.123L520.752,21.078L522.027,20.988L523.176,20.899L524.324,20.809L525.601,20.763L527.897,20.583L529.174,20.45L530.322,20.27L531.471,20.091L532.618,20.001L533.895,19.957L535.043,19.912L536.191,19.868L537.468,19.822L538.616,19.778L539.765,19.732L541.041,19.688L542.188,19.642L543.337,19.598L544.486,19.552L545.762,19.464L546.91,19.418L548.06,19.329L549.335,19.239L550.484,19.105L551.632,19.015L552.907,18.88L554.057,18.747L555.205,18.656L556.354,18.521L557.63,18.387L558.778,18.253L559.927,18.164L561.202,18.164L562.351,18.207L563.499,18.207L564.647,18.029L565.924,17.849L567.072,17.58L568.221,17.356L569.497,17.177L570.646,16.998L571.794,16.773L573.069,16.458L574.218,16.146L575.366,15.832L576.515,15.382L577.791,15.159L578.939,14.935L580.088,14.71L581.364,14.71L582.513,14.486L583.66,14.127L584.937,13.769L587.233,13.679L588.382,13.634L589.658,13.589L590.807,13.589L591.954,13.544L593.23,13.499L594.379,13.455L596.804,13.455L597.952,13.41L603.821,13.41L605.098,13.365L607.395,13.365L608.543,13.32L615.688,13.32L616.965,13.365L618.113,13.365L620.411,13.455L621.687,13.499L623.984,13.499L625.259,13.455L626.407,13.455L627.557,13.41L628.832,13.365L629.98,13.32L631.13,13.32L632.278,13.275L633.555,13.23L634.702,13.14L635.851,13.096L637.127,12.916L638.275,12.827L639.424,12.693L640.7,12.558L641.849,12.423L642.996,12.199L644.145,12.019L645.421,11.795L646.569,11.482L647.718,11.167L648.994,10.898L650.143,10.584L651.291,10.316L652.439,10.002L653.715,9.687L654.863,9.374L656.012,9.06L657.288,8.746L658.437,8.388L659.585,8.074L660.861,7.714L662.01,7.357L663.158,7.042L664.307,6.683L665.582,6.371L666.73,5.966L667.879,5.607L669.155,5.339L670.304,5.068L671.452,4.844L672.729,4.621L673.877,4.308L675.025,3.949L676.173,3.679L677.449,3.455L678.598,3.277L679.746,3.005L681.022,2.782L682.171,2.513L683.319,2.244L684.596,1.974L685.743,1.75L686.892,1.527L688.04,1.347L689.316,1.167L690.465,0.988L691.613,0.853L692.89,0.719L694.037,0.584L695.186,0.451L696.334,0.361L697.61,0.271L698.759,0.226L699.907,0.181L701.184,0.136L704.756,0.136L705.904,0.091L713.051,0.091L714.2,0.046L717.772,0.046L718.921,0.001L726.067,0.001L727.215,-0.043L734.361,-0.043L735.509,-0.088L741.507,-0.088L742.655,-0.043L745.079,-0.043L746.228,-0.088L747.376,-0.133L748.652,-0.178L749.801,-0.223L750.949,-0.268L752.098,-0.312L753.374,-0.357L754.522,-0.401L755.671,-0.447L756.946,-0.491L758.095,-0.537L759.243,-0.581L760.52,-0.626L761.668,-0.67L762.816,-0.76L763.965,-0.85L765.241,-0.94L766.39,-1.03L767.538,-1.12L768.813,-1.209L769.962,-1.299L771.11,-1.299L772.259,-1.344L773.535,-1.344L774.684,-1.388L775.832,-1.388L777.108,-1.432L778.256,-1.478L779.404,-1.522L780.681,-1.568L781.829,-1.612L782.978,-1.658L784.127,-1.702L785.402,-1.748L786.55,-1.748L787.699,-1.792L788.975,-1.836L790.123,-1.881L791.272,-1.926L792.548,-1.971L794.846,-2.061L795.994,-2.106" style="fill:none;fill-rule:nonzero;stroke:rgb(88,89,91);stroke-width:0.65px;"/>
        </g>
    </g>
</svg>
