<?xml version="1.0" encoding="UTF-8" standalone="no"?>
<!DOCTYPE svg PUBLIC "-//W3C//DTD SVG 1.1//EN" "http://www.w3.org/Graphics/SVG/1.1/DTD/svg11.dtd">
<svg width="100%" height="100%" viewBox="0 0 3823 1211" version="1.1" xmlns="http://www.w3.org/2000/svg" xmlns:xlink="http://www.w3.org/1999/xlink" xml:space="preserve" xmlns:serif="http://www.serif.com/" style="fill-rule:evenodd;clip-rule:evenodd;">
    <g transform="matrix(4.16667,0,0,4.16667,252.613,693.612)">
        <g id="depth-section" serif:id="depth section">
            <path d="M0,14.752L1.148,15.919L2.425,16.86L3.573,17.578L4.722,18.16L5.998,18.744L7.146,19.148L8.295,19.551L9.443,19.91L10.719,20.313L11.867,20.672L13.016,20.986L14.292,21.3L15.439,21.659L16.588,21.928L17.865,22.241L19.014,22.511L20.162,22.734L21.31,23.004L22.586,23.229L23.734,23.452L24.883,23.676L26.158,23.856L27.307,24.035L28.455,24.215L29.604,24.394L30.88,24.529L32.028,24.663L33.177,24.797L34.453,24.932L35.602,25.022L36.75,25.111L38.025,25.246L39.174,25.291L40.322,25.381L41.471,25.471L42.747,25.515L43.896,25.561L45.044,25.605L46.32,25.65L47.469,25.694L48.617,25.739L49.893,25.783L52.189,25.873L53.338,25.873L54.614,25.918L55.763,25.963L56.91,26.008L58.188,26.053L59.336,26.053L60.485,26.098L61.76,26.143L62.908,26.188L64.058,26.232L65.206,26.232L66.48,26.277L68.778,26.367L70.056,26.412L71.204,26.412L73.5,26.502L74.776,26.546L75.925,26.546L77.073,26.592L78.349,26.636L79.497,26.681L80.646,26.681L81.922,26.726L83.07,26.771L84.219,26.815L85.367,26.86L226.624,26.86L227.773,26.815L244.362,26.815L245.638,26.771L246.786,26.815L249.083,26.815L250.359,26.904L251.507,26.949L252.655,27.039L253.933,27.174L255.081,27.309L256.229,27.398L257.505,27.488L258.653,27.488L259.802,27.533L260.95,27.533L262.226,27.578L264.522,27.578L265.8,27.623L269.372,27.623L270.521,27.667L276.39,27.667L277.666,27.712L285.96,27.712L287.108,27.667L288.257,27.623L289.533,27.533L290.682,27.488L291.83,27.443L292.978,27.354L294.255,27.309L295.403,27.264L296.552,27.219L297.827,27.174L298.976,27.129L300.124,27.084L301.4,27.039L302.548,26.994L303.696,26.994L304.846,26.949L310.844,26.949L311.992,27.039L313.141,27.174L314.416,27.354L315.564,27.623L316.713,27.892L317.989,28.07L319.138,28.205L320.286,28.25L322.711,28.25L323.859,28.16L325.008,28.115L326.283,28.07L327.432,28.025L328.58,27.981L329.856,27.981L331.005,27.936L332.153,27.892L333.43,27.892L334.578,27.846L335.727,27.802L336.874,27.757L338.15,27.712L339.299,27.667L340.447,27.667L341.724,27.623L342.872,27.623L344.021,27.578L354.739,27.578L355.888,27.623L359.46,27.623L360.608,27.667L361.885,27.667L363.033,27.712L364.182,27.712L365.458,27.757L366.605,27.936L367.754,28.16L368.902,28.385L370.179,28.609L371.327,28.877L372.476,28.967L373.752,28.923L374.9,28.923L376.049,29.461L377.324,30.178L378.473,30.672L379.621,30.672L380.77,30.627L386.769,30.627L387.916,30.582L389.191,30.537L390.34,30.537L391.489,30.447L392.638,30.402L393.914,30.313L395.062,30.268L396.211,30.178L397.486,30.088L398.635,29.998L399.783,29.954L400.932,29.864L402.208,29.774L403.356,29.686L404.505,29.596L405.781,29.461L406.93,29.371L408.077,29.236L409.354,29.103L410.502,28.967L411.65,28.833L412.799,28.654L414.075,28.475L415.224,28.295L416.372,28.115L417.647,27.936L418.796,27.712L419.944,27.488L421.221,27.264L422.369,26.994L423.518,26.726L424.666,26.457L425.942,26.143L427.091,25.828L428.239,25.561L429.515,25.246L430.663,24.932L431.812,24.619L433.088,24.304L434.236,23.99L435.385,23.721L436.533,23.408L437.81,23.139L438.958,22.869L440.105,22.601L441.382,22.377L442.53,22.151L443.679,21.973L444.827,21.793L446.104,21.613L447.252,21.523L448.4,21.434L449.676,21.39L450.824,21.344L453.249,21.344L454.397,21.39L455.546,21.434L456.694,21.48L457.971,21.523L459.118,21.613L460.267,21.659L461.543,21.703L462.691,21.748L463.84,21.793L465.116,21.838L467.414,21.928L468.562,21.973L469.837,22.018L470.986,22.062L472.135,22.062L473.41,22.107L474.56,22.151L475.708,22.241L476.984,22.331L478.133,22.421L479.281,22.511L480.43,22.601L481.705,22.734L482.854,22.824L484.002,22.959L485.278,23.049L486.427,23.139L487.575,23.229L488.724,23.318L490,23.362L491.147,23.452L492.296,23.498L493.572,23.542L495.869,23.542L497.146,23.498L498.294,23.452L499.442,23.362L500.59,23.273L501.866,23.094L503.015,22.914L504.163,22.645L505.439,22.377L506.588,22.062L507.736,21.703L509.013,21.344L510.16,20.986L511.309,20.582L512.457,20.223L513.733,19.82L514.882,19.461L516.03,19.148L517.307,18.834L518.455,18.565L519.604,18.385L520.752,18.25L522.027,18.16L523.176,18.07L524.324,18.026L525.601,17.981L526.749,17.937L527.897,17.848L529.174,17.758L530.322,17.622L531.471,17.533L532.618,17.443L533.895,17.354L536.191,17.354L537.468,17.398L538.616,17.443L541.041,17.443L542.188,17.398L543.337,17.354L544.486,17.174L545.762,16.95L546.91,16.727L548.06,16.591L549.335,16.502L550.484,16.411L551.632,16.322L552.907,16.188L554.057,15.828L555.205,15.471L556.354,15.111L557.63,14.752L558.778,14.44L559.927,14.08L561.202,13.766L562.351,13.497L563.499,13.273L564.647,13.094L565.924,13.004L567.072,13.049L568.221,13.139L569.497,13.273L570.646,13.317L571.794,13.317L573.069,13.183L574.218,13.004L575.366,12.734L576.515,12.51L577.791,12.286L578.939,12.107L580.088,12.151L581.364,12.33L582.513,12.33L583.66,12.51L584.937,12.734L586.085,13.094L587.233,13.183L588.382,13.586L589.658,13.721L590.807,13.497L591.954,13.633L593.23,13.813L594.379,14.125L595.527,13.9L596.804,14.08L597.952,14.26L599.101,14.44L600.249,14.888L601.524,14.797L602.673,14.843L603.821,14.888L605.098,15.066L606.246,15.38L607.395,15.38L608.543,15.471L609.819,16.682L610.968,16.637L612.116,16.547L613.392,16.994L614.54,17.443L615.688,16.547L616.965,16.502L618.113,17.129L619.262,17.085L620.411,17.398L621.687,17.758L622.835,18.116L623.984,18.789L625.259,19.237L626.407,18.789L627.557,19.014L628.832,19.148L629.98,19.327L631.13,19.775L632.278,19.999L633.555,20.179L634.702,20.269L635.851,20.223L637.127,20.358L638.275,20.672L639.424,20.358L640.7,20.538L641.849,20.986L642.996,21.166L644.145,21.39L645.421,21.973L646.569,21.748L647.718,21.883L648.994,21.973L650.143,22.062L651.291,22.151L652.439,22.197L653.715,22.151L654.863,22.287L656.012,22.377L657.288,22.421L658.437,22.465L660.861,22.465L662.01,22.511L663.158,22.197L664.307,23.318L665.582,23.004L666.73,22.377L667.879,22.421L669.155,22.511L670.304,22.465L671.452,22.377L672.729,22.287L673.877,22.197L675.025,22.062L676.173,21.883L677.449,21.703L678.598,21.523L679.746,21.21L681.022,20.897L682.171,20.582L683.319,20.358L684.596,19.999L685.743,19.551L686.892,19.327L688.04,18.968L689.316,19.058L690.465,19.058L691.613,19.014L692.89,18.968L694.037,18.968L695.186,18.744L696.334,18.43L697.61,18.116L698.759,17.802L699.907,17.443L701.184,17.219L702.332,16.994L703.48,16.682L704.756,16.277L705.904,15.874L707.053,15.38L708.202,15.022L709.478,14.708L710.627,14.44L711.775,14.17L713.051,13.9L714.2,13.633L715.349,13.408L716.623,13.139L717.772,12.825L718.921,12.375L720.069,12.196L721.346,11.972L722.494,11.614L723.643,11.21L724.919,10.582L726.067,10.313L727.215,10.179L728.363,9.819L729.64,9.371L730.788,8.654L731.937,7.981L733.213,7.264L734.361,6.592L735.509,6.367L736.785,5.65L737.934,5.022L739.082,4.573L740.23,4.125L741.507,3.273L742.655,2.869L743.804,1.838L745.079,0.717L746.228,0.045L747.376,-0.762L748.652,-1.435L749.801,-2.242L750.949,-2.96L752.098,-3.588L753.374,-4.171L754.522,-4.754L755.671,-5.336L756.946,-5.92L758.095,-6.502L759.243,-7.086L760.52,-7.623L761.668,-8.207L762.816,-8.746L763.965,-9.283L765.241,-9.777L766.39,-10.314L767.538,-10.717L768.813,-11.076L769.962,-11.391L771.11,-11.748L772.259,-12.063L773.535,-12.377L774.684,-12.602L775.832,-12.781L777.108,-12.961L778.256,-13.184L779.404,-13.363L780.681,-13.543L781.829,-13.723L782.978,-13.902L784.127,-14.126L785.402,-14.305L786.55,-14.484L787.699,-14.664L788.975,-14.844L790.123,-15.023L791.272,-15.202L792.548,-15.382L794.846,-15.74L795.994,-15.92" style="fill:none;fill-rule:nonzero;stroke:rgb(46,48,146);stroke-width:1.31px;"/>
        </g>
    </g>
</svg>
