<?xml version="1.0" encoding="UTF-8" standalone="no"?>
<!DOCTYPE svg PUBLIC "-//W3C//DTD SVG 1.1//EN" "http://www.w3.org/Graphics/SVG/1.1/DTD/svg11.dtd">
<svg width="100%" height="100%" viewBox="0 0 3823 1211" version="1.1" xmlns="http://www.w3.org/2000/svg" xmlns:xlink="http://www.w3.org/1999/xlink" xml:space="preserve" xmlns:serif="http://www.serif.com/" style="fill-rule:evenodd;clip-rule:evenodd;">
    <g transform="matrix(4.16667,0,0,4.16667,252.613,627.28)">
        <g id="depth-section" serif:id="depth section">
            <path d="M0,29.91L17.865,29.91L19.014,29.865L51.041,29.865L52.189,29.82L84.219,29.82L85.367,29.776L118.671,29.776L119.819,29.732L151.85,29.732L152.998,29.685L185.025,29.685L186.302,29.64L218.33,29.64L219.479,29.597L240.789,29.597L242.065,29.553L245.638,29.553L246.786,29.506L250.359,29.506L251.507,29.461L253.933,29.461L255.081,29.417L258.653,29.417L259.802,29.373L263.374,29.373L264.522,29.328L268.096,29.328L269.372,29.281L271.669,29.281L272.817,29.237L276.39,29.237L277.666,29.193L281.111,29.193L282.388,29.148L285.96,29.148L287.108,29.102L289.533,29.102L290.682,29.058L294.255,29.058L295.403,29.014L298.976,29.014L300.124,28.969L302.548,28.969L303.696,28.924L307.271,28.924L308.419,28.879L311.992,28.879L313.141,28.834L315.564,28.834L316.713,28.789L320.286,28.789L321.562,28.745L325.008,28.745L326.283,28.699L328.58,28.699L329.856,28.654L333.43,28.654L334.578,28.609L335.727,28.609L336.874,28.565L339.299,28.565L340.447,28.519L342.872,28.519L344.021,28.474L345.297,28.474L346.444,28.43L347.593,28.43L348.741,28.386L350.018,28.386L351.166,28.342L352.314,28.342L353.591,28.295L354.739,28.295L355.888,28.25L357.035,28.25L358.312,28.206L359.46,28.206L360.608,28.162L361.885,28.162L363.033,28.116L364.182,28.071L365.458,28.027L366.605,28.027L367.754,27.982L368.902,27.937L370.179,27.891L371.327,27.847L372.476,27.803L373.752,27.713L374.9,27.623L376.049,27.534L377.324,27.443L378.473,27.354L379.621,27.264L380.77,27.175L382.046,27.085L383.194,26.996L384.344,26.906L385.619,26.816L386.769,26.726L387.916,26.681L389.191,26.592L392.638,26.457L393.914,26.412L395.062,26.367L396.211,26.322L397.486,26.277L398.635,26.232L399.783,26.187L400.932,26.143L402.208,26.143L403.356,26.098L404.505,26.053L405.781,26.009L406.93,25.965L408.077,25.919L409.354,25.919L410.502,25.875L411.65,25.829L412.799,25.785L414.075,25.739L415.224,25.695L416.372,25.649L417.647,25.605L418.796,25.56L419.944,25.515L421.221,25.471L422.369,25.426L423.518,25.381L424.666,25.336L425.942,25.291L427.091,25.246L428.239,25.201L429.515,25.156L430.663,25.111L431.812,25.067L433.088,25.021L434.236,24.977L435.385,24.931L436.533,24.888L437.81,24.844L438.958,24.798L440.105,24.754L441.382,24.708L442.53,24.664L443.679,24.574L444.827,24.528L446.104,24.484L447.252,24.439L448.4,24.349L449.676,24.305L450.824,24.215L451.973,24.17L453.249,24.08L454.397,24.036L455.546,23.99L456.694,23.9L457.971,23.856L459.118,23.766L460.267,23.677L461.543,23.633L462.691,23.543L463.84,23.453L465.116,23.407L466.265,23.318L467.414,23.228L468.562,23.183L469.837,23.094L470.986,23.049L472.135,23.005L473.41,22.959L474.56,22.915L475.708,22.825L476.984,22.735L478.133,22.689L479.281,22.601L480.43,22.512L481.705,22.466L482.854,22.376L484.002,22.332L485.278,22.242L486.427,22.197L487.575,22.107L488.724,22.062L490,21.973L491.147,21.928L492.296,21.838L493.572,21.794L494.721,21.704L495.869,21.614L497.146,21.57L498.294,21.524L499.442,21.434L500.59,21.39L501.866,21.301L503.015,21.256L504.163,21.166L505.439,21.121L506.588,21.076L507.736,20.986L509.013,20.941L510.16,20.852L511.309,20.762L512.457,20.673L513.733,20.583L514.882,20.493L516.03,20.403L517.307,20.313L518.455,20.224L519.604,20.09L520.752,20L522.027,19.865L523.176,19.775L524.324,19.641L525.601,19.506L526.749,19.416L527.897,19.283L529.174,19.148L530.322,19.058L531.471,18.969L532.618,18.879L533.895,18.789L535.043,18.699L536.191,18.61L537.468,18.519L538.616,18.431L539.765,18.341L541.041,18.252L542.188,18.162L543.337,18.027L544.486,17.937L545.762,17.847L546.91,17.713L548.06,17.623L549.335,17.533L550.484,17.399L551.632,17.309L552.907,17.221L554.057,17.085L555.205,16.996L556.354,16.951L557.63,16.861L558.778,16.771L559.927,16.681L561.202,16.547L562.351,16.412L563.499,16.277L564.647,16.054L565.924,15.83L567.072,15.56L568.221,15.246L569.497,14.889L570.646,14.529L571.794,14.125L573.069,13.767L574.218,13.453L575.366,13.183L576.515,13.004L577.791,12.826L578.939,12.69L580.088,12.556L581.364,12.422L582.513,12.287L583.66,12.152L584.937,12.018L586.085,11.883L587.233,11.749L588.382,11.615L589.658,11.48L590.807,11.346L591.954,11.211L593.23,11.076L594.379,10.941L595.527,10.807L596.804,10.672L597.952,10.538L599.101,10.404L600.249,10.269L601.524,10.135L602.673,10L603.821,9.866L605.098,9.73L606.246,9.597L607.395,9.463L608.543,9.328L609.819,9.238L610.968,9.103L612.116,8.969L613.392,8.834L614.54,8.744L615.688,8.609L616.965,8.476L618.113,8.385L619.262,8.252L620.411,8.117L621.687,8.027L622.835,7.892L623.984,7.803L625.259,7.668L626.407,7.578L627.557,7.445L628.832,7.353L629.98,7.221L631.13,7.13L632.278,6.996L633.555,6.861L634.702,6.771L635.851,6.637L637.127,6.547L638.275,6.414L639.424,6.322L640.7,6.188L641.849,6.098L642.996,5.963L644.145,5.875L645.421,5.785L646.569,5.65L647.718,5.56L648.994,5.471L650.143,5.336L651.291,5.247L652.439,5.157L653.715,5.067L654.863,4.931L656.012,4.844L657.288,4.754L658.437,4.664L659.585,4.574L660.861,4.439L662.01,4.349L663.158,4.26L664.307,4.172L665.582,4.036L666.73,3.946L667.879,3.856L669.155,3.767L670.304,3.633L671.452,3.543L672.729,3.453L673.877,3.363L675.025,3.228L676.173,3.139L677.449,3.049L678.598,2.959L679.746,2.869L681.022,2.781L682.171,2.69L683.319,2.646L684.596,2.556L685.743,2.512L686.892,2.467L688.04,2.422L689.316,2.377L690.465,2.377L691.613,2.332L692.89,2.332L694.037,2.287L697.61,2.287L698.759,2.242L711.775,2.242L713.051,2.197L715.349,2.197L716.623,2.152L717.772,2.152L718.921,2.107L720.069,2.107L721.346,2.062L722.494,2.062L723.643,2.017L724.919,1.973L726.067,1.973L728.363,1.883L729.64,1.883L730.788,1.838L731.937,1.794L733.213,1.794L734.361,1.749L735.509,1.705L736.785,1.615L737.934,1.569L739.082,1.525L740.23,1.479L741.507,1.346L742.655,1.256L743.804,1.121L745.079,1.031L746.228,1.031L747.376,1.121L748.652,1.166L750.949,1.166L752.098,1.121L753.374,1.121L754.522,1.076L755.671,1.076L756.946,1.031L758.095,1.031L759.243,0.986L760.52,0.986L761.668,0.941L763.965,0.941L765.241,0.896L766.39,0.896L767.538,0.851L768.813,0.851L769.962,0.806L771.11,0.806L772.259,0.762L773.535,0.762L774.684,0.718L775.832,0.718L777.108,0.674L778.256,0.628L779.404,0.584L780.681,0.538L781.829,0.494L782.978,0.448L784.127,0.404L785.402,0.358L786.55,0.358L787.699,0.314L788.975,0.269L790.123,0.224L791.272,0.18L792.548,0.135L794.846,0.045L795.994,0" style="fill:none;fill-rule:nonzero;stroke:rgb(35,31,32);stroke-width:0.65px;"/>
        </g>
    </g>
</svg>
