<?xml version="1.0" encoding="UTF-8" standalone="no"?>
<!DOCTYPE svg PUBLIC "-//W3C//DTD SVG 1.1//EN" "http://www.w3.org/Graphics/SVG/1.1/DTD/svg11.dtd">
<svg width="100%" height="100%" viewBox="0 0 3823 1211" version="1.1" xmlns="http://www.w3.org/2000/svg" xmlns:xlink="http://www.w3.org/1999/xlink" xml:space="preserve" xmlns:serif="http://www.serif.com/" style="fill-rule:evenodd;clip-rule:evenodd;">
    <g transform="matrix(4.16667,0,0,4.16667,252.613,636.055)">
        <g id="depth-section" serif:id="depth section">
            <path d="M0,28.478L1.148,29.642L2.425,30.451L35.602,30.451L36.75,30.496L111.526,30.496L112.675,30.541L185.025,30.541L186.302,30.584L247.935,30.584L249.083,30.541L253.933,30.541L255.081,30.496L257.505,30.496L258.653,30.451L259.802,30.451L260.95,30.405L262.226,30.405L263.374,30.361L264.522,30.316L265.8,30.271L266.947,30.225L268.096,30.181L269.372,30.136L270.521,30.091L271.669,30.045L272.817,30.001L274.093,29.957L275.241,29.912L276.39,29.868L277.666,29.822L278.814,29.777L279.963,29.733L281.111,29.733L282.388,29.688L289.533,29.688L290.682,29.642L295.403,29.642L296.552,29.597L300.124,29.597L301.4,29.553L304.846,29.553L306.122,29.509L308.419,29.509L309.694,29.464L311.992,29.464L313.141,29.417L314.416,29.417L315.564,29.374L316.713,29.33L317.989,29.33L319.138,29.285L320.286,29.238L321.562,29.238L322.711,29.194L323.859,29.15L325.008,29.105L326.283,29.105L327.432,29.06L328.58,29.015L329.856,29.015L331.005,28.97L332.153,28.925L333.43,28.88L334.578,28.88L335.727,28.835L336.874,28.79L338.15,28.79L339.299,28.746L340.447,28.702L341.724,28.657L342.872,28.657L344.021,28.611L345.297,28.566L346.444,28.566L347.593,28.522L348.741,28.478L350.018,28.478L351.166,28.431L352.314,28.386L353.591,28.386L354.739,28.342L355.888,28.298L357.035,28.253L358.312,28.253L359.46,28.207L360.608,28.163L361.885,28.163L363.033,28.119L364.182,28.074L365.458,28.074L366.605,28.028L367.754,27.984L368.902,27.939L370.179,27.939L371.327,27.894L372.476,27.849L373.752,27.804L374.9,27.759L376.049,27.714L377.324,27.714L378.473,27.67L379.621,27.67L380.77,27.626L382.046,27.626L383.194,27.58L384.344,27.535L385.619,27.535L386.769,27.491L387.916,27.447L389.191,27.447L390.34,27.4L391.489,27.355L392.638,27.311L393.914,27.267L395.062,27.222L396.211,27.175L397.486,27.131L398.635,27.087L399.783,27.042L400.932,27.042L402.208,26.997L403.356,26.953L404.505,26.908L405.781,26.863L406.93,26.863L408.077,26.818L409.354,26.773L411.65,26.683L412.799,26.683L414.075,26.639L415.224,26.593L416.372,26.548L417.647,26.548L418.796,26.503L419.944,26.459L421.221,26.459L422.369,26.414L423.518,26.369L424.666,26.324L425.942,26.324L427.091,26.28L428.239,26.236L429.515,26.236L430.663,26.189L431.812,26.144L433.088,26.144L434.236,26.1L435.385,26.056L436.533,26.01L437.81,26.01L438.958,25.965L440.105,25.921L441.382,25.921L442.53,25.876L443.679,25.832L444.827,25.832L446.104,25.786L447.252,25.786L448.4,25.742L449.676,25.742L450.824,25.697L453.249,25.697L454.397,25.652L456.694,25.652L457.971,25.607L460.267,25.607L461.543,25.562L462.691,25.562L463.84,25.517L465.116,25.517L466.265,25.472L467.414,25.428L468.562,25.382L469.837,25.337L470.986,25.249L472.135,25.158L473.41,25.069L474.56,25.024L475.708,24.934L476.984,24.89L478.133,24.845L479.281,24.8L480.43,24.754L481.705,24.71L482.854,24.621L484.002,24.576L485.278,24.531L486.427,24.486L487.575,24.396L488.724,24.351L490,24.261L491.147,24.171L492.296,24.126L493.572,24.038L494.721,23.993L495.869,23.903L497.146,23.859L499.442,23.679L500.59,23.633L501.866,23.543L503.015,23.499L504.163,23.41L505.439,23.365L506.588,23.275L507.736,23.185L509.013,23.14L510.16,23.05L511.309,23.005L512.457,22.961L513.733,22.872L514.882,22.826L516.03,22.782L517.307,22.738L518.455,22.648L519.604,22.602L520.752,22.558L522.027,22.512L523.176,22.422L524.324,22.378L525.601,22.289L526.749,22.199L527.897,22.154L529.174,22.064L530.322,21.974L531.471,21.93L532.618,21.84L533.895,21.75L535.043,21.661L536.191,21.571L537.468,21.527L538.616,21.437L539.765,21.391L541.041,21.347L542.188,21.301L543.337,21.301L544.486,21.257L545.762,21.257L546.91,21.212L548.06,21.167L549.335,21.123L550.484,21.033L551.632,20.988L552.907,20.899L554.057,20.809L555.205,20.719L556.354,20.629L557.63,20.54L558.778,20.406L559.927,20.316L561.202,20.226L562.351,20.091L563.499,20.001L564.647,19.868L565.924,19.732L567.072,19.598L568.221,19.418L569.497,19.239L570.646,19.015L571.794,18.835L573.069,18.656L574.218,18.431L575.366,18.207L576.515,18.074L577.791,17.849L578.939,17.221L580.088,16.863L581.364,16.728L582.513,16.593L583.66,16.504L584.937,16.369L586.085,16.325L587.233,16.279L597.952,16.279L599.101,16.19L600.249,16.235L601.524,16.279L603.821,16.279L605.098,16.325L608.543,16.325L609.819,16.369L613.392,16.369L614.54,16.414L615.688,16.414L616.965,16.504L618.113,16.548L619.262,16.638L620.411,16.683L621.687,16.728L622.835,16.773L623.984,16.773L625.259,16.818L626.407,16.863L627.557,16.908L628.832,16.953L629.98,16.953L631.13,16.908L632.278,16.953L633.555,16.953L634.702,16.908L635.851,16.728L637.127,16.593L638.275,16.504L639.424,16.458L640.7,16.414L641.849,16.325L642.996,16.279L644.145,16.19L645.421,16.101L646.569,16.011L647.718,15.921L648.994,15.832L650.143,15.697L652.439,15.427L653.715,15.248L654.863,15.025L656.012,14.755L657.288,14.531L658.437,14.217L659.585,13.859L660.861,13.499L662.01,13.096L663.158,12.648L664.307,12.199L665.582,11.751L666.73,11.257L667.879,10.808L669.155,10.361L670.304,9.913L671.452,9.463L672.729,9.015L673.877,8.612L676.173,7.804L677.449,7.401L678.598,7.132L679.746,6.863L681.022,6.593L682.171,6.371L683.319,6.146L684.596,5.966L685.743,5.832L686.892,5.652L688.04,5.518L689.316,5.339L690.465,5.204L691.613,5.024L692.89,4.844L694.037,4.71L695.186,4.531L696.334,4.352L697.61,4.172L698.759,3.993L699.907,3.857L701.184,3.724L702.332,3.589L703.48,3.455L704.756,3.321L705.904,3.185L707.053,3.097L708.202,3.005L709.478,2.917L710.627,2.826L711.775,2.738L713.051,2.648L714.2,2.558L715.349,2.513L716.623,2.423L718.921,2.333L720.069,2.29L721.346,2.244L722.494,2.199L723.643,2.11L724.919,2.066L726.067,2.019L727.215,2.019L728.363,1.974L729.64,1.93L730.788,1.886L731.937,1.84L733.213,1.794L734.361,1.75L735.509,1.707L736.785,1.662L737.934,1.572L739.082,1.482L740.23,1.347L741.507,1.257L742.655,1.167L743.804,1.079L745.079,0.943L746.228,0.853L747.376,0.719L748.652,0.584L749.801,0.406L750.949,0.226L752.098,0.091L753.374,0.001L754.522,-0.088L755.671,-0.178L756.946,-0.268L758.095,-0.401L759.243,-0.491L760.52,-0.581L761.668,-0.67L762.816,-0.76L763.965,-0.85L765.241,-0.94L766.39,-1.03L767.538,-1.12L768.813,-1.209L769.962,-1.299L771.11,-1.299L772.259,-1.344L773.535,-1.344L774.684,-1.388L775.832,-1.388L777.108,-1.432L778.256,-1.478L779.404,-1.522L780.681,-1.568L781.829,-1.612L782.978,-1.658L784.127,-1.702L785.402,-1.748L786.55,-1.748L787.699,-1.792L788.975,-1.836L790.123,-1.881L791.272,-1.926L792.548,-1.971L794.846,-2.061L795.994,-2.106" style="fill:none;fill-rule:nonzero;stroke:rgb(88,89,91);stroke-width:0.65px;"/>
        </g>
    </g>
</svg>
