<?xml version="1.0" encoding="UTF-8" standalone="no"?>
<!DOCTYPE svg PUBLIC "-//W3C//DTD SVG 1.1//EN" "http://www.w3.org/Graphics/SVG/1.1/DTD/svg11.dtd">
<svg width="100%" height="100%" viewBox="0 0 10048 1220" version="1.1" xmlns="http://www.w3.org/2000/svg" xmlns:xlink="http://www.w3.org/1999/xlink" xml:space="preserve" xmlns:serif="http://www.serif.com/" style="fill-rule:evenodd;clip-rule:evenodd;">
    <g transform="matrix(4.16667,0,0,4.16667,252.694,714.905)">
        <g id="depth-section" serif:id="depth section">
            <path d="M0,8.661L1.069,9.238L2.146,9.854L3.572,10.354L4.646,10.739L5.717,11.124L7.147,11.509L8.218,11.855L9.289,12.202L10.362,12.51L11.79,12.78L12.863,12.932L13.935,13.125L15.365,13.279L16.434,13.472L17.507,13.588L18.935,13.664L20.011,13.818L21.081,13.933L22.512,14.049L23.58,14.165L24.653,14.318L26.081,14.433L27.154,14.549L28.228,14.703L29.297,14.896L30.729,15.05L31.798,15.204L32.871,15.358L34.299,15.55L35.372,15.704L36.445,15.897L37.876,16.051L38.944,16.166L40.016,16.243L41.446,16.32L42.52,16.474L43.593,16.743L45.021,16.897L46.092,17.166L47.162,17.282L48.593,17.166L49.664,17.051L50.737,16.897L51.808,16.782L53.236,17.09L54.31,17.591L55.38,18.09L56.811,18.09L57.879,18.014L58.955,17.898L60.383,17.783L61.456,17.667L62.527,17.591L63.957,17.591L65.028,18.014L66.1,18.399L67.527,18.591L68.601,18.36L69.674,18.167L71.102,18.09L72.175,17.975L73.243,17.898L74.317,17.706L75.745,17.551L76.82,17.398L77.892,17.244L79.321,17.09L80.391,16.935L81.461,16.859L82.892,17.09L83.965,17.282L85.038,17.551L86.466,17.744L87.537,17.706L88.608,17.706L90.038,17.667L91.109,17.628L92.183,17.551L93.254,17.474L94.687,17.398L95.755,17.321L96.826,17.205L98.256,17.128L99.325,17.051L100.402,16.974L101.828,17.205L102.901,17.474L103.973,17.744L105.403,18.052L106.474,18.321L107.545,18.36L108.973,18.244L110.046,18.514L111.119,19.091L112.55,19.553L113.621,19.938L114.689,20.285L115.763,20.053L117.19,19.861L118.267,19.669L119.337,19.553L120.768,19.823L121.836,20.13L122.909,20.4L124.337,20.593L125.41,20.746L126.483,21.015L127.912,21.286L128.985,21.286L130.054,21.324L131.484,21.362L132.555,21.4L133.628,21.4L135.057,21.362L136.132,21.208L137.2,21.015L138.271,20.862L139.702,21.015L140.775,20.862L141.849,21.362L143.276,21.862L144.348,21.901L145.418,21.631L146.849,21.4L147.92,21.208L148.993,20.938L150.419,20.862L151.492,21.17L152.565,21.516L153.995,20.823L155.066,20.361L156.135,20.207L157.213,19.784L158.639,19.36L159.712,19.399L160.783,19.784L162.213,20.245L163.284,20.631L164.355,20.9L165.783,21.131L166.856,21.362L167.93,21.554L169.357,21.786L170.431,22.016L171.499,22.132L172.93,21.746L174.001,21.362L175.076,20.977L176.504,20.631L177.577,20.323L178.646,19.976L179.717,19.823L181.147,20.092L182.221,20.053L183.294,19.515L184.722,18.976L185.795,18.937L186.864,19.515L188.294,20.015L189.365,20.4L190.438,20.862L191.866,21.324L192.942,21.786L194.011,22.247L195.441,21.977L196.512,21.246L197.583,20.477L199.014,19.784L200.087,20.13L201.157,21.246L202.229,21.708L203.659,21.786L204.729,21.977L205.803,22.363L207.229,22.786L208.302,22.439L209.375,22.055L210.806,21.746L211.876,21.246L212.945,20.631L214.378,20.977L215.446,21.362L216.521,20.977L217.95,20.823L219.023,21.054L220.094,21.286L221.165,21.516L222.593,21.746L223.666,22.093L224.739,22.478L226.168,22.825L227.241,22.67L228.31,22.517L229.74,22.363L230.811,22.247L231.884,21.67L233.312,20.669L234.388,19.745L235.456,19.476L236.887,20.323L237.958,21.208L239.031,21.477L240.459,21.554L241.532,21.708L242.604,21.824L243.674,21.786L245.104,21.516L246.176,21.208L247.249,20.9L248.677,20.631L249.748,20.323L250.821,20.092L252.251,20.053L253.322,20.053L254.394,20.015L255.823,20.015L256.895,20.092L257.968,20.207L259.396,20.361L260.469,20.515L261.54,20.631L262.97,20.785L264.039,20.593L265.112,20.207L266.186,19.823L267.613,19.437L268.687,19.129L269.755,18.822L271.186,18.321L272.257,18.167L273.332,18.244L274.76,18.783L275.833,19.36L276.902,20.015L278.335,20.285L279.403,20.323L280.477,20.361L281.904,20.438L282.978,21.362L284.051,22.363L285.12,23.363L286.55,24.403L287.621,24.133L288.694,23.171L290.122,22.171L291.198,21.246L292.267,20.323L293.697,19.63L294.768,19.745L295.839,19.784L297.269,19.553L298.343,19.284L299.413,18.937L300.841,18.129L301.914,16.705L302.985,15.319L304.416,14.511L305.484,14.473L306.558,14.511L307.631,15.089L309.062,15.897L310.132,16.012L311.201,15.55L312.634,15.474L313.702,15.319L314.777,14.973L316.206,14.396L317.279,13.51L318.35,13.164L319.78,14.165L320.849,15.165L321.922,16.513L323.351,17.936L324.424,19.091L325.497,20.631L326.927,21.631L327.996,22.093L329.066,22.555L330.14,22.786L331.568,22.825L332.644,22.67L333.712,22.171L335.145,21.67L336.214,21.208L337.287,20.746L338.715,20.245L339.788,19.823L340.861,19.476L342.287,19.129L343.36,18.822L344.432,18.475L345.861,19.207L346.933,21.208L348.003,22.439L349.077,22.825L350.507,23.132L351.578,23.44L352.648,23.132L354.079,22.055L355.152,21.054L356.224,20.092L357.651,19.168L358.725,18.399L359.796,17.744L361.226,17.166L362.295,16.859L363.368,17.591L364.796,18.321L365.869,19.284L366.942,20.323L368.373,21.015L369.443,21.631L370.513,22.132L371.588,22.439L373.016,22.825L374.089,22.863L375.16,22.863L376.591,22.825L377.659,22.709L380.16,22.709L381.233,22.67L382.307,22.709L383.735,22.786L385.877,22.94L387.307,23.132L388.378,23.286L389.454,23.363L390.882,23.44L391.955,23.517L393.023,23.556L394.095,23.594L395.524,23.671L396.598,23.748L397.672,23.864L399.097,23.979L400.17,24.056L401.241,24.095L402.672,24.095L403.742,24.133L404.813,24.172L406.241,24.21L407.317,24.133L408.388,23.902L409.818,23.71L410.89,23.479L411.958,23.286L413.033,23.055L414.462,22.825L415.535,22.594L416.605,22.401L418.036,22.324L419.104,22.247L420.178,22.132L421.606,21.786L422.68,20.862L423.753,19.976L425.183,19.091L426.252,18.283L427.322,18.668L428.753,19.052L429.824,19.476L430.899,19.861L432.327,20.092L433.4,20.323L434.47,20.515L435.543,20.785L436.971,21.054L438.044,21.093L439.117,21.093L440.543,21.015L441.616,20.938L442.687,20.9L444.117,20.515L446.259,18.899L447.687,18.976L448.763,19.784L449.834,20.669L451.264,21.593L452.335,22.324L453.408,22.401L454.834,22.171L455.907,21.901L456.98,21.67L458.052,21.4L459.481,21.17L460.551,21.246L461.624,21.746L463.052,22.209L464.125,22.171L465.198,21.131L466.629,20.13L467.699,19.207L468.769,18.36L470.198,17.667L471.272,17.244L472.345,17.628L473.773,18.86L474.847,20.4L475.915,22.171L476.988,24.056L478.416,25.404L479.489,26.404L480.563,25.404L481.99,23.979L483.062,22.594L484.133,21.286L485.563,20.015L486.634,18.86L487.71,17.975L489.138,17.244L490.211,16.743L491.279,16.204L492.71,16.359L493.78,17.36L494.854,18.167L496.282,20.053L497.353,21.708L498.426,24.248L499.497,26.481L500.928,26.982L501.998,27.52L503.069,26.904L504.497,25.596L505.573,24.326L506.644,23.094L508.074,22.709L509.146,22.901L510.214,23.055L511.645,23.402L512.718,23.787L513.791,22.67L515.219,21.554L516.292,20.553L517.36,19.322L518.793,18.244L519.862,17.166L520.936,17.09L522.009,17.706L523.438,18.552L524.51,18.822L525.578,19.168L527.009,19.784L528.079,20.361L529.155,21.054L530.583,21.477L531.656,21.977L532.725,22.478L534.155,22.978L535.227,23.479L536.3,23.402L537.728,23.402L538.801,23.363L539.872,23.286L540.942,23.247L542.373,23.21L543.444,23.363L544.518,23.517L545.943,23.671L547.021,23.787L548.09,23.864L549.52,23.825L550.591,23.017L551.664,22.286L553.092,21.554L554.163,20.9L555.236,20.285L556.664,20.285L557.737,21.708L558.809,23.363L560.239,23.71L561.308,22.786L562.381,21.786L563.454,20.823L564.885,20.593L565.955,21.015L567.024,22.171L568.454,23.479L569.527,24.21L570.601,24.095L572.028,24.21L573.103,24.364L574.171,24.056L575.604,23.979L576.672,24.287L577.745,24.826L579.173,24.248L580.246,24.095L581.319,24.326L582.75,24.556L583.818,24.634L584.89,24.711L585.965,24.364L587.394,24.056L588.467,23.825L589.535,23.556L590.966,23.44L592.036,23.517L593.109,23.286L594.538,23.247L595.611,23.286L596.682,23.325L598.11,22.786L599.184,22.247L600.254,21.708L601.685,21.208L602.753,21.516L603.829,22.209L604.899,22.901L606.33,23.517L607.401,23.671L608.47,23.902L609.9,24.133L610.974,24.364L612.047,24.326L613.475,24.248L614.548,24.172L615.616,24.095L617.049,24.018L618.117,23.94L619.191,23.864L620.619,23.748L621.694,23.671L622.766,23.479L624.195,23.094L625.265,21.439L626.335,20.092L627.411,18.899L628.839,18.706L629.912,19.322L630.98,20.169L632.411,21.054L633.482,20.631L634.556,19.745L635.983,20.707L637.057,21.67L638.128,22.67L639.561,22.517L640.629,21.439L641.7,20.4L643.13,19.36L644.199,18.783L645.276,19.207L646.702,19.9L647.775,20.207L648.847,21.015L649.92,21.054L651.348,20.553L652.419,20.938L653.492,22.016L654.92,21.631L655.993,22.055L657.064,22.478L658.495,22.093L659.563,22.747L660.637,21.746L662.064,20.631L663.141,20.515L664.211,21.093L665.642,21.286L666.71,21.554L667.783,22.555L668.856,22.209L670.284,21.516L671.357,20.862L672.427,20.631L673.859,21.324L674.928,21.631L676.001,22.209L677.429,23.017L678.502,22.901L679.575,22.171L681.006,21.286L682.074,20.823L683.146,21.208L684.576,21.593L685.649,21.67L686.723,21.901L688.15,22.171L689.222,22.286L690.292,22.324L691.365,21.824L692.794,20.977L693.867,20.015L694.937,20.323L696.366,21.286L697.439,21.901L698.51,21.593L699.94,21.67L701.009,22.055L702.087,23.055L703.513,24.018L704.586,23.517L705.657,23.864L707.087,22.825L708.158,21.17L709.229,21.17L710.657,22.978L711.73,23.247L712.804,22.594L713.875,20.746L715.305,20.285L716.373,21.746L717.446,21.015L718.875,20.785L719.95,21.516L721.021,21.708L722.451,22.632L723.521,23.363L724.591,23.402L726.021,22.863L727.095,22.401L728.168,22.016L729.596,21.862L730.669,22.286L731.738,21.939L732.812,21.631L734.239,22.401L735.312,23.171L736.386,22.863L737.816,22.016L738.885,21.786L739.956,22.324L741.386,22.825L742.457,22.901L743.532,22.978L744.961,23.402L746.031,23.902L747.103,23.864L748.533,23.21L749.604,22.324L750.677,22.478L752.103,22.747L753.176,22.67L754.249,22.324L755.32,22.401L756.75,21.708L757.819,20.553L758.893,19.9L760.32,20.015L761.396,19.861L762.467,19.36L763.897,18.09L764.968,17.244L766.039,18.167L767.467,19.823L768.54,20.169L769.613,21.4L771.042,22.171L772.115,20.015L773.184,17.859L774.614,17.282L775.685,18.399L776.758,20.323L777.831,22.594L779.262,23.055L780.33,21.977L781.401,21.439L782.832,22.055L783.905,20.323L784.979,18.783L786.406,17.783L787.478,16.705L788.548,17.09L789.979,17.628L791.05,18.167L792.123,18.436L793.551,18.475L794.622,18.744L795.695,19.014L796.766,19.284L798.196,19.63L799.265,20.053L800.338,20.553L801.769,21.015L802.842,20.438L803.913,19.9L805.343,19.553L806.414,19.938L807.484,20.4L808.913,20.862L809.986,21.093L811.06,21.131L812.487,21.4L813.561,21.67L814.629,20.977L816.06,20.631L817.131,20.631L819.277,20.323L820.705,20.207L821.776,20.553L822.85,20.938L824.277,21.093L825.351,20.938L826.424,20.285L827.852,20.13L828.925,19.861L829.994,20.015L831.424,20.207L832.495,20.361L833.568,20.285L834.999,20.553L836.067,21.054L837.141,21.554L838.568,22.016L839.642,22.209L840.715,21.824L841.784,21.824L843.217,21.554L844.287,21.286L845.358,20.823L846.788,20.285L847.859,19.784L848.933,19.476L850.358,19.592L851.432,19.938L852.505,20.707L853.933,21.477L855.006,22.171L856.079,22.093L857.508,22.055L858.578,22.132L859.649,21.977L860.723,21.054L862.153,18.976L863.224,17.09L864.295,15.165L865.723,14.241L866.796,14.742L867.869,16.782L869.298,19.36L870.371,22.093L871.439,22.401L872.87,23.633L873.943,24.595L875.014,24.711L876.444,24.326L877.516,24.133L878.586,24.133L880.019,24.21L881.088,24.248L882.161,24.326L883.231,24.403L884.662,24.326L885.735,24.133L886.804,23.94L888.234,23.787L889.306,23.671L890.379,22.555L891.809,20.862L892.878,19.244L893.951,17.783L895.379,16.859L896.452,16.974L897.525,17.551L898.953,18.167L900.026,17.898L901.095,17.474L902.525,17.282L903.599,17.744L904.67,18.129L905.743,18.783L907.169,19.592L908.242,20.13L909.315,20.746L910.743,20.785L911.816,20.245L912.885,20.785L914.317,21.746L915.389,22.286L916.46,22.747L917.89,21.901L918.961,21.131L920.034,21.324L921.465,21.708L922.533,21.208L923.606,20.515L925.034,19.9L926.107,19.823L927.181,20.631L928.25,21.554L929.68,21.554L930.751,20.977L931.824,20.707L933.255,20.4L934.325,20.245L935.396,20.169L936.824,20.169L937.897,20.092L938.971,20.245L940.398,20.477L941.473,20.593L942.543,20.938L943.971,20.515L945.044,20.13L946.115,19.052L947.188,17.936L948.616,16.82L949.687,16.474L950.761,17.436L952.188,18.668L953.262,20.092L954.335,20.746L955.764,20.977L956.834,21.093L957.905,20.977L959.336,20.9L960.409,20.823L961.479,20.245L962.91,19.437L963.979,18.86L965.052,18.399L966.48,17.859L967.554,17.282L968.627,16.82L969.695,16.435L971.126,17.244L972.199,18.283L973.27,19.437L974.7,20.669L975.771,20.669L976.842,20.015L978.274,19.707L979.344,20.169L980.417,20.707L981.845,20.207L982.918,19.476L983.991,18.783L985.417,18.629L986.49,18.86L987.562,19.129L988.991,19.399L990.064,19.707L991.133,20.015L992.207,19.476L993.635,18.129L994.708,16.513L995.781,15.666L997.209,16.55L998.282,17.591L999.351,19.322L1000.78,21.746L1001.85,22.363L1002.93,21.786L1004.36,20.977L1005.43,20.285L1006.5,20.323L1007.93,20.323L1009,20.053L1010.07,19.399L1011.14,19.476L1012.57,19.784L1013.64,19.976L1014.72,20.092L1016.15,19.823L1017.22,19.592L1018.29,19.36L1019.72,19.399L1020.79,19.553L1021.86,18.937L1023.29,18.129L1024.36,18.475L1025.44,19.36L1026.87,20.361L1027.94,21.17L1029.01,20.707L1030.44,20.785L1031.51,21.516L1032.58,22.324L1033.65,23.094L1035.08,23.71L1036.15,24.287L1037.23,24.865L1038.65,23.247L1039.73,21.593L1040.8,19.9L1042.23,19.437L1043.3,20.245L1044.37,20.785L1045.8,19.976L1046.87,21.208L1047.94,22.517L1049.38,23.594L1050.44,23.479L1051.52,23.94L1052.95,24.518L1054.02,23.864L1055.09,22.863L1056.16,21.746L1057.59,20.707L1058.66,20.323L1059.74,20.169L1061.17,21.054L1062.23,22.016L1063.31,22.978L1064.74,22.825L1065.81,22.132L1066.88,21.324L1068.31,20.631L1069.38,20.593L1070.45,20.977L1071.88,21.477L1072.96,21.939L1074.03,22.401L1075.1,22.709L1076.53,22.94L1077.6,23.055L1078.67,22.863L1080.1,22.901L1081.17,23.171L1082.25,23.286L1083.67,23.132L1084.75,22.209L1085.82,21.324L1087.25,20.862L1088.32,21.977L1089.39,21.746L1090.82,21.477L1091.89,22.363L1092.96,22.401L1094.39,22.401L1095.46,21.4L1096.54,20.938L1097.61,21.054L1099.04,21.054L1100.11,20.785L1101.18,20.361L1102.61,21.477L1103.68,22.786L1104.75,23.325L1106.19,22.132L1107.26,21.593L1108.33,21.67L1109.76,21.786L1110.83,21.708L1111.9,20.862L1113.33,19.745L1114.4,19.476L1115.47,19.515L1116.9,19.861L1117.98,19.976L1119.05,20.053L1120.12,21.208L1121.55,21.324L1122.62,21.362L1123.69,21.786L1125.12,22.209L1126.19,22.555L1127.26,22.709L1128.69,22.786L1129.77,22.555L1130.84,21.708L1132.27,20.862L1133.34,20.593L1134.41,20.361L1135.84,19.707L1136.91,19.014L1137.98,18.668L1139.06,19.168L1140.48,19.823L1141.56,20.669L1142.63,21.362L1144.06,20.9L1145.13,20.169L1146.2,19.861L1147.63,20.4L1148.7,21.054L1149.77,21.708L1151.2,22.132L1152.28,21.631L1153.35,21.093L1154.77,20.707L1155.85,20.938L1156.92,21.17L1158.35,20.823L1159.42,20.438L1160.49,20.785L1161.56,21.054L1162.99,21.246L1164.07,20.015L1165.14,19.052L1166.57,19.861L1167.64,20.746L1168.71,21.554L1170.14,21.862L1171.21,21.708L1172.28,21.324L1173.71,20.438L1174.79,19.63L1175.85,19.014L1177.29,19.244L1178.36,19.207L1179.43,19.091L1180.86,19.284L1181.93,20.169L1183,21.246L1184.07,22.247L1185.5,21.477L1186.58,20.707L1187.65,19.976L1189.08,19.244L1190.15,19.437L1191.22,20.207L1192.65,21.015L1193.72,21.554L1194.79,21.516L1196.22,21.4L1197.29,21.246L1198.37,21.093L1199.79,20.977L1200.87,21.015L1201.94,21.093L1203.01,21.131L1204.44,21.208L1205.51,21.286L1206.58,21.362L1208.01,21.439L1210.16,21.593L1211.58,21.286L1212.66,20.938L1213.73,20.053L1215.16,19.129L1216.23,18.244L1217.3,19.399L1218.73,20.4L1219.8,19.938L1220.88,18.86L1222.31,19.63L1223.38,20.707L1224.45,21.015L1225.52,21.131L1226.95,22.209L1228.02,20.862L1229.09,19.592L1230.52,19.437L1231.59,19.244L1232.66,18.86L1234.1,19.515L1235.17,20.13L1236.24,20.285L1237.67,20.285L1238.74,20.477L1239.81,21.516L1241.24,22.363L1242.31,21.554L1243.38,20.553L1244.81,21.131L1245.89,20.515L1246.96,19.861L1248.03,18.976L1249.46,18.668L1250.53,18.899L1251.6,18.629L1253.03,18.321L1254.1,18.822L1255.18,19.207L1256.6,19.553L1257.68,19.592L1258.75,19.36L1260.18,19.284L1261.25,19.322L1262.32,18.937L1263.75,18.552L1264.82,18.206L1265.9,18.167L1266.97,18.36L1268.39,18.514L1269.47,18.206L1270.54,17.667L1271.97,17.667L1273.04,17.975L1274.11,17.282L1275.54,17.513L1276.61,18.206L1277.69,18.206L1279.11,18.283L1280.19,17.166L1281.26,16.243L1282.69,15.973L1283.76,15.127L1284.83,14.703L1286.26,14.973L1287.33,15.935L1288.4,16.282L1289.48,17.128L1290.9,18.244L1291.98,18.514L1293.05,18.744L1294.48,19.168L1295.55,19.592L1296.62,19.36L1298.05,18.629L1299.12,18.475L1300.19,18.514L1301.62,18.744L1302.7,19.784L1303.77,20.285L1305.2,19.515L1306.27,19.052L1307.34,18.976L1308.77,19.014L1309.84,18.514L1310.91,17.436L1311.98,17.398L1313.41,17.898L1314.49,17.936L1315.56,18.976L1316.99,20.053L1318.06,20.553L1319.13,20.053L1320.56,19.014L1321.63,18.668L1322.7,17.898L1324.13,17.36L1325.2,18.014L1326.28,18.436L1327.71,18.668L1328.78,19.476L1329.85,19.592L1330.92,19.553L1332.35,18.744L1333.42,18.514L1334.5,19.515L1335.92,20.438L1337,20.553L1338.07,20.707L1339.5,20.13L1340.57,19.861L1341.64,19.091L1343.07,18.09L1344.14,17.244L1345.21,16.474L1346.64,16.628L1347.71,16.589L1348.79,17.013L1350.22,17.013L1351.29,17.128L1352.36,17.474L1353.43,17.474L1354.86,17.244L1355.93,17.321L1357.01,17.783L1358.43,18.244L1359.5,18.706L1360.58,19.244L1362.01,19.745L1363.08,19.399L1364.15,18.899L1365.58,18.899L1366.65,18.937L1367.72,18.976L1369.15,18.976L1370.23,18.937L1371.3,18.783L1372.73,18.629L1373.8,18.706L1374.87,18.86L1375.94,19.129L1377.37,19.091L1378.44,18.86L1379.52,18.744L1380.94,18.783L1382.02,18.822L1383.09,18.86L1384.52,18.899L1385.59,18.937L1386.66,18.976L1389.16,18.976L1390.23,18.937L1391.66,18.86L1392.73,18.937L1393.81,18.783L1394.88,18.591L1396.31,18.86L1397.38,19.207L1398.45,19.322L1399.88,19.36L1400.95,19.399L1402.02,19.399L1403.45,19.129L1404.52,18.822L1405.6,18.822L1407.03,18.899L1408.1,19.052L1409.17,19.091L1410.6,18.321L1411.67,17.551L1412.74,17.436L1414.17,18.129L1415.25,18.86L1416.31,19.592L1417.39,19.861L1418.82,19.823L1419.89,19.091L1420.96,18.244L1422.39,17.474L1423.46,17.513L1424.53,18.706L1425.96,17.744L1427.04,17.205L1428.11,17.321L1429.54,18.167L1430.61,18.052L1431.68,17.821L1433.11,17.282L1434.18,16.935L1435.25,17.36L1436.68,18.014L1437.75,17.667L1438.83,17.628L1439.9,18.244L1441.33,19.091L1442.4,19.707L1443.47,19.592L1444.9,20.053L1445.97,20.092L1447.04,19.861L1448.47,19.63L1449.54,19.437L1450.62,19.207L1452.04,19.244L1453.12,19.36L1454.19,19.014L1455.62,18.706L1456.69,18.976L1457.76,18.899L1458.83,18.591L1460.26,18.668L1461.33,18.283L1462.41,18.052L1463.84,17.936L1464.91,17.821L1465.98,18.014L1467.41,18.244L1468.48,18.244L1469.55,18.129L1470.98,18.206L1472.06,18.244L1473.12,18.129L1474.55,17.975L1475.62,18.244L1476.7,18.668L1478.13,19.129L1479.2,19.322L1480.27,19.437L1481.34,19.515L1482.77,19.63L1483.85,19.938L1484.92,20.323L1486.35,19.938L1487.42,19.168L1488.49,19.091L1489.92,18.86L1490.99,18.744L1492.06,18.552L1493.49,18.399L1494.56,19.399L1495.63,19.976L1497.06,19.129L1498.14,18.899L1499.21,18.321L1500.64,17.321L1518.14,17.244L1519.57,16.859L1520.65,17.398L1521.72,18.283L1522.79,19.207L1524.22,19.437L1525.29,19.784L1526.36,19.014L1527.79,18.206L1528.87,18.822L1529.93,19.322L1531.36,18.86L1532.44,19.399L1533.51,19.976L1534.94,20.477L1536.01,19.399L1537.08,18.399L1538.51,17.474L1539.58,17.591L1540.65,18.514L1542.08,20.553L1543.16,20.515L1544.23,20.4L1545.3,19.476L1546.73,18.436L1547.8,17.628L1548.87,17.551L1550.3,18.591L1551.37,19.014L1552.44,18.86L1553.87,19.284L1554.95,19.437L1556.02,19.168L1557.45,19.129L1558.52,19.669L1559.59,20.4L1561.02,20.438L1562.09,20.13L1563.16,19.938L1564.6,19.823L1565.66,19.707L1566.74,18.822L1567.81,18.436L1570.31,18.436L1571.38,18.167L1572.81,17.859L1573.88,17.706L1574.95,17.744L1576.38,18.129L1577.45,18.475L1578.53,18.86L1579.95,18.706L1581.03,18.475L1582.1,18.206L1583.53,17.859L1584.6,17.474L1585.68,17.706L1586.74,18.436L1588.17,18.744L1589.25,18.399L1590.32,18.321L1591.75,18.937L1592.82,19.129L1593.89,18.475L1595.32,17.667L1596.39,17.821L1597.47,17.783L1598.89,17.744L1599.97,17.821L1601.04,18.014L1602.47,18.167L1603.54,18.244L1604.61,17.436L1606.04,17.36L1607.11,17.474L1608.18,17.36L1609.26,17.898L1610.68,18.436L1611.76,18.937L1612.83,19.476L1614.26,19.168L1615.33,18.475L1616.4,19.091L1617.83,19.976L1618.9,19.322L1619.98,18.399L1621.4,18.86L1622.47,18.937L1623.55,18.668L1624.98,18.822L1626.05,19.476L1627.12,20.207L1628.55,19.938L1629.62,19.515L1630.69,19.129L1631.77,19.168L1633.19,19.014L1634.27,18.822L1635.34,18.783L1636.77,18.706L1637.84,18.244L1638.91,18.014L1640.34,18.206L1641.41,18.629L1642.48,19.052L1643.91,19.476L1644.98,19.592L1646.06,19.322L1647.49,18.668L1648.56,18.206L1649.63,18.052L1650.7,17.398L1652.13,16.204L1653.2,15.704L1654.27,16.782L1655.7,18.09L1656.78,18.36L1657.85,18.668L1659.28,18.976L1660.35,19.36L1661.42,19.707L1662.85,19.707L1663.92,19.823L1664.99,19.9L1666.42,19.976L1668.57,20.13L1669.99,20.092L1671.07,19.976L1672.14,19.861L1673.21,19.745L1674.64,19.63L1675.71,19.745L1676.78,19.553L1678.21,19.36L1679.28,19.091L1680.36,18.552L1681.78,17.628L1682.86,17.744L1683.93,18.399L1685.36,18.822L1686.43,19.091L1687.5,19.322L1688.93,19.553L1690,19.515L1691.07,19.322L1692.51,18.976L1693.57,19.091L1694.65,19.515L1695.72,19.515L1697.15,20.13L1698.22,19.592L1699.29,19.592L1700.72,20.053L1701.8,18.937L1702.87,18.629L1704.3,19.207L1705.36,18.937L1706.44,18.206L1707.87,18.129L1708.94,18.822L1710.01,18.976L1711.44,19.091L1712.51,19.207L1713.59,19.322L1714.65,19.322L1716.09,19.284L1717.16,19.207L1718.23,19.207L1719.66,19.244L1720.73,19.284L1721.8,19.322L1723.23,19.36L1724.3,19.399L1725.38,19.244L1726.81,19.129L1727.88,18.976L1728.95,18.822L1730.38,18.591L1731.45,18.206L1732.52,17.628L1733.95,17.628L1735.02,17.398L1736.09,17.282L1737.17,17.744L1738.6,17.975L1739.67,18.129L1740.74,18.283L1742.17,18.436L1743.24,18.552L1744.31,18.629L1745.74,18.744L1746.81,18.86L1747.88,18.976L1749.32,19.091L1750.38,19.129L1751.46,19.091L1752.89,19.014L1753.96,18.976L1755.03,18.899L1756.46,18.86L1757.53,18.822L1759.68,18.822L1761.11,18.86L1762.17,18.86L1763.25,18.899L1764.68,18.937L1766.82,18.937L1768.25,18.976L1772.9,18.976L1773.97,19.014L1784.69,19.014L1785.76,19.052L1789.33,19.052L1790.76,19.014L1794.33,19.014L1795.4,18.976L1797.91,18.976L1798.98,18.937L1800.05,18.937L1801.12,18.976L1804.69,18.976L1806.12,19.014L1811.84,19.014L1813.27,19.052L1818.98,19.052L1820.42,19.091L1821.49,19.091L1822.56,19.129L1823.63,19.129L1825.06,19.168L1833.28,19.168L1834.35,19.129L1837.92,19.129L1839.35,19.091L1840.42,19.052L1841.5,18.976L1842.57,18.937L1844,18.899L1845.07,18.899L1846.14,18.937L1847.57,18.937L1848.64,18.976L1849.71,18.976L1851.14,19.014L1871.15,19.014L1872.22,19.052L1875.8,19.052L1877.23,19.014L1885.44,19.014L1886.51,18.976L1900.81,18.976L1901.88,19.014L1904.38,19.014L1905.45,19.052L1906.88,19.052L1907.95,19.091L1909.03,19.129L1912.6,19.129L1913.67,19.168L1916.17,19.168L1917.24,19.207L1919.74,19.207L1920.82,19.244L1922.24,19.244L1923.32,19.284L1925.82,19.284L1926.89,19.322L1927.96,19.322L1929.03,19.36L1931.53,19.36L1932.61,19.399L1934.04,19.399L1935.11,19.437L1937.61,19.437L1938.68,19.476L1939.75,19.476L1941.18,19.515L1942.25,19.553L1943.32,19.592L1944.76,19.553L1945.83,19.399L1946.9,19.244L1948.33,19.129L1949.4,19.091L1950.47,19.091L1951.54,18.976L1952.97,18.822L1954.04,18.706L1955.11,18.822L1956.54,18.899L1957.62,18.976L1958.69,18.937L1960.12,18.899L1961.19,18.783L1962.26,18.436L1963.69,18.244L1964.76,18.36L1965.84,18.36L1967.26,18.399L1968.33,18.283L1969.41,18.321L1970.84,18.36L1971.91,18.09L1972.98,17.936L1974.05,17.936L1975.48,17.975L1976.55,18.052L1977.62,18.129L1979.05,18.167L1982.63,18.167L1983.7,18.09L1984.77,17.936L1986.2,17.744L1987.27,17.591L1988.34,17.513L1989.77,17.474L1990.84,17.436L1991.92,17.398L1992.99,17.398L1994.42,17.36L1995.49,17.36L1996.56,17.321L1997.99,17.244L1999.06,17.166L2000.13,17.128L2001.56,17.09L2003.71,17.09L2005.14,17.051L2006.21,17.051L2007.28,17.013L2008.71,16.82L2009.78,16.705L2010.85,16.628L2012.28,16.628L2013.35,16.666L2014.43,16.628L2015.5,16.589L2016.93,16.513L2018,16.474L2019.07,16.435L2020.5,16.397L2021.57,16.397L2022.65,16.359L2024.07,16.32L2025.14,16.166L2026.22,16.051L2027.65,15.973L2028.72,15.897L2029.79,15.704L2031.22,15.589L2032.29,15.627L2033.36,15.627L2034.79,15.742L2035.86,15.897L2036.94,15.935L2038.01,16.012L2039.44,15.973L2040.51,15.935L2041.58,15.858L2043.01,15.82L2044.08,15.782L2046.58,15.782L2047.65,15.82L2048.73,15.897L2050.16,15.82L2051.23,15.666L2052.3,15.55L2053.73,15.512L2055.87,15.512L2056.94,15.589L2058.38,15.55L2059.44,15.434L2060.52,15.474L2061.95,15.474L2063.02,15.204L2064.09,15.05L2065.52,15.127L2066.59,15.204L2067.66,15.242L2069.09,15.204L2070.16,15.127L2071.24,14.973L2072.67,14.858L2073.74,14.781L2074.81,14.896L2076.24,14.781L2077.31,14.742L2078.38,14.588L2079.46,14.703L2080.88,14.626L2081.95,14.626L2083.03,14.511L2084.46,14.318L2085.53,14.357L2086.6,14.318L2088.03,14.28L2089.1,14.165L2090.17,14.203L2091.6,14.165L2092.67,14.203L2093.75,14.203L2095.17,14.088L2096.25,14.049L2097.32,14.088L2098.75,14.088L2099.82,14.011L2100.89,13.857L2101.96,13.972L2103.39,14.126L2105.54,14.126L2106.97,14.049L2108.04,13.933L2109.11,13.933L2110.54,13.895L2111.61,13.933L2112.68,13.741L2114.11,13.857L2115.18,14.011L2116.25,13.78L2117.68,13.741L2118.76,13.78L2119.83,14.011L2120.9,13.933L2122.33,13.933L2123.4,13.741L2124.47,13.625L2125.9,13.549L2126.97,13.433L2128.05,13.279L2129.48,13.203L2130.55,13.164L2131.62,13.279L2133.05,13.087L2134.12,12.74L2135.19,12.702L2136.62,12.587L2137.69,12.24L2138.76,11.855L2140.19,11.393L2141.27,11.086L2142.34,10.547L2143.41,10.085L2144.84,9.084L2145.91,8.545L2146.98,8.43L2148.41,8.006L2149.48,7.583L2150.56,7.699L2151.98,7.852L2153.06,7.621L2154.13,7.583L2155.56,7.275L2156.63,6.852L2157.7,6.62L2159.13,6.89L2160.2,7.236L2161.27,7.506L2162.7,7.66L2163.78,7.852L2164.85,7.583L2165.92,7.236L2167.35,6.775L2168.42,6.428L2169.49,5.967L2170.92,5.543L2171.99,5.004L2173.06,4.312L2174.49,3.888L2175.57,3.388L2176.64,2.618L2178.07,2.04L2179.14,1.156L2180.21,0.463L2181.64,-0.23L2182.71,-1.231L2183.78,-1.962L2184.86,-2.809L2186.29,-3.271L2187.35,-4.155L2188.43,-5.464L2189.86,-6.965L2190.93,-7.274L2192,-7.543L2193.43,-7.658L2194.5,-7.774L2195.58,-7.851L2197,-7.966L2198.08,-8.043L2199.15,-8.12L2200.58,-8.197L2201.65,-8.274L2202.72,-8.39L2204.15,-8.505L2205.22,-8.621L2206.29,-8.775L2207.37,-8.89L2208.79,-9.006L2209.87,-9.006L2210.94,-9.159L2212.37,-9.314L2213.44,-9.467L2214.51,-9.622L2215.94,-9.659L2217.01,-9.698L2219.51,-9.698L2220.59,-9.737L2221.66,-9.89L2223.08,-10.045L2224.16,-10.199L2225.23,-10.352L2226.66,-10.507L2227.73,-10.66L2228.81,-10.892L2229.87,-11.045L2231.3,-11.199L2232.38,-11.353L2233.45,-11.507L2234.88,-11.661L2235.95,-11.854L2237.02,-12.007L2238.45,-12.161L2239.52,-12.354L2240.6,-12.508L2242.02,-12.662L2243.1,-12.816L2244.16,-13.008L2245.6,-13.162L2246.67,-13.316L2247.74,-13.47L2248.81,-13.624L2250.24,-13.778L2251.31,-13.932L2252.39,-14.125L2253.81,-14.278L2254.89,-14.433L2255.95,-14.586L2257.39,-14.74L2258.46,-14.894L2259.53,-15.048L2260.96,-15.202L2262.03,-15.471L2263.1,-15.818L2264.53,-16.126L2265.6,-16.472L2266.68,-16.78L2268.1,-17.088L2269.18,-17.396L2270.25,-17.704L2271.32,-18.012L2272.75,-18.32L2273.82,-18.589L2274.89,-18.82L2279.89,-18.82L2280.97,-18.859L2290.62,-18.859" style="fill:none;fill-rule:nonzero;stroke:rgb(89,89,92);stroke-width:0.65px;"/>
        </g>
    </g>
</svg>
