<?xml version="1.0" encoding="UTF-8" standalone="no"?>
<!DOCTYPE svg PUBLIC "-//W3C//DTD SVG 1.1//EN" "http://www.w3.org/Graphics/SVG/1.1/DTD/svg11.dtd">
<svg width="100%" height="100%" viewBox="0 0 10048 1220" version="1.1" xmlns="http://www.w3.org/2000/svg" xmlns:xlink="http://www.w3.org/1999/xlink" xml:space="preserve" xmlns:serif="http://www.serif.com/" style="fill-rule:evenodd;clip-rule:evenodd;">
    <g transform="matrix(4.16667,0,0,4.16667,252.694,700.314)">
        <g id="depth-section" serif:id="depth section">
            <path d="M0,12.163L1.069,12.74L2.146,13.356L3.572,13.856L4.646,14.241L5.717,14.626L7.147,15.011L8.218,15.357L9.289,15.704L10.362,16.012L11.79,16.204L12.863,16.242L13.935,16.282L15.365,16.282L16.434,16.319L17.507,16.358L18.935,16.397L20.011,16.474L21.081,16.55L22.512,16.627L23.58,16.705L24.653,16.781L26.081,16.897L27.154,17.051L28.228,17.205L29.297,17.359L30.729,17.474L31.798,17.59L32.871,17.667L34.299,17.782L35.372,17.975L36.445,18.128L37.876,18.244L38.944,18.167L40.016,18.09L41.446,18.051L42.52,18.128L43.593,18.398L45.021,18.591L46.092,18.591L47.162,18.667L48.593,18.706L49.664,18.667L50.737,18.783L51.808,19.168L53.236,19.591L54.31,20.052L55.38,20.13L56.811,20.13L57.879,20.091L58.955,20.091L60.383,20.207L61.456,20.322L62.527,20.437L63.957,20.553L65.028,20.707L66.1,20.823L67.527,20.862L68.601,20.784L69.674,20.668L71.102,20.553L72.175,20.476L73.243,20.361L74.317,20.168L75.745,19.937L76.82,19.706L77.892,19.514L79.321,19.399L80.391,19.514L81.461,19.668L82.892,19.822L83.965,19.861L85.038,19.899L86.466,19.976L87.537,20.052L88.608,20.091L90.038,20.168L91.109,20.207L92.183,20.091L93.254,19.976L94.687,19.899L95.755,19.899L96.826,19.861L98.256,19.745L99.325,19.629L100.402,19.629L101.828,19.784L102.901,19.937L103.973,20.207L105.403,20.322L106.474,20.361L107.545,20.476L108.973,20.515L110.046,20.553L111.119,20.592L112.55,20.63L113.621,20.668L114.689,20.707L115.763,20.746L117.19,20.668L118.267,20.592L119.337,20.553L120.768,20.63L121.836,20.707L122.909,20.746L124.337,20.668L125.41,20.746L126.483,20.862L127.912,20.976L128.985,20.976L130.054,20.938L131.484,20.938L132.555,20.9L136.132,20.9L137.2,20.938L138.271,21.015L139.702,21.093L140.775,21.169L141.849,21.246L143.276,21.323L144.348,21.169L145.418,21.093L146.849,21.13L147.92,21.093L148.993,21.015L150.419,21.093L151.492,21.208L152.565,21.169L153.995,21.015L155.066,20.823L158.639,20.823L159.712,20.784L160.783,20.746L162.213,20.938L163.284,21.169L164.355,21.361L165.783,21.554L166.856,21.708L167.93,21.938L169.357,22.093L170.431,22.093L171.499,22.131L172.93,22.131L174.001,22.17L175.076,22.17L176.504,22.208L177.577,22.17L178.646,21.938L179.717,21.746L181.147,21.669L182.221,21.631L183.294,21.592L184.722,21.361L185.795,21.4L186.864,21.554L188.294,21.477L189.365,21.477L190.438,21.631L191.866,21.785L192.942,21.977L194.011,22.093L195.441,22.093L196.512,22.131L197.583,22.016L199.014,21.746L200.087,21.631L201.157,21.631L202.229,21.438L203.659,21.438L204.729,21.631L205.803,21.785L208.302,21.785L209.375,21.669L210.806,21.554L211.876,21.592L212.945,21.669L214.378,21.516L215.446,21.4L216.521,21.477L217.95,21.477L219.023,21.4L220.094,21.516L221.165,21.631L222.593,21.631L223.666,21.669L224.739,21.708L226.168,21.708L227.241,21.746L228.31,21.746L229.74,21.669L230.811,21.554L231.884,21.477L233.312,21.361L234.388,21.361L235.456,21.438L236.887,21.554L237.958,21.631L239.031,21.746L240.459,21.823L241.532,21.977L242.604,22.016L243.674,22.054L248.677,22.054L249.748,22.093L250.821,22.093L252.251,22.131L253.322,22.131L254.394,22.17L255.823,22.208L256.895,22.285L257.968,22.401L259.396,22.516L260.469,22.67L261.54,22.786L262.97,22.67L264.039,22.516L265.112,22.362L266.186,22.208L267.613,22.093L268.687,21.977L269.755,21.901L271.186,21.669L272.257,21.669L273.332,21.746L274.76,22.016L275.833,22.246L276.902,22.593L278.335,22.939L279.403,23.094L280.477,22.978L281.904,22.746L282.978,22.631L284.051,22.746L285.12,22.862L286.55,22.862L287.621,22.516L288.694,22.131L290.122,21.785L291.198,21.438L292.267,21.477L293.697,21.785L294.768,22.285L295.839,22.554L297.269,22.362L298.343,22.131L299.413,22.016L300.841,21.592L301.914,20.207L302.985,18.821L304.416,18.013L305.484,17.975L306.558,18.013L307.631,18.591L309.062,19.399L310.132,19.514L311.201,19.052L312.634,18.976L313.702,18.821L314.777,18.475L316.206,17.898L317.279,17.012L318.35,16.666L319.78,17.667L320.849,18.667L321.922,20.015L323.351,21.438L324.424,21.746L325.497,21.938L326.927,22.131L327.996,22.17L329.066,22.208L330.14,22.324L331.568,22.439L332.644,22.439L333.712,22.362L335.145,22.285L336.214,22.246L337.287,22.17L338.715,22.131L339.788,22.016L340.861,21.862L342.287,21.669L343.36,21.554L344.432,21.823L345.861,22.554L346.933,23.555L348.003,24.287L349.077,24.248L350.507,24.095L351.578,24.017L352.648,24.133L354.079,23.787L355.152,23.132L356.224,22.478L357.651,21.938L358.725,21.592L359.796,21.169L361.226,20.63L362.295,20.361L363.368,20.976L364.796,21.516L365.869,22.093L366.942,22.746L368.373,23.517L369.443,23.979L370.513,24.055L371.588,23.902L375.16,23.902L376.591,23.825L377.659,23.747L378.732,23.747L380.16,23.787L381.233,23.825L382.307,23.902L383.735,23.979L387.307,23.979L388.378,23.94L389.454,23.94L390.882,23.902L391.955,23.902L393.023,23.863L394.095,23.863L395.524,23.902L396.598,23.979L397.672,24.095L399.097,24.133L400.17,24.171L401.241,24.209L402.672,24.287L403.742,24.364L404.813,24.364L406.241,24.248L407.317,24.171L408.388,24.055L409.818,23.979L411.958,23.979L413.033,23.902L414.462,23.747L415.535,23.632L416.605,23.517L420.178,23.517L421.606,23.325L422.68,23.132L423.753,22.939L425.183,22.439L426.252,21.785L427.322,22.17L428.753,22.554L429.824,22.978L430.899,23.363L432.327,23.594L433.4,23.825L434.47,24.017L435.543,24.287L436.971,24.556L438.044,24.595L439.117,24.595L440.543,24.517L441.616,24.44L442.687,24.402L444.117,24.017L446.259,22.401L447.687,22.439L448.763,23.209L449.834,23.902L451.264,24.095L452.335,24.055L453.408,24.017L454.834,23.979L455.907,23.825L456.98,23.594L458.052,23.325L459.481,23.209L460.551,23.132L461.624,23.055L463.052,23.017L464.125,22.939L465.198,22.824L466.629,22.631L467.699,22.439L468.769,21.708L470.198,21.13L471.272,20.746L472.345,21.13L473.773,22.362L474.847,23.902L475.915,24.595L476.988,24.941L478.416,25.288L479.489,25.288L480.563,25.326L481.99,25.248L483.062,25.056L484.133,24.479L485.563,23.517L486.634,22.362L487.71,21.477L489.138,20.746L490.211,20.245L491.279,19.706L492.71,19.861L493.78,20.862L494.854,21.669L496.282,23.555L497.353,25.21L498.426,25.403L499.497,25.595L500.928,25.711L501.998,25.865L503.069,25.711L504.497,25.557L505.573,25.403L506.644,25.288L508.074,25.479L509.146,25.595L510.214,25.634L511.645,25.479L512.718,25.326L513.791,25.172L515.219,25.056L516.292,24.055L517.36,22.824L518.793,21.746L519.862,20.668L520.936,20.592L522.009,21.208L523.438,22.054L524.51,22.324L525.578,22.67L527.009,23.286L528.079,23.863L529.155,24.44L530.583,24.556L531.656,24.71L532.725,24.826L534.155,24.902L535.227,25.018L536.3,25.133L537.728,25.288L538.801,25.364L539.872,25.288L540.942,25.21L542.373,25.133L543.444,25.095L544.518,25.133L545.943,25.172L547.021,25.172L548.09,25.056L549.52,24.826L550.591,24.595L551.664,24.402L553.092,24.209L554.163,24.055L555.236,23.747L556.664,23.787L557.737,24.44L558.809,24.748L560.239,24.979L561.308,24.826L562.381,24.672L563.454,24.287L564.885,24.095L565.955,24.517L567.024,24.788L568.454,24.826L569.527,24.902L570.601,24.979L572.028,25.018L573.103,25.095L574.171,25.172L575.604,25.21L576.672,25.172L577.745,25.172L579.173,25.133L581.319,25.133L582.75,25.095L583.818,25.095L584.89,25.172L585.965,25.21L587.394,25.172L588.467,25.172L589.535,25.133L590.966,25.018L592.036,25.056L593.109,25.056L594.538,25.095L595.611,25.056L596.682,24.941L598.11,24.826L599.184,24.71L600.254,24.672L601.685,24.595L602.753,24.864L603.829,24.941L604.899,25.018L606.33,25.095L607.401,25.21L608.47,25.326L609.9,25.441L610.974,25.479L614.548,25.479L615.616,25.441L617.049,25.403L618.117,25.326L619.191,25.248L620.619,25.172L621.694,25.095L622.766,24.979L624.195,24.864L625.265,24.748L626.335,23.517L627.411,22.401L628.839,22.208L629.912,22.824L630.98,23.671L632.411,24.556L633.482,24.133L634.556,23.247L635.983,24.209L637.057,25.172L638.128,26.172L639.561,26.019L640.629,24.941L641.7,23.902L643.13,22.862L644.199,22.285L645.276,22.709L646.702,23.402L647.775,23.709L648.847,24.517L649.92,24.556L651.348,24.055L652.419,24.44L653.492,25.518L654.92,25.133L655.993,25.557L657.064,25.98L658.495,25.595L659.563,26.249L660.637,25.248L662.064,24.133L663.141,24.017L664.211,24.595L665.642,24.788L666.71,25.056L667.783,26.057L668.856,25.711L670.284,25.018L671.357,24.364L672.427,24.133L673.859,24.826L674.928,25.133L676.001,25.711L677.429,26.519L678.502,26.403L679.575,25.673L681.006,24.788L682.074,24.325L683.146,24.71L684.576,25.095L685.649,25.172L686.723,25.403L688.15,25.673L689.222,25.788L690.292,25.826L691.365,25.326L692.794,24.479L693.867,23.517L694.937,23.825L696.366,24.788L697.439,25.403L698.51,25.095L699.94,25.172L701.009,25.557L702.087,26.557L703.513,27.52L704.586,27.019L705.657,27.366L707.087,26.327L708.158,24.672L709.229,24.672L710.657,26.48L711.73,26.749L712.804,26.096L713.875,24.248L715.305,23.787L716.373,25.248L717.446,24.517L718.875,24.287L719.95,25.018L721.021,25.21L722.451,26.134L723.521,26.865L724.591,26.904L726.021,26.365L727.095,25.903L728.168,25.518L729.596,25.364L730.669,25.788L731.738,25.441L732.812,25.133L734.239,25.903L735.312,26.673L736.386,26.365L737.816,25.518L738.885,25.288L739.956,25.826L741.386,26.327L742.457,26.403L743.532,26.48L744.961,26.904L746.031,27.404L747.103,27.366L748.533,26.712L749.604,25.826L750.677,25.98L752.103,26.249L753.176,26.172L754.249,25.826L755.32,25.903L756.75,25.21L757.819,24.055L758.893,23.402L760.32,23.517L761.396,23.363L762.467,22.862L763.897,21.592L764.968,20.746L766.039,21.669L767.467,23.325L768.54,23.671L769.613,24.902L771.042,25.673L772.115,23.517L773.184,21.361L774.614,20.784L775.685,21.901L776.758,23.825L777.831,26.096L779.262,26.557L780.33,25.479L781.401,24.941L782.832,25.557L783.905,23.825L784.979,22.285L786.406,21.285L787.478,20.207L788.548,20.592L789.979,21.13L791.05,21.669L792.123,21.938L793.551,21.977L794.622,22.246L795.695,22.516L796.766,22.786L798.196,23.132L799.265,23.555L800.338,24.055L801.769,24.517L802.842,23.94L803.913,23.402L805.343,23.055L806.414,23.44L807.484,23.902L808.913,24.364L809.986,24.595L811.06,24.633L812.487,24.902L813.561,25.172L814.629,24.479L816.06,24.133L817.131,24.133L819.277,23.825L820.705,23.709L821.776,24.055L822.85,24.44L824.277,24.595L825.351,24.44L826.424,23.787L827.852,23.632L828.925,23.363L829.994,23.517L831.424,23.709L832.495,23.863L833.568,23.787L834.999,24.055L836.067,24.556L837.141,25.056L838.568,25.518L839.642,25.711L840.715,25.326L841.784,25.326L843.217,25.056L844.287,24.788L845.358,24.325L846.788,23.787L847.859,23.286L848.933,22.978L850.358,23.094L851.432,23.44L852.505,24.209L853.933,24.979L855.006,25.673L856.079,25.595L857.508,25.557L858.578,25.634L859.649,25.479L860.723,24.556L862.153,22.478L863.224,20.592L864.295,18.667L865.723,17.743L866.796,18.244L867.869,20.284L869.298,22.862L870.371,25.557L871.439,25.441L872.87,25.403L873.943,25.364L875.014,25.326L876.444,25.288L877.516,25.248L878.586,25.095L880.019,24.902L881.088,24.71L882.161,24.517L883.231,24.325L884.662,24.133L885.735,23.94L886.804,23.825L888.234,23.709L889.306,23.632L890.379,23.517L891.809,23.44L892.878,22.746L893.951,21.285L895.379,20.361L896.452,20.476L897.525,21.053L898.953,21.669L900.026,21.4L901.095,20.976L902.525,20.784L903.599,21.246L904.67,21.631L905.743,22.285L907.169,22.824L908.242,23.055L909.315,23.132L910.743,23.132L911.816,23.017L912.885,23.055L914.317,23.209L915.389,23.209L916.46,23.171L917.89,23.055L918.961,22.978L920.034,22.862L921.465,22.824L922.533,22.67L923.606,22.439L925.034,22.324L926.107,22.439L927.181,22.67L928.25,22.67L929.68,22.516L930.751,22.439L931.824,22.516L933.255,22.554L934.325,22.554L935.396,22.478L936.824,22.401L937.897,22.439L938.971,22.439L940.398,22.478L941.473,22.478L942.543,22.516L943.971,22.554L945.044,22.593L946.115,22.554L947.188,21.438L948.616,20.322L949.687,19.976L950.761,20.938L952.188,22.17L953.262,23.017L954.335,22.939L955.764,22.862L956.834,22.746L957.905,22.554L959.336,22.478L962.91,22.478L963.979,22.324L965.052,21.901L966.48,21.361L967.554,20.784L968.627,20.322L969.695,19.937L971.126,20.746L972.199,21.785L973.27,22.131L974.7,22.054L975.771,21.977L976.842,21.938L978.274,21.977L979.344,21.901L980.417,21.785L981.845,21.669L983.991,21.823L985.417,21.901L986.49,21.862L987.562,21.823L988.991,21.631L990.064,21.669L991.133,22.054L992.207,22.67L993.635,21.631L994.708,20.015L995.781,19.168L997.209,20.052L998.282,21.053L999.351,22.324L1000.78,22.093L1001.85,22.246L1002.93,22.17L1004.36,21.938L1005.43,21.746L1006.5,21.669L1007.93,21.708L1009,21.631L1010.07,21.592L1011.14,21.554L1012.57,21.669L1013.64,21.862L1014.72,22.016L1016.15,22.093L1017.22,21.977L1018.29,21.785L1019.72,21.631L1020.79,21.669L1021.86,21.938L1023.29,21.631L1024.36,21.977L1025.44,22.093L1026.87,22.362L1029.01,22.978L1030.44,23.132L1031.51,23.44L1032.58,23.787L1033.65,24.017L1035.08,24.055L1036.15,23.902L1037.23,23.787L1038.65,23.709L1039.73,23.825L1040.8,23.363L1042.23,22.939L1043.3,23.747L1044.37,24.287L1045.8,23.478L1046.87,24.055L1047.94,24.171L1049.38,24.248L1050.44,24.209L1051.52,24.171L1052.95,24.171L1054.02,24.133L1055.09,24.055L1056.16,24.017L1057.59,23.902L1058.66,23.709L1059.74,23.517L1061.17,23.863L1062.23,23.94L1063.31,24.017L1064.74,24.017L1065.81,23.979L1066.88,23.902L1068.31,23.863L1069.38,23.94L1070.45,24.055L1071.88,24.017L1072.96,23.902L1074.03,23.979L1075.1,24.095L1076.53,24.171L1077.6,24.248L1078.67,24.209L1080.1,24.209L1082.25,24.287L1083.67,24.209L1084.75,24.133L1085.82,23.979L1087.25,23.709L1088.32,23.478L1089.39,23.325L1090.82,23.171L1091.89,23.055L1092.96,23.132L1094.39,23.286L1095.46,23.44L1096.54,23.363L1097.61,23.171L1099.04,23.055L1100.11,23.094L1101.18,23.132L1102.61,23.171L1103.68,23.286L1104.75,23.325L1106.19,23.325L1107.26,23.286L1108.33,23.171L1109.76,23.017L1110.83,22.824L1111.9,22.554L1113.33,22.362L1114.4,22.208L1115.47,22.093L1116.9,21.977L1117.98,22.054L1119.05,22.17L1120.12,22.285L1121.55,22.439L1122.62,22.554L1123.69,22.67L1125.12,22.786L1126.19,22.901L1127.26,23.017L1128.69,22.939L1129.77,22.862L1130.84,22.786L1132.27,22.709L1133.34,22.593L1134.41,22.554L1135.84,22.285L1136.91,22.093L1137.98,21.901L1139.06,22.016L1140.48,22.17L1141.56,22.324L1142.63,22.478L1144.06,22.554L1145.13,22.554L1146.2,22.401L1147.63,22.324L1148.7,22.478L1149.77,22.67L1151.2,22.67L1152.28,22.593L1153.35,22.516L1154.77,22.478L1155.85,22.478L1156.92,22.554L1158.35,22.593L1159.42,22.439L1160.49,22.362L1161.56,22.285L1162.99,22.401L1164.07,22.439L1165.14,22.401L1166.57,22.439L1167.64,22.554L1168.71,22.709L1170.14,22.746L1171.21,22.709L1172.28,22.709L1173.71,22.631L1174.79,22.478L1175.85,22.324L1177.29,22.208L1178.36,22.208L1179.43,22.246L1180.86,22.478L1181.93,22.631L1183,22.786L1184.07,22.746L1185.5,22.67L1186.58,22.631L1187.65,22.554L1189.08,22.401L1190.15,22.362L1191.22,22.324L1192.65,22.285L1193.72,22.285L1194.79,22.208L1196.22,22.17L1197.29,22.17L1198.37,22.131L1199.79,22.131L1200.87,22.093L1201.94,22.093L1203.01,22.054L1204.44,21.977L1205.51,21.938L1206.58,21.901L1208.01,21.823L1209.09,21.785L1210.16,21.746L1211.58,21.669L1212.66,21.554L1213.73,21.438L1215.16,21.361L1216.23,21.285L1217.3,21.246L1219.8,21.246L1220.88,21.285L1222.31,21.285L1223.38,21.438L1224.45,21.516L1225.52,21.477L1226.95,21.516L1228.02,21.516L1229.09,21.438L1230.52,21.323L1231.59,21.208L1232.66,21.323L1234.1,21.516L1235.17,21.592L1236.24,21.631L1237.67,21.669L1238.74,21.669L1239.81,21.708L1241.24,21.669L1242.31,21.554L1243.38,21.438L1244.81,21.323L1245.89,21.246L1246.96,21.13L1248.03,21.053L1249.46,21.015L1250.53,20.976L1251.6,20.9L1253.03,20.976L1254.1,21.053L1256.6,21.053L1257.68,21.093L1258.75,21.13L1260.18,21.208L1261.25,21.208L1262.32,21.13L1263.75,21.093L1264.82,21.13L1265.9,21.208L1266.97,21.015L1268.39,20.9L1269.47,20.784L1270.54,20.668L1271.97,20.707L1273.04,20.746L1274.11,20.592L1275.54,20.862L1276.61,20.784L1277.69,20.707L1279.11,20.707L1280.19,20.668L1281.26,19.745L1282.69,19.475L1283.76,18.629L1284.83,18.205L1286.26,18.475L1287.33,19.437L1288.4,19.784L1289.48,20.63L1290.9,21.053L1291.98,21.13L1293.05,21.208L1294.48,21.285L1295.55,21.285L1296.62,21.246L1298.05,21.13L1299.12,21.053L1300.19,21.13L1303.77,21.13L1305.2,21.093L1306.27,20.976L1307.34,20.9L1308.77,20.862L1309.84,20.823L1310.91,20.668L1311.98,20.63L1313.41,20.823L1314.49,20.9L1315.56,20.976L1316.99,21.053L1318.06,20.9L1319.13,20.784L1320.56,20.746L1321.63,20.707L1325.2,20.707L1326.28,20.668L1327.71,20.668L1328.78,20.746L1329.85,20.784L1330.92,20.784L1332.35,20.707L1333.42,20.63L1334.5,20.515L1335.92,20.476L1337,20.515L1338.07,20.553L1339.5,20.592L1340.57,20.592L1341.64,20.862L1343.07,20.746L1344.14,20.592L1345.21,19.976L1346.64,20.13L1347.71,20.091L1348.79,20.515L1350.22,20.515L1351.29,20.63L1352.36,20.976L1353.43,20.976L1354.86,20.746L1355.93,20.63L1357.01,20.63L1358.43,20.746L1359.5,20.862L1360.58,21.053L1362.01,21.13L1363.08,20.938L1364.15,20.784L1365.58,20.592L1366.65,20.668L1367.72,20.746L1369.15,20.707L1370.23,20.592L1371.3,20.476L1372.73,20.399L1373.8,20.322L1374.87,20.322L1375.94,20.284L1380.94,20.284L1382.02,20.245L1386.66,20.245L1388.09,20.207L1389.16,20.168L1390.23,20.091L1391.66,20.015L1392.73,20.13L1393.81,20.168L1394.88,20.13L1399.88,20.13L1400.95,20.168L1402.02,20.207L1403.45,20.284L1404.52,20.284L1405.6,20.245L1407.03,20.168L1408.1,20.207L1410.6,20.207L1411.67,20.091L1412.74,19.784L1415.25,19.784L1416.31,19.899L1417.39,19.861L1418.82,19.784L1419.89,19.706L1420.96,19.784L1422.39,19.591L1423.46,19.514L1424.53,19.475L1425.96,19.475L1427.04,19.437L1429.54,19.437L1430.61,19.514L1431.68,19.514L1433.11,19.475L1434.18,19.437L1435.25,19.514L1436.68,19.553L1437.75,19.553L1438.83,19.591L1439.9,19.745L1447.04,19.745L1448.47,19.706L1449.54,19.706L1450.62,19.668L1452.04,19.745L1453.12,19.822L1458.83,19.822L1460.26,19.745L1461.33,19.706L1462.41,19.822L1463.84,19.899L1464.91,19.937L1465.98,19.899L1470.98,19.899L1472.06,19.937L1475.62,19.937L1476.7,19.976L1481.34,19.976L1482.77,20.015L1483.85,20.015L1484.92,19.976L1486.35,19.937L1487.42,19.899L1489.92,19.899L1490.99,19.706L1492.06,19.553L1527.79,19.706L1528.87,19.822L1529.93,19.899L1531.36,19.976L1532.44,19.976L1533.51,20.015L1534.94,20.015L1536.01,19.976L1537.08,19.861L1538.51,19.861L1539.58,19.899L1540.65,19.899L1542.08,19.976L1543.16,20.13L1545.3,20.13L1546.73,20.168L1548.87,20.168L1550.3,20.207L1551.37,20.207L1552.44,20.245L1553.87,20.245L1554.95,20.168L1556.02,20.091L1557.45,20.168L1558.52,20.245L1559.59,20.284L1570.31,20.284L1571.38,20.245L1572.81,20.207L1573.88,19.976L1574.95,19.937L1576.38,20.052L1577.45,20.052L1578.53,19.976L1579.95,19.899L1581.03,19.822L1582.1,19.706L1583.53,19.553L1584.6,19.591L1585.68,19.822L1586.74,19.899L1588.17,19.937L1589.25,19.937L1590.32,19.976L1591.75,20.015L1592.82,19.937L1593.89,19.784L1595.32,19.745L1597.47,19.745L1598.89,19.784L1602.47,19.784L1603.54,19.706L1604.61,19.668L1606.04,19.706L1607.11,19.937L1608.18,19.976L1609.26,20.015L1611.76,20.015L1612.83,20.052L1614.26,20.052L1615.33,20.091L1616.4,20.052L1619.98,20.052L1621.4,20.015L1626.05,20.015L1627.12,19.976L1635.34,19.976L1636.77,19.937L1637.84,19.861L1638.91,19.822L1640.34,19.861L1641.41,19.937L1642.48,19.976L1643.91,19.976L1644.98,19.937L1646.06,19.899L1649.63,19.899L1650.7,19.706L1652.13,19.553L1653.2,19.206L1654.27,19.937L1655.7,19.899L1656.78,19.899L1657.85,19.861L1666.42,19.861L1667.49,20.015L1669.99,20.015L1671.07,19.976L1672.14,19.937L1673.21,19.899L1674.64,19.899L1675.71,19.861L1676.78,19.784L1678.21,19.706L1679.28,19.629L1686.43,19.629L1687.5,19.591L1694.65,19.591L1695.72,19.553L1697.15,19.514L1698.22,19.437L1699.29,19.475L1700.72,19.553L1701.8,19.514L1702.87,19.475L1705.36,19.475L1706.44,19.437L1720.73,19.437L1721.8,19.399L1723.23,19.322L1724.3,19.244L1725.38,19.284L1726.81,19.322L1727.88,19.36L1728.95,19.322L1730.38,19.206L1731.45,19.129L1735.02,19.129L1736.09,19.091L1737.17,19.052L1738.6,18.976L1739.67,18.936L1740.74,18.936L1742.17,18.976L1743.24,19.014L1745.74,19.014L1746.81,19.052L1752.89,19.052L1753.96,19.014L1762.17,19.014L1763.25,18.976L1766.82,18.976L1768.25,18.936L1771.82,18.936L1772.9,18.898L1775.4,18.898L1776.47,18.86L1778.61,18.86L1780.04,18.821L1782.19,18.821L1783.62,18.783L1785.76,18.783L1787.19,18.744L1789.33,18.744L1790.76,18.706L1792.9,18.706L1794.33,18.667L1795.4,18.667L1796.48,18.629L1797.91,18.629L1798.98,18.591L1800.05,18.591L1801.12,18.552L1803.62,18.552L1804.69,18.514L1806.12,18.514L1807.19,18.475L1808.27,18.475L1809.7,18.436L1810.77,18.436L1811.84,18.398L1814.34,18.398L1815.41,18.36L1816.84,18.36L1817.92,18.321L1818.98,18.321L1820.42,18.283L1822.56,18.283L1823.63,18.244L1825.06,18.244L1826.13,18.205L1828.63,18.205L1829.71,18.167L1833.28,18.167L1834.35,18.128L1836.85,18.128L1837.92,18.09L1840.42,18.09L1841.5,18.051L1844,18.051L1845.07,18.013L1847.57,18.013L1848.64,17.975L1851.14,17.975L1852.22,17.935L1854.71,17.935L1855.79,17.898L1858.29,17.898L1859.36,17.859L1860.43,17.859L1861.86,17.82L1864.01,17.82L1865.08,17.782L1867.58,17.782L1868.65,17.743L1871.15,17.743L1872.22,17.705L1873.65,17.705L1874.72,17.667L1877.23,17.667L1878.3,17.628L1879.37,17.628L1880.8,17.59L1881.87,17.59L1882.94,17.551L1885.44,17.551L1886.51,17.513L1887.59,17.513L1889.02,17.474L1890.09,17.474L1891.16,17.435L1893.66,17.435L1894.73,17.397L1896.16,17.397L1897.23,17.359L1899.73,17.359L1900.81,17.32L1905.45,17.32L1906.88,17.282L1911.52,17.282L1912.6,17.243L1916.17,17.243L1917.24,17.205L1922.24,17.205L1923.32,17.166L1926.89,17.166L1927.96,17.127L1932.61,17.127L1934.04,17.09L1938.68,17.09L1939.75,17.051L1941.18,17.012L1942.25,16.974L1943.32,16.935L1944.76,16.858L1945.83,16.82L1946.9,16.781L1948.33,16.705L1949.4,16.666L1950.47,16.589L1951.54,16.55L1952.97,16.512L1954.04,16.434L1955.11,16.397L1956.54,16.358L1957.62,16.319L1958.69,16.282L1960.12,16.204L1961.19,16.165L1962.26,16.127L1963.69,16.05L1964.76,16.012L1965.84,15.973L1967.26,15.934L1968.33,15.896L1969.41,15.857L1970.84,15.781L1971.91,15.742L1972.98,15.704L1974.05,15.665L1975.48,15.626L1976.55,15.588L1980.13,15.588L1981.2,15.665L1982.63,15.742L1983.7,15.55L1984.77,15.742L1986.2,15.781L1987.27,15.742L1988.34,15.704L1989.77,15.626L1990.84,15.588L1991.92,15.55L1992.99,15.55L1994.42,15.511L1995.49,15.473L1996.56,15.434L1997.99,15.396L1999.06,15.319L2000.13,15.241L2001.56,15.126L2002.63,15.049L2003.71,14.934L2005.14,14.857L2006.21,14.741L2007.28,14.664L2008.71,14.588L2009.78,14.511L2010.85,14.473L2012.28,14.433L2013.35,14.357L2014.43,14.318L2015.5,14.28L2016.93,14.203L2018,14.165L2019.07,14.125L2020.5,14.087L2021.57,13.972L2022.65,13.895L2024.07,13.818L2025.14,13.703L2026.22,13.625L2027.65,13.51L2028.72,13.433L2029.79,13.317L2031.22,13.202L2032.29,13.087L2033.36,12.894L2034.79,12.471L2035.86,12.086L2036.94,11.816L2038.01,11.586L2039.44,11.316L2040.51,11.085L2041.58,10.854L2043.01,10.623L2044.08,10.43L2045.15,10.2L2046.58,9.969L2047.65,9.738L2048.73,9.584L2050.16,9.353L2051.23,9.161L2052.3,9.007L2053.73,8.853L2055.87,8.621L2056.94,8.544L2058.38,8.391L2059.44,8.276L2060.52,8.16L2061.95,8.044L2063.02,7.852L2064.09,7.891L2065.52,7.736L2066.59,7.66L2067.66,7.544L2069.09,7.39L2070.16,7.313L2071.24,7.275L2072.67,7.275L2073.74,7.313L2074.81,7.313L2076.24,7.275L2077.31,7.198L2078.38,7.082L2079.46,7.082L2080.88,7.005L2081.95,6.928L2083.03,6.812L2084.46,6.736L2085.53,6.697L2086.6,6.582L2088.03,6.467L2089.1,6.312L2090.17,6.197L2091.6,6.081L2092.67,6.043L2093.75,5.966L2095.17,5.851L2097.32,5.619L2098.75,5.504L2099.82,5.311L2100.89,5.12L2101.96,5.004L2103.39,4.889L2104.46,4.734L2105.54,4.503L2106.97,4.35L2108.04,4.08L2109.11,3.772L2110.54,3.195L2111.61,2.617L2112.68,2.156L2114.11,1.463L2115.18,0.963L2116.25,1.039L2117.68,1.001L2118.76,0.731L2119.83,0.116L2120.9,-0.346L2122.33,-0.77L2123.4,-1.193L2124.47,-1.424L2125.9,-1.616L2126.97,-1.847L2128.05,-2.194L2129.48,-2.424L2130.55,-2.771L2131.62,-3.194L2133.05,-3.656L2134.12,-4.003L2135.19,-4.118L2136.62,-4.311L2137.69,-4.695L2138.76,-5.042L2140.19,-5.388L2141.27,-5.542L2142.34,-5.581L2143.41,-5.542L2144.84,-5.657L2145.91,-5.85L2146.98,-5.965L2148.41,-6.157L2149.48,-6.658L2150.56,-6.85L2151.98,-7.005L2153.06,-7.197L2154.13,-7.39L2155.56,-7.543L2156.63,-8.159L2157.7,-8.236L2159.13,-8.236L2160.2,-8.274L2161.27,-8.274L2162.7,-8.121L2163.78,-8.274L2164.85,-8.352L2165.92,-8.736L2167.35,-8.852L2168.42,-9.006L2169.49,-9.314L2170.92,-9.506L2171.99,-9.622L2173.06,-9.775L2174.49,-9.891L2175.57,-10.045L2176.64,-10.199L2178.07,-10.238L2179.14,-10.315L2180.21,-10.315L2181.64,-10.623L2182.71,-10.776L2183.78,-10.892L2184.86,-11.007L2186.29,-11.123L2187.35,-11.199L2188.43,-11.315L2189.86,-11.354L2190.93,-11.392L2192,-11.469L2193.43,-11.508L2194.5,-11.546L2195.58,-11.585L2197,-11.624L2198.08,-11.661L2199.15,-11.7L2200.58,-11.739L2201.65,-11.777L2202.72,-11.816L2204.15,-11.854L2205.22,-11.892L2206.29,-11.892L2207.37,-11.931L2208.79,-11.969L2209.87,-12.008L2210.94,-12.008L2212.37,-12.046L2213.44,-12.046L2214.51,-12.085L2215.94,-12.085L2217.01,-12.124L2218.08,-12.124L2219.51,-12.162L2220.59,-12.162L2221.66,-12.2L2223.08,-12.2L2224.16,-12.239L2225.23,-12.239L2226.66,-12.277L2227.73,-12.316L2228.81,-12.393L2229.87,-12.47L2231.3,-12.508L2232.38,-12.586L2233.45,-12.624L2234.88,-12.662L2235.95,-12.739L2237.02,-12.778L2238.45,-12.855L2239.52,-12.893L2240.6,-12.932L2242.02,-13.009L2243.1,-13.047L2244.16,-13.086L2245.6,-13.163L2246.67,-13.201L2247.74,-13.316L2248.81,-13.394L2250.24,-13.509L2251.31,-13.625L2252.39,-13.74L2253.81,-13.817L2254.89,-13.933L2255.95,-14.009L2257.39,-14.125L2258.46,-14.24L2259.53,-14.356L2260.96,-14.471L2262.03,-14.587L2263.1,-14.664L2264.53,-14.702L2265.6,-14.779L2266.68,-14.856L2268.1,-14.895L2269.18,-14.971L2270.25,-15.01L2271.32,-15.087L2272.75,-15.164L2273.82,-15.241L2274.89,-15.318L2279.89,-15.318L2280.97,-15.357L2290.62,-15.357" style="fill:none;fill-rule:nonzero;stroke:rgb(89,89,92);stroke-width:0.65px;"/>
        </g>
    </g>
</svg>
