<?xml version="1.0" encoding="UTF-8" standalone="no"?>
<!DOCTYPE svg PUBLIC "-//W3C//DTD SVG 1.1//EN" "http://www.w3.org/Graphics/SVG/1.1/DTD/svg11.dtd">
<svg width="100%" height="100%" viewBox="0 0 10048 1220" version="1.1" xmlns="http://www.w3.org/2000/svg" xmlns:xlink="http://www.w3.org/1999/xlink" xml:space="preserve" xmlns:serif="http://www.serif.com/" style="fill-rule:evenodd;clip-rule:evenodd;stroke-miterlimit:10;">
    <g transform="matrix(4.16667,0,0,4.16667,252.694,687.801)">
        <g id="depth-section" serif:id="depth section">
            <path d="M0,14.666L1.069,14.819L2.146,14.973L3.572,15.127L4.646,15.282L5.717,15.435L7.147,15.589L8.218,15.743L9.289,15.935L10.362,16.012L11.79,16.012L12.863,16.205L13.935,16.397L15.365,16.551L16.434,16.743L17.507,16.898L18.935,17.052L20.011,17.128L21.081,17.206L22.512,17.283L23.58,17.36L24.653,17.398L26.081,17.476L27.154,17.552L28.228,17.552L29.297,17.591L32.871,17.591L34.299,17.629L42.52,17.629L43.593,17.667L45.021,17.86L46.092,17.937L47.162,17.976L48.593,18.014L49.664,18.052L50.737,18.091L51.808,18.168L53.236,18.207L54.31,18.207L55.38,18.168L57.879,18.168L58.955,18.207L60.383,18.244L65.028,18.244L66.1,18.207L67.527,18.283L68.601,18.437L69.674,18.591L71.102,18.707L72.175,18.899L73.243,19.053L74.317,19.245L75.745,19.361L76.82,19.477L77.892,19.553L79.321,19.669L80.391,19.784L81.461,19.861L82.892,19.977L83.965,20.13L85.038,20.208L86.466,20.246L87.537,20.285L88.608,20.323L90.038,20.4L91.109,20.477L92.183,20.516L93.254,20.554L94.687,20.593L95.755,20.631L96.826,20.67L98.256,20.746L105.403,20.746L106.474,20.708L107.545,20.746L108.973,20.785L110.046,20.823L111.119,20.862L112.55,20.901L113.621,20.901L114.689,20.938L115.763,20.938L117.19,20.978L118.267,20.978L119.337,20.901L120.768,20.862L121.836,20.823L122.909,20.746L130.054,20.746L131.484,20.708L132.555,20.67L133.628,20.631L135.057,20.593L136.132,20.593L137.2,20.554L138.271,20.516L139.702,20.477L140.775,20.477L141.849,20.438L143.276,20.4L152.565,20.4L153.995,20.438L155.066,20.438L156.135,20.516L157.213,20.554L158.639,20.593L159.712,20.67L160.783,20.708L162.213,20.708L163.284,20.67L164.355,20.67L165.783,20.746L166.856,20.785L167.93,20.823L174.001,20.823L175.076,20.862L178.646,20.862L179.717,20.746L181.147,20.708L182.221,20.785L183.294,20.785L184.722,20.746L185.795,20.631L186.864,20.554L188.294,20.593L189.365,20.785L190.438,20.862L191.866,20.901L192.942,20.901L194.011,20.938L195.441,20.978L196.512,20.901L197.583,20.823L199.014,20.785L200.087,20.708L201.157,20.631L202.229,20.708L203.659,20.823L204.729,20.901L205.803,21.016L207.229,21.054L209.375,20.978L210.806,20.938L211.876,20.901L212.945,20.862L214.378,20.862L215.446,20.823L216.521,20.823L217.95,20.862L219.023,20.862L220.094,20.901L222.593,20.901L223.666,20.938L224.739,20.938L226.168,20.978L227.241,21.016L228.31,21.054L229.74,21.093L230.811,21.131L231.884,21.17L233.312,21.208L234.388,21.247L235.456,21.324L236.887,21.363L237.958,21.401L239.031,21.439L240.459,21.478L241.532,21.439L242.604,21.439L243.674,21.401L246.176,21.401L247.249,21.439L248.677,21.439L249.748,21.478L250.821,21.478L252.251,21.517L253.322,21.517L254.394,21.555L256.895,21.555L257.968,21.594L259.396,21.594L260.469,21.632L261.54,21.632L262.97,21.67L264.039,21.67L265.112,21.709L267.613,21.709L268.687,21.632L269.755,21.555L271.186,21.824L272.257,21.901L273.332,21.824L274.76,21.863L275.833,22.017L278.335,22.017L279.403,21.979L280.477,21.979L281.904,21.939L282.978,21.939L284.051,21.901L285.12,21.901L286.55,21.939L287.621,22.055L288.694,22.209L290.122,22.363L291.198,22.478L292.267,22.632L293.697,22.748L294.768,22.864L295.839,22.94L297.269,23.248L298.343,23.787L299.413,24.096L300.841,24.249L301.914,23.133L302.985,21.824L304.416,21.016L305.484,20.978L306.558,21.016L307.631,21.594L309.062,22.402L310.132,22.517L311.201,22.055L312.634,21.979L313.702,21.824L314.777,21.478L316.206,20.901L317.279,20.015L318.35,19.669L319.78,20.631L320.849,21.555L321.922,21.747L323.351,21.939L324.424,22.094L325.497,22.132L326.927,22.132L327.996,22.171L329.066,22.209L330.14,22.209L331.568,22.247L332.644,22.287L333.712,22.287L335.145,22.171L336.214,22.055L337.287,21.939L338.715,21.786L339.788,21.67L340.861,21.517L342.287,21.363L343.36,21.247L344.432,21.131L345.861,21.247L346.933,21.401L348.003,21.517L349.077,21.632L350.507,21.786L351.578,21.863L352.648,21.939L354.079,21.979L355.152,22.017L356.224,22.094L357.651,22.132L358.725,22.209L359.796,22.325L361.226,22.44L362.295,22.556L363.368,22.979L364.796,23.325L365.869,23.21L366.942,23.018L368.373,22.709L369.443,22.402L370.513,22.363L371.588,22.671L373.016,22.787L374.089,22.825L375.16,22.825L376.591,22.979L377.659,23.133L378.732,23.21L380.16,23.21L381.233,23.248L382.307,23.171L383.735,23.055L385.877,22.825L387.307,22.709L388.378,22.671L389.454,22.709L390.882,22.748L391.955,22.825L393.023,22.94L394.095,23.018L395.524,23.055L396.598,23.055L397.672,23.018L399.097,22.979L400.17,23.018L403.742,23.018L404.813,23.055L408.388,23.055L409.818,23.094L411.958,23.094L413.033,23.133L414.462,23.171L415.535,23.21L419.104,23.21L420.178,23.171L422.68,23.171L423.753,23.133L425.183,23.094L426.252,23.055L427.322,23.21L428.753,23.325L429.824,23.44L430.899,23.595L432.327,23.71L433.4,23.865L434.47,23.979L435.543,24.056L436.971,24.056L438.044,24.096L439.117,24.133L440.543,24.172L441.616,24.056L442.687,23.941L444.117,23.787L445.188,23.787L446.259,23.941L447.687,24.096L448.763,24.133L454.834,24.133L455.907,24.172L456.98,24.172L458.052,24.249L459.481,24.249L460.551,24.211L461.624,24.172L463.052,24.096L464.125,24.249L465.198,24.364L466.629,24.519L467.699,24.634L468.769,24.634L470.198,24.096L471.272,23.749L472.345,24.133L473.773,25.365L474.847,25.557L475.915,25.249L476.988,25.211L478.416,25.249L479.489,25.211L480.563,25.211L481.99,25.173L483.062,25.096L484.133,25.057L485.563,25.134L486.634,25.173L487.71,24.441L489.138,23.749L490.211,23.248L491.279,22.709L492.71,22.864L493.78,23.865L494.854,24.672L496.282,26.558L497.353,26.635L498.426,26.405L499.497,26.25L500.928,26.174L501.998,26.097L503.069,26.02L504.497,25.904L505.573,25.827L506.644,25.749L508.074,25.673L509.146,25.634L510.214,25.634L511.645,25.596L513.791,25.442L515.219,25.327L516.292,25.057L517.36,24.749L518.793,24.211L519.862,23.595L520.936,23.595L522.009,24.211L523.438,24.826L524.51,24.672L525.578,24.865L527.009,25.442L528.079,26.02L529.155,26.366L530.583,26.366L531.656,26.212L532.725,26.174L534.155,26.25L535.227,26.328L536.3,26.328L537.728,26.25L538.801,26.212L539.872,26.174L542.373,26.174L543.444,26.097L544.518,26.02L545.943,25.904L547.021,25.904L548.09,26.02L549.52,25.981L550.591,25.981L551.664,25.942L553.092,25.827L554.163,25.634L555.236,25.404L556.664,25.673L557.737,25.942L558.809,25.865L560.239,25.712L561.308,25.519L562.381,25.288L563.454,25.134L564.885,25.442L565.955,25.712L567.024,25.981L568.454,26.02L569.527,26.058L570.601,26.058L572.028,26.097L573.103,26.135L574.171,26.135L575.604,26.174L576.672,26.174L577.745,26.212L580.246,26.212L581.319,26.174L582.75,26.135L583.818,26.212L584.89,26.25L585.965,26.25L587.394,26.212L588.467,26.058L589.535,25.981L590.966,26.058L592.036,26.058L593.109,26.02L594.538,26.02L595.611,26.097L596.682,26.174L598.11,26.25L599.184,26.289L600.254,26.366L601.685,26.405L602.753,26.405L603.829,26.443L604.899,26.52L606.33,26.635L607.401,26.712L608.47,26.635L609.9,26.597L610.974,26.558L612.047,26.558L613.475,26.52L614.548,26.52L615.616,26.481L621.694,26.481L622.766,26.674L624.195,26.828L625.265,27.02L626.335,26.481L627.411,25.404L628.839,25.211L629.912,25.634L630.98,25.789L632.411,25.942L633.482,25.981L634.556,25.749L635.983,25.481L637.057,25.634L638.128,25.789L639.561,25.981L640.629,25.981L641.7,25.749L643.13,25.557L644.199,25.211L645.276,25.134L646.702,24.98L647.775,24.826L648.847,24.749L649.92,24.634L651.348,24.48L652.419,24.519L653.492,24.672L654.92,24.788L655.993,24.941L657.064,24.904L658.495,24.865L659.563,24.865L660.637,24.788L662.064,24.634L663.141,24.441L664.211,24.519L665.642,24.749L666.71,24.865L667.783,24.941L668.856,24.865L670.284,24.826L671.357,24.98L672.427,25.365L673.859,25.712L674.928,26.02L676.001,25.981L677.429,25.865L678.502,25.749L679.575,25.634L681.006,25.673L682.074,25.942L683.146,26.366L684.576,26.635L685.649,26.52L686.723,26.328L688.15,26.097L689.222,25.942L690.292,25.865L691.365,25.673L692.794,25.442L693.867,25.519L694.937,25.981L696.366,26.443L697.439,26.405L698.51,26.366L699.94,26.212L701.009,26.058L702.087,25.904L703.513,25.865L704.586,25.904L705.657,25.904L707.087,25.865L708.158,25.749L709.229,25.596L710.657,25.712L711.73,25.827L712.804,25.942L713.875,25.673L715.305,25.365L716.373,25.596L717.446,25.557L718.875,25.211L719.95,24.865L721.021,24.941L722.451,25.134L723.521,25.288L724.591,25.211L726.021,25.327L727.095,25.327L728.168,25.211L729.596,25.019L730.669,24.788L731.738,24.98L732.812,25.211L734.239,25.365L735.312,25.404L736.386,25.365L737.816,25.442L738.885,25.634L739.956,25.827L741.386,25.865L742.457,25.904L743.532,26.02L744.961,26.097L746.031,26.097L747.103,26.058L748.533,26.058L749.604,25.981L750.677,25.673L752.103,25.404L753.176,25.288L754.249,25.249L755.32,25.173L756.75,25.134L757.819,25.019L758.893,24.865L760.32,24.364L761.396,24.056L762.467,24.326L763.897,24.557L764.968,23.749L766.039,24.672L767.467,24.749L768.54,25.096L769.613,25.519L771.042,25.596L772.115,25.749L773.184,24.364L774.614,23.787L775.685,24.749L776.758,25.057L777.831,25.057L779.262,25.134L780.33,25.519L781.401,25.904L782.832,26.212L783.905,26.443L784.979,25.288L786.406,24.288L787.478,23.21L788.548,23.325L789.979,23.402L791.05,23.287L792.123,23.133L793.551,23.248L794.622,23.671L795.695,24.056L796.766,24.48L798.196,24.672L799.265,24.788L800.338,24.711L801.769,24.595L802.842,24.519L803.913,24.441L805.343,24.634L806.414,24.865L807.484,24.98L808.913,25.019L811.06,25.019L812.487,24.826L813.561,24.672L814.629,24.48L816.06,24.326L817.131,24.133L818.204,24.288L819.277,24.48L820.705,24.672L821.776,24.711L822.85,24.711L824.277,24.672L825.351,24.634L826.424,24.634L827.852,24.711L828.925,24.826L829.994,24.904L831.424,24.98L832.495,25.096L833.568,25.173L834.999,25.173L836.067,25.057L837.141,24.941L838.568,24.788L839.642,24.672L840.715,24.557L841.784,24.48L843.217,24.403L844.287,24.364L845.358,24.326L846.788,24.211L847.859,24.096L848.933,24.48L850.358,25.096L851.432,25.327L852.505,25.211L853.933,25.249L855.006,25.481L856.079,25.673L857.508,25.904L858.578,26.174L859.649,26.481L860.723,26.828L862.153,25.481L863.224,23.595L864.295,21.67L865.723,20.746L866.796,21.247L867.869,23.287L869.298,25.865L870.371,27.02L871.439,26.943L872.87,26.712L873.943,26.443L875.014,26.212L876.444,25.942L877.516,25.789L878.586,25.712L880.019,25.634L881.088,25.557L882.161,25.481L883.231,25.404L884.662,25.365L885.735,25.288L886.804,25.211L888.234,25.096L889.306,24.941L890.379,24.749L891.809,24.557L892.878,24.364L893.951,24.211L895.379,23.287L896.452,22.902L897.525,22.748L898.953,22.632L900.026,22.44L902.525,22.44L903.599,23.364L904.67,24.288L905.743,24.364L907.169,24.056L908.242,23.826L909.315,23.749L910.743,23.595L911.816,23.71L912.885,23.787L916.46,23.787L917.89,23.671L918.961,23.595L920.034,23.749L921.465,23.671L922.533,23.595L923.606,23.71L925.034,23.979L926.107,24.211L927.181,24.133L928.25,23.979L929.68,23.979L930.751,24.133L931.824,24.133L933.255,24.056L934.325,23.941L935.396,23.749L936.824,23.595L937.897,23.633L938.971,23.979L940.398,24.288L941.473,24.48L942.543,24.595L943.971,24.788L945.044,24.98L946.115,25.211L947.188,24.441L948.616,23.325L949.687,22.979L950.761,23.941L952.188,25.173L953.262,25.404L954.335,25.057L955.764,24.672L956.834,24.364L957.905,24.326L959.336,24.288L960.409,24.249L961.479,24.211L962.91,24.133L963.979,24.018L965.052,23.941L966.48,23.865L967.554,23.71L968.627,23.133L969.695,22.671L971.126,22.556L972.199,22.556L973.27,22.44L974.7,22.363L975.771,22.402L976.842,22.44L978.274,22.517L979.344,22.671L980.417,22.748L981.845,22.787L982.918,22.825L983.991,22.825L985.417,23.018L986.49,23.44L987.562,23.826L988.991,24.249L990.064,24.672L991.133,25.057L992.207,25.673L993.635,24.595L994.708,23.018L995.781,22.171L997.209,23.055L998.282,24.056L999.351,23.903L1000.78,23.402L1001.85,22.94L1002.93,23.018L1004.36,23.055L1005.43,23.094L1006.5,23.287L1007.93,23.479L1009,23.44L1010.07,23.402L1011.14,23.44L1012.57,23.518L1013.64,23.402L1014.72,23.364L1016.15,23.518L1017.22,23.71L1018.29,23.865L1019.72,23.826L1020.79,23.633L1021.86,23.402L1023.29,23.325L1024.36,23.749L1025.44,24.133L1026.87,24.211L1027.94,24.018L1029.01,23.941L1030.44,24.018L1031.51,23.787L1032.58,23.479L1033.65,23.325L1035.08,23.44L1036.15,23.556L1038.65,23.556L1039.73,23.44L1040.8,23.633L1042.23,23.941L1043.3,23.979L1044.37,23.865L1045.8,23.749L1046.87,23.787L1047.94,23.826L1049.38,23.865L1050.44,23.941L1055.09,23.941L1056.16,23.903L1057.59,23.903L1058.66,24.018L1059.74,24.018L1061.17,23.865L1062.23,23.749L1063.31,23.749L1064.74,23.71L1065.81,23.671L1066.88,23.826L1068.31,23.865L1069.38,23.826L1070.45,23.826L1071.88,23.749L1072.96,23.826L1074.03,23.903L1078.67,23.903L1080.1,23.941L1081.17,23.979L1082.25,23.941L1084.75,23.941L1085.82,23.903L1087.25,23.941L1088.32,23.979L1089.39,23.941L1090.82,23.903L1091.89,23.903L1092.96,24.018L1094.39,24.056L1096.54,24.056L1097.61,24.133L1099.04,23.979L1100.11,23.826L1101.18,24.096L1102.61,24.249L1103.68,24.096L1104.75,23.941L1106.19,23.787L1107.26,23.787L1108.33,23.903L1109.76,23.941L1110.83,23.979L1111.9,24.133L1113.33,24.211L1114.4,24.096L1115.47,23.903L1116.9,23.787L1117.98,24.018L1119.05,24.172L1120.12,24.249L1121.55,24.326L1122.62,24.364L1123.69,24.326L1128.69,24.326L1129.77,24.249L1130.84,24.211L1132.27,24.288L1133.34,24.364L1134.41,24.441L1135.84,24.48L1136.91,24.326L1137.98,24.364L1139.06,24.595L1140.48,24.749L1141.56,24.519L1142.63,24.326L1144.06,24.249L1145.13,24.288L1146.2,24.364L1147.63,24.288L1148.7,24.249L1149.77,24.172L1153.35,24.172L1154.77,24.133L1156.92,24.133L1158.35,24.172L1159.42,24.211L1161.56,24.211L1162.99,24.133L1164.07,24.018L1165.14,24.133L1166.57,24.211L1167.64,24.211L1168.71,24.172L1170.14,24.249L1171.21,24.326L1172.28,24.403L1173.71,24.326L1174.79,24.133L1175.85,24.249L1177.29,24.711L1178.36,24.595L1179.43,24.288L1180.86,24.018L1181.93,23.979L1184.07,23.979L1185.5,23.941L1186.58,23.903L1187.65,23.903L1189.08,23.865L1190.15,23.865L1191.22,23.826L1192.65,23.826L1193.72,23.787L1194.79,23.826L1196.22,23.826L1197.29,23.787L1199.79,23.787L1200.87,23.749L1204.44,23.749L1205.51,23.71L1206.58,23.671L1208.01,23.633L1209.09,23.595L1210.16,23.556L1211.58,23.595L1212.66,23.671L1213.73,23.749L1215.16,23.671L1216.23,23.595L1217.3,23.518L1218.73,23.556L1219.8,23.633L1220.88,23.518L1222.31,23.402L1223.38,23.44L1224.45,23.479L1225.52,23.518L1226.95,23.556L1228.02,23.556L1229.09,23.518L1230.52,23.595L1231.59,23.633L1232.66,23.556L1234.1,23.556L1235.17,23.633L1236.24,23.633L1237.67,23.595L1238.74,23.595L1239.81,23.633L1241.24,23.671L1246.96,23.671L1248.03,23.556L1249.46,23.402L1250.53,23.248L1251.6,23.21L1253.03,23.325L1254.1,23.44L1255.18,23.518L1256.6,23.479L1257.68,23.44L1258.75,23.518L1260.18,23.556L1261.25,23.595L1262.32,23.595L1263.75,23.518L1264.82,23.325L1265.9,23.133L1266.97,23.633L1268.39,23.518L1269.47,23.364L1270.54,23.21L1271.97,23.21L1273.04,23.287L1274.11,23.287L1275.54,23.479L1276.61,23.518L1277.69,23.479L1279.11,23.325L1280.19,23.171L1281.26,22.748L1282.69,22.478L1283.76,21.632L1284.83,21.208L1286.26,21.478L1287.33,22.44L1288.4,22.787L1289.48,23.633L1290.9,23.749L1291.98,23.787L1293.05,23.787L1294.48,23.749L1295.55,23.71L1296.62,23.671L1298.05,23.595L1299.12,23.556L1300.19,23.518L1302.7,23.518L1303.77,23.479L1305.2,23.479L1306.27,23.44L1307.34,23.44L1308.77,23.402L1309.84,23.402L1310.91,23.364L1311.98,23.325L1313.41,23.325L1314.49,23.364L1315.56,23.325L1316.99,23.325L1318.06,23.287L1322.7,23.287L1324.13,23.248L1325.2,23.248L1326.28,23.21L1327.71,23.21L1328.78,23.171L1329.85,23.171L1330.92,23.21L1332.35,23.171L1333.42,23.133L1334.5,23.094L1335.92,23.094L1337,23.133L1338.07,23.133L1339.5,23.171L1340.57,23.21L1341.64,23.21L1343.07,23.287L1344.14,22.825L1345.21,22.363L1346.64,22.094L1347.71,21.824L1348.79,21.709L1350.22,21.901L1351.29,21.979L1352.36,22.017L1353.43,22.132L1354.86,22.325L1355.93,22.478L1357.01,22.517L1358.43,22.709L1359.5,22.902L1360.58,22.864L1362.01,22.825L1363.08,22.787L1371.3,22.787L1372.73,22.748L1373.8,22.748L1374.87,22.709L1375.94,22.671L1377.37,22.671L1378.44,22.632L1379.52,22.632L1380.94,22.594L1382.02,22.594L1383.09,22.556L1384.52,22.517L1385.59,22.517L1386.66,22.478L1389.16,22.478L1390.23,22.517L1397.38,22.517L1398.45,22.556L1400.95,22.556L1402.02,22.517L1403.45,22.478L1404.52,22.478L1405.6,22.44L1407.03,22.44L1408.1,22.402L1409.17,22.402L1410.6,22.44L1411.67,22.402L1412.74,22.363L1414.17,22.325L1415.25,22.247L1416.31,22.247L1417.39,22.209L1422.39,22.209L1423.46,22.171L1424.53,22.132L1425.96,22.094L1427.04,22.055L1428.11,22.017L1429.54,22.017L1430.61,22.055L1431.68,22.055L1433.11,22.017L1434.18,22.055L1435.25,22.094L1436.68,22.132L1448.47,22.132L1449.54,22.171L1450.62,22.171L1452.04,22.209L1453.12,22.247L1454.19,22.247L1455.62,22.287L1457.76,22.287L1458.83,22.247L1460.26,22.247L1461.33,22.287L1462.41,22.325L1463.84,22.363L1464.91,22.363L1465.98,22.402L1467.41,22.44L1468.48,22.478L1486.35,22.478L1487.42,22.44L1488.49,22.363L1489.92,22.287L1490.99,22.209L1492.06,22.171L1493.49,22.017L1494.56,21.824L1525.29,21.939L1526.36,22.017L1527.79,22.094L1528.87,22.209L1529.93,22.363L1531.36,22.363L1532.44,22.402L1533.51,22.44L1537.08,22.44L1538.51,22.402L1539.58,22.44L1543.16,22.44L1544.23,22.402L1545.3,22.402L1546.73,22.363L1547.8,22.363L1548.87,22.325L1552.44,22.325L1553.87,22.287L1554.95,22.247L1558.52,22.247L1559.59,22.209L1577.45,22.209L1578.53,22.171L1581.03,22.171L1582.1,22.132L1588.17,22.132L1589.25,22.094L1590.32,22.055L1591.75,22.055L1592.82,22.017L1598.89,22.017L1599.97,22.055L1634.27,22.055L1635.34,22.094L1637.84,22.094L1638.91,22.132L1648.56,22.132L1649.63,22.017L1650.7,21.901L1652.13,21.786L1653.2,21.747L1654.27,21.939L1656.78,21.939L1657.85,21.979L1667.49,21.979L1668.57,21.939L1672.14,21.939L1673.21,21.979L1674.64,22.055L1678.21,22.055L1679.28,22.094L1687.5,22.094L1688.93,22.055L1690,22.055L1691.07,22.017L1692.51,21.979L1693.57,21.979L1694.65,21.939L1698.22,21.939L1699.29,21.979L1712.51,21.979L1713.59,21.939L1716.09,21.939L1717.16,21.901L1718.23,21.901L1719.66,21.863L1720.73,21.863L1721.8,21.824L1723.23,21.824L1724.3,21.786L1726.81,21.786L1727.88,21.747L1728.95,21.747L1730.38,21.709L1731.45,21.747L1732.52,21.786L1733.95,21.786L1735.02,21.747L1736.09,21.709L1737.17,21.709L1738.6,21.67L1743.24,21.67L1744.31,21.632L1745.74,21.632L1746.81,21.594L1747.88,21.555L1749.32,21.517L1751.46,21.517L1752.89,21.555L1753.96,21.555L1755.03,21.517L1761.11,21.517L1762.17,21.478L1763.25,21.439L1764.68,21.401L1765.75,21.401L1766.82,21.363L1768.25,21.324L1769.32,21.286L1770.39,21.286L1771.82,21.247L1772.9,21.208L1773.97,21.208L1775.4,21.17L1776.47,21.17L1777.54,21.131L1778.61,21.131L1780.04,21.093L1781.11,21.093L1782.19,21.054L1783.62,21.054L1784.69,21.016L1785.76,21.016L1787.19,20.978L1789.33,20.978L1790.76,20.938L1791.83,20.938L1792.9,20.901L1801.12,20.901L1802.55,20.862L1813.27,20.862L1814.34,20.823L1821.49,20.823L1822.56,20.785L1825.06,20.785L1826.13,20.746L1827.2,20.746L1828.63,20.708L1829.71,20.708L1830.78,20.67L1832.21,20.67L1833.28,20.631L1834.35,20.631L1835.78,20.593L1836.85,20.593L1837.92,20.554L1839.35,20.554L1840.42,20.516L1841.5,20.516L1842.57,20.477L1844,20.438L1845.07,20.438L1846.14,20.4L1847.57,20.4L1848.64,20.362L1849.71,20.362L1851.14,20.323L1853.29,20.323L1854.71,20.285L1855.79,20.285L1856.86,20.246L1859.36,20.246L1860.43,20.208L1861.86,20.208L1862.93,20.169L1865.08,20.169L1866.51,20.13L1867.58,20.13L1868.65,20.093L1871.15,20.093L1872.22,20.054L1874.72,20.054L1875.8,20.015L1881.87,20.015L1882.94,19.977L1892.59,19.977L1893.66,19.938L1898.31,19.938L1899.73,19.9L1900.81,19.861L1901.88,19.823L1903.31,19.784L1904.38,19.784L1905.45,19.746L1906.88,19.708L1907.95,19.669L1909.03,19.592L1910.1,19.515L1912.6,19.515L1913.67,19.477L1915.1,19.437L1916.17,19.437L1917.24,19.4L1918.67,19.361L1919.74,19.322L1920.82,19.285L1922.24,19.245L1923.32,19.245L1924.39,19.207L1925.82,19.168L1926.89,19.13L1927.96,19.092L1929.03,19.092L1930.46,19.053L1931.53,19.015L1932.61,18.976L1934.04,18.937L1935.11,18.899L1936.18,18.899L1937.61,18.86L1938.68,18.822L1939.75,18.784L1941.18,18.745L1942.25,18.668L1943.32,18.629L1944.76,18.591L1945.83,18.514L1946.9,18.476L1948.33,18.437L1949.4,18.399L1950.47,18.36L1951.54,18.322L1952.97,18.283L1954.04,18.244L1955.11,18.091L1956.54,18.052L1957.62,17.976L1958.69,17.937L1960.12,17.86L1961.19,17.821L1962.26,17.744L1963.69,17.706L1964.76,17.629L1965.84,17.591L1967.26,17.552L1968.33,17.514L1969.41,17.476L1970.84,17.398L1971.91,17.36L1972.98,17.321L1974.05,17.283L1975.48,17.244L1976.55,17.168L1977.62,17.128L1979.05,17.09L1980.13,17.052L1981.2,17.013L1982.63,16.975L1983.7,16.936L1984.77,16.859L1986.2,16.821L1987.27,16.783L1988.34,16.743L1989.77,16.706L1990.84,16.667L1991.92,16.628L1992.99,16.59L1994.42,16.551L1995.49,16.513L1996.56,16.475L1997.99,16.436L1999.06,16.436L2000.13,16.397L2001.56,16.359L2002.63,16.32L2003.71,16.32L2005.14,16.282L2006.21,16.243L2007.28,16.205L2008.71,16.167L2009.78,16.09L2010.85,16.051L2012.28,16.012L2013.35,15.974L2014.43,15.935L2015.5,15.897L2016.93,15.859L2018,15.82L2019.07,15.782L2020.5,15.743L2021.57,15.666L2022.65,15.628L2024.07,15.55L2025.14,15.512L2026.22,15.397L2027.65,15.282L2028.72,15.166L2029.79,15.089L2031.22,15.012L2032.29,14.819L2033.36,14.666L2034.79,14.357L2035.86,13.895L2036.94,13.626L2038.01,13.28L2039.44,13.125L2040.51,12.933L2041.58,12.741L2043.01,12.548L2044.08,12.356L2045.15,12.125L2046.58,11.932L2047.65,11.74L2048.73,11.509L2050.16,11.432L2051.23,11.355L2052.3,11.24L2053.73,11.009L2055.87,10.547L2056.94,10.316L2058.38,10.239L2059.44,10.163L2060.52,9.97L2061.95,9.854L2063.02,9.97L2064.09,9.662L2065.52,9.508L2066.59,9.315L2067.66,9.084L2069.09,8.931L2070.16,8.738L2071.24,8.584L2072.67,8.392L2073.74,8.238L2074.81,8.045L2076.24,8.045L2077.31,8.007L2078.38,7.814L2079.46,7.468L2080.88,7.353L2081.95,7.199L2083.03,7.121L2084.46,7.083L2085.53,6.853L2086.6,6.775L2088.03,6.698L2089.1,6.66L2090.17,6.505L2091.6,6.429L2092.67,6.275L2093.75,6.121L2095.17,6.083L2096.25,5.967L2097.32,5.812L2098.75,5.66L2099.82,5.582L2100.89,5.39L2101.96,5.197L2103.39,4.889L2104.46,4.659L2105.54,4.466L2106.97,4.312L2108.04,4.042L2109.11,3.658L2110.54,3.312L2111.61,3.003L2112.68,2.734L2114.11,2.272L2115.18,1.81L2116.25,1.464L2117.68,1.041L2118.76,0.694L2119.83,0.309L2120.9,-0.037L2122.33,-0.422L2123.4,-0.615L2124.47,-0.961L2125.9,-1.23L2126.97,-1.5L2128.05,-1.73L2129.48,-2L2130.55,-2.231L2131.62,-2.501L2133.05,-2.731L2134.12,-3.001L2135.19,-3.232L2136.62,-3.463L2137.69,-3.694L2138.76,-3.925L2140.19,-4.117L2141.27,-4.348L2142.34,-4.54L2143.41,-4.771L2144.84,-4.964L2145.91,-5.195L2146.98,-5.426L2148.41,-5.618L2149.48,-5.811L2150.56,-6.003L2151.98,-6.195L2153.06,-6.426L2154.13,-6.619L2155.56,-6.811L2156.63,-7.042L2157.7,-7.157L2159.13,-7.196L2160.2,-7.273L2161.27,-7.35L2162.7,-7.389L2163.78,-7.465L2164.85,-7.658L2165.92,-7.812L2167.35,-7.965L2168.42,-8.12L2169.49,-8.235L2170.92,-8.351L2171.99,-8.466L2173.06,-8.582L2174.49,-8.658L2175.57,-8.774L2176.64,-8.889L2178.07,-9.043L2179.14,-9.043L2180.21,-9.005L2181.64,-9.005L2182.71,-9.043L2186.29,-9.043L2187.35,-9.082L2188.43,-9.043L2189.86,-9.082L2190.93,-9.159L2192,-9.236L2193.43,-9.429L2194.5,-9.505L2195.58,-9.505L2197,-9.544L2198.08,-9.621L2199.15,-9.659L2200.58,-9.659L2201.65,-9.698L2202.72,-9.736L2204.15,-9.736L2205.22,-9.775L2206.29,-9.775L2207.37,-9.813L2208.79,-9.813L2209.87,-9.852L2210.94,-9.852L2212.37,-9.89L2214.51,-9.89L2215.94,-9.929L2218.08,-9.929L2219.51,-9.967L2221.66,-9.967L2223.08,-10.006L2225.23,-10.006L2226.66,-10.083L2228.81,-10.083L2229.87,-10.121L2231.3,-10.121L2232.38,-10.16L2233.45,-10.198L2234.88,-10.275L2235.95,-10.313L2237.02,-10.391L2238.45,-10.429L2239.52,-10.506L2240.6,-10.544L2242.02,-10.622L2243.1,-10.66L2244.16,-10.737L2245.6,-10.775L2246.67,-10.853L2247.74,-10.891L2248.81,-10.968L2250.24,-11.006L2251.31,-11.084L2252.39,-11.122L2253.81,-11.199L2254.89,-11.237L2255.95,-11.314L2257.39,-11.353L2258.46,-11.43L2259.53,-11.468L2260.96,-11.545L2262.03,-11.584L2263.1,-11.661L2264.53,-11.699L2265.6,-11.776L2266.68,-11.853L2268.1,-11.892L2269.18,-11.968L2270.25,-12.046L2271.32,-12.123L2272.75,-12.161L2273.82,-12.238L2274.89,-12.315L2279.89,-12.315L2280.97,-12.354L2290.62,-12.354" style="fill:none;fill-rule:nonzero;stroke:rgb(8,6,6);stroke-width:0.48px;"/>
        </g>
    </g>
</svg>
