<?xml version="1.0" encoding="UTF-8" standalone="no"?>
<!DOCTYPE svg PUBLIC "-//W3C//DTD SVG 1.1//EN" "http://www.w3.org/Graphics/SVG/1.1/DTD/svg11.dtd">
<svg width="100%" height="100%" viewBox="0 0 1634 300" version="1.1" xmlns="http://www.w3.org/2000/svg" xmlns:xlink="http://www.w3.org/1999/xlink" xml:space="preserve" xmlns:serif="http://www.serif.com/" style="fill-rule:evenodd;clip-rule:evenodd;">
    <g transform="matrix(1,0,0,1,60.6465,161.797)">
        <g id="depth-section" serif:id="depth section">
            <path d="M0,35.077L3.634,35.077L4.624,35.17L5.945,35.263L6.936,35.354L8.258,35.447L10.569,35.447L11.894,35.354L15.527,35.354L16.518,35.263L18.829,35.263L20.151,35.354L21.474,35.539L22.463,35.539L23.785,35.632L26.097,35.632L27.087,35.539L28.409,35.447L29.732,35.447L30.721,35.539L32.045,35.724L33.033,35.91L34.356,36.002L36.669,36.002L37.99,35.91L38.98,35.724L40.303,35.539L42.614,35.539L43.938,35.447L44.927,35.447L46.25,35.632L53.187,35.632L54.508,35.539L62.766,35.539L64.086,35.447L72.346,35.447L73.338,35.354L84.235,35.354L85.229,35.447L93.489,35.447L94.809,35.539L97.121,35.539L98.44,35.632L99.433,35.724L103.066,35.724L104.387,35.91L105.379,35.91L106.698,36.002L109.011,36.002L110.335,36.096L111.326,36.373L112.646,36.558L114.958,36.558L116.28,36.65L117.271,36.835L118.592,36.835L119.584,36.929L120.904,36.929L122.227,37.02L123.216,37.112L124.538,37.112L125.528,36.65L126.85,36.187L127.842,35.724L129.162,35.354L130.486,35.077L131.474,34.799L132.798,34.799L133.786,34.707L142.38,34.707L143.367,34.892L144.691,34.984L145.68,35.077L147.003,35.17L147.991,35.077L149.315,34.984L150.638,34.892L151.627,34.799L152.949,34.707L153.939,34.615L155.261,34.707L162.527,34.707L163.519,34.799L165.831,34.799L167.154,34.892L169.467,34.892L170.787,34.984L171.778,34.984L173.101,35.077L174.091,35.077L175.412,35.17L181.358,35.17L182.679,35.077L183.67,34.984L184.99,34.892L187.302,34.892L188.622,34.799L195.562,34.799L196.882,34.707L205.14,34.707L206.136,34.615L207.456,34.799L208.775,34.892L211.088,34.892L212.079,34.799L213.399,34.615L214.394,34.43L215.713,34.336L222.979,34.336L223.971,34.244L229.915,34.244L231.239,34.336L232.23,34.43L233.551,34.521L234.543,34.799L235.862,34.984L237.185,34.984L238.175,34.892L239.497,34.799L240.488,34.707L241.809,34.615L243.133,34.707L245.444,34.707L246.433,34.799L247.757,34.892L249.078,35.077L250.068,34.892L251.391,34.799L252.38,34.615L254.692,34.615L256.014,34.707L257.336,34.707L258.326,34.799L259.648,34.707L260.638,34.707L261.96,34.799L263.284,34.892L264.271,34.892L265.596,34.799L266.584,34.984L267.908,35.17L269.229,35.077L271.542,35.077L272.531,34.984L274.844,34.984L276.165,34.799L277.487,34.521L278.478,34.244L279.8,34.058L280.789,34.058L282.111,34.15L283.436,34.244L284.423,34.336L285.747,34.336L286.735,34.521L288.06,34.892L289.379,35.077L290.371,35.077L291.693,34.984L292.683,34.984L294.005,34.892L294.995,34.892L296.317,34.799L300.94,34.799L302.265,34.892L304.577,34.892L305.896,34.984L306.889,35.077L308.211,34.799L309.53,33.135L310.522,31.56L311.843,31.189L312.834,31.004L314.154,31.469L315.146,32.764L316.469,34.058L317.788,35.077L318.78,34.984L321.092,34.984L322.412,34.892L323.732,34.799L324.729,34.707L326.048,34.521L327.04,34.336L328.36,34.244L331.992,34.244L332.985,34.15L335.298,34.15L336.618,34.058L337.937,33.874L338.93,33.688L340.25,33.597L348.51,33.597L349.831,33.504L350.823,33.504L352.144,33.411L353.135,33.318L354.455,33.226L358.089,33.226L359.081,33.135L360.401,33.226L362.713,33.226L364.037,33.318L366.349,33.318L367.341,33.411L375.929,33.411L376.919,33.226L378.24,33.041L379.23,33.041L380.553,33.226L381.542,33.504L382.864,33.874L387.49,33.874L388.812,33.688L390.134,33.504L391.124,33.504L392.446,33.874L396.082,33.874L397.07,33.967L399.382,33.967L400.706,33.874L401.693,33.597L403.018,33.597L404.34,33.688L405.33,33.597L406.651,33.504L407.642,33.781L408.964,33.967L410.283,34.244L414.909,34.244L416.229,34.15L435.059,34.15L436.379,33.967L437.375,33.781L438.694,33.597L439.687,33.688L441.007,33.781L441.999,33.874L443.318,33.967L444.639,33.781L445.633,33.597L446.952,33.411L447.944,33.318L449.265,33.411L450.584,33.411L451.576,33.504L452.897,33.688L463.47,33.688L464.79,33.781L471.728,33.781L473.048,33.688L474.04,33.504L475.359,33.411L476.682,33.504L477.672,33.597L478.993,33.781L483.619,33.781L484.941,33.874L490.887,33.874L491.877,33.967L496.835,33.967L497.823,34.058L554.644,34.058L555.967,33.967L583.383,33.967L584.374,33.874L585.694,33.781L586.687,33.688L588.006,33.597L593.952,33.597L594.944,33.781L596.264,33.967L597.588,34.058L599.899,34.058L600.892,33.967L606.838,33.967L608.157,33.874L612.781,33.874L614.104,33.781L621.039,33.781L622.363,33.688L625.997,33.688L626.987,33.781L632.933,33.781L634.257,33.874L637.891,33.874L638.881,33.781L643.837,33.781L644.826,33.688L648.46,33.688L649.45,33.597L654.408,33.597L655.396,33.504L667.29,33.504L668.611,33.411L682.815,33.411L684.136,33.318L698.343,33.318L699.333,33.226L710.232,33.226L711.225,33.135L718.492,33.135L719.484,33.041L721.796,33.041L723.118,32.949L724.438,32.949L725.43,32.855L726.75,32.764L727.742,32.764L729.062,32.67L730.386,32.67L731.378,32.578L732.698,32.484L733.689,32.392L735.01,32.208L736.002,32.022L737.321,31.838L738.644,31.653L739.636,31.56L740.956,31.469L741.947,31.375L743.268,31.189L744.59,31.098L745.579,31.004L746.901,30.82L747.894,30.635L749.213,30.542L750.537,30.356L751.525,30.172L752.85,30.08L753.837,29.894L755.161,29.803L756.153,29.617L757.473,29.523L758.795,29.431L759.785,29.246L761.107,29.154L762.097,29.06L763.419,28.969L764.739,28.876L765.73,28.784L779.937,28.784L781.257,28.876L782.248,28.876L783.57,28.969L784.891,28.969L785.882,29.06L787.202,29.154L788.194,29.154L789.515,29.246L790.838,29.34L791.83,29.431L793.15,29.523L794.142,29.617L795.462,29.617L796.454,29.709L797.773,29.709L799.096,29.803L800.088,29.803L801.408,29.894L806.031,29.894L807.354,29.987L826.183,29.987L827.507,29.894L831.139,29.894L832.131,29.803L834.442,29.803L835.765,29.709L838.077,29.709L839.396,29.617L841.709,29.617L842.7,29.523L844.022,29.523L845.343,29.431L846.334,29.34L847.654,29.34L848.646,29.246L849.967,29.246L851.29,29.154L852.282,29.154L853.603,29.06L854.594,29.06L855.914,28.969L856.906,28.969L858.227,28.876L859.548,28.876L860.54,28.784L862.852,28.784L864.172,28.69L866.483,28.69L867.806,28.598L871.441,28.598L872.432,28.69L891.591,28.69L892.583,28.598L899.849,28.598L900.841,28.507L905.795,28.507L906.787,28.414L909.099,28.414L910.423,28.321L911.742,28.228L912.734,28.228L914.055,28.137L915.047,28.137L916.366,28.043L917.688,27.951L918.681,27.951L920,27.857L920.992,27.765L922.312,27.765L923.304,27.672L924.624,27.672L925.948,27.58L926.94,27.58L928.26,27.488L929.252,27.488L930.572,27.394L931.894,27.394L932.884,27.303L934.206,27.303L935.198,27.21L936.518,27.21L937.84,27.118L938.83,27.118L940.151,27.024L941.142,27.024L942.464,26.932L943.455,26.932L944.775,26.841L947.088,26.841L948.411,26.748L950.724,26.748L952.043,26.656L956.669,26.656L957.989,26.562L975.499,26.562L976.818,26.656L978.141,26.656L979.133,26.562L980.452,26.562L981.444,26.471L983.756,26.471L985.076,26.377L986.4,26.377L987.393,26.285L991.024,26.285L992.346,26.191L994.658,26.191L995.65,26.099L999.282,26.099L1000.6,26.008L1001.59,26.008L1002.92,25.914L1003.91,25.914L1005.23,25.822L1006.55,25.822L1007.54,25.728L1008.86,25.728L1009.85,25.637L1011.18,25.544L1012.5,25.452L1013.49,25.452L1014.81,25.358L1015.8,25.266L1017.12,25.175L1018.44,25.175L1019.43,25.082L1020.75,24.99L1021.75,24.896L1023.07,24.805L1024.06,24.711L1025.38,24.619L1026.7,24.527L1027.69,24.433L1029.01,24.342L1030.01,24.342L1031.33,24.248L1032.65,24.248L1033.64,24.342L1058.74,23.324L1059.73,23.23L1061.06,23.139L1062.05,23.324L1063.37,23.509L1064.69,23.6L1067,23.6L1067.99,23.509L1069.32,23.416L1071.63,23.416L1072.95,23.509L1073.94,23.509L1075.26,23.416L1076.25,23.416L1077.57,23.324L1078.89,23.324L1079.89,23.23L1081.2,23.139L1082.2,23.139L1083.52,23.045L1084.84,23.045L1085.83,22.953L1087.15,22.861L1088.15,22.861L1089.46,22.767L1090.46,22.676L1091.78,22.676L1093.1,22.582L1094.09,22.49L1095.41,22.396L1096.4,22.305L1097.72,22.213L1099.05,22.12L1100.04,22.028L1101.36,21.934L1102.35,21.749L1103.67,21.658L1104.99,21.472L1105.98,21.38L1107.31,21.195L1108.3,21.01L1109.62,20.916L1110.61,20.825L1111.93,20.454L1113.25,20.362L1114.24,20.177L1115.56,19.9L1116.56,19.621L1117.87,19.25L1119.2,18.973L1120.19,18.881L1121.51,18.696L1122.5,18.511L1123.82,18.417L1125.14,18.326L1126.13,18.14L1127.46,17.955L1129.77,17.955L1130.76,18.048L1132.08,17.955L1133.4,17.863L1134.39,17.77L1135.71,17.586L1136.7,17.401L1138.03,17.307L1139.35,17.215L1140.34,17.03L1141.66,16.753L1142.65,16.567L1143.97,16.382L1145.29,16.198L1146.29,16.104L1147.61,15.919L1148.6,15.827L1149.92,15.734L1150.91,15.641L1152.23,15.365L1153.55,15.179L1154.54,14.994L1155.86,14.808L1156.86,14.717L1158.18,14.623L1159.5,14.439L1160.49,14.439L1161.81,14.254L1162.8,13.884L1164.12,13.699L1165.44,13.606L1166.44,13.421L1167.76,13.328L1168.75,13.142L1170.07,13.236L1171.06,13.236L1172.38,12.958L1173.7,12.958L1174.69,12.866L1176.02,12.773L1177.01,12.773L1178.33,12.68L1179.65,12.588L1180.64,12.403L1181.96,12.403L1182.95,12.218L1184.27,12.033L1185.6,11.755L1186.59,11.662L1187.91,11.57L1188.9,11.57L1190.22,11.476L1191.21,11.385L1192.53,11.292L1193.85,11.292L1194.84,11.107L1196.17,10.922L1197.16,10.737L1198.48,10.644L1199.8,10.552L1200.79,10.367L1202.11,10.274L1203.1,9.996L1204.43,9.626L1205.75,9.626L1206.74,9.534L1208.06,9.534L1209.05,9.348L1210.37,9.071L1211.36,8.886L1212.68,8.423L1214,8.238L1215,8.053L1216.32,7.96L1217.31,7.776L1218.63,7.127L1219.95,6.849L1220.94,6.572L1222.26,6.387L1223.26,6.11L1224.58,5.924L1225.9,5.739L1226.89,5.462L1228.21,5.184L1229.2,4.999L1230.52,4.813L1231.84,4.721L1232.83,4.813L1234.15,4.351L1235.15,4.166L1236.47,3.888L1237.46,3.888L1238.78,3.611L1240.1,3.425L1241.09,3.24L1242.41,2.963L1243.41,2.5L1244.73,2.778L1246.05,2.593L1247.04,2.407L1248.36,2.315L1249.35,2.315L1250.67,2.222L1255.3,2.222L1256.62,2.13L1260.25,2.13L1261.24,2.037L1264.88,2.037L1266.2,1.945L1269.5,1.945L1270.82,1.852L1272.14,1.852L1273.14,1.76L1274.46,1.76L1275.45,1.667L1279.08,1.667L1280.4,1.574L1282.72,1.574L1283.71,1.667L1295.6,1.667L1296.92,1.574L1297.91,1.574L1299.23,1.482L1300.56,1.482L1301.54,1.39L1302.87,1.39L1303.86,1.297L1305.18,1.204L1306.5,1.204L1307.49,1.112L1308.81,1.112L1309.8,1.019L1311.12,1.019L1312.44,0.927L1313.44,0.834L1314.76,0.834L1315.75,0.741L1317.07,0.741L1318.06,0.649L1319.38,0.649L1320.7,0.557L1321.7,0.557L1323.02,0.464L1327.64,0.464L1328.96,0.371L1332.6,0.371L1333.59,0.279L1337.22,0.279L1338.21,0.186L1340.86,0.186L1341.85,0.094L1343.17,0.094L1344.16,0.001L1346.8,0.001L1347.79,-0.092L1349.11,-0.092L1350.11,-0.184L1352.75,-0.184L1353.74,-0.277L1356.05,-0.277L1357.37,-0.369L1359.69,-0.369L1361.01,-0.462L1364.31,-0.462L1365.63,-0.554L1369.27,-0.554L1370.26,-0.646L1373.89,-0.646L1375.21,-0.739L1433.35,-0.739L1434.34,-0.832L1442.6,-0.832L1443.92,-0.924L1449.87,-0.924L1450.86,-1.017L1490.17,-1.017L1491.16,-1.11L1492.48,-1.11L1493.81,-1.202L1494.79,-1.295L1496.12,-1.295L1497.1,-1.387L1498.43,-1.387L1499.75,-1.479L1500.74,-1.479L1502.06,-1.572L1503.05,-1.572L1504.38,-1.664L1505.36,-1.664L1506.69,-1.757L1508.01,-1.757L1509,-1.85L1510.32,-1.943L1511.31,-1.943L1512.63,-2.035" style="fill:none;fill-rule:nonzero;stroke:rgb(88,89,91);stroke-width:0.65px;"/>
        </g>
    </g>
</svg>
