<?xml version="1.0" encoding="UTF-8" standalone="no"?>
<!DOCTYPE svg PUBLIC "-//W3C//DTD SVG 1.1//EN" "http://www.w3.org/Graphics/SVG/1.1/DTD/svg11.dtd">
<svg width="100%" height="100%" viewBox="0 0 1634 300" version="1.1" xmlns="http://www.w3.org/2000/svg" xmlns:xlink="http://www.w3.org/1999/xlink" xml:space="preserve" xmlns:serif="http://www.serif.com/" style="fill-rule:evenodd;clip-rule:evenodd;">
    <g transform="matrix(1,0,0,1,60.6465,179.013)">
        <g id="depth-section" serif:id="depth section">
            <path d="M0,20.729L4.624,20.729L5.945,20.637L8.258,20.637L9.581,20.545L14.205,20.545L15.527,20.452L18.829,20.452L20.151,20.545L21.474,20.545L22.463,20.637L23.785,20.823L24.775,20.915L26.097,21.008L27.087,21.1L28.409,21.008L29.732,20.823L30.721,20.637L32.045,20.36L33.033,20.266L34.356,20.823L35.679,21.562L36.669,22.303L37.99,22.674L38.98,22.766L40.303,22.489L41.622,22.026L42.614,21.84L44.927,21.84L46.25,21.655L53.187,21.655L54.508,21.562L62.766,21.562L64.086,21.47L68.714,21.47L70.034,21.378L72.346,21.378L73.338,21.285L75.978,21.285L76.972,21.193L79.283,21.193L80.604,21.1L82.915,21.1L84.235,21.008L86.549,21.008L87.541,20.915L88.861,20.915L90.181,20.823L97.121,20.823L98.44,20.729L103.066,20.729L104.387,20.637L107.69,20.637L109.011,20.729L110.335,20.823L111.326,20.915L112.646,21.008L113.639,21.008L114.958,21.47L116.28,21.932L117.271,22.395L118.592,22.951L119.584,23.598L120.904,24.155L122.227,24.432L123.216,24.617L124.538,22.581L125.528,20.637L126.85,20.637L127.842,20.545L129.162,20.452L130.486,20.36L131.474,20.452L132.798,20.36L136.432,20.36L137.422,20.452L138.743,20.545L139.733,20.729L141.056,20.915L142.38,21.008L143.367,21.1L144.691,21.193L145.68,21.193L147.003,21.008L147.991,20.823L149.315,20.637L150.638,20.452L151.627,20.266L152.949,20.082L153.939,19.896L158.896,19.896L159.885,19.989L161.207,20.082L162.527,20.266L163.519,20.36L164.843,20.36L165.831,20.266L168.143,20.266L169.467,20.174L170.787,20.174L171.778,19.989L173.101,19.896L174.091,19.804L175.412,20.174L176.732,20.452L177.725,20.637L179.045,20.545L180.036,20.545L181.358,20.452L189.618,20.452L190.938,20.545L191.93,20.545L193.25,20.637L194.242,20.637L195.562,20.545L196.882,20.545L197.876,20.452L199.196,20.36L200.187,20.266L201.508,20.174L202.828,20.082L203.819,20.266L205.14,20.36L206.136,20.452L208.775,20.452L209.768,20.545L211.088,20.637L212.079,20.545L213.399,20.36L214.394,20.082L215.713,19.804L217.033,19.619L218.025,19.434L219.346,19.157L220.337,19.065L226.283,19.065L227.603,18.971L229.915,18.971L231.239,19.065L233.551,19.065L234.543,19.157L235.862,19.342L237.185,19.527L238.175,19.804L239.497,20.082L240.488,20.266L241.809,20.174L243.133,19.989L244.12,19.804L245.444,19.619L246.433,19.342L247.757,19.249L249.078,19.712L250.068,20.266L251.391,20.729L252.38,20.545L253.702,19.989L254.692,19.989L256.014,20.174L257.336,20.452L258.326,20.266L259.648,20.082L260.638,19.712L261.96,19.619L263.284,19.712L264.271,19.896L265.596,20.545L266.584,21.1L267.908,21.655L269.229,22.118L270.22,22.209L271.542,22.303L272.531,20.823L273.854,20.36L274.844,19.804L276.165,19.342L277.487,18.879L278.478,18.508L279.8,18.138L280.789,18.046L282.111,18.138L283.436,18.508L284.423,18.6L286.735,18.6L288.06,18.694L289.379,18.879L290.371,19.065L291.693,19.157L292.683,19.249L294.005,19.434L294.995,19.619L296.317,19.804L297.637,20.082L298.629,20.266L299.953,20.174L300.94,19.989L302.265,19.896L303.585,19.712L304.577,19.619L305.896,19.434L306.889,19.342L308.211,17.583L309.53,15.918L310.522,14.344L311.843,13.973L312.834,13.788L314.154,14.252L315.146,16.38L316.469,18.971L317.788,18.879L318.78,19.157L320.101,19.434L321.092,19.804L322.412,20.174L323.732,19.896L324.729,19.619L326.048,19.342L327.04,19.342L328.36,19.249L329.68,19.249L330.672,19.342L331.992,19.527L332.985,19.527L334.306,19.157L335.298,18.879L336.618,18.694L337.937,18.508L338.93,18.416L340.25,18.231L341.245,18.231L342.565,18.416L343.886,18.508L344.878,18.694L346.197,18.786L347.189,18.971L348.51,18.879L349.831,18.6L350.823,18.323L352.144,18.323L353.135,18.508L354.455,18.694L356.768,18.694L358.089,18.508L359.081,18.416L360.401,18.231L361.393,18.323L362.713,18.6L364.037,18.879L365.024,19.157L366.349,19.342L367.341,19.619L368.661,19.804L369.982,19.804L370.973,19.712L372.295,19.527L373.284,19.157L374.606,18.694L375.929,18.416L376.919,18.138L378.24,17.954L379.23,17.676L380.553,17.768L381.542,18.6L382.864,18.971L384.188,19.157L385.177,19.249L386.5,19.157L387.49,18.231L388.812,17.399L390.134,16.75L391.124,17.12L392.446,17.583L393.436,18.138L394.758,18.786L396.082,19.342L397.07,19.527L398.394,19.434L399.382,19.249L400.706,18.6L401.693,18.046L403.018,17.305L404.34,17.305L405.33,17.399L406.651,17.305L407.642,17.12L408.964,17.305L410.283,17.954L411.275,18.6L412.598,18.971L413.588,19.157L414.909,19.434L416.229,19.619L417.222,19.896L418.541,20.082L419.533,19.989L420.857,19.989L421.845,19.896L430.435,19.896L431.427,19.989L433.739,19.989L435.059,19.712L436.379,19.249L437.375,18.786L438.694,18.323L439.687,18.6L441.007,19.065L441.999,19.342L443.318,19.342L444.639,19.157L445.633,18.416L446.952,18.231L447.944,18.046L449.265,17.861L450.584,17.954L451.576,18.231L452.897,18.416L453.891,18.694L455.21,18.971L456.53,19.342L457.522,19.619L458.842,20.082L459.834,20.729L461.154,21.378L462.15,21.84L463.47,21.748L464.79,21.47L465.782,20.729L467.102,20.082L468.094,19.712L470.735,19.712L471.728,19.342L473.048,18.879L474.04,18.508L475.359,18.323L476.682,18.323L477.672,18.416L478.993,18.416L479.985,18.694L481.306,19.065L482.3,19.434L483.619,19.342L484.941,18.971L485.932,18.6L487.253,18.6L488.245,18.879L489.565,19.249L490.887,19.896L491.877,20.452L493.199,21.1L494.189,21.47L495.511,21.748L496.835,21.748L497.823,21.47L499.147,21.193L500.135,20.729L501.459,20.266L502.446,20.174L503.771,20.174L505.093,20.266L506.083,20.729L507.404,21.1L508.395,21.193L509.717,20.915L511.038,20.545L512.028,20.637L513.351,20.729L514.341,20.729L515.662,20.174L516.986,19.527L517.975,19.527L519.298,19.712L520.286,19.804L521.61,19.804L522.599,19.896L523.922,19.896L525.244,19.989L526.234,19.989L527.556,20.174L528.546,20.637L529.868,21.008L531.191,21.378L532.18,21.84L538.128,21.84L539.449,21.655L540.439,21.378L541.762,21.008L543.081,20.637L544.073,20.36L545.394,20.082L546.386,20.266L547.707,20.545L548.697,20.823L550.02,20.915L551.339,20.823L552.331,20.637L553.651,20.545L554.644,20.823L555.967,21.1L557.287,21.47L558.279,21.562L559.599,21.193L560.591,20.823L561.911,20.452L563.23,20.082L564.225,19.804L565.545,19.527L566.537,19.249L567.856,19.619L568.849,19.989L570.169,20.266L571.488,20.36L572.482,20.452L573.803,20.545L574.795,20.637L576.114,21.008L577.435,21.655L578.427,22.209L579.746,22.674L580.742,23.228L582.062,23.321L583.383,23.043L584.374,21.932L585.694,20.729L586.687,19.712L588.006,19.619L589,19.527L590.32,19.989L591.64,20.729L592.632,21.655L593.952,22.581L594.944,22.489L596.264,22.395L598.58,22.395L599.899,22.118L600.892,21.932L602.212,21.655L603.534,21.562L604.523,21.47L605.846,21.285L606.838,21.193L608.157,21.1L609.149,21.008L610.47,21.008L611.791,21.193L612.781,22.395L614.104,22.766L615.096,22.859L616.415,22.859L617.739,22.489L618.728,22.118L620.051,21.748L621.039,21.84L622.363,22.026L623.686,22.118L624.675,22.303L625.997,23.043L626.987,24.061L628.309,24.802L629.299,24.894L630.621,23.228L631.945,22.118L632.933,22.395L634.257,23.043L635.245,23.692L636.568,24.155L637.891,24.432L638.881,24.802L640.202,25.172L641.192,25.541L642.515,24.894L643.837,24.247L644.826,23.598L646.148,23.413L647.139,23.692L648.46,24.061L649.45,24.247L650.772,23.969L652.097,23.692L653.084,22.209L654.408,21.748L655.396,21.932L656.72,23.784L658.04,24.061L659.032,24.247L660.354,24.524L661.344,24.894L662.666,25.264L663.986,25.727L664.978,25.821L666.298,25.821L667.29,25.635L668.611,24.617L669.602,23.506L670.924,22.581L672.244,21.748L673.235,21.008L674.556,20.36L675.548,20.545L676.871,20.637L678.191,20.729L679.184,20.36L680.503,19.619L681.495,19.249L682.815,19.527L684.136,19.804L685.129,19.527L686.449,19.157L687.441,19.434L688.761,19.989L689.753,20.082L691.073,19.989L692.394,19.896L693.389,19.712L694.709,19.619L695.701,19.527L697.021,19.527L698.343,19.712L699.333,19.989L700.655,20.266L701.645,20.452L702.967,20.823L704.287,21.193L705.278,21.562L706.601,22.026L707.591,22.209L708.912,22.395L710.232,22.581L711.225,22.674L714.86,22.674L715.849,22.303L717.172,21.84L718.492,21.378L719.484,20.915L720.805,20.266L721.796,19.712L723.118,19.896L724.438,19.989L725.43,20.082L726.75,19.989L727.742,19.896L732.698,19.896L733.689,20.452L735.01,21.008L736.002,21.655L737.321,21.932L738.644,22.118L739.636,22.209L740.956,21.932L741.947,21.562L743.268,21.285L744.59,21.47L745.579,21.562L746.901,21.748L747.894,21.932L749.213,22.118L750.537,22.209L751.525,22.026L752.85,21.932L753.837,21.748L755.161,21.008L756.153,20.36L757.473,19.712L758.795,19.157L763.419,19.157L764.739,18.971L765.73,18.694L767.053,18.6L768.043,18.971L769.365,19.434L770.685,19.896L771.677,20.36L772.997,20.729L773.988,21.193L775.312,21.562L776.303,21.932L777.624,22.303L778.944,22.581L779.937,22.951L781.257,23.228L782.248,23.228L783.57,23.043L784.891,22.951L785.882,22.766L787.202,22.581L788.194,22.395L789.515,22.118L790.838,21.84L791.83,21.655L793.15,21.562L794.142,21.84L795.462,22.118L796.454,22.395L797.773,22.766L799.096,23.136L800.088,23.136L801.408,23.228L802.399,23.321L803.72,22.951L805.042,22.581L806.031,22.209L807.354,21.84L808.346,21.562L809.666,21.562L810.989,22.395L811.978,23.969L813.302,24.34L814.289,24.617L815.613,24.894L816.605,25.079L817.926,25.264L819.247,25.356L820.237,25.45L821.56,25.541L822.549,25.635L825.191,25.635L826.183,25.541L827.507,25.45L828.495,25.264L829.819,24.987L831.139,24.617L832.131,24.247L833.451,23.969L834.442,23.598L835.765,23.228L836.755,22.951L838.077,22.303L839.396,21.748L840.389,21.748L841.709,22.674L842.7,23.506L844.022,23.784L845.343,24.155L846.334,24.432L847.654,24.708L848.646,25.079L849.967,25.356L851.29,25.727L852.282,26.006L853.603,26.375L854.594,26.653L858.227,26.653L859.548,26.745L860.54,27.022L861.86,27.393L862.852,27.393L864.172,27.301L865.494,27.301L866.483,27.393L867.806,27.579L868.798,27.487L870.118,27.116L871.441,26.745L872.432,26.468L873.754,26.098L874.743,25.913L876.065,25.913L877.058,26.006L878.378,26.283L879.699,26.836L880.689,27.393L882.012,27.949L883.001,27.949L884.323,28.041L887.959,28.041L888.947,27.208L890.271,26.468L891.591,25.821L892.583,25.913L893.905,26.098L894.895,26.283L896.217,26.375L897.537,26.653L898.529,26.93L899.849,27.487L900.841,27.949L902.163,28.041L903.152,27.856L904.475,27.764L905.795,27.856L906.787,27.856L908.106,27.579L909.099,27.301L910.423,27.116L911.742,27.208L912.734,27.301L914.055,27.579L915.047,27.67L916.366,27.579L917.688,27.393L918.681,27.393L920,27.301L920.992,27.393L922.312,27.487L923.304,27.579L924.624,27.67L925.948,27.764L926.94,27.856L928.26,27.949L929.252,27.949L930.572,28.134L931.894,28.411L932.884,28.688L934.206,28.502L935.198,28.319L936.518,28.226L937.84,28.226L938.83,28.596L940.151,28.782L941.142,28.874L942.464,29.059L943.455,29.151L944.775,29.336L946.1,29.522L947.088,29.8L948.411,29.892L949.399,30.077L950.724,30.262L952.043,30.633L953.035,31.188L954.357,31.743L955.348,31.928L956.669,32.114L957.989,32.297L958.981,32.577L960.301,32.762L961.293,32.391L962.615,32.02L963.604,31.65L964.927,31.373L966.247,31.096L967.239,30.817L968.559,30.54L969.553,30.448L970.875,30.448L972.194,30.354L973.187,30.54L974.507,30.911L975.499,31.281L976.818,31.188L978.141,30.911L980.452,30.911L981.444,31.281L982.765,32.114L983.756,32.206L985.076,32.297L986.4,32.297L987.393,32.947L988.712,33.409L989.704,33.409L991.024,33.5L992.346,33.872L993.336,34.334L994.658,34.243L995.65,34.149L996.97,34.243L998.292,34.427L999.282,34.612L1000.6,34.705L1001.59,34.89L1002.92,35.075L1003.91,35.26L1005.23,35.444L1006.55,35.629L1007.54,35.723L1008.86,35.629L1009.85,35.538L1011.18,35.352L1012.5,35.352L1013.49,35.444L1014.81,35.538L1015.8,35.629L1017.12,35.629L1018.44,35.538L1019.43,35.723L1020.75,36L1021.75,36.371L1023.07,36.648L1024.06,37.018L1025.38,37.481L1026.7,38.037L1027.69,38.59L1029.01,39.333L1030.01,39.98L1067,37.852L1067.99,37.666L1069.32,37.575L1070.31,37.295L1071.63,37.204L1072.95,37.295L1073.94,37.11L1075.26,36.924L1076.25,36.648L1077.57,36.371L1078.89,36.092L1079.89,35.815L1081.2,35.538L1082.2,35.26L1083.52,34.982L1084.84,34.89L1085.83,34.796L1087.15,34.705L1088.15,34.52L1089.46,34.52L1090.46,34.334L1091.78,34.52L1093.1,34.52L1094.09,34.427L1095.41,34.243L1096.4,34.149L1097.72,34.612L1099.05,33.872L1100.04,33.5L1101.36,33.778L1102.35,33.686L1103.67,33.963L1104.99,33.686L1105.98,33.13L1107.31,33.316L1108.3,33.039L1109.62,32.762L1110.61,32.483L1111.93,32.483L1113.25,32.02L1114.24,31.834L1115.56,31.464L1116.56,31.096L1117.87,30.817L1119.2,30.354L1120.19,30.448L1121.51,29.892L1122.5,29.892L1123.82,29.336L1125.14,29.245L1126.13,29.43L1127.46,29.336L1128.45,29.522L1129.77,29.336L1130.76,28.967L1132.08,28.874L1133.4,28.782L1134.39,28.688L1135.71,28.411L1136.7,28.226L1138.03,28.041L1139.35,27.764L1140.34,27.393L1141.66,27.116L1142.65,27.208L1143.97,27.116L1145.29,27.208L1148.6,27.208L1149.92,26.93L1150.91,27.022L1152.23,27.301L1153.55,27.301L1154.54,27.116L1155.86,27.022L1158.18,27.022L1159.5,26.93L1160.49,27.022L1161.81,26.653L1162.8,26.836L1164.12,27.022L1165.44,27.487L1166.44,27.208L1167.76,27.301L1168.75,27.67L1170.07,27.949L1171.06,27.856L1172.38,27.67L1173.7,27.67L1174.69,28.134L1176.02,28.411L1177.01,27.949L1178.33,27.949L1179.65,27.579L1181.96,27.579L1182.95,28.041L1184.27,28.319L1185.6,28.134L1186.59,28.688L1187.91,28.596L1188.9,29.059L1190.22,29.43L1191.21,29.8L1192.53,30.168L1193.85,30.077L1194.84,29.984L1196.17,29.892L1197.16,30.262L1198.48,30.817L1199.8,31.464L1200.79,31.188L1202.11,30.911L1203.1,30.911L1204.43,31.928L1205.75,33.039L1206.74,33.963L1208.06,34.057L1209.05,34.243L1210.37,34.427L1211.36,34.52L1212.68,34.612L1214,34.334L1215,34.796L1216.32,34.612L1217.31,34.89L1218.63,35.352L1219.95,34.89L1222.26,34.89L1223.26,34.982L1224.58,34.982L1225.9,35.075L1226.89,35.352L1228.21,35.629L1229.2,35.26L1230.52,35.352L1232.83,35.352L1234.15,35.26L1235.15,35.167L1236.47,35.075L1237.46,34.982L1238.78,34.89L1240.1,34.796L1241.09,33.686L1242.41,32.668L1243.41,32.577L1244.73,32.483L1246.05,32.391L1247.04,32.114L1248.36,31.834L1249.35,31.558L1250.67,31.281L1251.99,31.096L1252.98,30.817L1254.31,30.911L1255.3,30.911L1256.62,30.725L1257.61,30.633L1258.93,30.54L1260.25,30.448L1261.24,30.354L1262.57,30.168L1263.56,29.892L1264.88,29.522L1266.2,29.059L1267.19,28.688L1268.51,28.319L1269.5,28.134L1276.77,28.134L1277.76,28.041L1279.08,28.041L1280.4,28.134L1281.4,28.226L1282.72,28.411L1283.71,28.502L1285.03,28.688L1286.35,28.226L1287.34,28.319L1288.66,28.411L1289.65,28.502L1290.97,28.596L1292.3,28.688L1293.29,28.782L1294.61,28.874L1295.6,28.967L1305.18,28.967L1306.5,28.874L1307.49,28.782L1308.81,28.782L1309.8,28.688L1311.12,28.596L1312.44,28.596L1313.44,28.502L1314.76,28.411L1315.75,28.319L1317.07,28.319L1318.06,28.226L1319.38,28.134L1320.7,28.134L1321.7,28.226L1325.33,28.226L1326.65,28.134L1327.64,28.134L1328.96,28.041L1329.95,27.949L1331.28,27.856L1332.6,27.67L1333.59,27.579L1334.91,27.393L1335.9,27.208L1337.22,27.022L1338.21,26.93L1339.54,26.836L1344.16,26.836L1345.48,26.745L1346.8,26.653L1347.79,26.468L1349.11,26.375L1350.11,26.006L1351.43,25.635L1352.75,25.356L1353.74,24.987L1355.06,24.617L1356.05,24.34L1357.37,23.969L1358.37,23.598L1359.69,23.136L1361.01,22.581L1362,21.932L1363.32,21.47L1364.31,21.193L1365.63,20.452L1366.95,19.712L1367.94,18.971L1369.27,18.231L1370.26,17.399L1371.58,16.658L1372.9,15.176L1373.89,14.53L1375.21,14.344L1376.2,14.067L1377.52,13.881L1378.51,13.696L1379.84,13.604L1381.16,13.696L1382.15,13.788L1383.47,13.604L1384.46,13.326L1385.78,13.14L1387.1,13.048L1388.09,13.048L1389.42,12.771L1390.41,12.307L1391.73,11.844L1393.05,11.382L1394.04,10.92L1395.36,10.735L1396.35,10.456L1397.68,10.272L1398.66,10.086L1399.99,9.808L1401.31,9.532L1402.3,9.069L1403.62,9.161L1404.61,9.625L1405.93,10.178L1407.25,10.178L1408.25,10.086L1409.57,9.994L1410.56,9.808L1411.88,9.44L1413.2,9.346L1414.19,9.069L1415.51,8.512L1416.51,8.142L1417.83,7.774L1419.15,7.403L1420.14,7.217L1421.46,7.125L1423.77,7.125L1424.76,6.384L1426.08,5.551L1427.4,5.459L1428.4,5.366L1429.72,5.274L1430.71,5.18L1432.03,5.088L1433.35,4.997L1434.34,4.812L1435.66,4.533L1436.65,4.348L1437.98,4.164L1439.3,3.885L1440.29,3.515L1441.61,3.146L1442.6,2.313L1443.92,1.48L1446.23,1.48L1447.56,1.386L1449.87,1.386L1450.86,1.851L1452.18,2.313L1453.5,2.59L1454.49,2.59L1455.81,2.867L1456.81,3.331L1458.13,3.793L1459.45,3.515L1460.44,3.146L1461.76,2.775L1462.75,2.405L1464.07,1.851L1465.06,1.294L1466.39,0.647L1467.71,0.091L1468.7,-0.556L1470.02,-1.297L1471.01,-2.222L1472.33,-3.426L1473.65,-4.166L1474.65,-5.461L1475.97,-6.109L1476.96,-6.757L1478.28,-7.312L1479.6,-7.96L1480.59,-8.516L1481.91,-8.978L1482.9,-9.44L1484.22,-9.997L1485.21,-10.459L1486.54,-11.015L1487.86,-11.663L1488.85,-12.217L1490.17,-12.681L1491.16,-13.143L1492.48,-13.605L1493.81,-14.068L1494.79,-14.531L1496.12,-14.901L1497.1,-15.364L1498.43,-15.827L1499.75,-16.197L1500.74,-16.66L1502.06,-17.03L1503.05,-17.4L1504.38,-17.77L1505.36,-18.14L1506.69,-18.511L1508.01,-18.88L1509,-19.066L1510.32,-19.159L1511.31,-19.159L1512.63,-19.251" style="fill:none;fill-rule:nonzero;stroke:rgb(46,49,145);stroke-width:1.31px;"/>
        </g>
    </g>
</svg>
