<?xml version="1.0" encoding="UTF-8" standalone="no"?>
<!DOCTYPE svg PUBLIC "-//W3C//DTD SVG 1.1//EN" "http://www.w3.org/Graphics/SVG/1.1/DTD/svg11.dtd">
<svg width="100%" height="100%" viewBox="0 0 1634 300" version="1.1" xmlns="http://www.w3.org/2000/svg" xmlns:xlink="http://www.w3.org/1999/xlink" xml:space="preserve" xmlns:serif="http://www.serif.com/" style="fill-rule:evenodd;clip-rule:evenodd;">
    <g transform="matrix(1,0,0,1,60.6465,174.015)">
        <g id="depth-section" serif:id="depth section">
            <path d="M0,25.727L4.624,25.727L5.945,25.635L8.258,25.635L9.581,25.543L14.205,25.543L15.527,25.45L18.829,25.45L20.151,25.543L21.474,25.543L22.463,25.635L23.785,25.821L24.775,25.913L26.097,26.006L27.087,26.098L28.409,26.006L29.732,25.821L30.721,25.635L32.045,25.358L33.033,25.264L34.356,25.821L35.679,26.56L36.669,27.301L37.99,27.672L38.98,27.764L40.303,27.487L41.622,27.024L42.614,26.838L44.927,26.838L46.25,26.653L53.187,26.653L54.508,26.56L62.766,26.56L64.086,26.468L68.714,26.468L70.034,26.376L72.346,26.376L73.338,26.283L75.978,26.283L76.972,26.191L79.283,26.191L80.604,26.098L82.915,26.098L84.235,26.006L86.549,26.006L87.541,25.913L88.861,25.913L90.181,25.821L97.121,25.821L98.44,25.727L103.066,25.727L104.387,25.635L107.69,25.635L109.011,25.727L110.335,25.821L111.326,25.913L112.646,26.006L113.639,26.006L114.958,26.468L116.28,26.93L117.271,27.393L118.592,27.949L119.584,28.596L120.904,29.153L122.227,29.43L123.216,29.615L124.538,27.579L125.528,25.635L126.85,25.635L127.842,25.543L129.162,25.45L130.486,25.358L131.474,25.45L132.798,25.358L136.432,25.358L137.422,25.45L138.743,25.543L139.733,25.727L141.056,25.913L142.38,26.006L143.367,26.098L144.691,26.191L145.68,26.191L147.003,26.006L147.991,25.821L149.315,25.635L150.638,25.45L151.627,25.264L152.949,25.08L153.939,24.894L158.896,24.894L159.885,24.987L161.207,25.08L162.527,25.264L163.519,25.358L164.843,25.358L165.831,25.264L168.143,25.264L169.467,25.172L170.787,25.172L171.778,24.987L173.101,24.894L174.091,24.802L175.412,25.172L176.732,25.45L177.725,25.635L179.045,25.543L180.036,25.543L181.358,25.45L189.618,25.45L190.938,25.543L191.93,25.543L193.25,25.635L194.242,25.635L195.562,25.543L196.882,25.543L197.876,25.45L199.196,25.358L200.187,25.264L201.508,25.172L202.828,25.08L203.819,25.264L205.14,25.358L206.136,25.45L208.775,25.45L209.768,25.543L211.088,25.635L212.079,25.543L213.399,25.358L214.394,25.08L215.713,24.802L217.033,24.617L218.025,24.432L219.346,24.155L220.337,24.063L226.283,24.063L227.603,23.969L229.915,23.969L231.239,24.063L233.551,24.063L234.543,24.155L235.862,24.34L237.185,24.525L238.175,24.802L239.497,25.08L240.488,25.264L241.809,25.172L243.133,24.987L244.12,24.802L245.444,24.617L246.433,24.34L247.757,24.247L249.078,24.71L250.068,25.264L251.391,25.727L252.38,25.543L253.702,24.987L254.692,24.987L256.014,25.172L257.336,25.45L258.326,25.264L259.648,25.08L260.638,24.71L261.96,24.617L263.284,24.71L264.271,24.894L265.596,25.543L266.584,26.098L267.908,26.653L269.229,27.116L270.22,27.207L271.542,27.301L272.531,25.821L273.854,25.358L274.844,24.802L276.165,24.34L277.487,23.877L278.478,23.506L279.8,23.136L280.789,23.044L282.111,23.136L283.436,23.506L284.423,23.598L286.735,23.598L288.06,23.692L289.379,23.877L290.371,24.063L291.693,24.155L292.683,24.247L294.005,24.432L294.995,24.617L296.317,24.802L297.637,25.08L298.629,25.264L299.953,25.172L300.94,24.987L302.265,24.894L303.585,24.71L304.577,24.617L305.896,24.432L306.889,24.34L308.211,22.581L309.53,20.916L310.522,19.342L311.843,18.971L312.834,18.786L314.154,19.25L315.146,21.378L316.469,23.969L317.788,23.877L318.78,24.155L320.101,24.432L321.092,24.802L322.412,25.172L323.732,24.894L324.729,24.617L326.048,24.34L327.04,24.34L328.36,24.247L329.68,24.247L330.672,24.34L331.992,24.525L332.985,24.525L334.306,24.155L335.298,23.877L336.618,23.692L337.937,23.506L338.93,23.414L340.25,23.229L341.245,23.229L342.565,23.414L343.886,23.506L344.878,23.692L346.197,23.784L347.189,23.969L348.51,23.877L349.831,23.598L350.823,23.321L352.144,23.321L353.135,23.506L354.455,23.692L356.768,23.692L358.089,23.506L359.081,23.414L360.401,23.229L361.393,23.321L362.713,23.598L364.037,23.877L365.024,24.155L366.349,24.34L367.341,24.617L368.661,24.802L369.982,24.802L370.973,24.71L372.295,24.525L373.284,24.155L374.606,23.692L375.929,23.414L376.919,23.136L378.24,22.952L379.23,22.674L380.553,22.766L381.542,23.598L382.864,23.969L384.188,24.155L385.177,24.247L386.5,24.155L387.49,23.229L388.812,22.397L390.134,21.748L391.124,22.118L392.446,22.581L393.436,23.136L394.758,23.784L396.082,24.34L397.07,24.525L398.394,24.432L399.382,24.247L400.706,23.598L401.693,23.044L403.018,22.303L404.34,22.303L405.33,22.397L406.651,22.303L407.642,22.118L408.964,22.303L410.283,22.952L411.275,23.598L412.598,23.969L413.588,24.155L414.909,24.432L416.229,24.617L417.222,24.894L418.541,25.08L419.533,24.987L420.857,24.987L421.845,24.894L430.435,24.894L431.427,24.987L433.739,24.987L435.059,24.71L436.379,24.247L437.375,23.784L438.694,23.321L439.687,23.598L441.007,24.063L441.999,24.34L443.318,24.34L444.639,24.155L445.633,23.414L446.952,23.229L447.944,23.044L449.265,22.859L450.584,22.952L451.576,23.229L452.897,23.414L453.891,23.692L455.21,23.969L456.53,24.34L457.522,24.617L458.842,25.08L459.834,25.727L461.154,26.376L462.15,26.838L463.47,26.746L464.79,26.468L465.782,25.727L467.102,25.08L468.094,24.71L470.735,24.71L471.728,24.34L473.048,23.877L474.04,23.506L475.359,23.321L476.682,23.321L477.672,23.414L478.993,23.414L479.985,23.692L481.306,24.063L482.3,24.432L483.619,24.34L484.941,23.969L485.932,23.598L487.253,23.598L488.245,23.877L489.565,24.247L490.887,24.894L491.877,25.45L493.199,26.098L494.189,26.468L495.511,26.746L496.835,26.746L497.823,26.468L499.147,26.191L500.135,25.727L501.459,25.264L502.446,25.172L503.771,25.172L505.093,25.264L506.083,25.727L507.404,26.098L508.395,26.191L509.717,25.913L511.038,25.543L512.028,25.635L513.351,25.727L514.341,25.727L515.662,25.172L516.986,24.525L517.975,24.525L519.298,24.71L520.286,24.802L521.61,24.802L522.599,24.894L523.922,24.894L525.244,24.987L526.234,24.987L527.556,25.172L528.546,25.635L529.868,26.006L531.191,26.376L532.18,26.838L538.128,26.838L539.449,26.653L540.439,26.376L541.762,26.006L543.081,25.635L544.073,25.358L545.394,25.08L546.386,25.264L547.707,25.543L548.697,25.821L550.02,25.913L551.339,25.821L552.331,25.635L553.651,25.543L554.644,25.821L555.967,26.098L557.287,26.468L558.279,26.56L559.599,26.191L560.591,25.821L561.911,25.45L563.23,25.08L564.225,24.802L565.545,24.525L566.537,24.247L567.856,24.617L568.849,24.987L570.169,25.264L571.488,25.358L572.482,25.45L573.803,25.543L574.795,25.635L576.114,26.006L577.435,26.653L578.427,27.207L579.746,27.672L580.742,28.226L582.062,28.319L583.383,28.041L584.374,26.93L585.694,25.727L586.687,24.71L588.006,24.617L589,24.525L590.32,24.987L591.64,25.727L592.632,26.653L593.952,27.579L594.944,27.487L596.264,27.393L598.58,27.393L599.899,27.116L600.892,26.93L602.212,26.653L603.534,26.56L604.523,26.468L605.846,26.283L606.838,26.191L608.157,26.098L609.149,26.006L610.47,26.006L611.791,26.191L612.781,27.393L614.104,27.764L615.096,27.857L616.415,27.857L617.739,27.487L618.728,27.116L620.051,26.746L621.039,26.838L622.363,27.024L623.686,27.116L624.675,27.301L625.997,28.041L626.987,29.059L628.309,29.8L629.299,29.892L630.621,28.226L631.945,27.116L632.933,27.393L634.257,28.041L635.245,28.69L636.568,29.153L637.891,29.43L638.881,29.8L640.202,30.17L641.192,30.539L642.515,29.892L643.837,29.245L644.826,28.596L646.148,28.411L647.139,28.69L648.46,29.059L649.45,29.245L650.772,28.967L652.097,28.69L653.084,27.207L654.408,26.746L655.396,26.93L656.72,28.782L658.04,29.059L659.032,29.245L660.354,29.522L661.344,29.892L662.666,30.262L663.986,30.725L664.978,30.819L666.298,30.819L667.29,30.633L668.611,29.615L669.602,28.504L670.924,27.579L672.244,26.746L673.235,26.006L674.556,25.358L675.548,25.543L676.871,25.635L678.191,25.727L679.184,25.358L680.503,24.617L681.495,24.247L682.815,24.525L684.136,24.802L685.129,24.525L686.449,24.155L687.441,24.432L688.761,24.987L689.753,25.08L691.073,24.987L692.394,24.894L693.389,24.71L694.709,24.617L695.701,24.525L697.021,24.525L698.343,24.71L699.333,24.987L700.655,25.264L701.645,25.45L702.967,25.821L704.287,26.191L705.278,26.56L706.601,27.024L707.591,27.207L708.912,27.393L710.232,27.579L711.225,27.672L714.86,27.672L715.849,27.301L717.172,26.838L718.492,26.376L719.484,25.913L720.805,25.264L721.796,24.71L723.118,24.894L724.438,24.987L725.43,25.08L726.75,24.987L727.742,24.894L732.698,24.894L733.689,25.45L735.01,26.006L736.002,26.653L737.321,26.93L738.644,27.116L739.636,27.207L740.956,26.93L741.947,26.56L743.268,26.283L744.59,26.468L745.579,26.56L746.901,26.746L747.894,26.93L749.213,27.116L750.537,27.207L751.525,27.024L752.85,26.93L753.837,26.746L755.161,26.006L756.153,25.358L757.473,24.71L758.795,24.155L763.419,24.155L764.739,23.969L765.73,23.692L767.053,23.598L768.043,23.969L769.365,24.432L770.685,24.894L771.677,25.358L772.997,25.727L773.988,26.191L775.312,26.56L776.303,26.93L777.624,27.301L778.944,27.579L779.937,27.949L781.257,28.226L782.248,28.226L783.57,28.041L784.891,27.949L785.882,27.764L787.202,27.579L788.194,27.393L789.515,27.116L790.838,26.838L791.83,26.653L793.15,26.56L794.142,26.838L795.462,27.116L796.454,27.393L797.773,27.764L799.096,28.134L800.088,28.134L801.408,28.226L802.399,28.319L803.72,27.949L805.042,27.579L806.031,27.207L807.354,26.838L808.346,26.56L809.666,26.56L810.989,27.393L811.978,28.967L813.302,29.338L814.289,29.615L815.613,29.892L816.605,30.077L817.926,30.262L819.247,30.354L820.237,30.448L821.56,30.539L822.549,30.633L825.191,30.633L826.183,30.539L827.507,30.448L828.495,30.262L829.819,29.985L831.139,29.615L832.131,29.245L833.451,28.967L834.442,28.596L835.765,28.226L836.755,27.949L838.077,27.301L839.396,26.746L840.389,26.746L841.709,27.672L842.7,28.504L844.022,28.782L845.343,29.153L846.334,29.43L847.654,29.706L848.646,30.077L849.967,30.354L851.29,30.725L852.282,31.004L853.603,31.373L854.594,31.651L858.227,31.651L859.548,31.743L860.54,32.02L861.86,32.391L862.852,32.391L864.172,32.299L865.494,32.299L866.483,32.391L867.806,32.577L868.798,32.485L870.118,32.114L871.441,31.743L872.432,31.466L873.754,31.096L874.743,30.911L876.065,30.911L877.058,31.004L878.378,31.281L879.699,31.834L880.689,32.391L882.012,32.947L883.001,32.947L884.323,33.039L887.959,33.039L888.947,32.206L890.271,31.466L891.591,30.819L892.583,30.911L893.905,31.096L894.895,31.281L896.217,31.373L897.537,31.651L898.529,31.928L899.849,32.485L900.841,32.947L902.163,33.039L903.152,32.854L904.475,32.762L905.795,32.854L906.787,32.854L908.106,32.577L909.099,32.299L910.423,32.114L911.742,32.206L912.734,32.299L914.055,32.577L915.047,32.668L916.366,32.577L917.688,32.391L918.681,32.391L920,32.299L920.992,32.391L922.312,32.485L923.304,32.577L924.624,32.668L925.948,32.762L926.94,32.854L928.26,32.947L929.252,32.947L930.572,33.132L931.894,33.409L932.884,33.686L934.206,33.5L935.198,33.317L936.518,33.224L937.84,33.224L938.83,33.594L940.151,33.78L941.142,33.872L942.464,34.057L943.455,34.149L944.775,34.334L946.1,34.52L947.088,34.798L948.411,34.89L949.399,35.075L950.724,35.26L952.043,35.631L953.035,36.186L954.357,36.741L955.348,36.926L956.669,37.112L957.989,37.295L958.981,37.575L960.301,37.76L961.293,37.389L962.615,37.018L963.604,36.648L964.927,36.371L966.247,36.094L967.239,35.815L968.559,35.538L969.553,35.446L970.875,35.446L972.194,35.352L973.187,35.538L974.507,35.909L975.499,36.279L976.818,36.186L978.141,35.909L980.452,35.909L981.444,36.279L982.765,37.112L983.756,37.204L985.076,37.295L986.4,37.295L987.393,37.945L988.712,38.407L989.704,38.407L991.024,38.498L992.346,38.498L993.336,38.592L995.65,38.592L996.97,38.684L1000.6,38.684L1001.59,38.776L1021.75,38.776L1023.07,38.87L1024.06,38.87L1025.38,38.961L1026.7,38.961L1027.69,39.055L1029.01,39.241L1030.01,39.425L1031.33,39.61L1064.69,39.98L1065.68,39.888L1067,39.703L1067.99,39.61L1069.32,39.425L1070.31,39.241L1071.63,39.241L1072.95,39.425L1073.94,39.332L1075.26,39.241L1076.25,39.055L1077.57,38.87L1078.89,38.776L1079.89,38.592L1081.2,38.498L1082.2,38.314L1083.52,38.128L1084.84,38.037L1085.83,37.852L1087.15,37.76L1088.15,37.575L1089.46,37.481L1090.46,37.481L1091.78,37.389L1094.09,37.389L1095.41,37.295L1096.4,37.389L1097.72,37.666L1099.05,37.481L1100.04,37.204L1101.36,37.295L1102.35,37.295L1103.67,37.666L1104.99,37.575L1105.98,37.112L1107.31,37.389L1108.3,37.295L1109.62,37.112L1110.61,36.741L1111.93,36.556L1113.25,35.815L1114.24,35.631L1115.56,35.446L1116.56,35.075L1117.87,34.982L1119.2,34.613L1120.19,34.334L1121.51,34.149L1122.5,33.686L1123.82,33.224L1125.14,33.039L1127.46,33.039L1128.45,33.132L1129.77,33.039L1130.76,32.762L1132.08,32.762L1133.4,32.668L1134.39,32.668L1135.71,32.391L1136.7,32.299L1138.03,32.02L1139.35,31.928L1140.34,31.558L1141.66,31.373L1142.65,31.188L1143.97,31.466L1145.29,31.373L1146.29,31.188L1147.61,31.281L1148.6,31.281L1149.92,31.004L1150.91,31.004L1152.23,31.281L1153.55,31.373L1154.54,31.004L1155.86,30.819L1156.86,31.004L1158.18,31.373L1159.5,31.096L1160.49,31.096L1161.81,30.911L1162.8,31.188L1164.12,31.466L1165.44,31.743L1166.44,31.281L1167.76,31.466L1168.75,31.834L1170.07,32.114L1171.06,31.928L1172.38,31.651L1173.7,31.743L1174.69,32.206L1176.02,32.668L1177.01,32.299L1178.33,32.02L1179.65,31.651L1180.64,31.466L1181.96,31.558L1182.95,32.02L1184.27,32.299L1185.6,32.114L1186.59,32.668L1187.91,32.577L1188.9,32.947L1190.22,33.317L1191.21,33.686L1192.53,33.78L1194.84,33.78L1196.17,33.686L1197.16,33.872L1198.48,34.705L1199.8,35.075L1200.79,34.613L1202.11,34.057L1203.1,34.428L1204.43,35.352L1205.75,36.279L1206.74,37.204L1208.06,37.389L1209.05,37.481L1210.37,37.575L1211.36,37.575L1212.68,37.666L1214,37.666L1215,37.575L1216.32,37.666L1217.31,37.945L1218.63,38.128L1219.95,37.666L1220.94,37.112L1222.26,37.295L1223.26,37.389L1224.58,37.481L1225.9,37.575L1226.89,37.852L1228.21,38.314L1229.2,38.037L1230.52,38.037L1231.84,38.128L1232.83,37.76L1234.15,37.575L1235.15,37.666L1236.47,37.575L1237.46,37.389L1238.78,37.204L1240.1,37.112L1241.09,36.094L1242.41,35.075L1243.41,34.982L1244.73,34.982L1246.05,34.613L1247.04,34.057L1248.36,33.224L1249.35,32.114L1250.67,31.834L1251.99,31.558L1252.98,31.281L1254.31,31.004L1255.3,30.819L1256.62,30.633L1257.61,30.448L1258.93,30.077L1260.25,29.8L1261.24,29.522L1262.57,29.245L1263.56,28.782L1264.88,28.226L1266.2,27.949L1267.19,27.764L1268.51,27.672L1269.5,27.487L1270.82,27.393L1272.14,27.487L1273.14,27.672L1274.46,27.672L1275.45,27.487L1276.77,27.301L1277.76,27.116L1279.08,26.93L1280.4,26.838L1281.4,26.93L1282.72,27.024L1283.71,27.116L1285.03,27.207L1286.35,27.301L1287.34,27.393L1288.66,27.487L1289.65,27.579L1290.97,27.672L1292.3,27.672L1293.29,27.764L1294.61,27.857L1295.6,27.857L1296.92,27.949L1297.91,28.041L1299.23,28.041L1300.56,28.134L1301.54,28.134L1302.87,28.041L1305.18,28.041L1306.5,27.949L1307.49,27.857L1308.81,27.672L1309.8,27.487L1311.12,27.207L1312.44,27.024L1313.44,26.746L1314.76,26.283L1315.75,26.006L1317.07,25.913L1318.06,25.727L1319.38,25.635L1320.7,25.45L1321.7,25.264L1328.96,25.264L1329.95,25.172L1331.28,25.08L1332.6,24.894L1333.59,24.617L1334.91,24.432L1335.9,24.525L1337.22,24.34L1338.21,24.247L1339.54,24.063L1340.86,23.877L1341.85,23.692L1343.17,23.506L1344.16,23.414L1345.48,23.414L1346.8,23.321L1347.79,23.044L1349.11,22.859L1350.11,22.674L1351.43,22.397L1352.75,22.211L1353.74,21.932L1355.06,21.748L1356.05,21.378L1357.37,20.916L1358.37,20.545L1359.69,20.174L1361.01,19.804L1362,19.435L1363.32,19.065L1364.31,18.694L1365.63,18.324L1366.95,18.046L1367.94,17.584L1369.27,17.122L1370.26,16.658L1371.58,16.103L1372.9,15.547L1373.89,15.362L1375.21,15.084L1376.2,14.9L1377.52,14.714L1378.51,14.623L1379.84,14.53L1381.16,14.714L1382.15,14.806L1383.47,14.714L1384.46,14.623L1385.78,14.438L1387.1,14.252L1388.09,14.067L1389.42,13.881L1390.41,13.51L1391.73,13.234L1393.05,12.864L1394.04,12.493L1395.36,12.215L1396.35,12.123L1397.68,11.938L1398.66,11.844L1399.99,11.66L1401.31,11.476L1402.3,11.198L1403.62,11.012L1404.61,10.92L1405.93,10.92L1407.25,10.827L1408.25,10.735L1409.57,10.735L1410.56,10.643L1411.88,10.457L1413.2,10.272L1414.19,10.086L1415.51,9.902L1416.51,9.81L1417.83,9.624L1419.15,9.531L1420.14,9.439L1421.46,9.346L1423.77,9.346L1424.76,9.254L1426.08,8.977L1427.4,8.791L1428.4,8.513L1429.72,8.606L1433.35,8.606L1434.34,8.513L1435.66,8.329L1436.65,8.144L1437.98,7.958L1439.3,7.773L1440.29,7.588L1441.61,7.496L1442.6,7.217L1443.92,6.478L1446.23,6.478L1447.56,6.384L1449.87,6.384L1450.86,6.755L1453.5,6.755L1454.49,6.849L1455.81,6.849L1456.81,6.94L1459.45,6.94L1460.44,6.849L1461.76,6.384L1462.75,5.922L1464.07,5.552L1465.06,5.183L1466.39,4.904L1467.71,4.535L1468.7,4.164L1470.02,3.701L1471.01,2.776L1472.33,1.572L1473.65,0.832L1474.65,-0.463L1475.97,-1.111L1476.96,-1.759L1478.28,-2.314L1479.6,-2.962L1480.59,-3.518L1481.91,-3.98L1482.9,-4.442L1484.22,-4.999L1485.21,-5.461L1486.54,-6.017L1487.86,-6.665L1488.85,-7.219L1490.17,-7.683L1491.16,-8.145L1492.48,-8.607L1493.81,-9.07L1494.79,-9.533L1496.12,-9.903L1497.1,-10.366L1498.43,-10.829L1499.75,-11.199L1500.74,-11.662L1502.06,-12.032L1503.05,-12.402L1504.38,-12.772L1505.36,-13.142L1506.69,-13.513L1508.01,-13.882L1509,-14.068L1510.32,-14.161L1511.31,-14.161L1512.63,-14.253" style="fill:none;fill-rule:nonzero;stroke:rgb(88,89,91);stroke-width:0.65px;"/>
        </g>
    </g>
</svg>
