<?xml version="1.0" encoding="UTF-8" standalone="no"?>
<!DOCTYPE svg PUBLIC "-//W3C//DTD SVG 1.1//EN" "http://www.w3.org/Graphics/SVG/1.1/DTD/svg11.dtd">
<svg width="100%" height="100%" viewBox="0 0 1634 300" version="1.1" xmlns="http://www.w3.org/2000/svg" xmlns:xlink="http://www.w3.org/1999/xlink" xml:space="preserve" xmlns:serif="http://www.serif.com/" style="fill-rule:evenodd;clip-rule:evenodd;">
    <g transform="matrix(1,0,0,1,60.6465,161.797)">
        <g id="depth-section" serif:id="depth section">
            <path d="M0,35.077L3.634,35.077L4.624,35.17L5.945,35.263L6.936,35.354L8.258,35.447L10.569,35.447L11.894,35.354L15.527,35.354L16.518,35.263L18.829,35.263L20.151,35.354L21.474,35.539L22.463,35.539L23.785,35.632L26.097,35.632L27.087,35.539L28.409,35.447L29.732,35.447L30.721,35.539L32.045,35.724L33.033,35.91L34.356,36.002L36.669,36.002L37.99,35.91L38.98,35.724L40.303,35.539L42.614,35.539L43.938,35.447L44.927,35.447L46.25,35.632L53.187,35.632L54.508,35.539L62.766,35.539L64.086,35.447L72.346,35.447L73.338,35.354L84.235,35.354L85.229,35.447L93.489,35.447L94.809,35.539L97.121,35.539L98.44,35.632L99.433,35.724L103.066,35.724L104.387,35.91L105.379,35.91L106.698,36.002L109.011,36.002L110.335,36.096L111.326,36.373L112.646,36.558L114.958,36.558L116.28,36.65L117.271,36.835L118.592,36.835L119.584,36.929L120.904,36.929L122.227,37.02L123.216,37.112L124.538,37.112L125.528,36.65L126.85,36.187L127.842,35.724L129.162,35.354L130.486,35.077L131.474,34.799L132.798,34.799L133.786,34.707L142.38,34.707L143.367,34.892L144.691,34.984L145.68,35.077L147.003,35.17L147.991,35.077L149.315,34.984L150.638,34.892L151.627,34.799L152.949,34.707L153.939,34.615L155.261,34.707L162.527,34.707L163.519,34.799L165.831,34.799L167.154,34.892L169.467,34.892L170.787,34.984L171.778,34.984L173.101,35.077L174.091,35.077L175.412,35.17L181.358,35.17L182.679,35.077L183.67,34.984L184.99,34.892L187.302,34.892L188.622,34.799L195.562,34.799L196.882,34.707L205.14,34.707L206.136,34.615L207.456,34.799L208.775,34.892L211.088,34.892L212.079,34.799L213.399,34.615L214.394,34.43L215.713,34.336L222.979,34.336L223.971,34.244L229.915,34.244L231.239,34.336L232.23,34.43L233.551,34.521L234.543,34.799L235.862,34.984L237.185,34.984L238.175,34.892L239.497,34.799L240.488,34.707L241.809,34.615L243.133,34.707L245.444,34.707L246.433,34.799L247.757,34.892L249.078,35.077L250.068,34.892L251.391,34.799L252.38,34.615L254.692,34.615L256.014,34.707L257.336,34.707L258.326,34.799L259.648,34.707L260.638,34.707L261.96,34.799L263.284,34.892L264.271,34.892L265.596,34.799L266.584,34.984L267.908,35.17L269.229,35.077L271.542,35.077L272.531,34.984L274.844,34.984L276.165,34.799L277.487,34.521L278.478,34.244L279.8,34.058L280.789,34.058L282.111,34.15L283.436,34.244L284.423,34.336L285.747,34.336L286.735,34.521L288.06,34.892L289.379,35.077L290.371,35.077L291.693,34.984L292.683,34.984L294.005,34.892L294.995,34.892L296.317,34.799L300.94,34.799L302.265,34.892L304.577,34.892L305.896,34.984L306.889,35.077L308.211,34.799L309.53,33.135L310.522,31.56L311.843,31.189L312.834,31.004L314.154,31.469L315.146,32.764L316.469,34.058L317.788,35.077L318.78,34.984L321.092,34.984L322.412,34.892L323.732,34.799L324.729,34.707L326.048,34.521L327.04,34.336L328.36,34.244L331.992,34.244L332.985,34.15L335.298,34.15L336.618,34.058L337.937,33.874L338.93,33.688L340.25,33.597L348.51,33.597L349.831,33.504L350.823,33.504L352.144,33.411L353.135,33.318L354.455,33.226L358.089,33.226L359.081,33.135L360.401,33.226L362.713,33.226L364.037,33.318L366.349,33.318L367.341,33.411L375.929,33.411L376.919,33.226L378.24,33.041L379.23,33.041L380.553,33.226L381.542,33.504L382.864,33.874L387.49,33.874L388.812,33.688L390.134,33.504L391.124,33.504L392.446,33.874L396.082,33.874L397.07,33.967L399.382,33.967L400.706,33.874L401.693,33.597L403.018,33.597L404.34,33.688L405.33,33.597L406.651,33.504L407.642,33.781L408.964,33.967L410.283,34.244L414.909,34.244L416.229,34.15L435.059,34.15L436.379,33.967L437.375,33.781L438.694,33.597L439.687,33.688L441.007,33.781L441.999,33.874L443.318,33.967L444.639,33.781L445.633,33.597L446.952,33.411L447.944,33.318L449.265,33.411L450.584,33.411L451.576,33.504L452.897,33.688L463.47,33.688L464.79,33.781L471.728,33.781L473.048,33.688L474.04,33.504L475.359,33.411L476.682,33.504L477.672,33.597L478.993,33.781L483.619,33.781L484.941,33.874L490.887,33.874L491.877,33.967L496.835,33.967L497.823,34.058L554.644,34.058L555.967,33.967L583.383,33.967L584.374,33.874L585.694,33.781L586.687,33.688L588.006,33.597L593.952,33.597L594.944,33.781L596.264,33.967L597.588,34.058L599.899,34.058L600.892,33.967L606.838,33.967L608.157,33.874L612.781,33.874L614.104,33.781L621.039,33.781L622.363,33.688L625.997,33.688L626.987,33.781L632.933,33.781L634.257,33.874L637.891,33.874L638.881,33.781L643.837,33.781L644.826,33.688L648.46,33.688L649.45,33.597L654.408,33.597L655.396,33.504L667.29,33.504L668.611,33.411L682.815,33.411L684.136,33.318L698.343,33.318L699.333,33.226L710.232,33.226L711.225,33.135L718.492,33.135L719.484,33.041L721.796,33.041L723.118,32.949L724.438,32.949L725.43,32.855L726.75,32.764L727.742,32.764L729.062,32.67L730.386,32.67L731.378,32.578L732.698,32.484L733.689,32.392L735.01,32.208L736.002,32.022L737.321,31.838L738.644,31.653L739.636,31.56L740.956,31.469L741.947,31.375L743.268,31.189L744.59,31.098L745.579,31.004L746.901,30.82L747.894,30.635L749.213,30.542L750.537,30.356L751.525,30.172L752.85,30.08L753.837,29.894L755.161,29.803L756.153,29.617L757.473,29.523L758.795,29.431L759.785,29.246L761.107,29.154L762.097,29.06L763.419,28.969L764.739,28.876L765.73,28.784L779.937,28.784L781.257,28.876L782.248,28.876L783.57,28.969L784.891,28.969L785.882,29.06L787.202,29.154L788.194,29.154L789.515,29.246L790.838,29.34L791.83,29.431L793.15,29.523L794.142,29.617L795.462,29.617L796.454,29.709L797.773,29.709L799.096,29.803L800.088,29.803L801.408,29.894L806.031,29.894L807.354,29.987L826.183,29.987L827.507,29.894L831.139,29.894L832.131,29.803L834.442,29.803L835.765,29.709L838.077,29.709L839.396,29.617L841.709,29.617L842.7,29.523L844.022,29.523L845.343,29.431L846.334,29.34L847.654,29.34L848.646,29.246L849.967,29.246L851.29,29.154L852.282,29.154L853.603,29.06L854.594,29.06L855.914,28.969L856.906,28.969L858.227,28.876L859.548,28.876L860.54,28.784L862.852,28.784L864.172,28.69L866.483,28.69L867.806,28.598L871.441,28.598L872.432,28.69L874.743,28.69L876.065,28.598L877.058,28.598L878.378,28.507L879.699,28.507L880.689,28.414L882.012,28.414L883.001,28.321L884.323,28.321L885.647,28.228L886.635,28.228L887.959,28.137L888.947,28.137L890.271,28.043L891.591,28.043L892.583,27.951L893.905,27.951L894.895,27.857L896.217,27.765L897.537,27.765L898.529,27.672L899.849,27.672L900.841,27.58L902.163,27.58L903.152,27.488L904.475,27.394L905.795,27.394L906.787,27.303L908.106,27.303L909.099,27.21L910.423,27.118L911.742,27.118L912.734,27.024L914.055,27.024L915.047,26.932L916.366,26.932L917.688,26.841L918.681,26.841L920,26.748L920.992,26.748L922.312,26.656L923.304,26.656L924.624,26.562L925.948,26.562L926.94,26.471L928.26,26.471L929.252,26.377L930.572,26.377L931.894,26.285L932.884,26.191L934.206,26.191L935.198,26.099L936.518,26.099L937.84,26.008L938.83,26.008L940.151,25.914L941.142,25.914L942.464,25.822L943.455,25.822L944.775,25.728L946.1,25.728L947.088,25.637L948.411,25.544L949.399,25.544L950.724,25.452L952.043,25.358L953.035,25.266L954.357,25.175L955.348,25.082L956.669,24.99L957.989,24.99L958.981,24.896L960.301,24.805L961.293,24.711L962.615,24.619L963.604,24.619L964.927,24.527L966.247,24.433L967.239,24.433L968.559,24.342L970.875,24.342L972.194,24.248L979.133,24.248L980.452,24.156L981.444,24.156L982.765,24.062L985.076,24.062L986.4,23.971L988.712,23.971L989.704,23.878L1001.59,23.878L1002.92,23.971L1006.55,23.971L1007.54,23.878L1012.5,23.878L1013.49,23.786L1014.81,23.694L1015.8,23.694L1017.12,23.6L1018.44,23.509L1019.43,23.416L1020.75,23.324L1021.75,23.23L1023.07,23.045L1024.06,22.953L1025.38,22.861L1026.7,22.676L1027.69,22.582L1029.01,22.49L1030.01,22.396L1031.33,22.305L1032.65,22.213L1033.64,22.12L1057.42,21.38L1058.74,21.101L1059.73,21.01L1061.06,21.195L1062.05,21.472L1063.37,21.749L1064.69,21.749L1065.68,21.658L1071.63,21.658L1072.95,21.749L1076.25,21.749L1077.57,21.658L1078.89,21.564L1079.89,21.564L1081.2,21.472L1082.2,21.38L1083.52,21.287L1084.84,21.195L1085.83,21.101L1087.15,21.101L1088.15,21.01L1089.46,21.01L1090.46,20.916L1091.78,20.916L1093.1,20.825L1094.09,20.825L1095.41,20.731L1096.4,20.731L1097.72,20.639L1099.05,20.639L1100.04,20.547L1101.36,20.547L1102.35,20.454L1103.67,20.454L1104.99,20.362L1105.98,20.268L1107.31,20.177L1108.3,20.177L1109.62,19.992L1110.61,19.9L1111.93,19.714L1113.25,19.344L1114.24,19.067L1115.56,18.881L1116.56,18.602L1117.87,18.326L1119.2,18.14L1120.19,17.77L1121.51,17.307L1122.5,17.03L1123.82,16.937L1125.14,16.845L1126.13,16.66L1127.46,16.567L1128.45,16.474L1129.77,16.382L1130.76,16.289L1132.08,16.104L1133.4,16.012L1134.39,15.919L1135.71,15.734L1136.7,15.734L1138.03,15.55L1139.35,15.365L1140.34,15.086L1141.66,14.901L1142.65,14.808L1143.97,14.532L1145.29,14.439L1146.29,14.346L1147.61,14.346L1148.6,14.068L1149.92,13.884L1150.91,13.699L1152.23,13.606L1153.55,13.421L1154.54,13.236L1155.86,12.958L1156.86,12.588L1158.18,12.218L1159.5,11.847L1160.49,11.57L1161.81,11.385L1162.8,11.107L1164.12,10.922L1165.44,10.737L1166.44,10.459L1167.76,10.181L1168.75,9.996L1170.07,9.811L1171.06,9.441L1172.38,9.163L1173.7,8.793L1174.69,8.515L1176.02,8.331L1177.01,8.145L1178.33,8.053L1179.65,7.682L1180.64,7.312L1181.96,7.22L1182.95,6.943L1184.27,6.757L1185.6,6.572L1186.59,6.479L1187.91,6.295L1188.9,6.11L1190.22,5.832L1191.21,5.739L1192.53,5.739L1193.85,5.646L1194.84,5.369L1196.17,5.277L1197.16,5.184L1198.48,4.999L1199.8,4.906L1200.79,4.813L1202.11,4.721L1203.1,4.536L1204.43,4.258L1205.75,4.166L1206.74,4.073L1208.06,3.981L1209.05,3.888L1210.37,3.888L1211.36,3.703L1212.68,3.518L1214,3.333L1215,3.055L1216.32,2.87L1217.31,2.778L1218.63,2.685L1219.95,2.5L1220.94,2.5L1222.26,2.407L1223.26,2.407L1224.58,2.315L1225.9,2.222L1226.89,2.222L1228.21,2.037L1229.2,2.13L1230.52,1.945L1231.84,1.852L1232.83,1.852L1234.15,1.667L1235.15,1.574L1236.47,1.482L1237.46,1.482L1238.78,1.39L1240.1,1.297L1241.09,1.204L1242.41,1.019L1243.41,0.927L1244.73,0.927L1246.05,0.834L1248.36,0.834L1249.35,0.741L1251.99,0.741L1252.98,0.649L1255.3,0.649L1256.62,0.557L1266.2,0.557L1267.19,0.464L1270.82,0.464L1272.14,0.371L1275.45,0.371L1276.77,0.279L1305.18,0.279L1306.5,0.186L1307.49,0.186L1308.81,0.094L1309.8,0.094L1311.12,0.001L1314.76,0.001L1315.75,-0.092L1319.38,-0.092L1320.7,-0.184L1326.65,-0.184L1327.64,-0.277L1335.9,-0.277L1337.22,-0.369L1359.69,-0.369L1361.01,-0.462L1364.31,-0.462L1365.63,-0.554L1369.27,-0.554L1370.26,-0.646L1373.89,-0.646L1375.21,-0.739L1433.35,-0.739L1434.34,-0.832L1442.6,-0.832L1443.92,-0.924L1449.87,-0.924L1450.86,-1.017L1490.17,-1.017L1491.16,-1.11L1492.48,-1.11L1493.81,-1.202L1494.79,-1.295L1496.12,-1.295L1497.1,-1.387L1498.43,-1.387L1499.75,-1.479L1500.74,-1.479L1502.06,-1.572L1503.05,-1.572L1504.38,-1.664L1505.36,-1.664L1506.69,-1.757L1508.01,-1.757L1509,-1.85L1510.32,-1.943L1511.31,-1.943L1512.63,-2.035" style="fill:none;fill-rule:nonzero;stroke:rgb(88,89,91);stroke-width:0.65px;"/>
        </g>
    </g>
</svg>
