<?xml version="1.0" encoding="UTF-8" standalone="no"?>
<!DOCTYPE svg PUBLIC "-//W3C//DTD SVG 1.1//EN" "http://www.w3.org/Graphics/SVG/1.1/DTD/svg11.dtd">
<svg width="100%" height="100%" viewBox="0 0 1634 300" version="1.1" xmlns="http://www.w3.org/2000/svg" xmlns:xlink="http://www.w3.org/1999/xlink" xml:space="preserve" xmlns:serif="http://www.serif.com/" style="fill-rule:evenodd;clip-rule:evenodd;stroke-miterlimit:10;">
    <g transform="matrix(1,0,0,1,60.6465,161.797)">
        <g id="depth-section" serif:id="depth section">
            <path d="M0,35.077L3.634,35.077L4.624,35.17L5.945,35.263L6.936,35.354L8.258,35.447L10.569,35.447L11.894,35.354L15.527,35.354L16.518,35.263L18.829,35.263L20.151,35.354L21.474,35.539L22.463,35.539L23.785,35.632L26.097,35.632L27.087,35.539L28.409,35.447L29.732,35.447L30.721,35.539L32.045,35.724L33.033,35.91L34.356,36.002L36.669,36.002L37.99,35.91L38.98,35.724L40.303,35.539L42.614,35.539L43.938,35.447L44.927,35.447L46.25,35.632L53.187,35.632L54.508,35.539L62.766,35.539L64.086,35.447L72.346,35.447L73.338,35.354L84.235,35.354L85.229,35.447L93.489,35.447L94.809,35.539L97.121,35.539L98.44,35.632L99.433,35.724L103.066,35.724L104.387,35.91L105.379,35.91L106.698,36.002L109.011,36.002L110.335,36.096L111.326,36.373L112.646,36.558L114.958,36.558L116.28,36.65L117.271,36.835L118.592,36.835L119.584,36.929L120.904,36.929L122.227,37.02L123.216,37.112L124.538,37.112L125.528,36.65L126.85,36.187L127.842,35.724L129.162,35.354L130.486,35.077L131.474,34.799L132.798,34.799L133.786,34.707L142.38,34.707L143.367,34.892L144.691,34.984L145.68,35.077L147.003,35.17L147.991,35.077L149.315,34.984L150.638,34.892L151.627,34.799L152.949,34.707L153.939,34.615L155.261,34.707L162.527,34.707L163.519,34.799L165.831,34.799L167.154,34.892L169.467,34.892L170.787,34.984L171.778,34.984L173.101,35.077L174.091,35.077L175.412,35.17L181.358,35.17L182.679,35.077L183.67,34.984L184.99,34.892L187.302,34.892L188.622,34.799L195.562,34.799L196.882,34.707L205.14,34.707L206.136,34.615L207.456,34.799L208.775,34.892L211.088,34.892L212.079,34.799L213.399,34.615L214.394,34.43L215.713,34.336L222.979,34.336L223.971,34.244L229.915,34.244L231.239,34.336L232.23,34.43L233.551,34.521L234.543,34.799L235.862,34.984L237.185,34.984L238.175,34.892L239.497,34.799L240.488,34.707L241.809,34.615L243.133,34.707L245.444,34.707L246.433,34.799L247.757,34.892L249.078,35.077L250.068,34.892L251.391,34.799L252.38,34.615L254.692,34.615L256.014,34.707L257.336,34.707L258.326,34.799L259.648,34.707L260.638,34.707L261.96,34.799L263.284,34.892L264.271,34.892L265.596,34.799L266.584,34.984L267.908,35.17L269.229,35.077L271.542,35.077L272.531,34.984L274.844,34.984L276.165,34.799L277.487,34.521L278.478,34.244L279.8,34.058L280.789,34.058L282.111,34.15L283.436,34.244L284.423,34.336L285.747,34.336L286.735,34.521L288.06,34.892L289.379,35.077L290.371,35.077L291.693,34.984L292.683,34.984L294.005,34.892L294.995,34.892L296.317,34.799L300.94,34.799L302.265,34.892L304.577,34.892L305.896,34.984L306.889,35.077L308.211,34.799L309.53,33.135L310.522,31.56L311.843,31.189L312.834,31.004L314.154,31.469L315.146,32.764L316.469,34.058L317.788,35.077L318.78,34.984L321.092,34.984L322.412,34.892L323.732,34.799L324.729,34.707L326.048,34.521L327.04,34.336L328.36,34.244L331.992,34.244L332.985,34.15L335.298,34.15L336.618,34.058L337.937,33.874L338.93,33.688L340.25,33.597L348.51,33.597L349.831,33.504L350.823,33.504L352.144,33.411L353.135,33.318L354.455,33.226L358.089,33.226L359.081,33.135L360.401,33.226L362.713,33.226L364.037,33.318L366.349,33.318L367.341,33.411L375.929,33.411L376.919,33.226L378.24,33.041L379.23,33.041L380.553,33.226L381.542,33.504L382.864,33.874L387.49,33.874L388.812,33.688L390.134,33.504L391.124,33.504L392.446,33.874L396.082,33.874L397.07,33.967L399.382,33.967L400.706,33.874L401.693,33.597L403.018,33.597L404.34,33.688L405.33,33.597L406.651,33.504L407.642,33.781L408.964,33.967L410.283,34.244L414.909,34.244L416.229,34.15L435.059,34.15L436.379,33.967L437.375,33.781L438.694,33.597L439.687,33.688L441.007,33.781L441.999,33.874L443.318,33.967L444.639,33.781L445.633,33.597L446.952,33.411L447.944,33.318L449.265,33.411L450.584,33.411L451.576,33.504L452.897,33.688L463.47,33.688L464.79,33.781L471.728,33.781L473.048,33.688L474.04,33.504L475.359,33.411L476.682,33.504L477.672,33.597L478.993,33.781L483.619,33.781L484.941,33.874L490.887,33.874L491.877,33.967L496.835,33.967L497.823,34.058L554.644,34.058L555.967,33.967L583.383,33.967L584.374,33.874L585.694,33.781L586.687,33.688L588.006,33.597L593.952,33.597L594.944,33.781L596.264,33.967L597.588,34.058L599.899,34.058L600.892,33.967L606.838,33.967L608.157,33.874L612.781,33.874L614.104,33.781L621.039,33.781L622.363,33.688L625.997,33.688L626.987,33.781L632.933,33.781L634.257,33.874L637.891,33.874L638.881,33.781L643.837,33.781L644.826,33.688L648.46,33.688L649.45,33.597L654.408,33.597L655.396,33.504L667.29,33.504L668.611,33.411L682.815,33.411L684.136,33.318L698.343,33.318L699.333,33.226L710.232,33.226L711.225,33.135L718.492,33.135L719.484,33.041L721.796,33.041L723.118,32.949L724.438,32.949L725.43,32.855L726.75,32.764L727.742,32.764L729.062,32.67L730.386,32.67L731.378,32.578L732.698,32.484L733.689,32.392L735.01,32.208L736.002,32.022L737.321,31.838L738.644,31.653L739.636,31.56L740.956,31.469L741.947,31.375L743.268,31.189L744.59,31.098L745.579,31.004L746.901,30.82L747.894,30.635L749.213,30.542L750.537,30.356L751.525,30.172L752.85,30.08L753.837,29.894L755.161,29.803L756.153,29.617L757.473,29.523L758.795,29.431L759.785,29.246L761.107,29.154L762.097,29.06L763.419,28.969L764.739,28.876L765.73,28.784L779.937,28.784L781.257,28.876L782.248,28.876L783.57,28.969L784.891,28.969L785.882,29.06L787.202,29.154L788.194,29.154L789.515,29.246L790.838,29.34L791.83,29.34L793.15,29.431L795.462,29.431L796.454,29.523L797.773,29.523L799.096,29.431L802.399,29.431L803.72,29.34L805.042,29.34L806.031,29.246L807.354,29.246L808.346,29.154L809.666,29.154L810.989,29.06L811.978,29.06L813.302,28.969L815.613,28.969L816.605,28.876L819.247,28.876L820.237,28.784L822.549,28.784L823.871,28.69L826.183,28.69L827.507,28.598L828.495,28.598L829.819,28.507L832.131,28.507L833.451,28.414L834.442,28.414L835.765,28.321L836.755,28.321L838.077,28.228L840.389,28.228L841.709,28.137L842.7,28.137L844.022,28.043L845.343,28.043L846.334,27.951L847.654,27.951L848.646,27.857L849.967,27.857L851.29,27.765L852.282,27.765L853.603,27.672L854.594,27.672L855.914,27.58L856.906,27.58L858.227,27.488L859.548,27.488L860.54,27.394L861.86,27.394L862.852,27.303L864.172,27.21L865.494,27.21L866.483,27.118L867.806,27.118L868.798,27.024L870.118,26.932L871.441,26.932L872.432,26.841L873.754,26.748L874.743,26.656L876.065,26.656L877.058,26.562L878.378,26.471L879.699,26.377L880.689,26.377L882.012,26.285L883.001,26.191L884.323,26.191L885.647,26.099L886.635,26.099L887.959,26.008L888.947,25.914L890.271,25.914L891.591,25.822L893.905,25.822L894.895,25.728L896.217,25.728L897.537,25.637L898.529,25.637L899.849,25.544L902.163,25.544L903.152,25.452L904.475,25.452L905.795,25.358L906.787,25.358L908.106,25.266L910.423,25.266L911.742,25.175L912.734,25.175L914.055,25.082L915.047,25.082L916.366,24.99L917.688,24.99L918.681,24.896L920,24.805L920.992,24.711L922.312,24.711L923.304,24.619L924.624,24.619L925.948,24.527L926.94,24.433L928.26,24.433L929.252,24.342L931.894,24.342L932.884,24.248L934.206,24.248L935.198,24.156L936.518,24.156L937.84,24.062L938.83,24.062L940.151,23.971L941.142,23.878L942.464,23.878L943.455,23.786L944.775,23.786L946.1,23.694L947.088,23.694L948.411,23.6L949.399,23.6L950.724,23.509L952.043,23.509L953.035,23.416L954.357,23.324L955.348,23.324L956.669,23.23L957.989,23.23L958.981,23.139L960.301,23.045L961.293,22.953L962.615,22.953L963.604,22.861L964.927,22.767L966.247,22.676L967.239,22.582L968.559,22.49L969.553,22.396L970.875,22.305L972.194,22.213L973.187,22.12L974.507,22.028L975.499,21.843L976.818,21.658L978.141,21.564L981.444,21.564L982.765,21.472L986.4,21.472L987.393,21.38L988.712,21.38L989.704,21.287L991.024,21.287L992.346,21.195L993.336,21.195L994.658,21.101L995.65,21.101L996.97,21.01L998.292,21.01L999.282,20.916L1000.6,20.916L1001.59,20.825L1002.92,20.825L1003.91,20.731L1005.23,20.731L1006.55,20.639L1007.54,20.639L1008.86,20.547L1011.18,20.547L1012.5,20.454L1014.81,20.454L1015.8,20.362L1017.12,20.362L1018.44,20.268L1019.43,20.268L1020.75,20.177L1021.75,20.177L1023.07,20.083L1024.06,20.083L1025.38,19.992L1026.7,19.9L1027.69,19.806L1029.01,19.714L1030.01,19.529L1031.33,19.435L1032.65,19.344L1033.64,19.159L1034.96,18.973L1061.06,18.14L1070.31,18.14L1071.63,17.955L1072.95,17.77L1073.94,17.678L1075.26,17.678L1076.25,17.586L1077.57,17.586L1078.89,17.493L1081.2,17.493L1082.2,17.401L1083.52,17.401L1084.84,17.307L1087.15,17.307L1088.15,17.215L1089.46,17.122L1090.46,17.122L1091.78,17.03L1093.1,16.937L1094.09,16.845L1095.41,16.753L1096.4,16.753L1097.72,16.66L1099.05,16.567L1100.04,16.474L1101.36,16.474L1102.35,16.382L1103.67,16.198L1104.99,16.012L1105.98,16.012L1107.31,15.919L1108.3,15.827L1109.62,15.734L1110.61,15.734L1111.93,15.641L1113.25,15.55L1114.24,15.456L1115.56,15.365L1116.56,15.272L1117.87,15.179L1119.2,15.086L1120.19,15.086L1121.51,14.994L1122.5,14.901L1123.82,14.808L1125.14,14.623L1126.13,14.532L1127.46,14.439L1128.45,14.346L1129.77,14.346L1130.76,14.254L1132.08,14.254L1133.4,14.161L1134.39,14.068L1135.71,13.975L1136.7,13.79L1138.03,13.606L1139.35,13.513L1140.34,13.421L1141.66,13.236L1142.65,12.866L1143.97,12.68L1145.29,12.495L1146.29,12.218L1147.61,12.125L1148.6,11.94L1149.92,11.755L1150.91,11.476L1152.23,11.2L1153.55,11.014L1154.54,10.737L1155.86,10.644L1156.86,10.367L1158.18,10.089L1159.5,9.719L1160.49,9.348L1161.81,9.071L1162.8,8.793L1164.12,8.609L1165.44,8.238L1166.44,7.96L1167.76,7.776L1168.75,7.498L1170.07,7.127L1171.06,6.943L1172.38,6.757L1173.7,6.572L1174.69,6.387L1176.02,6.202L1177.01,6.017L1178.33,5.832L1179.65,5.646L1180.64,5.462L1181.96,5.277L1182.95,5.091L1184.27,4.906L1185.6,4.721L1186.59,4.536L1187.91,4.351L1188.9,4.166L1190.22,3.981L1191.21,3.888L1192.53,3.703L1193.85,3.518L1194.84,3.333L1196.17,3.24L1197.16,3.055L1198.48,2.87L1199.8,2.778L1200.79,2.593L1202.11,2.5L1203.1,2.315L1204.43,2.222L1205.75,2.13L1206.74,2.037L1208.06,1.945L1209.05,1.852L1210.37,1.76L1211.36,1.667L1212.68,1.574L1214,1.574L1215,1.482L1216.32,1.482L1217.31,1.39L1219.95,1.39L1220.94,1.297L1224.58,1.297L1225.9,1.204L1228.21,1.204L1229.2,1.112L1231.84,1.112L1232.83,1.019L1235.15,1.019L1236.47,0.927L1237.46,0.927L1238.78,0.834L1240.1,0.741L1241.09,0.649L1242.41,0.557L1243.41,0.464L1244.73,0.371L1246.05,0.279L1247.04,0.186L1248.36,0.094L1249.35,0.001L1250.67,0.001L1251.99,-0.092L1254.31,-0.092L1255.3,-0.184L1269.5,-0.184L1270.82,-0.277L1280.4,-0.277L1281.4,-0.369L1294.61,-0.369L1295.6,-0.462L1306.5,-0.462L1307.49,-0.554L1313.44,-0.554L1314.76,-0.646L1321.7,-0.646L1323.02,-0.739L1433.35,-0.739L1434.34,-0.832L1442.6,-0.832L1443.92,-0.924L1449.87,-0.924L1450.86,-1.017L1490.17,-1.017L1491.16,-1.11L1492.48,-1.11L1493.81,-1.202L1494.79,-1.295L1496.12,-1.295L1497.1,-1.387L1498.43,-1.387L1499.75,-1.479L1500.74,-1.479L1502.06,-1.572L1503.05,-1.572L1504.38,-1.664L1505.36,-1.664L1506.69,-1.757L1508.01,-1.757L1509,-1.85L1510.32,-1.943L1511.31,-1.943L1512.63,-2.035" style="fill:none;fill-rule:nonzero;stroke:rgb(5,0,0);stroke-width:0.48px;"/>
        </g>
    </g>
</svg>
