<?xml version="1.0" encoding="UTF-8" standalone="no"?>
<!DOCTYPE svg PUBLIC "-//W3C//DTD SVG 1.1//EN" "http://www.w3.org/Graphics/SVG/1.1/DTD/svg11.dtd">
<svg width="100%" height="100%" viewBox="0 0 1634 300" version="1.1" xmlns="http://www.w3.org/2000/svg" xmlns:xlink="http://www.w3.org/1999/xlink" xml:space="preserve" xmlns:serif="http://www.serif.com/" style="fill-rule:evenodd;clip-rule:evenodd;">
    <g transform="matrix(1,0,0,1,60.6465,171.239)">
        <g id="depth-section" serif:id="depth section">
            <path d="M0,28.503L4.624,28.503L5.945,28.411L8.258,28.411L9.581,28.319L14.205,28.319L15.527,28.226L18.829,28.226L20.151,28.319L21.474,28.319L22.463,28.411L23.785,28.597L24.775,28.689L26.097,28.782L27.087,28.874L28.409,28.782L29.732,28.597L30.721,28.411L32.045,28.134L33.033,28.04L34.356,28.597L35.679,29.336L36.669,30.077L37.99,30.448L38.98,30.54L40.303,30.263L41.622,29.8L42.614,29.614L44.927,29.614L46.25,29.429L53.187,29.429L54.508,29.336L62.766,29.336L64.086,29.244L68.714,29.244L70.034,29.152L72.346,29.152L73.338,29.059L75.978,29.059L76.972,28.967L79.283,28.967L80.604,28.874L82.915,28.874L84.235,28.782L86.549,28.782L87.541,28.689L88.861,28.689L90.181,28.597L97.121,28.597L98.44,28.503L103.066,28.503L104.387,28.411L107.69,28.411L109.011,28.503L110.335,28.597L111.326,28.689L112.646,28.782L113.639,28.782L114.958,29.244L116.28,29.706L117.271,30.169L118.592,30.725L119.584,31.372L120.904,31.929L122.227,32.206L123.216,32.391L124.538,30.355L125.528,28.411L126.85,28.411L127.842,28.319L129.162,28.226L130.486,28.134L131.474,28.226L132.798,28.134L136.432,28.134L137.422,28.226L138.743,28.319L139.733,28.503L141.056,28.689L142.38,28.782L143.367,28.874L144.691,28.967L145.68,28.967L147.003,28.782L147.991,28.597L149.315,28.411L150.638,28.226L151.627,28.04L152.949,27.856L153.939,27.67L158.896,27.67L159.885,27.763L161.207,27.856L162.527,28.04L163.519,28.134L164.843,28.134L165.831,28.04L168.143,28.04L169.467,27.948L170.787,27.948L171.778,27.763L173.101,27.67L174.091,27.578L175.412,27.948L176.732,28.226L177.725,28.411L179.045,28.319L180.036,28.319L181.358,28.226L189.618,28.226L190.938,28.319L191.93,28.319L193.25,28.411L194.242,28.411L195.562,28.319L196.882,28.319L197.876,28.226L199.196,28.134L200.187,28.04L201.508,27.948L202.828,27.856L203.819,28.04L205.14,28.134L206.136,28.226L208.775,28.226L209.768,28.319L211.088,28.411L212.079,28.319L213.399,28.134L214.394,27.856L215.713,27.578L217.033,27.393L218.025,27.208L219.346,26.931L220.337,26.839L226.283,26.839L227.603,26.745L229.915,26.745L231.239,26.839L233.551,26.839L234.543,26.931L235.862,27.116L237.185,27.301L238.175,27.578L239.497,27.856L240.488,28.04L241.809,27.948L243.133,27.763L244.12,27.578L245.444,27.393L246.433,27.116L247.757,27.023L249.078,27.486L250.068,28.04L251.391,28.503L252.38,28.319L253.702,27.763L254.692,27.763L256.014,27.948L257.336,28.226L258.326,28.04L259.648,27.856L260.638,27.486L261.96,27.393L263.284,27.486L264.271,27.67L265.596,28.319L266.584,28.874L267.908,29.429L269.229,29.892L270.22,29.983L271.542,30.077L272.531,28.597L273.854,28.134L274.844,27.578L276.165,27.116L277.487,26.653L278.478,26.282L279.8,25.912L280.789,25.82L282.111,25.912L283.436,26.282L284.423,26.374L286.735,26.374L288.06,26.468L289.379,26.653L290.371,26.839L291.693,26.931L292.683,27.023L294.005,27.208L294.995,27.393L296.317,27.578L297.637,27.856L298.629,28.04L299.953,27.948L300.94,27.763L302.265,27.67L303.585,27.486L304.577,27.393L305.896,27.208L306.889,27.116L308.211,25.357L309.53,23.692L310.522,22.118L311.843,21.747L312.834,21.562L314.154,22.026L315.146,24.154L316.469,26.745L317.788,26.653L318.78,26.931L320.101,27.208L321.092,27.578L322.412,27.948L323.732,27.67L324.729,27.393L326.048,27.116L327.04,27.116L328.36,27.023L329.68,27.023L330.672,27.116L331.992,27.301L332.985,27.301L334.306,26.931L335.298,26.653L336.618,26.468L337.937,26.282L338.93,26.19L340.25,26.005L341.245,26.005L342.565,26.19L343.886,26.282L344.878,26.468L346.197,26.56L347.189,26.745L348.51,26.653L349.831,26.374L350.823,26.097L352.144,26.097L353.135,26.282L354.455,26.468L356.768,26.468L358.089,26.282L359.081,26.19L360.401,26.005L361.393,26.097L362.713,26.374L364.037,26.653L365.024,26.931L366.349,27.116L367.341,27.393L368.661,27.578L369.982,27.578L370.973,27.486L372.295,27.301L373.284,26.931L374.606,26.468L375.929,26.19L376.919,25.912L378.24,25.728L379.23,25.45L380.553,25.542L381.542,26.374L382.864,26.745L384.188,26.931L385.177,27.023L386.5,26.931L387.49,26.005L388.812,25.173L390.134,24.524L391.124,24.894L392.446,25.357L393.436,25.912L394.758,26.56L396.082,27.116L397.07,27.301L398.394,27.208L399.382,27.023L400.706,26.374L401.693,25.82L403.018,25.079L404.34,25.079L405.33,25.173L406.651,25.079L407.642,24.894L408.964,25.079L410.283,25.728L411.275,26.374L412.598,26.745L413.588,26.931L414.909,27.208L416.229,27.393L417.222,27.67L418.541,27.856L419.533,27.763L420.857,27.763L421.845,27.67L430.435,27.67L431.427,27.763L433.739,27.763L435.059,27.486L436.379,27.023L437.375,26.56L438.694,26.097L439.687,26.374L441.007,26.839L441.999,27.116L443.318,27.116L444.639,26.931L445.633,26.19L446.952,26.005L447.944,25.82L449.265,25.635L450.584,25.728L451.576,26.005L452.897,26.19L453.891,26.468L455.21,26.745L456.53,27.116L457.522,27.393L458.842,27.856L459.834,28.503L461.154,29.152L462.15,29.614L463.47,29.522L464.79,29.244L465.782,28.503L467.102,27.856L468.094,27.486L470.735,27.486L471.728,27.116L473.048,26.653L474.04,26.282L475.359,26.097L476.682,26.097L477.672,26.19L478.993,26.19L479.985,26.468L481.306,26.839L482.3,27.208L483.619,27.116L484.941,26.745L485.932,26.374L487.253,26.374L488.245,26.653L489.565,27.023L490.887,27.67L491.877,28.226L493.199,28.874L494.189,29.244L495.511,29.522L496.835,29.522L497.823,29.244L499.147,28.967L500.135,28.503L501.459,28.04L502.446,27.948L503.771,27.948L505.093,28.04L506.083,28.503L507.404,28.874L508.395,28.967L509.717,28.689L511.038,28.319L512.028,28.411L513.351,28.503L514.341,28.503L515.662,27.948L516.986,27.301L517.975,27.301L519.298,27.486L520.286,27.578L521.61,27.578L522.599,27.67L523.922,27.67L525.244,27.763L526.234,27.763L527.556,27.948L528.546,28.411L529.868,28.782L531.191,29.152L532.18,29.614L538.128,29.614L539.449,29.429L540.439,29.152L541.762,28.782L543.081,28.411L544.073,28.134L545.394,27.856L546.386,28.04L547.707,28.319L548.697,28.597L550.02,28.689L551.339,28.597L552.331,28.411L553.651,28.319L554.644,28.597L555.967,28.874L557.287,29.244L558.279,29.336L559.599,28.967L560.591,28.597L561.911,28.226L563.23,27.856L564.225,27.578L565.545,27.301L566.537,27.023L567.856,27.393L568.849,27.763L570.169,28.04L571.488,28.134L572.482,28.226L573.803,28.319L574.795,28.411L576.114,28.782L577.435,29.429L578.427,29.983L579.746,30.448L580.742,31.002L582.062,31.095L583.383,30.817L584.374,29.706L585.694,28.503L586.687,27.486L588.006,27.393L589,27.301L590.32,27.763L591.64,28.503L592.632,29.429L593.952,30.355L594.944,30.263L596.264,30.169L598.58,30.169L599.899,29.892L600.892,29.706L602.212,29.429L603.534,29.336L604.523,29.244L605.846,29.059L606.838,28.967L608.157,28.874L609.149,28.782L610.47,28.782L611.791,28.967L612.781,30.169L614.104,30.54L615.096,30.633L616.415,30.633L617.739,30.263L618.728,29.892L620.051,29.522L621.039,29.614L622.363,29.8L623.686,29.892L624.675,30.077L625.997,30.817L626.987,31.835L628.309,32.576L629.299,32.668L630.621,31.002L631.945,29.892L632.933,30.169L634.257,30.817L635.245,31.466L636.568,31.929L637.891,32.206L638.881,32.576L640.202,32.946L641.192,33.315L642.515,32.668L643.837,32.021L644.826,31.372L646.148,31.187L647.139,31.466L648.46,31.835L649.45,32.021L650.772,31.743L652.097,31.466L653.084,29.983L654.408,29.522L655.396,29.706L656.72,31.558L658.04,31.835L659.032,32.021L660.354,32.298L661.344,32.668L662.666,33.038L663.986,33.501L664.978,33.595L666.298,33.595L667.29,33.409L668.611,32.391L669.602,31.28L670.924,30.355L672.244,29.522L673.235,28.782L674.556,28.134L675.548,28.319L676.871,28.411L678.191,28.503L679.184,28.134L680.503,27.393L681.495,27.023L682.815,27.301L684.136,27.578L685.129,27.301L686.449,26.931L687.441,27.208L688.761,27.763L689.753,27.856L691.073,27.763L692.394,27.67L693.389,27.486L694.709,27.393L695.701,27.301L697.021,27.301L698.343,27.486L699.333,27.763L700.655,28.04L701.645,28.226L702.967,28.597L704.287,28.967L705.278,29.336L706.601,29.8L707.591,29.983L708.912,30.169L710.232,30.355L711.225,30.448L714.86,30.448L715.849,30.077L717.172,29.614L718.492,29.152L719.484,28.689L720.805,28.04L721.796,27.486L723.118,27.67L724.438,27.763L725.43,27.856L726.75,27.763L727.742,27.67L732.698,27.67L733.689,28.226L735.01,28.782L736.002,29.429L737.321,29.706L738.644,29.892L739.636,29.983L740.956,29.706L741.947,29.336L743.268,29.059L744.59,29.244L745.579,29.336L746.901,29.522L747.894,29.706L749.213,29.892L750.537,29.983L751.525,29.8L752.85,29.706L753.837,29.522L755.161,28.782L756.153,28.134L757.473,27.486L758.795,26.931L763.419,26.931L764.739,26.745L765.73,26.468L767.053,26.374L768.043,26.745L769.365,27.208L770.685,27.67L771.677,28.134L772.997,28.503L773.988,28.967L775.312,29.336L776.303,29.706L777.624,30.077L778.944,30.355L779.937,30.725L781.257,31.002L782.248,31.002L783.57,30.817L784.891,30.725L785.882,30.54L787.202,30.355L788.194,30.169L789.515,29.892L790.838,29.614L791.83,29.429L793.15,29.336L794.142,29.614L795.462,29.892L796.454,30.169L797.773,30.54L799.096,30.91L800.088,30.91L801.408,31.002L802.399,31.095L803.72,30.725L805.042,30.355L806.031,29.983L807.354,29.614L808.346,29.336L809.666,29.336L810.989,30.169L811.978,31.743L813.302,32.114L814.289,32.391L815.613,32.668L816.605,32.853L817.926,33.038L819.247,33.13L820.237,33.224L821.56,33.315L822.549,33.409L825.191,33.409L826.183,33.315L827.507,33.224L828.495,33.038L829.819,32.761L831.139,32.391L832.131,32.021L833.451,31.743L834.442,31.372L835.765,31.002L836.755,30.725L838.077,30.077L839.396,29.522L840.389,29.522L841.709,30.448L842.7,31.28L844.022,31.558L845.343,31.929L846.334,32.206L847.654,32.482L848.646,32.853L849.967,33.13L851.29,33.501L852.282,33.78L853.603,34.149L854.594,34.427L858.227,34.427L859.548,34.519L860.54,34.796L861.86,35.167L862.852,35.167L864.172,35.075L865.494,35.075L866.483,35.167L867.806,35.353L868.798,35.261L870.118,34.89L871.441,34.519L872.432,34.242L873.754,33.872L874.743,33.687L876.065,33.687L877.058,33.78L878.378,34.057L879.699,34.61L880.689,35.167L882.012,35.723L883.001,35.723L884.323,35.815L887.959,35.815L888.947,34.982L890.271,34.242L891.591,33.595L892.583,33.687L893.905,33.872L894.895,34.057L896.217,34.149L897.537,34.427L898.529,34.704L899.849,35.261L900.841,35.723L902.163,35.815L903.152,35.63L904.475,35.538L905.795,35.63L906.787,35.63L908.106,35.353L909.099,35.075L910.423,34.89L911.742,34.982L912.734,35.075L914.055,35.353L915.047,35.444L916.366,35.353L917.688,35.167L918.681,35.167L920,35.075L920.992,35.167L922.312,35.261L923.304,35.353L924.624,35.444L925.948,35.538L926.94,35.63L928.26,35.723L929.252,35.723L930.572,35.908L931.894,36.185L932.884,36.462L934.206,36.276L935.198,36.093L936.518,36L937.84,36L938.83,36.37L940.151,36.556L941.142,36.648L942.464,36.833L943.455,36.925L944.775,37.11L946.1,37.296L947.088,37.574L948.411,37.574L949.399,37.666L950.724,37.758L952.043,37.758L953.035,37.851L957.989,37.851L958.981,37.942L961.293,37.942L962.615,38.036L963.604,38.036L964.927,38.128L966.247,38.222L967.239,38.222L968.559,38.314L969.553,38.222L970.875,38.222L972.194,38.128L973.187,38.314L974.507,38.685L975.499,39.055L976.818,38.962L978.141,38.685L980.452,38.685L981.444,38.776L982.765,38.685L994.658,38.685L995.65,38.776L1000.6,38.776L1001.59,38.87L1023.07,38.87L1024.06,38.962L1025.38,38.962L1026.7,39.055L1027.69,39.147L1029.01,39.332L1030.01,39.424L1031.33,39.608L1063.37,39.98L1064.69,39.888L1065.68,39.702L1067,39.517L1067.99,39.332L1069.32,39.147L1070.31,38.962L1071.63,38.962L1072.95,39.147L1073.94,39.055L1075.26,38.962L1076.25,38.87L1077.57,38.685L1078.89,38.591L1079.89,38.407L1081.2,38.314L1082.2,38.222L1083.52,38.036L1084.84,37.942L1085.83,37.758L1087.15,37.666L1088.15,37.574L1089.46,37.851L1090.46,37.666L1091.78,37.666L1093.1,37.574L1094.09,37.481L1095.41,37.204L1096.4,37.11L1097.72,37.019L1099.05,36.648L1100.04,36.37L1101.36,36.185L1102.35,36.093L1103.67,36.37L1104.99,36.37L1105.98,36.185L1107.31,36.37L1108.3,36.37L1109.62,35.815L1110.61,35.815L1111.93,35.63L1113.25,35.353L1114.24,35.353L1115.56,35.075L1116.56,34.89L1117.87,34.89L1119.2,34.519L1120.19,34.61L1121.51,34.427L1122.5,34.149L1123.82,33.872L1125.14,33.872L1126.13,34.149L1127.46,33.964L1128.45,33.872L1129.77,33.872L1130.76,33.501L1132.08,33.501L1133.4,33.595L1134.39,33.409L1135.71,33.315L1136.7,33.13L1138.03,33.038L1139.35,32.761L1140.34,32.482L1141.66,32.206L1142.65,32.206L1143.97,31.929L1145.29,32.206L1146.29,31.929L1147.61,31.649L1148.6,31.558L1149.92,31.372L1150.91,31.28L1152.23,31.28L1153.55,31.372L1154.54,31.095L1155.86,31.002L1156.86,30.817L1158.18,31.002L1159.5,30.91L1160.49,31.002L1161.81,30.725L1162.8,30.633L1164.12,30.633L1165.44,30.817L1166.44,30.817L1167.76,30.725L1168.75,30.817L1170.07,31.095L1171.06,31.095L1172.38,31.002L1173.7,30.817L1174.69,31.002L1176.02,31.187L1177.01,31.002L1178.33,30.633L1179.65,30.169L1180.64,29.983L1181.96,29.892L1182.95,30.263L1184.27,30.169L1185.6,30.169L1186.59,29.983L1187.91,29.8L1188.9,29.892L1190.22,29.8L1191.21,29.706L1192.53,29.522L1193.85,29.336L1194.84,29.152L1196.17,28.689L1197.16,28.226L1199.8,28.226L1200.79,27.67L1202.11,26.931L1203.1,26.931L1204.43,27.116L1205.75,27.486L1206.74,27.763L1208.06,27.67L1209.05,26.374L1210.37,24.802L1211.36,25.728L1212.68,26.468L1214,26.097L1215,25.912L1216.32,25.265L1217.31,24.894L1218.63,24.432L1219.95,23.692L1220.94,22.858L1222.26,22.211L1223.26,21.655L1224.58,21.562L1225.9,21.284L1226.89,20.545L1228.21,19.712L1229.2,18.972L1230.52,18.415L1231.84,17.86L1232.83,17.214L1234.15,18.601L1235.15,19.065L1236.47,17.028L1237.46,18.786L1238.78,16.657L1240.1,16.01L1241.09,17.676L1242.41,19.248L1243.41,19.618L1244.73,13.233L1246.05,12.586L1247.04,12.307L1248.36,12.122L1249.35,12.122L1250.67,11.938L1251.99,11.845L1252.98,11.659L1254.31,11.567L1255.3,11.474L1256.62,11.382L1257.61,11.289L1258.93,11.105L1260.25,11.105L1261.24,11.012L1262.57,10.92L1263.56,10.92L1264.88,10.826L1266.2,10.734L1267.19,10.641L1268.51,10.549L1269.5,10.458L1270.82,10.364L1272.14,10.179L1273.14,10.087L1274.46,9.993L1275.45,9.901L1276.77,9.808L1277.76,9.808L1279.08,9.716L1280.4,9.716L1281.4,9.625L1287.34,9.625L1288.66,9.716L1296.92,9.716L1297.91,9.625L1299.23,9.531L1300.56,9.346L1301.54,9.16L1302.87,9.068L1303.86,8.883L1305.18,8.792L1306.5,8.698L1307.49,8.606L1308.81,8.513L1309.8,8.421L1312.44,8.421L1313.44,8.328L1314.76,8.05L1315.75,7.865L1317.07,7.68L1318.06,7.495L1319.38,7.311L1320.7,7.125L1321.7,7.032L1323.02,7.032L1324.01,7.125L1328.96,7.125L1329.95,7.032L1331.28,6.847L1332.6,6.662L1333.59,6.477L1334.91,6.385L1335.9,6.292L1337.22,6.199L1338.21,6.014L1339.54,5.922L1340.86,5.83L1341.85,5.737L1343.17,5.552L1344.16,5.459L1345.48,5.366L1346.8,5.089L1347.79,4.904L1349.11,4.719L1350.11,4.441L1352.75,4.071L1353.74,3.886L1355.06,3.7L1356.05,3.516L1357.37,3.423L1358.37,3.238L1359.69,3.146L1361.01,2.867L1362,2.59L1363.32,2.313L1364.31,2.128L1365.63,1.942L1366.95,1.85L1369.27,1.85L1370.26,1.757L1372.9,1.757L1373.89,1.665L1375.21,1.48L1376.2,1.387L1377.52,1.295L1378.51,1.202L1379.84,1.109L1381.16,1.109L1382.15,1.017L1384.46,1.017L1385.78,0.924L1387.1,0.832L1388.09,0.739L1389.42,0.647L1390.41,0.554L1391.73,0.462L1393.05,0.276L1394.04,0.184L1395.36,-0.001L1396.35,-0.186L1397.68,-0.279L1398.66,-0.464L1399.99,-0.557L1401.31,-0.649L1402.3,-0.833L1403.62,-0.927L1404.61,-1.019L1405.93,-1.111L1407.25,-1.111L1408.25,-1.204L1409.57,-1.204L1410.56,-1.111L1411.88,-1.204L1413.2,-1.297L1414.19,-1.39L1415.51,-1.482L1416.51,-1.575L1427.4,-1.575L1428.4,-1.482L1433.35,-1.482L1434.34,-1.575L1435.66,-1.666L1436.65,-1.76L1437.98,-1.76L1439.3,-1.852L1440.29,-1.944L1441.61,-2.13L1442.6,-2.223L1443.92,-2.315L1444.91,-2.408L1447.56,-2.408L1448.55,-2.499L1449.87,-2.593L1450.86,-2.685L1452.18,-2.777L1454.49,-2.777L1455.81,-2.87L1456.81,-2.87L1458.13,-2.963L1459.45,-3.056L1460.44,-3.147L1461.76,-3.241L1462.75,-3.241L1464.07,-3.425L1465.06,-3.518L1466.39,-3.61L1467.71,-3.796L1468.7,-3.889L1470.02,-4.165L1471.01,-4.443L1472.33,-4.721L1473.65,-4.998L1474.65,-5.276L1475.97,-5.646L1476.96,-5.924L1478.28,-6.294L1479.6,-6.572L1480.59,-6.942L1481.91,-7.22L1482.9,-7.59L1484.22,-7.868L1485.21,-8.145L1486.54,-8.423L1487.86,-8.701L1488.85,-8.978L1490.17,-9.256L1491.16,-9.534L1492.48,-9.811L1493.81,-10.088L1494.79,-10.366L1496.12,-10.552L1497.1,-10.83L1498.43,-10.83L1499.75,-10.921L1500.74,-10.921L1502.06,-11.015L1503.05,-11.015L1504.38,-11.106L1505.36,-11.106L1506.69,-11.199L1508.01,-11.199L1509,-11.292L1510.32,-11.385L1511.31,-11.385L1512.63,-11.477" style="fill:none;fill-rule:nonzero;stroke:rgb(88,89,91);stroke-width:0.65px;"/>
        </g>
    </g>
</svg>
