<?xml version="1.0" encoding="UTF-8" standalone="no"?>
<!DOCTYPE svg PUBLIC "-//W3C//DTD SVG 1.1//EN" "http://www.w3.org/Graphics/SVG/1.1/DTD/svg11.dtd">
<svg width="100%" height="100%" viewBox="0 0 1634 300" version="1.1" xmlns="http://www.w3.org/2000/svg" xmlns:xlink="http://www.w3.org/1999/xlink" xml:space="preserve" xmlns:serif="http://www.serif.com/" style="fill-rule:evenodd;clip-rule:evenodd;">
    <g transform="matrix(1,0,0,1,60.6465,161.798)">
        <g id="depth-section" serif:id="depth section">
            <path d="M0,35.63L3.634,35.63L4.624,35.723L5.945,35.815L6.936,35.908L8.258,36L9.581,36.094L10.569,36L11.894,35.908L18.829,35.908L20.151,36L21.474,36.094L22.463,36.094L23.785,36.186L24.775,36.186L26.097,36.279L27.087,36.186L28.409,36.094L29.732,36L30.721,36.094L32.045,36.279L33.033,36.463L34.356,36.649L35.679,36.557L37.99,36.557L38.98,36.279L40.303,36.186L41.622,36.094L44.927,36.094L46.25,36.279L47.238,36.279L48.563,36.186L56.82,36.186L58.14,36.094L66.397,36.094L67.39,36L90.181,36L91.173,36.094L97.121,36.094L98.44,36.186L99.433,36.279L100.753,36.279L102.075,36.371L103.066,36.371L104.387,36.463L105.379,36.557L109.011,36.557L110.335,36.741L111.326,36.927L112.646,37.11L114.958,37.11L116.28,37.203L117.271,37.389L118.592,37.481L119.584,37.481L120.904,37.574L122.227,37.574L123.216,37.666L124.538,37.666L125.528,37.203L126.85,36.741L127.842,36.279L129.162,35.908L130.486,35.63L131.474,35.445L132.798,35.353L137.422,35.353L138.743,35.261L141.056,35.261L142.38,35.353L143.367,35.445L144.691,35.537L145.68,35.723L147.003,35.723L147.991,35.63L149.315,35.537L150.638,35.445L151.627,35.353L152.949,35.261L159.885,35.261L161.207,35.353L164.843,35.353L165.831,35.445L168.143,35.445L169.467,35.537L170.787,35.537L171.778,35.63L173.101,35.63L174.091,35.723L177.725,35.723L179.045,35.815L181.358,35.815L182.679,35.723L183.67,35.537L184.99,35.445L189.618,35.445L190.938,35.353L199.196,35.353L200.187,35.261L206.136,35.261L207.456,35.353L208.775,35.537L211.088,35.537L212.079,35.353L213.399,35.168L214.394,34.983L217.033,34.983L218.025,34.891L231.239,34.891L232.23,34.983L233.551,35.168L234.543,35.353L235.862,35.63L237.185,35.537L238.175,35.445L239.497,35.353L240.488,35.261L245.444,35.261L246.433,35.353L247.757,35.537L249.078,35.63L250.068,35.537L251.391,35.353L252.38,35.261L253.702,35.168L254.692,35.261L256.014,35.261L257.336,35.353L258.326,35.353L259.648,35.261L260.638,35.261L261.96,35.353L263.284,35.445L265.596,35.445L266.584,35.537L267.908,35.723L270.22,35.723L271.542,35.63L273.854,35.63L274.844,35.537L276.165,35.353L277.487,35.075L278.478,34.891L279.8,34.613L280.789,34.705L282.111,34.797L283.436,34.891L285.747,34.891L286.735,35.168L288.06,35.445L289.379,35.723L290.371,35.63L291.693,35.63L292.683,35.537L294.005,35.537L294.995,35.445L296.317,35.445L297.637,35.353L299.953,35.353L300.94,35.445L302.265,35.537L303.585,35.445L304.577,35.445L305.896,35.537L306.889,35.63L308.211,34.797L309.53,33.133L310.522,31.559L311.843,31.188L312.834,31.002L314.154,31.467L315.146,33.317L316.469,34.613L317.788,35.63L320.101,35.63L321.092,35.537L322.412,35.537L323.732,35.445L324.729,35.353L326.048,35.168L327.04,34.891L328.36,34.797L334.306,34.797L335.298,34.705L336.618,34.705L337.937,34.428L338.93,34.242L340.25,34.149L349.831,34.149L350.823,34.057L352.144,33.965L353.135,33.965L354.455,33.872L355.447,33.779L360.401,33.779L361.393,33.872L365.024,33.872L366.349,33.965L370.973,33.965L372.295,34.057L374.606,34.057L375.929,33.965L376.919,33.779L378.24,33.687L379.23,33.595L380.553,33.779L381.542,34.149L382.864,34.428L387.49,34.428L388.812,34.242L390.134,33.965L391.124,34.149L392.446,34.428L393.436,34.52L399.382,34.52L400.706,34.428L401.693,34.149L403.018,34.242L404.34,34.334L405.33,34.242L406.651,34.149L407.642,34.242L408.964,34.428L410.283,34.797L435.059,34.797L436.379,34.52L437.375,34.334L438.694,34.149L439.687,34.242L441.007,34.428L441.999,34.52L443.318,34.52L444.639,34.334L445.633,34.149L446.952,33.965L450.584,33.965L451.576,34.149L452.897,34.242L457.522,34.242L458.842,34.334L471.728,34.334L473.048,34.242L474.04,34.149L475.359,33.965L476.682,34.057L477.672,34.242L478.993,34.334L481.306,34.334L482.3,34.428L487.253,34.428L488.245,34.52L494.189,34.52L495.511,34.613L567.856,34.613L568.849,34.52L583.383,34.52L584.374,34.428L585.694,34.334L586.687,34.242L588.006,34.242L589,34.149L592.632,34.149L593.952,34.242L594.944,34.428L596.264,34.613L602.212,34.613L603.534,34.52L609.149,34.52L610.47,34.428L616.415,34.428L617.739,34.334L630.621,34.334L631.945,34.428L640.202,34.428L641.192,34.334L646.148,34.334L647.139,34.242L650.772,34.242L652.097,34.149L656.72,34.149L658.04,34.057L673.235,34.057L674.556,33.965L688.761,33.965L689.753,33.872L704.287,33.872L705.278,33.779L713.536,33.779L714.86,33.687L719.484,33.687L720.805,33.595L723.118,33.595L724.438,33.502L725.43,33.409L726.75,33.409L727.742,33.317L729.062,33.317L730.386,33.225L731.378,33.133L732.698,33.039L733.689,32.947L735.01,32.854L736.002,32.668L737.321,32.483L738.644,32.299L739.636,32.113L740.956,32.021L741.947,31.929L743.268,31.836L744.59,31.744L745.579,31.559L746.901,31.373L747.894,31.281L749.213,31.096L750.537,30.91L751.525,30.818L752.85,30.633L753.837,30.54L755.161,30.355L756.153,30.263L757.473,30.078L758.795,29.985L759.785,29.893L761.107,29.801L762.097,29.707L763.419,29.522L764.739,29.43L782.248,29.43L783.57,29.522L784.891,29.615L785.882,29.615L787.202,29.707L788.194,29.801L789.515,29.893L790.838,29.893L791.83,29.985L793.15,30.078L794.142,30.17L795.462,30.263L796.454,30.263L797.773,30.355L799.096,30.355L800.088,30.447L801.408,30.447L802.399,30.54L808.346,30.54L809.666,30.633L826.183,30.633L827.507,30.54L831.139,30.54L832.131,30.447L834.442,30.447L835.765,30.355L838.077,30.355L839.396,30.263L841.709,30.263L842.7,30.17L844.022,30.17L845.343,30.078L846.334,29.985L847.654,29.985L848.646,29.893L849.967,29.893L851.29,29.801L852.282,29.801L853.603,29.707L854.594,29.707L855.914,29.615L856.906,29.615L858.227,29.522L859.548,29.522L860.54,29.43L861.86,29.43L862.852,29.338L866.483,29.338L867.806,29.244L870.118,29.244L871.441,29.338L896.217,29.338L897.537,29.244L903.152,29.244L904.475,29.152L906.787,29.152L908.106,29.059L910.423,29.059L911.742,28.967L912.734,28.874L914.055,28.874L915.047,28.782L916.366,28.782L917.688,28.689L918.681,28.597L920,28.597L920.992,28.505L922.312,28.412L923.304,28.412L924.624,28.319L925.948,28.319L926.94,28.227L928.26,28.227L929.252,28.135L930.572,28.135L931.894,28.041L932.884,28.041L934.206,27.949L935.198,27.949L936.518,27.856L937.84,27.856L938.83,27.764L940.151,27.764L941.142,27.67L942.464,27.67L943.455,27.578L944.775,27.578L946.1,27.486L948.411,27.486L949.399,27.393L954.357,27.393L955.348,27.301L962.615,27.301L963.604,27.208L972.194,27.208L973.187,27.301L975.499,27.301L976.818,27.393L978.141,27.393L979.133,27.301L981.444,27.301L982.765,27.208L983.756,27.208L985.076,27.116L987.393,27.116L988.712,27.023L991.024,27.023L992.346,26.931L995.65,26.931L996.97,26.839L999.282,26.839L1000.6,26.746L1002.92,26.746L1003.91,26.654L1005.23,26.654L1006.55,26.561L1007.54,26.469L1008.86,26.469L1009.85,26.375L1011.18,26.283L1012.5,26.283L1013.49,26.19L1014.81,26.098L1015.8,26.006L1017.12,26.006L1018.44,25.912L1019.43,25.82L1020.75,25.727L1021.75,25.635L1023.07,25.542L1024.06,25.45L1025.38,25.357L1026.7,25.265L1027.69,25.173L1029.01,25.08L1030.01,25.08L1031.33,24.988L1032.65,24.988L1033.64,25.08L1058.74,24.061L1059.73,23.969L1061.06,23.876L1062.05,24.061L1063.37,24.246L1064.69,24.34L1067,24.34L1067.99,24.246L1069.32,24.246L1070.31,24.154L1071.63,24.154L1072.95,24.246L1075.26,24.246L1076.25,24.154L1077.57,24.154L1078.89,24.061L1079.89,23.969L1081.2,23.969L1082.2,23.876L1083.52,23.876L1084.84,23.784L1085.83,23.692L1087.15,23.692L1088.15,23.599L1089.46,23.414L1090.46,23.229L1091.78,23.229L1093.1,23.137L1094.09,23.043L1095.41,22.951L1096.4,22.951L1097.72,22.859L1099.05,22.766L1100.04,22.58L1101.36,22.488L1102.35,22.303L1103.67,22.212L1104.99,22.118L1105.98,22.026L1107.31,21.841L1108.3,21.656L1109.62,21.656L1110.61,21.193L1111.93,21.193L1113.25,21.008L1114.24,20.823L1115.56,20.915L1116.56,20.452L1117.87,20.082L1119.2,19.99L1120.19,19.804L1121.51,19.619L1122.5,19.713L1123.82,19.342L1125.14,19.065L1126.13,18.786L1127.46,18.88L1128.45,18.694L1129.77,18.786L1130.76,19.065L1132.08,18.786L1133.4,18.786L1134.39,18.694L1135.71,18.416L1136.7,18.601L1138.03,18.232L1139.35,18.138L1140.34,17.953L1141.66,17.861L1142.65,17.491L1143.97,17.305L1145.29,17.12L1146.29,16.935L1147.61,16.935L1148.6,16.658L1150.91,16.658L1152.23,16.196L1153.55,16.288L1154.54,16.196L1155.86,16.102L1156.86,16.01L1158.18,15.918L1159.5,15.64L1160.49,15.27L1161.81,15.085L1162.8,14.715L1164.12,14.344L1165.44,14.252L1166.44,14.159L1167.76,13.882L1168.75,13.511L1170.07,13.697L1171.06,13.974L1172.38,13.697L1173.7,13.789L1174.69,13.789L1176.02,13.882L1177.01,13.789L1178.33,13.604L1179.65,13.604L1180.64,13.511L1181.96,13.511L1182.95,13.326L1184.27,13.326L1185.6,13.049L1186.59,12.864L1187.91,12.956L1188.9,12.864L1190.22,12.586L1191.21,12.586L1192.53,12.493L1193.85,12.493L1194.84,12.216L1196.17,11.938L1197.16,11.845L1198.48,12.031L1199.8,11.845L1200.79,11.291L1202.11,11.012L1203.1,10.458L1204.43,10.643L1205.75,10.921L1206.74,10.643L1208.06,10.55L1209.05,10.365L1210.37,10.088L1211.36,9.994L1212.68,9.625L1214,9.81L1215,9.902L1217.31,9.902L1218.63,9.994L1219.95,9.717L1222.26,9.717L1223.26,10.643L1224.58,11.475L1225.9,11.383L1226.89,12.216L1228.21,11.383L1229.2,11.845L1230.52,13.511L1231.84,14.53L1232.83,13.789L1234.15,13.882L1235.15,13.789L1236.47,14.437L1237.46,13.882L1238.78,13.234L1240.1,12.678L1241.09,12.216L1242.41,11.475L1243.41,10.365L1244.73,9.161L1246.05,6.293L1247.04,5.83L1248.36,6.015L1249.35,5.83L1250.67,5.737L1251.99,5.552L1252.98,5.552L1254.31,5.46L1255.3,5.275L1256.62,5.182L1257.61,5.089L1260.25,5.089L1261.24,4.997L1262.57,4.812L1263.56,4.719L1264.88,4.627L1266.2,4.534L1267.19,4.442L1268.51,4.349L1269.5,4.349L1270.82,4.256L1272.14,4.164L1273.14,4.071L1274.46,3.98L1275.45,3.794L1276.77,3.702L1277.76,3.516L1279.08,3.423L1280.4,3.331L1283.71,3.331L1285.03,3.423L1287.34,3.423L1288.66,3.516L1292.3,3.516L1293.29,3.609L1295.6,3.609L1296.92,3.516L1297.91,3.423L1299.23,3.331L1300.56,3.238L1301.54,3.147L1302.87,2.961L1303.86,2.776L1305.18,2.683L1306.5,2.498L1307.49,2.405L1308.81,2.314L1309.8,2.22L1311.12,2.036L1312.44,1.943L1313.44,1.943L1314.76,1.85L1315.75,1.758L1317.07,1.666L1318.06,1.572L1319.38,1.481L1320.7,1.388L1321.7,1.388L1323.02,1.295L1324.01,1.203L1325.33,1.203L1326.65,1.11L1327.64,1.11L1328.96,1.017L1329.95,0.925L1331.28,1.017L1332.6,0.833L1333.59,0.739L1334.91,0.648L1335.9,0.555L1337.22,0.555L1338.21,0.463L1339.54,0.463L1340.86,0.37L1341.85,0.277L1343.17,0.277L1344.16,0.184L1345.48,0.184L1346.8,0.092L1347.79,0.092L1349.11,0L1350.11,0L1351.43,-0.094L1352.75,-0.185L1353.74,-0.185L1355.06,-0.278L1356.05,-0.278L1357.37,-0.37L1359.69,-0.37L1361.01,-0.463L1364.31,-0.463L1365.63,-0.556L1369.27,-0.556L1370.26,-0.648L1373.89,-0.648L1375.21,-0.741L1433.35,-0.741L1434.34,-0.833L1442.6,-0.833L1443.92,-0.926L1449.87,-0.926L1450.86,-1.018L1490.17,-1.018L1491.16,-1.111L1492.48,-1.111L1493.81,-1.203L1494.79,-1.296L1496.12,-1.296L1497.1,-1.389L1498.43,-1.389L1499.75,-1.481L1500.74,-1.481L1502.06,-1.574L1503.05,-1.574L1504.38,-1.666L1505.36,-1.666L1506.69,-1.759L1508.01,-1.759L1509,-1.851L1510.32,-1.944L1511.31,-1.944L1512.63,-2.036" style="fill:none;fill-rule:nonzero;stroke:rgb(88,89,91);stroke-width:0.65px;"/>
        </g>
    </g>
</svg>
