<?xml version="1.0" encoding="UTF-8" standalone="no"?>
<!DOCTYPE svg PUBLIC "-//W3C//DTD SVG 1.1//EN" "http://www.w3.org/Graphics/SVG/1.1/DTD/svg11.dtd">
<svg width="100%" height="100%" viewBox="0 0 2921 1210" version="1.1" xmlns="http://www.w3.org/2000/svg" xmlns:xlink="http://www.w3.org/1999/xlink" xml:space="preserve" xmlns:serif="http://www.serif.com/" style="fill-rule:evenodd;clip-rule:evenodd;">
    <g transform="matrix(4.16667,0,0,4.16667,255.721,629.079)">
        <g id="depth-section" serif:id="depth section">
            <path d="M0,24.29L1.156,24.341L2.441,24.392L3.598,24.442L5.91,24.542L8.352,24.542L9.508,24.593L10.664,24.593L11.948,24.644L14.261,24.644L15.417,24.593L16.702,24.542L23.768,24.542L24.924,24.442L26.209,24.341L27.365,24.442L28.521,24.542L29.678,24.644L30.962,24.644L32.118,24.693L33.274,24.693L34.431,24.743L35.716,24.743L36.872,24.794L38.028,24.794L39.186,24.743L40.47,24.644L41.626,24.693L42.783,24.693L43.939,24.743L51.133,24.743L52.289,24.693L55.887,24.693L57.043,24.644L60.641,24.644L61.797,24.593L62.953,24.593L64.237,24.542L65.394,24.542L66.55,24.492L67.706,24.492L68.991,24.442L70.147,24.392L71.304,24.341L73.745,24.341L74.901,24.29L76.058,24.14L77.213,24.038L78.498,23.936L79.654,23.888L80.811,23.836L81.967,23.836L83.251,23.786L84.407,23.786L85.563,23.735L86.72,23.636L88.005,23.483L89.161,23.435L90.317,23.383L92.759,23.383L93.915,23.333L96.229,23.333L97.512,23.282L98.668,23.182L99.825,22.979L100.981,22.778L102.266,22.628L103.423,22.476L104.578,22.325L105.734,22.174L107.021,21.972L108.177,21.821L109.332,21.72L110.488,21.569L111.773,21.519L112.93,21.469L114.086,21.417L115.242,21.417L116.526,21.368L118.839,21.368L119.995,21.316L121.28,21.267L122.437,21.267L123.593,21.216L124.749,21.166L126.034,21.116L127.19,21.015L128.347,20.964L129.503,20.863L130.787,20.913L131.943,20.913L133.1,20.964L134.256,20.964L135.541,20.913L136.696,20.913L137.853,20.863L139.009,20.812L140.295,20.763L142.606,20.763L143.764,20.712L145.048,20.662L146.204,20.612L147.361,20.612L148.518,20.561L149.801,20.511L150.957,20.511L153.271,20.409L154.555,20.36L155.712,20.36L156.868,20.259L158.024,20.208L159.31,20.158L160.466,20.108L161.622,20.007L162.778,19.956L164.062,19.956L165.219,19.905L166.375,19.805L168.815,19.805L169.972,19.755L171.128,19.704L172.284,19.654L173.569,19.603L174.726,19.554L175.882,19.503L177.038,19.401L178.323,19.2L179.479,19.101L180.636,18.999L181.792,18.848L183.076,18.747L184.232,18.597L185.389,18.495L186.545,18.444L187.83,18.344L188.986,18.294L190.143,18.243L191.298,18.192L192.584,18.143L193.74,18.092L194.896,17.991L196.053,17.89L197.337,17.789L198.493,17.739L199.65,17.588L200.807,17.588L202.09,17.536L203.246,17.436L205.56,17.336L206.844,17.235L208.001,17.135L209.157,17.034L210.313,16.882L211.599,16.781L212.755,16.681L213.911,16.479L215.067,16.479L216.352,16.227L217.508,16.127L218.664,16.076L219.82,15.925L221.105,15.824L222.262,15.673L223.417,15.571L224.573,15.421L225.859,15.32L227.015,15.22L228.171,15.118L229.327,15.019L230.612,14.968L236.521,14.968L237.678,15.019L238.834,15.068L242.432,15.068L243.588,15.169L246.029,15.169L247.185,15.22L250.782,15.22L251.939,15.169L254.38,15.169L255.537,15.118L260.29,15.118L261.446,15.169L262.603,15.22L263.888,15.269L265.044,15.269L266.2,15.32L269.797,15.32L270.953,15.169L272.109,15.068L273.395,14.968L274.551,14.816L275.707,14.665L276.863,14.563L278.148,14.413L279.304,14.312L280.46,14.212L281.616,14.11L282.901,14.011L284.058,13.909L285.214,13.808L286.37,13.758L287.655,13.556L288.812,13.505L289.967,13.404L291.123,13.354L292.408,13.204L293.564,13.254L294.721,13.153L295.877,13.052L297.162,12.952L298.318,12.8L299.475,12.7L300.632,12.549L301.915,12.448L303.071,12.347L304.228,12.196L305.385,12.145L306.669,11.944L307.826,11.792L308.982,11.591L310.139,11.439L311.422,11.188L312.579,11.087L313.735,10.835L314.892,10.734L316.177,10.532L318.489,10.13L319.646,9.929L320.931,9.727L322.086,9.524L323.242,9.373L324.398,9.223L325.684,9.071L326.84,8.92L327.996,8.719L329.152,8.567L330.437,8.417L331.594,8.265L332.75,8.114L333.906,7.964L335.19,7.862L336.347,7.711L337.503,7.661L338.659,7.408L339.944,7.157L341.101,6.904L342.257,6.703L343.413,6.45L344.697,6.199L345.854,5.997L347.01,5.796L348.166,5.745L349.451,5.442L350.607,5.442L351.764,5.19L352.921,5.04L355.36,5.04L356.517,4.838L357.674,4.889L358.958,4.838L360.114,4.638L362.428,4.638L363.713,4.485L364.869,4.385L366.025,4.334L367.181,4.233L368.466,4.134L369.622,4.081L370.778,3.981L371.935,3.83L373.22,3.78L374.376,3.729L375.532,3.729L376.687,3.68L377.973,3.68L379.129,3.628L380.285,3.579L381.441,3.579L382.727,3.528L383.883,3.528L385.039,3.478L386.195,3.478L387.479,3.427L388.636,3.427L389.792,3.377L390.948,3.326L392.233,3.326L393.39,3.276L394.546,3.226L395.702,3.175L396.987,3.175L398.144,3.124L400.455,3.124L401.74,3.075L402.896,3.024L404.053,2.974L405.21,2.923L406.494,2.873L407.65,2.772L408.806,2.722L409.963,2.672L411.247,2.622L412.403,2.571L413.561,2.571L414.717,2.52L416.001,2.47L417.158,2.419L418.314,2.419L419.471,2.369L420.755,2.318L421.911,2.318L423.067,2.269L424.224,2.269L425.509,2.218L427.821,2.218L428.978,2.168L430.263,2.168L431.418,2.116L432.574,2.116L433.73,2.067L435.016,2.016L436.172,1.966L437.328,1.915L438.484,1.915L439.77,1.865L440.925,1.814L442.081,1.765L443.237,1.714L446.835,1.714L447.991,1.663L451.589,1.663L452.745,1.614L455.186,1.614L456.342,1.561L459.939,1.561L461.097,1.513L464.692,1.513L465.85,1.462L478.954,1.462L480.11,1.513L481.267,1.513L482.552,1.462L483.708,1.411L486.02,1.311L487.305,1.261L490.773,1.108L509.787,1.108L511.072,1.058L514.542,1.058L515.826,1.009L519.295,1.009L520.579,0.958L524.049,0.958L525.334,0.907L528.802,0.907L530.087,0.857L532.399,0.857L533.556,0.807L537.153,0.807L538.31,0.757L541.906,0.757L543.062,0.706L544.348,0.706L545.504,0.655L546.66,0.655L547.816,0.606L549.102,0.505L550.257,0.454L551.413,0.403L552.569,0.403L553.854,0.353L555.011,0.303L556.167,0.253L557.323,0.202L558.608,0.202L559.764,0.151L560.92,0.101L562.076,0.05L563.361,0.001L564.518,0.001L565.674,-0.051L566.831,-0.101L568.115,-0.151L569.272,-0.201L570.429,-0.201L571.585,-0.251L572.868,-0.302L574.025,-0.352L575.182,-0.403L576.338,-0.403L577.623,-0.452L578.779,-0.504" style="fill:none;fill-rule:nonzero;stroke:rgb(89,89,92);stroke-width:0.65px;"/>
        </g>
    </g>
</svg>
