<?xml version="1.0" encoding="UTF-8" standalone="no"?>
<!DOCTYPE svg PUBLIC "-//W3C//DTD SVG 1.1//EN" "http://www.w3.org/Graphics/SVG/1.1/DTD/svg11.dtd">
<svg width="100%" height="100%" viewBox="0 0 2921 1210" version="1.1" xmlns="http://www.w3.org/2000/svg" xmlns:xlink="http://www.w3.org/1999/xlink" xml:space="preserve" xmlns:serif="http://www.serif.com/" style="fill-rule:evenodd;clip-rule:evenodd;">
    <g transform="matrix(4.16667,0,0,4.16667,255.721,629.705)">
        <g id="depth-section" serif:id="depth section">
            <path d="M0,25.501L1.156,25.552L2.441,25.552L3.598,25.601L5.91,25.601L7.195,25.651L8.352,25.702L9.508,25.702L10.664,25.752L11.948,25.804L13.104,25.804L14.261,25.853L15.417,25.804L16.702,25.752L17.857,25.752L19.014,25.804L21.456,25.804L22.611,25.853L23.768,25.853L24.924,25.752L26.209,25.651L27.365,25.853L28.521,25.904L29.678,25.954L30.962,26.005L32.118,26.005L33.274,26.055L34.431,26.055L35.716,26.105L36.872,26.155L38.028,26.105L41.626,26.105L42.783,26.155L43.939,26.155L45.223,26.105L46.379,26.105L47.536,26.055L49.976,26.055L51.133,26.005L52.289,25.954L54.73,25.954L55.887,25.904L57.043,25.904L58.199,25.853L59.484,25.853L60.641,25.804L61.797,25.752L64.237,25.752L65.394,25.702L66.55,25.702L67.706,25.651L68.991,25.601L70.147,25.552L71.304,25.45L72.459,25.45L73.745,25.35L74.901,25.298L76.058,25.198L77.213,25.147L78.498,25.147L79.654,25.198L80.811,25.249L81.967,25.249L83.251,25.298L84.407,25.298L85.563,25.35L86.72,25.399L88.005,25.45L89.161,25.501L90.317,25.45L91.475,25.298L92.759,25.198L93.915,25.097L95.072,24.997L96.229,24.845L97.512,24.694L98.668,24.593L99.825,24.392L100.981,24.241L102.266,24.089L103.423,23.989L104.578,23.838L105.734,23.686L107.021,23.585L108.177,23.435L109.332,23.385L110.488,23.333L112.93,23.333L114.086,23.284L115.242,23.284L116.526,23.232L117.683,23.284L119.995,23.284L121.28,23.333L122.437,23.183L123.593,23.132L124.749,23.132L126.034,23.081L127.19,23.031L128.347,22.981L129.503,22.88L130.787,22.829L131.943,22.88L133.1,22.931L134.256,22.88L135.541,22.829L136.696,22.829L137.853,22.729L139.009,22.678L140.295,22.628L141.45,22.678L145.048,22.678L146.204,22.628L147.361,22.577L148.518,22.527L149.801,22.478L153.271,22.478L154.555,22.376L155.712,22.325L156.868,22.226L158.024,22.175L159.31,22.124L160.466,22.023L161.622,21.923L162.778,21.821L164.062,21.821L165.219,21.771L166.375,21.671L167.531,21.62L168.815,21.519L169.972,21.419L171.128,21.267L172.284,21.166L173.569,21.065L174.726,21.016L175.882,20.966L177.038,20.864L178.323,20.662L179.479,20.612L180.636,20.562L181.792,20.462L183.076,20.411L184.232,20.31L185.389,20.259L186.545,20.21L187.83,20.21L188.986,20.108L190.143,20.058L191.298,19.958L192.584,19.907L193.74,19.806L194.896,19.755L196.053,19.654L197.337,19.605L198.493,19.605L199.65,19.554L200.807,19.504L202.09,19.504L203.246,19.403L204.403,19.353L205.56,19.302L206.844,19.251L208.001,19.151L209.157,19.101L210.313,18.95L211.599,18.849L212.755,18.697L213.911,18.546L215.067,18.597L216.352,18.396L217.508,18.294L218.664,18.243L219.82,18.193L221.105,18.093L222.262,17.992L223.417,17.892L224.573,17.79L225.859,17.689L227.015,17.589L228.171,17.487L229.327,17.487L230.612,17.438L234.081,17.438L235.365,17.386L236.521,17.438L237.678,17.487L238.834,17.538L240.119,17.589L241.275,17.639L242.432,17.639L243.588,17.689L244.873,17.589L246.029,17.589L248.341,17.689L249.626,17.739L251.939,17.739L253.096,17.689L254.38,17.639L255.537,17.589L257.849,17.689L259.133,17.689L260.29,17.739L262.603,17.739L263.888,17.79L266.2,17.79L267.356,17.841L268.641,17.941L270.953,17.941L272.109,17.841L273.395,17.739L274.551,17.639L275.707,17.538L276.863,17.487L278.148,17.337L280.46,17.235L281.616,17.186L282.901,17.085L284.058,16.934L285.214,16.833L286.37,16.782L287.655,16.782L288.812,16.731L289.967,16.731L291.123,16.682L292.408,16.631L293.564,16.581L294.721,16.53L295.877,16.43L297.162,16.38L298.318,16.329L299.475,16.278L300.632,16.178L301.915,16.127L303.071,15.876L304.228,15.825L305.385,15.876L306.669,15.825L307.826,15.674L308.982,15.472L310.139,15.372L311.422,15.22L312.579,15.069L313.735,14.968L314.892,14.817L316.177,14.767L317.333,14.565L318.489,14.413L319.646,14.413L320.931,14.364L322.086,14.263L323.242,14.162L324.398,14.011L325.684,13.91L326.84,13.81L327.996,13.355L329.152,13.306L330.437,13.153L331.594,12.901L332.75,12.853L333.906,12.6L335.19,12.298L336.347,12.146L338.659,11.642L339.944,11.44L341.101,11.239L343.413,10.735L344.697,10.534L345.854,10.333L347.01,10.13L348.166,9.929L349.451,9.728L350.607,9.526L351.764,9.323L352.921,9.022L354.204,8.72L355.36,8.366L356.517,8.114L357.674,7.712L358.958,7.561L360.114,7.409L361.271,7.207L362.428,7.007L363.713,6.603L364.869,6.199L366.025,5.897L367.181,5.495L368.466,5.242L369.622,5.091L370.778,4.991L371.935,4.839L373.22,4.738L374.376,4.638L375.532,4.487L376.687,4.437L377.973,4.386L380.285,4.284L381.441,4.234L382.727,4.234L385.039,4.134L386.195,4.083L387.479,4.032L388.636,3.931L389.792,3.831L390.948,3.78L392.233,3.73L393.39,3.68L394.546,3.68L395.702,3.63L396.987,3.63L398.144,3.579L399.299,3.579L400.455,3.63L401.74,3.63L402.896,3.579L404.053,3.579L405.21,3.529L406.494,3.429L408.806,3.327L409.963,3.276L411.247,3.227L412.403,3.176L413.561,3.176L414.717,3.126L417.158,3.126L418.314,2.974L419.471,2.925L420.755,2.874L423.067,2.772L424.224,2.723L425.509,2.672L426.665,2.622L427.821,2.571L428.978,2.522L430.263,2.522L431.418,2.472L432.574,2.472L433.73,2.421L435.016,2.37L436.172,2.269L437.328,2.219L439.77,2.219L440.925,2.168L442.081,2.168L443.237,2.118L444.522,2.067L445.679,2.018L446.835,2.018L447.991,1.966L449.276,1.917L450.433,1.865L452.745,1.765L454.029,1.715L455.186,1.664L456.342,1.614L457.499,1.564L458.783,1.464L459.939,1.411L461.097,1.362L464.692,1.362L465.85,1.312L478.954,1.312L480.11,1.362L481.267,1.362L482.552,1.312L483.708,1.261L484.864,1.211L486.02,1.16L487.305,1.11L488.461,1.06L490.773,0.958L509.787,0.958L511.072,0.907L514.542,0.907L515.826,0.858L519.295,0.858L520.579,0.808L524.049,0.808L525.334,0.757L528.802,0.757L530.087,0.707L532.399,0.707L533.556,0.656L537.153,0.656L538.31,0.606L541.906,0.606L543.062,0.556L544.348,0.556L545.504,0.505L546.66,0.505L547.816,0.456L549.102,0.355L550.257,0.304L551.413,0.253L552.569,0.253L553.854,0.203L555.011,0.152L556.167,0.103L557.323,0.052L558.608,0.052L562.076,-0.101L563.361,-0.149L564.518,-0.149L565.674,-0.201L566.831,-0.251L568.115,-0.302L569.272,-0.352L570.429,-0.352L571.585,-0.401L572.868,-0.452L574.025,-0.502L575.182,-0.554L576.338,-0.554L577.623,-0.603L578.779,-0.654" style="fill:none;fill-rule:nonzero;stroke:rgb(89,89,92);stroke-width:0.65px;"/>
        </g>
    </g>
</svg>
