<?xml version="1.0" encoding="UTF-8" standalone="no"?>
<!DOCTYPE svg PUBLIC "-//W3C//DTD SVG 1.1//EN" "http://www.w3.org/Graphics/SVG/1.1/DTD/svg11.dtd">
<svg width="100%" height="100%" viewBox="0 0 2921 1210" version="1.1" xmlns="http://www.w3.org/2000/svg" xmlns:xlink="http://www.w3.org/1999/xlink" xml:space="preserve" xmlns:serif="http://www.serif.com/" style="fill-rule:evenodd;clip-rule:evenodd;stroke-miterlimit:10;">
    <g transform="matrix(4.16667,0,0,4.16667,255.721,628.03)">
        <g id="depth-section" serif:id="depth section">
            <path d="M0,22.577L1.156,22.628L2.441,22.628L3.598,22.679L4.754,22.679L5.91,22.727L7.195,22.778L8.352,22.829L11.948,22.829L13.104,22.778L14.261,22.727L15.417,22.679L17.857,22.679L19.014,22.628L20.17,22.628L21.456,22.577L22.611,22.526L23.768,22.526L24.924,22.475L26.209,22.426L28.521,22.426L29.678,22.325L30.962,22.274L34.431,22.274L35.716,22.223L36.872,22.223L38.028,22.173L39.186,22.173L40.47,22.123L41.626,22.123L42.783,22.073L43.939,22.073L45.223,22.022L46.379,22.022L47.536,21.972L48.692,21.921L52.289,21.921L53.445,21.872L54.73,21.872L55.887,21.821L58.199,21.821L59.484,21.77L66.55,21.77L67.706,21.721L68.991,21.77L70.147,21.721L71.304,21.77L72.459,21.669L76.058,21.669L77.213,21.62L78.498,21.518L79.654,21.418L80.811,21.317L84.407,21.317L85.563,21.266L86.72,21.216L88.005,21.165L93.915,21.165L95.072,21.115L96.229,21.115L97.512,21.165L98.668,21.165L99.825,21.216L100.981,21.216L102.266,21.165L103.423,21.064L104.578,20.914L105.734,20.763L107.021,20.612L108.177,20.46L109.332,20.259L110.488,20.056L111.773,19.906L112.93,19.755L114.086,19.653L115.242,19.452L116.526,19.251L117.683,19.049L118.839,18.848L119.995,18.696L121.28,18.546L122.437,18.344L123.593,18.192L124.749,18.092L126.034,17.991L127.19,17.89L128.347,17.84L129.503,17.739L130.787,17.638L131.943,17.436L133.1,17.286L134.256,17.235L135.541,17.184L136.696,17.134L137.853,17.134L139.009,17.235L140.295,17.387L142.606,17.387L143.764,17.487L145.048,17.537L146.204,17.638L147.361,17.688L148.518,17.788L149.801,17.84L150.957,17.788L153.271,17.788L154.555,17.739L155.712,17.688L158.024,17.588L159.31,17.537L160.466,17.436L161.622,17.436L162.778,17.336L164.062,17.134L165.219,17.033L166.375,16.983L167.531,16.882L169.972,16.882L171.128,16.932L172.284,16.932L173.569,16.983L175.882,16.983L177.038,17.033L178.323,17.336L179.479,17.336L180.636,17.235L181.792,17.235L183.076,17.084L184.232,17.084L185.389,16.983L186.545,16.882L187.83,16.731L188.986,16.63L190.143,16.479L191.298,16.328L192.584,16.227L193.74,16.126L194.896,16.126L196.053,16.076L197.337,15.975L198.493,15.874L199.65,15.823L200.807,15.723L202.09,15.673L203.246,15.572L204.403,15.521L205.56,15.421L206.844,15.32L208.001,15.27L209.157,15.22L210.313,15.22L211.599,15.169L212.755,15.068L213.911,15.118L215.067,14.614L216.352,14.815L217.508,14.716L218.664,14.514L219.82,14.362L221.105,14.263L222.262,14.161L223.417,14.01L224.573,13.909L225.859,13.807L227.015,13.656L228.171,13.506L229.327,13.405L232.925,13.405L234.081,13.456L235.365,13.606L240.119,13.606L241.275,13.556L242.432,13.556L243.588,13.405L244.873,13.354L246.029,13.354L247.185,13.304L248.341,13.255L249.626,13.153L250.782,13.102L251.939,13.052L253.096,13.102L254.38,13.002L255.537,13.002L256.693,12.952L257.849,12.952L259.133,12.901L260.29,12.901L261.446,12.85L262.603,12.85L263.888,12.801L265.044,12.85L266.2,12.901L268.641,12.901L269.797,12.952L270.953,12.952L272.109,12.85L273.395,12.749L274.551,12.598L275.707,12.448L276.863,12.296L278.148,12.145L279.304,11.843L280.46,11.641L281.616,11.49L282.901,11.288L284.058,11.087L285.214,10.886L286.37,10.683L287.655,10.683L288.812,10.482L289.967,10.281L291.123,10.13L292.408,9.978L293.564,9.625L294.721,9.474L295.877,9.323L297.162,9.172L298.318,9.02L299.475,8.87L300.632,8.768L301.915,8.617L303.071,8.467L304.228,8.315L305.385,8.216L306.669,8.063L307.826,7.963L308.982,7.811L310.139,7.71L311.422,7.559L312.579,7.459L313.735,7.358L314.892,7.206L316.177,7.105L317.333,7.056L318.489,6.905L319.646,6.804L320.931,6.702L322.086,6.601L323.242,6.501L324.398,6.399L325.684,6.3L326.84,6.148L327.996,6.048L329.152,5.946L330.437,5.847L331.594,5.694L332.75,5.594L333.906,5.493L335.19,5.393L336.347,5.292L337.503,5.19L338.659,5.09L339.944,4.989L341.101,4.89L343.413,4.686L344.697,4.586L345.854,4.485L347.01,4.386L348.166,4.284L349.451,4.233L350.607,4.133L352.921,3.931L354.204,3.88L355.36,3.831L357.674,3.729L358.958,3.679L360.114,3.679L361.271,3.629L362.428,3.578L363.713,3.528L364.869,3.477L366.025,3.427L367.181,3.376L368.466,3.327L369.622,3.327L370.778,3.276L371.935,3.276L373.22,3.225L374.376,3.225L375.532,3.175L376.687,3.175L377.973,3.125L379.129,3.125L380.285,3.074L381.441,3.074L382.727,3.024L383.883,3.024L385.039,2.973L390.948,2.973L392.233,2.924L398.144,2.924L399.299,2.874L400.455,2.671L401.74,2.57L405.21,2.57L406.494,2.52L408.806,2.52L409.963,2.47L412.403,2.47L413.561,2.42L416.001,2.42L417.158,2.368L419.471,2.368L420.755,2.319L421.911,2.319L423.067,2.267L425.509,2.267L426.665,2.218L427.821,2.218L428.978,2.167L431.418,2.167L432.574,2.117L435.016,2.117L436.172,2.066L438.484,2.066L439.77,2.016L442.081,2.016L443.237,1.966L446.835,1.966L447.991,1.915L451.589,1.915L452.745,1.866L455.186,1.866L456.342,1.813L459.939,1.813L461.097,1.765L464.692,1.765L465.85,1.714L478.954,1.714L480.11,1.765L481.267,1.765L482.552,1.714L483.708,1.663L484.864,1.613L486.02,1.562L487.305,1.513L490.773,1.36L509.787,1.36L511.072,1.309L514.542,1.309L515.826,1.261L519.295,1.261L520.579,1.21L524.049,1.21L525.334,1.159L528.802,1.159L530.087,1.109L532.399,1.109L533.556,1.058L537.153,1.058L538.31,1.009L541.906,1.009L543.062,0.958L544.348,0.958L545.504,0.907L546.66,0.907L547.816,0.858L549.102,0.757L550.257,0.706L551.413,0.655L552.569,0.655L553.854,0.605L555.011,0.555L556.167,0.505L557.323,0.454L558.608,0.454L560.92,0.352L562.076,0.302L563.361,0.253L564.518,0.253L565.674,0.201L566.831,0.151L568.115,0.1L569.272,0.051L570.429,0.051L571.585,0.001L572.868,-0.05L574.025,-0.1L575.182,-0.152L576.338,-0.152L577.623,-0.2L578.779,-0.252" style="fill:none;fill-rule:nonzero;stroke:rgb(8,6,6);stroke-width:0.48px;"/>
        </g>
    </g>
</svg>
