<?xml version="1.0" encoding="UTF-8" standalone="no"?>
<!DOCTYPE svg PUBLIC "-//W3C//DTD SVG 1.1//EN" "http://www.w3.org/Graphics/SVG/1.1/DTD/svg11.dtd">
<svg width="100%" height="100%" viewBox="0 0 2921 1210" version="1.1" xmlns="http://www.w3.org/2000/svg" xmlns:xlink="http://www.w3.org/1999/xlink" xml:space="preserve" xmlns:serif="http://www.serif.com/" style="fill-rule:evenodd;clip-rule:evenodd;">
    <g transform="matrix(4.16667,0,0,4.16667,255.721,627.818)">
        <g id="depth-section" serif:id="depth section">
            <path d="M0,28.372L1.156,28.474L2.441,28.523L3.598,28.474L4.754,28.474L5.91,28.573L8.352,28.573L9.508,28.523L10.664,28.474L11.948,28.423L13.104,28.372L16.702,28.372L17.857,28.423L19.014,28.423L20.17,28.372L21.456,28.372L22.611,28.474L23.768,28.523L24.924,28.222L28.521,28.222L29.678,28.27L30.962,28.27L32.118,28.222L33.274,28.222L34.431,28.27L35.716,28.322L36.872,28.372L38.028,28.423L45.223,28.423L46.379,28.474L53.445,28.474L54.73,28.423L55.887,28.322L58.199,28.322L59.484,28.27L60.641,28.12L61.797,28.071L67.706,28.071L68.991,28.019L70.147,28.019L71.304,27.97L72.459,28.019L73.745,27.97L74.901,27.768L76.058,27.667L77.213,27.667L78.498,27.817L79.654,27.869L80.811,27.817L81.967,27.97L83.251,28.071L84.407,28.171L85.563,28.322L86.72,28.423L88.005,28.523L89.161,28.523L90.317,28.474L91.475,28.372L92.759,28.27L93.915,28.171L95.072,28.071L96.229,27.97L97.512,27.869L98.668,27.768L99.825,27.718L100.981,27.667L102.266,27.565L103.423,27.516L105.734,27.516L107.021,27.466L108.177,27.415L112.93,27.415L114.086,27.364L115.242,27.466L116.526,27.516L117.683,27.565L119.995,27.667L121.28,27.718L122.437,27.768L126.034,27.768L127.19,27.718L128.347,27.667L129.503,27.667L130.787,27.616L131.943,27.667L133.1,27.718L134.256,27.667L135.541,27.616L136.696,27.565L137.853,27.516L139.009,27.364L140.295,27.163L142.606,27.163L143.764,27.112L145.048,27.061L146.204,27.012L147.361,26.962L148.518,26.861L158.024,26.861L159.31,26.81L160.466,26.71L161.622,26.558L162.778,26.458L164.062,26.458L165.219,26.407L166.375,26.257L167.531,26.205L168.815,26.104L169.972,25.903L171.128,25.751L172.284,25.55L173.569,25.5L174.726,25.45L175.882,25.399L177.038,25.247L178.323,24.996L179.479,24.946L181.792,24.946L183.076,24.895L184.232,24.795L185.389,24.795L186.545,24.745L187.83,24.745L188.986,24.694L190.143,24.593L191.298,24.492L192.584,24.392L193.74,24.291L194.896,24.239L196.053,24.139L197.337,24.139L198.493,24.089L199.65,24.089L200.807,24.038L205.56,24.038L206.844,23.938L208.001,23.838L209.157,23.737L210.313,23.737L211.599,23.585L212.755,23.484L213.911,23.282L215.067,23.585L216.352,23.231L217.508,23.182L218.664,23.182L219.82,23.131L221.105,23.03L222.262,22.98L224.573,22.98L225.859,23.03L227.015,23.131L228.171,23.182L229.327,23.282L234.081,23.282L235.365,23.131L237.678,23.131L238.834,23.182L241.275,23.182L242.432,23.231L243.588,23.333L244.873,23.384L246.029,23.282L247.185,23.282L248.341,23.333L249.626,23.384L251.939,23.384L253.096,23.333L255.537,23.333L256.693,23.282L257.849,23.131L259.133,23.03L260.29,23.03L261.446,23.081L262.603,23.131L263.888,23.182L268.641,23.182L269.797,23.131L270.953,23.081L273.395,23.081L274.551,23.03L275.707,22.98L276.863,22.88L278.148,22.829L280.46,22.829L281.616,22.778L282.901,22.729L284.058,22.679L285.214,22.577L286.37,22.577L287.655,22.325L288.812,22.325L289.967,22.274L291.123,22.174L292.408,22.073L293.564,22.174L294.721,22.174L295.877,22.073L297.162,21.972L299.475,21.972L300.632,21.923L303.071,21.923L304.228,21.872L305.385,21.872L306.669,21.821L307.826,21.771L308.982,21.72L310.139,21.671L311.422,21.518L312.579,21.469L313.735,21.469L314.892,21.419L316.177,21.368L317.333,21.317L318.489,21.368L319.646,21.469L320.931,21.267L322.086,21.216L326.84,21.216L327.996,21.115L329.152,21.015L330.437,20.915L331.594,20.813L332.75,20.612L333.906,20.561L335.19,20.511L336.347,20.461L337.503,20.309L338.659,20.058L339.944,19.806L341.101,19.503L342.257,19.352L343.413,19.251L344.697,19.2L345.854,19.1L347.01,19.05L348.166,18.949L349.451,18.696L350.607,18.495L351.764,18.294L352.921,18.042L354.204,17.739L355.36,17.588L356.517,17.487L357.674,17.538L358.958,17.538L360.114,17.184L361.271,16.379L362.428,16.681L363.713,16.782L364.869,15.522L366.025,15.22L367.181,15.472L368.466,15.472L369.622,15.825L370.778,14.968L371.935,14.515L373.22,14.161L374.376,13.858L375.532,13.657L376.687,13.606L377.973,13.102L379.129,12.751L380.285,12.549L381.441,12.196L382.727,11.893L383.883,11.642L385.039,11.188L386.195,10.835L387.479,10.28L388.636,9.374L389.792,8.267L390.948,7.358L392.233,5.847L393.39,5.544L394.546,5.241L395.702,5.241L396.987,5.191L398.144,5.091L399.299,5.091L400.455,5.141L401.74,5.04L402.896,4.99L404.053,4.99L405.21,4.94L406.494,4.839L408.806,4.839L409.963,4.737L411.247,4.587L412.403,4.536L413.561,4.536L414.717,4.485L417.158,4.485L418.314,4.384L419.471,4.335L421.911,4.335L423.067,4.284L424.224,4.284L425.509,4.233L427.821,4.233L428.978,4.184L430.263,4.184L431.418,4.133L432.574,4.133L433.73,4.032L435.016,3.982L436.172,3.882L437.328,3.831L438.484,3.729L439.77,3.68L440.925,3.579L443.237,3.477L444.522,3.427L445.679,3.378L447.991,3.276L449.276,3.226L450.433,3.125L451.589,3.024L452.745,2.874L454.029,2.772L455.186,2.672L456.342,2.621L457.499,2.571L458.783,2.571L459.939,2.471L461.097,2.37L462.253,2.268L463.536,2.168L464.692,2.117L465.85,2.117L467.006,2.067L477.798,2.067L478.954,2.017L480.11,1.917L481.267,1.815L482.552,1.765L483.708,1.714L484.864,1.664L486.02,1.613L487.305,1.563L488.461,1.513L490.773,1.411L509.787,1.411L511.072,1.36L514.542,1.36L515.826,1.311L519.295,1.311L520.579,1.261L524.049,1.261L525.334,1.21L528.802,1.21L530.087,1.16L532.399,1.16L533.556,1.109L537.153,1.109L538.31,1.06L541.906,1.06L543.062,1.009L544.348,1.009L545.504,0.958L546.66,0.958L547.816,0.909L549.102,0.808L550.257,0.757L551.413,0.706L552.569,0.706L553.854,0.656L555.011,0.605L556.167,0.556L557.323,0.505L558.608,0.505L562.076,0.352L563.361,0.304L564.518,0.304L565.674,0.252L566.831,0.202L568.115,0.151L569.272,0.101L570.429,0.101L571.585,0.052L572.868,0.001L574.025,-0.049L575.182,-0.101L576.338,-0.101L577.623,-0.149L578.779,-0.201" style="fill:none;fill-rule:nonzero;stroke:rgb(89,89,92);stroke-width:0.65px;"/>
        </g>
    </g>
</svg>
