<?xml version="1.0" encoding="UTF-8" standalone="no"?>
<!DOCTYPE svg PUBLIC "-//W3C//DTD SVG 1.1//EN" "http://www.w3.org/Graphics/SVG/1.1/DTD/svg11.dtd">
<svg width="100%" height="100%" viewBox="0 0 2921 1210" version="1.1" xmlns="http://www.w3.org/2000/svg" xmlns:xlink="http://www.w3.org/1999/xlink" xml:space="preserve" xmlns:serif="http://www.serif.com/" style="fill-rule:evenodd;clip-rule:evenodd;">
    <g transform="matrix(4.16667,0,0,4.16667,255.721,644.193)">
        <g id="depth-section" serif:id="depth section">
            <path d="M0,42.686L1.156,42.987L2.441,42.886L3.598,42.937L4.754,42.635L5.91,42.131L7.195,41.829L8.352,42.433L9.508,42.584L10.664,42.483L11.948,42.231L13.104,42.282L14.261,42.08L15.417,41.425L16.702,42.03L17.857,42.433L19.014,42.886L20.17,43.038L21.456,41.525L22.611,42.131L23.768,42.735L24.924,43.29L26.209,43.139L27.365,43.541L28.521,44.348L29.678,44.801L30.962,44.751L32.118,44.498L33.274,44.953L34.431,45.758L35.716,46.364L36.872,46.817L38.028,46.313L39.186,46.01L40.47,46.211L41.626,45.659L42.783,44.751L43.939,44.297L45.223,43.995L46.379,43.894L47.536,43.692L48.692,43.441L49.976,43.793L51.133,44.145L52.289,44.247L53.445,44.348L54.73,44.6L55.887,44.751L57.043,44.651L58.199,44.751L59.484,44.801L60.641,44.751L61.797,44.449L62.953,43.844L64.237,43.239L65.394,42.686L66.55,42.382L67.706,42.231L68.991,42.534L70.147,42.836L71.304,42.635L72.459,42.635L73.745,41.525L74.901,41.727L76.058,42.382L77.213,43.087L78.498,43.591L79.654,43.894L80.811,43.995L81.967,44.198L83.251,44.498L84.407,44.7L85.563,44.852L86.72,45.002L88.005,45.206L89.161,45.406L90.317,45.356L91.475,45.053L92.759,44.852L93.915,44.498L95.072,44.651L96.229,44.398L97.512,44.297L98.668,44.348L99.825,44.297L100.981,44.398L102.266,44.297L103.423,44.297L104.578,44.247L105.734,44.096L107.021,43.945L108.177,43.793L109.332,43.692L110.488,43.643L111.773,43.591L112.93,43.491L114.086,43.441L115.242,43.643L116.526,43.793L117.683,43.945L118.839,44.045L122.437,44.045L123.593,43.995L124.749,43.894L126.034,43.744L127.19,43.541L128.347,43.34L129.503,43.188L130.787,43.087L131.943,43.188L133.1,43.39L134.256,43.491L135.541,43.844L136.696,44.045L137.853,44.045L139.009,43.894L140.295,43.643L141.45,43.643L142.606,43.692L143.764,43.591L145.048,43.441L146.204,43.29L147.361,42.987L148.518,42.433L149.801,41.829L150.957,41.325L152.114,40.971L153.271,40.668L154.555,40.317L155.712,40.013L156.868,39.661L158.024,39.459L159.31,39.106L160.466,38.602L161.622,38.502L162.778,38.149L164.062,37.948L165.219,37.898L166.375,38.1L167.531,38.402L168.815,38.502L169.972,38.552L171.128,38.552L172.284,38.602L173.569,38.805L174.726,38.602L175.882,38.653L177.038,38.552L178.323,38.1L180.636,38.1L181.792,37.948L183.076,37.948L184.232,37.647L185.389,37.545L186.545,37.243L187.83,37.09L188.986,37.09L190.143,37.192L191.298,37.393L192.584,37.594L193.74,37.594L194.896,37.494L196.053,37.444L197.337,37.494L198.493,37.494L199.65,37.393L200.807,37.343L202.09,37.494L203.246,37.545L204.403,37.545L205.56,37.343L206.844,37.09L208.001,36.739L209.157,36.386L210.313,36.184L211.599,35.982L212.755,35.832L213.911,35.428L215.067,35.982L216.352,35.278L217.508,35.025L218.664,35.025L219.82,34.874L221.105,34.924L222.262,34.622L223.417,34.27L224.573,33.916L225.859,33.815L227.015,33.916L228.171,33.766L229.327,33.665L230.612,33.312L231.769,33.362L232.925,33.413L234.081,33.312L235.365,33.009L237.678,33.009L238.834,33.059L240.119,33.11L241.275,33.161L242.432,32.958L243.588,33.009L244.873,33.059L246.029,33.009L247.185,33.11L248.341,33.26L249.626,33.413L250.782,33.462L251.939,33.362L253.096,33.211L254.38,33.161L255.537,33.11L256.693,33.11L257.849,33.009L259.133,32.909L260.29,32.807L261.446,32.706L262.603,32.606L263.888,32.204L265.044,32.455L266.2,32.304L267.356,32.405L268.641,32.354L269.797,32.354L270.953,32.555L272.109,32.505L274.551,32.505L275.707,32.606L276.863,32.505L278.148,32.555L279.304,32.657L280.46,32.706L281.616,32.958L282.901,33.211L284.058,33.413L285.214,33.413L286.37,33.462L287.655,33.211L288.812,33.312L289.967,33.362L291.123,33.462L292.408,33.513L293.564,34.067L294.721,34.168L295.877,34.371L297.162,34.47L298.318,34.571L299.475,34.974L300.632,35.125L301.915,34.974L303.071,35.125L304.228,35.378L305.385,35.581L306.669,35.581L307.826,35.428L308.982,34.924L310.139,34.874L311.422,34.874L312.579,35.327L313.735,35.581L314.892,35.832L316.177,36.033L317.333,36.335L318.489,36.537L319.646,36.739L320.931,37.192L322.086,37.444L323.242,37.797L324.398,38.048L325.684,38.351L326.84,38.2L327.996,38.704L329.152,38.855L330.437,38.956L331.594,39.056L332.75,39.309L333.906,40.417L335.19,40.266L336.347,40.266L337.503,40.367L338.659,40.013L339.944,40.215L341.101,40.569L342.257,41.172L343.413,41.525L344.697,41.778L345.854,42.382L347.01,42.534L348.166,42.735L349.451,43.139L350.607,43.34L351.764,43.541L352.921,43.692L354.204,43.844L355.36,43.945L357.674,44.145L358.958,44.145L360.114,43.541L361.271,43.491L362.428,43.39L363.713,42.786L364.869,42.18L366.025,41.778L367.181,41.625L368.466,41.374L369.622,41.122L370.778,40.77L371.935,40.467L373.22,40.367L374.376,40.166L375.532,39.963L376.687,40.114L377.973,40.367L379.129,40.518L380.285,40.719L381.441,40.719L382.727,40.62L383.883,40.518L385.039,40.417L386.195,40.215L387.479,40.065L388.636,39.459L389.792,39.359L390.948,39.309L392.233,39.207L393.39,38.906L394.546,38.602L395.702,38.25L396.987,38.048L398.144,37.898L399.299,37.745L400.455,38.048L401.74,37.999L402.896,37.745L404.053,37.444L405.21,37.192L406.494,36.889L407.65,36.637L408.806,36.386L409.963,36.235L411.247,36.033L412.403,35.832L413.561,35.679L414.717,35.479L416.001,35.327L417.158,35.125L418.314,34.974L419.471,34.772L420.755,34.521L421.911,34.219L423.067,33.966L424.224,33.713L425.509,33.462L426.665,33.211L427.821,33.059L428.978,32.909L430.263,32.909L431.418,32.858L432.574,32.756L433.73,32.657L435.016,32.304L436.172,31.85L437.328,31.397L438.484,30.943L439.77,30.439L440.925,29.986L442.081,29.532L443.237,29.079L444.522,28.674L445.679,28.273L446.835,28.02L447.991,27.264L449.276,26.358L450.433,25.854L451.589,25.299L452.745,24.141L454.029,23.131L455.186,22.375L456.342,21.772L457.499,21.368L458.783,20.764L459.939,20.159L461.097,19.856L462.253,18.848L463.536,17.489L464.692,17.135L465.85,17.336L467.006,17.438L468.29,17.438L469.447,17.286L470.604,17.286L471.76,17.588L473.044,17.539L474.2,17.588L475.356,17.539L476.513,18.395L477.798,19.151L478.954,19.604L480.11,20.411L481.267,21.166L482.552,21.821L483.708,22.225L484.864,22.477L486.02,22.124L487.305,21.52L488.461,21.116L489.617,20.915L490.773,20.663L492.059,20.815L493.215,20.965L494.371,21.016L495.526,21.016L496.812,21.066L497.968,21.066L499.124,20.764L500.28,20.208L501.565,19.201L502.722,19.05L503.878,18.899L505.034,18.698L506.318,18.344L507.475,17.891L508.631,17.79L509.787,17.891L511.072,17.891L512.229,18.395L513.386,19.1L514.542,19.706L515.826,20.309L516.983,20.915L518.139,21.418L519.295,21.721L520.579,21.873L521.736,21.821L522.893,21.268L524.049,20.713L525.334,20.26L526.49,19.957L527.646,19.604L528.802,19.201L530.087,18.344L531.243,17.489L532.399,16.127L533.556,14.868L534.841,13.809L535.997,12.953L537.153,12.197L538.31,11.843L539.594,11.441L541.906,10.735L543.062,10.383L544.348,9.979L545.504,9.475L546.66,8.569L547.816,7.711L549.102,6.856L550.257,6.049L551.413,5.192L552.569,4.385L553.854,3.629L555.011,2.873L556.167,2.118L557.323,1.362L558.608,0.606L559.764,-0.099L560.92,-0.754L562.076,-1.46L563.361,-2.115L564.518,-2.72L565.674,-3.325L566.831,-3.728L568.115,-3.779L569.272,-3.829L570.429,-3.829L571.585,-3.878L572.868,-3.929L574.025,-3.979L575.182,-4.031L576.338,-4.031L577.623,-4.08L578.779,-4.131" style="fill:none;fill-rule:nonzero;stroke:rgb(46,54,144);stroke-width:1.31px;"/>
        </g>
    </g>
</svg>
