<?xml version="1.0" encoding="UTF-8" standalone="no"?>
<!DOCTYPE svg PUBLIC "-//W3C//DTD SVG 1.1//EN" "http://www.w3.org/Graphics/SVG/1.1/DTD/svg11.dtd">
<svg width="100%" height="100%" viewBox="0 0 2921 1210" version="1.1" xmlns="http://www.w3.org/2000/svg" xmlns:xlink="http://www.w3.org/1999/xlink" xml:space="preserve" xmlns:serif="http://www.serif.com/" style="fill-rule:evenodd;clip-rule:evenodd;">
    <g transform="matrix(4.16667,0,0,4.16667,255.721,632.857)">
        <g id="depth-section" serif:id="depth section">
            <path d="M0,41.022L1.156,40.92L2.441,40.821L3.598,40.719L4.754,40.668L5.91,40.619L7.195,40.567L8.352,40.518L9.508,40.465L11.948,40.465L13.104,40.368L14.261,40.315L15.417,40.214L16.702,40.417L17.857,40.567L19.014,40.769L20.17,40.719L21.456,40.518L22.611,40.668L23.768,40.87L24.924,41.022L26.209,41.172L27.365,41.323L28.521,41.424L29.678,41.626L30.962,41.726L32.118,41.726L33.274,41.877L34.431,42.08L35.716,42.231L36.872,42.281L38.028,42.231L39.186,42.13L40.47,41.979L41.626,41.877L42.783,41.726L43.939,41.676L45.223,41.626L46.379,41.626L47.536,41.676L48.692,41.877L49.976,42.03L51.133,42.231L52.289,42.381L53.445,42.433L54.73,42.433L55.887,42.381L58.199,42.381L59.484,42.333L60.641,42.281L61.797,42.231L62.953,42.13L64.237,41.827L65.394,41.475L66.55,41.123L67.706,41.022L68.991,41.022L70.147,41.072L71.304,41.022L72.459,41.172L73.745,41.223L74.901,41.223L76.058,41.323L77.213,41.424L78.498,41.576L79.654,41.726L80.811,41.877L81.967,41.877L83.251,41.928L85.563,42.03L86.72,42.03L88.005,41.979L89.161,41.877L90.317,41.777L91.475,41.676L92.759,41.526L93.915,41.424L95.072,41.374L96.229,41.223L97.512,41.323L98.668,41.424L99.825,41.424L100.981,41.475L102.266,41.475L103.423,41.424L104.578,41.374L107.021,41.374L108.177,41.323L109.332,41.323L110.488,41.374L111.773,41.424L112.93,41.374L114.086,41.273L115.242,41.424L116.526,41.424L117.683,41.475L118.839,41.475L119.995,41.576L121.28,41.576L122.437,41.526L124.749,41.424L126.034,41.273L127.19,41.123L128.347,40.971L129.503,40.87L130.787,40.821L131.943,40.92L133.1,41.022L134.256,40.971L135.541,41.172L136.696,41.323L137.853,41.475L139.009,41.475L140.295,41.374L141.45,41.424L142.606,41.526L143.764,41.526L145.048,41.475L146.204,41.374L147.361,41.123L148.518,40.821L149.801,40.619L150.957,40.417L152.114,40.266L153.271,40.064L154.555,39.862L155.712,39.61L156.868,39.358L158.024,39.157L159.31,38.956L160.466,38.703L161.622,38.552L162.778,38.35L164.062,38.2L165.219,38.149L166.375,38.099L167.531,38.2L168.815,38.149L169.972,38.047L171.128,37.946L172.284,37.846L173.569,37.695L174.726,37.645L175.882,37.594L177.038,37.444L178.323,37.041L179.479,36.94L180.636,36.94L181.792,36.838L183.076,37.041L184.232,36.94L185.389,36.94L186.545,36.838L187.83,36.788L188.986,36.687L190.143,36.637L191.298,36.687L192.584,36.687L193.74,36.788L194.896,36.788L196.053,36.738L197.337,36.738L198.493,36.587L199.65,36.487L200.807,36.536L203.246,36.536L204.403,36.434L205.56,36.335L206.844,36.183L208.001,35.981L210.313,35.579L211.599,35.426L212.755,35.327L213.911,35.025L215.067,35.579L216.352,35.025L217.508,34.874L218.664,34.924L219.82,34.772L221.105,34.722L222.262,34.622L223.417,34.268L224.573,34.068L225.859,34.068L227.015,34.118L229.327,34.118L230.612,33.915L231.769,33.866L234.081,33.764L235.365,33.512L236.521,33.461L237.678,33.311L238.834,33.26L240.119,33.311L241.275,33.361L242.432,33.361L243.588,33.26L244.873,33.311L246.029,33.26L248.341,33.16L249.626,33.16L250.782,33.21L251.939,33.16L253.096,33.008L254.38,33.21L255.537,33.311L256.693,33.21L257.849,33.11L259.133,33.008L260.29,32.959L261.446,32.858L262.603,32.807L263.888,32.756L265.044,32.656L266.2,32.606L267.356,32.555L268.641,32.707L269.797,32.807L270.953,32.959L272.109,32.807L273.395,32.807L274.551,32.756L275.707,32.656L276.863,32.606L278.148,32.555L279.304,32.606L280.46,32.606L281.616,32.555L285.214,32.555L286.37,32.656L287.655,32.454L289.967,32.454L291.123,32.555L292.408,32.606L293.564,33.06L294.721,33.11L295.877,33.11L297.162,33.16L298.318,33.21L299.475,33.26L300.632,33.311L301.915,33.361L303.071,33.413L304.228,33.461L305.385,33.461L306.669,33.361L307.826,33.21L308.982,33.06L310.139,32.907L311.422,32.756L312.579,32.907L313.735,32.959L314.892,33.008L316.177,33.008L317.333,32.959L319.646,32.959L320.931,32.907L322.086,32.858L323.242,32.858L324.398,32.807L325.684,32.807L326.84,32.756L327.996,32.756L329.152,32.707L330.437,32.656L331.594,32.606L332.75,32.555L333.906,32.454L335.19,32.354L336.347,32.202L337.503,32.102L338.659,32.001L339.944,31.901L341.101,31.749L343.413,31.547L344.697,31.395L345.854,31.245L347.01,31.144L348.166,30.942L349.451,30.792L350.607,30.64L351.764,30.438L352.921,30.237L354.204,30.036L355.36,29.733L356.517,29.379L357.674,28.977L358.958,28.524L360.114,28.02L361.271,27.567L362.428,27.012L363.713,26.559L364.869,26.206L366.025,26.055L367.181,25.802L368.466,25.399L369.622,24.745L370.778,24.291L371.935,23.989L373.22,23.686L374.376,23.333L375.532,22.981L376.687,22.779L377.973,22.678L379.129,22.528L380.285,22.325L381.441,22.124L382.727,22.022L383.883,21.921L385.039,21.821L386.195,21.368L387.479,20.915L388.636,20.309L389.792,19.805L390.948,19.251L392.233,18.243L393.39,18.092L394.546,17.639L395.702,17.538L396.987,17.236L398.144,17.185L399.299,17.085L400.455,17.135L401.74,17.135L402.896,16.882L404.053,16.833L405.21,16.933L406.494,16.782L407.65,16.479L408.806,16.429L409.963,16.429L411.247,16.378L412.403,16.329L413.561,16.278L414.717,16.429L416.001,15.975L417.158,15.925L418.314,15.875L419.471,15.875L420.755,15.825L421.911,15.774L423.067,15.774L424.224,15.723L425.509,15.673L426.665,15.624L427.821,15.573L428.978,15.522L430.263,15.471L431.418,15.421L433.73,15.321L435.016,15.27L436.172,15.169L437.328,15.12L438.484,15.069L439.77,15.018L440.925,14.918L442.081,14.867L443.237,14.817L444.522,14.715L445.679,14.665L447.991,14.463L449.276,14.162L450.433,13.809L451.589,13.406L452.745,13.053L454.029,12.7L455.186,12.397L456.342,12.096L457.499,11.893L458.783,11.642L459.939,11.339L461.097,11.038L462.253,10.583L463.536,10.231L464.692,10.03L465.85,10.03L467.006,10.079L468.29,10.03L470.604,9.928L471.76,9.877L473.044,9.828L474.2,9.828L475.356,9.778L477.798,9.778L478.954,9.727L480.11,9.778L481.267,9.877L482.552,9.727L483.708,9.626L484.864,9.374L486.02,9.123L487.305,8.87L488.461,8.82L489.617,8.668L490.773,8.466L492.059,8.366L493.215,8.266L494.371,8.215L495.526,8.165L496.812,8.063L497.968,7.913L499.124,7.762L500.28,7.51L501.565,7.157L502.722,7.005L503.878,6.956L505.034,6.854L506.318,6.653L507.475,6.401L509.787,6.501L511.072,6.653L512.229,6.804L513.386,7.157L514.542,7.559L515.826,7.812L516.983,8.063L518.139,8.266L519.295,8.366L520.579,8.366L522.893,8.266L524.049,8.215L525.334,8.165L526.49,8.063L528.802,7.661L530.087,7.409L531.243,7.057L532.399,6.653L533.556,6.149L534.841,5.696L535.997,5.241L537.153,4.838L538.31,4.486L539.594,4.235L540.75,3.982L541.906,3.781L543.062,3.579L544.348,3.327L545.504,3.075L546.66,2.773L547.816,2.52L549.102,2.168L550.257,1.715L551.413,1.161L552.569,0.606L553.854,0.102L555.011,-0.351L556.167,-0.654L557.323,-0.705L558.608,-0.705L559.764,-0.755L562.076,-0.857L563.361,-0.906L564.518,-0.906L565.674,-0.957L566.831,-1.007L568.115,-1.058L569.272,-1.108L570.429,-1.108L571.585,-1.158L572.868,-1.208L574.025,-1.258L575.182,-1.31L576.338,-1.31L577.623,-1.359L578.779,-1.411" style="fill:none;fill-rule:nonzero;stroke:rgb(89,89,92);stroke-width:0.65px;"/>
        </g>
    </g>
</svg>
