<?xml version="1.0" encoding="UTF-8" standalone="no"?>
<!DOCTYPE svg PUBLIC "-//W3C//DTD SVG 1.1//EN" "http://www.w3.org/Graphics/SVG/1.1/DTD/svg11.dtd">
<svg width="100%" height="100%" viewBox="0 0 2921 1210" version="1.1" xmlns="http://www.w3.org/2000/svg" xmlns:xlink="http://www.w3.org/1999/xlink" xml:space="preserve" xmlns:serif="http://www.serif.com/" style="fill-rule:evenodd;clip-rule:evenodd;">
    <g transform="matrix(4.16667,0,0,4.16667,255.721,631.593)">
        <g id="depth-section" serif:id="depth section">
            <path d="M0,45.71L1.156,46.011L2.441,45.91L3.598,45.961L4.754,45.659L5.91,45.155L7.195,44.853L8.352,45.457L9.508,45.608L10.664,45.507L11.948,45.255L13.104,45.306L14.261,45.104L15.417,44.449L16.702,45.054L17.857,45.457L19.014,45.91L20.17,46.062L21.456,44.549L22.611,45.155L23.768,45.71L24.924,45.81L26.209,45.86L27.365,45.91L28.521,45.91L29.678,46.011L30.962,46.111L32.118,46.163L33.274,46.263L34.431,46.364L35.716,46.465L36.872,46.465L38.028,46.263L39.186,46.111L40.47,45.961L42.783,45.961L43.939,45.86L45.223,45.659L46.379,45.507L47.536,45.457L48.692,45.71L49.976,45.91L51.133,46.111L52.289,46.364L53.445,46.565L54.73,46.667L55.887,46.768L57.043,46.817L58.199,46.768L59.484,46.615L60.641,46.515L61.797,46.314L62.953,46.062L64.237,45.71L65.394,45.356L66.55,45.255L67.706,45.255L68.991,45.558L70.147,45.86L71.304,45.659L72.459,45.659L73.745,44.549L74.901,44.751L76.058,45.406L77.213,46.011L78.498,46.111L79.654,46.163L80.811,46.263L81.967,46.163L83.251,46.163L84.407,46.263L85.563,46.364L86.72,46.465L88.005,46.565L89.161,46.515L90.317,46.314L91.475,46.062L92.759,45.81L93.915,45.608L95.072,45.457L96.229,45.406L97.512,45.457L98.668,45.558L99.825,45.608L100.981,45.759L102.266,45.81L103.423,45.71L104.578,45.507L105.734,45.356L107.021,45.255L108.177,45.054L109.332,45.003L110.488,44.953L111.773,44.902L112.93,44.853L114.086,44.751L115.242,44.902L116.526,45.003L117.683,45.104L118.839,45.255L121.28,45.255L122.437,45.204L123.593,45.204L124.749,45.155L126.034,45.003L127.19,44.751L128.347,44.549L129.503,44.349L130.787,44.196L131.943,44.196L133.1,44.247L134.256,44.298L135.541,44.398L136.696,44.449L137.853,44.499L139.009,44.349L140.295,44.096L141.45,44.096L142.606,44.146L143.764,44.096L145.048,44.096L146.204,43.995L147.361,43.794L148.518,43.441L149.801,42.987L150.957,42.685L152.114,42.383L153.271,42.13L154.555,41.879L155.712,41.677L156.868,41.426L158.024,41.375L159.31,41.274L160.466,40.922L161.622,40.769L162.778,40.417L164.062,40.216L165.219,40.014L166.375,40.165L167.531,40.367L168.815,40.417L169.972,40.367L172.284,40.367L173.569,40.315L174.726,40.315L175.882,40.367L177.038,40.367L178.323,40.014L179.479,40.064L180.636,39.964L181.792,39.712L183.076,39.61L184.232,39.259L185.389,39.106L186.545,39.006L187.83,38.956L190.143,38.956L191.298,39.057L192.584,39.157L193.74,39.057L194.896,38.956L196.053,38.905L197.337,38.856L198.493,38.956L199.65,38.804L200.807,38.703L202.09,38.755L203.246,38.804L204.403,38.755L205.56,38.653L206.844,38.503L208.001,38.302L209.157,38.149L210.313,38.049L211.599,37.948L212.755,37.847L213.911,37.595L215.067,38.099L216.352,37.344L217.508,37.142L218.664,37.142L219.82,37.041L221.105,36.94L222.262,36.94L223.417,36.638L224.573,36.437L225.859,36.235L227.015,36.134L228.171,36.134L229.327,35.78L230.612,35.579L231.769,35.681L232.925,35.882L234.081,35.681L235.365,35.276L236.521,35.228L237.678,34.874L238.834,34.824L240.119,34.824L241.275,34.772L242.432,34.772L243.588,34.975L244.873,35.025L246.029,34.925L247.185,34.975L248.341,35.075L249.626,35.177L250.782,35.228L251.939,35.228L253.096,35.177L254.38,35.228L255.537,35.075L256.693,35.025L257.849,34.925L259.133,34.874L260.29,34.824L261.446,34.824L262.603,34.772L263.888,34.874L265.044,35.075L266.2,34.975L267.356,34.622L268.641,34.471L269.797,34.622L270.953,34.724L272.109,34.772L273.395,34.724L274.551,34.622L275.707,34.571L276.863,34.522L278.148,34.522L279.304,34.672L280.46,34.874L281.616,34.975L282.901,35.075L284.058,35.126L285.214,35.177L286.37,35.276L287.655,35.075L288.812,35.075L289.967,35.025L291.123,35.228L292.408,35.328L293.564,35.73L294.721,35.933L295.877,36.134L297.162,36.284L298.318,36.185L299.475,36.386L300.632,36.537L301.915,36.689L303.071,36.737L304.228,36.79L305.385,36.689L306.669,36.537L307.826,36.386L308.982,36.235L310.139,36.185L311.422,36.235L312.579,36.689L313.735,36.839L314.892,36.99L316.177,37.192L317.333,37.243L318.489,37.192L319.646,37.192L320.931,37.494L322.086,37.847L323.242,37.898L324.398,37.998L325.684,38.2L326.84,38.452L327.996,38.553L329.152,38.653L330.437,38.703L331.594,38.653L332.75,38.856L333.906,39.006L335.19,38.856L336.347,38.703L337.503,38.605L338.659,38.653L339.944,38.503L341.101,38.703L342.257,38.804L344.697,38.804L345.854,38.905L347.01,38.956L348.166,38.755L349.451,38.553L350.607,38.351L351.764,38.249L352.921,38.149L354.204,38.049L355.36,37.696L356.517,37.294L357.674,36.737L358.958,36.486L360.114,36.587L361.271,36.587L362.428,36.235L363.713,35.831L364.869,35.529L366.025,35.529L367.181,35.429L368.466,35.228L369.622,34.824L370.778,34.471L371.935,34.319L373.22,34.218L374.376,34.169L375.532,34.118L376.687,34.271L377.973,34.522L379.129,34.622L380.285,34.724L381.441,34.772L382.727,34.824L383.883,34.824L385.039,34.772L386.195,34.622L387.479,34.471L388.636,34.319L389.792,34.169L390.948,34.018L392.233,33.866L393.39,33.664L394.546,33.514L395.702,33.363L396.987,33.21L398.144,33.11L399.299,32.959L400.455,33.161L401.74,33.161L402.896,33.06L404.053,32.909L405.21,32.757L406.494,32.606L407.65,32.355L408.806,32.052L409.963,31.951L411.247,31.851L412.403,31.698L413.561,31.599L414.717,31.447L416.001,31.245L417.158,31.044L418.314,30.843L419.471,30.641L420.755,30.439L421.911,30.288L423.067,30.187L424.224,30.087L425.509,30.036L426.665,29.936L427.821,29.835L428.978,29.784L430.263,29.683L431.418,29.633L433.73,29.331L435.016,29.13L436.172,28.827L438.484,28.121L439.77,27.769L440.925,27.416L442.081,27.064L443.237,26.761L444.522,26.609L445.679,26.509L446.835,26.407L447.991,26.155L449.276,25.451L450.433,24.796L451.589,24.14L452.745,23.586L454.029,23.132L455.186,22.831L456.342,22.528L457.499,22.275L458.783,22.024L459.939,21.823L461.097,21.419L462.253,20.915L463.536,20.31L464.692,20.159L465.85,20.36L467.006,20.462L468.29,20.462L469.447,20.31L470.604,20.31L471.76,20.612L473.044,20.563L474.2,20.612L475.356,20.411L476.513,20.713L477.798,20.966L478.954,21.017L480.11,21.47L481.267,21.872L482.552,22.275L483.708,22.376L484.864,22.275L486.02,22.124L487.305,22.074L488.461,22.024L489.617,21.823L490.773,21.57L492.059,21.521L493.215,21.671L494.371,21.773L495.526,21.823L496.812,21.872L497.968,21.823L499.124,21.722L500.28,21.116L501.565,20.36L502.722,20.26L503.878,20.059L505.034,19.605L506.318,19.302L507.475,18.748L508.631,18.698L509.787,18.798L511.072,18.899L512.229,19.403L513.386,20.209L514.542,20.915L515.826,21.47L516.983,21.872L518.139,22.175L519.295,22.376L520.579,22.325L522.893,21.823L524.049,21.57L525.334,21.317L526.49,21.218L527.646,21.065L528.802,20.814L530.087,20.209L531.243,19.454L532.399,18.648L533.556,17.841L534.841,16.833L535.997,15.977L537.153,15.221L538.31,14.867L539.594,14.465L541.906,13.759L543.062,13.407L544.348,13.003L545.504,12.499L546.66,11.593L547.816,10.735L549.102,9.88L550.257,9.073L551.413,8.216L552.569,7.409L553.854,6.653L555.011,5.897L556.167,5.142L557.323,4.386L558.608,3.63L559.764,2.925L560.92,2.27L562.076,1.564L563.361,0.909L564.518,0.304L565.674,-0.301L566.831,-0.704L568.115,-0.755L569.272,-0.805L570.429,-0.805L571.585,-0.854L572.868,-0.905L574.025,-0.955L575.182,-1.007L576.338,-1.007L577.623,-1.056L578.779,-1.107" style="fill:none;fill-rule:nonzero;stroke:rgb(89,89,92);stroke-width:0.65px;"/>
        </g>
    </g>
</svg>
