<?xml version="1.0" encoding="UTF-8" standalone="no"?>
<!DOCTYPE svg PUBLIC "-//W3C//DTD SVG 1.1//EN" "http://www.w3.org/Graphics/SVG/1.1/DTD/svg11.dtd">
<svg width="100%" height="100%" viewBox="0 0 2921 1210" version="1.1" xmlns="http://www.w3.org/2000/svg" xmlns:xlink="http://www.w3.org/1999/xlink" xml:space="preserve" xmlns:serif="http://www.serif.com/" style="fill-rule:evenodd;clip-rule:evenodd;">
    <g transform="matrix(4.16667,0,0,4.16667,255.721,630.131)">
        <g id="depth-section" serif:id="depth section">
            <path d="M0,26.104L1.156,26.206L2.441,26.306L3.598,26.356L4.754,26.306L5.91,26.206L7.195,26.306L8.352,26.407L9.508,26.457L10.664,26.407L11.948,26.557L13.104,26.506L14.261,26.457L15.417,26.457L16.702,26.506L17.857,26.506L19.014,26.557L20.17,26.557L21.456,26.758L22.611,26.86L23.768,26.709L24.924,26.457L26.209,26.407L27.365,26.557L28.521,26.557L29.678,26.608L30.962,26.659L32.118,26.659L33.274,26.709L34.431,26.758L35.716,26.758L36.872,26.809L38.028,26.709L39.186,26.659L40.47,26.659L41.626,26.709L42.783,26.758L43.939,26.758L45.223,26.809L48.692,26.809L49.976,26.758L51.133,26.709L52.289,26.709L53.445,26.659L54.73,26.608L55.887,26.557L57.043,26.457L58.199,26.356L59.484,26.306L60.641,26.306L61.797,26.356L62.953,26.407L64.237,26.407L65.394,26.306L66.55,26.255L67.706,26.356L68.991,26.407L70.147,26.457L71.304,26.255L72.459,26.155L73.745,26.053L74.901,25.903L76.058,25.953L77.213,26.002L78.498,26.104L79.654,26.206L80.811,26.306L81.967,26.306L83.251,26.356L84.407,26.407L85.563,26.407L86.72,26.506L88.005,26.608L89.161,26.608L90.317,26.506L91.475,26.356L92.759,26.206L93.915,26.104L95.072,26.053L96.229,25.903L97.512,25.75L98.668,25.399L99.825,24.945L100.981,24.793L102.266,24.643L103.423,24.491L104.578,24.29L105.734,24.139L107.021,24.088L108.177,24.088L109.332,24.139L110.488,24.19L111.773,24.24L112.93,24.19L114.086,24.24L115.242,24.19L116.526,24.24L117.683,24.29L118.839,24.34L119.995,24.391L121.28,24.391L122.437,24.139L127.19,24.139L128.347,23.937L129.503,23.937L130.787,23.736L131.943,23.786L133.1,23.887L135.541,23.887L136.696,23.836L137.853,23.635L139.009,23.534L140.295,23.736L141.45,23.635L142.606,23.635L143.764,23.736L145.048,23.786L146.204,23.736L147.361,23.684L148.518,23.635L149.801,23.583L152.114,23.583L153.271,23.534L154.555,23.483L155.712,23.383L156.868,23.333L158.024,23.231L159.31,23.13L160.466,23.03L161.622,22.929L162.778,22.879L164.062,22.929L165.219,22.929L166.375,22.879L167.531,22.778L168.815,22.676L169.972,22.475L171.128,22.325L172.284,22.174L173.569,22.022L174.726,21.921L175.882,21.821L177.038,21.719L178.323,21.518L180.636,21.518L181.792,21.417L183.076,21.368L184.232,21.317L185.389,21.317L186.545,21.266L187.83,21.216L188.986,21.116L190.143,21.014L191.298,21.014L192.584,20.963L193.74,20.914L194.896,20.813L196.053,20.711L197.337,20.661L198.493,20.661L199.65,20.611L200.807,20.56L202.09,20.56L203.246,20.51L204.403,20.41L205.56,20.36L206.844,20.258L208.001,20.108L209.157,19.956L210.313,19.856L211.599,19.754L212.755,19.653L213.911,19.452L215.067,19.603L216.352,19.402L217.508,19.35L218.664,19.35L219.82,19.25L221.105,19.149L222.262,19.099L223.417,18.999L224.573,18.897L225.859,18.848L227.015,18.797L228.171,18.747L230.612,18.747L231.769,18.797L234.081,18.797L235.365,18.696L236.521,18.747L237.678,18.747L238.834,18.797L240.119,18.797L241.275,18.848L242.432,18.848L243.588,18.948L244.873,18.948L246.029,18.897L248.341,18.999L249.626,19.049L251.939,19.049L253.096,18.999L254.38,19.049L256.693,19.049L257.849,19.099L259.133,19.099L260.29,19.149L261.446,19.2L266.2,19.2L267.356,19.25L268.641,19.301L269.797,19.301L270.953,19.402L272.109,19.301L273.395,19.25L274.551,19.2L275.707,19.149L276.863,19.049L278.148,18.848L279.304,18.797L280.46,18.747L281.616,18.696L282.901,18.645L284.058,18.645L285.214,18.595L286.37,18.544L287.655,18.394L288.812,18.394L289.967,18.344L291.123,18.293L292.408,18.243L293.564,18.344L294.721,18.293L295.877,18.192L297.162,18.041L298.318,17.94L299.475,17.991L300.632,18.041L301.915,17.94L303.071,17.839L304.228,17.739L305.385,17.637L306.669,17.537L307.826,17.436L308.982,17.335L310.139,17.184L311.422,17.083L312.579,16.983L313.735,16.832L314.892,16.731L316.177,16.629L317.333,16.529L318.489,16.479L319.646,16.479L320.931,16.377L322.086,16.278L323.242,16.176L324.398,16.025L325.684,15.875L326.84,15.774L327.996,15.672L329.152,15.572L330.437,15.37L331.594,15.27L332.75,15.168L333.906,14.916L335.19,14.866L336.347,14.614L337.503,14.363L338.659,14.06L339.944,13.808L341.101,13.606L342.257,13.303L343.413,13.051L344.697,12.7L345.854,12.196L347.01,11.944L348.166,11.743L349.451,11.54L350.607,11.086L351.764,10.834L352.921,10.432L354.204,10.231L355.36,9.777L356.517,9.323L357.674,8.768L358.958,8.264L360.114,7.811L362.428,6.905L363.713,6.5L364.869,6.097L366.025,5.795L367.181,5.393L368.466,5.14L369.622,4.989L370.778,4.889L371.935,4.737L373.22,4.636L374.376,4.536L375.532,4.385L376.687,4.334L377.973,4.284L380.285,4.182L381.441,4.132L382.727,4.132L385.039,4.032L386.195,3.981L387.479,3.93L388.636,3.881L389.792,3.881L390.948,3.829L392.233,3.78L393.39,3.78L394.546,3.729L401.74,3.729L402.896,3.678L405.21,3.678L406.494,3.628L407.65,3.628L408.806,3.578L409.963,3.578L411.247,3.477L413.561,3.477L414.717,3.427L417.158,3.427L418.314,3.327L419.471,3.327L420.755,3.276L421.911,3.276L423.067,3.225L425.509,3.225L426.665,3.174L427.821,3.174L428.978,3.125L430.263,3.125L431.418,3.074L432.574,3.024L433.73,2.973L435.016,2.922L436.172,2.823L437.328,2.772L438.484,2.67L439.77,2.621L440.925,2.57L442.081,2.469L443.237,2.419L444.522,2.319L445.679,2.217L446.835,2.167L447.991,2.066L449.276,2.016L450.433,1.916L451.589,1.864L452.745,1.713L454.029,1.613L455.186,1.562L456.342,1.512L457.499,1.461L458.783,1.362L459.939,1.309L461.097,1.26L464.692,1.26L465.85,1.209L478.954,1.209L480.11,1.26L481.267,1.26L482.552,1.209L484.864,1.109L486.02,1.058L487.305,1.008L488.461,0.958L490.773,0.856L509.787,0.856L511.072,0.805L514.542,0.805L515.826,0.756L519.295,0.756L520.579,0.706L524.049,0.706L525.334,0.655L528.802,0.655L530.087,0.605L532.399,0.605L533.556,0.554L537.153,0.554L538.31,0.504L541.906,0.504L543.062,0.454L544.348,0.454L545.504,0.403L546.66,0.403L547.816,0.354L549.102,0.252L550.257,0.202L551.413,0.151L552.569,0.151L553.854,0.101L555.011,0.05L557.323,-0.05L558.608,-0.05L562.076,-0.203L563.361,-0.251L564.518,-0.251L565.674,-0.303L566.831,-0.353L568.115,-0.404L569.272,-0.454L570.429,-0.454L571.585,-0.503L572.868,-0.554L574.025,-0.604L575.182,-0.656L576.338,-0.656L577.623,-0.705L578.779,-0.756" style="fill:none;fill-rule:nonzero;stroke:rgb(89,89,92);stroke-width:0.65px;"/>
        </g>
    </g>
</svg>
