<?xml version="1.0" encoding="UTF-8" standalone="no"?>
<!DOCTYPE svg PUBLIC "-//W3C//DTD SVG 1.1//EN" "http://www.w3.org/Graphics/SVG/1.1/DTD/svg11.dtd">
<svg width="100%" height="100%" viewBox="0 0 2921 1210" version="1.1" xmlns="http://www.w3.org/2000/svg" xmlns:xlink="http://www.w3.org/1999/xlink" xml:space="preserve" xmlns:serif="http://www.serif.com/" style="fill-rule:evenodd;clip-rule:evenodd;">
    <g transform="matrix(4.16667,0,0,4.16667,255.721,631.394)">
        <g id="depth-section" serif:id="depth section">
            <path d="M0,44.295L1.156,44.446L2.441,44.193L3.598,43.842L4.754,43.74L5.91,43.539L7.195,43.287L8.352,43.085L9.508,42.984L13.104,42.984L14.261,43.035L15.417,43.085L16.702,43.287L17.857,43.439L19.014,43.59L20.17,43.691L21.456,43.641L22.611,43.993L23.768,44.346L24.924,44.397L26.209,44.446L27.365,44.497L28.521,44.547L29.678,44.649L30.962,44.75L32.118,44.799L33.274,44.85L34.431,44.9L35.716,44.95L38.028,44.95L39.186,44.9L40.47,44.85L41.626,44.75L42.783,44.649L43.939,44.547L45.223,44.446L46.379,44.346L47.536,44.346L48.692,44.497L49.976,44.697L51.133,45.001L52.289,45.203L53.445,45.303L54.73,45.252L55.887,45.151L57.043,45.203L58.199,45.252L59.484,45.252L60.641,45.203L61.797,44.95L62.953,44.75L64.237,44.547L65.394,44.346L66.55,44.093L67.706,43.993L68.991,43.842L70.147,44.043L71.304,44.093L72.459,43.791L73.745,43.489L74.901,43.842L76.058,44.244L77.213,44.799L78.498,45.051L79.654,45.151L80.811,45.252L84.407,45.252L85.563,45.303L86.72,45.354L88.005,45.354L89.161,45.303L90.317,45.151L91.475,45.001L92.759,44.799L93.915,44.649L95.072,44.547L96.229,44.397L97.512,44.446L98.668,44.497L99.825,44.446L100.981,44.397L102.266,44.295L103.423,44.244L104.578,44.144L105.734,44.093L107.021,44.043L108.177,43.942L110.488,43.942L111.773,43.993L112.93,43.993L114.086,43.942L115.242,44.093L116.526,44.193L117.683,44.295L118.839,44.397L119.995,44.446L121.28,44.497L122.437,44.547L123.593,44.497L124.749,44.397L126.034,44.244L127.19,44.043L128.347,43.842L129.503,43.641L130.787,43.539L131.943,43.539L133.1,43.641L134.256,43.691L135.541,43.74L136.696,43.791L137.853,43.842L139.009,43.74L140.295,43.539L141.45,43.539L142.606,43.59L143.764,43.489L145.048,43.338L146.204,43.137L147.361,42.883L148.518,42.582L149.801,42.33L150.957,42.077L152.114,41.826L153.271,41.574L154.555,41.373L155.712,41.172L156.868,40.918L158.024,40.666L159.31,40.363L160.466,40.264L161.622,40.162L162.778,39.811L164.062,39.658L165.219,39.658L166.375,39.608L169.972,39.608L171.128,39.658L172.284,39.658L173.569,39.608L174.726,39.658L175.882,39.709L177.038,39.658L178.323,39.358L179.479,39.205L180.636,39.054L181.792,38.852L183.076,38.803L184.232,38.551L185.389,38.5L186.545,38.399L187.83,38.35L188.986,38.399L190.143,38.45L191.298,38.5L192.584,38.5L193.74,38.399L194.896,38.248L196.053,38.197L197.337,38.248L198.493,38.297L200.807,38.097L202.09,38.248L203.246,38.248L204.403,38.147L205.56,37.996L206.844,37.895L208.001,37.643L209.157,37.392L210.313,37.342L211.599,37.342L212.755,37.291L213.911,36.988L215.067,37.442L216.352,36.785L217.508,36.635L218.664,36.635L219.82,36.484L221.105,36.434L222.262,36.283L223.417,35.93L224.573,35.777L225.859,35.678L227.015,35.627L228.171,35.577L229.327,35.275L230.612,35.023L231.769,35.174L232.925,35.376L234.081,35.174L235.365,34.82L236.521,34.67L237.678,34.367L238.834,34.318L241.275,34.318L242.432,34.266L243.588,34.469L244.873,34.367L246.029,34.166L247.185,34.166L248.341,34.217L249.626,34.318L250.782,34.367L251.939,34.619L253.096,34.67L254.38,34.619L255.537,34.419L256.693,34.318L257.849,34.318L259.133,34.266L260.29,34.217L261.446,34.166L262.603,34.166L263.888,34.367L265.044,34.318L266.2,34.115L267.356,33.965L268.641,33.863L269.797,34.015L270.953,34.166L272.109,34.217L273.395,34.217L274.551,34.115L275.707,34.015L276.863,33.863L278.148,33.764L279.304,33.863L280.46,34.015L281.616,34.266L282.901,34.569L284.058,34.67L285.214,34.772L286.37,34.872L287.655,34.619L288.812,34.469L289.967,34.015L291.123,34.166L292.408,34.266L293.564,34.619L294.721,34.72L295.877,34.82L297.162,35.073L298.318,35.073L299.475,35.275L300.632,35.426L301.915,35.477L303.071,35.376L304.228,35.275L305.385,35.225L306.669,35.174L307.826,35.073L308.982,34.922L310.139,34.772L311.422,34.67L312.579,34.82L313.735,34.973L314.892,35.073L316.177,35.073L318.489,34.973L319.646,34.973L320.931,35.174L322.086,35.275L323.242,35.426L324.398,35.477L325.684,35.526L329.152,35.526L330.437,35.577L331.594,35.526L333.906,35.526L335.19,35.477L336.347,35.376L337.503,35.225L338.659,35.023L339.944,34.772L341.101,34.72L342.257,34.72L343.413,34.619L344.697,34.469L345.854,34.367L347.01,34.217L348.166,34.066L349.451,33.863L350.607,33.712L351.764,33.511L352.921,33.209L354.204,32.805L355.36,32.252L356.517,31.545L357.674,30.891L358.958,30.336L360.114,29.781L361.271,29.279L362.428,28.673L363.713,28.119L364.869,27.514L366.025,27.363L367.181,27.565L368.466,27.262L369.622,26.91L370.778,26.809L371.935,26.91L373.22,26.959L374.376,26.91L375.532,26.959L376.687,27.061L377.973,27.213L379.129,27.363L380.285,27.464L385.039,27.464L386.195,27.363L387.479,27.161L388.636,27.011L389.792,26.91L390.948,26.758L392.233,26.657L393.39,26.557L394.546,26.455L395.702,26.356L396.987,26.305L398.144,26.203L399.299,26.153L400.455,26.356L401.74,26.406L402.896,26.104L404.053,26.003L405.21,25.952L406.494,25.852L407.65,25.549L408.806,25.399L409.963,25.297L411.247,25.195L412.403,25.045L413.561,24.944L414.717,24.844L416.001,24.742L417.158,24.642L418.314,24.592L419.471,24.541L420.755,24.44L421.911,24.389L423.067,24.289L424.224,24.238L425.509,24.138L426.665,24.088L427.821,24.037L428.978,23.986L431.418,23.986L432.574,23.836L433.73,23.634L435.016,23.381L436.172,23.18L437.328,22.928L438.484,22.727L439.77,22.475L440.925,22.223L442.081,21.971L443.237,21.82L444.522,21.668L445.679,21.618L446.835,21.518L447.991,21.416L449.276,21.164L450.433,20.51L451.589,19.854L452.745,19.199L454.029,18.947L455.186,18.645L456.342,18.393L457.499,18.091L458.783,17.838L459.939,17.536L461.097,17.133L462.253,16.78L463.536,16.428L464.692,16.125L465.85,16.074L467.006,16.074L468.29,16.024L469.447,16.024L470.604,15.975L471.76,15.924L474.2,15.924L475.356,15.873L476.513,16.176L477.798,16.428L478.954,16.428L480.11,16.629L481.267,16.83L482.552,16.68L483.708,16.479L484.864,16.024L486.02,15.621L487.305,15.269L488.461,15.016L489.617,14.865L490.773,14.765L492.059,14.613L493.215,14.513L494.371,14.361L495.526,14.16L496.812,13.959L497.968,13.656L499.124,13.404L500.28,13L501.565,12.649L502.722,12.295L503.878,12.145L505.034,11.993L506.318,11.842L507.475,11.74L508.631,11.842L509.787,12.043L511.072,12.346L512.229,12.598L513.386,13.202L514.542,13.656L515.826,13.959L516.983,14.412L518.139,14.714L519.295,14.967L520.579,15.016L521.736,15.016L522.893,15.066L524.049,15.066L525.334,14.915L527.646,14.513L528.802,14.513L530.087,14.361L531.243,13.656L532.399,13L533.556,12.295L534.841,11.488L535.997,10.783L537.153,10.229L538.31,9.725L539.594,9.171L540.75,8.918L541.906,8.617L543.062,8.264L544.348,7.91L547.816,6.551L549.102,5.996L550.257,5.393L551.413,4.736L552.569,4.082L553.854,3.627L555.011,3.072L556.167,2.469L557.323,1.914L558.608,1.31L559.764,0.755L560.92,0.251L562.076,-0.303L563.361,-0.555L564.518,-0.555L565.674,-0.606L566.831,-0.656L568.115,-0.707L569.272,-0.757L570.429,-0.757L571.585,-0.807L572.868,-0.857L574.025,-0.907L575.182,-0.959L576.338,-0.959L577.623,-1.008L578.779,-1.059" style="fill:none;fill-rule:nonzero;stroke:rgb(89,89,92);stroke-width:0.65px;"/>
        </g>
    </g>
</svg>
