<?xml version="1.0" encoding="UTF-8" standalone="no"?>
<!DOCTYPE svg PUBLIC "-//W3C//DTD SVG 1.1//EN" "http://www.w3.org/Graphics/SVG/1.1/DTD/svg11.dtd">
<svg width="100%" height="100%" viewBox="0 0 2921 1210" version="1.1" xmlns="http://www.w3.org/2000/svg" xmlns:xlink="http://www.w3.org/1999/xlink" xml:space="preserve" xmlns:serif="http://www.serif.com/" style="fill-rule:evenodd;clip-rule:evenodd;">
    <g id="depth-section" serif:id="depth section" transform="matrix(4.16667,0,0,4.16667,0,0)">
        <g transform="matrix(1,0,0,1,61.373,151.582)">
            <path d="M0,45.71L1.156,46.011L2.441,45.91L3.598,45.961L4.754,45.659L5.91,45.155L7.195,44.853L8.352,45.457L9.508,45.608L10.664,45.507L11.948,45.255L13.104,45.306L14.261,45.104L15.417,44.449L16.702,45.054L17.857,45.457L19.014,45.91L20.17,46.062L21.456,44.549L22.611,45.155L23.768,45.71L24.924,45.81L26.209,45.86L27.365,45.91L28.521,45.91L29.678,46.011L30.962,46.111L32.118,46.163L33.274,46.263L34.431,46.364L35.716,46.465L36.872,46.465L38.028,46.263L39.186,46.111L40.47,45.961L42.783,45.961L43.939,45.86L45.223,45.659L46.379,45.507L47.536,45.457L48.692,45.71L49.976,45.91L51.133,46.111L52.289,46.364L53.445,46.565L54.73,46.667L55.887,46.768L57.043,46.817L58.199,46.768L59.484,46.615L60.641,46.515L61.797,46.314L62.953,46.062L64.237,45.71L65.394,45.356L66.55,45.255L67.706,45.255L68.991,45.558L70.147,45.86L71.304,45.659L72.459,45.659L73.745,44.549L74.901,44.751L76.058,45.406L77.213,46.011L78.498,46.111L79.654,46.163L80.811,46.263L81.967,46.163L83.251,46.163L84.407,46.263L85.563,46.364L86.72,46.465L88.005,46.565L89.161,46.515L90.317,46.314L91.475,46.062L92.759,45.81L93.915,45.608L95.072,45.457L96.229,45.406L97.512,45.457L98.668,45.558L99.825,45.608L100.981,45.759L102.266,45.81L103.423,45.71L104.578,45.507L105.734,45.356L107.021,45.255L108.177,45.054L109.332,45.003L110.488,44.953L111.773,44.902L112.93,44.853L114.086,44.751L115.242,44.902L116.526,45.003L117.683,45.104L118.839,45.255L121.28,45.255L122.437,45.204L123.593,45.204L124.749,45.155L126.034,45.003L127.19,44.751L128.347,44.549L129.503,44.349L130.787,44.196L131.943,44.196L133.1,44.247L134.256,44.298L135.541,44.398L136.696,44.449L137.853,44.499L139.009,44.349L140.295,44.096L141.45,44.096L142.606,44.146L143.764,44.096L145.048,44.096L146.204,43.995L147.361,43.794L148.518,43.441L149.801,42.987L150.957,42.685L152.114,42.383L153.271,42.13L154.555,41.879L155.712,41.677L156.868,41.426L158.024,41.375L159.31,41.274L160.466,40.922L161.622,40.769L162.778,40.417L164.062,40.216L165.219,40.014L166.375,40.165L167.531,40.367L168.815,40.417L169.972,40.367L172.284,40.367L173.569,40.315L174.726,40.315L175.882,40.367L177.038,40.367L178.323,40.014L179.479,40.064L180.636,39.964L181.792,39.712L183.076,39.61L184.232,39.259L185.389,39.106L186.545,39.006L187.83,38.956L190.143,38.956L191.298,39.057L192.584,39.157L193.74,39.057L194.896,38.956L196.053,38.905L197.337,38.856L198.493,38.956L199.65,38.804L200.807,38.703L202.09,38.755L203.246,38.804L204.403,38.755L205.56,38.653L206.844,38.503L208.001,38.302L209.157,38.149L210.313,38.049L211.599,37.948L212.755,37.847L213.911,37.595L215.067,38.099L216.352,37.344L217.508,37.142L218.664,37.142L219.82,37.041L221.105,36.94L222.262,36.94L223.417,36.638L224.573,36.437L225.859,36.235L227.015,36.134L228.171,36.134L229.327,35.78L230.612,35.579L231.769,35.681L232.925,35.882L234.081,35.681L235.365,35.276L236.521,35.228L237.678,34.874L238.834,34.824L240.119,34.824L241.275,34.772L242.432,34.772L243.588,34.975L244.873,35.025L246.029,34.925L247.185,34.975L248.341,35.075L249.626,35.177L250.782,35.228L251.939,35.228L253.096,35.177L254.38,35.228L255.537,35.075L256.693,35.025L257.849,34.925L259.133,34.874L260.29,34.824L261.446,34.824L262.603,34.772L263.888,34.874L265.044,35.075L266.2,34.975L267.356,34.622L268.641,34.471L269.797,34.622L270.953,34.724L272.109,34.772L273.395,34.724L274.551,34.622L275.707,34.571L276.863,34.522L278.148,34.522L279.304,34.672L280.46,34.874L281.616,34.975L282.901,35.075L284.058,35.126L285.214,35.177L286.37,35.276L287.655,35.075L288.812,35.075L289.967,35.025L291.123,35.228L292.408,35.328L293.564,35.73L294.721,35.933L295.877,36.134L297.162,36.284L298.318,36.185L299.475,36.386L300.632,36.537L301.915,36.689L303.071,36.737L304.228,36.79L305.385,36.689L306.669,36.537L307.826,36.386L308.982,36.235L310.139,36.185L311.422,36.235L312.579,36.689L313.735,36.839L314.892,36.99L316.177,37.192L317.333,37.243L318.489,37.192L319.646,37.192L320.931,37.494L322.086,37.847L323.242,37.898L324.398,37.998L325.684,38.2L326.84,38.452L327.996,38.553L329.152,38.653L330.437,38.703L331.594,38.653L332.75,38.856L333.906,39.006L335.19,38.856L336.347,38.703L337.503,38.605L338.659,38.653L339.944,38.503L341.101,38.703L342.257,38.804L344.697,38.804L345.854,38.905L347.01,38.956L348.166,38.755L349.451,38.553L350.607,38.351L351.764,38.249L352.921,38.149L354.204,38.049L355.36,37.696L356.517,37.294L357.674,36.737L358.958,36.486L360.114,36.587L361.271,36.587L362.428,36.235L363.713,35.831L364.869,35.529L366.025,35.529L367.181,35.429L368.466,35.228L369.622,34.824L370.778,34.471L371.935,34.319L373.22,34.218L374.376,34.169L375.532,34.118L376.687,34.271L377.973,34.522L379.129,34.622L380.285,34.724L381.441,34.772L382.727,34.824L383.883,34.824L385.039,34.772L386.195,34.622L387.479,34.471L388.636,34.319L389.792,34.169L390.948,34.018L392.233,33.866L393.39,33.664L394.546,33.514L395.702,33.363L396.987,33.21L398.144,33.11L399.299,32.959L400.455,33.161L401.74,33.161L402.896,33.06L404.053,32.909L405.21,32.757L406.494,32.606L407.65,32.355L408.806,32.052L409.963,31.951L411.247,31.851L412.403,31.698L413.561,31.599L414.717,31.447L416.001,31.245L417.158,31.044L418.314,30.843L419.471,30.641L420.755,30.439L421.911,30.288L423.067,30.187L424.224,30.087L425.509,30.036L426.665,29.936L427.821,29.835L428.978,29.784L430.263,29.683L431.418,29.633L433.73,29.331L435.016,29.13L436.172,28.827L438.484,28.121L439.77,27.769L440.925,27.416L442.081,27.064L443.237,26.761L444.522,26.609L445.679,26.509L446.835,26.407L447.991,26.155L449.276,25.451L450.433,24.796L451.589,24.14L452.745,23.586L454.029,23.132L455.186,22.831L456.342,22.528L457.499,22.275L458.783,22.024L459.939,21.823L461.097,21.419L462.253,20.915L463.536,20.31L464.692,20.159L465.85,20.36L467.006,20.462L468.29,20.462L469.447,20.31L470.604,20.31L471.76,20.612L473.044,20.563L474.2,20.612L475.356,20.411L476.513,20.713L477.798,20.966L478.954,21.017L480.11,21.47L481.267,21.872L482.552,22.275L483.708,22.376L484.864,22.275L486.02,22.124L487.305,22.074L488.461,22.024L489.617,21.823L490.773,21.57L492.059,21.521L493.215,21.671L494.371,21.773L495.526,21.823L496.812,21.872L497.968,21.823L499.124,21.722L500.28,21.116L501.565,20.36L502.722,20.26L503.878,20.059L505.034,19.605L506.318,19.302L507.475,18.748L508.631,18.698L509.787,18.798L511.072,18.899L512.229,19.403L513.386,20.209L514.542,20.915L515.826,21.47L516.983,21.872L518.139,22.175L519.295,22.376L520.579,22.325L522.893,21.823L524.049,21.57L525.334,21.317L526.49,21.218L527.646,21.065L528.802,20.814L530.087,20.209L531.243,19.454L532.399,18.648L533.556,17.841L534.841,16.833L535.997,15.977L537.153,15.221L538.31,14.867L539.594,14.465L541.906,13.759L543.062,13.407L544.348,13.003L545.504,12.499L546.66,11.593L547.816,10.735L549.102,9.88L550.257,9.073L551.413,8.216L552.569,7.409L553.854,6.653L555.011,5.897L556.167,5.142L557.323,4.386L558.608,3.63L559.764,2.925L560.92,2.27L562.076,1.564L563.361,0.909L564.518,0.304L565.674,-0.301L566.831,-0.704L568.115,-0.755L569.272,-0.805L570.429,-0.805L571.585,-0.854L572.868,-0.905L574.025,-0.955L575.182,-1.007L576.338,-1.007L577.623,-1.056L578.779,-1.107" style="fill:none;fill-rule:nonzero;stroke:rgb(89,89,92);stroke-width:0.65px;"/>
        </g>
        <g transform="matrix(1,0,0,1,61.373,151.535)">
            <path d="M0,44.295L1.156,44.446L2.441,44.193L3.598,43.842L4.754,43.74L5.91,43.539L7.195,43.287L8.352,43.085L9.508,42.984L13.104,42.984L14.261,43.035L15.417,43.085L16.702,43.287L17.857,43.439L19.014,43.59L20.17,43.691L21.456,43.641L22.611,43.993L23.768,44.346L24.924,44.397L26.209,44.446L27.365,44.497L28.521,44.547L29.678,44.649L30.962,44.75L32.118,44.799L33.274,44.85L34.431,44.9L35.716,44.95L38.028,44.95L39.186,44.9L40.47,44.85L41.626,44.75L42.783,44.649L43.939,44.547L45.223,44.446L46.379,44.346L47.536,44.346L48.692,44.497L49.976,44.697L51.133,45.001L52.289,45.203L53.445,45.303L54.73,45.252L55.887,45.151L57.043,45.203L58.199,45.252L59.484,45.252L60.641,45.203L61.797,44.95L62.953,44.75L64.237,44.547L65.394,44.346L66.55,44.093L67.706,43.993L68.991,43.842L70.147,44.043L71.304,44.093L72.459,43.791L73.745,43.489L74.901,43.842L76.058,44.244L77.213,44.799L78.498,45.051L79.654,45.151L80.811,45.252L84.407,45.252L85.563,45.303L86.72,45.354L88.005,45.354L89.161,45.303L90.317,45.151L91.475,45.001L92.759,44.799L93.915,44.649L95.072,44.547L96.229,44.397L97.512,44.446L98.668,44.497L99.825,44.446L100.981,44.397L102.266,44.295L103.423,44.244L104.578,44.144L105.734,44.093L107.021,44.043L108.177,43.942L110.488,43.942L111.773,43.993L112.93,43.993L114.086,43.942L115.242,44.093L116.526,44.193L117.683,44.295L118.839,44.397L119.995,44.446L121.28,44.497L122.437,44.547L123.593,44.497L124.749,44.397L126.034,44.244L127.19,44.043L128.347,43.842L129.503,43.641L130.787,43.539L131.943,43.539L133.1,43.641L134.256,43.691L135.541,43.74L136.696,43.791L137.853,43.842L139.009,43.74L140.295,43.539L141.45,43.539L142.606,43.59L143.764,43.489L145.048,43.338L146.204,43.137L147.361,42.883L148.518,42.582L149.801,42.33L150.957,42.077L152.114,41.826L153.271,41.574L154.555,41.373L155.712,41.172L156.868,40.918L158.024,40.666L159.31,40.363L160.466,40.264L161.622,40.162L162.778,39.811L164.062,39.658L165.219,39.658L166.375,39.608L169.972,39.608L171.128,39.658L172.284,39.658L173.569,39.608L174.726,39.658L175.882,39.709L177.038,39.658L178.323,39.358L179.479,39.205L180.636,39.054L181.792,38.852L183.076,38.803L184.232,38.551L185.389,38.5L186.545,38.399L187.83,38.35L188.986,38.399L190.143,38.45L191.298,38.5L192.584,38.5L193.74,38.399L194.896,38.248L196.053,38.197L197.337,38.248L198.493,38.297L200.807,38.097L202.09,38.248L203.246,38.248L204.403,38.147L205.56,37.996L206.844,37.895L208.001,37.643L209.157,37.392L210.313,37.342L211.599,37.342L212.755,37.291L213.911,36.988L215.067,37.442L216.352,36.785L217.508,36.635L218.664,36.635L219.82,36.484L221.105,36.434L222.262,36.283L223.417,35.93L224.573,35.777L225.859,35.678L227.015,35.627L228.171,35.577L229.327,35.275L230.612,35.023L231.769,35.174L232.925,35.376L234.081,35.174L235.365,34.82L236.521,34.67L237.678,34.367L238.834,34.318L241.275,34.318L242.432,34.266L243.588,34.469L244.873,34.367L246.029,34.166L247.185,34.166L248.341,34.217L249.626,34.318L250.782,34.367L251.939,34.619L253.096,34.67L254.38,34.619L255.537,34.419L256.693,34.318L257.849,34.318L259.133,34.266L260.29,34.217L261.446,34.166L262.603,34.166L263.888,34.367L265.044,34.318L266.2,34.115L267.356,33.965L268.641,33.863L269.797,34.015L270.953,34.166L272.109,34.217L273.395,34.217L274.551,34.115L275.707,34.015L276.863,33.863L278.148,33.764L279.304,33.863L280.46,34.015L281.616,34.266L282.901,34.569L284.058,34.67L285.214,34.772L286.37,34.872L287.655,34.619L288.812,34.469L289.967,34.015L291.123,34.166L292.408,34.266L293.564,34.619L294.721,34.72L295.877,34.82L297.162,35.073L298.318,35.073L299.475,35.275L300.632,35.426L301.915,35.477L303.071,35.376L304.228,35.275L305.385,35.225L306.669,35.174L307.826,35.073L308.982,34.922L310.139,34.772L311.422,34.67L312.579,34.82L313.735,34.973L314.892,35.073L316.177,35.073L318.489,34.973L319.646,34.973L320.931,35.174L322.086,35.275L323.242,35.426L324.398,35.477L325.684,35.526L329.152,35.526L330.437,35.577L331.594,35.526L333.906,35.526L335.19,35.477L336.347,35.376L337.503,35.225L338.659,35.023L339.944,34.772L341.101,34.72L342.257,34.72L343.413,34.619L344.697,34.469L345.854,34.367L347.01,34.217L348.166,34.066L349.451,33.863L350.607,33.712L351.764,33.511L352.921,33.209L354.204,32.805L355.36,32.252L356.517,31.545L357.674,30.891L358.958,30.336L360.114,29.781L361.271,29.279L362.428,28.673L363.713,28.119L364.869,27.514L366.025,27.363L367.181,27.565L368.466,27.262L369.622,26.91L370.778,26.809L371.935,26.91L373.22,26.959L374.376,26.91L375.532,26.959L376.687,27.061L377.973,27.213L379.129,27.363L380.285,27.464L385.039,27.464L386.195,27.363L387.479,27.161L388.636,27.011L389.792,26.91L390.948,26.758L392.233,26.657L393.39,26.557L394.546,26.455L395.702,26.356L396.987,26.305L398.144,26.203L399.299,26.153L400.455,26.356L401.74,26.406L402.896,26.104L404.053,26.003L405.21,25.952L406.494,25.852L407.65,25.549L408.806,25.399L409.963,25.297L411.247,25.195L412.403,25.045L413.561,24.944L414.717,24.844L416.001,24.742L417.158,24.642L418.314,24.592L419.471,24.541L420.755,24.44L421.911,24.389L423.067,24.289L424.224,24.238L425.509,24.138L426.665,24.088L427.821,24.037L428.978,23.986L431.418,23.986L432.574,23.836L433.73,23.634L435.016,23.381L436.172,23.18L437.328,22.928L438.484,22.727L439.77,22.475L440.925,22.223L442.081,21.971L443.237,21.82L444.522,21.668L445.679,21.618L446.835,21.518L447.991,21.416L449.276,21.164L450.433,20.51L451.589,19.854L452.745,19.199L454.029,18.947L455.186,18.645L456.342,18.393L457.499,18.091L458.783,17.838L459.939,17.536L461.097,17.133L462.253,16.78L463.536,16.428L464.692,16.125L465.85,16.074L467.006,16.074L468.29,16.024L469.447,16.024L470.604,15.975L471.76,15.924L474.2,15.924L475.356,15.873L476.513,16.176L477.798,16.428L478.954,16.428L480.11,16.629L481.267,16.83L482.552,16.68L483.708,16.479L484.864,16.024L486.02,15.621L487.305,15.269L488.461,15.016L489.617,14.865L490.773,14.765L492.059,14.613L493.215,14.513L494.371,14.361L495.526,14.16L496.812,13.959L497.968,13.656L499.124,13.404L500.28,13L501.565,12.649L502.722,12.295L503.878,12.145L505.034,11.993L506.318,11.842L507.475,11.74L508.631,11.842L509.787,12.043L511.072,12.346L512.229,12.598L513.386,13.202L514.542,13.656L515.826,13.959L516.983,14.412L518.139,14.714L519.295,14.967L520.579,15.016L521.736,15.016L522.893,15.066L524.049,15.066L525.334,14.915L527.646,14.513L528.802,14.513L530.087,14.361L531.243,13.656L532.399,13L533.556,12.295L534.841,11.488L535.997,10.783L537.153,10.229L538.31,9.725L539.594,9.171L540.75,8.918L541.906,8.617L543.062,8.264L544.348,7.91L547.816,6.551L549.102,5.996L550.257,5.393L551.413,4.736L552.569,4.082L553.854,3.627L555.011,3.072L556.167,2.469L557.323,1.914L558.608,1.31L559.764,0.755L560.92,0.251L562.076,-0.303L563.361,-0.555L564.518,-0.555L565.674,-0.606L566.831,-0.656L568.115,-0.707L569.272,-0.757L570.429,-0.757L571.585,-0.807L572.868,-0.857L574.025,-0.907L575.182,-0.959L576.338,-0.959L577.623,-1.008L578.779,-1.059" style="fill:none;fill-rule:nonzero;stroke:rgb(89,89,92);stroke-width:0.65px;"/>
        </g>
        <g transform="matrix(1,0,0,1,61.373,151.886)">
            <path d="M0,41.022L1.156,40.92L2.441,40.821L3.598,40.719L4.754,40.668L5.91,40.619L7.195,40.567L8.352,40.518L9.508,40.465L11.948,40.465L13.104,40.368L14.261,40.315L15.417,40.214L16.702,40.417L17.857,40.567L19.014,40.769L20.17,40.719L21.456,40.518L22.611,40.668L23.768,40.87L24.924,41.022L26.209,41.172L27.365,41.323L28.521,41.424L29.678,41.626L30.962,41.726L32.118,41.726L33.274,41.877L34.431,42.08L35.716,42.231L36.872,42.281L38.028,42.231L39.186,42.13L40.47,41.979L41.626,41.877L42.783,41.726L43.939,41.676L45.223,41.626L46.379,41.626L47.536,41.676L48.692,41.877L49.976,42.03L51.133,42.231L52.289,42.381L53.445,42.433L54.73,42.433L55.887,42.381L58.199,42.381L59.484,42.333L60.641,42.281L61.797,42.231L62.953,42.13L64.237,41.827L65.394,41.475L66.55,41.123L67.706,41.022L68.991,41.022L70.147,41.072L71.304,41.022L72.459,41.172L73.745,41.223L74.901,41.223L76.058,41.323L77.213,41.424L78.498,41.576L79.654,41.726L80.811,41.877L81.967,41.877L83.251,41.928L85.563,42.03L86.72,42.03L88.005,41.979L89.161,41.877L90.317,41.777L91.475,41.676L92.759,41.526L93.915,41.424L95.072,41.374L96.229,41.223L97.512,41.323L98.668,41.424L99.825,41.424L100.981,41.475L102.266,41.475L103.423,41.424L104.578,41.374L107.021,41.374L108.177,41.323L109.332,41.323L110.488,41.374L111.773,41.424L112.93,41.374L114.086,41.273L115.242,41.424L116.526,41.424L117.683,41.475L118.839,41.475L119.995,41.576L121.28,41.576L122.437,41.526L124.749,41.424L126.034,41.273L127.19,41.123L128.347,40.971L129.503,40.87L130.787,40.821L131.943,40.92L133.1,41.022L134.256,40.971L135.541,41.172L136.696,41.323L137.853,41.475L139.009,41.475L140.295,41.374L141.45,41.424L142.606,41.526L143.764,41.526L145.048,41.475L146.204,41.374L147.361,41.123L148.518,40.821L149.801,40.619L150.957,40.417L152.114,40.266L153.271,40.064L154.555,39.862L155.712,39.61L156.868,39.358L158.024,39.157L159.31,38.956L160.466,38.703L161.622,38.552L162.778,38.35L164.062,38.2L165.219,38.149L166.375,38.099L167.531,38.2L168.815,38.149L169.972,38.047L171.128,37.946L172.284,37.846L173.569,37.695L174.726,37.645L175.882,37.594L177.038,37.444L178.323,37.041L179.479,36.94L180.636,36.94L181.792,36.838L183.076,37.041L184.232,36.94L185.389,36.94L186.545,36.838L187.83,36.788L188.986,36.687L190.143,36.637L191.298,36.687L192.584,36.687L193.74,36.788L194.896,36.788L196.053,36.738L197.337,36.738L198.493,36.587L199.65,36.487L200.807,36.536L203.246,36.536L204.403,36.434L205.56,36.335L206.844,36.183L208.001,35.981L210.313,35.579L211.599,35.426L212.755,35.327L213.911,35.025L215.067,35.579L216.352,35.025L217.508,34.874L218.664,34.924L219.82,34.772L221.105,34.722L222.262,34.622L223.417,34.268L224.573,34.068L225.859,34.068L227.015,34.118L229.327,34.118L230.612,33.915L231.769,33.866L234.081,33.764L235.365,33.512L236.521,33.461L237.678,33.311L238.834,33.26L240.119,33.311L241.275,33.361L242.432,33.361L243.588,33.26L244.873,33.311L246.029,33.26L248.341,33.16L249.626,33.16L250.782,33.21L251.939,33.16L253.096,33.008L254.38,33.21L255.537,33.311L256.693,33.21L257.849,33.11L259.133,33.008L260.29,32.959L261.446,32.858L262.603,32.807L263.888,32.756L265.044,32.656L266.2,32.606L267.356,32.555L268.641,32.707L269.797,32.807L270.953,32.959L272.109,32.807L273.395,32.807L274.551,32.756L275.707,32.656L276.863,32.606L278.148,32.555L279.304,32.606L280.46,32.606L281.616,32.555L285.214,32.555L286.37,32.656L287.655,32.454L289.967,32.454L291.123,32.555L292.408,32.606L293.564,33.06L294.721,33.11L295.877,33.11L297.162,33.16L298.318,33.21L299.475,33.26L300.632,33.311L301.915,33.361L303.071,33.413L304.228,33.461L305.385,33.461L306.669,33.361L307.826,33.21L308.982,33.06L310.139,32.907L311.422,32.756L312.579,32.907L313.735,32.959L314.892,33.008L316.177,33.008L317.333,32.959L319.646,32.959L320.931,32.907L322.086,32.858L323.242,32.858L324.398,32.807L325.684,32.807L326.84,32.756L327.996,32.756L329.152,32.707L330.437,32.656L331.594,32.606L332.75,32.555L333.906,32.454L335.19,32.354L336.347,32.202L337.503,32.102L338.659,32.001L339.944,31.901L341.101,31.749L343.413,31.547L344.697,31.395L345.854,31.245L347.01,31.144L348.166,30.942L349.451,30.792L350.607,30.64L351.764,30.438L352.921,30.237L354.204,30.036L355.36,29.733L356.517,29.379L357.674,28.977L358.958,28.524L360.114,28.02L361.271,27.567L362.428,27.012L363.713,26.559L364.869,26.206L366.025,26.055L367.181,25.802L368.466,25.399L369.622,24.745L370.778,24.291L371.935,23.989L373.22,23.686L374.376,23.333L375.532,22.981L376.687,22.779L377.973,22.678L379.129,22.528L380.285,22.325L381.441,22.124L382.727,22.022L383.883,21.921L385.039,21.821L386.195,21.368L387.479,20.915L388.636,20.309L389.792,19.805L390.948,19.251L392.233,18.243L393.39,18.092L394.546,17.639L395.702,17.538L396.987,17.236L398.144,17.185L399.299,17.085L400.455,17.135L401.74,17.135L402.896,16.882L404.053,16.833L405.21,16.933L406.494,16.782L407.65,16.479L408.806,16.429L409.963,16.429L411.247,16.378L412.403,16.329L413.561,16.278L414.717,16.429L416.001,15.975L417.158,15.925L418.314,15.875L419.471,15.875L420.755,15.825L421.911,15.774L423.067,15.774L424.224,15.723L425.509,15.673L426.665,15.624L427.821,15.573L428.978,15.522L430.263,15.471L431.418,15.421L433.73,15.321L435.016,15.27L436.172,15.169L437.328,15.12L438.484,15.069L439.77,15.018L440.925,14.918L442.081,14.867L443.237,14.817L444.522,14.715L445.679,14.665L447.991,14.463L449.276,14.162L450.433,13.809L451.589,13.406L452.745,13.053L454.029,12.7L455.186,12.397L456.342,12.096L457.499,11.893L458.783,11.642L459.939,11.339L461.097,11.038L462.253,10.583L463.536,10.231L464.692,10.03L465.85,10.03L467.006,10.079L468.29,10.03L470.604,9.928L471.76,9.877L473.044,9.828L474.2,9.828L475.356,9.778L477.798,9.778L478.954,9.727L480.11,9.778L481.267,9.877L482.552,9.727L483.708,9.626L484.864,9.374L486.02,9.123L487.305,8.87L488.461,8.82L489.617,8.668L490.773,8.466L492.059,8.366L493.215,8.266L494.371,8.215L495.526,8.165L496.812,8.063L497.968,7.913L499.124,7.762L500.28,7.51L501.565,7.157L502.722,7.005L503.878,6.956L505.034,6.854L506.318,6.653L507.475,6.401L509.787,6.501L511.072,6.653L512.229,6.804L513.386,7.157L514.542,7.559L515.826,7.812L516.983,8.063L518.139,8.266L519.295,8.366L520.579,8.366L522.893,8.266L524.049,8.215L525.334,8.165L526.49,8.063L528.802,7.661L530.087,7.409L531.243,7.057L532.399,6.653L533.556,6.149L534.841,5.696L535.997,5.241L537.153,4.838L538.31,4.486L539.594,4.235L540.75,3.982L541.906,3.781L543.062,3.579L544.348,3.327L545.504,3.075L546.66,2.773L547.816,2.52L549.102,2.168L550.257,1.715L551.413,1.161L552.569,0.606L553.854,0.102L555.011,-0.351L556.167,-0.654L557.323,-0.705L558.608,-0.705L559.764,-0.755L562.076,-0.857L563.361,-0.906L564.518,-0.906L565.674,-0.957L566.831,-1.007L568.115,-1.058L569.272,-1.108L570.429,-1.108L571.585,-1.158L572.868,-1.208L574.025,-1.258L575.182,-1.31L576.338,-1.31L577.623,-1.359L578.779,-1.411" style="fill:none;fill-rule:nonzero;stroke:rgb(89,89,92);stroke-width:0.65px;"/>
        </g>
        <g transform="matrix(1,0,0,1,61.373,150.676)">
            <path d="M0,28.372L1.156,28.474L2.441,28.523L3.598,28.474L4.754,28.474L5.91,28.573L8.352,28.573L9.508,28.523L10.664,28.474L11.948,28.423L13.104,28.372L16.702,28.372L17.857,28.423L19.014,28.423L20.17,28.372L21.456,28.372L22.611,28.474L23.768,28.523L24.924,28.222L28.521,28.222L29.678,28.27L30.962,28.27L32.118,28.222L33.274,28.222L34.431,28.27L35.716,28.322L36.872,28.372L38.028,28.423L45.223,28.423L46.379,28.474L53.445,28.474L54.73,28.423L55.887,28.322L58.199,28.322L59.484,28.27L60.641,28.12L61.797,28.071L67.706,28.071L68.991,28.019L70.147,28.019L71.304,27.97L72.459,28.019L73.745,27.97L74.901,27.768L76.058,27.667L77.213,27.667L78.498,27.817L79.654,27.869L80.811,27.817L81.967,27.97L83.251,28.071L84.407,28.171L85.563,28.322L86.72,28.423L88.005,28.523L89.161,28.523L90.317,28.474L91.475,28.372L92.759,28.27L93.915,28.171L95.072,28.071L96.229,27.97L97.512,27.869L98.668,27.768L99.825,27.718L100.981,27.667L102.266,27.565L103.423,27.516L105.734,27.516L107.021,27.466L108.177,27.415L112.93,27.415L114.086,27.364L115.242,27.466L116.526,27.516L117.683,27.565L119.995,27.667L121.28,27.718L122.437,27.768L126.034,27.768L127.19,27.718L128.347,27.667L129.503,27.667L130.787,27.616L131.943,27.667L133.1,27.718L134.256,27.667L135.541,27.616L136.696,27.565L137.853,27.516L139.009,27.364L140.295,27.163L142.606,27.163L143.764,27.112L145.048,27.061L146.204,27.012L147.361,26.962L148.518,26.861L158.024,26.861L159.31,26.81L160.466,26.71L161.622,26.558L162.778,26.458L164.062,26.458L165.219,26.407L166.375,26.257L167.531,26.205L168.815,26.104L169.972,25.903L171.128,25.751L172.284,25.55L173.569,25.5L174.726,25.45L175.882,25.399L177.038,25.247L178.323,24.996L179.479,24.946L181.792,24.946L183.076,24.895L184.232,24.795L185.389,24.795L186.545,24.745L187.83,24.745L188.986,24.694L190.143,24.593L191.298,24.492L192.584,24.392L193.74,24.291L194.896,24.239L196.053,24.139L197.337,24.139L198.493,24.089L199.65,24.089L200.807,24.038L205.56,24.038L206.844,23.938L208.001,23.838L209.157,23.737L210.313,23.737L211.599,23.585L212.755,23.484L213.911,23.282L215.067,23.585L216.352,23.231L217.508,23.182L218.664,23.182L219.82,23.131L221.105,23.03L222.262,22.98L224.573,22.98L225.859,23.03L227.015,23.131L228.171,23.182L229.327,23.282L234.081,23.282L235.365,23.131L237.678,23.131L238.834,23.182L241.275,23.182L242.432,23.231L243.588,23.333L244.873,23.384L246.029,23.282L247.185,23.282L248.341,23.333L249.626,23.384L251.939,23.384L253.096,23.333L255.537,23.333L256.693,23.282L257.849,23.131L259.133,23.03L260.29,23.03L261.446,23.081L262.603,23.131L263.888,23.182L268.641,23.182L269.797,23.131L270.953,23.081L273.395,23.081L274.551,23.03L275.707,22.98L276.863,22.88L278.148,22.829L280.46,22.829L281.616,22.778L282.901,22.729L284.058,22.679L285.214,22.577L286.37,22.577L287.655,22.325L288.812,22.325L289.967,22.274L291.123,22.174L292.408,22.073L293.564,22.174L294.721,22.174L295.877,22.073L297.162,21.972L299.475,21.972L300.632,21.923L303.071,21.923L304.228,21.872L305.385,21.872L306.669,21.821L307.826,21.771L308.982,21.72L310.139,21.671L311.422,21.518L312.579,21.469L313.735,21.469L314.892,21.419L316.177,21.368L317.333,21.317L318.489,21.368L319.646,21.469L320.931,21.267L322.086,21.216L326.84,21.216L327.996,21.115L329.152,21.015L330.437,20.915L331.594,20.813L332.75,20.612L333.906,20.561L335.19,20.511L336.347,20.461L337.503,20.309L338.659,20.058L339.944,19.806L341.101,19.503L342.257,19.352L343.413,19.251L344.697,19.2L345.854,19.1L347.01,19.05L348.166,18.949L349.451,18.696L350.607,18.495L351.764,18.294L352.921,18.042L354.204,17.739L355.36,17.588L356.517,17.487L357.674,17.538L358.958,17.538L360.114,17.184L361.271,16.379L362.428,16.681L363.713,16.782L364.869,15.522L366.025,15.22L367.181,15.472L368.466,15.472L369.622,15.825L370.778,14.968L371.935,14.515L373.22,14.161L374.376,13.858L375.532,13.657L376.687,13.606L377.973,13.102L379.129,12.751L380.285,12.549L381.441,12.196L382.727,11.893L383.883,11.642L385.039,11.188L386.195,10.835L387.479,10.28L388.636,9.374L389.792,8.267L390.948,7.358L392.233,5.847L393.39,5.544L394.546,5.241L395.702,5.241L396.987,5.191L398.144,5.091L399.299,5.091L400.455,5.141L401.74,5.04L402.896,4.99L404.053,4.99L405.21,4.94L406.494,4.839L408.806,4.839L409.963,4.737L411.247,4.587L412.403,4.536L413.561,4.536L414.717,4.485L417.158,4.485L418.314,4.384L419.471,4.335L421.911,4.335L423.067,4.284L424.224,4.284L425.509,4.233L427.821,4.233L428.978,4.184L430.263,4.184L431.418,4.133L432.574,4.133L433.73,4.032L435.016,3.982L436.172,3.882L437.328,3.831L438.484,3.729L439.77,3.68L440.925,3.579L443.237,3.477L444.522,3.427L445.679,3.378L447.991,3.276L449.276,3.226L450.433,3.125L451.589,3.024L452.745,2.874L454.029,2.772L455.186,2.672L456.342,2.621L457.499,2.571L458.783,2.571L459.939,2.471L461.097,2.37L462.253,2.268L463.536,2.168L464.692,2.117L465.85,2.117L467.006,2.067L477.798,2.067L478.954,2.017L480.11,1.917L481.267,1.815L482.552,1.765L483.708,1.714L484.864,1.664L486.02,1.613L487.305,1.563L488.461,1.513L490.773,1.411L509.787,1.411L511.072,1.36L514.542,1.36L515.826,1.311L519.295,1.311L520.579,1.261L524.049,1.261L525.334,1.21L528.802,1.21L530.087,1.16L532.399,1.16L533.556,1.109L537.153,1.109L538.31,1.06L541.906,1.06L543.062,1.009L544.348,1.009L545.504,0.958L546.66,0.958L547.816,0.909L549.102,0.808L550.257,0.757L551.413,0.706L552.569,0.706L553.854,0.656L555.011,0.605L556.167,0.556L557.323,0.505L558.608,0.505L562.076,0.352L563.361,0.304L564.518,0.304L565.674,0.252L566.831,0.202L568.115,0.151L569.272,0.101L570.429,0.101L571.585,0.052L572.868,0.001L574.025,-0.049L575.182,-0.101L576.338,-0.101L577.623,-0.149L578.779,-0.201" style="fill:none;fill-rule:nonzero;stroke:rgb(89,89,92);stroke-width:0.65px;"/>
        </g>
        <g transform="matrix(1,0,0,1,61.373,151.231)">
            <path d="M0,26.104L1.156,26.206L2.441,26.306L3.598,26.356L4.754,26.306L5.91,26.206L7.195,26.306L8.352,26.407L9.508,26.457L10.664,26.407L11.948,26.557L13.104,26.506L14.261,26.457L15.417,26.457L16.702,26.506L17.857,26.506L19.014,26.557L20.17,26.557L21.456,26.758L22.611,26.86L23.768,26.709L24.924,26.457L26.209,26.407L27.365,26.557L28.521,26.557L29.678,26.608L30.962,26.659L32.118,26.659L33.274,26.709L34.431,26.758L35.716,26.758L36.872,26.809L38.028,26.709L39.186,26.659L40.47,26.659L41.626,26.709L42.783,26.758L43.939,26.758L45.223,26.809L48.692,26.809L49.976,26.758L51.133,26.709L52.289,26.709L53.445,26.659L54.73,26.608L55.887,26.557L57.043,26.457L58.199,26.356L59.484,26.306L60.641,26.306L61.797,26.356L62.953,26.407L64.237,26.407L65.394,26.306L66.55,26.255L67.706,26.356L68.991,26.407L70.147,26.457L71.304,26.255L72.459,26.155L73.745,26.053L74.901,25.903L76.058,25.953L77.213,26.002L78.498,26.104L79.654,26.206L80.811,26.306L81.967,26.306L83.251,26.356L84.407,26.407L85.563,26.407L86.72,26.506L88.005,26.608L89.161,26.608L90.317,26.506L91.475,26.356L92.759,26.206L93.915,26.104L95.072,26.053L96.229,25.903L97.512,25.75L98.668,25.399L99.825,24.945L100.981,24.793L102.266,24.643L103.423,24.491L104.578,24.29L105.734,24.139L107.021,24.088L108.177,24.088L109.332,24.139L110.488,24.19L111.773,24.24L112.93,24.19L114.086,24.24L115.242,24.19L116.526,24.24L117.683,24.29L118.839,24.34L119.995,24.391L121.28,24.391L122.437,24.139L127.19,24.139L128.347,23.937L129.503,23.937L130.787,23.736L131.943,23.786L133.1,23.887L135.541,23.887L136.696,23.836L137.853,23.635L139.009,23.534L140.295,23.736L141.45,23.635L142.606,23.635L143.764,23.736L145.048,23.786L146.204,23.736L147.361,23.684L148.518,23.635L149.801,23.583L152.114,23.583L153.271,23.534L154.555,23.483L155.712,23.383L156.868,23.333L158.024,23.231L159.31,23.13L160.466,23.03L161.622,22.929L162.778,22.879L164.062,22.929L165.219,22.929L166.375,22.879L167.531,22.778L168.815,22.676L169.972,22.475L171.128,22.325L172.284,22.174L173.569,22.022L174.726,21.921L175.882,21.821L177.038,21.719L178.323,21.518L180.636,21.518L181.792,21.417L183.076,21.368L184.232,21.317L185.389,21.317L186.545,21.266L187.83,21.216L188.986,21.116L190.143,21.014L191.298,21.014L192.584,20.963L193.74,20.914L194.896,20.813L196.053,20.711L197.337,20.661L198.493,20.661L199.65,20.611L200.807,20.56L202.09,20.56L203.246,20.51L204.403,20.41L205.56,20.36L206.844,20.258L208.001,20.108L209.157,19.956L210.313,19.856L211.599,19.754L212.755,19.653L213.911,19.452L215.067,19.603L216.352,19.402L217.508,19.35L218.664,19.35L219.82,19.25L221.105,19.149L222.262,19.099L223.417,18.999L224.573,18.897L225.859,18.848L227.015,18.797L228.171,18.747L230.612,18.747L231.769,18.797L234.081,18.797L235.365,18.696L236.521,18.747L237.678,18.747L238.834,18.797L240.119,18.797L241.275,18.848L242.432,18.848L243.588,18.948L244.873,18.948L246.029,18.897L248.341,18.999L249.626,19.049L251.939,19.049L253.096,18.999L254.38,19.049L256.693,19.049L257.849,19.099L259.133,19.099L260.29,19.149L261.446,19.2L266.2,19.2L267.356,19.25L268.641,19.301L269.797,19.301L270.953,19.402L272.109,19.301L273.395,19.25L274.551,19.2L275.707,19.149L276.863,19.049L278.148,18.848L279.304,18.797L280.46,18.747L281.616,18.696L282.901,18.645L284.058,18.645L285.214,18.595L286.37,18.544L287.655,18.394L288.812,18.394L289.967,18.344L291.123,18.293L292.408,18.243L293.564,18.344L294.721,18.293L295.877,18.192L297.162,18.041L298.318,17.94L299.475,17.991L300.632,18.041L301.915,17.94L303.071,17.839L304.228,17.739L305.385,17.637L306.669,17.537L307.826,17.436L308.982,17.335L310.139,17.184L311.422,17.083L312.579,16.983L313.735,16.832L314.892,16.731L316.177,16.629L317.333,16.529L318.489,16.479L319.646,16.479L320.931,16.377L322.086,16.278L323.242,16.176L324.398,16.025L325.684,15.875L326.84,15.774L327.996,15.672L329.152,15.572L330.437,15.37L331.594,15.27L332.75,15.168L333.906,14.916L335.19,14.866L336.347,14.614L337.503,14.363L338.659,14.06L339.944,13.808L341.101,13.606L342.257,13.303L343.413,13.051L344.697,12.7L345.854,12.196L347.01,11.944L348.166,11.743L349.451,11.54L350.607,11.086L351.764,10.834L352.921,10.432L354.204,10.231L355.36,9.777L356.517,9.323L357.674,8.768L358.958,8.264L360.114,7.811L362.428,6.905L363.713,6.5L364.869,6.097L366.025,5.795L367.181,5.393L368.466,5.14L369.622,4.989L370.778,4.889L371.935,4.737L373.22,4.636L374.376,4.536L375.532,4.385L376.687,4.334L377.973,4.284L380.285,4.182L381.441,4.132L382.727,4.132L385.039,4.032L386.195,3.981L387.479,3.93L388.636,3.881L389.792,3.881L390.948,3.829L392.233,3.78L393.39,3.78L394.546,3.729L401.74,3.729L402.896,3.678L405.21,3.678L406.494,3.628L407.65,3.628L408.806,3.578L409.963,3.578L411.247,3.477L413.561,3.477L414.717,3.427L417.158,3.427L418.314,3.327L419.471,3.327L420.755,3.276L421.911,3.276L423.067,3.225L425.509,3.225L426.665,3.174L427.821,3.174L428.978,3.125L430.263,3.125L431.418,3.074L432.574,3.024L433.73,2.973L435.016,2.922L436.172,2.823L437.328,2.772L438.484,2.67L439.77,2.621L440.925,2.57L442.081,2.469L443.237,2.419L444.522,2.319L445.679,2.217L446.835,2.167L447.991,2.066L449.276,2.016L450.433,1.916L451.589,1.864L452.745,1.713L454.029,1.613L455.186,1.562L456.342,1.512L457.499,1.461L458.783,1.362L459.939,1.309L461.097,1.26L464.692,1.26L465.85,1.209L478.954,1.209L480.11,1.26L481.267,1.26L482.552,1.209L484.864,1.109L486.02,1.058L487.305,1.008L488.461,0.958L490.773,0.856L509.787,0.856L511.072,0.805L514.542,0.805L515.826,0.756L519.295,0.756L520.579,0.706L524.049,0.706L525.334,0.655L528.802,0.655L530.087,0.605L532.399,0.605L533.556,0.554L537.153,0.554L538.31,0.504L541.906,0.504L543.062,0.454L544.348,0.454L545.504,0.403L546.66,0.403L547.816,0.354L549.102,0.252L550.257,0.202L551.413,0.151L552.569,0.151L553.854,0.101L555.011,0.05L557.323,-0.05L558.608,-0.05L562.076,-0.203L563.361,-0.251L564.518,-0.251L565.674,-0.303L566.831,-0.353L568.115,-0.404L569.272,-0.454L570.429,-0.454L571.585,-0.503L572.868,-0.554L574.025,-0.604L575.182,-0.656L576.338,-0.656L577.623,-0.705L578.779,-0.756" style="fill:none;fill-rule:nonzero;stroke:rgb(89,89,92);stroke-width:0.65px;"/>
        </g>
        <g transform="matrix(1,0,0,1,61.373,151.129)">
            <path d="M0,25.501L1.156,25.552L2.441,25.552L3.598,25.601L5.91,25.601L7.195,25.651L8.352,25.702L9.508,25.702L10.664,25.752L11.948,25.804L13.104,25.804L14.261,25.853L15.417,25.804L16.702,25.752L17.857,25.752L19.014,25.804L21.456,25.804L22.611,25.853L23.768,25.853L24.924,25.752L26.209,25.651L27.365,25.853L28.521,25.904L29.678,25.954L30.962,26.005L32.118,26.005L33.274,26.055L34.431,26.055L35.716,26.105L36.872,26.155L38.028,26.105L41.626,26.105L42.783,26.155L43.939,26.155L45.223,26.105L46.379,26.105L47.536,26.055L49.976,26.055L51.133,26.005L52.289,25.954L54.73,25.954L55.887,25.904L57.043,25.904L58.199,25.853L59.484,25.853L60.641,25.804L61.797,25.752L64.237,25.752L65.394,25.702L66.55,25.702L67.706,25.651L68.991,25.601L70.147,25.552L71.304,25.45L72.459,25.45L73.745,25.35L74.901,25.298L76.058,25.198L77.213,25.147L78.498,25.147L79.654,25.198L80.811,25.249L81.967,25.249L83.251,25.298L84.407,25.298L85.563,25.35L86.72,25.399L88.005,25.45L89.161,25.501L90.317,25.45L91.475,25.298L92.759,25.198L93.915,25.097L95.072,24.997L96.229,24.845L97.512,24.694L98.668,24.593L99.825,24.392L100.981,24.241L102.266,24.089L103.423,23.989L104.578,23.838L105.734,23.686L107.021,23.585L108.177,23.435L109.332,23.385L110.488,23.333L112.93,23.333L114.086,23.284L115.242,23.284L116.526,23.232L117.683,23.284L119.995,23.284L121.28,23.333L122.437,23.183L123.593,23.132L124.749,23.132L126.034,23.081L127.19,23.031L128.347,22.981L129.503,22.88L130.787,22.829L131.943,22.88L133.1,22.931L134.256,22.88L135.541,22.829L136.696,22.829L137.853,22.729L139.009,22.678L140.295,22.628L141.45,22.678L145.048,22.678L146.204,22.628L147.361,22.577L148.518,22.527L149.801,22.478L153.271,22.478L154.555,22.376L155.712,22.325L156.868,22.226L158.024,22.175L159.31,22.124L160.466,22.023L161.622,21.923L162.778,21.821L164.062,21.821L165.219,21.771L166.375,21.671L167.531,21.62L168.815,21.519L169.972,21.419L171.128,21.267L172.284,21.166L173.569,21.065L174.726,21.016L175.882,20.966L177.038,20.864L178.323,20.662L179.479,20.612L180.636,20.562L181.792,20.462L183.076,20.411L184.232,20.31L185.389,20.259L186.545,20.21L187.83,20.21L188.986,20.108L190.143,20.058L191.298,19.958L192.584,19.907L193.74,19.806L194.896,19.755L196.053,19.654L197.337,19.605L198.493,19.605L199.65,19.554L200.807,19.504L202.09,19.504L203.246,19.403L204.403,19.353L205.56,19.302L206.844,19.251L208.001,19.151L209.157,19.101L210.313,18.95L211.599,18.849L212.755,18.697L213.911,18.546L215.067,18.597L216.352,18.396L217.508,18.294L218.664,18.243L219.82,18.193L221.105,18.093L222.262,17.992L223.417,17.892L224.573,17.79L225.859,17.689L227.015,17.589L228.171,17.487L229.327,17.487L230.612,17.438L234.081,17.438L235.365,17.386L236.521,17.438L237.678,17.487L238.834,17.538L240.119,17.589L241.275,17.639L242.432,17.639L243.588,17.689L244.873,17.589L246.029,17.589L248.341,17.689L249.626,17.739L251.939,17.739L253.096,17.689L254.38,17.639L255.537,17.589L257.849,17.689L259.133,17.689L260.29,17.739L262.603,17.739L263.888,17.79L266.2,17.79L267.356,17.841L268.641,17.941L270.953,17.941L272.109,17.841L273.395,17.739L274.551,17.639L275.707,17.538L276.863,17.487L278.148,17.337L280.46,17.235L281.616,17.186L282.901,17.085L284.058,16.934L285.214,16.833L286.37,16.782L287.655,16.782L288.812,16.731L289.967,16.731L291.123,16.682L292.408,16.631L293.564,16.581L294.721,16.53L295.877,16.43L297.162,16.38L298.318,16.329L299.475,16.278L300.632,16.178L301.915,16.127L303.071,15.876L304.228,15.825L305.385,15.876L306.669,15.825L307.826,15.674L308.982,15.472L310.139,15.372L311.422,15.22L312.579,15.069L313.735,14.968L314.892,14.817L316.177,14.767L317.333,14.565L318.489,14.413L319.646,14.413L320.931,14.364L322.086,14.263L323.242,14.162L324.398,14.011L325.684,13.91L326.84,13.81L327.996,13.355L329.152,13.306L330.437,13.153L331.594,12.901L332.75,12.853L333.906,12.6L335.19,12.298L336.347,12.146L338.659,11.642L339.944,11.44L341.101,11.239L343.413,10.735L344.697,10.534L345.854,10.333L347.01,10.13L348.166,9.929L349.451,9.728L350.607,9.526L351.764,9.323L352.921,9.022L354.204,8.72L355.36,8.366L356.517,8.114L357.674,7.712L358.958,7.561L360.114,7.409L361.271,7.207L362.428,7.007L363.713,6.603L364.869,6.199L366.025,5.897L367.181,5.495L368.466,5.242L369.622,5.091L370.778,4.991L371.935,4.839L373.22,4.738L374.376,4.638L375.532,4.487L376.687,4.437L377.973,4.386L380.285,4.284L381.441,4.234L382.727,4.234L385.039,4.134L386.195,4.083L387.479,4.032L388.636,3.931L389.792,3.831L390.948,3.78L392.233,3.73L393.39,3.68L394.546,3.68L395.702,3.63L396.987,3.63L398.144,3.579L399.299,3.579L400.455,3.63L401.74,3.63L402.896,3.579L404.053,3.579L405.21,3.529L406.494,3.429L408.806,3.327L409.963,3.276L411.247,3.227L412.403,3.176L413.561,3.176L414.717,3.126L417.158,3.126L418.314,2.974L419.471,2.925L420.755,2.874L423.067,2.772L424.224,2.723L425.509,2.672L426.665,2.622L427.821,2.571L428.978,2.522L430.263,2.522L431.418,2.472L432.574,2.472L433.73,2.421L435.016,2.37L436.172,2.269L437.328,2.219L439.77,2.219L440.925,2.168L442.081,2.168L443.237,2.118L444.522,2.067L445.679,2.018L446.835,2.018L447.991,1.966L449.276,1.917L450.433,1.865L452.745,1.765L454.029,1.715L455.186,1.664L456.342,1.614L457.499,1.564L458.783,1.464L459.939,1.411L461.097,1.362L464.692,1.362L465.85,1.312L478.954,1.312L480.11,1.362L481.267,1.362L482.552,1.312L483.708,1.261L484.864,1.211L486.02,1.16L487.305,1.11L488.461,1.06L490.773,0.958L509.787,0.958L511.072,0.907L514.542,0.907L515.826,0.858L519.295,0.858L520.579,0.808L524.049,0.808L525.334,0.757L528.802,0.757L530.087,0.707L532.399,0.707L533.556,0.656L537.153,0.656L538.31,0.606L541.906,0.606L543.062,0.556L544.348,0.556L545.504,0.505L546.66,0.505L547.816,0.456L549.102,0.355L550.257,0.304L551.413,0.253L552.569,0.253L553.854,0.203L555.011,0.152L556.167,0.103L557.323,0.052L558.608,0.052L562.076,-0.101L563.361,-0.149L564.518,-0.149L565.674,-0.201L566.831,-0.251L568.115,-0.302L569.272,-0.352L570.429,-0.352L571.585,-0.401L572.868,-0.452L574.025,-0.502L575.182,-0.554L576.338,-0.554L577.623,-0.603L578.779,-0.654" style="fill:none;fill-rule:nonzero;stroke:rgb(89,89,92);stroke-width:0.65px;"/>
        </g>
        <g transform="matrix(1,0,0,1,61.373,150.979)">
            <path d="M0,24.29L1.156,24.341L2.441,24.392L3.598,24.442L5.91,24.542L8.352,24.542L9.508,24.593L10.664,24.593L11.948,24.644L14.261,24.644L15.417,24.593L16.702,24.542L23.768,24.542L24.924,24.442L26.209,24.341L27.365,24.442L28.521,24.542L29.678,24.644L30.962,24.644L32.118,24.693L33.274,24.693L34.431,24.743L35.716,24.743L36.872,24.794L38.028,24.794L39.186,24.743L40.47,24.644L41.626,24.693L42.783,24.693L43.939,24.743L51.133,24.743L52.289,24.693L55.887,24.693L57.043,24.644L60.641,24.644L61.797,24.593L62.953,24.593L64.237,24.542L65.394,24.542L66.55,24.492L67.706,24.492L68.991,24.442L70.147,24.392L71.304,24.341L73.745,24.341L74.901,24.29L76.058,24.14L77.213,24.038L78.498,23.936L79.654,23.888L80.811,23.836L81.967,23.836L83.251,23.786L84.407,23.786L85.563,23.735L86.72,23.636L88.005,23.483L89.161,23.435L90.317,23.383L92.759,23.383L93.915,23.333L96.229,23.333L97.512,23.282L98.668,23.182L99.825,22.979L100.981,22.778L102.266,22.628L103.423,22.476L104.578,22.325L105.734,22.174L107.021,21.972L108.177,21.821L109.332,21.72L110.488,21.569L111.773,21.519L112.93,21.469L114.086,21.417L115.242,21.417L116.526,21.368L118.839,21.368L119.995,21.316L121.28,21.267L122.437,21.267L123.593,21.216L124.749,21.166L126.034,21.116L127.19,21.015L128.347,20.964L129.503,20.863L130.787,20.913L131.943,20.913L133.1,20.964L134.256,20.964L135.541,20.913L136.696,20.913L137.853,20.863L139.009,20.812L140.295,20.763L142.606,20.763L143.764,20.712L145.048,20.662L146.204,20.612L147.361,20.612L148.518,20.561L149.801,20.511L150.957,20.511L153.271,20.409L154.555,20.36L155.712,20.36L156.868,20.259L158.024,20.208L159.31,20.158L160.466,20.108L161.622,20.007L162.778,19.956L164.062,19.956L165.219,19.905L166.375,19.805L168.815,19.805L169.972,19.755L171.128,19.704L172.284,19.654L173.569,19.603L174.726,19.554L175.882,19.503L177.038,19.401L178.323,19.2L179.479,19.101L180.636,18.999L181.792,18.848L183.076,18.747L184.232,18.597L185.389,18.495L186.545,18.444L187.83,18.344L188.986,18.294L190.143,18.243L191.298,18.192L192.584,18.143L193.74,18.092L194.896,17.991L196.053,17.89L197.337,17.789L198.493,17.739L199.65,17.588L200.807,17.588L202.09,17.536L203.246,17.436L205.56,17.336L206.844,17.235L208.001,17.135L209.157,17.034L210.313,16.882L211.599,16.781L212.755,16.681L213.911,16.479L215.067,16.479L216.352,16.227L217.508,16.127L218.664,16.076L219.82,15.925L221.105,15.824L222.262,15.673L223.417,15.571L224.573,15.421L225.859,15.32L227.015,15.22L228.171,15.118L229.327,15.019L230.612,14.968L236.521,14.968L237.678,15.019L238.834,15.068L242.432,15.068L243.588,15.169L246.029,15.169L247.185,15.22L250.782,15.22L251.939,15.169L254.38,15.169L255.537,15.118L260.29,15.118L261.446,15.169L262.603,15.22L263.888,15.269L265.044,15.269L266.2,15.32L269.797,15.32L270.953,15.169L272.109,15.068L273.395,14.968L274.551,14.816L275.707,14.665L276.863,14.563L278.148,14.413L279.304,14.312L280.46,14.212L281.616,14.11L282.901,14.011L284.058,13.909L285.214,13.808L286.37,13.758L287.655,13.556L288.812,13.505L289.967,13.404L291.123,13.354L292.408,13.204L293.564,13.254L294.721,13.153L295.877,13.052L297.162,12.952L298.318,12.8L299.475,12.7L300.632,12.549L301.915,12.448L303.071,12.347L304.228,12.196L305.385,12.145L306.669,11.944L307.826,11.792L308.982,11.591L310.139,11.439L311.422,11.188L312.579,11.087L313.735,10.835L314.892,10.734L316.177,10.532L318.489,10.13L319.646,9.929L320.931,9.727L322.086,9.524L323.242,9.373L324.398,9.223L325.684,9.071L326.84,8.92L327.996,8.719L329.152,8.567L330.437,8.417L331.594,8.265L332.75,8.114L333.906,7.964L335.19,7.862L336.347,7.711L337.503,7.661L338.659,7.408L339.944,7.157L341.101,6.904L342.257,6.703L343.413,6.45L344.697,6.199L345.854,5.997L347.01,5.796L348.166,5.745L349.451,5.442L350.607,5.442L351.764,5.19L352.921,5.04L355.36,5.04L356.517,4.838L357.674,4.889L358.958,4.838L360.114,4.638L362.428,4.638L363.713,4.485L364.869,4.385L366.025,4.334L367.181,4.233L368.466,4.134L369.622,4.081L370.778,3.981L371.935,3.83L373.22,3.78L374.376,3.729L375.532,3.729L376.687,3.68L377.973,3.68L379.129,3.628L380.285,3.579L381.441,3.579L382.727,3.528L383.883,3.528L385.039,3.478L386.195,3.478L387.479,3.427L388.636,3.427L389.792,3.377L390.948,3.326L392.233,3.326L393.39,3.276L394.546,3.226L395.702,3.175L396.987,3.175L398.144,3.124L400.455,3.124L401.74,3.075L402.896,3.024L404.053,2.974L405.21,2.923L406.494,2.873L407.65,2.772L408.806,2.722L409.963,2.672L411.247,2.622L412.403,2.571L413.561,2.571L414.717,2.52L416.001,2.47L417.158,2.419L418.314,2.419L419.471,2.369L420.755,2.318L421.911,2.318L423.067,2.269L424.224,2.269L425.509,2.218L427.821,2.218L428.978,2.168L430.263,2.168L431.418,2.116L432.574,2.116L433.73,2.067L435.016,2.016L436.172,1.966L437.328,1.915L438.484,1.915L439.77,1.865L440.925,1.814L442.081,1.765L443.237,1.714L446.835,1.714L447.991,1.663L451.589,1.663L452.745,1.614L455.186,1.614L456.342,1.561L459.939,1.561L461.097,1.513L464.692,1.513L465.85,1.462L478.954,1.462L480.11,1.513L481.267,1.513L482.552,1.462L483.708,1.411L486.02,1.311L487.305,1.261L490.773,1.108L509.787,1.108L511.072,1.058L514.542,1.058L515.826,1.009L519.295,1.009L520.579,0.958L524.049,0.958L525.334,0.907L528.802,0.907L530.087,0.857L532.399,0.857L533.556,0.807L537.153,0.807L538.31,0.757L541.906,0.757L543.062,0.706L544.348,0.706L545.504,0.655L546.66,0.655L547.816,0.606L549.102,0.505L550.257,0.454L551.413,0.403L552.569,0.403L553.854,0.353L555.011,0.303L556.167,0.253L557.323,0.202L558.608,0.202L559.764,0.151L560.92,0.101L562.076,0.05L563.361,0.001L564.518,0.001L565.674,-0.051L566.831,-0.101L568.115,-0.151L569.272,-0.201L570.429,-0.201L571.585,-0.251L572.868,-0.302L574.025,-0.352L575.182,-0.403L576.338,-0.403L577.623,-0.452L578.779,-0.504" style="fill:none;fill-rule:nonzero;stroke:rgb(89,89,92);stroke-width:0.65px;"/>
        </g>
        <g transform="matrix(1,0,0,1,61.373,154.606)">
            <path d="M0,42.686L1.156,42.987L2.441,42.886L3.598,42.937L4.754,42.635L5.91,42.131L7.195,41.829L8.352,42.433L9.508,42.584L10.664,42.483L11.948,42.231L13.104,42.282L14.261,42.08L15.417,41.425L16.702,42.03L17.857,42.433L19.014,42.886L20.17,43.038L21.456,41.525L22.611,42.131L23.768,42.735L24.924,43.29L26.209,43.139L27.365,43.541L28.521,44.348L29.678,44.801L30.962,44.751L32.118,44.498L33.274,44.953L34.431,45.758L35.716,46.364L36.872,46.817L38.028,46.313L39.186,46.01L40.47,46.211L41.626,45.659L42.783,44.751L43.939,44.297L45.223,43.995L46.379,43.894L47.536,43.692L48.692,43.441L49.976,43.793L51.133,44.145L52.289,44.247L53.445,44.348L54.73,44.6L55.887,44.751L57.043,44.651L58.199,44.751L59.484,44.801L60.641,44.751L61.797,44.449L62.953,43.844L64.237,43.239L65.394,42.686L66.55,42.382L67.706,42.231L68.991,42.534L70.147,42.836L71.304,42.635L72.459,42.635L73.745,41.525L74.901,41.727L76.058,42.382L77.213,43.087L78.498,43.591L79.654,43.894L80.811,43.995L81.967,44.198L83.251,44.498L84.407,44.7L85.563,44.852L86.72,45.002L88.005,45.206L89.161,45.406L90.317,45.356L91.475,45.053L92.759,44.852L93.915,44.498L95.072,44.651L96.229,44.398L97.512,44.297L98.668,44.348L99.825,44.297L100.981,44.398L102.266,44.297L103.423,44.297L104.578,44.247L105.734,44.096L107.021,43.945L108.177,43.793L109.332,43.692L110.488,43.643L111.773,43.591L112.93,43.491L114.086,43.441L115.242,43.643L116.526,43.793L117.683,43.945L118.839,44.045L122.437,44.045L123.593,43.995L124.749,43.894L126.034,43.744L127.19,43.541L128.347,43.34L129.503,43.188L130.787,43.087L131.943,43.188L133.1,43.39L134.256,43.491L135.541,43.844L136.696,44.045L137.853,44.045L139.009,43.894L140.295,43.643L141.45,43.643L142.606,43.692L143.764,43.591L145.048,43.441L146.204,43.29L147.361,42.987L148.518,42.433L149.801,41.829L150.957,41.325L152.114,40.971L153.271,40.668L154.555,40.317L155.712,40.013L156.868,39.661L158.024,39.459L159.31,39.106L160.466,38.602L161.622,38.502L162.778,38.149L164.062,37.948L165.219,37.898L166.375,38.1L167.531,38.402L168.815,38.502L169.972,38.552L171.128,38.552L172.284,38.602L173.569,38.805L174.726,38.602L175.882,38.653L177.038,38.552L178.323,38.1L180.636,38.1L181.792,37.948L183.076,37.948L184.232,37.647L185.389,37.545L186.545,37.243L187.83,37.09L188.986,37.09L190.143,37.192L191.298,37.393L192.584,37.594L193.74,37.594L194.896,37.494L196.053,37.444L197.337,37.494L198.493,37.494L199.65,37.393L200.807,37.343L202.09,37.494L203.246,37.545L204.403,37.545L205.56,37.343L206.844,37.09L208.001,36.739L209.157,36.386L210.313,36.184L211.599,35.982L212.755,35.832L213.911,35.428L215.067,35.982L216.352,35.278L217.508,35.025L218.664,35.025L219.82,34.874L221.105,34.924L222.262,34.622L223.417,34.27L224.573,33.916L225.859,33.815L227.015,33.916L228.171,33.766L229.327,33.665L230.612,33.312L231.769,33.362L232.925,33.413L234.081,33.312L235.365,33.009L237.678,33.009L238.834,33.059L240.119,33.11L241.275,33.161L242.432,32.958L243.588,33.009L244.873,33.059L246.029,33.009L247.185,33.11L248.341,33.26L249.626,33.413L250.782,33.462L251.939,33.362L253.096,33.211L254.38,33.161L255.537,33.11L256.693,33.11L257.849,33.009L259.133,32.909L260.29,32.807L261.446,32.706L262.603,32.606L263.888,32.204L265.044,32.455L266.2,32.304L267.356,32.405L268.641,32.354L269.797,32.354L270.953,32.555L272.109,32.505L274.551,32.505L275.707,32.606L276.863,32.505L278.148,32.555L279.304,32.657L280.46,32.706L281.616,32.958L282.901,33.211L284.058,33.413L285.214,33.413L286.37,33.462L287.655,33.211L288.812,33.312L289.967,33.362L291.123,33.462L292.408,33.513L293.564,34.067L294.721,34.168L295.877,34.371L297.162,34.47L298.318,34.571L299.475,34.974L300.632,35.125L301.915,34.974L303.071,35.125L304.228,35.378L305.385,35.581L306.669,35.581L307.826,35.428L308.982,34.924L310.139,34.874L311.422,34.874L312.579,35.327L313.735,35.581L314.892,35.832L316.177,36.033L317.333,36.335L318.489,36.537L319.646,36.739L320.931,37.192L322.086,37.444L323.242,37.797L324.398,38.048L325.684,38.351L326.84,38.2L327.996,38.704L329.152,38.855L330.437,38.956L331.594,39.056L332.75,39.309L333.906,40.417L335.19,40.266L336.347,40.266L337.503,40.367L338.659,40.013L339.944,40.215L341.101,40.569L342.257,41.172L343.413,41.525L344.697,41.778L345.854,42.382L347.01,42.534L348.166,42.735L349.451,43.139L350.607,43.34L351.764,43.541L352.921,43.692L354.204,43.844L355.36,43.945L357.674,44.145L358.958,44.145L360.114,43.541L361.271,43.491L362.428,43.39L363.713,42.786L364.869,42.18L366.025,41.778L367.181,41.625L368.466,41.374L369.622,41.122L370.778,40.77L371.935,40.467L373.22,40.367L374.376,40.166L375.532,39.963L376.687,40.114L377.973,40.367L379.129,40.518L380.285,40.719L381.441,40.719L382.727,40.62L383.883,40.518L385.039,40.417L386.195,40.215L387.479,40.065L388.636,39.459L389.792,39.359L390.948,39.309L392.233,39.207L393.39,38.906L394.546,38.602L395.702,38.25L396.987,38.048L398.144,37.898L399.299,37.745L400.455,38.048L401.74,37.999L402.896,37.745L404.053,37.444L405.21,37.192L406.494,36.889L407.65,36.637L408.806,36.386L409.963,36.235L411.247,36.033L412.403,35.832L413.561,35.679L414.717,35.479L416.001,35.327L417.158,35.125L418.314,34.974L419.471,34.772L420.755,34.521L421.911,34.219L423.067,33.966L424.224,33.713L425.509,33.462L426.665,33.211L427.821,33.059L428.978,32.909L430.263,32.909L431.418,32.858L432.574,32.756L433.73,32.657L435.016,32.304L436.172,31.85L437.328,31.397L438.484,30.943L439.77,30.439L440.925,29.986L442.081,29.532L443.237,29.079L444.522,28.674L445.679,28.273L446.835,28.02L447.991,27.264L449.276,26.358L450.433,25.854L451.589,25.299L452.745,24.141L454.029,23.131L455.186,22.375L456.342,21.772L457.499,21.368L458.783,20.764L459.939,20.159L461.097,19.856L462.253,18.848L463.536,17.489L464.692,17.135L465.85,17.336L467.006,17.438L468.29,17.438L469.447,17.286L470.604,17.286L471.76,17.588L473.044,17.539L474.2,17.588L475.356,17.539L476.513,18.395L477.798,19.151L478.954,19.604L480.11,20.411L481.267,21.166L482.552,21.821L483.708,22.225L484.864,22.477L486.02,22.124L487.305,21.52L488.461,21.116L489.617,20.915L490.773,20.663L492.059,20.815L493.215,20.965L494.371,21.016L495.526,21.016L496.812,21.066L497.968,21.066L499.124,20.764L500.28,20.208L501.565,19.201L502.722,19.05L503.878,18.899L505.034,18.698L506.318,18.344L507.475,17.891L508.631,17.79L509.787,17.891L511.072,17.891L512.229,18.395L513.386,19.1L514.542,19.706L515.826,20.309L516.983,20.915L518.139,21.418L519.295,21.721L520.579,21.873L521.736,21.821L522.893,21.268L524.049,20.713L525.334,20.26L526.49,19.957L527.646,19.604L528.802,19.201L530.087,18.344L531.243,17.489L532.399,16.127L533.556,14.868L534.841,13.809L535.997,12.953L537.153,12.197L538.31,11.843L539.594,11.441L541.906,10.735L543.062,10.383L544.348,9.979L545.504,9.475L546.66,8.569L547.816,7.711L549.102,6.856L550.257,6.049L551.413,5.192L552.569,4.385L553.854,3.629L555.011,2.873L556.167,2.118L557.323,1.362L558.608,0.606L559.764,-0.099L560.92,-0.754L562.076,-1.46L563.361,-2.115L564.518,-2.72L565.674,-3.325L566.831,-3.728L568.115,-3.779L569.272,-3.829L570.429,-3.829L571.585,-3.878L572.868,-3.929L574.025,-3.979L575.182,-4.031L576.338,-4.031L577.623,-4.08L578.779,-4.131" style="fill:none;fill-rule:nonzero;stroke:rgb(46,54,144);stroke-width:1.31px;"/>
        </g>
        <g transform="matrix(1,0,0,1,61.373,150.727)">
            <path d="M0,22.577L1.156,22.628L2.441,22.628L3.598,22.679L4.754,22.679L5.91,22.727L7.195,22.778L8.352,22.829L11.948,22.829L13.104,22.778L14.261,22.727L15.417,22.679L17.857,22.679L19.014,22.628L20.17,22.628L21.456,22.577L22.611,22.526L23.768,22.526L24.924,22.475L26.209,22.426L28.521,22.426L29.678,22.325L30.962,22.274L34.431,22.274L35.716,22.223L36.872,22.223L38.028,22.173L39.186,22.173L40.47,22.123L41.626,22.123L42.783,22.073L43.939,22.073L45.223,22.022L46.379,22.022L47.536,21.972L48.692,21.921L52.289,21.921L53.445,21.872L54.73,21.872L55.887,21.821L58.199,21.821L59.484,21.77L66.55,21.77L67.706,21.721L68.991,21.77L70.147,21.721L71.304,21.77L72.459,21.669L76.058,21.669L77.213,21.62L78.498,21.518L79.654,21.418L80.811,21.317L84.407,21.317L85.563,21.266L86.72,21.216L88.005,21.165L93.915,21.165L95.072,21.115L96.229,21.115L97.512,21.165L98.668,21.165L99.825,21.216L100.981,21.216L102.266,21.165L103.423,21.064L104.578,20.914L105.734,20.763L107.021,20.612L108.177,20.46L109.332,20.259L110.488,20.056L111.773,19.906L112.93,19.755L114.086,19.653L115.242,19.452L116.526,19.251L117.683,19.049L118.839,18.848L119.995,18.696L121.28,18.546L122.437,18.344L123.593,18.192L124.749,18.092L126.034,17.991L127.19,17.89L128.347,17.84L129.503,17.739L130.787,17.638L131.943,17.436L133.1,17.286L134.256,17.235L135.541,17.184L136.696,17.134L137.853,17.134L139.009,17.235L140.295,17.387L142.606,17.387L143.764,17.487L145.048,17.537L146.204,17.638L147.361,17.688L148.518,17.788L149.801,17.84L150.957,17.788L153.271,17.788L154.555,17.739L155.712,17.688L158.024,17.588L159.31,17.537L160.466,17.436L161.622,17.436L162.778,17.336L164.062,17.134L165.219,17.033L166.375,16.983L167.531,16.882L169.972,16.882L171.128,16.932L172.284,16.932L173.569,16.983L175.882,16.983L177.038,17.033L178.323,17.336L179.479,17.336L180.636,17.235L181.792,17.235L183.076,17.084L184.232,17.084L185.389,16.983L186.545,16.882L187.83,16.731L188.986,16.63L190.143,16.479L191.298,16.328L192.584,16.227L193.74,16.126L194.896,16.126L196.053,16.076L197.337,15.975L198.493,15.874L199.65,15.823L200.807,15.723L202.09,15.673L203.246,15.572L204.403,15.521L205.56,15.421L206.844,15.32L208.001,15.27L209.157,15.22L210.313,15.22L211.599,15.169L212.755,15.068L213.911,15.118L215.067,14.614L216.352,14.815L217.508,14.716L218.664,14.514L219.82,14.362L221.105,14.263L222.262,14.161L223.417,14.01L224.573,13.909L225.859,13.807L227.015,13.656L228.171,13.506L229.327,13.405L232.925,13.405L234.081,13.456L235.365,13.606L240.119,13.606L241.275,13.556L242.432,13.556L243.588,13.405L244.873,13.354L246.029,13.354L247.185,13.304L248.341,13.255L249.626,13.153L250.782,13.102L251.939,13.052L253.096,13.102L254.38,13.002L255.537,13.002L256.693,12.952L257.849,12.952L259.133,12.901L260.29,12.901L261.446,12.85L262.603,12.85L263.888,12.801L265.044,12.85L266.2,12.901L268.641,12.901L269.797,12.952L270.953,12.952L272.109,12.85L273.395,12.749L274.551,12.598L275.707,12.448L276.863,12.296L278.148,12.145L279.304,11.843L280.46,11.641L281.616,11.49L282.901,11.288L284.058,11.087L285.214,10.886L286.37,10.683L287.655,10.683L288.812,10.482L289.967,10.281L291.123,10.13L292.408,9.978L293.564,9.625L294.721,9.474L295.877,9.323L297.162,9.172L298.318,9.02L299.475,8.87L300.632,8.768L301.915,8.617L303.071,8.467L304.228,8.315L305.385,8.216L306.669,8.063L307.826,7.963L308.982,7.811L310.139,7.71L311.422,7.559L312.579,7.459L313.735,7.358L314.892,7.206L316.177,7.105L317.333,7.056L318.489,6.905L319.646,6.804L320.931,6.702L322.086,6.601L323.242,6.501L324.398,6.399L325.684,6.3L326.84,6.148L327.996,6.048L329.152,5.946L330.437,5.847L331.594,5.694L332.75,5.594L333.906,5.493L335.19,5.393L336.347,5.292L337.503,5.19L338.659,5.09L339.944,4.989L341.101,4.89L343.413,4.686L344.697,4.586L345.854,4.485L347.01,4.386L348.166,4.284L349.451,4.233L350.607,4.133L352.921,3.931L354.204,3.88L355.36,3.831L357.674,3.729L358.958,3.679L360.114,3.679L361.271,3.629L362.428,3.578L363.713,3.528L364.869,3.477L366.025,3.427L367.181,3.376L368.466,3.327L369.622,3.327L370.778,3.276L371.935,3.276L373.22,3.225L374.376,3.225L375.532,3.175L376.687,3.175L377.973,3.125L379.129,3.125L380.285,3.074L381.441,3.074L382.727,3.024L383.883,3.024L385.039,2.973L390.948,2.973L392.233,2.924L398.144,2.924L399.299,2.874L400.455,2.671L401.74,2.57L405.21,2.57L406.494,2.52L408.806,2.52L409.963,2.47L412.403,2.47L413.561,2.42L416.001,2.42L417.158,2.368L419.471,2.368L420.755,2.319L421.911,2.319L423.067,2.267L425.509,2.267L426.665,2.218L427.821,2.218L428.978,2.167L431.418,2.167L432.574,2.117L435.016,2.117L436.172,2.066L438.484,2.066L439.77,2.016L442.081,2.016L443.237,1.966L446.835,1.966L447.991,1.915L451.589,1.915L452.745,1.866L455.186,1.866L456.342,1.813L459.939,1.813L461.097,1.765L464.692,1.765L465.85,1.714L478.954,1.714L480.11,1.765L481.267,1.765L482.552,1.714L483.708,1.663L484.864,1.613L486.02,1.562L487.305,1.513L490.773,1.36L509.787,1.36L511.072,1.309L514.542,1.309L515.826,1.261L519.295,1.261L520.579,1.21L524.049,1.21L525.334,1.159L528.802,1.159L530.087,1.109L532.399,1.109L533.556,1.058L537.153,1.058L538.31,1.009L541.906,1.009L543.062,0.958L544.348,0.958L545.504,0.907L546.66,0.907L547.816,0.858L549.102,0.757L550.257,0.706L551.413,0.655L552.569,0.655L553.854,0.605L555.011,0.555L556.167,0.505L557.323,0.454L558.608,0.454L560.92,0.352L562.076,0.302L563.361,0.253L564.518,0.253L565.674,0.201L566.831,0.151L568.115,0.1L569.272,0.051L570.429,0.051L571.585,0.001L572.868,-0.05L574.025,-0.1L575.182,-0.152L576.338,-0.152L577.623,-0.2L578.779,-0.252" style="fill:none;fill-rule:nonzero;stroke:rgb(8,6,6);stroke-width:0.48px;stroke-miterlimit:10;"/>
        </g>
    </g>
</svg>
