<?xml version="1.0" encoding="UTF-8" standalone="no"?>
<!DOCTYPE svg PUBLIC "-//W3C//DTD SVG 1.1//EN" "http://www.w3.org/Graphics/SVG/1.1/DTD/svg11.dtd">
<svg width="100%" height="100%" viewBox="0 0 7377 1241" version="1.1" xmlns="http://www.w3.org/2000/svg" xmlns:xlink="http://www.w3.org/1999/xlink" xml:space="preserve" xmlns:serif="http://www.serif.com/" style="fill-rule:evenodd;clip-rule:evenodd;">
    <g transform="matrix(4.16667,0,0,4.16667,252.665,736.209)">
        <g id="depth-section" serif:id="depth section">
            <path d="M0,8.988L1.14,10.667L2.278,11.506L3.416,12.224L4.934,12.825L6.07,13.544L7.208,14.262L8.345,14.981L9.484,15.462L10.622,16.06L11.761,16.3L12.898,16.66L14.416,16.899L15.553,17.139L16.692,17.499L17.83,17.619L18.967,17.86L20.106,17.978L21.246,18.098L23.9,18.098L25.038,18.218L26.177,18.218L27.314,18.338L28.451,18.338L29.591,18.458L30.729,18.458L31.867,18.578L33.385,18.578L34.522,18.698L35.662,18.818L36.799,18.818L37.937,18.938L39.073,18.938L40.213,19.057L41.353,19.177L42.867,19.177L44.007,19.297L45.146,19.417L46.281,19.537L47.418,19.537L48.558,17.139L49.695,15.341L50.832,14.502L52.353,13.783L53.487,14.023L54.629,14.262L55.766,14.502L56.9,14.622L59.18,14.622L60.316,15.341L61.835,15.701L62.972,15.941L64.113,16.06L65.251,16.18L66.386,16.66L67.524,17.738L68.664,18.338L69.802,18.338L71.319,18.458L72.456,18.338L74.735,18.338L75.87,18.578L77.01,19.177L78.148,19.177L79.286,19.057L80.804,19.177L81.94,19.177L83.083,17.02L84.218,14.142L85.354,13.663L86.494,13.184L87.634,12.704L88.769,12.224L90.288,12.224L91.423,12.344L92.567,12.224L93.702,11.865L94.839,12.584L95.979,13.064L97.118,14.862L98.253,16.78L99.772,19.177L100.908,19.057L102.052,16.78L103.187,14.742L104.324,13.064L105.463,12.825L106.603,14.262L107.737,17.02L109.258,18.578L110.393,19.297L111.534,19.057L112.671,15.582L113.809,12.945L114.945,12.704L116.085,12.825L117.223,13.663L118.74,14.502L119.877,14.862L121.019,13.424L122.156,11.865L123.291,11.027L124.431,11.506L125.569,13.184L126.707,14.981L128.225,16.66L129.361,16.78L130.503,16.899L131.641,16.18L132.775,15.821L133.915,15.101L135.055,14.862L136.191,14.862L137.709,15.341L138.847,16.42L139.988,17.259L141.125,17.259L142.26,17.379L143.399,17.139L144.539,17.02L145.674,17.139L147.193,17.139L148.331,17.499L149.473,17.86L150.607,18.338L151.745,18.458L152.884,18.338L154.023,18.698L155.158,19.057L156.679,19.417L157.813,19.896L158.957,20.135L160.092,20.376L161.229,20.496L162.369,20.376L163.508,20.376L164.643,19.297L166.163,17.978L167.298,17.86L168.441,18.578L169.577,19.057L170.714,19.896L171.854,20.135L172.99,20.016L174.128,19.417L175.647,19.537L176.782,19.777L177.924,20.736L179.062,21.455L180.196,20.856L181.336,19.297L182.475,19.777L183.612,19.656L185.13,16.899L186.267,16.899L187.409,18.938L188.546,19.177L189.681,19.177L190.82,19.297L191.96,18.698L193.097,18.338L194.614,19.057L195.752,19.177L196.894,19.057L198.03,18.818L199.165,18.578L200.305,18.578L201.444,18.698L202.577,18.698L204.097,18.458L205.231,18.218L206.376,18.098L207.511,18.218L208.647,18.338L209.787,18.338L210.925,17.978L212.062,17.738L213.581,17.86L214.717,17.738L215.858,17.738L216.995,18.458L218.13,18.458L219.27,18.338L223.063,18.338L224.201,18.098L225.343,17.978L226.479,17.738L227.615,17.738L228.754,18.338L229.894,19.417L231.03,18.698L232.549,18.218L233.686,19.057L234.827,19.537L235.965,19.297L237.1,18.818L239.378,18.578L240.516,18.458L242.033,18.338L243.17,18.338L244.312,18.218L247.724,18.218L248.863,18.458L249.998,18.698L251.518,18.338L252.652,18.338L253.797,18.818L254.932,18.938L256.068,18.818L257.208,18.818L258.348,19.057L259.482,19.537L261.002,19.417L262.137,19.057L263.281,19.177L264.416,19.896L265.553,20.135L266.692,19.896L267.832,19.297L268.967,19.297L270.487,19.057L271.622,18.818L272.764,18.578L273.9,18.578L275.038,18.818L277.314,18.818L278.451,19.417L279.97,20.135L281.106,19.537L282.248,19.656L283.385,19.057L284.521,18.458L285.659,19.297L286.799,19.297L287.937,19.177L289.454,19.177L290.591,18.218L291.732,18.818L292.87,18.938L294.005,18.938L295.145,19.417L296.283,19.417L297.421,19.537L298.938,20.135L300.075,19.896L301.218,19.537L302.354,20.016L303.489,20.256L304.629,19.896L305.769,19.656L306.903,19.896L308.423,20.016L309.561,19.777L310.702,19.656L311.837,19.537L312.974,19.656L315.253,19.656L316.388,20.135L317.907,20.256L319.043,20.016L320.187,19.896L321.321,19.896L322.459,20.016L323.598,20.135L325.872,20.135L327.393,20.256L331.943,20.256L333.083,20.376L335.357,20.376L336.877,20.256L344.842,20.256L346.359,20.135L354.326,20.135L355.844,20.016L361.532,20.016L362.671,19.896L367.605,19.896L368.74,19.777L374.811,19.777L375.945,19.896L377.088,20.016L378.225,20.135L379.359,20.256L380.499,20.256L381.639,20.135L382.775,20.016L385.431,20.016L386.572,20.135L387.709,20.256L388.844,20.376L391.123,20.376L392.26,20.496L393.777,20.376L397.193,20.376L398.329,20.256L403.263,20.256L404.399,20.135L406.676,20.135L407.813,19.896L408.953,19.777L410.092,19.656L411.227,19.537L413.882,19.537L415.025,19.656L416.161,19.656L417.298,19.777L418.437,19.777L419.577,19.896L420.712,19.656L422.231,19.656L423.366,19.896L429.062,19.896L430.196,20.016L431.716,20.135L432.852,20.256L433.993,20.135L435.13,19.896L436.268,19.656L437.404,19.656L438.544,19.777L444.614,19.777L445.749,19.656L446.889,19.656L448.028,19.777L449.165,19.896L450.684,20.016L451.82,20.135L452.962,20.135L454.1,20.376L455.234,20.376L456.373,20.256L457.513,17.02L458.65,16.06L460.168,15.221L461.305,14.862L462.446,14.502L463.584,14.023L464.719,13.544L465.858,13.303L466.997,13.064L468.133,12.825L469.652,13.424L470.79,14.622L471.932,16.66L473.066,18.098L474.203,18.338L475.343,18.578L476.482,18.818L477.617,19.057L479.137,19.537L480.271,20.016L481.416,20.135L482.551,20.016L483.687,19.896L484.827,19.777L485.967,19.656L487.102,18.818L488.622,17.86L489.757,17.02L490.9,16.66L492.035,16.42L493.173,16.3L494.312,16.06L495.449,15.941L496.586,15.821L498.106,16.54L499.241,17.499L500.383,18.458L501.52,19.537L502.655,19.896L503.794,19.656L504.934,19.417L506.071,19.896L507.589,20.496L508.726,20.016L509.867,19.656L511.005,18.218L512.14,16.66L513.279,15.462L514.418,15.582L515.551,16.18L517.071,17.259L518.206,18.818L519.35,18.938L520.484,19.537L521.622,19.537L522.762,19.656L523.9,20.016L525.035,20.016L526.556,18.818L527.69,18.818L528.834,19.057L531.106,19.057L532.246,20.016L533.383,20.256L534.521,20.256L536.04,20.135L537.175,20.016L538.316,19.656L539.454,19.656L540.589,19.537L541.729,19.297L542.867,19.057L544.005,18.818L545.522,18.338L546.66,18.218L547.802,18.338L548.938,18.698L550.073,18.938L551.213,19.057L552.353,19.656L553.489,19.777L555.007,19.417L556.145,18.938L557.286,18.578L558.423,18.698L559.558,19.177L560.697,18.938L561.837,19.057L562.974,19.417L564.492,19.896L565.629,20.256L566.771,19.896L567.905,19.656L569.043,20.135L570.182,20.135L571.321,19.896L572.456,19.537L573.977,19.537L575.111,19.896L576.255,20.135L577.39,20.376L578.527,20.616L579.667,20.616L580.806,20.736L585.74,20.736L586.875,20.256L588.012,19.777L589.151,20.135L590.291,20.616L591.426,20.736L592.945,20.736L594.08,20.496L595.222,20.256L596.359,20.256L597.496,20.736L598.634,20.856L599.773,20.376L600.91,20.496L602.428,20.856L603.565,20.736L611.912,20.736L613.05,20.616L616.464,20.616L617.603,20.496L618.742,20.496L619.88,20.376L621.397,20.496L622.534,20.496L623.676,20.616L624.813,20.616L625.948,20.736L627.088,20.616L628.227,20.496L629.361,20.256L630.882,20.135L632.019,20.016L641.501,20.016L642.646,19.777L643.78,19.417L644.917,19.057L646.057,18.938L647.196,18.938L648.331,18.698L649.851,18.338L650.986,17.978L653.265,17.978L654.402,18.218L655.541,18.578L656.679,18.698L657.815,18.338L659.336,18.098L660.471,18.218L661.612,17.86L662.749,17.738L663.884,17.978L665.023,18.098L666.163,18.218L667.683,18.338L668.818,18.218L669.955,18.218L671.097,18.338L672.229,18.458L673.366,18.578L675.646,18.818L677.163,18.818L678.301,18.698L679.436,18.698L680.579,18.578L681.714,18.218L682.852,17.86L683.99,17.499L685.13,17.619L686.647,17.978L687.785,18.338L688.92,18.338L690.063,18.458L691.198,18.338L692.336,18.098L693.476,17.86L694.612,17.86L696.133,17.978L697.27,18.098L698.404,17.978L699.546,17.86L700.684,17.499L701.818,17.139L702.958,16.899L704.097,16.54L705.617,16.899L706.752,16.78L707.889,16.66L709.03,16.78L711.303,16.78L712.446,16.66L713.582,16.54L715.102,16.66L716.236,17.02L717.374,17.259L718.516,17.02L719.652,17.259L720.787,17.619L721.929,17.86L723.066,17.379L724.586,17.02L725.721,17.139L726.858,17.379L728,17.619L729.135,17.978L730.272,18.218L731.414,18.338L732.551,18.218L734.068,18.098L735.206,17.499L736.341,17.02L737.484,16.78L738.619,17.379L739.757,18.578L740.898,19.417L742.035,20.135L743.553,20.496L744.69,20.856L745.825,21.215L746.969,21.095L748.104,20.856L749.241,20.256L750.383,19.417L751.521,18.338L753.038,17.619L754.175,17.619L755.31,17.379L756.451,17.379L757.589,17.86L758.726,18.338L759.867,18.818L761.002,19.417L762.522,19.656L763.657,19.537L764.795,18.698L765.937,18.098L767.073,18.098L768.208,17.738L769.353,17.02L770.487,16.3L772.007,16.66L773.142,16.899L774.279,17.259L775.421,17.499L776.558,17.619L777.692,17.379L778.837,17.139L779.972,17.499L781.491,18.098L782.627,17.738L783.764,17.499L784.905,17.619L786.043,17.619L787.178,17.499L788.319,17.379L789.456,17.379L790.974,17.619L792.111,17.978L793.248,17.86L794.39,17.259L795.524,16.54L796.662,17.379L797.804,18.698L798.94,19.777L800.456,19.057L801.598,18.458L802.735,18.338L803.87,17.86L805.007,17.86L806.148,18.338L807.286,18.938L808.421,18.578L809.94,17.259L811.083,15.821L812.22,16.42L813.354,16.78L814.492,16.54L815.634,17.02L816.771,18.098L817.905,18.338L819.426,18.098L820.567,17.379L821.702,17.259L822.839,17.978L823.977,18.698L825.118,18.938L826.253,18.578L827.391,17.86L828.905,17.619L830.047,17.86L831.185,17.978L832.319,18.098L833.456,18.338L834.599,18.578L835.735,18.698L836.87,18.818L838.391,19.297L839.532,19.656L840.669,20.016L841.804,19.896L844.083,19.896L845.22,20.496L846.354,20.856L847.875,21.095L849.017,21.095L850.153,21.215L851.289,20.496L852.426,19.896L853.567,19.297L854.704,19.417L855.84,20.496L857.359,20.856L858.501,20.856L859.636,20.376L860.773,19.656L861.91,19.417L863.052,20.135L864.187,19.656L865.324,19.057L866.842,19.297L867.985,19.417L869.121,19.417L870.258,19.537L871.393,19.777L872.536,19.896L873.672,18.698L874.809,17.259L876.326,16.18L877.471,18.098L878.605,19.777L880.877,19.777L882.021,19.896L884.293,19.896L885.811,20.016L888.09,20.016L889.227,20.135L898.709,20.135L899.847,20.256L900.988,20.256L902.125,20.376L904.78,20.376L905.922,19.896L907.059,19.417L908.194,18.938L909.331,18.338L910.473,19.177L911.61,19.297L912.745,19.417L914.265,20.256L915.406,20.376L916.544,20.256L917.679,19.777L918.815,19.297L919.957,18.458L921.093,18.818L922.229,19.297L923.749,19.057L924.892,19.177L926.026,19.297L927.163,19.297L928.298,18.698L929.442,18.458L930.577,18.098L931.714,18.338L933.231,18.698L934.376,19.057L935.511,19.297L936.647,19.177L937.782,19.177L938.927,19.417L940.062,19.417L941.198,19.297L942.717,19.297L943.86,19.417L944.995,19.417L946.133,19.297L947.268,19.177L948.409,18.938L949.546,18.818L950.684,19.177L952.201,19.537L953.343,19.656L954.479,19.656L955.615,18.938L956.752,17.738L957.894,18.098L959.03,19.057L960.166,19.417L961.686,19.896L962.827,19.896L963.965,19.777L965.1,20.135L967.378,20.135L968.516,20.256L973.449,20.256L974.584,20.376L975.721,20.256L976.863,20.376L981.797,20.376L982.932,20.496L985.201,20.496L986.343,20.616L990.135,20.616L991.276,20.736L994.685,20.736L995.827,20.856L999.619,20.856L1000.76,20.975L1003.03,20.975L1004.17,21.095L1006.45,21.095L1007.58,21.215L1009.1,21.215L1010.25,21.335L1012.52,21.335L1013.65,21.455L1014.8,21.455L1015.93,21.575L1017.07,21.575L1018.59,21.695L1020.87,21.695L1022,21.815L1023.14,21.815L1024.28,21.935L1026.55,21.935L1028.07,22.053L1030.35,22.053L1031.49,22.174L1032.62,22.174L1033.77,22.294L1036.04,22.294L1037.56,22.413L1039.84,22.413L1040.97,22.533L1042.11,22.533L1043.25,22.773L1044.39,23.373L1045.52,23.972L1047.04,24.331L1048.18,24.212L1049.32,23.733L1050.46,23.613L1051.59,24.092L1052.73,23.373L1053.87,22.533L1055.01,22.053L1056.53,22.773L1057.67,22.653L1058.8,22.053L1059.94,22.892L1061.08,23.133L1062.22,22.892L1063.35,22.773L1064.49,22.892L1066.01,22.773L1067.15,23.253L1068.29,23.133L1069.42,22.773L1070.56,22.533L1071.7,21.095L1072.84,21.215L1073.97,22.413L1075.49,23.373L1076.64,21.935L1077.77,22.892L1078.91,23.133L1080.05,23.133L1081.19,23.253L1082.32,23.853L1083.46,23.733L1084.98,23.972L1086.12,24.331L1087.26,24.212L1088.39,23.853L1089.53,23.253L1090.67,22.053L1091.81,22.653L1092.94,23.014L1094.46,23.493L1095.61,23.853L1096.74,23.613L1097.88,23.253L1099.01,23.373L1100.16,24.212L1101.29,23.972L1102.43,24.212L1103.94,24.811L1105.09,23.853L1106.23,24.092L1107.36,24.451L1108.5,24.691L1109.64,24.212L1110.78,24.092L1111.91,23.853L1113.43,23.613L1114.57,23.253L1115.71,22.773L1116.84,23.972L1117.98,24.691L1119.12,25.29L1120.26,25.531L1121.39,25.531L1122.91,25.651L1124.06,24.931L1125.19,25.411L1126.33,25.411L1127.47,25.651L1128.61,25.531L1129.75,24.811L1130.88,23.972L1132.4,23.853L1133.54,25.411L1134.68,25.17L1135.81,25.05L1136.95,25.17L1138.09,24.451L1139.23,24.691L1140.36,25.17L1141.88,25.29L1143.02,25.29L1144.16,25.89L1145.3,26.25L1146.43,26.25L1147.57,26.13L1148.71,26.369L1149.85,26.01L1151.36,26.01L1152.51,25.89L1153.64,26.25L1154.78,26.369L1155.91,26.369L1157.06,26.489L1158.19,26.13L1159.33,25.771L1160.85,25.89L1161.99,25.771L1163.13,25.89L1164.26,26.25L1165.4,26.01L1166.54,25.89L1167.68,25.531L1168.81,25.771L1170.33,26.01L1171.48,25.651L1172.61,26.01L1173.75,26.369L1174.88,26.489L1176.03,26.369L1177.16,26.25L1178.3,26.25L1179.82,26.489L1180.96,26.25L1182.1,26.369L1184.37,26.369L1185.51,26.489L1186.65,26.729L1187.78,26.61L1189.3,25.89L1190.44,25.29L1191.58,24.811L1192.72,25.771L1193.85,26.489L1195,26.61L1196.13,26.968L1197.27,27.328L1198.79,27.568L1199.93,27.688L1201.06,27.568L1202.2,27.448L1203.34,27.208L1204.48,27.088L1205.62,27.208L1206.75,27.328L1208.27,27.448L1209.41,27.328L1210.55,27.208L1211.69,27.328L1212.82,27.328L1213.96,27.688L1215.1,27.568L1216.23,27.328L1217.75,27.568L1218.9,27.448L1220.03,27.088L1222.31,27.088L1223.45,26.968L1228.38,26.968L1229.52,26.849L1236.72,26.849L1237.87,27.208L1239,27.328L1240.14,27.328L1241.27,27.208L1242.42,27.088L1243.55,27.088L1244.69,27.568L1247.35,27.568L1248.48,27.448L1249.62,27.208L1250.76,27.088L1251.9,27.088L1253.04,26.968L1254.17,27.088L1255.69,26.849L1256.83,26.968L1259.11,27.208L1260.24,27.448L1261.39,27.568L1262.52,27.328L1263.66,27.448L1265.17,27.448L1266.32,27.208L1267.45,27.208L1268.59,27.088L1269.73,27.088L1270.87,26.968L1272.01,26.849L1273.14,26.729L1274.66,26.729L1275.8,26.489L1276.94,26.13L1278.07,26.01L1280.35,26.01L1281.49,25.89L1282.62,25.89L1284.14,25.771L1285.29,25.651L1286.42,25.531L1287.56,26.13L1288.69,26.25L1289.84,26.25L1290.97,26.369L1292.11,26.369L1293.63,26.729L1294.77,26.729L1295.91,26.489L1297.04,26.25L1298.18,26.25L1299.32,26.369L1300.45,27.088L1301.59,27.208L1303.11,27.088L1304.25,27.088L1305.39,27.208L1306.53,27.328L1307.66,27.568L1311.08,27.568L1312.59,27.688L1313.74,27.088L1314.87,26.61L1316.01,26.61L1317.14,26.369L1318.29,26.13L1319.42,25.89L1320.56,25.651L1322.08,25.411L1323.22,25.29L1324.36,25.17L1325.49,24.811L1326.63,24.451L1327.77,24.331L1328.91,24.212L1330.04,23.853L1331.56,23.493L1332.7,23.253L1333.84,23.014L1334.98,22.653L1336.11,22.294L1337.26,22.174L1338.39,21.935L1339.53,21.575L1341.05,21.215L1342.19,21.215L1343.32,20.975L1344.46,20.975L1345.6,20.856L1346.74,20.736L1347.88,20.496L1349.01,20.376L1352.81,20.376L1353.95,20.256L1355.08,20.256L1356.23,20.616L1357.36,20.736L1360.02,20.736L1361.16,20.856L1364.57,20.856L1365.71,20.975L1366.84,20.975L1367.98,21.095L1369.5,21.095L1370.64,21.215L1371.78,21.215L1372.91,21.455L1374.05,21.815L1375.19,21.815L1376.33,21.935L1377.46,22.174L1378.98,22.294L1380.12,22.174L1381.26,21.935L1382.4,21.935L1383.53,22.174L1385.81,22.174L1387.33,22.294L1388.47,22.533L1389.61,23.253L1390.75,23.972L1391.88,24.092L1393.02,24.571L1394.16,25.531L1395.3,25.89L1396.82,26.13L1397.95,26.729L1399.1,27.088L1400.23,27.208L1406.3,27.208L1407.44,27.448L1408.58,27.568L1409.71,27.688L1410.85,27.688L1411.99,27.809L1413.13,27.928L1414.27,27.568L1415.79,27.448L1416.92,27.328L1418.06,27.208L1419.2,27.088L1420.34,26.729L1421.47,26.489L1422.61,26.25L1423.75,25.89L1425.27,25.651L1426.4,24.811L1427.55,24.571L1428.68,23.972L1429.82,23.853L1430.95,23.733L1432.1,23.613L1433.23,23.493L1434.75,23.493L1435.89,23.853L1437.03,24.212L1438.17,24.092L1439.3,23.733L1440.44,23.373L1441.58,23.133L1442.72,23.014L1444.24,22.773L1445.37,22.533L1446.52,22.413L1447.65,21.935L1448.79,21.215L1449.92,20.736L1451.07,20.016L1452.2,18.818L1453.72,17.86L1454.85,16.78L1456,16.18L1457.13,15.821L1458.27,15.221L1459.4,14.502L1460.55,13.783L1461.68,13.544L1463.2,13.544L1464.34,13.424L1465.48,13.064L1466.62,12.945L1467.75,12.945L1468.89,12.704L1470.03,12.224L1471.17,12.104L1472.69,12.104L1473.82,12.344L1474.96,11.985L1476.1,12.104L1477.24,12.344L1478.37,11.985L1479.52,11.506L1480.65,11.506L1482.17,11.385L1483.31,11.745L1484.45,11.865L1485.59,11.865L1486.72,11.506L1487.86,10.547L1489,10.067L1490.14,9.468L1491.65,8.749L1492.79,8.149L1493.93,7.071L1495.07,6.351L1496.21,5.632L1497.34,5.033L1498.48,4.913L1499.62,4.554L1501.14,4.194L1502.28,3.955L1503.42,3.714L1504.55,3.474L1505.69,3.235L1506.83,3.114L1507.97,2.876L1509.1,2.276L1510.62,1.916L1511.76,1.557L1512.9,1.316L1514.04,1.316L1515.17,1.196L1516.31,0.957L1517.45,0.837L1518.59,0.717L1520.11,0.717L1521.24,0.598L1522.39,0.478L1523.52,0.598L1526.94,0.598L1528.07,0.717L1529.59,0.478L1530.73,0.598L1531.87,0.717L1533.01,0.837L1534.14,0.957L1535.28,1.076L1536.42,1.196L1537.56,1.316L1539.08,1.436L1540.21,1.557L1541.35,1.677L1542.49,1.677L1543.63,1.797L1544.76,1.916L1545.9,2.037L1547.04,2.156L1549.7,2.156L1550.84,2.037L1551.98,2.037L1553.11,2.156L1554.25,2.037L1555.39,1.916L1556.53,1.916L1558.05,2.037L1559.18,2.037L1560.32,2.156L1563.73,2.156L1564.88,2.037L1566.01,2.037L1567.53,1.916L1568.67,1.916L1569.81,1.797L1572.08,1.797L1573.22,1.557L1574.36,1.196L1575.49,0.957L1577.02,0.598L1578.15,0.358L1579.29,-0.002L1580.43,-0.121L1581.57,-0.601L1582.7,-1.081L1583.84,-1.321L1584.98,-1.68L1586.5,-2.16L1587.63,-2.639L1588.78,-3.117L1589.91,-3.238L1591.05,-3.718L1592.18,-4.078L1593.33,-4.437L1594.46,-4.797L1595.98,-5.157L1597.12,-5.636L1598.26,-6.114L1599.4,-6.595L1600.53,-6.835L1601.67,-7.194L1602.81,-7.433L1603.95,-7.793L1605.47,-8.033L1606.6,-8.392L1607.75,-8.633L1608.88,-8.872L1610.02,-9.232L1611.15,-9.471L1612.29,-9.711L1613.43,-10.071L1614.95,-10.31L1616.08,-10.67L1617.23,-11.029L1618.36,-11.389L1619.5,-11.749L1620.63,-12.108L1621.78,-12.468L1622.91,-12.828L1624.43,-13.187L1625.57,-13.547L1626.71,-13.787L1627.85,-14.146L1628.98,-14.505L1630.12,-14.745L1631.26,-15.105L1632.4,-15.465L1633.92,-15.704L1635.05,-16.064L1636.19,-16.304L1637.33,-16.663L1638.47,-16.903L1639.6,-17.262L1640.75,-17.503L1641.88,-17.742L1643.4,-18.101L1644.54,-18.342L1645.68,-18.581L1646.82,-18.821L1647.95,-18.821L1649.09,-18.94" style="fill:none;fill-rule:nonzero;stroke:rgb(89,89,92);stroke-width:0.65px;"/>
        </g>
    </g>
</svg>
