<?xml version="1.0" encoding="UTF-8" standalone="no"?>
<!DOCTYPE svg PUBLIC "-//W3C//DTD SVG 1.1//EN" "http://www.w3.org/Graphics/SVG/1.1/DTD/svg11.dtd">
<svg width="100%" height="100%" viewBox="0 0 7377 1241" version="1.1" xmlns="http://www.w3.org/2000/svg" xmlns:xlink="http://www.w3.org/1999/xlink" xml:space="preserve" xmlns:serif="http://www.serif.com/" style="fill-rule:evenodd;clip-rule:evenodd;stroke-miterlimit:10;">
    <g transform="matrix(4.16667,0,0,4.16667,252.665,695.75)">
        <g id="depth-section" serif:id="depth section">
            <path d="M0,18.698L1.14,19.299L2.278,19.897L3.416,20.257L4.934,21.216L6.07,21.695L7.208,22.054L8.345,22.535L9.484,23.013L10.622,23.254L11.761,23.373L12.898,23.493L14.416,23.613L15.553,23.852L16.692,23.972L17.83,24.092L18.967,24.212L20.106,24.332L21.246,24.452L22.383,24.572L23.9,24.691L25.038,24.811L26.177,24.811L27.314,24.931L28.451,24.931L29.591,25.051L31.867,25.051L33.385,25.172L36.799,25.172L37.937,25.292L46.281,25.292L47.418,25.172L48.558,25.051L49.695,24.931L50.832,24.092L52.353,23.493L53.487,23.733L54.629,23.972L55.766,24.212L56.9,24.332L59.18,24.332L60.316,25.051L61.835,25.411L67.524,25.411L68.664,25.531L71.319,25.531L72.456,25.651L74.735,25.651L75.87,25.531L77.01,25.531L78.148,25.411L79.286,25.292L80.804,25.051L81.94,25.051L83.083,24.452L84.218,23.852L85.354,23.373L86.494,22.894L87.634,22.414L88.769,21.934L90.288,21.934L91.423,22.054L92.567,21.934L93.702,21.575L94.839,22.294L95.979,22.774L97.118,24.572L98.253,25.77L99.772,26.13L100.908,26.01L102.052,25.77L103.187,24.452L104.324,22.774L105.463,22.535L106.603,23.972L107.737,25.77L111.534,25.77L112.671,25.292L113.809,22.655L114.945,22.414L116.085,22.535L117.223,23.373L118.74,24.212L119.877,24.572L121.019,23.134L122.156,21.575L123.291,20.737L124.431,21.216L125.569,22.894L126.707,24.691L128.225,25.172L129.361,25.292L130.503,25.411L131.641,25.531L132.775,25.531L133.915,24.811L135.055,24.572L136.191,24.572L137.709,24.332L138.847,24.092L139.988,23.852L141.125,23.972L142.26,24.092L143.399,24.212L144.539,24.332L145.674,24.332L147.193,24.452L148.331,24.572L149.473,24.452L150.607,24.332L151.745,24.811L152.884,25.89L154.023,26.13L155.158,26.25L156.679,26.49L157.813,26.49L158.957,26.609L161.229,26.609L162.369,26.37L163.508,26.25L164.643,26.13L166.163,25.89L167.298,25.651L168.441,25.651L169.577,25.89L170.714,26.13L171.854,26.25L174.128,26.25L175.647,26.49L176.782,26.969L177.924,26.969L179.062,26.73L180.196,26.49L181.336,26.73L182.475,27.448L183.612,27.808L185.13,26.609L186.267,26.01L187.409,26.13L188.546,26.13L189.681,26.01L190.82,26.13L191.96,26.13L193.097,26.01L194.614,26.01L195.752,26.13L196.894,26.25L198.03,26.49L199.165,26.609L200.305,26.609L201.444,26.49L202.577,26.37L204.097,26.25L205.231,26.13L206.376,26.01L207.511,25.89L208.647,25.89L209.787,25.77L210.925,25.411L215.858,25.411L216.995,25.531L218.13,25.651L219.27,25.651L220.409,25.531L221.546,25.77L223.063,25.77L224.201,25.651L225.343,25.531L226.479,25.531L227.615,26.01L228.754,26.37L229.894,26.49L231.03,26.37L232.549,26.25L233.686,26.37L234.827,26.609L235.965,26.73L237.1,26.73L238.239,26.609L239.378,26.49L240.516,26.49L242.033,26.37L243.17,26.25L244.312,26.25L245.447,26.13L246.584,26.01L247.724,26.01L248.863,25.89L249.998,25.77L252.652,25.77L253.797,26.01L254.932,26.13L256.068,26.25L257.208,26.25L258.348,26.49L259.482,26.609L261.002,26.73L262.137,26.73L263.281,26.849L264.416,27.089L265.553,26.969L266.692,26.849L267.832,26.609L268.967,26.49L270.487,26.37L273.9,26.37L275.038,26.49L276.175,26.609L277.314,26.969L278.451,27.329L282.248,27.329L283.385,27.448L284.521,27.448L285.659,27.329L286.799,27.089L287.937,26.969L289.454,26.73L290.591,26.609L291.732,26.849L292.87,27.089L294.005,27.209L295.145,27.329L297.421,27.089L298.938,27.209L303.489,27.209L304.629,27.329L305.769,27.089L306.903,26.849L308.423,26.73L309.561,26.73L310.702,26.609L311.837,26.609L312.974,26.73L314.113,26.73L315.253,26.849L316.388,26.849L317.907,26.73L320.187,26.73L321.321,26.849L322.459,26.969L333.083,26.969L334.22,26.849L348.638,26.849L349.775,26.73L361.532,26.73L362.671,26.849L379.359,26.849L380.499,26.969L391.123,26.969L392.26,27.089L397.193,27.089L398.329,27.209L401.745,27.209L403.263,27.089L404.399,27.089L405.541,26.969L406.676,26.969L407.813,27.209L408.953,27.329L410.092,27.448L411.227,27.57L412.747,27.688L415.025,27.688L416.161,27.57L417.298,27.448L418.437,27.209L419.577,26.969L420.712,27.089L422.231,27.209L424.511,27.209L425.646,27.089L426.782,27.448L427.922,27.688L429.062,27.808L432.852,27.808L433.993,27.688L435.13,27.448L436.268,27.448L437.404,27.57L445.749,27.57L446.889,27.688L449.165,27.688L450.684,27.808L451.82,27.928L454.1,27.928L455.234,27.808L456.373,27.57L457.513,26.73L458.65,25.77L460.168,24.931L461.305,24.572L462.446,24.212L463.584,23.733L464.719,23.254L465.858,23.013L466.997,22.774L468.133,22.535L469.652,23.134L470.79,24.332L471.932,26.37L473.066,26.969L474.203,26.969L475.343,27.089L476.482,27.209L479.137,27.209L480.271,27.329L484.827,27.329L485.967,27.089L487.102,26.969L488.622,26.609L489.757,26.01L490.9,25.411L492.035,24.811L493.173,24.212L494.312,23.852L495.449,24.092L496.586,24.572L498.106,25.531L499.241,26.49L500.383,27.329L501.52,27.329L502.655,27.089L503.794,27.089L504.934,27.209L507.589,27.209L508.726,27.329L509.867,27.448L511.005,27.448L512.14,26.37L513.279,24.931L514.418,24.452L515.551,25.77L517.071,26.969L518.206,27.089L519.35,26.849L520.484,26.849L521.622,26.969L525.035,26.969L526.556,26.73L527.69,26.49L528.834,26.49L529.97,26.609L531.106,26.849L532.246,27.089L534.521,27.089L536.04,26.969L538.316,26.969L539.454,26.73L540.589,26.49L541.729,26.37L542.867,26.13L544.005,26.01L545.522,25.77L546.66,26.01L547.802,26.73L548.938,26.969L550.073,26.73L551.213,26.969L556.145,26.969L557.286,26.73L558.423,26.49L559.558,26.25L560.697,26.49L561.837,26.849L562.974,26.969L567.905,26.969L569.043,26.849L572.456,26.849L573.977,26.73L575.111,26.73L576.255,26.849L577.39,26.969L578.527,26.969L579.667,26.849L595.222,26.849L596.359,26.73L597.496,26.609L616.464,26.609L617.603,26.49L625.948,26.49L627.088,26.37L634.296,26.37L635.433,26.25L640.366,26.25L641.501,26.13L642.646,26.01L647.196,26.01L648.331,25.89L649.851,25.89L650.986,25.77L652.13,25.651L653.265,25.77L657.815,25.77L659.336,25.651L662.749,25.651L663.884,25.531L665.023,25.531L666.163,25.411L667.683,25.411L668.818,25.292L669.955,25.172L673.366,25.172L674.506,25.051L675.646,24.931L679.436,24.931L680.579,25.051L681.714,24.931L685.13,24.931L686.647,25.051L700.684,25.051L701.818,24.931L702.958,24.811L704.097,24.691L705.617,24.572L709.03,24.572L710.168,24.811L715.102,24.811L716.236,24.931L717.374,25.051L718.516,24.931L719.652,25.172L720.787,25.411L725.721,25.411L726.858,25.531L729.135,25.531L730.272,25.651L734.068,25.651L735.206,25.411L736.341,24.572L737.484,24.452L738.619,24.811L739.757,25.411L740.898,25.651L751.521,25.651L753.038,25.411L754.175,25.411L755.31,25.292L756.451,25.292L757.589,25.411L758.726,25.651L759.867,25.77L764.795,25.77L765.937,25.651L767.073,25.531L768.208,25.292L769.353,24.811L770.487,24.452L772.007,24.092L773.142,24.332L774.279,24.572L775.421,24.811L776.558,24.931L777.692,24.811L778.837,24.811L779.972,24.931L781.491,25.051L782.627,25.172L783.764,25.292L784.905,25.172L787.178,25.172L788.319,24.931L789.456,25.051L790.974,25.411L792.111,25.531L793.248,25.411L794.39,25.292L795.524,25.531L796.662,25.651L797.804,25.651L798.94,25.531L801.598,25.531L802.735,25.292L803.87,25.172L805.007,25.411L806.148,25.531L807.286,25.411L809.94,25.411L811.083,24.572L812.22,24.452L813.354,24.332L814.492,24.452L815.634,24.811L816.771,25.172L828.905,25.172L830.047,25.051L831.185,25.172L832.319,25.292L836.87,25.292L838.391,25.411L842.941,25.411L844.083,25.292L849.017,25.292L850.153,25.172L851.289,25.172L852.426,25.051L854.704,25.051L855.84,25.172L858.501,25.172L859.636,25.051L863.052,25.051L864.187,25.172L873.672,25.172L874.809,25.051L915.406,25.051L916.544,24.931L922.229,24.931L923.749,24.811L926.026,24.811L927.163,24.691L929.442,24.691L930.577,24.572L934.376,24.572L935.511,24.452L938.927,24.452L940.062,24.332L942.717,24.332L943.86,24.212L947.268,24.212L948.409,24.092L950.684,24.092L952.201,23.972L954.479,23.972L955.615,23.852L957.894,23.852L959.03,23.733L961.686,23.733L962.827,23.613L966.236,23.613L967.378,23.493L969.65,23.493L971.17,23.373L973.449,23.373L974.584,23.254L976.863,23.254L978,23.134L980.655,23.134L981.797,23.013L982.932,23.013L984.068,22.894L986.343,22.894L987.48,22.774L988.617,22.774L990.135,22.655L992.414,22.655L993.549,22.535L994.685,22.535L995.827,22.414L998.1,22.414L999.619,22.294L1000.76,22.294L1001.9,22.174L1004.17,22.174L1005.31,22.054L1006.45,21.934L1007.58,21.934L1009.1,21.814L1010.25,21.814L1011.38,21.695L1012.52,21.695L1013.65,21.575L1014.8,21.575L1015.93,21.455L1017.07,21.455L1018.59,21.336L1019.73,21.336L1020.87,21.216L1022,21.216L1023.14,21.095L1024.28,21.095L1025.42,20.976L1026.55,20.976L1028.07,20.856L1030.35,20.856L1031.49,20.737L1032.62,20.737L1033.77,20.616L1034.9,20.616L1036.04,20.497L1038.7,20.497L1039.84,20.377L1040.97,20.377L1042.11,20.257L1045.52,20.257L1047.04,20.137L1055.01,20.137L1056.53,20.017L1061.08,20.017L1062.22,19.897L1068.29,19.897L1069.42,19.777L1072.84,19.777L1073.97,19.658L1077.77,19.658L1078.91,19.538L1081.19,19.538L1082.32,19.418L1086.12,19.418L1087.26,19.299L1088.39,19.418L1094.46,19.418L1095.61,19.299L1101.29,19.299L1102.43,19.178L1105.09,19.178L1106.23,19.058L1107.36,18.939L1108.5,18.939L1109.64,18.819L1110.78,18.698L1111.91,18.698L1113.43,18.579L1114.57,18.579L1115.71,18.459L1116.84,18.459L1117.98,18.339L1121.39,18.339L1122.91,18.219L1124.06,18.099L1125.19,18.099L1126.33,17.979L1129.75,17.979L1130.88,17.859L1132.4,17.859L1133.54,17.74L1138.09,17.74L1139.23,17.619L1145.3,17.619L1146.43,17.5L1152.51,17.5L1153.64,17.38L1157.06,17.38L1158.19,17.261L1160.85,17.261L1161.99,17.14L1165.4,17.14L1166.54,17.02L1168.81,17.02L1170.33,16.901L1173.75,16.901L1174.88,16.781L1177.16,16.781L1178.3,16.661L1182.1,16.661L1183.23,16.542L1184.37,16.542L1185.51,16.422L1187.78,16.422L1189.3,16.302L1190.44,16.302L1191.58,16.182L1192.72,16.182L1193.85,16.061L1196.13,16.061L1197.27,15.941L1198.79,15.941L1199.93,15.821L1201.06,15.821L1202.2,15.701L1203.34,15.701L1204.48,15.582L1205.62,15.582L1206.75,15.462L1208.27,15.462L1209.41,15.342L1210.55,15.342L1211.69,15.222L1212.82,15.222L1213.96,15.102L1216.23,15.102L1217.75,14.983L1218.9,14.983L1220.03,14.863L1222.31,14.863L1223.45,14.743L1225.72,14.743L1227.24,14.623L1228.38,14.623L1229.52,14.504L1231.79,14.504L1232.93,14.384L1235.2,14.384L1236.72,14.264L1237.87,14.264L1239,14.144L1240.14,14.024L1241.27,14.024L1242.42,13.904L1243.55,13.904L1244.69,13.665L1246.21,13.544L1247.35,13.544L1248.48,13.424L1249.62,13.304L1251.9,13.304L1253.04,13.184L1254.17,13.064L1255.69,12.945L1256.83,12.945L1257.97,12.824L1259.11,12.704L1261.39,12.704L1262.52,12.586L1270.87,12.586L1272.01,12.466L1274.66,12.466L1275.8,12.345L1276.94,12.345L1278.07,12.226L1280.35,12.226L1281.49,12.106L1284.14,12.106L1285.29,11.986L1286.42,11.986L1287.56,11.387L1288.69,11.387L1289.84,11.267L1290.97,11.146L1292.11,11.026L1293.63,10.786L1294.77,10.667L1298.18,10.667L1299.32,10.547L1300.45,10.068L1301.59,10.068L1303.11,9.948L1304.25,9.829L1305.39,9.829L1306.53,9.708L1307.66,9.589L1308.8,9.469L1309.94,9.349L1311.08,9.229L1312.59,9.109L1313.74,9.109L1314.87,8.99L1316.01,8.869L1317.14,8.75L1318.29,8.629L1319.42,8.51L1320.56,8.389L1322.08,8.389L1323.22,8.27L1324.36,8.15L1325.49,8.03L1326.63,7.91L1327.77,7.79L1328.91,7.671L1330.04,7.55L1331.56,7.431L1332.7,7.311L1333.84,7.191L1334.98,7.071L1336.11,6.951L1337.26,6.832L1338.39,6.593L1339.53,6.352L1341.05,6.233L1342.19,6.112L1343.32,5.992L1344.46,5.753L1345.6,5.632L1346.74,5.513L1347.88,5.393L1349.01,5.153L1350.53,5.033L1351.67,4.913L1352.81,4.674L1353.95,4.553L1355.08,4.434L1356.23,4.315L1357.36,4.195L1358.5,4.074L1360.02,3.955L1361.16,3.836L1362.29,3.714L1363.43,3.475L1364.57,3.355L1365.71,3.235L1366.84,3.115L1367.98,2.995L1369.5,2.875L1370.64,2.756L1371.78,2.636L1372.91,2.396L1374.05,2.277L1375.19,2.156L1376.33,1.917L1377.46,1.797L1378.98,1.677L1380.12,1.438L1381.26,1.198L1382.4,1.077L1383.53,0.838L1384.68,0.598L1385.81,0.598L1387.33,0.358L1388.47,0.118L1389.61,-0.121L1390.75,-0.24L1391.88,-0.48L1393.02,-0.6L1394.16,-0.84L1395.3,-0.96L1396.82,-1.08L1397.95,-1.319L1399.1,-1.441L1400.23,-1.679L1401.37,-1.8L1402.5,-2.039L1403.65,-2.28L1404.78,-2.398L1406.3,-2.638L1407.44,-2.758L1408.58,-2.998L1409.71,-3.118L1410.85,-3.358L1411.99,-3.597L1413.13,-3.717L1414.27,-3.837L1415.79,-4.077L1416.92,-4.197L1418.06,-4.436L1419.2,-4.555L1420.34,-4.795L1421.47,-4.915L1422.61,-5.154L1423.75,-5.276L1425.27,-5.515L1426.4,-5.635L1427.55,-5.994L1428.68,-6.234L1429.82,-6.354L1430.95,-6.473L1432.1,-6.594L1433.23,-6.713L1434.75,-6.833L1435.89,-6.953L1437.03,-7.073L1438.17,-7.073L1439.3,-7.193L1440.44,-7.312L1441.58,-7.312L1442.72,-7.433L1445.37,-7.433L1446.52,-7.552L1449.92,-7.552L1451.07,-7.672L1453.72,-7.672L1454.85,-7.552L1456,-7.672L1463.2,-7.672L1464.34,-7.793L1472.69,-7.793L1473.82,-7.913L1483.31,-7.913L1484.45,-8.032L1486.72,-8.032L1487.86,-7.913L1495.07,-7.913L1496.21,-8.032L1545.9,-8.032L1547.04,-7.913L1562.6,-7.913L1563.73,-8.032L1581.57,-8.032L1582.7,-8.152L1592.18,-8.152L1593.33,-8.273L1601.67,-8.273L1602.81,-8.391L1607.75,-8.391L1608.88,-8.511L1614.95,-8.511L1616.08,-8.632L1620.63,-8.632L1621.78,-8.751L1626.71,-8.751L1627.85,-8.871L1633.92,-8.871L1635.05,-8.991L1639.6,-8.991L1640.75,-9.111L1645.68,-9.111L1646.82,-9.23L1649.09,-9.23" style="fill:none;fill-rule:nonzero;stroke:rgb(8,6,6);stroke-width:0.48px;"/>
        </g>
    </g>
</svg>
