<?xml version="1.0" encoding="UTF-8" standalone="no"?>
<!DOCTYPE svg PUBLIC "-//W3C//DTD SVG 1.1//EN" "http://www.w3.org/Graphics/SVG/1.1/DTD/svg11.dtd">
<svg width="100%" height="100%" viewBox="0 0 7377 1241" version="1.1" xmlns="http://www.w3.org/2000/svg" xmlns:xlink="http://www.w3.org/1999/xlink" xml:space="preserve" xmlns:serif="http://www.serif.com/" style="fill-rule:evenodd;clip-rule:evenodd;">
    <g transform="matrix(4.16667,0,0,4.16667,252.665,695.75)">
        <g id="depth-section" serif:id="depth section">
            <path d="M0,18.698L1.14,19.299L2.278,19.897L3.416,20.257L4.934,21.216L6.07,21.695L7.208,22.054L8.345,22.535L9.484,23.013L10.622,23.254L11.761,23.373L12.898,23.493L14.416,23.613L15.553,23.852L16.692,23.972L17.83,24.092L18.967,24.212L20.106,24.332L21.246,24.452L22.383,24.572L23.9,24.691L25.038,24.811L26.177,24.811L27.314,24.931L28.451,24.931L29.591,25.051L31.867,25.051L33.385,25.172L36.799,25.172L37.937,25.292L46.281,25.292L47.418,25.172L48.558,25.051L49.695,24.931L50.832,24.092L52.353,23.493L53.487,23.733L54.629,23.972L55.766,24.212L56.9,24.332L59.18,24.332L60.316,25.051L61.835,25.411L67.524,25.411L68.664,25.531L71.319,25.531L72.456,25.651L74.735,25.651L75.87,25.531L77.01,25.531L78.148,25.411L79.286,25.292L80.804,25.051L81.94,25.051L83.083,24.452L84.218,23.852L85.354,23.373L86.494,22.894L87.634,22.414L88.769,21.934L90.288,21.934L91.423,22.054L92.567,21.934L93.702,21.575L94.839,22.294L95.979,22.774L97.118,24.572L98.253,25.77L99.772,26.13L100.908,26.01L102.052,25.77L103.187,24.452L104.324,22.774L105.463,22.535L106.603,23.972L107.737,25.77L111.534,25.77L112.671,25.292L113.809,22.655L114.945,22.414L116.085,22.535L117.223,23.373L118.74,24.212L119.877,24.572L121.019,23.134L122.156,21.575L123.291,20.737L124.431,21.216L125.569,22.894L126.707,24.691L128.225,25.172L129.361,25.292L130.503,25.411L131.641,25.531L132.775,25.531L133.915,24.811L135.055,24.572L136.191,24.572L137.709,24.332L138.847,24.092L139.988,23.852L141.125,23.972L142.26,24.092L143.399,24.212L144.539,24.332L145.674,24.332L147.193,24.452L148.331,24.572L149.473,24.452L150.607,24.332L151.745,24.811L152.884,25.89L154.023,26.13L155.158,26.25L156.679,26.49L157.813,26.49L158.957,26.609L161.229,26.609L162.369,26.37L163.508,26.25L164.643,26.13L166.163,25.89L167.298,25.651L168.441,25.651L169.577,25.89L170.714,26.13L171.854,26.25L174.128,26.25L175.647,26.49L176.782,26.969L177.924,26.969L179.062,26.73L180.196,26.49L181.336,26.73L182.475,27.448L183.612,27.808L185.13,26.609L186.267,26.01L187.409,26.13L188.546,26.13L189.681,26.01L190.82,26.13L191.96,26.13L193.097,26.01L194.614,26.01L195.752,26.13L196.894,26.25L198.03,26.49L199.165,26.609L200.305,26.609L201.444,26.49L202.577,26.37L204.097,26.25L205.231,26.13L206.376,26.01L207.511,25.89L208.647,25.89L209.787,25.77L210.925,25.411L215.858,25.411L216.995,25.531L218.13,25.651L219.27,25.651L220.409,25.531L221.546,25.77L223.063,25.77L224.201,25.651L225.343,25.531L226.479,25.531L227.615,26.01L228.754,26.37L229.894,26.49L231.03,26.37L232.549,26.25L233.686,26.37L234.827,26.609L235.965,26.73L237.1,26.73L238.239,26.609L239.378,26.49L240.516,26.49L242.033,26.37L243.17,26.25L244.312,26.25L245.447,26.13L246.584,26.01L247.724,26.01L248.863,25.89L249.998,25.77L252.652,25.77L253.797,26.01L254.932,26.13L256.068,26.25L257.208,26.25L258.348,26.49L259.482,26.609L261.002,26.73L262.137,26.73L263.281,26.849L264.416,27.089L265.553,26.969L266.692,26.849L267.832,26.609L268.967,26.49L270.487,26.37L273.9,26.37L275.038,26.49L276.175,26.609L277.314,26.969L278.451,27.329L282.248,27.329L283.385,27.448L284.521,27.448L285.659,27.329L286.799,27.089L287.937,26.969L289.454,26.73L290.591,26.609L291.732,26.849L292.87,27.089L294.005,27.209L295.145,27.329L297.421,27.089L298.938,27.209L303.489,27.209L304.629,27.329L305.769,27.089L306.903,26.849L308.423,26.73L309.561,26.73L310.702,26.609L311.837,26.609L312.974,26.73L314.113,26.73L315.253,26.849L316.388,26.849L317.907,26.73L320.187,26.73L321.321,26.849L322.459,26.969L333.083,26.969L334.22,26.849L348.638,26.849L349.775,26.73L361.532,26.73L362.671,26.849L379.359,26.849L380.499,26.969L391.123,26.969L392.26,27.089L397.193,27.089L398.329,27.209L401.745,27.209L403.263,27.089L404.399,27.089L405.541,26.969L406.676,26.969L407.813,27.209L408.953,27.329L410.092,27.448L411.227,27.57L412.747,27.688L415.025,27.688L416.161,27.57L417.298,27.448L418.437,27.209L419.577,26.969L420.712,27.089L422.231,27.209L424.511,27.209L425.646,27.089L426.782,27.448L427.922,27.688L429.062,27.808L432.852,27.808L433.993,27.688L435.13,27.448L436.268,27.448L437.404,27.57L445.749,27.57L446.889,27.688L449.165,27.688L450.684,27.808L451.82,27.928L454.1,27.928L455.234,27.808L456.373,27.57L457.513,26.73L458.65,25.77L460.168,24.931L461.305,24.572L462.446,24.212L463.584,23.733L464.719,23.254L465.858,23.013L466.997,22.774L468.133,22.535L469.652,23.134L470.79,24.332L471.932,26.37L473.066,26.969L474.203,26.969L475.343,27.089L476.482,27.209L479.137,27.209L480.271,27.329L484.827,27.329L485.967,27.089L487.102,26.969L488.622,26.609L489.757,26.01L490.9,25.411L492.035,24.811L493.173,24.212L494.312,23.852L495.449,24.092L496.586,24.572L498.106,25.531L499.241,26.49L500.383,27.329L501.52,27.329L502.655,27.089L503.794,27.089L504.934,27.209L507.589,27.209L508.726,27.329L509.867,27.448L511.005,27.448L512.14,26.37L513.279,24.931L514.418,24.452L515.551,25.77L517.071,26.969L518.206,27.089L519.35,26.849L520.484,26.849L521.622,26.969L525.035,26.969L526.556,26.73L527.69,26.49L528.834,26.49L529.97,26.609L531.106,26.849L532.246,27.089L534.521,27.089L536.04,26.969L538.316,26.969L539.454,26.73L540.589,26.49L541.729,26.37L542.867,26.13L544.005,26.01L545.522,25.77L546.66,26.01L547.802,26.73L548.938,26.969L550.073,26.73L551.213,26.969L556.145,26.969L557.286,26.73L558.423,26.49L559.558,26.25L560.697,26.49L561.837,26.849L562.974,26.969L567.905,26.969L569.043,26.849L572.456,26.849L573.977,26.73L575.111,26.73L576.255,26.849L577.39,26.969L578.527,26.969L579.667,26.849L594.08,26.849L595.222,26.969L596.359,27.089L608.118,27.089L609.258,26.969L610.395,27.089L611.912,27.089L613.05,26.969L621.397,26.969L622.534,26.849L634.296,26.849L635.433,26.73L638.847,26.73L640.366,26.609L641.501,26.609L642.646,26.49L643.78,26.37L647.196,26.37L648.331,26.49L649.851,26.49L650.986,26.609L656.679,26.609L657.815,26.49L659.336,26.49L660.471,26.37L661.612,26.37L662.749,26.25L663.884,26.13L665.023,26.13L666.163,26.01L667.683,26.01L668.818,25.89L671.097,25.89L672.229,25.77L675.646,25.77L677.163,25.651L681.714,25.651L682.852,25.531L685.13,25.531L686.647,25.651L687.785,25.77L696.133,25.77L697.27,25.651L698.404,25.651L699.546,25.531L700.684,25.411L701.818,25.051L702.958,24.811L704.097,24.691L705.617,24.572L709.03,24.572L710.168,24.811L715.102,24.811L716.236,24.931L717.374,25.051L718.516,24.931L719.652,25.172L720.787,25.411L721.929,25.651L723.066,25.77L724.586,25.89L725.721,26.01L726.858,26.01L728,26.13L729.135,26.25L730.272,26.13L731.414,26.13L732.551,26.01L734.068,25.89L735.206,25.411L736.341,24.572L737.484,24.452L738.619,24.811L739.757,25.411L740.898,25.89L742.035,25.89L743.553,26.01L744.69,26.13L748.104,26.13L749.241,26.01L750.383,26.01L751.521,25.651L753.038,25.411L754.175,25.411L755.31,25.292L756.451,25.292L757.589,25.411L758.726,26.13L759.867,26.49L763.657,26.49L764.795,26.13L765.937,25.651L767.073,25.531L768.208,25.292L769.353,24.811L770.487,24.452L772.007,24.092L773.142,24.332L774.279,24.572L775.421,24.811L776.558,24.931L777.692,24.811L778.837,24.811L779.972,24.931L781.491,25.051L782.627,25.172L783.764,25.292L784.905,25.172L787.178,25.172L788.319,24.931L789.456,25.051L790.974,25.411L792.111,25.531L793.248,25.411L794.39,25.292L795.524,25.651L796.662,26.01L797.804,26.25L798.94,26.25L800.456,26.13L801.598,25.77L802.735,25.292L803.87,25.172L805.007,25.531L806.148,25.89L807.286,26.01L808.421,26.01L809.94,25.411L811.083,24.572L812.22,24.452L813.354,24.332L814.492,24.691L815.634,25.292L816.771,25.531L819.426,25.531L820.567,25.651L821.702,25.651L822.839,25.77L825.118,25.77L826.253,25.89L828.905,25.89L830.047,25.77L831.185,25.77L832.319,25.89L833.456,26.13L839.532,26.13L840.669,26.01L847.875,26.01L849.017,25.89L858.501,25.89L859.636,25.77L861.91,25.77L863.052,25.651L864.187,25.651L865.324,25.531L866.842,25.651L870.258,25.651L871.393,25.77L872.536,25.77L873.672,25.651L874.809,25.531L876.326,25.411L877.471,25.531L878.605,25.651L882.021,25.651L883.156,25.531L888.09,25.531L889.227,25.651L892.641,25.651L893.775,25.531L904.78,25.531L905.922,25.411L912.745,25.411L914.265,25.292L916.544,25.292L917.679,25.172L923.749,25.172L924.892,25.051L936.647,25.051L937.782,24.931L940.062,24.931L941.198,24.811L943.86,24.811L944.995,24.691L947.268,24.691L948.409,24.572L949.546,24.572L950.684,24.452L952.201,24.452L953.343,24.332L955.615,24.332L956.752,24.212L957.894,24.092L960.166,24.092L961.686,23.972L979.135,23.972L980.655,23.852L981.797,23.852L982.932,23.733L984.068,23.733L985.201,23.613L986.343,23.613L987.48,23.733L988.617,23.493L991.276,23.493L992.414,23.613L993.549,23.493L994.685,23.373L1010.25,23.373L1011.38,23.254L1015.93,23.254L1017.07,23.134L1018.59,23.134L1019.73,23.013L1020.87,23.013L1022,22.894L1023.14,22.894L1024.28,22.774L1025.42,22.774L1026.55,22.655L1030.35,22.655L1031.49,22.535L1032.62,22.414L1033.77,22.294L1034.9,22.174L1036.04,22.174L1037.56,22.054L1042.11,22.054L1043.25,21.934L1044.39,21.934L1045.52,22.054L1049.32,22.054L1050.46,21.934L1051.59,21.934L1052.73,21.814L1055.01,21.814L1056.53,21.695L1057.67,21.575L1059.94,21.575L1061.08,21.695L1062.22,21.455L1063.35,21.455L1064.49,21.336L1066.01,21.455L1067.15,21.575L1068.29,21.336L1069.42,21.216L1070.56,21.216L1071.7,21.095L1072.84,21.095L1073.97,21.216L1075.49,21.216L1076.64,21.336L1077.77,21.216L1078.91,21.216L1080.05,21.095L1081.19,21.216L1082.32,21.216L1083.46,21.095L1084.98,21.095L1086.12,21.216L1087.26,20.976L1088.39,20.856L1089.53,20.737L1090.67,20.616L1094.46,20.616L1095.61,20.497L1099.01,20.497L1100.16,20.377L1101.29,20.257L1102.43,20.137L1103.94,20.257L1105.09,20.017L1106.23,20.137L1107.36,20.017L1108.5,20.017L1109.64,19.897L1110.78,19.897L1111.91,19.658L1113.43,19.538L1121.39,19.538L1122.91,19.299L1126.33,19.299L1127.47,19.178L1128.61,19.058L1129.75,18.939L1130.88,18.698L1132.4,18.939L1133.54,18.819L1134.68,18.939L1135.81,19.058L1138.09,19.058L1139.23,19.178L1143.02,19.178L1144.16,19.299L1145.3,19.418L1146.43,19.418L1147.57,19.299L1149.85,19.299L1151.36,19.178L1152.51,19.299L1153.64,19.299L1154.78,19.418L1155.91,19.299L1157.06,19.299L1158.19,19.058L1159.33,19.058L1160.85,19.178L1161.99,19.058L1163.13,18.939L1164.26,19.058L1165.4,18.939L1167.68,18.939L1168.81,19.058L1170.33,19.058L1171.48,19.178L1172.61,19.178L1173.75,19.058L1174.88,19.058L1176.03,19.178L1177.16,19.299L1178.3,19.058L1180.96,19.058L1182.1,18.939L1183.23,19.058L1184.37,18.939L1185.51,19.058L1186.65,18.819L1187.78,18.698L1189.3,18.698L1190.44,18.819L1191.58,18.939L1192.72,19.058L1193.85,19.058L1195,19.178L1196.13,19.178L1197.27,19.299L1198.79,19.418L1204.48,19.418L1205.62,19.538L1230.65,19.538L1231.79,19.418L1234.07,19.418L1235.2,19.538L1239,19.538L1240.14,19.658L1241.27,19.777L1242.42,19.897L1243.55,19.897L1244.69,20.017L1247.35,20.017L1248.48,19.897L1250.76,19.897L1251.9,19.777L1256.83,19.777L1257.97,19.658L1259.11,19.658L1260.24,19.538L1261.39,19.538L1262.52,19.418L1263.66,19.299L1265.17,19.178L1266.32,19.058L1267.45,18.939L1268.59,18.819L1269.73,18.819L1270.87,18.698L1272.01,18.579L1273.14,18.459L1274.66,18.459L1275.8,18.339L1276.94,18.219L1278.07,18.219L1279.21,18.099L1280.35,18.099L1281.49,17.979L1284.14,17.979L1285.29,17.859L1286.42,17.859L1287.56,18.099L1295.91,18.099L1297.04,17.979L1298.18,17.859L1300.45,17.859L1301.59,17.5L1303.11,17.619L1304.25,17.38L1305.39,17.619L1308.8,17.619L1309.94,17.5L1312.59,17.5L1313.74,17.38L1314.87,17.261L1318.29,17.261L1319.42,17.14L1320.56,17.02L1322.08,17.02L1323.22,16.901L1326.63,16.901L1327.77,16.781L1331.56,16.781L1332.7,16.661L1333.84,16.542L1336.11,16.542L1337.26,16.422L1338.39,16.542L1339.53,16.422L1341.05,16.302L1342.19,16.182L1343.32,16.061L1344.46,16.061L1345.6,15.941L1346.74,15.941L1347.88,15.821L1349.01,16.061L1350.53,16.302L1351.67,16.542L1352.81,16.661L1353.95,16.542L1355.08,16.901L1357.36,16.901L1358.5,16.781L1360.02,16.781L1361.16,16.542L1362.29,16.302L1363.43,16.182L1364.57,16.061L1365.71,16.302L1366.84,16.542L1367.98,16.061L1369.5,15.941L1370.64,16.061L1371.78,15.821L1372.91,15.582L1374.05,14.863L1375.19,14.144L1376.33,13.784L1377.46,13.304L1378.98,13.184L1380.12,13.184L1381.26,13.304L1384.68,13.304L1385.81,13.184L1387.33,12.945L1388.47,12.824L1389.61,12.945L1390.75,12.945L1391.88,13.064L1394.16,13.064L1395.3,12.945L1396.82,12.824L1397.95,12.704L1399.1,12.466L1400.23,12.226L1401.37,12.106L1402.5,11.866L1403.65,11.866L1404.78,11.747L1406.3,11.747L1407.44,11.626L1408.58,11.387L1409.71,11.267L1413.13,11.267L1414.27,11.146L1415.79,11.146L1416.92,11.026L1418.06,10.786L1419.2,10.547L1420.34,10.308L1421.47,10.068L1422.61,9.708L1423.75,9.229L1425.27,8.629L1426.4,8.03L1427.55,8.03L1428.68,7.79L1429.82,7.79L1430.95,7.91L1433.23,7.91L1434.75,8.03L1435.89,8.03L1437.03,7.79L1438.17,7.55L1439.3,7.071L1440.44,6.352L1441.58,5.513L1442.72,5.753L1444.24,5.513L1445.37,5.153L1446.52,4.793L1447.65,4.553L1449.92,4.553L1451.07,4.315L1452.2,3.836L1454.85,3.836L1456,4.793L1457.13,5.273L1458.27,5.033L1459.4,5.153L1460.55,4.553L1461.68,4.074L1463.2,5.513L1464.34,7.191L1465.48,4.913L1466.62,5.513L1467.75,5.632L1468.89,5.153L1470.03,5.033L1471.17,4.913L1472.69,4.434L1473.82,4.074L1474.96,3.836L1476.1,3.596L1477.24,3.355L1478.37,2.875L1479.52,2.636L1480.65,2.396L1482.17,1.917L1483.31,1.198L1484.45,0.717L1485.59,-0.001L1487.86,-1.679L1489,-2.518L1490.14,-3.477L1491.65,-4.795L1492.79,-5.635L1493.93,-6.114L1495.07,-6.234L1496.21,-6.354L1497.34,-6.473L1498.48,-6.713L1499.62,-6.713L1501.14,-6.833L1503.42,-6.833L1504.55,-6.953L1505.69,-6.953L1506.83,-7.073L1507.97,-7.073L1509.1,-7.193L1511.76,-7.193L1512.9,-7.312L1518.59,-7.312L1520.11,-7.433L1525.8,-7.433L1526.94,-7.552L1529.59,-7.552L1530.73,-7.672L1533.01,-7.672L1534.14,-7.552L1535.28,-7.552L1536.42,-7.433L1539.08,-7.433L1540.21,-7.552L1550.84,-7.552L1551.98,-7.672L1555.39,-7.672L1556.53,-7.793L1573.22,-7.793L1574.36,-7.913L1584.98,-7.913L1586.5,-8.032L1598.26,-8.032L1599.4,-8.152L1602.81,-8.152L1603.95,-8.273L1606.6,-8.273L1607.75,-8.391L1610.02,-8.391L1611.15,-8.511L1614.95,-8.511L1616.08,-8.632L1620.63,-8.632L1621.78,-8.751L1626.71,-8.751L1627.85,-8.871L1633.92,-8.871L1635.05,-8.991L1639.6,-8.991L1640.75,-9.111L1645.68,-9.111L1646.82,-9.23L1649.09,-9.23" style="fill:none;fill-rule:nonzero;stroke:rgb(89,89,92);stroke-width:0.65px;"/>
        </g>
    </g>
</svg>
