<?xml version="1.0" encoding="UTF-8" standalone="no"?>
<!DOCTYPE svg PUBLIC "-//W3C//DTD SVG 1.1//EN" "http://www.w3.org/Graphics/SVG/1.1/DTD/svg11.dtd">
<svg width="100%" height="100%" viewBox="0 0 7377 1241" version="1.1" xmlns="http://www.w3.org/2000/svg" xmlns:xlink="http://www.w3.org/1999/xlink" xml:space="preserve" xmlns:serif="http://www.serif.com/" style="fill-rule:evenodd;clip-rule:evenodd;">
    <g transform="matrix(4.16667,0,0,4.16667,252.665,726.721)">
        <g id="depth-section" serif:id="depth section">
            <path d="M0,11.265L1.14,12.944L2.278,13.783L3.416,14.501L4.934,15.102L6.07,15.821L7.208,16.539L8.345,17.258L9.484,17.739L10.622,18.337L11.761,18.577L12.898,18.937L14.416,19.176L15.553,19.416L16.692,19.776L17.83,19.896L18.967,20.137L20.106,20.255L21.246,20.375L23.9,20.375L25.038,20.495L26.177,20.495L27.314,20.615L28.451,20.615L29.591,20.735L30.729,20.735L31.867,20.855L33.385,20.855L34.522,20.975L35.662,21.095L36.799,21.095L37.937,21.215L39.073,21.215L40.213,21.334L41.353,21.454L42.867,21.454L44.007,21.574L45.146,21.694L46.281,21.814L47.418,21.814L48.558,19.416L49.695,17.618L50.832,16.779L52.353,16.06L53.487,16.3L54.629,16.539L55.766,16.779L56.9,16.899L59.18,16.899L60.316,17.618L61.835,17.978L62.972,18.218L64.113,18.337L65.251,18.457L66.386,18.937L67.524,20.015L68.664,20.615L69.802,20.615L71.319,20.735L72.456,20.615L74.735,20.615L75.87,20.855L77.01,21.454L78.148,21.454L79.286,21.334L80.804,21.454L81.94,21.454L83.083,19.297L84.218,16.419L85.354,15.94L86.494,15.461L87.634,14.981L88.769,14.501L90.288,14.501L91.423,14.621L92.567,14.501L93.702,14.142L94.839,14.861L95.979,15.341L97.118,17.139L98.253,19.057L99.772,21.454L100.908,21.334L102.052,19.057L103.187,17.019L104.324,15.341L105.463,15.102L106.603,16.539L107.737,19.297L109.258,20.855L110.393,21.574L111.534,21.334L112.671,17.859L113.809,15.222L114.945,14.981L116.085,15.102L117.223,15.94L118.74,16.779L119.877,17.139L121.019,15.701L122.156,14.142L123.291,13.304L124.431,13.783L125.569,15.461L126.707,17.258L128.225,18.937L129.361,19.057L130.503,19.176L131.641,18.457L132.775,18.098L133.915,17.378L135.055,17.139L136.191,17.139L137.709,17.618L138.847,18.697L139.988,19.536L141.125,19.536L142.26,19.656L143.399,19.416L144.539,19.297L145.674,19.416L147.193,19.416L148.331,19.776L149.473,20.137L150.607,20.615L151.745,20.735L152.884,20.615L154.023,20.975L155.158,21.334L156.679,21.694L157.813,22.173L158.957,22.412L160.092,22.653L161.229,22.773L162.369,22.653L163.508,22.653L164.643,21.574L166.163,20.255L167.298,20.137L168.441,20.855L169.577,21.334L170.714,22.173L171.854,22.412L172.99,22.293L174.128,21.694L175.647,21.814L176.782,22.054L177.924,23.013L179.062,23.732L180.196,23.133L181.336,21.574L182.475,22.054L183.612,21.933L185.13,19.176L186.267,19.176L187.409,21.215L188.546,21.454L189.681,21.454L190.82,21.574L191.96,20.975L193.097,20.615L194.614,21.334L195.752,21.454L196.894,21.334L198.03,21.095L199.165,20.855L200.305,20.855L201.444,20.975L202.577,20.975L204.097,20.735L205.231,20.495L206.376,20.375L207.511,20.495L208.647,20.615L209.787,20.615L210.925,20.255L212.062,20.015L213.581,20.137L214.717,20.015L215.858,20.015L216.995,20.735L218.13,20.735L219.27,20.615L223.063,20.615L224.201,20.375L225.343,20.255L226.479,20.015L227.615,20.015L228.754,20.615L229.894,21.694L231.03,20.975L232.549,20.495L233.686,21.334L234.827,21.814L235.965,21.574L237.1,21.095L239.378,20.855L240.516,20.735L242.033,20.615L243.17,20.615L244.312,20.495L247.724,20.495L248.863,20.735L249.998,20.975L251.518,20.615L252.652,20.615L253.797,21.095L254.932,21.215L256.068,21.095L257.208,21.095L258.348,21.334L259.482,21.814L261.002,21.694L262.137,21.334L263.281,21.454L264.416,22.173L265.553,22.412L266.692,22.173L267.832,21.574L268.967,21.574L270.487,21.334L271.622,21.095L272.764,20.855L273.9,20.855L275.038,21.095L277.314,21.095L278.451,21.694L279.97,22.412L281.106,21.814L282.248,21.933L283.385,21.334L284.521,20.735L285.659,21.574L286.799,21.574L287.937,21.454L289.454,21.454L290.591,20.495L291.732,21.095L292.87,21.215L294.005,21.215L295.145,21.694L296.283,21.694L297.421,21.814L298.938,22.412L300.075,22.173L301.218,21.814L302.354,22.293L303.489,22.533L304.629,22.173L305.769,21.933L306.903,22.173L308.423,22.293L309.561,22.054L310.702,21.933L311.837,21.814L312.974,21.933L315.253,21.933L316.388,22.412L317.907,22.533L319.043,22.293L320.187,22.173L321.321,22.173L322.459,22.293L323.598,22.412L325.872,22.412L327.393,22.533L331.943,22.533L333.083,22.653L335.357,22.653L336.877,22.533L344.842,22.533L346.359,22.412L354.326,22.412L355.844,22.293L361.532,22.293L362.671,22.173L367.605,22.173L368.74,22.054L374.811,22.054L375.945,22.173L377.088,22.293L378.225,22.412L379.359,22.533L380.499,22.533L381.639,22.412L382.775,22.293L385.431,22.293L386.572,22.412L387.709,22.533L388.844,22.653L391.123,22.653L392.26,22.773L393.777,22.653L397.193,22.653L398.329,22.533L403.263,22.533L404.399,22.412L406.676,22.412L407.813,22.173L408.953,22.054L410.092,21.933L411.227,21.814L413.882,21.814L415.025,21.933L416.161,21.933L417.298,22.054L418.437,22.054L419.577,22.173L420.712,21.933L422.231,21.933L423.366,22.173L429.062,22.173L430.196,22.293L431.716,22.412L432.852,22.533L433.993,22.412L435.13,22.173L436.268,21.933L437.404,21.933L438.544,22.054L444.614,22.054L445.749,21.933L446.889,21.933L448.028,22.054L449.165,22.173L450.684,22.293L451.82,22.412L452.962,22.412L454.1,22.653L455.234,22.653L456.373,22.533L457.513,19.297L458.65,18.337L460.168,17.498L461.305,17.139L462.446,16.779L463.584,16.3L464.719,15.821L465.858,15.58L466.997,15.341L468.133,15.102L469.652,15.701L470.79,16.899L471.932,18.937L473.066,20.375L474.203,20.615L475.343,20.855L476.482,21.095L477.617,21.334L479.137,21.814L480.271,22.293L481.416,22.412L482.551,22.293L483.687,22.173L484.827,22.054L485.967,21.933L487.102,21.095L488.622,20.137L489.757,19.297L490.9,18.937L492.035,18.697L493.173,18.577L494.312,18.337L495.449,18.218L496.586,18.098L498.106,18.817L499.241,19.776L500.383,20.735L501.52,21.814L502.655,22.173L503.794,21.933L504.934,21.694L506.071,22.173L507.589,22.773L508.726,22.293L509.867,21.933L511.005,20.495L512.14,18.937L513.279,17.739L514.418,17.859L515.551,18.457L517.071,19.536L518.206,21.095L519.35,21.215L520.484,21.814L521.622,21.814L522.762,21.933L523.9,22.293L525.035,22.293L526.556,21.095L527.69,21.095L528.834,21.334L531.106,21.334L532.246,22.293L533.383,22.533L534.521,22.533L536.04,22.412L537.175,22.293L538.316,21.933L539.454,21.933L540.589,21.814L541.729,21.574L542.867,21.334L544.005,21.095L545.522,20.615L546.66,20.495L547.802,20.615L548.938,20.975L550.073,21.215L551.213,21.334L552.353,21.933L553.489,22.054L555.007,21.694L556.145,21.215L557.286,20.855L558.423,20.975L559.558,21.454L560.697,21.215L561.837,21.334L562.974,21.694L564.492,22.173L565.629,22.533L566.771,22.173L567.905,21.933L569.043,22.412L570.182,22.412L571.321,22.173L572.456,21.814L573.977,21.814L575.111,22.173L576.255,22.412L577.39,22.653L578.527,22.893L579.667,22.893L580.806,23.013L585.74,23.013L586.875,22.533L588.012,22.054L589.151,22.412L590.291,22.893L591.426,23.013L592.945,23.013L594.08,22.773L595.222,22.533L596.359,22.533L597.496,23.013L598.634,23.133L599.773,22.653L600.91,22.773L602.428,23.133L603.565,23.013L611.912,23.013L613.05,22.893L616.464,22.893L617.603,22.773L618.742,22.773L619.88,22.653L621.397,22.773L622.534,22.773L623.676,22.893L624.813,22.893L625.948,23.013L627.088,22.893L628.227,22.773L629.361,22.533L630.882,22.412L632.019,22.293L641.501,22.293L642.646,22.054L643.78,21.694L644.917,21.334L646.057,21.215L647.196,21.215L648.331,20.975L649.851,20.615L650.986,20.255L653.265,20.255L654.402,20.495L655.541,20.855L656.679,20.975L657.815,20.615L659.336,20.375L660.471,20.495L661.612,20.137L662.749,20.015L663.884,20.255L665.023,20.375L666.163,20.495L667.683,20.615L668.818,20.495L669.955,20.495L671.097,20.615L672.229,20.735L673.366,20.855L675.646,21.095L677.163,21.095L678.301,20.975L679.436,20.975L680.579,20.855L681.714,20.495L682.852,20.137L683.99,19.776L685.13,19.896L686.647,20.255L687.785,20.615L688.92,20.615L690.063,20.735L691.198,20.615L692.336,20.375L693.476,20.137L694.612,20.137L696.133,20.255L697.27,20.375L698.404,20.255L699.546,20.137L700.684,19.776L701.818,19.416L702.958,19.176L704.097,18.817L705.617,19.176L706.752,19.057L707.889,18.937L709.03,19.057L711.303,19.057L712.446,18.937L713.582,18.817L715.102,18.937L716.236,19.297L717.374,19.536L718.516,19.297L719.652,19.536L720.787,19.896L721.929,20.137L723.066,19.656L724.586,19.297L725.721,19.416L726.858,19.656L728,19.896L729.135,20.255L730.272,20.495L731.414,20.615L732.551,20.495L734.068,20.375L735.206,19.776L736.341,19.297L737.484,19.057L738.619,19.656L739.757,20.855L740.898,21.694L742.035,22.412L743.553,22.773L744.69,23.133L745.825,23.492L746.969,23.372L748.104,23.133L749.241,22.533L750.383,21.694L751.521,20.615L753.038,19.896L754.175,19.896L755.31,19.656L756.451,19.656L757.589,20.137L758.726,20.615L759.867,21.095L761.002,21.694L762.522,21.933L763.657,21.814L764.795,20.975L765.937,20.375L767.073,20.375L768.208,20.015L769.353,19.297L770.487,18.577L772.007,18.937L773.142,19.176L774.279,19.536L775.421,19.776L776.558,19.896L777.692,19.656L778.837,19.416L779.972,19.776L781.491,20.375L782.627,20.015L783.764,19.776L784.905,19.896L786.043,19.896L787.178,19.776L788.319,19.656L789.456,19.656L790.974,19.896L792.111,20.255L793.248,20.137L794.39,19.536L795.524,18.817L796.662,19.656L797.804,20.975L798.94,22.054L800.456,21.334L801.598,20.735L802.735,20.615L803.87,20.137L805.007,20.137L806.148,20.615L807.286,21.215L808.421,20.855L809.94,19.536L811.083,18.098L812.22,18.697L813.354,19.057L814.492,18.817L815.634,19.297L816.771,20.375L817.905,20.615L819.426,20.375L820.567,19.656L821.702,19.536L822.839,20.255L823.977,20.975L825.118,21.215L826.253,20.855L827.391,20.137L828.905,19.896L830.047,20.137L831.185,20.255L832.319,20.375L833.456,20.615L834.599,20.855L835.735,20.975L836.87,21.095L838.391,21.574L839.532,21.933L840.669,22.293L841.804,22.173L844.083,22.173L845.22,22.773L846.354,23.133L847.875,23.372L849.017,23.372L850.153,23.492L851.289,22.773L852.426,22.173L853.567,21.574L854.704,21.694L855.84,22.773L857.359,23.133L858.501,23.133L859.636,22.653L860.773,21.933L861.91,21.694L863.052,22.412L864.187,21.933L865.324,21.334L866.842,21.574L867.985,21.694L869.121,21.694L870.258,21.814L871.393,22.054L872.536,22.173L873.672,20.975L874.809,19.536L876.326,18.457L877.471,20.375L878.605,22.054L880.877,22.054L882.021,22.173L884.293,22.173L885.811,22.293L888.09,22.293L889.227,22.412L898.709,22.412L899.847,22.533L900.988,22.533L902.125,22.653L904.78,22.653L905.922,22.173L907.059,21.694L908.194,21.215L909.331,20.615L910.473,21.454L911.61,21.574L912.745,21.694L914.265,22.533L915.406,22.653L916.544,22.533L917.679,22.054L918.815,21.574L919.957,20.735L921.093,21.095L922.229,21.574L923.749,21.334L924.892,21.454L926.026,21.574L927.163,21.574L928.298,20.975L929.442,20.735L930.577,20.375L931.714,20.615L933.231,20.975L934.376,21.334L935.511,21.574L936.647,21.454L937.782,21.454L938.927,21.694L940.062,21.694L941.198,21.574L942.717,21.574L943.86,21.694L944.995,21.694L946.133,21.574L947.268,21.454L948.409,21.215L949.546,21.095L950.684,21.454L952.201,21.814L953.343,21.933L954.479,21.933L955.615,21.215L956.752,20.015L957.894,20.375L959.03,21.334L960.166,21.694L965.1,21.694L966.236,21.814L974.584,21.814L975.721,21.933L980.655,21.933L981.797,22.054L986.343,22.054L987.48,22.173L992.414,22.173L993.549,22.293L996.965,22.293L998.1,22.412L1001.9,22.412L1003.03,22.533L1006.45,22.533L1007.58,22.653L1009.1,22.653L1010.25,22.773L1012.52,22.773L1013.65,22.893L1015.93,22.893L1017.07,23.013L1019.73,23.013L1020.87,23.133L1023.14,23.133L1024.28,23.252L1026.55,23.252L1028.07,23.372L1030.35,23.372L1031.49,23.492L1033.77,23.492L1034.9,23.612L1037.56,23.612L1038.7,23.732L1040.97,23.732L1042.11,23.852L1043.25,23.732L1044.39,24.33L1045.52,24.571L1047.04,24.69L1048.18,24.81L1049.32,24.571L1050.46,24.451L1051.59,24.69L1052.73,24.212L1053.87,23.852L1055.01,23.612L1056.53,24.212L1057.67,23.972L1058.8,23.612L1059.94,24.451L1061.08,24.69L1062.22,24.33L1063.35,24.212L1064.49,24.33L1066.01,24.212L1067.15,24.69L1068.29,24.69L1069.42,24.451L1070.56,23.612L1071.7,22.412L1072.84,22.533L1073.97,23.252L1075.49,23.612L1076.64,23.612L1077.77,23.972L1078.91,24.092L1080.05,24.212L1081.19,24.212L1082.32,24.451L1083.46,24.571L1084.98,24.81L1086.12,25.169L1087.26,24.81L1088.39,24.69L1089.53,24.092L1090.67,23.612L1091.81,23.492L1092.94,23.972L1094.46,24.212L1095.61,24.69L1096.74,24.451L1097.88,24.33L1099.01,24.571L1100.16,25.169L1101.29,25.05L1102.43,25.05L1103.94,25.169L1105.09,24.81L1106.23,24.571L1107.36,25.169L1108.5,24.81L1109.64,24.93L1110.78,24.93L1111.91,24.69L1113.43,24.451L1114.57,24.212L1115.71,23.852L1116.84,24.451L1117.98,25.169L1119.12,25.41L1120.26,25.53L1121.39,25.65L1122.91,25.65L1124.06,25.53L1125.19,25.77L1127.47,25.77L1128.61,25.89L1129.75,25.05L1130.88,24.33L1132.4,24.212L1133.54,24.571L1136.95,24.571L1138.09,24.81L1139.23,25.65L1141.88,25.65L1143.02,25.53L1144.16,26.01L1145.3,26.249L1146.43,26.249L1147.57,26.369L1149.85,26.369L1151.36,26.01L1152.51,26.01L1153.64,26.249L1154.78,26.489L1157.06,26.489L1158.19,26.249L1159.33,26.01L1160.85,25.89L1161.99,25.89L1163.13,26.01L1164.26,26.249L1165.4,26.01L1166.54,26.01L1167.68,25.77L1168.81,25.89L1170.33,26.01L1172.61,26.01L1173.75,26.249L1176.03,26.249L1177.16,26.369L1178.3,26.608L1179.82,26.608L1180.96,26.489L1182.1,26.489L1183.23,26.608L1184.37,26.489L1186.65,26.489L1187.78,26.249L1189.3,25.89L1190.44,25.53L1191.58,25.41L1192.72,25.65L1193.85,25.89L1195,26.13L1196.13,26.369L1197.27,26.608L1198.79,26.848L1199.93,27.088L1201.06,26.968L1202.2,26.848L1203.34,26.728L1204.48,26.728L1205.62,26.608L1211.69,26.608L1212.82,26.489L1213.96,26.608L1215.1,26.489L1216.23,26.249L1217.75,26.249L1218.9,26.13L1221.17,26.13L1222.31,26.01L1223.45,26.01L1224.58,25.89L1228.38,25.89L1229.52,25.77L1232.93,25.77L1234.07,25.65L1237.87,25.65L1239,25.77L1242.42,25.77L1243.55,25.89L1244.69,26.13L1250.76,26.13L1251.9,25.89L1253.04,25.89L1254.17,26.01L1255.69,26.01L1256.83,25.89L1257.97,25.77L1260.24,25.77L1261.39,25.89L1262.52,25.77L1263.66,25.77L1265.17,25.65L1266.32,25.53L1267.45,25.65L1268.59,25.41L1269.73,25.53L1270.87,25.53L1272.01,25.41L1273.14,25.41L1274.66,25.169L1275.8,24.93L1276.94,24.81L1278.07,24.69L1279.21,24.571L1280.35,24.451L1281.49,24.33L1282.62,24.451L1284.14,24.451L1285.29,24.33L1286.42,24.212L1287.56,24.69L1288.69,24.571L1289.84,24.451L1290.97,24.33L1292.11,24.33L1293.63,24.69L1294.77,24.571L1295.91,24.212L1297.04,23.972L1298.18,23.972L1299.32,24.092L1300.45,24.69L1301.59,24.81L1303.11,24.93L1308.8,24.93L1309.94,24.81L1312.59,24.81L1313.74,24.69L1314.87,24.69L1316.01,25.05L1317.14,25.169L1318.29,25.05L1319.42,24.81L1320.56,24.571L1322.08,24.33L1323.22,24.212L1324.36,24.092L1325.49,23.972L1326.63,23.852L1327.77,23.732L1328.91,23.492L1330.04,23.252L1331.56,23.013L1332.7,22.893L1333.84,22.773L1334.98,22.653L1337.26,22.653L1338.39,22.773L1342.19,22.773L1343.32,22.653L1344.46,22.533L1345.6,22.412L1346.74,22.293L1347.88,22.173L1349.01,22.054L1350.53,22.173L1352.81,22.173L1353.95,22.054L1356.23,22.054L1357.36,22.173L1358.5,22.293L1360.02,22.293L1361.16,22.412L1363.43,22.412L1364.57,22.533L1367.98,22.533L1369.5,22.412L1370.64,22.412L1371.78,22.293L1372.91,22.653L1374.05,22.773L1376.33,22.773L1377.46,23.013L1378.98,23.013L1380.12,22.773L1381.26,22.773L1382.4,22.893L1383.53,23.013L1384.68,23.133L1385.81,23.133L1387.33,23.252L1388.47,23.372L1389.61,24.092L1390.75,24.81L1391.88,25.41L1393.02,26.13L1394.16,26.608L1395.3,26.848L1396.82,27.088L1397.95,27.208L1399.1,27.208L1400.23,27.327L1401.37,27.447L1402.5,27.567L1403.65,27.688L1406.3,27.688L1407.44,27.808L1408.58,27.928L1409.71,27.808L1410.85,27.688L1411.99,27.567L1413.13,27.447L1414.27,27.208L1415.79,26.968L1416.92,26.848L1418.06,26.608L1419.2,26.369L1420.34,26.249L1421.47,26.13L1422.61,25.65L1423.75,25.291L1425.27,24.93L1426.4,24.33L1427.55,24.092L1428.68,23.492L1429.82,23.013L1430.95,22.653L1432.1,22.533L1433.23,22.653L1434.75,22.773L1435.89,23.013L1437.03,23.133L1438.17,22.653L1439.3,22.293L1440.44,22.054L1441.58,21.933L1442.72,21.694L1444.24,21.454L1445.37,21.215L1446.52,20.975L1447.65,20.615L1448.79,20.255L1449.92,19.776L1451.07,19.416L1452.2,18.937L1453.72,18.337L1454.85,17.618L1456,17.258L1457.13,16.539L1458.27,15.821L1459.4,15.102L1460.55,14.381L1461.68,14.022L1463.2,13.783L1464.34,13.304L1465.48,12.704L1466.62,12.225L1467.75,11.625L1468.89,10.906L1470.03,10.307L1471.17,9.828L1472.69,9.228L1473.82,8.749L1474.96,8.268L1476.1,7.669L1477.24,7.19L1478.37,5.871L1479.52,5.033L1480.65,4.673L1482.17,4.553L1484.45,4.553L1485.59,4.433L1486.72,3.954L1487.86,3.593L1489,3.114L1490.14,2.755L1491.65,2.275L1492.79,1.676L1493.93,0.956L1495.07,0.357L1496.21,-0.122L1497.34,-0.362L1498.48,-0.482L1499.62,-0.722L1501.14,-0.84L1502.28,-0.961L1503.42,-1.081L1504.55,-1.2L1505.69,-1.321L1506.83,-1.441L1507.97,-1.561L1509.1,-1.68L1510.62,-1.92L1511.76,-2.04L1512.9,-2.16L1514.04,-2.28L1515.17,-2.4L1516.31,-2.52L1517.45,-2.52L1518.59,-2.64L1520.11,-2.759L1521.24,-2.759L1522.39,-2.88L1523.52,-2.88L1524.66,-2.999L1525.8,-3.118L1526.94,-3.118L1528.07,-3.359L1529.59,-3.359L1530.73,-3.478L1531.87,-3.597L1533.01,-3.597L1534.14,-3.719L1535.28,-3.837L1536.42,-3.837L1537.56,-3.719L1539.08,-3.837L1541.35,-3.837L1542.49,-3.958L1549.7,-3.958L1550.84,-4.078L1553.11,-4.078L1554.25,-4.198L1555.39,-4.318L1556.53,-4.318L1558.05,-4.438L1560.32,-4.438L1561.46,-4.318L1562.6,-4.318L1563.73,-4.677L1564.88,-4.797L1566.01,-4.797L1567.53,-4.917L1568.67,-5.037L1569.81,-5.156L1570.94,-5.156L1572.08,-5.277L1573.22,-5.397L1574.36,-5.516L1575.49,-5.636L1577.02,-5.876L1578.15,-5.995L1579.29,-6.235L1580.43,-6.356L1581.57,-6.595L1582.7,-6.716L1583.84,-6.835L1584.98,-7.075L1586.5,-7.194L1587.63,-7.434L1588.78,-7.794L1589.91,-8.033L1591.05,-8.273L1592.18,-8.393L1593.33,-8.633L1594.46,-8.874L1595.98,-8.993L1597.12,-9.233L1598.26,-9.353L1599.4,-9.591L1600.53,-9.591L1601.67,-9.951L1602.81,-10.071L1603.95,-10.311L1605.47,-10.551L1606.6,-10.67L1607.75,-10.91L1608.88,-11.15L1610.02,-11.391L1611.15,-11.51L1612.29,-11.749L1613.43,-11.988L1614.95,-12.109L1616.08,-12.348L1617.23,-12.587L1618.36,-12.709L1619.5,-12.948L1620.63,-13.068L1621.78,-13.308L1622.91,-13.547L1624.43,-13.667L1625.57,-13.906L1626.71,-14.027L1627.85,-14.266L1628.98,-14.386L1630.12,-14.626L1631.26,-14.745L1632.4,-14.985L1633.92,-15.105L1635.05,-15.346L1636.19,-15.465L1637.33,-15.706L1638.47,-15.824L1639.6,-16.065L1640.75,-16.184L1641.88,-16.304L1643.4,-16.544L1647.95,-16.544L1649.09,-16.663" style="fill:none;fill-rule:nonzero;stroke:rgb(89,89,92);stroke-width:0.65px;"/>
        </g>
    </g>
</svg>
