<?xml version="1.0" encoding="UTF-8" standalone="no"?>
<!DOCTYPE svg PUBLIC "-//W3C//DTD SVG 1.1//EN" "http://www.w3.org/Graphics/SVG/1.1/DTD/svg11.dtd">
<svg width="100%" height="100%" viewBox="0 0 7377 1241" version="1.1" xmlns="http://www.w3.org/2000/svg" xmlns:xlink="http://www.w3.org/1999/xlink" xml:space="preserve" xmlns:serif="http://www.serif.com/" style="fill-rule:evenodd;clip-rule:evenodd;">
    <g transform="matrix(4.16667,0,0,4.16667,252.665,742.2)">
        <g id="depth-section" serif:id="depth section">
            <path d="M0,7.55L1.14,9.229L2.278,10.068L3.416,10.786L4.934,11.387L6.07,12.106L7.208,12.824L8.345,13.543L9.484,14.024L10.622,14.622L11.761,14.862L12.898,15.222L14.416,15.461L15.553,15.701L16.692,16.061L17.83,16.181L18.967,16.422L20.106,16.54L21.246,16.66L23.9,16.66L25.038,16.78L26.177,16.78L27.314,16.9L28.451,16.9L29.591,17.02L30.729,17.02L31.867,17.14L33.385,17.14L34.522,17.26L35.662,17.38L36.799,17.38L37.937,17.5L39.073,17.5L40.213,17.619L41.353,17.739L42.867,17.739L44.007,17.859L45.146,17.979L46.281,18.099L47.418,18.099L48.558,15.701L49.695,13.903L50.832,13.064L52.353,12.345L53.487,12.585L54.629,12.824L55.766,13.064L56.9,13.184L59.18,13.184L60.316,13.903L61.835,14.263L62.972,14.503L64.113,14.622L65.251,14.742L66.386,15.222L67.524,16.3L68.664,16.9L69.802,16.9L71.319,17.02L72.456,16.9L74.735,16.9L75.87,17.14L77.01,17.739L78.148,17.739L79.286,17.619L80.804,17.739L81.94,17.739L83.083,15.582L84.218,12.704L85.354,12.225L86.494,11.746L87.634,11.266L88.769,10.786L90.288,10.786L91.423,10.906L92.567,10.786L93.702,10.427L94.839,11.146L95.979,11.626L97.118,13.424L98.253,15.342L99.772,17.739L100.908,17.619L102.052,15.342L103.187,13.304L104.324,11.626L105.463,11.387L106.603,12.824L107.737,15.582L109.258,17.14L110.393,17.859L111.534,17.619L112.671,14.144L113.809,11.507L114.945,11.266L116.085,11.387L117.223,12.225L118.74,13.064L119.877,13.424L121.019,11.986L122.156,10.427L123.291,9.589L124.431,10.068L125.569,11.746L126.707,13.543L128.225,15.222L129.361,15.342L130.503,15.461L131.641,14.742L132.775,14.383L133.915,13.663L135.055,13.424L136.191,13.424L137.709,13.903L138.847,14.982L139.988,15.821L141.125,15.821L142.26,15.941L143.399,15.701L144.539,15.582L145.674,15.701L147.193,15.701L148.331,16.061L149.473,16.422L150.607,16.9L151.745,17.02L152.884,16.9L154.023,17.26L155.158,17.619L156.679,17.979L157.813,18.458L158.957,18.697L160.092,18.938L161.229,19.058L162.369,18.938L163.508,18.938L164.643,17.859L166.163,16.54L167.298,16.422L168.441,17.14L169.577,17.619L170.714,18.458L171.854,18.697L172.99,18.578L174.128,17.979L175.647,18.099L176.782,18.339L177.924,19.298L179.062,20.017L180.196,19.418L181.336,17.859L182.475,18.339L183.612,18.218L185.13,15.461L186.267,15.461L187.409,17.5L188.546,17.739L189.681,17.739L190.82,17.859L191.96,17.26L193.097,16.9L194.614,17.619L195.752,17.739L196.894,17.619L198.03,17.38L199.165,17.14L200.305,17.14L201.444,17.26L202.577,17.26L204.097,17.02L205.231,16.78L206.376,16.66L207.511,16.78L208.647,16.9L209.787,16.9L210.925,16.54L212.062,16.3L213.581,16.422L214.717,16.3L215.858,16.3L216.995,17.02L218.13,17.02L219.27,16.9L223.063,16.9L224.201,16.66L225.343,16.54L226.479,16.3L227.615,16.3L228.754,16.9L229.894,17.979L231.03,17.26L232.549,16.78L233.686,17.619L234.827,18.099L235.965,17.859L237.1,17.38L239.378,17.14L240.516,17.02L242.033,16.9L243.17,16.9L244.312,16.78L247.724,16.78L248.863,17.02L249.998,17.26L251.518,16.9L252.652,16.9L253.797,17.38L254.932,17.5L256.068,17.38L257.208,17.38L258.348,17.619L259.482,18.099L261.002,17.979L262.137,17.619L263.281,17.739L264.416,18.458L265.553,18.697L266.692,18.458L267.832,17.859L268.967,17.859L270.487,17.619L271.622,17.38L272.764,17.14L273.9,17.14L275.038,17.38L277.314,17.38L278.451,17.979L279.97,18.697L281.106,18.099L282.248,18.218L283.385,17.619L284.521,17.02L285.659,17.859L286.799,17.859L287.937,17.739L289.454,17.739L290.591,16.78L291.732,17.38L292.87,17.5L294.005,17.5L295.145,17.979L296.283,17.979L297.421,18.099L298.938,18.697L300.075,18.458L301.218,18.099L302.354,18.578L303.489,18.818L304.629,18.458L305.769,18.218L306.903,18.458L308.423,18.578L309.561,18.339L310.702,18.218L311.837,18.099L312.974,18.218L315.253,18.218L316.388,18.697L317.907,18.818L319.043,18.578L320.187,18.458L321.321,18.458L322.459,18.578L323.598,18.697L325.872,18.697L327.393,18.818L331.943,18.818L333.083,18.938L335.357,18.938L336.877,18.818L344.842,18.818L346.359,18.697L354.326,18.697L355.844,18.578L361.532,18.578L362.671,18.458L367.605,18.458L368.74,18.339L374.811,18.339L375.945,18.458L377.088,18.578L378.225,18.697L379.359,18.818L380.499,18.818L381.639,18.697L382.775,18.578L385.431,18.578L386.572,18.697L387.709,18.818L388.844,18.938L391.123,18.938L392.26,19.058L393.777,18.938L397.193,18.938L398.329,18.818L403.263,18.818L404.399,18.697L406.676,18.697L407.813,18.458L408.953,18.339L410.092,18.218L411.227,18.099L413.882,18.099L415.025,18.218L416.161,18.218L417.298,18.339L418.437,18.339L419.577,18.458L420.712,18.218L422.231,18.218L423.366,18.458L429.062,18.458L430.196,18.578L431.716,18.697L432.852,18.818L433.993,18.697L435.13,18.458L436.268,18.218L437.404,18.218L438.544,18.339L444.614,18.339L445.749,18.218L446.889,18.218L448.028,18.339L449.165,18.458L450.684,18.578L451.82,18.697L452.962,18.697L454.1,18.938L455.234,18.938L456.373,18.818L457.513,15.582L458.65,14.622L460.168,13.783L461.305,13.424L462.446,13.064L463.584,12.585L464.719,12.106L465.858,11.865L466.997,11.626L468.133,11.387L469.652,11.986L470.79,13.184L471.932,15.222L473.066,16.66L474.203,16.9L475.343,17.14L476.482,17.38L477.617,17.619L479.137,18.099L480.271,18.578L481.416,18.697L482.551,18.578L483.687,18.458L484.827,18.339L485.967,18.218L487.102,17.38L488.622,16.422L489.757,15.582L490.9,15.222L492.035,14.982L493.173,14.862L494.312,14.622L495.449,14.503L496.586,14.383L498.106,15.102L499.241,16.061L500.383,17.02L501.52,18.099L502.655,18.458L503.794,18.218L504.934,17.979L506.071,18.458L507.589,19.058L508.726,18.578L509.867,18.218L511.005,16.78L512.14,15.222L513.279,14.024L514.418,14.144L515.551,14.742L517.071,15.821L518.206,17.38L519.35,17.5L520.484,18.099L521.622,18.099L522.762,18.218L523.9,18.578L525.035,18.578L526.556,17.38L527.69,17.38L528.834,17.619L531.106,17.619L532.246,18.578L533.383,18.818L534.521,18.818L536.04,18.697L537.175,18.578L538.316,18.218L539.454,18.218L540.589,18.099L541.729,17.859L542.867,17.619L544.005,17.38L545.522,16.9L546.66,16.78L547.802,16.9L548.938,17.26L550.073,17.5L551.213,17.619L552.353,18.218L553.489,18.339L555.007,17.979L556.145,17.5L557.286,17.14L558.423,17.26L559.558,17.739L560.697,17.5L561.837,17.619L562.974,17.979L564.492,18.458L565.629,18.818L566.771,18.458L567.905,18.218L569.043,18.697L570.182,18.697L571.321,18.458L572.456,18.099L573.977,18.099L575.111,18.458L576.255,18.697L577.39,18.938L578.527,19.178L579.667,19.178L580.806,19.298L585.74,19.298L586.875,18.818L588.012,18.339L589.151,18.697L590.291,19.178L591.426,19.298L592.945,19.298L594.08,19.058L595.222,18.818L596.359,18.818L597.496,19.298L598.634,19.418L599.773,18.938L600.91,19.058L602.428,19.418L603.565,19.298L611.912,19.298L613.05,19.178L616.464,19.178L617.603,19.058L618.742,19.058L619.88,18.938L621.397,19.058L622.534,19.058L623.676,19.178L624.813,19.178L625.948,19.298L627.088,19.178L628.227,19.058L629.361,18.818L630.882,18.697L632.019,18.578L641.501,18.578L642.646,18.339L643.78,17.979L644.917,17.619L646.057,17.5L647.196,17.5L648.331,17.26L649.851,16.9L650.986,16.54L653.265,16.54L654.402,16.78L655.541,17.14L656.679,17.26L657.815,16.9L659.336,16.66L660.471,16.78L661.612,16.422L662.749,16.3L663.884,16.54L665.023,16.66L666.163,16.78L667.683,16.9L668.818,16.78L669.955,16.78L671.097,16.9L672.229,17.02L673.366,17.14L675.646,17.38L677.163,17.38L678.301,17.26L679.436,17.26L680.579,17.14L681.714,16.78L682.852,16.422L683.99,16.061L685.13,16.181L686.647,16.54L687.785,16.9L688.92,16.9L690.063,17.02L691.198,16.9L692.336,16.66L693.476,16.422L694.612,16.422L696.133,16.54L697.27,16.66L698.404,16.54L699.546,16.422L700.684,16.061L701.818,15.701L702.958,15.461L704.097,15.102L705.617,15.461L706.752,15.342L707.889,15.222L709.03,15.342L711.303,15.342L712.446,15.222L713.582,15.102L715.102,15.222L716.236,15.582L717.374,15.821L718.516,15.582L719.652,15.821L720.787,16.181L721.929,16.422L723.066,15.941L724.586,15.582L725.721,15.701L726.858,15.941L728,16.181L729.135,16.54L730.272,16.78L731.414,16.9L732.551,16.78L734.068,16.66L735.206,16.061L736.341,15.582L737.484,15.342L738.619,15.941L739.757,17.14L740.898,17.979L742.035,18.697L743.553,19.058L744.69,19.418L745.825,19.777L746.969,19.657L748.104,19.418L749.241,18.818L750.383,17.979L751.521,16.9L753.038,16.181L754.175,16.181L755.31,15.941L756.451,15.941L757.589,16.422L758.726,16.9L759.867,17.38L761.002,17.979L762.522,18.218L763.657,18.099L764.795,17.26L765.937,16.66L767.073,16.66L768.208,16.3L769.353,15.582L770.487,14.862L772.007,15.222L773.142,15.461L774.279,15.821L775.421,16.061L776.558,16.181L777.692,15.941L778.837,15.701L779.972,16.061L781.491,16.66L782.627,16.3L783.764,16.061L784.905,16.181L786.043,16.181L787.178,16.061L788.319,15.941L789.456,15.941L790.974,16.181L792.111,16.54L793.248,16.422L794.39,15.821L795.524,15.102L796.662,15.941L797.804,17.26L798.94,18.339L800.456,17.619L801.598,17.02L802.735,16.9L803.87,16.422L805.007,16.422L806.148,16.9L807.286,17.5L808.421,17.14L809.94,15.821L811.083,14.383L812.22,14.982L813.354,15.342L814.492,15.102L815.634,15.582L816.771,16.66L817.905,16.9L819.426,16.66L820.567,15.941L821.702,15.821L822.839,16.54L823.977,17.26L825.118,17.5L826.253,17.14L827.391,16.422L828.905,16.181L830.047,16.422L831.185,16.54L832.319,16.66L833.456,16.9L834.599,17.14L835.735,17.26L836.87,17.38L838.391,17.859L839.532,18.218L840.669,18.578L841.804,18.458L844.083,18.458L845.22,19.058L846.354,19.418L847.875,19.657L849.017,19.657L850.153,19.777L851.289,19.058L852.426,18.458L853.567,17.859L854.704,17.979L855.84,19.058L857.359,19.418L858.501,19.418L859.636,18.938L860.773,18.218L861.91,17.979L863.052,18.697L864.187,18.218L865.324,17.619L866.842,17.859L867.985,17.979L869.121,17.979L870.258,18.099L871.393,18.339L872.536,18.458L873.672,17.26L874.809,15.821L876.326,14.742L877.471,16.66L878.605,18.339L880.877,18.339L882.021,18.458L884.293,18.458L885.811,18.578L888.09,18.578L889.227,18.697L898.709,18.697L899.847,18.818L900.988,18.818L902.125,18.938L904.78,18.938L905.922,18.458L907.059,17.979L908.194,17.5L909.331,16.9L910.473,17.739L911.61,17.859L912.745,17.979L914.265,18.818L915.406,18.938L916.544,18.818L917.679,18.339L918.815,17.859L919.957,17.02L921.093,17.38L922.229,17.859L923.749,17.619L924.892,17.739L926.026,17.859L927.163,17.859L928.298,17.26L929.442,17.02L930.577,16.66L931.714,16.9L933.231,17.26L934.376,17.619L935.511,17.859L936.647,17.739L937.782,17.739L938.927,17.979L940.062,17.979L941.198,17.859L942.717,17.859L943.86,17.979L944.995,17.979L946.133,17.859L947.268,17.739L948.409,17.5L949.546,17.38L950.684,17.739L952.201,18.099L953.343,18.218L954.479,18.218L955.615,17.5L956.752,16.3L957.894,16.66L959.03,17.619L960.166,17.979L961.686,18.458L962.827,18.458L963.965,18.339L965.1,18.697L967.378,18.697L968.516,18.818L973.449,18.818L974.584,18.938L975.721,18.818L976.863,18.938L981.797,18.938L982.932,19.058L985.201,19.058L986.343,19.178L990.135,19.178L991.276,19.298L994.685,19.298L995.827,19.418L999.619,19.418L1000.76,19.537L1003.03,19.537L1004.17,19.657L1006.45,19.657L1007.58,19.777L1009.1,19.777L1010.25,19.897L1012.52,19.897L1013.65,20.017L1014.8,20.017L1015.93,20.137L1017.07,20.137L1018.59,20.257L1020.87,20.257L1022,20.377L1023.14,20.377L1024.28,20.497L1026.55,20.497L1028.07,20.615L1030.35,20.615L1031.49,20.736L1032.62,20.736L1033.77,20.856L1036.04,20.856L1037.56,20.975L1039.84,20.975L1040.97,21.095L1042.11,21.095L1043.25,21.335L1044.39,21.935L1045.52,22.534L1047.04,22.893L1048.18,22.774L1049.32,22.295L1050.46,22.175L1051.59,22.654L1052.73,21.935L1053.87,21.095L1055.01,20.615L1056.53,21.335L1057.67,21.215L1058.8,20.615L1059.94,21.454L1061.08,21.695L1062.22,21.454L1063.35,21.335L1064.49,21.454L1066.01,21.335L1067.15,21.815L1068.29,21.695L1069.42,21.335L1070.56,21.095L1071.7,19.657L1072.84,19.777L1073.97,20.975L1075.49,21.935L1076.64,20.497L1077.77,21.454L1078.91,21.695L1080.05,21.695L1081.19,21.815L1082.32,22.415L1083.46,22.295L1084.98,22.534L1086.12,22.893L1087.26,22.774L1088.39,22.415L1089.53,21.815L1090.67,20.615L1091.81,21.215L1092.94,21.576L1094.46,22.055L1095.61,22.415L1096.74,22.175L1097.88,21.815L1099.01,21.935L1100.16,22.774L1101.29,22.534L1102.43,22.774L1103.94,23.373L1105.09,22.415L1106.23,22.654L1107.36,23.013L1108.5,23.253L1109.64,22.774L1110.78,22.654L1111.91,22.415L1113.43,22.175L1114.57,21.815L1115.71,21.335L1116.84,22.534L1117.98,23.253L1119.12,23.852L1120.26,24.093L1121.39,24.093L1122.91,24.213L1124.06,23.493L1125.19,23.973L1126.33,23.973L1127.47,24.213L1128.61,24.093L1129.75,23.373L1130.88,22.534L1132.4,22.415L1133.54,23.973L1134.68,23.732L1135.81,23.612L1136.95,23.732L1138.09,23.013L1139.23,24.093L1140.36,24.213L1141.88,24.333L1143.02,24.333L1144.16,25.411L1145.3,25.53L1146.43,25.291L1147.57,25.411L1148.71,25.65L1149.85,25.65L1151.36,25.53L1152.51,25.172L1153.64,25.65L1154.78,25.89L1155.91,25.89L1157.06,26.13L1158.19,25.53L1159.33,25.051L1160.85,25.051L1161.99,25.291L1163.13,25.411L1164.26,25.77L1165.4,25.291L1166.54,25.172L1167.68,24.692L1168.81,24.931L1170.33,25.051L1171.48,24.931L1172.61,25.172L1173.75,25.65L1174.88,25.53L1176.03,25.172L1177.16,25.65L1178.3,25.65L1179.82,25.89L1180.96,25.77L1182.1,26.25L1183.23,26.01L1184.37,26.01L1185.51,26.13L1186.65,26.25L1187.78,25.65L1189.3,25.172L1190.44,24.812L1191.58,23.373L1192.72,24.931L1193.85,25.77L1195,26.01L1196.13,26.25L1197.27,26.849L1198.79,26.969L1199.93,27.09L1201.06,27.209L1202.2,27.09L1203.34,26.73L1204.48,26.61L1205.62,26.73L1206.75,26.73L1208.27,27.09L1209.41,26.969L1210.55,26.73L1212.82,26.73L1213.96,27.09L1215.1,26.969L1216.23,26.73L1217.75,26.969L1218.9,26.969L1220.03,26.849L1221.17,26.969L1222.31,26.969L1223.45,26.61L1224.58,26.49L1225.72,26.61L1230.65,26.61L1231.79,26.73L1232.93,26.73L1234.07,26.49L1235.2,26.49L1236.72,26.61L1237.87,26.969L1239,27.09L1240.14,27.329L1241.27,27.329L1242.42,26.969L1243.55,26.849L1244.69,27.329L1246.21,27.569L1247.35,27.569L1248.48,27.448L1249.62,27.09L1250.76,27.09L1251.9,26.969L1253.04,27.09L1254.17,27.209L1255.69,26.849L1256.83,26.849L1257.97,27.209L1259.11,27.329L1260.24,27.688L1262.52,27.688L1263.66,27.928L1265.17,27.808L1266.32,27.688L1267.45,27.448L1268.59,27.569L1269.73,27.329L1270.87,27.329L1272.01,27.209L1273.14,27.209L1274.66,27.09L1275.8,26.849L1276.94,26.849L1278.07,26.13L1279.21,26.371L1280.35,26.01L1281.49,26.13L1282.62,26.01L1284.14,25.89L1285.29,25.77L1286.42,25.65L1287.56,26.13L1288.69,26.13L1289.84,26.01L1290.97,25.89L1292.11,25.89L1293.63,26.371L1294.77,26.371L1295.91,26.01L1297.04,25.77L1299.32,25.77L1300.45,26.61L1301.59,26.73L1303.11,26.73L1304.25,26.849L1305.39,27.09L1306.53,27.329L1307.66,27.448L1308.8,27.329L1309.94,27.09L1311.08,27.09L1312.59,26.969L1313.74,26.371L1314.87,26.01L1316.01,25.77L1317.14,25.77L1318.29,25.65L1319.42,25.291L1320.56,24.692L1322.08,24.572L1323.22,24.333L1324.36,24.333L1325.49,23.852L1326.63,23.373L1327.77,23.253L1328.91,23.013L1330.04,22.893L1331.56,22.654L1332.7,22.295L1333.84,22.055L1334.98,21.935L1336.11,21.454L1337.26,21.215L1338.39,20.856L1339.53,20.975L1341.05,20.856L1342.19,20.856L1343.32,20.736L1344.46,20.736L1345.6,20.497L1346.74,20.377L1347.88,20.017L1349.01,20.257L1353.95,20.257L1355.08,20.377L1356.23,20.615L1357.36,20.736L1358.5,20.736L1360.02,20.615L1361.16,20.497L1362.29,20.736L1363.43,20.856L1364.57,20.975L1366.84,20.975L1367.98,21.095L1369.5,21.095L1370.64,21.215L1371.78,21.335L1372.91,21.454L1374.05,21.815L1375.19,21.815L1376.33,21.935L1377.46,22.175L1378.98,22.055L1380.12,21.815L1381.26,21.815L1382.4,21.935L1383.53,22.055L1384.68,22.055L1385.81,22.175L1387.33,22.415L1388.47,22.415L1389.61,23.133L1390.75,23.852L1391.88,24.213L1393.02,24.572L1394.16,25.291L1395.3,25.77L1396.82,26.13L1397.95,26.371L1399.1,26.61L1400.23,26.849L1401.37,27.09L1402.5,27.329L1403.65,27.569L1404.78,27.448L1406.3,27.448L1407.44,27.569L1408.58,27.688L1409.71,27.448L1411.99,27.448L1413.13,27.569L1414.27,27.09L1415.79,27.09L1416.92,27.209L1418.06,26.969L1419.2,26.849L1422.61,26.849L1423.75,26.25L1425.27,25.89L1426.4,25.051L1427.55,25.051L1428.68,24.452L1429.82,23.852L1433.23,23.852L1434.75,24.093L1435.89,24.333L1437.03,24.333L1438.17,23.973L1439.3,23.612L1440.44,23.612L1441.58,23.493L1442.72,23.133L1444.24,22.415L1445.37,22.295L1446.52,22.175L1447.65,21.454L1448.79,20.615L1449.92,19.897L1451.07,19.298L1452.2,18.099L1453.72,17.02L1454.85,16.78L1456,16.3L1457.13,16.061L1458.27,15.701L1459.4,15.461L1460.55,14.862L1464.34,14.862L1465.48,14.503L1466.62,14.383L1467.75,14.263L1468.89,14.263L1470.03,14.144L1471.17,14.263L1472.69,14.263L1473.82,14.144L1474.96,13.663L1476.1,13.903L1477.24,14.144L1478.37,13.783L1479.52,12.585L1480.65,12.585L1482.17,12.465L1483.31,12.824L1484.45,13.304L1485.59,13.184L1486.72,12.824L1487.86,11.626L1489,11.146L1490.14,10.427L1491.65,9.947L1492.79,9.229L1493.93,8.03L1495.07,7.191L1496.21,6.113L1497.34,5.274L1498.48,4.793L1499.62,5.274L1501.14,4.553L1502.28,4.553L1503.42,3.954L1504.55,3.835L1505.69,3.835L1506.83,3.595L1507.97,2.996L1509.1,2.517L1510.62,2.276L1511.76,1.916L1512.9,1.676L1514.04,1.676L1515.17,1.556L1516.31,1.438L1517.45,1.318L1518.59,1.318L1520.11,1.197L1522.39,1.197L1523.52,1.318L1524.66,1.318L1525.8,1.438L1526.94,1.438L1528.07,1.318L1529.59,1.318L1530.73,1.197L1533.01,1.197L1534.14,1.318L1535.28,1.676L1536.42,1.916L1537.56,2.036L1539.08,2.156L1540.21,2.396L1541.35,2.756L1542.49,2.876L1543.63,2.876L1544.76,2.996L1547.04,2.996L1548.56,3.116L1549.7,3.116L1550.84,3.236L1553.11,3.236L1554.25,3.356L1555.39,3.356L1556.53,3.475L1560.32,3.475L1561.46,3.356L1562.6,3.356L1563.73,3.236L1564.88,3.116L1567.53,3.116L1568.67,3.236L1569.81,3.356L1570.94,3.475L1572.08,3.356L1573.22,2.996L1574.36,2.636L1575.49,2.276L1577.02,1.797L1578.15,1.318L1579.29,0.838L1580.43,0.359L1581.57,-0.122L1582.7,-0.481L1583.84,-0.96L1584.98,-1.44L1586.5,-1.919L1587.63,-2.398L1588.78,-2.878L1589.91,-3.238L1591.05,-3.598L1592.18,-4.077L1593.33,-4.555L1594.46,-4.915L1595.98,-5.276L1597.12,-6.115L1598.26,-6.474L1599.4,-7.074L1600.53,-7.434L1601.67,-7.913L1602.81,-8.273L1603.95,-8.392L1605.47,-8.752L1606.6,-9.112L1607.75,-9.471L1608.88,-9.95L1610.02,-10.31L1611.15,-10.67L1612.29,-11.03L1613.43,-11.388L1614.95,-11.748L1616.08,-12.108L1617.23,-12.467L1618.36,-12.827L1619.5,-13.187L1620.63,-13.546L1621.78,-13.906L1622.91,-14.266L1624.43,-14.625L1625.57,-14.985L1626.71,-15.225L1627.85,-15.584L1628.98,-15.943L1630.12,-16.183L1631.26,-16.543L1632.4,-16.903L1633.92,-17.142L1635.05,-17.502L1636.19,-17.742L1637.33,-18.101L1638.47,-18.341L1639.6,-18.7L1640.75,-18.941L1641.88,-19.18L1643.4,-19.539L1644.54,-19.78L1645.68,-20.019L1646.82,-20.259L1647.95,-20.259L1649.09,-20.378" style="fill:none;fill-rule:nonzero;stroke:rgb(89,89,92);stroke-width:0.65px;"/>
        </g>
    </g>
</svg>
