<?xml version="1.0" encoding="UTF-8" standalone="no"?>
<!DOCTYPE svg PUBLIC "-//W3C//DTD SVG 1.1//EN" "http://www.w3.org/Graphics/SVG/1.1/DTD/svg11.dtd">
<svg width="100%" height="100%" viewBox="0 0 7377 1241" version="1.1" xmlns="http://www.w3.org/2000/svg" xmlns:xlink="http://www.w3.org/1999/xlink" xml:space="preserve" xmlns:serif="http://www.serif.com/" style="fill-rule:evenodd;clip-rule:evenodd;stroke-linejoin:round;stroke-miterlimit:10;">
    <g id="depth-section" serif:id="depth section" transform="matrix(4.16667,0,0,4.16667,0,0)">
        <g transform="matrix(1,0,0,1,0,74.57)">
            <rect x="60.64" y="83.192" width="1649.1" height="56.686" style="fill:none;stroke:rgb(217,217,217);stroke-width:0.5px;"/>
        </g>
        <g transform="matrix(0,1,1,0,183.528,186.105)">
            <path d="M-28.343,-28.343L28.343,-28.343" style="fill:none;fill-rule:nonzero;stroke:rgb(217,217,217);stroke-width:0.5px;"/>
        </g>
        <g transform="matrix(0,1,1,0,303.109,186.105)">
            <path d="M-28.343,-28.343L28.343,-28.343" style="fill:none;fill-rule:nonzero;stroke:rgb(217,217,217);stroke-width:0.5px;"/>
        </g>
        <g transform="matrix(0,1,1,0,422.69,186.105)">
            <path d="M-28.343,-28.343L28.343,-28.343" style="fill:none;fill-rule:nonzero;stroke:rgb(217,217,217);stroke-width:0.5px;"/>
        </g>
        <g transform="matrix(0,1,1,0,542.271,186.105)">
            <path d="M-28.343,-28.343L28.343,-28.343" style="fill:none;fill-rule:nonzero;stroke:rgb(217,217,217);stroke-width:0.5px;"/>
        </g>
        <g transform="matrix(0,1,1,0,661.852,186.105)">
            <path d="M-28.343,-28.343L28.343,-28.343" style="fill:none;fill-rule:nonzero;stroke:rgb(217,217,217);stroke-width:0.5px;"/>
        </g>
        <g transform="matrix(0,1,1,0,781.433,186.105)">
            <path d="M-28.343,-28.343L28.343,-28.343" style="fill:none;fill-rule:nonzero;stroke:rgb(217,217,217);stroke-width:0.5px;"/>
        </g>
        <g transform="matrix(0,1,1,0,901.014,186.105)">
            <path d="M-28.343,-28.343L28.343,-28.343" style="fill:none;fill-rule:nonzero;stroke:rgb(217,217,217);stroke-width:0.5px;"/>
        </g>
        <g transform="matrix(0,1,1,0,1020.6,186.105)">
            <path d="M-28.343,-28.343L28.343,-28.343" style="fill:none;fill-rule:nonzero;stroke:rgb(217,217,217);stroke-width:0.5px;"/>
        </g>
        <g transform="matrix(0,1,1,0,1140.18,186.105)">
            <path d="M-28.343,-28.343L28.343,-28.343" style="fill:none;fill-rule:nonzero;stroke:rgb(217,217,217);stroke-width:0.5px;"/>
        </g>
        <g transform="matrix(0,1,1,0,1259.76,186.105)">
            <path d="M-28.343,-28.343L28.343,-28.343" style="fill:none;fill-rule:nonzero;stroke:rgb(217,217,217);stroke-width:0.5px;"/>
        </g>
        <g transform="matrix(0,1,1,0,1379.34,186.105)">
            <path d="M-28.343,-28.343L28.343,-28.343" style="fill:none;fill-rule:nonzero;stroke:rgb(217,217,217);stroke-width:0.5px;"/>
        </g>
        <g transform="matrix(0,1,1,0,1498.92,186.105)">
            <path d="M-28.343,-28.343L28.343,-28.343" style="fill:none;fill-rule:nonzero;stroke:rgb(217,217,217);stroke-width:0.5px;"/>
        </g>
        <g transform="matrix(0,1,1,0,1618.5,186.105)">
            <path d="M-28.343,-28.343L28.343,-28.343" style="fill:none;fill-rule:nonzero;stroke:rgb(217,217,217);stroke-width:0.5px;"/>
        </g>
        <g transform="matrix(1,0,0,1,60.6397,157.762)">
            <path d="M0,0L1649.1,0" style="fill:none;fill-rule:nonzero;stroke:rgb(217,217,217);stroke-width:0.5px;"/>
        </g>
        <g transform="matrix(1,0,0,1,60.6397,164.848)">
            <path d="M0,0L1649.1,0" style="fill:none;fill-rule:nonzero;stroke:rgb(217,217,217);stroke-width:0.5px;"/>
        </g>
        <g transform="matrix(1,0,0,1,60.6397,171.934)">
            <path d="M0,0L1649.1,0" style="fill:none;fill-rule:nonzero;stroke:rgb(217,217,217);stroke-width:0.5px;"/>
        </g>
        <g transform="matrix(1,0,0,1,60.6397,179.018)">
            <path d="M0,0L1649.1,0" style="fill:none;fill-rule:nonzero;stroke:rgb(217,217,217);stroke-width:0.5px;"/>
        </g>
        <g transform="matrix(1,0,0,1,60.6397,186.104)">
            <path d="M0,0L1649.1,0" style="fill:none;fill-rule:nonzero;stroke:rgb(217,217,217);stroke-width:0.5px;"/>
        </g>
        <g transform="matrix(1,0,0,1,60.6397,193.19)">
            <path d="M0,0L1649.1,0" style="fill:none;fill-rule:nonzero;stroke:rgb(217,217,217);stroke-width:0.5px;"/>
        </g>
        <g transform="matrix(1,0,0,1,60.6397,200.275)">
            <path d="M0,0L1649.1,0" style="fill:none;fill-rule:nonzero;stroke:rgb(217,217,217);stroke-width:0.5px;"/>
        </g>
        <g transform="matrix(1,0,0,1,60.6397,207.361)">
            <path d="M0,0L1649.1,0" style="fill:none;fill-rule:nonzero;stroke:rgb(217,217,217);stroke-width:0.5px;"/>
        </g>
        <g transform="matrix(1,0,0,1,60.6397,214.447)">
            <path d="M0,0L1649.1,0" style="fill:none;fill-rule:nonzero;stroke:rgb(217,217,217);stroke-width:0.5px;"/>
        </g>
        <g transform="matrix(1,0,0,1,60.6397,181.125)">
            <path d="M0,4.553L1.14,6.232L2.278,7.071L3.416,7.789L4.934,8.39L6.07,9.109L7.208,9.827L8.345,10.546L9.484,11.027L10.622,11.625L11.761,11.865L12.898,12.225L14.416,12.464L15.553,12.704L16.692,13.064L17.83,13.184L18.967,13.425L20.106,13.543L21.246,13.663L23.9,13.663L25.038,13.783L26.177,13.783L27.314,13.903L28.451,13.903L29.591,14.023L30.729,14.023L31.867,14.143L33.385,14.143L34.522,14.263L35.662,14.383L36.799,14.383L37.937,14.503L39.073,14.503L40.213,14.622L41.353,14.742L42.867,14.742L44.007,14.862L45.146,14.982L46.281,15.102L47.418,15.102L48.558,12.704L49.695,10.906L50.832,10.067L52.353,9.348L53.487,9.588L54.629,9.827L55.766,10.067L56.9,10.187L59.18,10.187L60.316,10.906L61.835,11.266L62.972,11.506L64.113,11.625L65.251,11.745L66.386,12.225L67.524,13.303L68.664,13.903L69.802,13.903L71.319,14.023L72.456,13.903L74.735,13.903L75.87,14.143L77.01,14.742L78.148,14.742L79.286,14.622L80.804,14.742L81.94,14.742L83.083,12.585L84.218,9.707L85.354,9.228L86.494,8.749L87.634,8.269L88.769,7.789L90.288,7.789L91.423,7.909L92.567,7.789L93.702,7.43L94.839,8.149L95.979,8.629L97.118,10.427L98.253,12.345L99.772,14.742L100.908,14.622L102.052,12.345L103.187,10.307L104.324,8.629L105.463,8.39L106.603,9.827L107.737,12.585L109.258,14.143L110.393,14.862L111.534,14.622L112.671,11.147L113.809,8.51L114.945,8.269L116.085,8.39L117.223,9.228L118.74,10.067L119.877,10.427L121.019,8.989L122.156,7.43L123.291,6.592L124.431,7.071L125.569,8.749L126.707,10.546L128.225,12.225L129.361,12.345L130.503,12.464L131.641,11.745L132.775,11.386L133.915,10.666L135.055,10.427L136.191,10.427L137.709,10.906L138.847,11.985L139.988,12.824L141.125,12.824L142.26,12.944L143.399,12.704L144.539,12.585L145.674,12.704L147.193,12.704L148.331,13.064L149.473,13.425L150.607,13.903L151.745,14.023L152.884,13.903L154.023,14.263L155.158,14.622L156.679,14.982L157.813,15.461L158.957,15.7L160.092,15.941L161.229,16.061L162.369,15.941L163.508,15.941L164.643,14.862L166.163,13.543L167.298,13.425L168.441,14.143L169.577,14.622L170.714,15.461L171.854,15.7L172.99,15.581L174.128,14.982L175.647,15.102L176.782,15.342L177.924,16.301L179.062,17.02L180.196,16.421L181.336,14.862L182.475,15.342L183.612,15.221L185.13,12.464L186.267,12.464L187.409,14.503L188.546,14.742L189.681,14.742L190.82,14.862L191.96,14.263L193.097,13.903L194.614,14.622L195.752,14.742L196.894,14.622L198.03,14.383L199.165,14.143L200.305,14.143L201.444,14.263L202.577,14.263L204.097,14.023L205.231,13.783L206.376,13.663L207.511,13.783L208.647,13.903L209.787,13.903L210.925,13.543L212.062,13.303L213.581,13.425L214.717,13.303L215.858,13.303L216.995,14.023L218.13,14.023L219.27,13.903L223.063,13.903L224.201,13.663L225.343,13.543L226.479,13.303L227.615,13.303L228.754,13.903L229.894,14.982L231.03,14.263L232.549,13.783L233.686,14.622L234.827,15.102L235.965,14.862L237.1,14.383L239.378,14.143L240.516,14.023L242.033,13.903L243.17,13.903L244.312,13.783L247.724,13.783L248.863,14.023L249.998,14.263L251.518,13.903L252.652,13.903L253.797,14.383L254.932,14.503L256.068,14.383L257.208,14.383L258.348,14.622L259.482,15.102L261.002,14.982L262.137,14.622L263.281,14.742L264.416,15.461L265.553,15.7L266.692,15.461L267.832,14.862L268.967,14.862L270.487,14.622L271.622,14.383L272.764,14.143L273.9,14.143L275.038,14.383L277.314,14.383L278.451,14.982L279.97,15.7L281.106,15.102L282.248,15.221L283.385,14.622L284.521,14.023L285.659,14.862L286.799,14.862L287.937,14.742L289.454,14.742L290.591,13.783L291.732,14.383L292.87,14.503L294.005,14.503L295.145,14.982L296.283,14.982L297.421,15.102L298.938,15.7L300.075,15.461L301.218,15.102L302.354,15.581L303.489,15.821L304.629,15.461L305.769,15.221L306.903,15.461L308.423,15.581L309.561,15.342L310.702,15.221L311.837,15.102L312.974,15.221L315.253,15.221L316.388,15.7L317.907,15.821L319.043,15.581L320.187,15.461L321.321,15.461L322.459,15.581L323.598,15.7L325.872,15.7L327.393,15.821L331.943,15.821L333.083,15.941L335.357,15.941L336.877,15.821L344.842,15.821L346.359,15.7L354.326,15.7L355.844,15.581L361.532,15.581L362.671,15.461L367.605,15.461L368.74,15.342L374.811,15.342L375.945,15.461L377.088,15.581L378.225,15.7L379.359,15.821L380.499,15.821L381.639,15.7L382.775,15.581L385.431,15.581L386.572,15.7L387.709,15.821L388.844,15.941L391.123,15.941L392.26,16.061L393.777,15.941L397.193,15.941L398.329,15.821L403.263,15.821L404.399,15.7L406.676,15.7L407.813,15.461L408.953,15.342L410.092,15.221L411.227,15.102L413.882,15.102L415.025,15.221L416.161,15.221L417.298,15.342L418.437,15.342L419.577,15.461L420.712,15.221L422.231,15.221L423.366,15.461L429.062,15.461L430.196,15.581L431.716,15.7L432.852,15.821L433.993,15.7L435.13,15.461L436.268,15.221L437.404,15.221L438.544,15.342L444.614,15.342L445.749,15.221L446.889,15.221L448.028,15.342L449.165,15.461L450.684,15.581L451.82,15.7L452.962,15.7L454.1,15.941L455.234,15.941L456.373,15.821L457.513,12.585L458.65,11.625L460.168,10.786L461.305,10.427L462.446,10.067L463.584,9.588L464.719,9.109L465.858,8.868L466.997,8.629L468.133,8.39L469.652,8.989L470.79,10.187L471.932,12.225L473.066,13.663L474.203,13.903L475.343,14.143L476.482,14.383L477.617,14.622L479.137,15.102L480.271,15.581L481.416,15.7L482.551,15.581L483.687,15.461L484.827,15.342L485.967,15.221L487.102,14.383L488.622,13.425L489.757,12.585L490.9,12.225L492.035,11.985L493.173,11.865L494.312,11.625L495.449,11.506L496.586,11.386L498.106,12.105L499.241,13.064L500.383,14.023L501.52,15.102L502.655,15.461L503.794,15.221L504.934,14.982L506.071,15.461L507.589,16.061L508.726,15.581L509.867,15.221L511.005,13.783L512.14,12.225L513.279,11.027L514.418,11.147L515.551,11.745L517.071,12.824L518.206,14.383L519.35,14.503L520.484,15.102L521.622,15.102L522.762,15.221L523.9,15.581L525.035,15.581L526.556,14.383L527.69,14.383L528.834,14.622L531.106,14.622L532.246,15.581L533.383,15.821L534.521,15.821L536.04,15.7L537.175,15.581L538.316,15.221L539.454,15.221L540.589,15.102L541.729,14.862L542.867,14.622L544.005,14.383L545.522,13.903L546.66,13.783L547.802,13.903L548.938,14.263L550.073,14.503L551.213,14.622L552.353,15.221L553.489,15.342L555.007,14.982L556.145,14.503L557.286,14.143L558.423,14.263L559.558,14.742L560.697,14.503L561.837,14.622L562.974,14.982L564.492,15.461L565.629,15.821L566.771,15.461L567.905,15.221L569.043,15.7L570.182,15.7L571.321,15.461L572.456,15.102L573.977,15.102L575.111,15.461L576.255,15.7L577.39,15.941L578.527,16.181L579.667,16.181L580.806,16.301L585.74,16.301L586.875,15.821L588.012,15.342L589.151,15.7L590.291,16.181L591.426,16.301L592.945,16.301L594.08,16.061L595.222,15.821L596.359,15.821L597.496,16.301L598.634,16.421L599.773,15.941L600.91,16.061L602.428,16.421L603.565,16.301L611.912,16.301L613.05,16.181L616.464,16.181L617.603,16.061L618.742,16.061L619.88,15.941L621.397,16.061L622.534,16.061L623.676,16.181L624.813,16.181L625.948,16.301L627.088,16.181L628.227,16.061L629.361,15.821L630.882,15.7L632.019,15.581L641.501,15.581L642.646,15.342L643.78,14.982L644.917,14.622L646.057,14.503L647.196,14.503L648.331,14.263L649.851,13.903L650.986,13.543L653.265,13.543L654.402,13.783L655.541,14.143L656.679,14.263L657.815,13.903L659.336,13.663L660.471,13.783L661.612,13.425L662.749,13.303L663.884,13.543L665.023,13.663L666.163,13.783L667.683,13.903L668.818,13.783L669.955,13.783L671.097,13.903L672.229,14.023L673.366,14.143L675.646,14.383L677.163,14.383L678.301,14.263L679.436,14.263L680.579,14.143L681.714,13.783L682.852,13.425L683.99,13.064L685.13,13.184L686.647,13.543L687.785,13.903L688.92,13.903L690.063,14.023L691.198,13.903L692.336,13.663L693.476,13.425L694.612,13.425L696.133,13.543L697.27,13.663L698.404,13.543L699.546,13.425L700.684,13.064L701.818,12.704L702.958,12.464L704.097,12.105L705.617,12.464L706.752,12.345L707.889,12.225L709.03,12.345L711.303,12.345L712.446,12.225L713.582,12.105L715.102,12.225L716.236,12.585L717.374,12.824L718.516,12.585L719.652,12.824L720.787,13.184L721.929,13.425L723.066,12.944L724.586,12.585L725.721,12.704L726.858,12.944L728,13.184L729.135,13.543L730.272,13.783L731.414,13.903L732.551,13.783L734.068,13.663L735.206,13.064L736.341,12.585L737.484,12.345L738.619,12.944L739.757,14.143L740.898,14.982L742.035,15.7L743.553,16.061L744.69,16.421L745.825,16.78L746.969,16.66L748.104,16.421L749.241,15.821L750.383,14.982L751.521,13.903L753.038,13.184L754.175,13.184L755.31,12.944L756.451,12.944L757.589,13.425L758.726,13.903L759.867,14.383L761.002,14.982L762.522,15.221L763.657,15.102L764.795,14.263L765.937,13.663L767.073,13.663L768.208,13.303L769.353,12.585L770.487,11.865L772.007,12.225L773.142,12.464L774.279,12.824L775.421,13.064L776.558,13.184L777.692,12.944L778.837,12.704L779.972,13.064L781.491,13.663L782.627,13.303L783.764,13.064L784.905,13.184L786.043,13.184L787.178,13.064L788.319,12.944L789.456,12.944L790.974,13.184L792.111,13.543L793.248,13.425L794.39,12.824L795.524,12.105L796.662,12.944L797.804,14.263L798.94,15.342L800.456,14.622L801.598,14.023L802.735,13.903L803.87,13.425L805.007,13.425L806.148,13.903L807.286,14.503L808.421,14.143L809.94,12.824L811.083,11.386L812.22,11.985L813.354,12.345L814.492,12.105L815.634,12.585L816.771,13.663L817.905,13.903L819.426,13.663L820.567,12.944L821.702,12.824L822.839,13.543L823.977,14.263L825.118,14.503L826.253,14.143L827.391,13.425L828.905,13.184L830.047,13.425L831.185,13.543L832.319,13.663L833.456,13.903L834.599,14.143L835.735,14.263L836.87,14.383L838.391,14.862L839.532,15.221L840.669,15.581L841.804,15.461L844.083,15.461L845.22,16.061L846.354,16.421L847.875,16.66L849.017,16.66L850.153,16.78L851.289,16.061L852.426,15.461L853.567,14.862L854.704,14.982L855.84,16.061L857.359,16.421L858.501,16.421L859.636,15.941L860.773,15.221L861.91,14.982L863.052,15.7L864.187,15.221L865.324,14.622L866.842,14.862L867.985,14.982L869.121,14.982L870.258,15.102L871.393,15.342L872.536,15.461L873.672,14.263L874.809,12.824L876.326,11.745L877.471,13.663L878.605,15.342L880.877,15.342L882.021,15.461L884.293,15.461L885.811,15.581L888.09,15.581L889.227,15.7L898.709,15.7L899.847,15.821L900.988,15.821L902.125,15.941L904.78,15.941L905.922,15.461L907.059,14.982L908.194,14.503L909.331,13.903L910.473,14.742L911.61,14.862L912.745,14.982L914.265,15.821L915.406,15.941L916.544,15.821L917.679,15.342L918.815,14.862L919.957,14.023L921.093,14.383L922.229,14.862L923.749,14.622L924.892,14.742L926.026,14.862L927.163,14.862L928.298,14.263L929.442,14.023L930.577,13.663L931.714,13.903L933.231,14.263L934.376,14.622L935.511,14.862L936.647,14.742L937.782,14.742L938.927,14.982L940.062,14.982L941.198,14.862L942.717,14.862L943.86,14.982L944.995,14.982L946.133,14.862L947.268,14.742L948.409,14.503L949.546,14.383L950.684,14.742L952.201,15.102L953.343,15.221L954.479,15.221L955.615,14.503L956.752,13.303L957.894,13.663L959.03,14.622L960.166,14.982L961.686,15.461L962.827,15.461L963.965,15.342L965.1,15.7L967.378,15.7L968.516,15.821L973.449,15.821L974.584,15.941L975.721,16.301L976.863,16.421L979.135,16.421L980.655,16.54L984.068,16.54L985.201,16.66L987.48,16.66L988.617,16.78L992.414,16.78L993.549,16.9L996.965,16.9L998.1,17.02L1000.76,17.02L1001.9,17.14L1004.17,17.14L1005.31,17.26L1006.45,17.26L1007.58,17.38L1010.25,17.38L1011.38,17.5L1012.52,17.5L1013.65,17.618L1014.8,17.618L1015.93,17.739L1018.59,17.739L1019.73,17.859L1020.87,17.859L1022,17.978L1023.14,17.978L1024.28,18.098L1026.55,18.098L1028.07,18.218L1030.35,18.218L1031.49,18.338L1032.62,18.338L1033.77,18.457L1036.04,18.457L1037.56,18.579L1038.7,18.579L1039.84,18.698L1042.11,18.698L1043.25,18.938L1044.39,19.537L1045.52,20.735L1047.04,21.695L1048.18,22.294L1049.32,19.896L1050.46,19.178L1051.59,21.336L1052.73,19.777L1053.87,18.098L1055.01,17.739L1056.53,19.777L1057.67,19.178L1058.8,17.739L1059.94,19.178L1061.08,19.537L1062.22,18.818L1063.35,18.338L1064.49,21.336L1066.01,19.058L1067.15,20.496L1068.29,20.376L1069.42,18.938L1070.56,18.579L1071.7,16.66L1072.84,16.78L1073.97,17.978L1075.49,18.938L1076.64,17.5L1077.77,18.457L1078.91,19.537L1080.05,19.058L1081.19,20.136L1082.32,22.175L1083.46,21.815L1084.98,22.175L1086.12,22.653L1087.26,22.533L1088.39,21.934L1089.53,20.376L1090.67,17.739L1091.81,18.818L1092.94,18.938L1094.46,20.256L1095.61,21.096L1096.74,20.376L1097.88,19.298L1099.01,19.418L1100.16,22.294L1101.29,21.815L1102.43,22.653L1103.94,24.332L1105.09,21.934L1106.23,22.294L1107.36,23.733L1108.5,21.455L1109.64,20.496L1110.78,21.216L1111.91,24.451L1113.43,22.533L1114.57,21.336L1115.71,20.016L1116.84,20.136L1117.98,24.093L1119.12,24.332L1120.26,25.171L1121.39,25.291L1122.91,25.051L1124.06,21.934L1125.19,23.133L1126.33,24.451L1127.47,25.411L1128.61,25.171L1129.75,23.133L1130.88,19.537L1132.4,19.418L1133.54,20.976L1134.68,20.735L1135.81,20.615L1136.95,20.735L1138.09,20.016L1139.23,21.096L1140.36,22.533L1141.88,22.773L1143.02,22.773L1144.16,24.451L1145.3,24.811L1146.43,25.291L1147.57,25.411L1148.71,26.25L1149.85,26.729L1151.36,24.332L1152.51,23.374L1153.64,24.332L1154.78,25.53L1155.91,24.931L1157.06,26.011L1158.19,24.691L1159.33,23.374L1160.85,22.893L1161.99,22.773L1163.13,23.374L1164.26,24.811L1165.4,23.733L1166.54,23.253L1167.68,22.533L1168.81,23.013L1170.33,23.493L1171.48,23.493L1172.61,24.451L1173.75,24.212L1174.88,24.332L1176.03,23.972L1177.16,24.451L1178.3,24.451L1179.82,25.291L1180.96,24.451L1182.1,24.931L1183.23,24.212L1184.37,25.411L1185.51,25.171L1186.65,25.53L1187.78,25.051L1189.3,23.374L1190.44,22.893L1191.58,20.376L1192.72,21.934L1193.85,23.374L1195,23.972L1196.13,23.852L1197.27,26.011L1198.79,26.37L1199.93,26.49L1201.06,26.849L1202.2,26.25L1203.34,26.131L1204.48,25.171L1206.75,25.171L1208.27,25.53L1209.41,25.171L1210.55,24.811L1211.69,24.691L1212.82,25.051L1213.96,27.089L1215.1,26.25L1216.23,25.051L1217.75,25.889L1218.9,26.131L1220.03,25.171L1221.17,25.051L1222.31,25.171L1223.45,24.332L1224.58,25.051L1225.72,24.811L1227.24,24.691L1228.38,25.291L1229.52,25.171L1231.79,25.171L1232.93,25.411L1234.07,25.051L1235.2,24.811L1236.72,24.931L1237.87,26.609L1239,26.729L1240.14,26.729L1241.27,26.849L1242.42,26.37L1243.55,25.889L1244.69,26.849L1246.21,27.688L1247.35,27.209L1248.48,27.209L1249.62,26.729L1250.76,26.25L1251.9,26.131L1253.04,26.49L1254.17,27.209L1255.69,25.411L1256.83,25.889L1257.97,26.49L1259.11,26.849L1260.24,27.089L1261.39,27.209L1262.52,27.448L1263.66,27.928L1265.17,27.808L1266.32,27.448L1267.45,27.329L1268.59,27.448L1269.73,26.729L1270.87,26.729L1272.01,26.49L1273.14,26.49L1274.66,26.131L1275.8,25.889L1276.94,24.931L1278.07,24.451L1279.21,24.332L1280.35,24.212L1281.49,25.051L1282.62,25.53L1284.14,25.53L1285.29,25.411L1286.42,25.53L1287.56,26.131L1288.69,26.011L1289.84,26.011L1290.97,25.411L1292.11,25.65L1293.63,26.25L1294.77,26.011L1295.91,25.53L1297.04,25.291L1298.18,25.53L1299.32,25.65L1300.45,26.49L1301.59,26.49L1303.11,26.25L1304.25,26.25L1305.39,26.37L1306.53,26.49L1307.66,26.49L1308.8,26.25L1309.94,25.889L1312.59,25.889L1313.74,25.051L1314.87,24.212L1316.01,23.972L1317.14,23.733L1318.29,23.374L1319.42,22.653L1320.56,22.533L1322.08,22.294L1323.22,21.934L1324.36,21.815L1325.49,21.455L1326.63,20.976L1327.77,20.496L1328.91,20.136L1330.04,19.896L1331.56,19.657L1332.7,19.298L1333.84,19.058L1334.98,18.938L1336.11,18.818L1337.26,18.818L1338.39,19.058L1342.19,19.058L1343.32,18.938L1344.46,18.938L1345.6,18.698L1346.74,18.579L1347.88,18.338L1349.01,18.579L1355.08,18.579L1356.23,18.938L1357.36,19.178L1358.5,19.058L1360.02,19.058L1361.16,18.818L1362.29,18.938L1363.43,19.178L1364.57,19.298L1365.71,19.178L1366.84,19.178L1367.98,19.298L1369.5,19.537L1370.64,19.537L1371.78,19.777L1372.91,19.896L1374.05,20.256L1375.19,20.136L1376.33,20.496L1377.46,20.615L1378.98,20.615L1380.12,20.256L1381.26,20.016L1382.4,20.256L1383.53,20.256L1384.68,20.136L1385.81,20.376L1387.33,20.735L1388.47,20.735L1389.61,21.455L1390.75,22.054L1391.88,22.414L1393.02,23.133L1394.16,23.852L1395.3,24.212L1396.82,24.572L1397.95,25.171L1399.1,25.53L1400.23,25.77L1401.37,26.011L1402.5,26.25L1403.65,26.37L1404.78,26.49L1406.3,26.609L1410.85,26.609L1411.99,26.729L1413.13,26.849L1414.27,26.969L1415.79,26.849L1416.92,26.849L1418.06,26.729L1419.2,26.609L1420.34,26.729L1421.47,26.49L1422.61,26.25L1423.75,25.77L1425.27,25.171L1426.4,24.093L1427.55,23.852L1428.68,23.253L1429.82,22.773L1430.95,22.653L1433.23,22.653L1434.75,23.013L1435.89,23.374L1437.03,23.613L1438.17,23.493L1439.3,23.013L1440.44,22.653L1441.58,22.653L1442.72,22.054L1444.24,21.336L1445.37,21.216L1446.52,20.976L1447.65,20.496L1448.79,19.657L1449.92,18.698L1451.07,18.218L1452.2,17.618L1453.72,17.02L1454.85,16.301L1456,16.061L1457.13,15.821L1458.27,15.581L1459.4,15.342L1460.55,14.862L1461.68,14.742L1463.2,14.862L1464.34,14.862L1465.48,14.383L1466.62,14.263L1467.75,14.143L1468.89,14.023L1470.03,13.903L1471.17,13.663L1473.82,13.663L1474.96,13.425L1476.1,13.425L1477.24,13.663L1478.37,12.585L1479.52,11.386L1480.65,11.147L1482.17,11.027L1483.31,11.386L1484.45,11.625L1485.59,11.506L1486.72,10.906L1487.86,9.947L1489,9.348L1490.14,8.39L1491.65,7.789L1492.79,6.711L1493.93,5.033L1495.07,4.194L1496.21,3.116L1497.34,2.277L1498.48,1.796L1499.62,2.277L1501.14,1.556L1502.28,1.556L1503.42,1.676L1504.55,2.157L1505.69,2.397L1506.83,2.037L1507.97,1.437L1509.1,0.478L1510.62,0.119L1511.76,-0.48L1512.9,-0.961L1514.04,-1.081L1515.17,-1.321L1516.31,-1.441L1517.45,-1.679L1518.59,-1.679L1520.11,-1.8L1522.39,-1.8L1523.52,-1.679L1524.66,-1.679L1525.8,-1.559L1526.94,-1.441L1528.07,-1.441L1529.59,-1.321L1530.73,-1.321L1531.87,-1.2L1533.01,-1.081L1534.14,-0.841L1535.28,-0.48L1536.42,-0.241L1537.56,-0.001L1539.08,0.119L1540.21,0.239L1541.35,0.838L1542.49,1.077L1543.63,1.197L1544.76,1.437L1547.04,1.437L1548.56,1.556L1549.7,1.676L1550.84,1.796L1551.98,1.916L1553.11,2.157L1556.53,2.157L1558.05,2.037L1559.18,2.037L1560.32,1.916L1561.46,1.916L1562.6,1.796L1563.73,1.676L1564.88,1.556L1566.01,1.317L1567.53,1.437L1568.67,1.676L1569.81,1.796L1570.94,1.916L1572.08,1.556L1573.22,1.317L1574.36,0.838L1575.49,0.239L1577.02,-0.241L1578.15,-0.841L1579.29,-1.441L1580.43,-2.039L1581.57,-2.638L1582.7,-3.119L1583.84,-3.478L1584.98,-3.837L1586.5,-4.676L1587.63,-5.276L1588.78,-5.875L1589.91,-6.235L1591.05,-6.595L1592.18,-7.074L1593.33,-7.552L1594.46,-7.912L1595.98,-8.273L1597.12,-9.112L1598.26,-9.471L1599.4,-10.071L1600.53,-10.431L1601.67,-10.91L1602.81,-11.27L1603.95,-11.389L1605.47,-11.749L1606.6,-12.109L1607.75,-12.468L1608.88,-12.947L1610.02,-13.307L1611.15,-13.667L1612.29,-14.027L1613.43,-14.385L1614.95,-14.745L1616.08,-15.105L1617.23,-15.464L1618.36,-15.824L1619.5,-16.184L1620.63,-16.543L1621.78,-16.903L1622.91,-17.263L1624.43,-17.622L1625.57,-17.982L1626.71,-18.222L1627.85,-18.581L1628.98,-18.94L1630.12,-19.18L1631.26,-19.54L1632.4,-19.9L1633.92,-20.139L1635.05,-20.499L1636.19,-20.739L1637.33,-21.098L1638.47,-21.338L1639.6,-21.697L1640.75,-21.938L1641.88,-22.177L1643.4,-22.536L1644.54,-22.777L1645.68,-23.016L1646.82,-23.256L1647.95,-23.256L1649.09,-23.375" style="fill:none;fill-rule:nonzero;stroke:rgb(46,54,144);stroke-width:1.31px;stroke-linejoin:miter;stroke-miterlimit:4;"/>
        </g>
    </g>
</svg>
