<?xml version="1.0" encoding="UTF-8" standalone="no"?>
<!DOCTYPE svg PUBLIC "-//W3C//DTD SVG 1.1//EN" "http://www.w3.org/Graphics/SVG/1.1/DTD/svg11.dtd">
<svg width="100%" height="100%" viewBox="0 0 1048 293" version="1.1" xmlns="http://www.w3.org/2000/svg" xmlns:xlink="http://www.w3.org/1999/xlink" xml:space="preserve" xmlns:serif="http://www.serif.com/" style="fill-rule:evenodd;clip-rule:evenodd;">
    <g transform="matrix(1,0,0,1,330.995,161.54)">
        <g id="depth-section" serif:id="depth section">
            <path d="M0,28.218L1.259,28.442L2.31,29.024L3.57,29.651L4.831,29.561L5.881,29.203L7.142,28.844L8.191,29.069L9.452,29.293L10.712,29.517L11.762,29.607L13.022,30.009L14.282,30.367L15.333,30.772L16.594,30.86L17.854,30.592L18.904,30.322L20.165,30.099L21.424,29.92L22.476,30.099L23.736,30.322L24.996,30.278L26.046,30.099L27.307,29.92L28.356,29.74L29.617,29.92L30.877,30.099L31.927,30.233L33.188,30.145L34.448,30.055L35.499,29.965L36.76,29.875L38.019,29.875L39.07,29.965L40.331,30.145L41.591,30.322L42.641,30.547L43.901,30.637L48.521,30.637L49.782,30.547L51.042,30.233L52.093,29.965L53.354,29.74L54.613,29.472L55.664,29.561L56.925,29.875L58.186,30.055L59.235,30.145L60.496,30.278L61.756,30.412L62.807,30.502L64.066,30.592L65.116,30.681L66.377,30.772L67.637,30.906L68.688,31.039L69.948,31.129L71.208,31.174L72.259,31.219L73.52,31.219L74.778,31.264L75.83,31.309L77.091,31.309L78.351,31.354L79.4,31.398L80.661,31.398L81.922,31.442L82.972,31.488L84.231,31.488L85.282,31.531L86.543,31.577L87.803,31.577L88.853,31.622L91.373,31.622L92.425,31.666L97.256,31.666L98.516,31.711L103.137,31.711L104.397,31.666L105.447,31.622L106.707,31.577L107.969,31.488L109.019,31.442L110.28,31.442L111.538,31.398L112.59,31.398L113.85,31.354L116.161,31.354L117.422,31.309L119.731,31.309L120.991,31.354L122.041,31.354L123.303,31.309L124.563,31.398L125.614,31.488L129.184,31.488L130.445,31.531L135.276,31.531L136.325,31.577L137.587,31.577L138.849,31.622L139.897,31.666L141.156,31.711L142.21,31.756L143.467,31.711L144.729,31.756L145.779,31.756L147.04,31.801L148.298,31.801L149.352,31.846L150.609,31.846L151.871,31.891L152.921,31.891L154.183,31.936L155.44,31.936L156.49,31.98L157.752,32.026L158.801,32.071L160.062,32.16L161.324,32.204L162.374,32.293L163.632,32.338L164.894,32.383L165.943,32.428L167.205,32.428L168.467,32.473L169.516,32.518L170.774,32.518L172.036,32.563L173.085,32.608L174.347,32.608L175.608,32.653L176.658,32.697L177.916,32.786L178.97,32.83L180.228,32.875L181.488,32.921L182.539,32.965L183.801,33.011L188.631,33.011L189.681,32.965L190.942,32.875L192.2,32.786L193.25,32.697L194.512,32.653L195.561,33.145L196.822,33.906L198.084,34.758L199.135,36.235L200.392,37.176L201.653,34.846L202.703,35.609L203.965,33.1L205.227,32.653L206.276,33.862L207.534,32.026L208.796,32.16L209.846,32.563L211.106,33.549L212.368,34.039L213.418,32.293L214.676,32.742L215.729,32.518L216.987,32.742L218.25,34.533L219.299,35.16L220.561,36.101L221.817,36.996L222.871,37.4L224.13,34.309L225.392,33.324L226.44,34.129L227.702,34.891L228.961,33.817L230.01,34.758L231.271,33.592L232.533,33.324L233.582,33.503L234.844,33.817L235.895,32.875L237.151,33.189L238.414,33.459L239.464,35.205L240.725,34.264L241.986,33.682L243.036,35.071L244.294,33.637L245.556,34.309L246.605,34.578L247.867,33.592L249.128,32.875L250.178,34.176L251.437,34.354L252.489,33.727L253.747,33.549L255.01,33.413L256.059,33.951L257.32,33.817L258.579,33.817L259.631,33.727L260.89,33.592L262.151,33.459L263.2,33.592L264.462,33.682L265.721,33.817L266.77,33.906L268.031,34.039L269.293,34.264L270.343,34.668L271.604,34.444L272.654,33.951L273.913,33.906L275.174,33.1L276.224,33.369L278.746,33.279L279.796,33.011L281.055,33.145L282.315,32.473L283.365,32.16L284.627,32.338L285.889,32.248L286.937,32.428L288.196,33.145L289.25,33.369L290.507,33.235L291.77,33.189L292.819,33.1L294.08,33.592L295.339,33.637L296.392,32.83L297.649,33.145L298.911,33.1L299.961,33.592L301.222,32.383L302.48,33.369L303.53,33.235L304.791,32.563L306.053,32.608L307.104,32.204L308.365,31.801L309.414,31.846L310.673,31.936L311.935,32.608L312.983,33.413L314.245,33.592L315.507,34.22L316.556,33.682L317.814,33.817L319.076,34.039L320.125,33.995L321.387,34.489L322.648,34.399L323.697,34.176L324.956,34.936L326.218,35.071L327.268,35.519L328.529,35.205L329.579,35.384L330.841,35.742L332.099,33.413L333.151,33.995L334.409,33.951L335.671,32.114L336.721,31.936L337.982,31.98L339.24,30.681L340.29,30.906L341.552,30.278L342.812,30.367L343.863,30.502L345.125,30.233L346.174,30.055L347.433,30.322L348.694,30.233L349.743,30.322L352.267,30.412L353.315,30.412L354.574,30.367L355.836,30.278L356.885,30.055L358.146,29.83L359.408,29.651L361.716,29.651L362.978,29.561L364.028,29.472L365.289,29.338L366.339,29.069L367.601,28.89L368.858,28.666L369.911,28.262L371.17,28.173L372.431,27.993L373.48,27.86L374.742,27.68L376,27.591L377.05,27.547L378.312,27.457L379.573,27.143L380.623,26.696L381.885,26.114L383.143,25.486L384.192,25.262L385.454,24.993L386.504,24.769L389.026,24.321L390.076,24.097L391.334,23.873L392.596,23.694L393.646,23.47L394.906,23.246L396.168,23.022L397.219,22.798L398.476,22.619L399.737,22.485L400.788,22.44L402.05,22.44L403.099,22.53L404.36,22.53L405.619,22.35L406.671,22.171L407.93,22.171L409.191,22.215L410.24,22.127L411.502,21.858L412.761,21.545L413.81,21.276L415.071,20.961L416.333,20.782L417.383,20.694L418.645,20.604L419.902,20.558L420.952,20.469L422.214,20.334L423.264,20.244L424.525,20.29L425.786,20.424L426.836,20.558L428.094,20.739L429.355,20.694L430.405,20.424L431.667,20.155L432.928,20.155L433.979,20.2L435.236,20.29L436.497,20.38L437.548,20.469L438.81,20.558L439.858,20.694L441.12,20.782L442.379,20.916L443.432,21.006L444.689,21.141L445.951,21.051L447,21.051L448.262,21.141L449.521,21.141L450.569,21.186L453.093,21.186L454.144,21.141L455.404,21.141L456.662,21.186L457.713,21.276L458.974,21.408L460.023,21.633L461.285,21.364L462.547,21.723L463.596,21.858L464.854,21.723L466.115,21.768L467.165,21.858L468.427,21.947L469.688,22.037L470.738,22.081L471.996,22.171L473.258,22.35L474.308,22.44L475.569,22.53L476.828,22.663L477.88,22.798L479.139,22.932L480.191,23.112L481.449,23.291L482.711,23.47L483.761,23.694L485.021,23.694L486.28,23.56L487.33,23.47L488.591,23.514L489.853,23.873L490.903,23.918L492.165,23.962L493.422,24.053L494.473,24.143L495.734,24.231L496.783,24.365L498.045,24.679L499.307,24.86L500.355,24.993L501.614,25.172L502.876,25.352L503.925,25.575L505.187,25.799L506.448,26.024L507.498,26.246L508.756,26.471L510.018,26.651L511.067,26.784L512.329,26.828L513.588,27.053L514.641,27.233L515.898,27.322L516.951,27.411L518.21,27.501L520.521,27.501L521.782,27.591L523.04,27.547L524.09,27.411L525.352,27.277L526.612,27.188L527.663,26.963L528.925,26.696L530.182,26.381L531.232,26.114L532.494,25.754L533.756,25.127L534.805,24.545L536.066,24.053L537.116,23.605L538.374,23.156L539.636,22.663L540.685,22.037L541.946,21.455L543.208,20.916L544.259,20.514L545.516,20.334L546.777,20.066L547.828,19.707L549.089,19.035L550.348,18.319L551.4,18.096L552.658,18.096L553.711,18.006L554.97,17.96L556.231,17.647L557.28,17.334L558.542,16.976L559.8,16.751L560.85,16.169L562.111,15.766L563.374,15.319L564.423,14.87L565.685,14.332L566.943,14.242L567.992,14.512L569.254,14.332L570.516,14.064L571.564,13.974L572.826,13.66L573.876,13.033L575.134,12.721L576.396,12.631L577.445,12.676L578.706,12.406L579.968,12.048L581.019,11.869L582.275,11.78L583.537,11.376L584.588,11.287L585.85,11.242L587.107,10.839L588.16,10.211L589.419,9.854L590.471,9.585L591.729,9.047L592.991,8.735L594.04,8.42L595.302,7.703L596.561,7.077L597.609,6.584L598.871,5.957L600.134,5.42L601.183,5.106L602.444,4.703L603.703,4.031L604.752,3.225L606.014,2.418L607.275,1.568L608.325,0.851L609.586,0.313L610.636,0.045L611.895,-0.224L613.155,-0.627L614.205,-1.075L615.467,-1.299L616.729,-1.613L617.778,-1.97L619.037,-2.33L620.298,-2.643L621.348,-3.002L622.609,-3.314L623.867,-3.629L624.92,-3.941L626.179,-4.211L627.44,-4.523L628.489,-4.838L629.751,-5.105L630.801,-5.42L632.062,-5.688L633.32,-5.957L634.369,-6.226L635.631,-6.539L636.894,-6.808L637.943,-7.077L639.204,-7.345L640.463,-7.615L641.513,-7.884L642.773,-8.107L644.035,-8.376L645.085,-8.645L646.347,-8.869L647.396,-8.959L648.654,-9.004L649.916,-9.004L650.965,-9.048L652.228,-9.093L653.489,-9.138L654.538,-9.138L655.797,-9.182" style="fill:none;fill-rule:nonzero;stroke:rgb(88,89,91);stroke-width:0.65px;"/>
        </g>
    </g>
</svg>
