<?xml version="1.0" encoding="UTF-8" standalone="no"?>
<!DOCTYPE svg PUBLIC "-//W3C//DTD SVG 1.1//EN" "http://www.w3.org/Graphics/SVG/1.1/DTD/svg11.dtd">
<svg width="100%" height="100%" viewBox="0 0 1048 293" version="1.1" xmlns="http://www.w3.org/2000/svg" xmlns:xlink="http://www.w3.org/1999/xlink" xml:space="preserve" xmlns:serif="http://www.serif.com/" style="fill-rule:evenodd;clip-rule:evenodd;">
    <g transform="matrix(1,0,0,1,60.6509,152.856)">
        <g id="depth-section" serif:id="depth section">
            <path d="M0,34.618L1.05,34.573L2.311,34.662L3.57,34.26L4.62,33.811L5.881,33.766L7.141,33.991L8.191,34.214L9.452,34.394L10.712,34.662L11.762,34.708L13.022,34.618L14.073,34.573L15.333,34.752L16.594,34.887L17.644,35.02L18.904,34.975L21.215,34.975L22.476,34.93L23.735,34.93L24.786,34.887L26.047,34.887L27.307,34.843L28.356,34.752L29.617,34.752L30.877,34.708L34.238,34.708L35.499,34.662L40.33,34.662L41.38,34.618L42.641,34.438L43.901,34.036L44.951,33.766L46.212,34.036L47.472,34.26L48.522,34.528L49.783,34.618L51.043,34.17L52.093,33.409L53.354,32.96L54.404,33.946L55.665,34.348L56.926,34.528L57.975,34.708L59.235,34.662L60.495,34.618L61.546,34.708L62.807,34.752L67.638,34.752L68.688,34.708L73.521,34.708L74.569,34.662L106.708,34.662L107.968,34.618L130.445,34.618L131.495,34.573L151.66,34.573L152.921,34.528L161.322,34.528L162.374,34.483L168.255,34.483L169.516,34.438L182.539,34.438L183.8,34.394L189.681,34.394L190.94,34.348L196.822,34.348L198.083,34.304L203.966,34.304L205.015,34.26L209.847,34.26L211.106,34.214L215.729,34.214L216.989,34.26L219.299,34.26L220.56,34.304L221.609,34.304L222.87,34.348L225.18,34.348L226.44,34.394L227.701,34.348L228.751,34.348L230.012,34.304L231.271,34.26L232.323,34.214L233.583,34.214L234.843,34.17L235.894,34.08L237.154,34.124L239.465,34.124L240.726,34.17L241.774,34.17L243.035,34.214L244.296,34.26L245.346,34.304L246.606,34.214L247.866,34.17L248.916,34.214L250.177,34.26L251.437,34.304L252.488,34.26L253.749,34.214L255.008,34.08L256.06,33.991L258.58,33.901L259.63,33.946L260.89,33.946L261.94,33.856L263.201,33.856L264.461,33.811L265.511,33.722L266.771,33.678L268.031,33.722L269.083,33.766L273.914,33.766L275.175,33.811L277.485,33.811L278.535,33.766L281.056,33.766L282.105,33.722L283.366,33.678L284.626,33.632L285.677,33.588L286.937,33.588L288.197,33.544L289.248,33.544L290.509,33.497L291.768,33.497L292.819,33.453L294.08,33.453L295.34,33.409L296.39,33.363L297.65,33.363L298.7,33.319L299.961,33.274L301.221,33.274L302.271,33.229L303.531,33.184L305.843,33.184L307.104,33.139L309.414,33.139L310.675,33.095L314.245,33.095L315.295,33.05L316.556,33.05L317.815,33.005L318.865,32.96L320.126,32.915L323.697,32.915L324.957,32.96L326.008,33.005L327.269,33.05L332.1,33.05L333.15,33.005L334.41,32.915L335.46,32.871L336.721,32.781L337.98,32.737L340.292,32.737L341.552,32.871L342.603,32.96L343.863,33.05L345.122,33.005L346.174,33.005L347.435,33.05L348.694,33.095L349.744,33.184L351.005,33.184L352.266,33.229L354.575,33.229L355.626,33.274L358.146,33.274L359.196,33.319L365.289,33.319L366.339,33.363L374.741,33.363L375.791,33.319L377.051,33.274L378.312,33.229L380.624,33.229L381.882,33.184L385.455,33.184L386.505,33.139L391.335,33.139L392.385,33.184L393.646,33.139L394.906,33.184L395.958,33.229L397.217,33.184L398.477,33.095L399.527,33.05L407.931,33.05L409.192,33.095L410.241,33.095L411.5,33.139L419.695,33.139L420.953,33.184L424.526,33.184L425.784,33.229L428.096,33.229L429.145,33.274L430.406,33.319L431.668,33.319L432.718,33.363L433.976,33.409L435.237,33.409L436.287,33.453L439.859,33.453L441.118,33.497L443.429,33.497L444.69,33.544L445.952,33.544L447.002,33.588L448.26,33.588L449.313,33.632L450.571,33.678L451.832,33.678L452.883,33.722L457.714,33.722L458.975,33.766L461.286,33.766L462.544,33.722L463.594,33.722L464.855,33.678L465.904,33.678L467.166,33.632L468.428,33.588L469.479,33.544L470.735,33.544L471.997,33.497L473.047,33.453L474.309,33.409L475.57,33.363L476.62,33.363L477.878,33.319L479.14,33.274L480.189,33.274L481.45,33.229L482.712,33.274L489.643,33.274L490.904,33.319L492.161,33.274L493.215,33.229L494.474,33.184L495.735,33.139L496.784,33.095L498.046,33.005L499.305,32.96L500.354,32.96L501.615,32.915L502.877,32.871L503.926,32.871L505.187,32.827L506.238,32.827L507.495,32.737L508.758,32.691L509.808,32.602L511.068,32.513L512.33,32.423L513.38,32.333L514.638,32.244L515.899,32.154L516.949,32.064L518.211,31.975L519.472,31.886L520.521,31.796L521.78,31.706L522.833,31.662L524.091,31.616L525.354,31.526L526.402,31.482L527.664,31.482L528.923,31.438L529.975,31.438L531.233,31.482L532.495,31.482L533.544,31.526L538.375,31.526L539.637,31.438L540.687,31.347L541.947,31.259L542.998,31.124L544.257,30.99L545.518,30.899L546.567,30.765L547.829,30.676L549.09,30.587L550.14,30.497L551.398,30.407L552.659,30.362L553.709,30.362L554.971,30.317L556.232,30.273L557.281,30.229L558.54,30.183L559.594,30.139L560.851,30.049L562.113,30.005L563.163,29.96L564.424,29.915L565.683,29.87L566.735,29.825L567.993,29.78L569.255,29.735L570.305,29.69L571.565,29.645L572.824,29.6L573.874,29.556L575.135,29.511L576.396,29.467L577.447,29.423L578.709,29.423L579.758,29.378L581.017,29.333L582.278,29.333L583.327,29.288L584.589,29.288L585.851,29.242L589.42,29.242L590.469,29.198L594.041,29.198L595.3,29.153L596.562,29.108L597.611,29.064L598.873,29.108L599.923,29.153L601.185,29.108L602.442,29.064L603.495,28.974L604.753,28.796L606.015,28.616L607.064,28.436L608.326,28.212L609.584,28.034L610.634,27.899L611.896,27.809L613.156,27.72L614.207,27.632L615.469,27.541L616.518,27.451L617.776,27.361L619.038,27.272L620.087,27.138L621.349,27.048L622.61,26.959L623.659,26.869L624.918,26.735L626.18,26.69L627.229,26.6L628.49,26.511L629.752,26.466L630.803,26.376L632.06,26.331L633.321,26.242L634.372,26.196L635.633,26.108L636.683,26.062L637.944,26.018L639.202,25.929L640.255,25.884L641.514,25.794L642.774,25.749L643.824,25.66L645.086,25.524L646.344,25.435L647.394,25.302L648.655,25.167L649.917,25.032L650.967,24.853L652.229,24.675L653.486,24.54L654.536,24.405L655.798,24.271L656.848,24.137L658.108,24.003L659.37,23.868L660.42,23.733L661.678,23.6L662.939,23.511L663.989,23.421L665.25,23.286L666.512,23.196L667.562,23.106L668.819,23.062L670.081,22.972L671.132,22.927L672.394,22.927L673.442,22.882L674.704,22.882L675.963,22.838L677.015,22.794L678.273,22.748L679.535,22.704L680.584,22.614L681.846,22.524L683.104,22.479L684.153,22.345L685.415,22.256L686.677,22.077L687.727,21.942L688.988,21.807L690.246,21.674L691.296,21.539L692.558,21.493L693.607,21.405L694.869,21.405L696.13,21.36L697.18,21.315L698.437,21.27L699.699,21.18L700.749,21.136L702.011,21.091L703.271,21.001L704.322,20.957L705.58,20.867L706.841,20.823L707.892,20.732L709.153,20.688L710.202,20.598L711.464,20.509L712.723,20.464L713.775,20.329L715.033,20.24L716.295,20.106L717.344,20.016L718.605,19.927L719.864,19.837L720.913,19.702L722.175,19.612L723.437,19.523L724.487,19.433L725.748,19.345L727.006,19.3L728.057,19.3L729.317,19.345L730.367,19.433L731.22,19.373L731.685,19.341L732.262,19.341L732.887,19.297L734.041,19.209L734.666,19.165L735.242,19.121L735.868,19.121L736.445,19.077L737.646,19.077L738.272,19.033L740.051,19.033L740.629,18.989L741.254,18.989L741.831,18.946L742.455,18.946L743.033,18.901L743.657,18.901L744.235,18.858L744.812,18.813L745.437,18.813L746.014,18.77L746.64,18.77L747.217,18.725L747.842,18.682L748.418,18.682L749.044,18.639L749.62,18.595L750.197,18.595L750.822,18.551L751.399,18.551L752.024,18.507L752.602,18.463L753.227,18.463L753.804,18.419L754.429,18.375L755.006,18.375L755.583,18.331L756.208,18.331L756.785,18.288L757.41,18.288L757.987,18.243L758.612,18.243L759.189,18.2L760.969,18.2L761.594,18.156L763.998,18.156L764.575,18.112L765.152,18.156L765.777,18.156L766.354,18.2L767.557,18.2L768.182,18.243L769.384,18.243L769.961,18.288L771.162,18.288L771.739,18.331L773.566,18.331L774.144,18.288L774.769,18.288L775.346,18.243L775.924,18.243L776.548,18.2L777.125,18.2L777.75,18.156L778.327,18.156L778.952,18.112L779.529,18.112L780.154,18.068L780.731,17.892L781.309,17.98L781.934,18.024L784.915,18.024L785.54,17.98L787.319,17.98L787.896,17.936L789.724,17.936L790.301,17.892L790.926,17.806L791.502,17.761L792.08,17.718L792.705,17.673L793.282,17.585L793.906,17.542L794.484,17.498L795.108,17.41L795.687,17.278L796.311,17.103L796.889,16.928L797.465,16.796L798.091,16.665L798.668,16.62L799.293,16.665L799.869,16.708L801.697,16.708L802.273,16.665L802.851,16.577L803.476,16.489L804.053,16.357L804.678,16.225L805.255,16.095L805.88,15.963L806.457,15.875L807.082,15.787L807.659,15.743L808.236,15.655L808.861,15.611L809.437,15.523L810.063,15.436L810.641,15.305L811.266,15.217L811.842,15.085L812.468,14.953L813.045,14.821L813.622,14.69L814.246,14.514L814.824,14.383L815.449,14.251L816.026,14.076L816.65,13.901L817.229,13.768L817.853,13.55L818.431,13.33L819.008,13.111L819.633,12.891L820.209,12.716L820.835,12.54L821.412,12.365L822.037,12.057L822.613,11.795L823.239,11.532L823.815,11.312L824.393,11.137L825.018,10.961L825.595,10.742L826.22,10.522L826.797,10.304L827.422,10.084L827.999,9.821L828.624,9.557L829.201,9.163L829.777,8.723L830.403,8.373L830.98,8.022L831.605,7.671L832.182,7.232L832.808,6.75L833.385,6.136L833.962,5.389L834.586,4.513L835.164,3.722L835.789,3.591L836.366,3.46L836.99,3.372L837.568,3.416L838.193,3.416L838.771,3.372L839.348,3.284L839.973,3.24L840.549,3.24L841.175,2.976L841.752,2.846L842.377,2.802L842.953,2.758L843.579,2.758L844.156,2.714L844.732,2.67L845.357,2.626L845.935,2.626L846.56,2.582L847.137,2.538L847.762,2.538L848.339,2.495L848.964,2.45L849.541,2.45L850.119,2.407L850.743,2.362L851.32,2.362L851.945,2.319L852.522,2.274L853.147,2.274L853.725,2.231L854.35,2.187L854.927,2.187L855.504,2.143L857.331,2.143L857.908,2.099L859.735,2.099L860.312,2.055L863.293,2.055L863.919,2.012L865.121,2.012L865.697,1.968L866.274,1.968L866.9,1.924L868.102,1.924L868.679,1.88L870.506,1.88L871.083,1.837L871.66,1.837L872.285,1.792L872.863,1.792L873.487,1.749L874.064,1.705L874.689,1.705L875.267,1.661L875.892,1.617L876.469,1.617L877.046,1.573L878.248,1.573L878.873,1.529L879.45,1.529L880.075,1.485L881.277,1.485L881.854,1.441L882.432,1.441L883.057,1.397L884.259,1.397L884.836,1.354L886.663,1.354L887.24,1.309L889.645,1.309L890.222,1.266L891.424,1.266L892.048,1.222L892.626,1.179L893.203,1.134L893.828,1.091L894.404,1.091L895.03,1.047L895.607,1.003L896.232,0.959L896.809,0.915L897.435,0.871L898.011,0.871L898.588,0.827L899.213,0.783L899.79,0.739L900.415,0.695L900.992,0.652L901.617,0.652L902.194,0.608L902.819,0.564L903.973,0.476L904.599,0.432L905.176,0.432L905.801,0.389L906.377,0.345L907.003,0.301L907.58,0.257L908.205,0.214L908.781,0.214L909.359,0.169L909.984,0.126L910.562,0.081L911.186,0.038L911.764,0.038L912.389,-0.402L926.141,-0.402" style="fill:none;fill-rule:nonzero;stroke:rgb(88,89,91);stroke-width:0.65px;"/>
        </g>
    </g>
</svg>
