<?xml version="1.0" encoding="UTF-8" standalone="no"?>
<!DOCTYPE svg PUBLIC "-//W3C//DTD SVG 1.1//EN" "http://www.w3.org/Graphics/SVG/1.1/DTD/svg11.dtd">
<svg width="100%" height="100%" viewBox="0 0 1048 293" version="1.1" xmlns="http://www.w3.org/2000/svg" xmlns:xlink="http://www.w3.org/1999/xlink" xml:space="preserve" xmlns:serif="http://www.serif.com/" style="fill-rule:evenodd;clip-rule:evenodd;">
    <g transform="matrix(1,0,0,1,60.6509,152.76)">
        <g id="depth-section" serif:id="depth section">
            <path d="M0,34.714L1.05,34.669L2.311,34.758L3.57,34.356L4.62,33.907L5.881,33.862L7.141,34.087L8.191,34.31L9.452,34.49L10.712,34.758L11.762,34.804L13.022,34.714L14.073,34.669L15.333,34.848L16.594,34.983L17.644,35.116L18.904,35.071L21.215,35.071L22.476,35.026L23.735,35.026L24.786,34.983L26.047,34.983L27.307,34.939L28.356,34.848L29.617,34.848L30.877,34.804L34.238,34.804L35.499,34.758L40.33,34.758L41.38,34.714L42.641,34.534L43.901,34.132L44.951,33.862L46.212,34.132L47.472,34.356L48.522,34.624L49.783,34.714L51.043,34.266L52.093,33.505L53.354,33.056L54.404,34.042L55.665,34.444L56.926,34.624L57.975,34.804L59.235,34.758L60.495,34.714L61.546,34.804L62.807,34.848L67.638,34.848L68.688,34.804L73.521,34.804L74.569,34.758L106.708,34.758L107.968,34.714L130.445,34.714L131.495,34.669L151.66,34.669L152.921,34.624L161.322,34.624L162.374,34.579L168.255,34.579L169.516,34.534L182.539,34.534L183.8,34.49L189.681,34.49L190.94,34.444L196.822,34.444L198.083,34.4L203.966,34.4L205.015,34.356L209.847,34.356L211.106,34.31L215.729,34.31L216.989,34.356L219.299,34.356L220.56,34.4L221.609,34.4L222.87,34.444L225.18,34.444L226.44,34.49L227.701,34.444L228.751,34.444L230.012,34.4L231.271,34.356L232.323,34.31L233.583,34.31L234.843,34.266L235.894,34.176L237.154,34.22L238.414,34.176L239.465,34.087L240.726,33.997L241.774,33.907L243.035,33.818L244.296,33.862L245.346,33.907L246.606,33.818L247.866,33.64L248.916,33.549L250.177,33.593L251.437,33.549L252.488,33.459L253.749,33.505L255.008,33.505L256.06,33.415L258.58,33.325L259.63,33.28L260.89,33.28L261.94,33.191L263.201,33.191L264.461,33.28L265.511,33.191L266.771,33.011L269.083,33.011L270.344,32.967L271.603,32.923L272.653,32.923L273.914,32.877L275.175,32.833L276.225,32.787L277.485,32.787L278.535,32.742L279.796,32.698L281.056,32.698L282.105,32.653L283.366,32.653L284.626,32.609L285.677,32.564L286.937,32.564L288.197,32.519L289.248,32.474L290.509,32.474L291.768,32.429L292.819,32.385L294.08,32.34L295.34,32.294L296.39,32.25L297.65,32.206L298.7,32.206L299.961,32.16L301.221,32.16L302.271,32.116L303.531,32.116L304.792,32.071L307.104,32.071L308.362,32.026L309.414,32.026L310.675,31.982L311.935,31.982L312.984,31.937L315.295,31.937L316.556,31.892L318.865,31.892L320.126,31.847L321.386,31.802L322.437,31.802L323.697,31.758L324.957,31.758L326.008,31.712L328.529,31.712L329.579,31.758L330.84,31.758L332.1,31.802L333.15,31.847L334.41,31.847L335.46,31.668L336.721,31.534L337.98,31.4L339.031,31.31L340.292,31.4L341.552,31.443L342.603,31.443L343.863,31.489L345.122,31.534L346.174,31.534L347.435,31.489L348.694,31.443L349.744,31.355L351.005,31.355L352.266,31.4L353.315,31.4L354.575,31.443L355.626,31.443L356.887,31.489L358.146,31.489L359.196,31.534L362.769,31.534L364.029,31.489L365.289,31.443L366.339,31.443L367.6,31.4L368.859,31.355L369.91,31.175L371.17,31.22L372.22,31.22L373.48,31.265L374.741,31.13L375.791,31.13L377.051,31.175L379.362,31.175L380.624,31.22L381.882,31.265L382.934,31.265L384.193,31.31L385.455,31.355L386.505,31.4L387.766,31.443L389.024,31.489L390.075,31.534L391.335,31.578L392.385,31.578L393.646,31.534L394.906,31.578L395.958,31.622L397.217,31.622L398.477,31.668L404.358,31.668L405.62,31.622L407.931,31.622L409.192,31.578L411.5,31.578L412.554,31.534L413.811,31.489L415.072,31.489L416.123,31.443L417.384,31.443L418.642,31.4L420.953,31.4L422.215,31.355L424.526,31.355L425.784,31.31L429.145,31.31L430.406,31.265L431.668,31.265L432.718,31.22L433.976,31.175L435.237,31.13L447.002,31.13L448.26,31.175L449.313,31.175L450.571,31.086L451.832,30.995L452.883,30.951L454.145,30.907L455.401,30.861L456.455,30.818L460.024,30.818L461.286,30.772L463.594,30.772L464.855,30.728L465.904,30.728L467.166,30.683L468.428,30.683L469.479,30.638L470.735,30.638L471.997,30.593L473.047,30.593L474.309,30.548L476.62,30.548L477.878,30.503L479.14,30.503L480.189,30.458L481.45,30.458L482.712,30.413L485.02,30.413L486.073,30.369L487.331,30.369L488.594,30.325L490.904,30.325L492.161,30.279L493.215,30.279L494.474,30.235L496.784,30.235L498.046,30.189L500.354,30.189L501.615,30.145L502.877,30.145L503.926,30.101L506.238,30.101L507.495,30.056L509.808,30.056L511.068,30.011L512.33,30.011L513.38,29.966L514.638,29.921L515.899,29.876L516.949,29.831L518.211,29.786L519.472,29.696L520.521,29.652L521.78,29.607L522.833,29.563L524.091,29.519L525.354,29.474L526.402,29.429L527.664,29.384L528.923,29.384L529.975,29.338L531.233,29.294L532.495,29.249L533.544,29.204L534.806,29.16L536.064,29.114L537.113,29.07L538.375,29.025L539.637,28.981L540.687,28.936L541.947,28.892L542.998,28.846L544.257,28.802L545.518,28.756L546.567,28.667L547.829,28.622L549.09,28.577L550.14,28.487L551.398,28.443L552.659,28.398L553.709,28.354L554.971,28.264L556.232,28.218L557.281,28.175L558.54,28.085L559.594,28.04L560.851,27.995L562.113,27.905L563.163,27.86L564.424,27.816L565.683,27.772L566.735,27.728L567.993,27.682L569.255,27.591L570.305,27.547L571.565,27.503L572.824,27.457L573.874,27.413L575.135,27.368L576.396,27.278L577.447,27.234L578.709,27.189L579.758,27.144L581.017,27.099L582.278,27.055L583.327,27.009L585.851,26.921L586.899,26.876L588.158,26.831L589.42,26.786L590.469,26.696L591.73,26.651L592.992,26.607L594.041,26.562L595.3,26.517L596.562,26.472L597.611,26.382L598.873,26.338L599.923,26.292L601.185,26.248L602.442,26.204L603.495,26.158L604.753,26.114L606.015,26.025L607.064,25.98L608.326,25.89L609.584,25.8L610.634,25.756L611.896,25.666L613.156,25.576L614.207,25.487L615.469,25.398L616.518,25.308L617.776,25.218L619.038,25.128L620.087,25.083L621.349,24.993L622.61,24.905L623.659,24.816L624.918,24.771L626.18,24.681L627.229,24.591L628.49,24.546L629.752,24.456L630.803,24.411L632.06,24.323L633.321,24.233L634.372,24.187L635.633,24.099L636.683,24.009L637.944,23.964L639.202,23.874L640.255,23.784L641.514,23.739L642.774,23.651L643.824,23.561L645.086,23.472L646.344,23.382L647.394,23.292L648.655,23.202L649.917,23.112L650.967,23.023L652.229,22.934L653.486,22.844L654.536,22.754L655.798,22.62L656.848,22.485L658.108,22.352L659.37,22.262L660.42,22.127L661.678,21.993L662.939,21.903L663.989,21.814L665.25,21.725L666.512,21.635L667.562,21.545L668.819,21.456L670.081,21.366L671.132,21.276L672.394,21.187L673.442,21.097L674.704,21.007L675.963,20.963L677.015,20.919L678.273,20.874L679.535,20.784L680.584,20.739L681.846,20.65L683.104,20.605L684.153,20.515L685.415,20.425L686.677,20.336L687.727,20.246L688.988,20.156L690.246,20.068L691.296,19.933L692.558,19.798L693.607,19.619L694.869,19.485L696.13,19.396L697.18,19.306L698.437,19.216L699.699,19.127L700.749,19.081L702.011,19.037L703.271,18.947L704.322,18.903L705.58,18.814L706.841,18.679L707.892,18.589L709.153,18.454L710.202,18.365L711.464,18.231L712.723,18.052L713.775,17.917L715.033,17.738L716.295,17.515L717.344,17.29L718.605,17.156L719.864,17.066L720.913,16.888L722.175,16.663L723.437,16.484L724.487,16.306L725.748,16.171L727.006,16.036L728.057,15.902L729.317,15.946L730.367,16.036L731.629,15.902L732.891,16.081L733.939,16.036L735.198,15.991L736.459,15.946L737.509,15.902L738.771,15.902L740.032,15.858L741.082,15.812L742.34,15.723L743.602,15.633L744.651,15.543L745.913,15.454L747.172,15.364L748.224,15.275L749.482,15.23L750.535,15.141L751.793,15.095L753.055,15.005L754.104,15.005L755.365,14.961L756.624,14.916L757.674,14.916L758.935,14.872L761.247,14.872L762.509,14.916L767.127,14.916L768.389,14.961L773.22,14.961L774.269,14.916L775.53,14.826L776.792,14.737L777.842,14.603L779.1,14.513L780.361,14.424L781.411,14.29L782.673,14.154L783.932,14.2L784.984,14.29L786.242,14.154L787.295,13.841L788.554,13.571L789.814,13.079L790.864,12.856L792.126,12.587L793.384,12.362L794.434,12.095L795.695,11.825L796.956,11.603L798.007,11.378L799.269,11.019L800.525,10.616L801.576,10.259L802.838,9.945L804.1,9.675L805.148,9.362L806.41,9.049L807.46,8.735L808.718,8.466L809.979,8.198L811.028,7.929L812.29,7.615L813.552,7.302L814.603,6.899L815.859,6.495L817.121,6.003L818.172,5.421L819.433,4.749L820.691,4.257L821.744,3.898L823.002,3.763L824.055,3.629L825.313,3.45L826.575,3.271L827.624,3.226L828.886,3.137L830.144,3.046L831.193,3.046L832.455,3.002L833.718,2.912L834.767,2.868L836.028,2.823L837.287,2.778L838.336,2.734L839.598,2.689L840.859,2.644L841.908,2.599L843.17,2.554L844.22,2.509L845.478,2.464L846.739,2.42L847.789,2.374L849.05,2.33L850.312,2.286L851.362,2.241L852.619,2.195L853.881,2.195L854.932,2.151L857.451,2.151L858.504,2.107L859.763,2.107L860.814,2.062L863.335,2.062L864.384,2.017L865.646,2.017L866.904,1.972L867.953,1.927L869.215,1.882L870.478,1.882L871.526,1.837L872.788,1.792L874.047,1.747L875.096,1.703L876.357,1.657L877.619,1.613L878.669,1.569L879.93,1.524L880.979,1.48L882.238,1.435L883.499,1.435L884.549,1.39L885.811,1.345L888.122,1.345L889.381,1.3L890.642,1.3L891.691,1.255L892.953,1.165L894.211,1.121L895.264,1.031L896.522,0.986L897.784,0.897L898.833,0.808L900.095,0.763L901.145,0.673L902.405,0.583L903.664,0.538L904.713,0.448L905.975,0.359L907.237,0.315L908.287,0.225L909.548,0.181L910.807,0.09L911.856,0.001L913.117,-0.044L914.379,-0.089L915.429,-0.089L916.69,-0.134L917.739,-0.179L918.998,-0.224L920.26,-0.224L921.309,-0.267L922.571,-0.312L923.833,-0.358L924.882,-0.358L926.141,-0.402" style="fill:none;fill-rule:nonzero;stroke:rgb(88,89,91);stroke-width:0.65px;"/>
        </g>
    </g>
</svg>
