<?xml version="1.0" encoding="UTF-8" standalone="no"?>
<!DOCTYPE svg PUBLIC "-//W3C//DTD SVG 1.1//EN" "http://www.w3.org/Graphics/SVG/1.1/DTD/svg11.dtd">
<svg width="100%" height="100%" viewBox="0 0 1048 293" version="1.1" xmlns="http://www.w3.org/2000/svg" xmlns:xlink="http://www.w3.org/1999/xlink" xml:space="preserve" xmlns:serif="http://www.serif.com/" style="fill-rule:evenodd;clip-rule:evenodd;stroke-miterlimit:10;">
    <g transform="matrix(1,0,0,1,60.6509,152.76)">
        <g id="depth-section" serif:id="depth section">
            <path d="M0,34.714L1.05,34.669L2.311,34.758L3.57,34.356L4.62,33.907L5.881,33.862L7.141,34.087L8.191,34.31L9.452,34.49L10.712,34.758L11.762,34.804L13.022,34.714L14.073,34.669L15.333,34.848L16.594,34.983L17.644,35.116L18.904,35.071L21.215,35.071L22.476,35.026L23.735,35.026L24.786,34.983L26.047,34.983L27.307,34.939L28.356,34.848L29.617,34.848L30.877,34.804L34.238,34.804L35.499,34.758L40.33,34.758L41.38,34.714L42.641,34.534L43.901,34.132L44.951,33.862L46.212,34.132L47.472,34.356L48.522,34.624L49.783,34.714L51.043,34.266L52.093,33.505L53.354,33.056L54.404,34.042L55.665,34.444L56.926,34.624L57.975,34.804L59.235,34.758L60.495,34.714L61.546,34.804L62.807,34.848L67.638,34.848L68.688,34.804L73.521,34.804L74.569,34.758L106.708,34.758L107.968,34.714L130.445,34.714L131.495,34.669L151.66,34.669L152.921,34.624L161.322,34.624L162.374,34.579L168.255,34.579L169.516,34.534L182.539,34.534L183.8,34.49L189.681,34.49L190.94,34.444L196.822,34.444L198.083,34.4L203.966,34.4L205.015,34.356L209.847,34.356L211.106,34.31L215.729,34.31L216.989,34.356L219.299,34.356L220.56,34.4L221.609,34.4L222.87,34.444L225.18,34.444L226.44,34.49L227.701,34.444L228.751,34.444L230.012,34.4L231.271,34.356L232.323,34.31L233.583,34.31L234.843,34.266L235.894,34.176L237.154,34.22L238.414,34.176L239.465,34.087L240.726,33.997L241.774,33.907L243.035,33.818L244.296,33.862L245.346,33.907L246.606,33.818L247.866,33.64L248.916,33.549L250.177,33.593L251.437,33.549L252.488,33.459L253.749,33.505L255.008,33.505L256.06,33.415L258.58,33.325L259.63,33.28L260.89,33.28L261.94,33.191L263.201,33.191L264.461,33.28L265.511,33.191L266.771,33.011L269.083,33.011L270.344,32.967L271.603,32.923L272.653,32.923L273.914,32.877L275.175,32.833L276.225,32.787L277.485,32.787L278.535,32.742L279.796,32.698L281.056,32.698L282.105,32.653L283.366,32.653L284.626,32.609L285.677,32.564L286.937,32.564L288.197,32.519L289.248,32.474L290.509,32.474L291.768,32.429L292.819,32.385L294.08,32.34L295.34,32.294L296.39,32.25L297.65,32.206L298.7,32.206L299.961,32.16L301.221,32.116L302.271,32.116L303.531,32.071L304.792,32.026L305.843,32.026L307.104,31.982L308.362,31.937L309.414,31.937L310.675,31.892L311.935,31.847L312.984,31.802L314.245,31.758L315.295,31.758L316.556,31.712L317.815,31.668L318.865,31.622L320.126,31.578L321.386,31.534L322.437,31.443L323.697,31.31L324.957,31.22L326.008,31.13L327.269,31.04L328.529,30.995L329.579,30.951L330.84,30.861L332.1,30.818L333.15,30.772L334.41,30.728L335.46,30.683L336.721,30.683L337.98,30.638L339.031,30.548L340.292,30.413L341.552,30.369L342.603,30.325L343.863,30.279L345.122,30.279L346.174,30.235L347.435,30.189L348.694,30.145L349.744,30.101L351.005,30.101L352.266,30.056L353.315,30.011L354.575,30.011L355.626,29.966L356.887,29.921L358.146,29.876L359.196,29.876L360.457,29.831L365.289,29.831L366.339,29.786L374.741,29.786L375.791,29.876L377.051,29.921L378.312,30.011L379.362,30.056L380.624,30.101L382.934,30.101L384.193,30.145L385.455,30.145L386.505,30.189L387.766,30.189L389.024,30.235L390.075,30.235L391.335,30.189L392.385,30.145L393.646,30.235L394.906,30.145L395.958,30.011L398.477,30.011L399.527,29.966L405.62,29.966L406.669,29.921L407.931,29.876L409.192,29.831L410.241,29.786L411.5,29.786L412.554,29.741L415.072,29.741L416.123,29.696L417.384,29.696L418.642,29.652L419.695,29.652L420.953,29.607L422.215,29.563L423.265,29.563L424.526,29.519L425.784,29.519L426.834,29.474L428.096,29.429L429.145,29.338L430.406,29.294L431.668,29.249L432.718,29.16L433.976,29.114L435.237,29.07L436.287,29.025L437.549,28.981L438.811,28.981L439.859,28.936L441.118,28.892L442.38,28.892L443.429,28.846L444.69,28.802L445.952,28.756L447.002,28.712L448.26,28.667L449.313,28.622L450.571,28.577L451.832,28.532L452.883,28.487L454.145,28.443L460.024,28.443L461.286,28.398L470.735,28.398L471.997,28.354L480.189,28.354L481.45,28.308L485.02,28.308L486.073,28.264L489.643,28.264L490.904,28.218L494.474,28.218L495.735,28.175L498.046,28.175L499.305,28.13L502.877,28.13L503.926,28.085L507.495,28.085L508.758,28.04L509.808,28.04L511.068,27.995L512.33,27.995L513.38,27.95L514.638,27.95L515.899,27.905L516.949,27.905L518.211,27.86L519.472,27.86L520.521,27.816L521.78,27.772L522.833,27.728L524.091,27.682L525.354,27.637L526.402,27.591L527.664,27.547L528.923,27.503L529.975,27.457L531.233,27.413L532.495,27.368L533.544,27.278L534.806,27.234L536.064,27.189L537.113,27.144L538.375,27.099L539.637,27.055L540.687,27.009L541.947,27.009L542.998,26.965L544.257,26.921L545.518,26.876L546.567,26.831L547.829,26.786L549.09,26.74L550.14,26.74L551.398,26.696L552.659,26.651L553.709,26.607L554.971,26.607L556.232,26.562L557.281,26.517L558.54,26.472L559.594,26.472L560.851,26.427L562.113,26.382L563.163,26.338L564.424,26.292L565.683,26.248L566.735,26.204L567.993,26.158L569.255,26.114L570.305,26.069L571.565,26.025L572.824,25.98L573.874,25.935L576.396,25.845L577.447,25.8L578.709,25.756L579.758,25.666L581.017,25.62L582.278,25.531L583.327,25.443L585.851,25.263L586.899,25.173L588.158,25.083L589.42,24.993L590.469,24.86L591.73,24.771L592.992,24.681L594.041,24.591L595.3,24.501L596.562,24.411L597.611,24.323L598.873,24.233L599.923,24.143L601.185,24.054L602.442,23.919L603.495,23.829L604.753,23.739L606.015,23.607L607.064,23.517L608.326,23.427L609.584,23.292L610.634,23.202L611.896,23.112L613.156,22.978L614.207,22.89L615.469,22.8L616.518,22.71L617.776,22.575L619.038,22.485L620.087,22.396L621.349,22.308L622.61,22.262L623.659,22.173L624.918,22.083L626.18,21.948L627.229,21.859L628.49,21.77L629.752,21.635L630.803,21.545L632.06,21.411L633.321,21.276L634.372,21.187L635.633,21.053L636.683,20.963L637.944,20.828L639.202,20.739L640.255,20.605L641.514,20.515L642.774,20.425L643.824,20.29L645.086,20.202L646.344,20.068L647.394,19.978L648.655,19.843L649.917,19.754L650.967,19.619L652.229,19.485L653.486,19.396L654.536,19.261L655.798,19.171L656.848,19.037L658.108,18.947L659.37,18.814L660.42,18.723L661.678,18.589L662.939,18.499L663.989,18.365L665.25,18.275L666.512,18.141L667.562,18.052L668.819,17.917L670.081,17.827L671.132,17.694L672.394,17.605L673.442,17.47L674.704,17.38L675.963,17.245L677.015,17.156L678.273,17.021L679.535,16.932L680.584,16.798L681.846,16.708L683.104,16.573L684.153,16.439L685.415,16.35L686.677,16.215L687.727,16.125L688.988,15.991L690.246,15.858L691.296,15.723L692.558,15.587L693.607,15.454L694.869,15.319L696.13,15.185L697.18,15.051L698.437,14.916L699.699,14.782L700.749,14.648L702.011,14.513L703.271,14.378L704.322,14.244L705.58,14.11L706.841,13.976L707.892,13.841L709.153,13.706L710.202,13.571L711.464,13.484L712.723,13.349L713.775,13.214L715.033,13.079L716.295,12.945L717.344,12.811L718.605,12.677L719.864,12.542L720.913,12.407L722.175,12.275L723.437,12.095L724.487,11.96L725.748,11.825L727.006,11.647L728.057,11.557L729.317,11.423L730.367,11.333L731.629,11.512L732.891,11.109L733.939,10.974L735.198,10.886L736.459,10.751L737.509,10.661L738.771,10.571L740.032,10.482L741.082,10.392L742.34,10.348L743.602,10.303L744.651,10.259L745.913,10.259L747.172,10.213L748.224,10.213L749.482,10.169L751.793,10.169L753.055,10.123L754.104,10.123L755.365,10.079L757.674,10.079L760.196,9.989L761.247,9.945L762.509,9.9L763.766,9.81L764.816,9.765L766.078,9.675L767.127,9.585L768.389,9.452L769.65,9.318L770.699,9.183L771.958,9.093L773.22,8.958L774.269,8.87L775.53,8.735L776.792,8.601L777.842,8.466L779.1,8.376L780.361,8.242L781.411,8.108L782.673,8.019L783.932,7.794L784.984,7.615L786.242,7.482L787.295,7.347L788.554,7.167L789.814,7.033L790.864,6.855L792.126,6.72L793.384,6.54L794.434,6.405L795.695,6.227L796.956,6.048L798.007,5.868L799.269,5.735L800.525,5.554L801.576,5.376L802.838,5.196L804.1,5.017L805.148,4.749L806.41,4.526L807.46,4.301L808.718,4.032L809.979,3.763L811.028,3.585L812.29,3.405L813.552,3.226L814.603,3.137L815.859,3.002L817.121,2.912L818.172,2.823L819.433,2.734L820.691,2.644L821.744,2.599L823.002,2.554L824.055,2.464L825.313,2.464L826.575,2.42L827.624,2.374L828.886,2.33L830.144,2.286L831.193,2.286L832.455,2.241L833.718,2.195L834.767,2.195L836.028,2.151L837.287,2.151L838.336,2.107L840.859,2.107L841.908,2.062L843.17,2.062L844.22,2.017L845.478,2.017L846.739,1.972L849.05,1.972L850.312,1.927L851.362,1.882L852.619,1.837L853.881,1.792L854.932,1.747L856.193,1.657L857.451,1.613L859.763,1.613L860.814,1.703L862.073,1.657L863.335,1.657L864.384,1.613L865.646,1.524L866.904,1.435L867.953,1.345L869.215,1.255L870.478,1.21L871.526,1.121L872.788,1.031L874.047,0.986L875.096,0.941L876.357,0.897L877.619,0.853L878.669,0.808L879.93,0.763L880.979,0.718L883.499,0.718L884.549,0.673L885.811,0.673L887.073,0.628L888.122,0.628L889.381,0.583L890.642,0.583L891.691,0.538L892.953,0.538L894.211,0.494L895.264,0.448L896.522,0.404L897.784,0.404L898.833,0.359L900.095,0.315L901.145,0.271L902.405,0.271L903.664,0.225L904.713,0.181L905.975,0.181L907.237,0.135L908.287,0.09L909.548,0.046L910.807,0.046L911.856,0.001L913.117,-0.044L914.379,-0.089L915.429,-0.089L916.69,-0.134L917.739,-0.179L918.998,-0.224L920.26,-0.224L921.309,-0.267L922.571,-0.312L923.833,-0.358L924.882,-0.358L926.141,-0.402" style="fill:none;fill-rule:nonzero;stroke:rgb(5,0,0);stroke-width:0.48px;"/>
        </g>
    </g>
</svg>
