<?xml version="1.0" encoding="UTF-8" standalone="no"?>
<!DOCTYPE svg PUBLIC "-//W3C//DTD SVG 1.1//EN" "http://www.w3.org/Graphics/SVG/1.1/DTD/svg11.dtd">
<svg width="100%" height="100%" viewBox="0 0 1048 293" version="1.1" xmlns="http://www.w3.org/2000/svg" xmlns:xlink="http://www.w3.org/1999/xlink" xml:space="preserve" xmlns:serif="http://www.serif.com/" style="fill-rule:evenodd;clip-rule:evenodd;">
    <g id="depth-section" serif:id="depth section">
        <g transform="matrix(1,0,0,1,330.995,161.54)">
            <path d="M0,28.218L1.259,28.442L2.31,29.024L3.57,29.651L4.831,29.561L5.881,29.203L7.142,28.844L8.191,29.069L9.452,29.293L10.712,29.517L11.762,29.607L13.022,30.009L14.282,30.367L15.333,30.772L16.594,30.86L17.854,30.592L18.904,30.322L20.165,30.099L21.424,29.92L22.476,30.099L23.736,30.322L24.996,30.278L26.046,30.099L27.307,29.92L28.356,29.74L29.617,29.92L30.877,30.099L31.927,30.233L33.188,30.145L34.448,30.055L35.499,29.965L36.76,29.875L38.019,29.875L39.07,29.965L40.331,30.145L41.591,30.322L42.641,30.547L43.901,30.637L48.521,30.637L49.782,30.547L51.042,30.233L52.093,29.965L53.354,29.74L54.613,29.472L55.664,29.561L56.925,29.875L58.186,30.055L59.235,30.145L60.496,30.278L61.756,30.412L62.807,30.502L64.066,30.592L65.116,30.681L66.377,30.772L67.637,30.906L68.688,31.039L69.948,31.129L71.208,31.174L72.259,31.219L73.52,31.219L74.778,31.264L75.83,31.309L77.091,31.309L78.351,31.354L79.4,31.398L80.661,31.398L81.922,31.442L82.972,31.488L84.231,31.488L85.282,31.531L86.543,31.577L87.803,31.577L88.853,31.622L91.373,31.622L92.425,31.666L97.256,31.666L98.516,31.711L103.137,31.711L104.397,31.666L105.447,31.622L106.707,31.577L107.969,31.488L109.019,31.442L110.28,31.442L111.538,31.398L112.59,31.398L113.85,31.354L116.161,31.354L117.422,31.309L119.731,31.309L120.991,31.354L122.041,31.354L123.303,31.309L124.563,31.398L125.614,31.488L129.184,31.488L130.445,31.531L135.276,31.531L136.325,31.577L137.587,31.577L138.849,31.622L139.897,31.666L141.156,31.711L142.21,31.756L143.467,31.711L144.729,31.756L145.779,31.756L147.04,31.801L148.298,31.801L149.352,31.846L150.609,31.846L151.871,31.891L152.921,31.891L154.183,31.936L155.44,31.936L156.49,31.98L157.752,32.026L158.801,32.071L160.062,32.16L161.324,32.204L162.374,32.293L163.632,32.338L164.894,32.383L165.943,32.428L167.205,32.428L168.467,32.473L169.516,32.518L170.774,32.518L172.036,32.563L173.085,32.608L174.347,32.608L175.608,32.653L176.658,32.697L177.916,32.786L178.97,32.83L180.228,32.875L181.488,32.921L182.539,32.965L183.801,33.011L188.631,33.011L189.681,32.965L190.942,32.875L192.2,32.786L193.25,32.697L194.512,32.653L195.561,33.145L196.822,33.906L198.084,34.758L199.135,36.235L200.392,37.176L201.653,34.846L202.703,35.609L203.965,33.1L205.227,32.653L206.276,33.862L207.534,32.026L208.796,32.16L209.846,32.563L211.106,33.549L212.368,34.039L213.418,32.293L214.676,32.742L215.729,32.518L216.987,32.742L218.25,34.533L219.299,35.16L220.561,36.101L221.817,36.996L222.871,37.4L224.13,34.309L225.392,33.324L226.44,34.129L227.702,34.891L228.961,33.817L230.01,34.758L231.271,33.592L232.533,33.324L233.582,33.503L234.844,33.817L235.895,32.875L237.151,33.189L238.414,33.459L239.464,35.205L240.725,34.264L241.986,33.682L243.036,35.071L244.294,33.637L245.556,34.309L246.605,34.578L247.867,33.592L249.128,32.875L250.178,34.176L251.437,34.354L252.489,33.727L253.747,33.549L255.01,33.413L256.059,33.951L257.32,33.817L258.579,33.817L259.631,33.727L260.89,33.592L262.151,33.459L263.2,33.592L264.462,33.682L265.721,33.817L266.77,33.906L268.031,34.039L269.293,34.264L270.343,34.668L271.604,34.444L272.654,33.951L273.913,33.906L275.174,33.1L276.224,33.369L278.746,33.279L279.796,33.011L281.055,33.145L282.315,32.473L283.365,32.16L284.627,32.338L285.889,32.248L286.937,32.428L288.196,33.145L289.25,33.369L290.507,33.235L291.77,33.189L292.819,33.1L294.08,33.592L295.339,33.637L296.392,32.83L297.649,33.145L298.911,33.1L299.961,33.592L301.222,32.383L302.48,33.369L303.53,33.235L304.791,32.563L306.053,32.608L307.104,32.204L308.365,31.801L309.414,31.846L310.673,31.936L311.935,32.608L312.983,33.413L314.245,33.592L315.507,34.22L316.556,33.682L317.814,33.817L319.076,34.039L320.125,33.995L321.387,34.489L322.648,34.399L323.697,34.176L324.956,34.936L326.218,35.071L327.268,35.519L328.529,35.205L329.579,35.384L330.841,35.742L332.099,33.413L333.151,33.995L334.409,33.951L335.671,32.114L336.721,31.936L337.982,31.98L339.24,30.681L340.29,30.906L341.552,30.278L342.812,30.367L343.863,30.502L345.125,30.233L346.174,30.055L347.433,30.322L348.694,30.233L349.743,30.322L352.267,30.412L353.315,30.412L354.574,30.367L355.836,30.278L356.885,30.055L358.146,29.83L359.408,29.651L361.716,29.651L362.978,29.561L364.028,29.472L365.289,29.338L366.339,29.069L367.601,28.89L368.858,28.666L369.911,28.262L371.17,28.173L372.431,27.993L373.48,27.86L374.742,27.68L376,27.591L377.05,27.547L378.312,27.457L379.573,27.143L380.623,26.696L381.885,26.114L383.143,25.486L384.192,25.262L385.454,24.993L386.504,24.769L389.026,24.321L390.076,24.097L391.334,23.873L392.596,23.694L393.646,23.47L394.906,23.246L396.168,23.022L397.219,22.798L398.476,22.619L399.737,22.485L400.788,22.44L402.05,22.44L403.099,22.53L404.36,22.53L405.619,22.35L406.671,22.171L407.93,22.171L409.191,22.215L410.24,22.127L411.502,21.858L412.761,21.545L413.81,21.276L415.071,20.961L416.333,20.782L417.383,20.694L418.645,20.604L419.902,20.558L420.952,20.469L422.214,20.334L423.264,20.244L424.525,20.29L425.786,20.424L426.836,20.558L428.094,20.739L429.355,20.694L430.405,20.424L431.667,20.155L432.928,20.155L433.979,20.2L435.236,20.29L436.497,20.38L437.548,20.469L438.81,20.558L439.858,20.694L441.12,20.782L442.379,20.916L443.432,21.006L444.689,21.141L445.951,21.051L447,21.051L448.262,21.141L449.521,21.141L450.569,21.186L453.093,21.186L454.144,21.141L455.404,21.141L456.662,21.186L457.713,21.276L458.974,21.408L460.023,21.633L461.285,21.364L462.547,21.723L463.596,21.858L464.854,21.723L466.115,21.768L467.165,21.858L468.427,21.947L469.688,22.037L470.738,22.081L471.996,22.171L473.258,22.35L474.308,22.44L475.569,22.53L476.828,22.663L477.88,22.798L479.139,22.932L480.191,23.112L481.449,23.291L482.711,23.47L483.761,23.694L485.021,23.694L486.28,23.56L487.33,23.47L488.591,23.514L489.853,23.873L490.903,23.918L492.165,23.962L493.422,24.053L494.473,24.143L495.734,24.231L496.783,24.365L498.045,24.679L499.307,24.86L500.355,24.993L501.614,25.172L502.876,25.352L503.925,25.575L505.187,25.799L506.448,26.024L507.498,26.246L508.756,26.471L510.018,26.651L511.067,26.784L512.329,26.828L513.588,27.053L514.641,27.233L515.898,27.322L516.951,27.411L518.21,27.501L520.521,27.501L521.782,27.591L523.04,27.547L524.09,27.411L525.352,27.277L526.612,27.188L527.663,26.963L528.925,26.696L530.182,26.381L531.232,26.114L532.494,25.754L533.756,25.127L534.805,24.545L536.066,24.053L537.116,23.605L538.374,23.156L539.636,22.663L540.685,22.037L541.946,21.455L543.208,20.916L544.259,20.514L545.516,20.334L546.777,20.066L547.828,19.707L549.089,19.035L550.348,18.319L551.4,18.096L552.658,18.096L553.711,18.006L554.97,17.96L556.231,17.647L557.28,17.334L558.542,16.976L559.8,16.751L560.85,16.169L562.111,15.766L563.374,15.319L564.423,14.87L565.685,14.332L566.943,14.242L567.992,14.512L569.254,14.332L570.516,14.064L571.564,13.974L572.826,13.66L573.876,13.033L575.134,12.721L576.396,12.631L577.445,12.676L578.706,12.406L579.968,12.048L581.019,11.869L582.275,11.78L583.537,11.376L584.588,11.287L585.85,11.242L587.107,10.839L588.16,10.211L589.419,9.854L590.471,9.585L591.729,9.047L592.991,8.735L594.04,8.42L595.302,7.703L596.561,7.077L597.609,6.584L598.871,5.957L600.134,5.42L601.183,5.106L602.444,4.703L603.703,4.031L604.752,3.225L606.014,2.418L607.275,1.568L608.325,0.851L609.586,0.313L610.636,0.045L611.895,-0.224L613.155,-0.627L614.205,-1.075L615.467,-1.299L616.729,-1.613L617.778,-1.97L619.037,-2.33L620.298,-2.643L621.348,-3.002L622.609,-3.314L623.867,-3.629L624.92,-3.941L626.179,-4.211L627.44,-4.523L628.489,-4.838L629.751,-5.105L630.801,-5.42L632.062,-5.688L633.32,-5.957L634.369,-6.226L635.631,-6.539L636.894,-6.808L637.943,-7.077L639.204,-7.345L640.463,-7.615L641.513,-7.884L642.773,-8.107L644.035,-8.376L645.085,-8.645L646.347,-8.869L647.396,-8.959L648.654,-9.004L649.916,-9.004L650.965,-9.048L652.228,-9.093L653.489,-9.138L654.538,-9.138L655.797,-9.182" style="fill:none;fill-rule:nonzero;stroke:rgb(88,89,91);stroke-width:0.65px;"/>
        </g>
        <g transform="matrix(1,0,0,1,330.871,161.894)">
            <path d="M0,27.51L0.124,27.864L1.383,28.088L2.434,28.67L3.694,29.297L4.955,29.207L6.005,28.85L7.266,28.49L8.315,28.715L9.576,28.94L10.836,29.163L11.886,29.253L13.146,29.656L14.406,30.014L15.457,30.418L16.718,30.506L17.978,30.239L19.028,29.969L20.289,29.745L21.548,29.567L22.6,29.745L23.86,29.969L25.12,29.924L26.17,29.745L27.431,29.567L28.48,29.387L29.741,29.567L31.001,29.745L32.051,29.879L33.312,29.791L34.572,29.701L35.623,29.612L36.884,29.522L38.143,29.522L39.194,29.612L40.455,29.791L41.715,29.969L42.765,30.194L44.025,30.283L48.646,30.283L49.906,30.194L51.166,29.879L52.217,29.612L53.478,29.387L54.737,29.118L55.788,29.207L57.049,29.522L58.31,29.701L59.359,29.791L60.62,29.924L61.88,30.059L62.931,30.149L64.19,30.239L65.24,30.327L66.501,30.418L67.761,30.552L68.812,30.686L70.072,30.776L71.332,30.821L72.383,30.865L73.644,30.865L74.902,30.91L75.954,30.955L77.215,30.955L78.475,31L79.524,31.044L80.785,31.044L82.046,31.088L83.096,31.134L84.355,31.134L85.406,31.178L86.667,31.224L87.927,31.224L88.977,31.269L91.497,31.269L92.549,31.313L97.38,31.313L98.64,31.358L103.261,31.358L104.521,31.313L105.571,31.269L106.831,31.224L108.093,31.134L109.143,31.088L110.404,31.088L111.662,31.044L112.714,31.044L113.974,31L116.285,31L117.546,30.955L119.855,30.955L121.115,31L122.165,31L123.427,30.955L124.687,31.044L125.738,31.134L129.308,31.134L130.569,31.178L135.4,31.178L136.449,31.224L137.711,31.224L138.973,31.269L140.021,31.313L141.28,31.358L142.334,31.403L143.591,31.358L144.853,31.403L145.903,31.403L147.164,31.448L148.422,31.448L149.476,31.492L150.733,31.492L151.995,31.537L153.045,31.537L154.307,31.582L155.564,31.582L156.614,31.626L157.876,31.672L158.925,31.717L160.187,31.807L161.448,31.851L162.498,31.94L163.756,31.985L165.018,32.03L166.067,32.074L167.329,32.074L168.591,32.119L169.64,32.164L170.898,32.164L172.16,32.209L173.209,32.254L174.471,32.254L175.732,32.299L176.782,32.343L178.04,32.433L179.094,32.477L180.352,32.522L181.612,32.568L182.663,32.612L183.925,32.657L188.755,32.657L189.805,32.612L191.066,32.522L192.324,32.433L193.374,32.343L194.636,32.299L195.685,32.791L196.946,33.553L198.208,34.405L199.259,35.881L200.516,36.823L201.777,34.492L202.827,35.255L204.089,32.746L205.351,32.299L206.4,33.508L207.658,31.672L208.92,31.807L209.97,32.209L211.23,33.196L212.492,33.686L213.542,31.94L214.8,32.389L215.854,32.164L217.111,32.389L218.374,34.18L219.423,34.807L220.685,35.747L221.941,36.643L222.995,37.046L224.254,33.955L225.516,32.971L226.564,33.776L227.826,34.537L229.085,33.463L230.134,34.405L231.396,33.239L232.657,32.971L233.706,33.15L234.968,33.463L236.019,32.522L237.275,32.835L238.538,33.106L239.588,34.852L240.849,33.91L242.11,33.328L243.16,34.717L244.418,33.283L245.68,33.955L246.729,34.225L247.991,33.239L249.252,32.522L250.302,33.822L251.561,34L252.613,33.373L253.871,33.196L255.134,33.06L256.183,33.598L257.444,33.463L258.703,33.463L259.755,33.373L261.014,33.239L262.275,33.106L263.324,33.239L264.586,33.328L265.845,33.463L266.894,33.553L268.155,33.686L269.417,33.91L270.467,34.315L271.728,34.09L272.778,33.598L274.037,33.553L275.298,32.746L276.348,33.016L277.609,32.971L278.87,32.925L279.92,32.657L281.179,32.791L282.439,32.119L283.489,31.807L284.751,31.985L286.013,31.895L287.062,32.074L288.32,32.791L289.374,33.016L290.631,32.881L291.894,32.835L292.943,32.746L294.204,33.239L295.463,33.283L296.516,32.477L297.773,32.791L299.035,32.746L300.085,33.239L301.346,32.03L302.604,33.016L303.654,32.881L304.915,32.209L306.177,32.254L307.228,31.851L308.489,31.448L309.538,31.492L310.797,31.403L312.059,31.626L313.107,31.717L314.369,31.851L315.631,32.074L316.68,31.807L317.938,31.851L319.2,31.94L320.249,31.985L321.511,32.164L322.772,32.209L323.821,32.254L325.08,32.343L326.342,32.389L327.392,32.433L328.653,32.522L329.703,32.568L332.223,32.568L333.275,31.94L334.533,31.94L335.795,31.672L336.845,31.582L338.106,31.626L339.364,30.327L340.414,30.552L341.676,29.924L342.937,30.014L343.987,30.149L345.249,29.879L346.298,29.701L347.557,29.969L348.818,29.879L349.867,29.969L352.391,30.059L353.439,30.059L354.698,30.014L355.96,29.924L357.009,29.701L358.271,29.477L359.532,29.297L361.84,29.297L363.102,29.207L364.152,29.118L365.413,28.985L366.463,28.715L367.725,28.536L368.982,28.313L370.035,27.908L371.294,27.82L372.555,27.64L373.604,27.506L374.866,27.326L376.124,27.238L377.174,27.194L378.436,27.104L379.697,26.789L380.747,26.342L382.009,25.76L383.267,25.132L384.316,24.908L385.578,24.64L386.628,24.415L387.889,24.192L389.15,23.967L390.2,23.743L391.458,23.52L392.72,23.34L393.77,23.116L395.03,22.893L396.292,22.668L397.343,22.445L398.6,22.266L399.861,21.996L400.912,21.774L402.174,21.549L403.223,21.369L404.484,21.324L405.743,21.369L406.795,21.369L408.054,21.324L409.315,21.28L410.364,21.146L411.626,20.877L412.885,20.563L413.934,20.295L415.195,20.071L416.457,19.891L417.507,19.712L418.769,19.578L420.026,19.533L421.076,19.533L422.338,19.444L423.388,19.354L424.649,19.174L425.91,19.309L426.96,19.444L428.218,19.578L429.479,19.533L430.529,19.354L431.791,19.174L433.052,19.174L434.103,19.264L435.36,19.309L436.621,19.309L437.672,19.13L438.934,18.996L439.982,18.772L441.244,18.951L442.503,19.13L443.556,19.22L446.075,19.22L447.124,19.444L448.386,19.622L449.645,19.758L450.693,19.758L451.955,19.802L453.217,19.847L454.268,19.891L455.528,19.891L456.786,19.802L457.837,19.758L459.098,20.027L460.147,20.25L461.409,19.937L462.671,20.34L463.72,20.385L464.979,20.295L466.239,20.385L467.289,20.473L468.551,20.518L469.812,20.608L470.862,20.653L472.12,20.698L473.382,20.832L474.432,20.967L475.693,21.102L476.952,21.192L478.004,21.324L479.263,21.459L480.315,21.594L481.573,21.774L482.835,21.906L483.885,22.041L485.146,22.131L486.404,21.996L487.454,21.906L488.715,21.862L489.977,22.041L491.027,22.131L492.289,22.041L494.597,22.041L495.858,22.086L496.907,22.266L498.169,22.31L499.431,22.401L500.479,22.668L501.738,22.983L503,23.206L504.049,23.385L505.311,23.52L506.572,23.52L507.622,23.699L508.88,23.833L510.142,23.609L511.191,23.654L512.453,23.565L514.765,23.565L516.022,23.475L517.075,23.295L518.334,22.938L519.595,22.578L520.645,22.176L521.906,21.728L523.164,21.236L524.214,20.787L525.476,20.429L526.736,20.25L527.787,20.115L529.049,19.847L530.306,19.622L531.356,19.444L533.88,19.174L534.929,18.951L536.19,18.638L537.24,18.323L538.498,18.1L539.76,17.875L540.809,17.518L542.07,17.204L543.332,16.936L544.383,16.576L545.64,16.264L546.901,15.994L547.952,15.637L549.213,15.278L550.472,14.875L551.524,14.74L552.782,14.875L553.835,14.83L555.094,14.696L556.355,14.517L557.404,14.202L558.666,13.62L559.924,13.487L560.974,13.307L562.235,12.86L563.498,12.591L564.547,12.367L565.809,12.098L567.067,11.829L568.116,12.053L570.64,12.143L571.688,12.053L572.95,11.74L574,11.246L575.258,10.754L576.52,10.574L577.569,10.486L578.83,10.307L580.092,10.082L581.143,9.993L582.399,9.724L583.661,9.545L584.712,9.589L585.974,9.321L587.231,9.007L588.284,8.605L589.543,8.2L590.595,7.932L591.854,7.53L593.115,7.127L594.164,6.678L595.426,6.186L596.685,5.782L597.733,5.424L598.995,4.977L600.258,4.394L601.307,4.08L602.568,3.768L603.827,3.229L604.876,2.737L606.138,2.065L607.399,1.214L608.449,0.497L609.71,-0.041L610.76,-0.308L612.019,-0.578L613.279,-0.98L614.329,-1.428L615.591,-1.652L616.854,-1.967L617.902,-2.324L619.161,-2.683L620.422,-2.997L621.472,-3.355L622.733,-3.668L623.991,-3.982L625.044,-4.295L626.303,-4.564L627.564,-4.877L628.613,-5.191L629.875,-5.459L630.925,-5.773L632.186,-6.042L633.444,-6.31L634.493,-6.58L635.755,-6.892L637.018,-7.162L638.067,-7.43L639.328,-7.699L640.587,-7.969L641.637,-8.237L642.897,-8.461L644.159,-8.729L645.209,-8.999L646.471,-9.222L647.52,-9.312L648.778,-9.357L650.04,-9.357L651.089,-9.401L652.352,-9.446L653.613,-9.492L654.662,-9.492L655.921,-9.536" style="fill:none;fill-rule:nonzero;stroke:rgb(88,89,91);stroke-width:0.65px;"/>
        </g>
        <g transform="matrix(1,0,0,1,60.6509,158.315)">
            <path d="M0,31.577L1.05,31.577L2.311,31.801L3.57,30.502L4.62,29.921L5.881,29.921L7.141,29.786L8.191,29.966L9.452,30.637L10.712,30.95L11.762,30.637L13.022,30.368L14.073,29.741L15.333,29.651L16.594,29.831L17.644,30.188L18.904,30.86L20.165,32.205L21.215,34.534L22.476,36.504L23.735,36.325L24.786,35.071L26.047,35.34L27.307,36.595L28.356,36.325L29.617,36.595L30.877,36.952L31.928,36.907L33.188,37.534L34.238,35.788L35.499,34.175L36.76,33.37L37.81,34.085L39.07,34.936L40.33,33.1L41.38,31.622L42.641,30.995L43.901,30.995L44.951,30.592L46.212,30.188L47.472,30.01L48.522,30.01L49.783,30.905L51.043,31.443L52.093,30.368L53.354,29.339L54.404,28.129L55.665,29.249L56.926,30.548L57.975,30.502L59.235,31.308L60.495,31.891L61.546,32.069L62.807,31.443L64.066,30.95L65.116,31.308L66.377,31.487L67.638,31.757L68.688,32.384L69.948,32.518L72.26,32.518L73.521,32.742L74.569,33.234L75.83,33.414L77.09,33.37L78.141,33.324L79.401,32.651L80.661,33.145L81.711,33.011L82.972,31.981L84.231,31.757L85.282,32.294L86.543,32.159L87.803,31.13L88.854,31.085L90.113,32.473L91.164,32.518L92.425,33.682L93.686,34.041L94.734,33.37L95.995,33.145L97.256,33.638L98.306,33.682L99.566,32.921L100.826,32.921L101.877,33.37L103.138,33.324L104.397,33.056L105.447,33.593L106.708,33.414L107.968,32.384L109.02,31.443L110.28,32.205L111.329,33.28L112.59,33.458L113.85,32.966L114.9,32.832L116.161,32.832L117.421,32.518L118.471,32.473L119.731,32.429L120.992,32.294L122.042,32.563L123.303,32.294L124.563,32.384L125.614,32.651L126.875,32.832L127.924,32.429L129.185,32.966L130.445,33.1L131.495,33.548L132.756,33.952L134.016,34.175L135.065,32.876L136.326,32.115L137.586,32.651L138.637,33.997L139.897,34.131L141.157,33.862L142.207,33.503L143.468,33.37L144.729,33.234L145.779,33.1L147.04,32.742L148.09,32.115L149.351,31.487L150.61,31.622L151.66,31.935L152.921,31.757L154.181,32.429L155.231,33.1L156.492,32.384L157.752,31.667L158.802,31.398L160.062,31.352L161.322,31.04L162.374,30.772L163.635,30.726L164.684,30.86L165.944,31.577L167.205,32.069L168.255,31.935L169.516,31.352L170.775,31.352L171.825,31.935L173.086,31.443L174.347,31.175L175.396,31.487L176.657,32.025L177.917,32.025L178.969,31.577L180.229,30.905L181.488,31.443L182.539,32.025L183.8,32.069L184.85,32.069L186.11,32.205L187.37,32.473L188.42,32.429L189.681,31.891L190.94,31.398L191.991,31.04L193.252,30.413L194.512,30.86L195.562,31.219L196.822,31.847L198.083,31.935L199.134,31.667L200.395,32.651L201.653,33.145L202.705,33.056L203.966,33.056L205.015,33.414L206.275,33.056L207.535,32.786L208.586,32.697L209.847,32.876L211.106,32.473L212.156,32.563L213.417,32.876L214.677,32.966L215.729,32.832L216.989,32.159L218.248,31.847L219.299,32.159L220.56,32.384L221.609,32.607L222.87,32.742L224.13,32.832L225.18,32.876L226.44,32.966L227.701,33.056L228.751,32.832L230.012,32.429L231.271,32.115L232.323,32.159L233.583,32.473L234.843,32.921L235.894,32.742L237.154,32.069L238.414,31.577L239.465,31.398L240.726,31.801L241.774,32.205L243.035,32.339L244.296,32.294L245.346,31.443L246.606,31.04L247.866,30.86L248.916,31.04L250.177,31.04L251.437,30.816L252.488,30.682L253.749,31.219L255.008,31.443L256.06,30.95L257.32,30.905L258.58,31.085L259.63,31.04L260.89,30.86L261.94,30.458L263.201,29.831L264.461,29.741L265.511,30.054L266.771,30.188L268.031,29.606L269.083,29.921L270.344,31.219L271.603,31.398L272.653,31.533L275.175,31.533L276.225,31.577L278.535,31.577L279.796,31.622L282.105,31.622L283.366,31.667L286.937,31.667L288.197,31.712L289.248,31.712L290.509,31.757L291.768,31.757L292.819,31.801L294.08,31.801L295.34,31.847L296.39,31.847L297.65,31.891L299.961,31.891L301.221,31.935L303.531,31.935L304.792,31.981L307.104,31.981L308.362,32.025L309.414,32.025L310.675,32.069L311.935,32.069L312.984,32.115L314.245,32.115L315.295,32.159L316.556,32.159L317.815,32.205L318.865,32.205L320.126,32.249L321.386,32.249L322.437,32.339L323.697,32.429L324.957,32.473L326.008,32.563L327.269,32.607L328.529,32.651L329.579,32.651L330.84,32.697L332.1,32.742L333.15,32.786L334.41,32.832L335.46,32.832L336.721,32.876L337.98,32.876L339.031,32.966L340.292,33.056L341.552,33.1L342.603,33.1L343.863,33.145L345.122,33.145L346.174,33.19L347.435,33.19L348.694,33.234L349.744,33.28L351.005,33.28L352.266,33.324L353.315,33.324L354.575,33.37L355.626,33.37L356.887,33.414L358.146,33.414L359.196,33.458L362.769,33.458L364.029,33.503L374.741,33.503L375.791,33.414L377.051,33.37L378.312,33.324L379.362,33.28L380.624,33.234L381.882,33.234L382.934,33.19L385.455,33.19L386.505,33.145L387.766,33.145L389.024,33.1L390.075,33.1L391.335,33.145L392.385,33.145L393.646,33.1L394.906,33.19L395.958,33.28L405.62,33.28L406.669,33.324L407.931,33.37L409.192,33.414L410.241,33.414L411.5,33.458L412.554,33.503L413.811,33.458L415.072,33.458L416.123,33.503L417.384,33.503L418.642,33.548L419.695,33.548L420.953,33.593L423.265,33.593L424.526,33.638L425.784,33.638L426.834,33.682L428.096,33.727L429.145,33.772L430.406,33.817L431.668,33.862L432.718,33.952L433.976,33.997L435.237,34.041L436.287,34.041L437.549,34.085L438.811,34.085L439.859,34.131L441.118,34.175L442.38,34.175L443.429,34.22L444.69,34.22L445.952,34.265L447.002,34.309L448.26,34.354L449.313,34.399L450.571,34.444L451.832,34.489L452.883,34.534L454.145,34.579L464.855,34.579L465.904,34.713L467.166,34.848L468.428,34.981L469.479,35.071L470.735,35.161L471.997,34.981L473.047,34.489L474.309,33.862L475.57,33.503L476.62,33.458L477.878,33.19L479.14,32.921L480.189,33.1L481.45,33.28L482.712,33.458L483.762,33.414L485.02,33.37L486.073,33.414L487.331,33.593L488.594,33.727L489.643,33.817L490.904,33.772L492.161,33.682L493.215,33.997L494.474,33.906L495.735,33.458L496.784,33.727L498.046,33.727L499.305,33.503L500.354,33.548L501.615,33.503L502.877,33.37L503.926,33.37L505.187,33.28L506.238,33.19L507.495,33.1L508.758,33.28L509.808,33.638L511.068,33.548L512.33,33.37L513.38,33.593L514.638,33.28L515.899,33.28L516.949,33.234L518.211,33.056L519.472,32.921L520.521,32.966L521.78,33.056L522.833,33.145L524.091,33.19L525.354,33.234L526.402,33.234L527.664,33.28L528.923,33.324L529.975,33.37L531.233,33.37L532.495,33.414L533.544,33.458L534.806,33.458L536.064,33.503L537.113,33.503L538.375,33.548L539.637,33.503L540.687,33.458L541.947,33.414L542.998,33.37L544.257,33.28L545.518,33.011L547.829,33.011L549.09,32.966L550.14,32.921L551.398,32.876L552.659,32.832L553.709,32.786L554.971,32.786L556.232,32.742L558.54,32.742L559.594,32.786L560.851,32.832L562.113,32.832L563.163,32.786L564.424,32.786L565.683,32.697L566.735,32.563L567.993,32.384L569.255,32.384L570.305,32.651L571.565,32.429L572.824,32.473L573.874,32.473L575.135,32.205L576.396,32.069L577.447,31.891L578.709,31.757L579.758,31.712L581.017,31.712L582.278,32.025L584.589,32.025L585.851,32.205L586.899,32.115L588.158,32.069L589.42,32.249L590.469,32.294L591.73,32.384L592.992,32.473L594.041,32.563L595.3,32.651L596.562,32.786L597.611,32.966L598.873,33.056L599.923,33.1L601.185,33.056L602.442,32.742L603.495,32.429L604.753,32.384L606.015,32.339L607.064,32.205L608.326,32.069L609.584,31.935L610.634,31.757L611.896,31.577L613.156,31.352L614.207,31.13L615.469,30.95L616.518,30.816L619.038,30.816L620.087,30.772L621.349,30.682L622.61,30.637L623.659,30.548L624.918,30.458L626.18,30.368L627.229,30.234L628.49,30.098L629.752,30.01L630.803,29.921L632.06,29.831L633.321,29.741L634.372,29.606L635.633,29.472L636.683,29.293L637.944,29.159L639.202,29.114L640.255,29.024L641.514,28.979L642.774,28.889L643.824,28.801L645.086,28.755L646.344,28.665L647.394,28.442L648.655,28.129L649.917,27.86L650.967,27.591L652.229,27.278L653.486,26.83L654.536,26.472L655.798,26.203L656.848,25.845L658.108,25.352L659.37,24.77L660.42,24.231L661.678,23.829L662.939,23.559L663.989,23.291L665.25,23.067L666.512,22.843L667.562,22.663L668.819,22.53L670.081,22.44L671.132,22.306L672.394,22.217L673.442,22.127L674.704,21.992L675.963,21.902L677.015,21.813L678.273,21.634L679.535,21.231L680.584,21.097L681.846,21.007L683.104,20.917L684.153,20.827L685.415,20.737L686.677,20.649L687.727,20.47L688.988,20.155L690.246,19.753L691.296,19.394L692.558,19.216L693.607,19.126L694.869,19.081L696.13,18.991L697.18,18.946L698.437,18.901L699.699,18.812L700.749,18.723L702.011,18.632L703.271,18.588L704.322,18.499L705.58,18.409L706.841,18.319L707.892,18.184L709.153,17.872L710.202,17.692L711.464,17.872L712.723,18.096L713.775,18.319L715.033,18.454L716.295,18.499L717.344,18.588L718.605,18.632L720.913,18.632L722.175,18.678L723.437,18.723L724.487,18.812L725.748,18.946L727.006,19.126L728.057,19.305L729.317,19.483L730.367,19.663L731.629,19.528L732.891,20.065L733.939,20.245L735.198,20.425L736.459,20.603L737.509,20.783L738.771,20.917L740.032,21.052L741.082,21.141L742.34,21.185L743.602,21.231L744.651,21.231L745.913,21.276L747.172,21.276L748.224,21.321L749.482,21.41L750.535,21.544L751.793,21.634L753.055,21.723L754.104,21.858L755.365,21.992L756.624,21.768L757.674,21.858L758.935,21.858L760.196,21.992L761.247,21.948L762.509,21.948L763.766,22.036L764.816,22.127L766.078,22.127L767.127,22.261L768.389,22.395L769.65,22.53L770.699,22.53L771.958,22.663L773.22,22.663L774.269,22.753L775.53,22.843L776.792,22.932L777.842,22.977L779.1,22.977L780.361,22.932L782.673,22.932L783.932,22.977L784.984,22.932L786.242,22.843L787.295,22.799L788.554,22.843L789.814,22.753L790.864,22.53L792.126,22.53L793.384,22.44L794.434,22.261L795.695,22.036L796.956,21.948L798.007,21.679L799.269,21.141L800.525,20.693L801.576,20.245L802.838,19.618L804.1,19.171L805.148,18.544L806.41,18.096L807.46,17.647L808.718,17.603L809.979,17.423L811.028,16.975L812.29,16.304L813.552,15.632L814.603,15.184L815.859,14.735L817.121,14.333L818.172,13.886L819.433,13.436L820.691,13.124L821.744,13.034L823.002,12.944L824.055,12.81L825.313,12.81L826.575,12.765L827.624,12.497L828.886,12.094L830.144,11.735L831.193,11.333L832.455,11.063L833.718,11.018L834.767,10.839L836.028,10.168L837.287,9.765L838.336,9.496L839.598,9.675L840.859,9.45L841.908,9.138L843.17,8.779L844.22,8.286L845.478,7.929L846.739,7.749L847.789,7.524L849.05,7.256L850.312,7.032L851.362,7.122L852.619,6.764L853.881,6.225L854.932,6.27L856.193,6.181L857.451,6.181L858.504,5.957L859.763,5.823L860.814,5.733L862.073,5.598L863.335,5.196L864.384,4.883L865.646,4.614L866.904,4.434L867.953,4.166L869.215,3.852L870.478,3.449L871.526,3.225L872.788,2.956L874.047,2.687L875.096,2.374L876.357,2.016L877.619,1.657L878.669,1.3L879.93,1.03L880.979,0.85L882.238,0.582L883.499,0.313L884.549,-0.045L885.811,-0.314L887.073,-0.538L888.122,-0.806L889.381,-1.029L890.642,-1.298L891.691,-1.523L892.953,-1.747L894.211,-1.97L895.264,-2.239L896.522,-2.509L897.784,-2.732L898.833,-2.956L900.095,-3.181L901.145,-3.403L902.405,-3.628L903.664,-3.852L904.713,-4.075L905.975,-4.3L907.237,-4.524L908.287,-4.747L909.548,-4.972L910.807,-5.151L911.856,-5.374L913.117,-5.599L914.379,-5.644L915.429,-5.644L916.69,-5.689L917.739,-5.734L918.998,-5.778L920.26,-5.778L921.309,-5.822L922.571,-5.867L923.833,-5.913L924.882,-5.913L926.141,-5.957" style="fill:none;fill-rule:nonzero;stroke:rgb(88,89,91);stroke-width:0.65px;"/>
        </g>
        <g transform="matrix(1,0,0,1,60.6509,152.856)">
            <path d="M0,34.618L1.05,34.573L2.311,34.662L3.57,34.26L4.62,33.811L5.881,33.766L7.141,33.991L8.191,34.214L9.452,34.394L10.712,34.662L11.762,34.708L13.022,34.618L14.073,34.573L15.333,34.752L16.594,34.887L17.644,35.02L18.904,34.975L21.215,34.975L22.476,34.93L23.735,34.93L24.786,34.887L26.047,34.887L27.307,34.843L28.356,34.752L29.617,34.752L30.877,34.708L34.238,34.708L35.499,34.662L40.33,34.662L41.38,34.618L42.641,34.438L43.901,34.036L44.951,33.766L46.212,34.036L47.472,34.26L48.522,34.528L49.783,34.618L51.043,34.17L52.093,33.409L53.354,32.96L54.404,33.946L55.665,34.348L56.926,34.528L57.975,34.708L59.235,34.662L60.495,34.618L61.546,34.708L62.807,34.752L67.638,34.752L68.688,34.708L73.521,34.708L74.569,34.662L106.708,34.662L107.968,34.618L130.445,34.618L131.495,34.573L151.66,34.573L152.921,34.528L161.322,34.528L162.374,34.483L168.255,34.483L169.516,34.438L182.539,34.438L183.8,34.394L189.681,34.394L190.94,34.348L196.822,34.348L198.083,34.304L203.966,34.304L205.015,34.26L209.847,34.26L211.106,34.214L215.729,34.214L216.989,34.26L219.299,34.26L220.56,34.304L221.609,34.304L222.87,34.348L225.18,34.348L226.44,34.394L227.701,34.348L228.751,34.348L230.012,34.304L231.271,34.26L232.323,34.214L233.583,34.214L234.843,34.17L235.894,34.08L237.154,34.124L239.465,34.124L240.726,34.17L241.774,34.17L243.035,34.214L244.296,34.26L245.346,34.304L246.606,34.214L247.866,34.17L248.916,34.214L250.177,34.26L251.437,34.304L252.488,34.26L253.749,34.214L255.008,34.08L256.06,33.991L258.58,33.901L259.63,33.946L260.89,33.946L261.94,33.856L263.201,33.856L264.461,33.811L265.511,33.722L266.771,33.678L268.031,33.722L269.083,33.766L273.914,33.766L275.175,33.811L277.485,33.811L278.535,33.766L281.056,33.766L282.105,33.722L283.366,33.678L284.626,33.632L285.677,33.588L286.937,33.588L288.197,33.544L289.248,33.544L290.509,33.497L291.768,33.497L292.819,33.453L294.08,33.453L295.34,33.409L296.39,33.363L297.65,33.363L298.7,33.319L299.961,33.274L301.221,33.274L302.271,33.229L303.531,33.184L305.843,33.184L307.104,33.139L309.414,33.139L310.675,33.095L314.245,33.095L315.295,33.05L316.556,33.05L317.815,33.005L318.865,32.96L320.126,32.915L323.697,32.915L324.957,32.96L326.008,33.005L327.269,33.05L332.1,33.05L333.15,33.005L334.41,32.915L335.46,32.871L336.721,32.781L337.98,32.737L340.292,32.737L341.552,32.871L342.603,32.96L343.863,33.05L345.122,33.005L346.174,33.005L347.435,33.05L348.694,33.095L349.744,33.184L351.005,33.184L352.266,33.229L354.575,33.229L355.626,33.274L358.146,33.274L359.196,33.319L365.289,33.319L366.339,33.363L374.741,33.363L375.791,33.319L377.051,33.274L378.312,33.229L380.624,33.229L381.882,33.184L385.455,33.184L386.505,33.139L391.335,33.139L392.385,33.184L393.646,33.139L394.906,33.184L395.958,33.229L397.217,33.184L398.477,33.095L399.527,33.05L407.931,33.05L409.192,33.095L410.241,33.095L411.5,33.139L419.695,33.139L420.953,33.184L424.526,33.184L425.784,33.229L428.096,33.229L429.145,33.274L430.406,33.319L431.668,33.319L432.718,33.363L433.976,33.409L435.237,33.409L436.287,33.453L439.859,33.453L441.118,33.497L443.429,33.497L444.69,33.544L445.952,33.544L447.002,33.588L448.26,33.588L449.313,33.632L450.571,33.678L451.832,33.678L452.883,33.722L457.714,33.722L458.975,33.766L461.286,33.766L462.544,33.722L463.594,33.722L464.855,33.678L465.904,33.678L467.166,33.632L468.428,33.588L469.479,33.544L470.735,33.544L471.997,33.497L473.047,33.453L474.309,33.409L475.57,33.363L476.62,33.363L477.878,33.319L479.14,33.274L480.189,33.274L481.45,33.229L482.712,33.274L489.643,33.274L490.904,33.319L492.161,33.274L493.215,33.229L494.474,33.184L495.735,33.139L496.784,33.095L498.046,33.005L499.305,32.96L500.354,32.96L501.615,32.915L502.877,32.871L503.926,32.871L505.187,32.827L506.238,32.827L507.495,32.737L508.758,32.691L509.808,32.602L511.068,32.513L512.33,32.423L513.38,32.333L514.638,32.244L515.899,32.154L516.949,32.064L518.211,31.975L519.472,31.886L520.521,31.796L521.78,31.706L522.833,31.662L524.091,31.616L525.354,31.526L526.402,31.482L527.664,31.482L528.923,31.438L529.975,31.438L531.233,31.482L532.495,31.482L533.544,31.526L538.375,31.526L539.637,31.438L540.687,31.347L541.947,31.259L542.998,31.124L544.257,30.99L545.518,30.899L546.567,30.765L547.829,30.676L549.09,30.587L550.14,30.497L551.398,30.407L552.659,30.362L553.709,30.362L554.971,30.317L556.232,30.273L557.281,30.229L558.54,30.183L559.594,30.139L560.851,30.049L562.113,30.005L563.163,29.96L564.424,29.915L565.683,29.87L566.735,29.825L567.993,29.78L569.255,29.735L570.305,29.69L571.565,29.645L572.824,29.6L573.874,29.556L575.135,29.511L576.396,29.467L577.447,29.423L578.709,29.423L579.758,29.378L581.017,29.333L582.278,29.333L583.327,29.288L584.589,29.288L585.851,29.242L589.42,29.242L590.469,29.198L594.041,29.198L595.3,29.153L596.562,29.108L597.611,29.064L598.873,29.108L599.923,29.153L601.185,29.108L602.442,29.064L603.495,28.974L604.753,28.796L606.015,28.616L607.064,28.436L608.326,28.212L609.584,28.034L610.634,27.899L611.896,27.809L613.156,27.72L614.207,27.632L615.469,27.541L616.518,27.451L617.776,27.361L619.038,27.272L620.087,27.138L621.349,27.048L622.61,26.959L623.659,26.869L624.918,26.735L626.18,26.69L627.229,26.6L628.49,26.511L629.752,26.466L630.803,26.376L632.06,26.331L633.321,26.242L634.372,26.196L635.633,26.108L636.683,26.062L637.944,26.018L639.202,25.929L640.255,25.884L641.514,25.794L642.774,25.749L643.824,25.66L645.086,25.524L646.344,25.435L647.394,25.302L648.655,25.167L649.917,25.032L650.967,24.853L652.229,24.675L653.486,24.54L654.536,24.405L655.798,24.271L656.848,24.137L658.108,24.003L659.37,23.868L660.42,23.733L661.678,23.6L662.939,23.511L663.989,23.421L665.25,23.286L666.512,23.196L667.562,23.106L668.819,23.062L670.081,22.972L671.132,22.927L672.394,22.927L673.442,22.882L674.704,22.882L675.963,22.838L677.015,22.794L678.273,22.748L679.535,22.704L680.584,22.614L681.846,22.524L683.104,22.479L684.153,22.345L685.415,22.256L686.677,22.077L687.727,21.942L688.988,21.807L690.246,21.674L691.296,21.539L692.558,21.493L693.607,21.405L694.869,21.405L696.13,21.36L697.18,21.315L698.437,21.27L699.699,21.18L700.749,21.136L702.011,21.091L703.271,21.001L704.322,20.957L705.58,20.867L706.841,20.823L707.892,20.732L709.153,20.688L710.202,20.598L711.464,20.509L712.723,20.464L713.775,20.329L715.033,20.24L716.295,20.106L717.344,20.016L718.605,19.927L719.864,19.837L720.913,19.702L722.175,19.612L723.437,19.523L724.487,19.433L725.748,19.345L727.006,19.3L728.057,19.3L729.317,19.345L730.367,19.433L731.22,19.373L731.685,19.341L732.262,19.341L732.887,19.297L734.041,19.209L734.666,19.165L735.242,19.121L735.868,19.121L736.445,19.077L737.646,19.077L738.272,19.033L740.051,19.033L740.629,18.989L741.254,18.989L741.831,18.946L742.455,18.946L743.033,18.901L743.657,18.901L744.235,18.858L744.812,18.813L745.437,18.813L746.014,18.77L746.64,18.77L747.217,18.725L747.842,18.682L748.418,18.682L749.044,18.639L749.62,18.595L750.197,18.595L750.822,18.551L751.399,18.551L752.024,18.507L752.602,18.463L753.227,18.463L753.804,18.419L754.429,18.375L755.006,18.375L755.583,18.331L756.208,18.331L756.785,18.288L757.41,18.288L757.987,18.243L758.612,18.243L759.189,18.2L760.969,18.2L761.594,18.156L763.998,18.156L764.575,18.112L765.152,18.156L765.777,18.156L766.354,18.2L767.557,18.2L768.182,18.243L769.384,18.243L769.961,18.288L771.162,18.288L771.739,18.331L773.566,18.331L774.144,18.288L774.769,18.288L775.346,18.243L775.924,18.243L776.548,18.2L777.125,18.2L777.75,18.156L778.327,18.156L778.952,18.112L779.529,18.112L780.154,18.068L780.731,17.892L781.309,17.98L781.934,18.024L784.915,18.024L785.54,17.98L787.319,17.98L787.896,17.936L789.724,17.936L790.301,17.892L790.926,17.806L791.502,17.761L792.08,17.718L792.705,17.673L793.282,17.585L793.906,17.542L794.484,17.498L795.108,17.41L795.687,17.278L796.311,17.103L796.889,16.928L797.465,16.796L798.091,16.665L798.668,16.62L799.293,16.665L799.869,16.708L801.697,16.708L802.273,16.665L802.851,16.577L803.476,16.489L804.053,16.357L804.678,16.225L805.255,16.095L805.88,15.963L806.457,15.875L807.082,15.787L807.659,15.743L808.236,15.655L808.861,15.611L809.437,15.523L810.063,15.436L810.641,15.305L811.266,15.217L811.842,15.085L812.468,14.953L813.045,14.821L813.622,14.69L814.246,14.514L814.824,14.383L815.449,14.251L816.026,14.076L816.65,13.901L817.229,13.768L817.853,13.55L818.431,13.33L819.008,13.111L819.633,12.891L820.209,12.716L820.835,12.54L821.412,12.365L822.037,12.057L822.613,11.795L823.239,11.532L823.815,11.312L824.393,11.137L825.018,10.961L825.595,10.742L826.22,10.522L826.797,10.304L827.422,10.084L827.999,9.821L828.624,9.557L829.201,9.163L829.777,8.723L830.403,8.373L830.98,8.022L831.605,7.671L832.182,7.232L832.808,6.75L833.385,6.136L833.962,5.389L834.586,4.513L835.164,3.722L835.789,3.591L836.366,3.46L836.99,3.372L837.568,3.416L838.193,3.416L838.771,3.372L839.348,3.284L839.973,3.24L840.549,3.24L841.175,2.976L841.752,2.846L842.377,2.802L842.953,2.758L843.579,2.758L844.156,2.714L844.732,2.67L845.357,2.626L845.935,2.626L846.56,2.582L847.137,2.538L847.762,2.538L848.339,2.495L848.964,2.45L849.541,2.45L850.119,2.407L850.743,2.362L851.32,2.362L851.945,2.319L852.522,2.274L853.147,2.274L853.725,2.231L854.35,2.187L854.927,2.187L855.504,2.143L857.331,2.143L857.908,2.099L859.735,2.099L860.312,2.055L863.293,2.055L863.919,2.012L865.121,2.012L865.697,1.968L866.274,1.968L866.9,1.924L868.102,1.924L868.679,1.88L870.506,1.88L871.083,1.837L871.66,1.837L872.285,1.792L872.863,1.792L873.487,1.749L874.064,1.705L874.689,1.705L875.267,1.661L875.892,1.617L876.469,1.617L877.046,1.573L878.248,1.573L878.873,1.529L879.45,1.529L880.075,1.485L881.277,1.485L881.854,1.441L882.432,1.441L883.057,1.397L884.259,1.397L884.836,1.354L886.663,1.354L887.24,1.309L889.645,1.309L890.222,1.266L891.424,1.266L892.048,1.222L892.626,1.179L893.203,1.134L893.828,1.091L894.404,1.091L895.03,1.047L895.607,1.003L896.232,0.959L896.809,0.915L897.435,0.871L898.011,0.871L898.588,0.827L899.213,0.783L899.79,0.739L900.415,0.695L900.992,0.652L901.617,0.652L902.194,0.608L902.819,0.564L903.973,0.476L904.599,0.432L905.176,0.432L905.801,0.389L906.377,0.345L907.003,0.301L907.58,0.257L908.205,0.214L908.781,0.214L909.359,0.169L909.984,0.126L910.562,0.081L911.186,0.038L911.764,0.038L912.389,-0.402L926.141,-0.402" style="fill:none;fill-rule:nonzero;stroke:rgb(88,89,91);stroke-width:0.65px;"/>
        </g>
        <g transform="matrix(1,0,0,1,60.6509,152.76)">
            <path d="M0,34.714L1.05,34.669L2.311,34.758L3.57,34.356L4.62,33.907L5.881,33.862L7.141,34.087L8.191,34.31L9.452,34.49L10.712,34.758L11.762,34.804L13.022,34.714L14.073,34.669L15.333,34.848L16.594,34.983L17.644,35.116L18.904,35.071L21.215,35.071L22.476,35.026L23.735,35.026L24.786,34.983L26.047,34.983L27.307,34.939L28.356,34.848L29.617,34.848L30.877,34.804L34.238,34.804L35.499,34.758L40.33,34.758L41.38,34.714L42.641,34.534L43.901,34.132L44.951,33.862L46.212,34.132L47.472,34.356L48.522,34.624L49.783,34.714L51.043,34.266L52.093,33.505L53.354,33.056L54.404,34.042L55.665,34.444L56.926,34.624L57.975,34.804L59.235,34.758L60.495,34.714L61.546,34.804L62.807,34.848L67.638,34.848L68.688,34.804L73.521,34.804L74.569,34.758L106.708,34.758L107.968,34.714L130.445,34.714L131.495,34.669L151.66,34.669L152.921,34.624L161.322,34.624L162.374,34.579L168.255,34.579L169.516,34.534L182.539,34.534L183.8,34.49L189.681,34.49L190.94,34.444L196.822,34.444L198.083,34.4L203.966,34.4L205.015,34.356L209.847,34.356L211.106,34.31L215.729,34.31L216.989,34.356L219.299,34.356L220.56,34.4L221.609,34.4L222.87,34.444L225.18,34.444L226.44,34.49L227.701,34.444L228.751,34.444L230.012,34.4L231.271,34.356L232.323,34.31L233.583,34.31L234.843,34.266L235.894,34.176L237.154,34.22L238.414,34.176L239.465,34.087L240.726,33.997L241.774,33.907L243.035,33.818L244.296,33.862L245.346,33.907L246.606,33.818L247.866,33.64L248.916,33.549L250.177,33.593L251.437,33.549L252.488,33.459L253.749,33.505L255.008,33.505L256.06,33.415L258.58,33.325L259.63,33.28L260.89,33.28L261.94,33.191L263.201,33.191L264.461,33.28L265.511,33.191L266.771,33.011L269.083,33.011L270.344,32.967L271.603,32.923L272.653,32.923L273.914,32.877L275.175,32.833L276.225,32.787L277.485,32.787L278.535,32.742L279.796,32.698L281.056,32.698L282.105,32.653L283.366,32.653L284.626,32.609L285.677,32.564L286.937,32.564L288.197,32.519L289.248,32.474L290.509,32.474L291.768,32.429L292.819,32.385L294.08,32.34L295.34,32.294L296.39,32.25L297.65,32.206L298.7,32.206L299.961,32.16L301.221,32.16L302.271,32.116L303.531,32.116L304.792,32.071L307.104,32.071L308.362,32.026L309.414,32.026L310.675,31.982L311.935,31.982L312.984,31.937L315.295,31.937L316.556,31.892L318.865,31.892L320.126,31.847L321.386,31.802L322.437,31.802L323.697,31.758L324.957,31.758L326.008,31.712L328.529,31.712L329.579,31.758L330.84,31.758L332.1,31.802L333.15,31.847L334.41,31.847L335.46,31.668L336.721,31.534L337.98,31.4L339.031,31.31L340.292,31.4L341.552,31.443L342.603,31.443L343.863,31.489L345.122,31.534L346.174,31.534L347.435,31.489L348.694,31.443L349.744,31.355L351.005,31.355L352.266,31.4L353.315,31.4L354.575,31.443L355.626,31.443L356.887,31.489L358.146,31.489L359.196,31.534L362.769,31.534L364.029,31.489L365.289,31.443L366.339,31.443L367.6,31.4L368.859,31.355L369.91,31.175L371.17,31.22L372.22,31.22L373.48,31.265L374.741,31.13L375.791,31.13L377.051,31.175L379.362,31.175L380.624,31.22L381.882,31.265L382.934,31.265L384.193,31.31L385.455,31.355L386.505,31.4L387.766,31.443L389.024,31.489L390.075,31.534L391.335,31.578L392.385,31.578L393.646,31.534L394.906,31.578L395.958,31.622L397.217,31.622L398.477,31.668L404.358,31.668L405.62,31.622L407.931,31.622L409.192,31.578L411.5,31.578L412.554,31.534L413.811,31.489L415.072,31.489L416.123,31.443L417.384,31.443L418.642,31.4L420.953,31.4L422.215,31.355L424.526,31.355L425.784,31.31L429.145,31.31L430.406,31.265L431.668,31.265L432.718,31.22L433.976,31.175L435.237,31.13L447.002,31.13L448.26,31.175L449.313,31.175L450.571,31.086L451.832,30.995L452.883,30.951L454.145,30.907L455.401,30.861L456.455,30.818L460.024,30.818L461.286,30.772L463.594,30.772L464.855,30.728L465.904,30.728L467.166,30.683L468.428,30.683L469.479,30.638L471.997,30.638L473.047,30.593L475.57,30.593L476.62,30.548L479.14,30.548L480.189,30.503L485.02,30.503L486.073,30.458L493.215,30.458L494.474,30.413L499.305,30.413L500.354,30.369L505.187,30.369L506.238,30.325L509.808,30.325L511.068,30.279L513.38,30.279L514.638,30.235L515.899,30.235L516.949,30.189L518.211,30.189L519.472,30.145L520.521,30.145L521.78,30.101L522.833,30.056L524.091,30.056L525.354,30.011L526.402,29.966L527.664,29.921L528.923,29.876L529.975,29.831L531.233,29.831L532.495,29.786L533.544,29.741L534.806,29.696L536.064,29.652L537.113,29.563L538.375,29.519L539.637,29.474L540.687,29.429L541.947,29.384L542.998,29.294L544.257,29.249L545.518,29.204L546.567,29.114L547.829,29.07L549.09,29.025L550.14,28.981L551.398,28.892L552.659,28.846L553.709,28.802L554.971,28.712L556.232,28.667L557.281,28.577L558.54,28.532L559.594,28.487L560.851,28.398L562.113,28.354L563.163,28.308L564.424,28.264L565.683,28.175L566.735,28.13L567.993,28.085L569.255,28.04L570.305,27.995L571.565,27.95L572.824,27.905L573.874,27.86L575.135,27.772L576.396,27.728L577.447,27.682L578.709,27.637L579.758,27.591L581.017,27.547L582.278,27.547L583.327,27.503L584.589,27.457L585.851,27.413L586.899,27.413L588.158,27.368L589.42,27.323L590.469,27.323L591.73,27.278L592.992,27.278L594.041,27.234L595.3,27.189L596.562,27.189L597.611,27.144L598.873,27.099L599.923,27.099L601.185,27.055L602.442,26.965L603.495,26.876L604.753,26.786L606.015,26.696L607.064,26.607L608.326,26.472L609.584,26.382L610.634,26.292L611.896,26.204L613.156,26.114L614.207,26.025L615.469,25.935L616.518,25.845L617.776,25.756L619.038,25.666L620.087,25.576L621.349,25.443L622.61,25.353L623.659,25.263L624.918,25.173L626.18,25.083L627.229,24.993L628.49,24.905L629.752,24.86L630.803,24.771L632.06,24.726L633.321,24.681L634.372,24.636L635.633,24.591L636.683,24.546L637.944,24.456L639.202,24.411L640.255,24.323L641.514,24.277L642.774,24.187L643.824,24.143L645.086,24.054L646.344,23.964L647.394,23.874L648.655,23.829L649.917,23.739L650.967,23.651L652.229,23.561L653.486,23.472L654.536,23.382L655.798,23.292L656.848,23.202L658.108,23.112L659.37,23.023L660.42,22.89L661.678,22.8L662.939,22.71L663.989,22.62L665.25,22.485L666.512,22.396L667.562,22.308L668.819,22.218L670.081,22.127L671.132,21.993L672.394,21.903L673.442,21.814L674.704,21.725L675.963,21.679L677.015,21.589L678.273,21.501L679.535,21.411L680.584,21.321L681.846,21.276L683.104,21.187L684.153,21.097L685.415,21.007L686.677,20.919L687.727,20.874L688.988,20.784L690.246,20.694L691.296,20.65L692.558,20.56L693.607,20.515L694.869,20.425L696.13,20.336L697.18,20.246L698.437,20.156L699.699,20.068L700.749,19.978L702.011,19.888L703.271,19.798L704.322,19.664L705.58,19.573L706.841,19.441L707.892,19.351L709.153,19.216L710.202,19.081L711.464,18.947L712.723,18.814L713.775,18.634L715.033,18.499L716.295,18.32L717.344,18.187L718.605,18.052L719.864,17.917L720.913,17.872L722.175,17.782L723.437,17.738L724.487,17.694L725.748,17.605L727.006,17.559L728.057,17.515L729.317,17.424L730.367,17.334L731.629,17.11L732.891,17.29L733.939,17.245L735.198,17.2L736.459,17.156L737.509,17.11L738.771,17.066L740.032,17.066L741.082,17.021L742.34,16.976L743.602,16.888L744.651,16.843L745.913,16.753L747.172,16.708L748.224,16.663L749.482,16.573L750.535,16.528L751.793,16.484L753.055,16.484L754.104,16.439L755.365,16.394L760.196,16.394L761.247,16.439L763.766,16.439L764.816,16.484L768.389,16.484L769.65,16.439L770.699,16.394L771.958,16.306L773.22,16.171L774.269,16.081L775.53,15.991L776.792,15.902L777.842,15.858L779.1,15.767L780.361,15.677L781.411,15.543L782.673,15.454L783.932,15.409L784.984,15.319L786.242,15.23L787.295,15.141L788.554,14.916L789.814,14.648L790.864,14.468L792.126,14.29L793.384,14.066L794.434,13.841L795.695,13.571L796.956,13.349L798.007,13.079L799.269,12.767L800.525,12.452L801.576,12.185L802.838,11.915L804.1,11.647L805.148,11.333L806.41,10.974L807.46,10.661L808.718,10.392L809.979,9.989L811.028,9.585L812.29,9.049L813.552,8.511L814.603,7.929L815.859,7.302L817.121,6.675L818.172,5.868L819.433,5.017L820.691,4.436L821.744,4.121L823.002,3.943L824.055,3.808L825.313,3.675L826.575,3.585L827.624,3.45L828.886,3.405L830.144,3.36L831.193,3.316L832.455,3.226L833.718,3.181L834.767,3.137L836.028,3.092L837.287,3.046L838.336,3.002L839.598,2.956L840.859,2.912L841.908,2.868L843.17,2.823L844.22,2.734L845.478,2.689L846.739,2.644L847.789,2.554L849.05,2.509L850.312,2.464L851.362,2.374L852.619,2.33L853.881,2.286L854.932,2.195L856.193,2.151L857.451,2.151L858.504,2.107L859.763,2.107L860.814,2.062L863.335,2.062L864.384,2.017L865.646,2.017L866.904,1.972L867.953,1.927L869.215,1.882L870.478,1.882L871.526,1.837L872.788,1.792L874.047,1.747L875.096,1.703L876.357,1.657L877.619,1.613L878.669,1.569L879.93,1.524L880.979,1.48L882.238,1.435L883.499,1.435L884.549,1.39L885.811,1.345L888.122,1.345L889.381,1.3L890.642,1.3L891.691,1.255L892.953,1.165L894.211,1.121L895.264,1.031L896.522,0.986L897.784,0.897L898.833,0.808L900.095,0.763L901.145,0.673L902.405,0.583L903.664,0.538L904.713,0.448L905.975,0.359L907.237,0.315L908.287,0.225L909.548,0.181L910.807,0.09L911.856,0.001L913.117,-0.044L914.379,-0.089L915.429,-0.089L916.69,-0.134L917.739,-0.179L918.998,-0.224L920.26,-0.224L921.309,-0.267L922.571,-0.312L923.833,-0.358L924.882,-0.358L926.141,-0.402" style="fill:none;fill-rule:nonzero;stroke:rgb(88,89,91);stroke-width:0.65px;"/>
        </g>
        <g transform="matrix(1,0,0,1,60.6509,152.76)">
            <path d="M0,34.714L1.05,34.669L2.311,34.758L3.57,34.356L4.62,33.907L5.881,33.862L7.141,34.087L8.191,34.31L9.452,34.49L10.712,34.758L11.762,34.804L13.022,34.714L14.073,34.669L15.333,34.848L16.594,34.983L17.644,35.116L18.904,35.071L21.215,35.071L22.476,35.026L23.735,35.026L24.786,34.983L26.047,34.983L27.307,34.939L28.356,34.848L29.617,34.848L30.877,34.804L34.238,34.804L35.499,34.758L40.33,34.758L41.38,34.714L42.641,34.534L43.901,34.132L44.951,33.862L46.212,34.132L47.472,34.356L48.522,34.624L49.783,34.714L51.043,34.266L52.093,33.505L53.354,33.056L54.404,34.042L55.665,34.444L56.926,34.624L57.975,34.804L59.235,34.758L60.495,34.714L61.546,34.804L62.807,34.848L67.638,34.848L68.688,34.804L73.521,34.804L74.569,34.758L106.708,34.758L107.968,34.714L130.445,34.714L131.495,34.669L151.66,34.669L152.921,34.624L161.322,34.624L162.374,34.579L168.255,34.579L169.516,34.534L182.539,34.534L183.8,34.49L189.681,34.49L190.94,34.444L196.822,34.444L198.083,34.4L203.966,34.4L205.015,34.356L209.847,34.356L211.106,34.31L215.729,34.31L216.989,34.356L219.299,34.356L220.56,34.4L221.609,34.4L222.87,34.444L225.18,34.444L226.44,34.49L227.701,34.444L228.751,34.444L230.012,34.4L231.271,34.356L232.323,34.31L233.583,34.31L234.843,34.266L235.894,34.176L237.154,34.22L238.414,34.176L239.465,34.087L240.726,33.997L241.774,33.907L243.035,33.818L244.296,33.862L245.346,33.907L246.606,33.818L247.866,33.64L248.916,33.549L250.177,33.593L251.437,33.549L252.488,33.459L253.749,33.505L255.008,33.505L256.06,33.415L258.58,33.325L259.63,33.28L260.89,33.28L261.94,33.191L263.201,33.191L264.461,33.28L265.511,33.191L266.771,33.011L269.083,33.011L270.344,32.967L271.603,32.923L272.653,32.923L273.914,32.877L275.175,32.833L276.225,32.787L277.485,32.787L278.535,32.742L279.796,32.698L281.056,32.698L282.105,32.653L283.366,32.653L284.626,32.609L285.677,32.564L286.937,32.564L288.197,32.519L289.248,32.474L290.509,32.474L291.768,32.429L292.819,32.385L294.08,32.34L295.34,32.294L296.39,32.25L297.65,32.206L298.7,32.206L299.961,32.16L301.221,32.16L302.271,32.116L303.531,32.116L304.792,32.071L307.104,32.071L308.362,32.026L309.414,32.026L310.675,31.982L311.935,31.982L312.984,31.937L315.295,31.937L316.556,31.892L318.865,31.892L320.126,31.847L321.386,31.802L322.437,31.802L323.697,31.758L324.957,31.758L326.008,31.712L328.529,31.712L329.579,31.758L330.84,31.758L332.1,31.802L333.15,31.847L334.41,31.847L335.46,31.668L336.721,31.534L337.98,31.4L339.031,31.31L340.292,31.4L341.552,31.443L342.603,31.443L343.863,31.489L345.122,31.534L346.174,31.534L347.435,31.489L348.694,31.443L349.744,31.355L351.005,31.355L352.266,31.4L353.315,31.4L354.575,31.443L355.626,31.443L356.887,31.489L358.146,31.489L359.196,31.534L362.769,31.534L364.029,31.489L365.289,31.443L366.339,31.443L367.6,31.4L368.859,31.355L369.91,31.175L371.17,31.22L372.22,31.22L373.48,31.265L374.741,31.13L375.791,31.13L377.051,31.175L379.362,31.175L380.624,31.22L381.882,31.265L382.934,31.265L384.193,31.31L385.455,31.355L386.505,31.4L387.766,31.443L389.024,31.489L390.075,31.534L391.335,31.578L392.385,31.578L393.646,31.534L394.906,31.578L395.958,31.622L397.217,31.622L398.477,31.668L404.358,31.668L405.62,31.622L407.931,31.622L409.192,31.578L411.5,31.578L412.554,31.534L413.811,31.489L415.072,31.489L416.123,31.443L417.384,31.443L418.642,31.4L420.953,31.4L422.215,31.355L424.526,31.355L425.784,31.31L429.145,31.31L430.406,31.265L431.668,31.265L432.718,31.22L433.976,31.175L435.237,31.13L447.002,31.13L448.26,31.175L449.313,31.175L450.571,31.086L451.832,30.995L452.883,30.951L454.145,30.907L455.401,30.861L456.455,30.818L460.024,30.818L461.286,30.772L463.594,30.772L464.855,30.728L465.904,30.728L467.166,30.683L468.428,30.683L469.479,30.638L470.735,30.638L471.997,30.593L473.047,30.593L474.309,30.548L476.62,30.548L477.878,30.503L479.14,30.503L480.189,30.458L481.45,30.458L482.712,30.413L485.02,30.413L486.073,30.369L487.331,30.369L488.594,30.325L490.904,30.325L492.161,30.279L493.215,30.279L494.474,30.235L496.784,30.235L498.046,30.189L500.354,30.189L501.615,30.145L502.877,30.145L503.926,30.101L506.238,30.101L507.495,30.056L509.808,30.056L511.068,30.011L512.33,30.011L513.38,29.966L514.638,29.921L515.899,29.876L516.949,29.831L518.211,29.786L519.472,29.696L520.521,29.652L521.78,29.607L522.833,29.563L524.091,29.519L525.354,29.474L526.402,29.429L527.664,29.384L528.923,29.384L529.975,29.338L531.233,29.294L532.495,29.249L533.544,29.204L534.806,29.16L536.064,29.114L537.113,29.07L538.375,29.025L539.637,28.981L540.687,28.936L541.947,28.892L542.998,28.846L544.257,28.802L545.518,28.756L546.567,28.667L547.829,28.622L549.09,28.577L550.14,28.487L551.398,28.443L552.659,28.398L553.709,28.354L554.971,28.264L556.232,28.218L557.281,28.175L558.54,28.085L559.594,28.04L560.851,27.995L562.113,27.905L563.163,27.86L564.424,27.816L565.683,27.772L566.735,27.728L567.993,27.682L569.255,27.591L570.305,27.547L571.565,27.503L572.824,27.457L573.874,27.413L575.135,27.368L576.396,27.278L577.447,27.234L578.709,27.189L579.758,27.144L581.017,27.099L582.278,27.055L583.327,27.009L585.851,26.921L586.899,26.876L588.158,26.831L589.42,26.786L590.469,26.696L591.73,26.651L592.992,26.607L594.041,26.562L595.3,26.517L596.562,26.472L597.611,26.382L598.873,26.338L599.923,26.292L601.185,26.248L602.442,26.204L603.495,26.158L604.753,26.114L606.015,26.025L607.064,25.98L608.326,25.89L609.584,25.8L610.634,25.756L611.896,25.666L613.156,25.576L614.207,25.487L615.469,25.398L616.518,25.308L617.776,25.218L619.038,25.128L620.087,25.083L621.349,24.993L622.61,24.905L623.659,24.816L624.918,24.771L626.18,24.681L627.229,24.591L628.49,24.546L629.752,24.456L630.803,24.411L632.06,24.323L633.321,24.233L634.372,24.187L635.633,24.099L636.683,24.009L637.944,23.964L639.202,23.874L640.255,23.784L641.514,23.739L642.774,23.651L643.824,23.561L645.086,23.472L646.344,23.382L647.394,23.292L648.655,23.202L649.917,23.112L650.967,23.023L652.229,22.934L653.486,22.844L654.536,22.754L655.798,22.62L656.848,22.485L658.108,22.352L659.37,22.262L660.42,22.127L661.678,21.993L662.939,21.903L663.989,21.814L665.25,21.725L666.512,21.635L667.562,21.545L668.819,21.456L670.081,21.366L671.132,21.276L672.394,21.187L673.442,21.097L674.704,21.007L675.963,20.963L677.015,20.919L678.273,20.874L679.535,20.784L680.584,20.739L681.846,20.65L683.104,20.605L684.153,20.515L685.415,20.425L686.677,20.336L687.727,20.246L688.988,20.156L690.246,20.068L691.296,19.933L692.558,19.798L693.607,19.619L694.869,19.485L696.13,19.396L697.18,19.306L698.437,19.216L699.699,19.127L700.749,19.081L702.011,19.037L703.271,18.947L704.322,18.903L705.58,18.814L706.841,18.679L707.892,18.589L709.153,18.454L710.202,18.365L711.464,18.231L712.723,18.052L713.775,17.917L715.033,17.738L716.295,17.515L717.344,17.29L718.605,17.156L719.864,17.066L720.913,16.888L722.175,16.663L723.437,16.484L724.487,16.306L725.748,16.171L727.006,16.036L728.057,15.902L729.317,15.946L730.367,16.036L731.629,15.902L732.891,16.081L733.939,16.036L735.198,15.991L736.459,15.946L737.509,15.902L738.771,15.902L740.032,15.858L741.082,15.812L742.34,15.723L743.602,15.633L744.651,15.543L745.913,15.454L747.172,15.364L748.224,15.275L749.482,15.23L750.535,15.141L751.793,15.095L753.055,15.005L754.104,15.005L755.365,14.961L756.624,14.916L757.674,14.916L758.935,14.872L761.247,14.872L762.509,14.916L767.127,14.916L768.389,14.961L773.22,14.961L774.269,14.916L775.53,14.826L776.792,14.737L777.842,14.603L779.1,14.513L780.361,14.424L781.411,14.29L782.673,14.154L783.932,14.2L784.984,14.29L786.242,14.154L787.295,13.841L788.554,13.571L789.814,13.079L790.864,12.856L792.126,12.587L793.384,12.362L794.434,12.095L795.695,11.825L796.956,11.603L798.007,11.378L799.269,11.019L800.525,10.616L801.576,10.259L802.838,9.945L804.1,9.675L805.148,9.362L806.41,9.049L807.46,8.735L808.718,8.466L809.979,8.198L811.028,7.929L812.29,7.615L813.552,7.302L814.603,6.899L815.859,6.495L817.121,6.003L818.172,5.421L819.433,4.749L820.691,4.257L821.744,3.898L823.002,3.763L824.055,3.629L825.313,3.45L826.575,3.271L827.624,3.226L828.886,3.137L830.144,3.046L831.193,3.046L832.455,3.002L833.718,2.912L834.767,2.868L836.028,2.823L837.287,2.778L838.336,2.734L839.598,2.689L840.859,2.644L841.908,2.599L843.17,2.554L844.22,2.509L845.478,2.464L846.739,2.42L847.789,2.374L849.05,2.33L850.312,2.286L851.362,2.241L852.619,2.195L853.881,2.195L854.932,2.151L857.451,2.151L858.504,2.107L859.763,2.107L860.814,2.062L863.335,2.062L864.384,2.017L865.646,2.017L866.904,1.972L867.953,1.927L869.215,1.882L870.478,1.882L871.526,1.837L872.788,1.792L874.047,1.747L875.096,1.703L876.357,1.657L877.619,1.613L878.669,1.569L879.93,1.524L880.979,1.48L882.238,1.435L883.499,1.435L884.549,1.39L885.811,1.345L888.122,1.345L889.381,1.3L890.642,1.3L891.691,1.255L892.953,1.165L894.211,1.121L895.264,1.031L896.522,0.986L897.784,0.897L898.833,0.808L900.095,0.763L901.145,0.673L902.405,0.583L903.664,0.538L904.713,0.448L905.975,0.359L907.237,0.315L908.287,0.225L909.548,0.181L910.807,0.09L911.856,0.001L913.117,-0.044L914.379,-0.089L915.429,-0.089L916.69,-0.134L917.739,-0.179L918.998,-0.224L920.26,-0.224L921.309,-0.267L922.571,-0.312L923.833,-0.358L924.882,-0.358L926.141,-0.402" style="fill:none;fill-rule:nonzero;stroke:rgb(88,89,91);stroke-width:0.65px;"/>
        </g>
        <g transform="matrix(1,0,0,1,60.6509,152.76)">
            <path d="M0,34.714L1.05,34.669L2.311,34.758L3.57,34.356L4.62,33.907L5.881,33.862L7.141,34.087L8.191,34.31L9.452,34.49L10.712,34.758L11.762,34.804L13.022,34.714L14.073,34.669L15.333,34.848L16.594,34.983L17.644,35.116L18.904,35.071L21.215,35.071L22.476,35.026L23.735,35.026L24.786,34.983L26.047,34.983L27.307,34.939L28.356,34.848L29.617,34.848L30.877,34.804L34.238,34.804L35.499,34.758L40.33,34.758L41.38,34.714L42.641,34.534L43.901,34.132L44.951,33.862L46.212,34.132L47.472,34.356L48.522,34.624L49.783,34.714L51.043,34.266L52.093,33.505L53.354,33.056L54.404,34.042L55.665,34.444L56.926,34.624L57.975,34.804L59.235,34.758L60.495,34.714L61.546,34.804L62.807,34.848L67.638,34.848L68.688,34.804L73.521,34.804L74.569,34.758L106.708,34.758L107.968,34.714L130.445,34.714L131.495,34.669L151.66,34.669L152.921,34.624L161.322,34.624L162.374,34.579L168.255,34.579L169.516,34.534L182.539,34.534L183.8,34.49L189.681,34.49L190.94,34.444L196.822,34.444L198.083,34.4L203.966,34.4L205.015,34.356L209.847,34.356L211.106,34.31L215.729,34.31L216.989,34.356L219.299,34.356L220.56,34.4L221.609,34.4L222.87,34.444L225.18,34.444L226.44,34.49L227.701,34.444L228.751,34.444L230.012,34.4L231.271,34.356L232.323,34.31L233.583,34.31L234.843,34.266L235.894,34.176L237.154,34.22L238.414,34.176L239.465,34.087L240.726,33.997L241.774,33.907L243.035,33.818L244.296,33.862L245.346,33.907L246.606,33.818L247.866,33.64L248.916,33.549L250.177,33.593L251.437,33.549L252.488,33.459L253.749,33.505L255.008,33.505L256.06,33.415L258.58,33.325L259.63,33.28L260.89,33.28L261.94,33.191L263.201,33.191L264.461,33.28L265.511,33.191L266.771,33.011L269.083,33.011L270.344,32.967L271.603,32.923L272.653,32.923L273.914,32.877L275.175,32.833L276.225,32.787L277.485,32.787L278.535,32.742L279.796,32.698L281.056,32.698L282.105,32.653L283.366,32.653L284.626,32.609L285.677,32.564L286.937,32.564L288.197,32.519L289.248,32.474L290.509,32.474L291.768,32.429L292.819,32.385L294.08,32.34L295.34,32.294L296.39,32.25L297.65,32.206L298.7,32.206L299.961,32.16L301.221,32.16L302.271,32.116L303.531,32.116L304.792,32.071L307.104,32.071L308.362,32.026L309.414,32.026L310.675,31.982L311.935,31.982L312.984,31.937L315.295,31.937L316.556,31.892L318.865,31.892L320.126,31.847L321.386,31.802L322.437,31.802L323.697,31.758L324.957,31.758L326.008,31.712L328.529,31.712L329.579,31.758L330.84,31.758L332.1,31.802L333.15,31.847L334.41,31.847L335.46,31.668L336.721,31.534L337.98,31.4L339.031,31.31L340.292,31.4L341.552,31.443L342.603,31.443L343.863,31.489L345.122,31.534L346.174,31.534L347.435,31.489L348.694,31.443L349.744,31.355L351.005,31.355L352.266,31.4L353.315,31.4L354.575,31.443L355.626,31.443L356.887,31.489L358.146,31.489L359.196,31.534L362.769,31.534L364.029,31.489L365.289,31.443L366.339,31.443L367.6,31.4L368.859,31.355L369.91,31.175L371.17,31.22L372.22,31.22L373.48,31.265L374.741,31.13L375.791,31.13L377.051,31.175L379.362,31.175L380.624,31.22L381.882,31.265L382.934,31.265L384.193,31.31L385.455,31.355L386.505,31.4L387.766,31.443L389.024,31.489L390.075,31.534L391.335,31.578L392.385,31.578L393.646,31.534L394.906,31.578L395.958,31.622L397.217,31.622L398.477,31.668L404.358,31.668L405.62,31.622L407.931,31.622L409.192,31.578L411.5,31.578L412.554,31.534L413.811,31.489L415.072,31.489L416.123,31.443L417.384,31.443L418.642,31.4L420.953,31.4L422.215,31.355L424.526,31.355L425.784,31.31L429.145,31.31L430.406,31.265L431.668,31.265L432.718,31.22L433.976,31.175L435.237,31.13L447.002,31.13L448.26,31.175L449.313,31.175L450.571,31.086L451.832,30.995L452.883,30.951L454.145,30.907L455.401,30.861L456.455,30.818L460.024,30.818L461.286,30.772L463.594,30.772L464.855,30.728L465.904,30.728L467.166,30.683L468.428,30.683L469.479,30.638L470.735,30.638L471.997,30.593L473.047,30.593L474.309,30.548L476.62,30.548L477.878,30.503L479.14,30.503L480.189,30.458L481.45,30.458L482.712,30.413L485.02,30.413L486.073,30.369L487.331,30.369L488.594,30.325L490.904,30.325L492.161,30.279L493.215,30.279L494.474,30.235L496.784,30.235L498.046,30.189L500.354,30.189L501.615,30.145L502.877,30.145L503.926,30.101L506.238,30.101L507.495,30.056L509.808,30.056L511.068,30.011L512.33,30.011L513.38,29.966L514.638,29.921L515.899,29.876L516.949,29.831L518.211,29.786L519.472,29.696L520.521,29.652L521.78,29.607L522.833,29.563L524.091,29.519L525.354,29.474L526.402,29.429L527.664,29.384L528.923,29.384L529.975,29.338L531.233,29.294L532.495,29.249L533.544,29.204L534.806,29.16L536.064,29.114L537.113,29.07L538.375,29.025L539.637,28.981L540.687,28.936L541.947,28.846L542.998,28.756L544.257,28.712L545.518,28.622L546.567,28.577L547.829,28.487L549.09,28.398L550.14,28.354L551.398,28.264L552.659,28.218L553.709,28.13L554.971,28.085L556.232,27.995L557.281,27.95L558.54,27.905L559.594,27.816L560.851,27.772L562.113,27.728L563.163,27.682L564.424,27.591L565.683,27.547L566.735,27.503L567.993,27.413L569.255,27.368L570.305,27.323L571.565,27.234L572.824,27.189L573.874,27.144L575.135,27.099L576.396,27.055L577.447,26.965L578.709,26.921L579.758,26.876L581.017,26.831L582.278,26.786L583.327,26.696L584.589,26.651L585.851,26.607L586.899,26.562L588.158,26.517L589.42,26.427L590.469,26.382L591.73,26.338L592.992,26.292L594.041,26.248L595.3,26.158L596.562,26.114L597.611,26.069L598.873,25.98L599.923,25.935L601.185,25.89L602.442,25.845L603.495,25.756L604.753,25.666L606.015,25.62L607.064,25.531L608.326,25.443L609.584,25.353L610.634,25.263L611.896,25.173L613.156,25.083L614.207,24.993L615.469,24.905L616.518,24.816L617.776,24.726L619.038,24.636L620.087,24.501L621.349,24.411L622.61,24.323L623.659,24.233L624.918,24.143L626.18,24.054L627.229,23.964L628.49,23.919L629.752,23.829L630.803,23.739L632.06,23.696L633.321,23.607L634.372,23.561L635.633,23.472L636.683,23.427L637.944,23.336L639.202,23.247L640.255,23.158L641.514,23.068L642.774,22.978L643.824,22.89L645.086,22.8L646.344,22.71L647.394,22.575L648.655,22.485L649.917,22.396L650.967,22.308L652.229,22.218L653.486,22.127L654.536,22.038L655.798,21.948L656.848,21.859L658.108,21.77L659.37,21.635L660.42,21.545L661.678,21.456L662.939,21.366L663.989,21.276L665.25,21.187L666.512,21.097L667.562,21.007L668.819,20.919L670.081,20.828L671.132,20.739L672.394,20.65L673.442,20.56L674.704,20.47L675.963,20.425L677.015,20.336L678.273,20.246L679.535,20.156L680.584,20.068L681.846,19.978L683.104,19.888L684.153,19.798L685.415,19.708L686.677,19.619L687.727,19.529L688.988,19.396L690.246,19.306L691.296,19.127L692.558,18.991L693.607,18.814L694.869,18.679L696.13,18.544L697.18,18.454L698.437,18.409L699.699,18.365L700.749,18.32L702.011,18.275L703.271,18.187L704.322,18.141L705.58,18.052L706.841,18.007L707.892,17.917L709.153,17.827L710.202,17.738L711.464,17.649L712.723,17.515L713.775,17.38L715.033,17.11L716.295,16.843L717.344,16.528L718.605,16.439L719.864,16.394L720.913,16.171L722.175,15.946L723.437,15.723L724.487,15.499L725.748,15.275L727.006,15.185L728.057,15.095L729.317,15.051L730.367,14.961L731.629,14.737L732.891,14.872L733.939,14.826L735.198,14.737L736.459,14.737L737.509,14.648L738.771,14.603L740.032,14.558L741.082,14.513L742.34,14.424L743.602,14.29L744.651,14.2L745.913,14.066L747.172,13.976L748.224,13.886L749.482,13.841L750.535,13.796L751.793,13.796L753.055,13.752L756.624,13.752L757.674,13.706L770.699,13.706L771.958,13.661L773.22,13.661L774.269,13.527L775.53,13.394L776.792,13.259L777.842,13.125L779.1,12.989L780.361,12.856L781.411,12.722L782.673,12.542L783.932,12.452L784.984,12.362L786.242,12.275L787.295,12.139L788.554,12.005L789.814,11.87L790.864,11.693L792.126,11.378L793.384,11.019L794.434,10.616L795.695,10.169L796.956,9.721L798.007,9.004L799.269,8.601L800.525,8.019L801.576,7.347L802.838,6.765L804.1,6.54L805.148,5.913L806.41,5.421L807.46,5.062L808.718,4.703L809.979,4.39L811.028,4.077L812.29,3.808L813.552,3.629L814.603,3.494L815.859,3.316L817.121,3.181L818.172,3.092L819.433,2.956L820.691,2.868L821.744,2.734L823.002,2.644L824.055,2.509L825.313,2.464L826.575,2.42L827.624,2.374L828.886,2.33L830.144,2.286L831.193,2.286L832.455,2.241L833.718,2.195L834.767,2.195L836.028,2.151L837.287,2.151L838.336,2.107L840.859,2.107L841.908,2.062L843.17,2.062L844.22,2.017L845.478,2.017L846.739,1.972L849.05,1.972L850.312,1.927L851.362,1.882L852.619,1.837L853.881,1.792L854.932,1.747L856.193,1.657L857.451,1.613L859.763,1.613L860.814,1.703L862.073,1.657L863.335,1.657L864.384,1.613L865.646,1.524L866.904,1.435L867.953,1.345L869.215,1.255L870.478,1.21L871.526,1.121L872.788,1.031L874.047,0.986L875.096,0.941L876.357,0.897L877.619,0.853L878.669,0.808L879.93,0.763L880.979,0.718L883.499,0.718L884.549,0.673L885.811,0.673L887.073,0.628L888.122,0.628L889.381,0.583L890.642,0.583L891.691,0.538L892.953,0.538L894.211,0.494L895.264,0.448L896.522,0.404L897.784,0.404L898.833,0.359L900.095,0.315L901.145,0.271L902.405,0.271L903.664,0.225L904.713,0.181L905.975,0.181L907.237,0.135L908.287,0.09L909.548,0.046L910.807,0.046L911.856,0.001L913.117,-0.044L914.379,-0.089L915.429,-0.089L916.69,-0.134L917.739,-0.179L918.998,-0.224L920.26,-0.224L921.309,-0.267L922.571,-0.312L923.833,-0.358L924.882,-0.358L926.141,-0.402" style="fill:none;fill-rule:nonzero;stroke:rgb(88,89,91);stroke-width:0.65px;"/>
        </g>
        <g transform="matrix(1,0,0,1,61.8081,161.406)">
            <path d="M0,28.486L1.05,28.71L2.311,27.277L3.57,26.695L4.62,26.875L5.881,26.83L7.141,26.919L8.191,27.367L9.452,27.904L10.712,27.546L11.762,27.232L13.022,26.65L14.073,26.65L15.333,26.785L16.594,27.277L17.644,27.904L18.904,29.203L20.165,31.443L21.215,33.413L22.476,33.189L23.735,31.935L24.786,32.205L26.047,33.504L27.307,33.145L28.356,33.504L29.617,33.861L30.877,33.771L31.928,34.443L33.188,32.697L34.238,31.084L35.499,30.279L36.76,31.04L37.81,31.845L39.07,30.009L40.33,28.531L41.38,27.859L42.641,27.725L43.901,27.457L44.951,27.187L46.212,27.097L47.472,27.007L48.522,27.859L49.783,28.174L51.043,26.963L52.093,26.112L53.354,25.261L54.404,26.293L55.665,27.501L56.926,27.457L57.975,28.217L59.235,28.756L60.495,29.024L61.546,28.442L62.807,27.859L64.066,28.217L65.116,28.396L66.377,28.576L67.638,29.203L68.688,29.427L70.999,29.427L72.26,29.651L73.521,30.143L74.569,30.323L75.83,30.279L77.09,30.233L78.141,29.56L79.401,29.83L80.661,29.965L81.711,29.114L82.972,28.666L84.231,29.068L85.282,29.158L86.543,28.261L87.803,27.994L88.854,29.382L90.113,29.427L91.164,30.547L92.425,30.95L93.686,30.547L94.734,30.099L95.995,30.279L97.256,30.591L98.306,29.92L99.566,29.83L100.826,30.279L101.877,30.233L103.138,29.965L104.397,30.279L105.447,30.323L106.708,29.293L107.968,28.352L109.02,29.158L110.28,30.189L111.329,30.367L112.59,29.875L113.85,29.695L114.9,29.741L116.161,29.427L117.421,29.382L118.471,29.338L119.731,29.203L120.992,29.472L122.042,29.203L123.303,29.293L124.563,29.56L125.614,29.741L126.875,29.338L127.924,29.875L129.185,30.009L130.445,30.457L131.495,30.861L132.756,31.084L134.016,29.785L135.065,29.024L136.326,29.56L137.586,30.906L138.637,31.04L139.897,30.771L141.157,30.412L142.207,30.279L143.468,30.099L144.729,30.009L145.779,29.651L147.04,29.024L148.09,28.396L149.351,28.486L150.61,28.844L151.66,28.666L152.921,29.293L154.181,30.009L155.231,29.338L156.492,28.666L157.752,28.307L158.802,28.307L160.062,28.039L161.322,27.769L162.374,27.635L163.635,27.769L164.684,28.307L165.944,28.89L167.205,28.934L168.255,28.352L169.516,28.261L170.775,28.89L171.825,28.486L173.086,28.084L174.347,28.396L175.396,28.934L176.657,28.934L177.917,28.486L178.969,27.814L180.229,28.352L181.488,28.934L182.539,29.068L183.8,29.024L184.85,29.114L186.11,29.382L187.37,29.338L188.42,28.8L189.681,28.307L190.94,27.949L191.991,27.322L193.252,27.769L194.512,28.128L195.562,28.756L196.822,28.844L198.083,28.621L199.134,29.651L200.395,30.099L201.653,30.009L202.705,29.965L203.966,30.323L205.015,30.009L206.275,29.695L207.535,29.606L208.586,29.785L209.847,29.382L211.106,29.472L212.156,29.785L213.417,29.875L214.677,29.741L215.729,29.068L216.989,28.756L218.248,29.068L219.299,29.338L220.56,29.516L221.609,29.651L222.87,29.741L224.13,29.785L225.18,29.875L226.44,29.965L227.701,29.875L228.751,29.606L230.012,29.338L231.271,29.114L232.323,29.382L233.583,29.785L234.843,29.606L235.894,28.978L237.154,28.621L238.414,28.307L239.465,28.666L240.726,29.068L241.774,29.203L243.035,29.248L244.296,28.621L245.346,27.994L246.606,27.725L247.866,27.904L248.916,27.949L250.177,27.681L251.437,27.546L252.488,28.128L253.749,28.352L255.008,27.814L256.06,27.769L257.32,27.994L258.58,27.904L259.63,27.769L260.89,27.411L261.94,26.785L263.201,26.695L264.461,26.963L265.511,27.097L266.771,26.56L268.031,26.875L269.083,28.128L270.344,28.352L271.194,28.989L272.757,29.785L274.018,29.695L275.067,29.338L276.328,28.978L277.378,29.203L278.639,29.427L279.898,29.651L280.948,29.741L282.209,30.143L283.469,30.502L284.52,30.906L285.78,30.994L287.04,30.726L288.091,30.457L289.352,30.233L290.61,30.054L291.662,30.233L292.923,30.457L294.183,30.412L295.232,30.233L296.493,30.054L297.543,29.875L298.804,30.054L300.063,30.233L301.113,30.367L302.374,30.279L303.635,30.189L304.686,30.099L305.946,30.009L307.205,30.009L308.257,30.099L309.518,30.279L310.777,30.457L311.827,30.681L313.088,30.771L317.708,30.771L318.969,30.681L320.229,30.367L321.279,30.099L322.54,29.875L323.8,29.606L324.851,29.695L326.111,30.009L327.372,30.189L328.422,30.279L329.683,30.412L330.942,30.547L331.993,30.636L333.253,30.726L334.303,30.815L335.563,30.906L336.823,31.04L337.874,31.174L339.135,31.263L340.395,31.308L341.445,31.353L342.706,31.353L343.965,31.398L345.017,31.443L346.277,31.443L347.537,31.488L348.587,31.532L349.848,31.532L351.108,31.576L352.158,31.622L353.418,31.622L354.469,31.666L355.729,31.712L356.989,31.712L358.039,31.757L360.56,31.757L361.611,31.8L366.442,31.8L367.702,31.845L372.323,31.845L373.584,31.8L374.634,31.757L375.894,31.712L377.155,31.622L378.205,31.576L379.467,31.576L380.725,31.532L381.776,31.532L383.036,31.488L385.348,31.488L386.608,31.443L388.918,31.443L390.178,31.488L391.228,31.488L392.489,31.443L393.749,31.532L394.801,31.622L398.37,31.622L399.632,31.666L404.463,31.666L405.512,31.712L406.773,31.712L408.035,31.757L409.084,31.8L410.343,31.845L411.396,31.89L412.653,31.845L413.915,31.89L414.966,31.89L416.227,31.935L417.484,31.935L418.538,31.98L419.796,31.98L421.058,32.025L422.107,32.025L423.369,32.07L424.627,32.07L425.677,32.114L426.938,32.16L427.987,32.205L429.249,32.295L430.511,32.339L431.561,32.427L432.818,32.472L434.08,32.517L435.13,32.562L436.392,32.562L437.653,32.607L438.702,32.652L439.961,32.652L441.223,32.697L442.271,32.742L443.533,32.742L444.795,32.787L445.845,32.831L447.103,32.921L448.156,32.965L449.414,33.009L450.675,33.055L451.726,33.099L452.987,33.145L460.129,33.145L461.387,33.189L462.437,33.099L463.698,32.787L464.747,33.279L466.009,34.041L467.271,34.892L468.321,36.369L469.578,37.31L470.84,34.98L471.89,35.743L473.151,33.234L474.413,32.787L475.463,33.996L476.721,32.16L477.982,32.295L479.032,32.697L480.293,33.683L481.555,34.173L482.604,32.427L483.862,32.877L484.916,32.652L486.174,32.877L487.437,34.668L488.485,35.295L489.747,36.235L491.004,37.131L492.058,37.534L493.316,34.443L494.578,33.459L495.627,34.263L496.889,35.025L498.147,33.951L499.196,34.892L500.458,33.726L501.72,33.459L502.769,33.637L504.03,33.951L505.081,33.009L506.338,33.323L507.601,33.593L508.65,35.34L509.911,34.398L511.173,33.816L512.223,35.205L513.48,33.771L514.742,34.443L515.792,34.713L517.054,33.726L518.314,33.009L519.364,34.31L520.623,34.488L521.676,33.861L522.934,33.683L524.196,33.548L525.245,34.086L526.507,33.951L527.766,33.951L528.817,33.861L530.076,33.726L531.338,33.593L532.387,33.726L533.648,33.816L534.907,33.951L535.956,34.041L537.218,34.173L538.479,34.398L539.529,34.802L540.79,34.578L541.841,34.086L543.1,34.041L544.36,33.234L545.41,33.504L546.672,33.459L547.933,33.413L548.982,33.145L550.241,33.279L551.502,32.607L552.552,32.295L553.813,32.472L555.075,32.382L556.124,32.562L557.383,33.279L558.437,33.504L559.693,33.369L560.956,33.323L562.006,33.234L563.267,33.726L564.525,33.771L565.578,32.965L566.836,33.279L568.098,33.234L569.147,33.726L570.408,32.517L571.667,33.504L572.717,33.369L573.978,32.697L575.239,32.742L576.29,32.339L577.552,31.935L578.601,31.98L579.859,32.07L581.121,32.742L582.17,33.548L583.432,33.726L584.693,34.354L585.742,33.816L587.001,33.951L588.263,34.173L589.312,34.13L590.573,34.623L591.835,34.533L592.884,34.31L594.143,35.07L595.404,35.205L596.454,35.653L597.716,35.34L598.766,35.518L600.027,35.877L601.285,33.548L602.338,34.13L603.596,34.086L604.857,32.249L605.907,32.07L607.169,32.114L608.427,30.815L609.477,31.04L610.738,30.412L611.999,30.502L613.05,30.636L614.312,30.367L615.36,30.189L616.619,30.457L617.881,30.367L618.93,30.457L620.191,30.502L621.453,30.547L622.502,30.547L623.761,30.502L625.022,30.412L626.071,30.189L627.333,29.965L628.595,29.785L630.902,29.785L632.164,29.695L633.215,29.606L634.476,29.472L635.525,29.203L636.787,29.024L638.045,28.8L639.098,28.396L640.356,28.307L641.617,28.128L642.667,27.994L643.929,27.814L645.187,27.725L646.236,27.681L647.498,27.591L648.76,27.277L649.81,26.83L651.071,26.248L652.329,25.62L653.379,25.396L654.641,25.128L655.69,24.903L656.951,24.679L658.213,24.455L659.263,24.231L660.521,24.007L661.782,23.828L662.832,23.604L664.093,23.381L665.354,23.156L666.405,22.932L667.662,22.754L668.924,22.619L669.975,22.574L671.236,22.574L672.285,22.664L673.547,22.664L674.806,22.484L675.857,22.305L677.116,22.305L678.378,22.349L679.427,22.261L680.688,21.992L681.947,21.679L682.996,21.41L684.258,21.095L685.52,20.917L686.569,20.828L687.831,20.738L689.089,20.692L690.139,20.603L691.4,20.468L692.45,20.379L693.712,20.424L694.973,20.558L696.022,20.692L697.28,20.873L698.542,20.828L699.592,20.558L700.854,20.29L702.114,20.29L703.165,20.335L704.423,20.424L705.684,20.514L706.734,20.603L707.996,20.692L709.045,20.828L710.307,20.917L711.565,21.05L712.618,21.14L713.876,21.275L715.138,21.41L716.187,21.543L717.448,21.633L718.707,21.767L719.756,21.902L721.018,22.037L722.279,22.215L723.33,22.349L724.591,22.529L725.849,22.037L726.899,22.126L728.16,22.215L729.21,22.664L730.472,22.261L731.733,22.664L732.782,22.798L734.041,22.754L735.302,22.798L736.352,22.843L737.613,22.888L738.875,22.976L739.925,23.112L741.183,23.201L742.444,23.336L743.494,23.425L744.756,23.694L746.015,23.648L747.066,23.783L748.325,23.918L749.378,24.096L750.636,24.277L751.897,24.455L752.947,24.59L754.208,24.724L755.467,24.321L756.517,24.41L757.777,24.321L759.039,24.903L760.09,24.813L761.352,24.903L762.608,25.082L763.659,25.172L764.921,25.216L765.97,25.396L767.231,25.71L768.493,25.798L769.542,25.888L770.801,26.068L772.062,26.381L773.111,26.695L774.373,26.963L775.635,27.232L776.685,27.457L777.942,27.681L779.204,27.859L780.254,27.949L781.516,27.994L782.774,28.261L783.827,28.486L785.085,28.666L786.138,28.8L787.396,28.934L788.657,28.978L789.707,29.024L790.969,29.068L792.227,29.158L793.276,29.158L794.538,28.89L795.799,28.8L796.85,28.756L798.111,28.261L799.368,27.949L800.419,27.725L801.681,27.097L802.942,26.381L803.991,25.798L805.253,25.082L806.303,24.5L807.561,24.096L808.822,23.336L809.871,22.843L811.133,22.261L812.395,21.633L813.445,21.275L814.702,21.095L815.964,20.917L817.015,20.424L818.275,19.618L819.534,18.857L820.587,18.722L821.845,18.632L822.897,18.363L824.156,18.094L825.418,17.781L826.467,17.468L827.729,17.11L828.986,16.885L830.036,16.303L831.298,15.9L832.561,15.453L833.609,15.005L834.871,14.466L836.13,14.377L837.179,14.646L838.44,14.466L839.702,14.198L840.751,14.108L842.013,13.795L843.062,13.168L844.32,12.855L845.582,12.765L846.632,12.81L847.893,12.541L849.154,12.182L850.205,12.004L851.462,11.914L852.724,11.51L853.774,11.422L855.036,11.377L856.294,10.973L857.347,10.345L858.605,9.988L859.657,9.719L860.916,9.181L862.178,8.869L863.227,8.554L864.488,7.838L865.747,7.212L866.796,6.718L868.058,6.091L869.32,5.554L870.369,5.24L871.631,4.838L872.89,4.165L873.938,3.359L875.2,2.552L876.462,1.702L877.512,0.985L878.772,0.447L879.822,0.179L881.081,-0.09L882.342,-0.493L883.392,-0.941L884.653,-1.164L885.916,-1.479L886.965,-1.836L888.224,-2.196L889.484,-2.509L890.534,-2.868L891.796,-3.18L893.054,-3.494L894.106,-3.807L895.365,-4.077L896.627,-4.389L897.676,-4.703L898.937,-4.971L899.987,-5.285L901.248,-5.554L902.507,-5.823L903.556,-6.092L904.817,-6.405L906.08,-6.674L907.13,-6.943L908.391,-7.211L909.649,-7.481L910.699,-7.749L911.96,-7.973L913.222,-8.242L914.271,-8.511L915.533,-8.735L916.582,-8.825L917.841,-8.869L919.103,-8.869L920.151,-8.913L921.414,-8.958L922.676,-9.004L923.725,-9.004L924.983,-9.048" style="fill:none;fill-rule:nonzero;stroke:rgb(46,49,145);stroke-width:1.31px;"/>
        </g>
        <g transform="matrix(1,0,0,1,60.6509,152.76)">
            <path d="M0,34.714L1.05,34.669L2.311,34.758L3.57,34.356L4.62,33.907L5.881,33.862L7.141,34.087L8.191,34.31L9.452,34.49L10.712,34.758L11.762,34.804L13.022,34.714L14.073,34.669L15.333,34.848L16.594,34.983L17.644,35.116L18.904,35.071L21.215,35.071L22.476,35.026L23.735,35.026L24.786,34.983L26.047,34.983L27.307,34.939L28.356,34.848L29.617,34.848L30.877,34.804L34.238,34.804L35.499,34.758L40.33,34.758L41.38,34.714L42.641,34.534L43.901,34.132L44.951,33.862L46.212,34.132L47.472,34.356L48.522,34.624L49.783,34.714L51.043,34.266L52.093,33.505L53.354,33.056L54.404,34.042L55.665,34.444L56.926,34.624L57.975,34.804L59.235,34.758L60.495,34.714L61.546,34.804L62.807,34.848L67.638,34.848L68.688,34.804L73.521,34.804L74.569,34.758L106.708,34.758L107.968,34.714L130.445,34.714L131.495,34.669L151.66,34.669L152.921,34.624L161.322,34.624L162.374,34.579L168.255,34.579L169.516,34.534L182.539,34.534L183.8,34.49L189.681,34.49L190.94,34.444L196.822,34.444L198.083,34.4L203.966,34.4L205.015,34.356L209.847,34.356L211.106,34.31L215.729,34.31L216.989,34.356L219.299,34.356L220.56,34.4L221.609,34.4L222.87,34.444L225.18,34.444L226.44,34.49L227.701,34.444L228.751,34.444L230.012,34.4L231.271,34.356L232.323,34.31L233.583,34.31L234.843,34.266L235.894,34.176L237.154,34.22L238.414,34.176L239.465,34.087L240.726,33.997L241.774,33.907L243.035,33.818L244.296,33.862L245.346,33.907L246.606,33.818L247.866,33.64L248.916,33.549L250.177,33.593L251.437,33.549L252.488,33.459L253.749,33.505L255.008,33.505L256.06,33.415L258.58,33.325L259.63,33.28L260.89,33.28L261.94,33.191L263.201,33.191L264.461,33.28L265.511,33.191L266.771,33.011L269.083,33.011L270.344,32.967L271.603,32.923L272.653,32.923L273.914,32.877L275.175,32.833L276.225,32.787L277.485,32.787L278.535,32.742L279.796,32.698L281.056,32.698L282.105,32.653L283.366,32.653L284.626,32.609L285.677,32.564L286.937,32.564L288.197,32.519L289.248,32.474L290.509,32.474L291.768,32.429L292.819,32.385L294.08,32.34L295.34,32.294L296.39,32.25L297.65,32.206L298.7,32.206L299.961,32.16L301.221,32.116L302.271,32.116L303.531,32.071L304.792,32.026L305.843,32.026L307.104,31.982L308.362,31.937L309.414,31.937L310.675,31.892L311.935,31.847L312.984,31.802L314.245,31.758L315.295,31.758L316.556,31.712L317.815,31.668L318.865,31.622L320.126,31.578L321.386,31.534L322.437,31.443L323.697,31.31L324.957,31.22L326.008,31.13L327.269,31.04L328.529,30.995L329.579,30.951L330.84,30.861L332.1,30.818L333.15,30.772L334.41,30.728L335.46,30.683L336.721,30.683L337.98,30.638L339.031,30.548L340.292,30.413L341.552,30.369L342.603,30.325L343.863,30.279L345.122,30.279L346.174,30.235L347.435,30.189L348.694,30.145L349.744,30.101L351.005,30.101L352.266,30.056L353.315,30.011L354.575,30.011L355.626,29.966L356.887,29.921L358.146,29.876L359.196,29.876L360.457,29.831L365.289,29.831L366.339,29.786L374.741,29.786L375.791,29.876L377.051,29.921L378.312,30.011L379.362,30.056L380.624,30.101L382.934,30.101L384.193,30.145L385.455,30.145L386.505,30.189L387.766,30.189L389.024,30.235L390.075,30.235L391.335,30.189L392.385,30.145L393.646,30.235L394.906,30.145L395.958,30.011L398.477,30.011L399.527,29.966L405.62,29.966L406.669,29.921L407.931,29.876L409.192,29.831L410.241,29.786L411.5,29.786L412.554,29.741L415.072,29.741L416.123,29.696L417.384,29.696L418.642,29.652L419.695,29.652L420.953,29.607L422.215,29.563L423.265,29.563L424.526,29.519L425.784,29.519L426.834,29.474L428.096,29.429L429.145,29.338L430.406,29.294L431.668,29.249L432.718,29.16L433.976,29.114L435.237,29.07L436.287,29.025L437.549,28.981L438.811,28.981L439.859,28.936L441.118,28.892L442.38,28.892L443.429,28.846L444.69,28.802L445.952,28.756L447.002,28.712L448.26,28.667L449.313,28.622L450.571,28.577L451.832,28.532L452.883,28.487L454.145,28.443L460.024,28.443L461.286,28.398L470.735,28.398L471.997,28.354L480.189,28.354L481.45,28.308L485.02,28.308L486.073,28.264L489.643,28.264L490.904,28.218L494.474,28.218L495.735,28.175L498.046,28.175L499.305,28.13L502.877,28.13L503.926,28.085L507.495,28.085L508.758,28.04L509.808,28.04L511.068,27.995L512.33,27.995L513.38,27.95L514.638,27.95L515.899,27.905L516.949,27.905L518.211,27.86L519.472,27.86L520.521,27.816L521.78,27.772L522.833,27.728L524.091,27.682L525.354,27.637L526.402,27.591L527.664,27.547L528.923,27.503L529.975,27.457L531.233,27.413L532.495,27.368L533.544,27.278L534.806,27.234L536.064,27.189L537.113,27.144L538.375,27.099L539.637,27.055L540.687,27.009L541.947,27.009L542.998,26.965L544.257,26.921L545.518,26.876L546.567,26.831L547.829,26.786L549.09,26.74L550.14,26.74L551.398,26.696L552.659,26.651L553.709,26.607L554.971,26.607L556.232,26.562L557.281,26.517L558.54,26.472L559.594,26.472L560.851,26.427L562.113,26.382L563.163,26.338L564.424,26.292L565.683,26.248L566.735,26.204L567.993,26.158L569.255,26.114L570.305,26.069L571.565,26.025L572.824,25.98L573.874,25.935L576.396,25.845L577.447,25.8L578.709,25.756L579.758,25.666L581.017,25.62L582.278,25.531L583.327,25.443L585.851,25.263L586.899,25.173L588.158,25.083L589.42,24.993L590.469,24.86L591.73,24.771L592.992,24.681L594.041,24.591L595.3,24.501L596.562,24.411L597.611,24.323L598.873,24.233L599.923,24.143L601.185,24.054L602.442,23.919L603.495,23.829L604.753,23.739L606.015,23.607L607.064,23.517L608.326,23.427L609.584,23.292L610.634,23.202L611.896,23.112L613.156,22.978L614.207,22.89L615.469,22.8L616.518,22.71L617.776,22.575L619.038,22.485L620.087,22.396L621.349,22.308L622.61,22.262L623.659,22.173L624.918,22.083L626.18,21.948L627.229,21.859L628.49,21.77L629.752,21.635L630.803,21.545L632.06,21.411L633.321,21.276L634.372,21.187L635.633,21.053L636.683,20.963L637.944,20.828L639.202,20.739L640.255,20.605L641.514,20.515L642.774,20.425L643.824,20.29L645.086,20.202L646.344,20.068L647.394,19.978L648.655,19.843L649.917,19.754L650.967,19.619L652.229,19.485L653.486,19.396L654.536,19.261L655.798,19.171L656.848,19.037L658.108,18.947L659.37,18.814L660.42,18.723L661.678,18.589L662.939,18.499L663.989,18.365L665.25,18.275L666.512,18.141L667.562,18.052L668.819,17.917L670.081,17.827L671.132,17.694L672.394,17.605L673.442,17.47L674.704,17.38L675.963,17.245L677.015,17.156L678.273,17.021L679.535,16.932L680.584,16.798L681.846,16.708L683.104,16.573L684.153,16.439L685.415,16.35L686.677,16.215L687.727,16.125L688.988,15.991L690.246,15.858L691.296,15.723L692.558,15.587L693.607,15.454L694.869,15.319L696.13,15.185L697.18,15.051L698.437,14.916L699.699,14.782L700.749,14.648L702.011,14.513L703.271,14.378L704.322,14.244L705.58,14.11L706.841,13.976L707.892,13.841L709.153,13.706L710.202,13.571L711.464,13.484L712.723,13.349L713.775,13.214L715.033,13.079L716.295,12.945L717.344,12.811L718.605,12.677L719.864,12.542L720.913,12.407L722.175,12.275L723.437,12.095L724.487,11.96L725.748,11.825L727.006,11.647L728.057,11.557L729.317,11.423L730.367,11.333L731.629,11.512L732.891,11.109L733.939,10.974L735.198,10.886L736.459,10.751L737.509,10.661L738.771,10.571L740.032,10.482L741.082,10.392L742.34,10.348L743.602,10.303L744.651,10.259L745.913,10.259L747.172,10.213L748.224,10.213L749.482,10.169L751.793,10.169L753.055,10.123L754.104,10.123L755.365,10.079L757.674,10.079L760.196,9.989L761.247,9.945L762.509,9.9L763.766,9.81L764.816,9.765L766.078,9.675L767.127,9.585L768.389,9.452L769.65,9.318L770.699,9.183L771.958,9.093L773.22,8.958L774.269,8.87L775.53,8.735L776.792,8.601L777.842,8.466L779.1,8.376L780.361,8.242L781.411,8.108L782.673,8.019L783.932,7.794L784.984,7.615L786.242,7.482L787.295,7.347L788.554,7.167L789.814,7.033L790.864,6.855L792.126,6.72L793.384,6.54L794.434,6.405L795.695,6.227L796.956,6.048L798.007,5.868L799.269,5.735L800.525,5.554L801.576,5.376L802.838,5.196L804.1,5.017L805.148,4.749L806.41,4.526L807.46,4.301L808.718,4.032L809.979,3.763L811.028,3.585L812.29,3.405L813.552,3.226L814.603,3.137L815.859,3.002L817.121,2.912L818.172,2.823L819.433,2.734L820.691,2.644L821.744,2.599L823.002,2.554L824.055,2.464L825.313,2.464L826.575,2.42L827.624,2.374L828.886,2.33L830.144,2.286L831.193,2.286L832.455,2.241L833.718,2.195L834.767,2.195L836.028,2.151L837.287,2.151L838.336,2.107L840.859,2.107L841.908,2.062L843.17,2.062L844.22,2.017L845.478,2.017L846.739,1.972L849.05,1.972L850.312,1.927L851.362,1.882L852.619,1.837L853.881,1.792L854.932,1.747L856.193,1.657L857.451,1.613L859.763,1.613L860.814,1.703L862.073,1.657L863.335,1.657L864.384,1.613L865.646,1.524L866.904,1.435L867.953,1.345L869.215,1.255L870.478,1.21L871.526,1.121L872.788,1.031L874.047,0.986L875.096,0.941L876.357,0.897L877.619,0.853L878.669,0.808L879.93,0.763L880.979,0.718L883.499,0.718L884.549,0.673L885.811,0.673L887.073,0.628L888.122,0.628L889.381,0.583L890.642,0.583L891.691,0.538L892.953,0.538L894.211,0.494L895.264,0.448L896.522,0.404L897.784,0.404L898.833,0.359L900.095,0.315L901.145,0.271L902.405,0.271L903.664,0.225L904.713,0.181L905.975,0.181L907.237,0.135L908.287,0.09L909.548,0.046L910.807,0.046L911.856,0.001L913.117,-0.044L914.379,-0.089L915.429,-0.089L916.69,-0.134L917.739,-0.179L918.998,-0.224L920.26,-0.224L921.309,-0.267L922.571,-0.312L923.833,-0.358L924.882,-0.358L926.141,-0.402" style="fill:none;fill-rule:nonzero;stroke:rgb(5,0,0);stroke-width:0.48px;stroke-miterlimit:10;"/>
        </g>
    </g>
</svg>
