<?xml version="1.0" encoding="UTF-8" standalone="no"?>
<!DOCTYPE svg PUBLIC "-//W3C//DTD SVG 1.1//EN" "http://www.w3.org/Graphics/SVG/1.1/DTD/svg11.dtd">
<svg width="100%" height="100%" viewBox="0 0 1048 293" version="1.1" xmlns="http://www.w3.org/2000/svg" xmlns:xlink="http://www.w3.org/1999/xlink" xml:space="preserve" xmlns:serif="http://www.serif.com/" style="fill-rule:evenodd;clip-rule:evenodd;">
    <g transform="matrix(1,0,0,1,60.6509,152.76)">
        <g id="depth-section" serif:id="depth section">
            <path d="M0,34.714L1.05,34.669L2.311,34.758L3.57,34.356L4.62,33.907L5.881,33.862L7.141,34.087L8.191,34.31L9.452,34.49L10.712,34.758L11.762,34.804L13.022,34.714L14.073,34.669L15.333,34.848L16.594,34.983L17.644,35.116L18.904,35.071L21.215,35.071L22.476,35.026L23.735,35.026L24.786,34.983L26.047,34.983L27.307,34.939L28.356,34.848L29.617,34.848L30.877,34.804L34.238,34.804L35.499,34.758L40.33,34.758L41.38,34.714L42.641,34.534L43.901,34.132L44.951,33.862L46.212,34.132L47.472,34.356L48.522,34.624L49.783,34.714L51.043,34.266L52.093,33.505L53.354,33.056L54.404,34.042L55.665,34.444L56.926,34.624L57.975,34.804L59.235,34.758L60.495,34.714L61.546,34.804L62.807,34.848L67.638,34.848L68.688,34.804L73.521,34.804L74.569,34.758L106.708,34.758L107.968,34.714L130.445,34.714L131.495,34.669L151.66,34.669L152.921,34.624L161.322,34.624L162.374,34.579L168.255,34.579L169.516,34.534L182.539,34.534L183.8,34.49L189.681,34.49L190.94,34.444L196.822,34.444L198.083,34.4L203.966,34.4L205.015,34.356L209.847,34.356L211.106,34.31L215.729,34.31L216.989,34.356L219.299,34.356L220.56,34.4L221.609,34.4L222.87,34.444L225.18,34.444L226.44,34.49L227.701,34.444L228.751,34.444L230.012,34.4L231.271,34.356L232.323,34.31L233.583,34.31L234.843,34.266L235.894,34.176L237.154,34.22L238.414,34.176L239.465,34.087L240.726,33.997L241.774,33.907L243.035,33.818L244.296,33.862L245.346,33.907L246.606,33.818L247.866,33.64L248.916,33.549L250.177,33.593L251.437,33.549L252.488,33.459L253.749,33.505L255.008,33.505L256.06,33.415L258.58,33.325L259.63,33.28L260.89,33.28L261.94,33.191L263.201,33.191L264.461,33.28L265.511,33.191L266.771,33.011L269.083,33.011L270.344,32.967L271.603,32.923L272.653,32.923L273.914,32.877L275.175,32.833L276.225,32.787L277.485,32.787L278.535,32.742L279.796,32.698L281.056,32.698L282.105,32.653L283.366,32.653L284.626,32.609L285.677,32.564L286.937,32.564L288.197,32.519L289.248,32.474L290.509,32.474L291.768,32.429L292.819,32.385L294.08,32.34L295.34,32.294L296.39,32.25L297.65,32.206L298.7,32.206L299.961,32.16L301.221,32.16L302.271,32.116L303.531,32.116L304.792,32.071L307.104,32.071L308.362,32.026L309.414,32.026L310.675,31.982L311.935,31.982L312.984,31.937L315.295,31.937L316.556,31.892L318.865,31.892L320.126,31.847L321.386,31.802L322.437,31.802L323.697,31.758L324.957,31.758L326.008,31.712L328.529,31.712L329.579,31.758L330.84,31.758L332.1,31.802L333.15,31.847L334.41,31.847L335.46,31.668L336.721,31.534L337.98,31.4L339.031,31.31L340.292,31.4L341.552,31.443L342.603,31.443L343.863,31.489L345.122,31.534L346.174,31.534L347.435,31.489L348.694,31.443L349.744,31.355L351.005,31.355L352.266,31.4L353.315,31.4L354.575,31.443L355.626,31.443L356.887,31.489L358.146,31.489L359.196,31.534L362.769,31.534L364.029,31.489L365.289,31.443L366.339,31.443L367.6,31.4L368.859,31.355L369.91,31.175L371.17,31.22L372.22,31.22L373.48,31.265L374.741,31.13L375.791,31.13L377.051,31.175L379.362,31.175L380.624,31.22L381.882,31.265L382.934,31.265L384.193,31.31L385.455,31.355L386.505,31.4L387.766,31.443L389.024,31.489L390.075,31.534L391.335,31.578L392.385,31.578L393.646,31.534L394.906,31.578L395.958,31.622L397.217,31.622L398.477,31.668L404.358,31.668L405.62,31.622L407.931,31.622L409.192,31.578L411.5,31.578L412.554,31.534L413.811,31.489L415.072,31.489L416.123,31.443L417.384,31.443L418.642,31.4L420.953,31.4L422.215,31.355L424.526,31.355L425.784,31.31L429.145,31.31L430.406,31.265L431.668,31.265L432.718,31.22L433.976,31.175L435.237,31.13L447.002,31.13L448.26,31.175L449.313,31.175L450.571,31.086L451.832,30.995L452.883,30.951L454.145,30.907L455.401,30.861L456.455,30.818L460.024,30.818L461.286,30.772L463.594,30.772L464.855,30.728L465.904,30.728L467.166,30.683L468.428,30.683L469.479,30.638L470.735,30.638L471.997,30.593L473.047,30.593L474.309,30.548L476.62,30.548L477.878,30.503L479.14,30.503L480.189,30.458L481.45,30.458L482.712,30.413L485.02,30.413L486.073,30.369L487.331,30.369L488.594,30.325L490.904,30.325L492.161,30.279L493.215,30.279L494.474,30.235L496.784,30.235L498.046,30.189L500.354,30.189L501.615,30.145L502.877,30.145L503.926,30.101L506.238,30.101L507.495,30.056L509.808,30.056L511.068,30.011L512.33,30.011L513.38,29.966L514.638,29.921L515.899,29.876L516.949,29.831L518.211,29.786L519.472,29.696L520.521,29.652L521.78,29.607L522.833,29.563L524.091,29.519L525.354,29.474L526.402,29.429L527.664,29.384L528.923,29.384L529.975,29.338L531.233,29.294L532.495,29.249L533.544,29.204L534.806,29.16L536.064,29.114L537.113,29.07L538.375,29.025L539.637,28.981L540.687,28.936L541.947,28.846L542.998,28.756L544.257,28.712L545.518,28.622L546.567,28.577L547.829,28.487L549.09,28.398L550.14,28.354L551.398,28.264L552.659,28.218L553.709,28.13L554.971,28.085L556.232,27.995L557.281,27.95L558.54,27.905L559.594,27.816L560.851,27.772L562.113,27.728L563.163,27.682L564.424,27.591L565.683,27.547L566.735,27.503L567.993,27.413L569.255,27.368L570.305,27.323L571.565,27.234L572.824,27.189L573.874,27.144L575.135,27.099L576.396,27.055L577.447,26.965L578.709,26.921L579.758,26.876L581.017,26.831L582.278,26.786L583.327,26.696L584.589,26.651L585.851,26.607L586.899,26.562L588.158,26.517L589.42,26.427L590.469,26.382L591.73,26.338L592.992,26.292L594.041,26.248L595.3,26.158L596.562,26.114L597.611,26.069L598.873,25.98L599.923,25.935L601.185,25.89L602.442,25.845L603.495,25.756L604.753,25.666L606.015,25.62L607.064,25.531L608.326,25.443L609.584,25.353L610.634,25.263L611.896,25.173L613.156,25.083L614.207,24.993L615.469,24.905L616.518,24.816L617.776,24.726L619.038,24.636L620.087,24.501L621.349,24.411L622.61,24.323L623.659,24.233L624.918,24.143L626.18,24.054L627.229,23.964L628.49,23.919L629.752,23.829L630.803,23.739L632.06,23.696L633.321,23.607L634.372,23.561L635.633,23.472L636.683,23.427L637.944,23.336L639.202,23.247L640.255,23.158L641.514,23.068L642.774,22.978L643.824,22.89L645.086,22.8L646.344,22.71L647.394,22.575L648.655,22.485L649.917,22.396L650.967,22.308L652.229,22.218L653.486,22.127L654.536,22.038L655.798,21.948L656.848,21.859L658.108,21.77L659.37,21.635L660.42,21.545L661.678,21.456L662.939,21.366L663.989,21.276L665.25,21.187L666.512,21.097L667.562,21.007L668.819,20.919L670.081,20.828L671.132,20.739L672.394,20.65L673.442,20.56L674.704,20.47L675.963,20.425L677.015,20.336L678.273,20.246L679.535,20.156L680.584,20.068L681.846,19.978L683.104,19.888L684.153,19.798L685.415,19.708L686.677,19.619L687.727,19.529L688.988,19.396L690.246,19.306L691.296,19.127L692.558,18.991L693.607,18.814L694.869,18.679L696.13,18.544L697.18,18.454L698.437,18.409L699.699,18.365L700.749,18.32L702.011,18.275L703.271,18.187L704.322,18.141L705.58,18.052L706.841,18.007L707.892,17.917L709.153,17.827L710.202,17.738L711.464,17.649L712.723,17.515L713.775,17.38L715.033,17.11L716.295,16.843L717.344,16.528L718.605,16.439L719.864,16.394L720.913,16.171L722.175,15.946L723.437,15.723L724.487,15.499L725.748,15.275L727.006,15.185L728.057,15.095L729.317,15.051L730.367,14.961L731.629,14.737L732.891,14.872L733.939,14.826L735.198,14.737L736.459,14.737L737.509,14.648L738.771,14.603L740.032,14.558L741.082,14.513L742.34,14.424L743.602,14.29L744.651,14.2L745.913,14.066L747.172,13.976L748.224,13.886L749.482,13.841L750.535,13.796L751.793,13.796L753.055,13.752L756.624,13.752L757.674,13.706L770.699,13.706L771.958,13.661L773.22,13.661L774.269,13.527L775.53,13.394L776.792,13.259L777.842,13.125L779.1,12.989L780.361,12.856L781.411,12.722L782.673,12.542L783.932,12.452L784.984,12.362L786.242,12.275L787.295,12.139L788.554,12.005L789.814,11.87L790.864,11.693L792.126,11.378L793.384,11.019L794.434,10.616L795.695,10.169L796.956,9.721L798.007,9.004L799.269,8.601L800.525,8.019L801.576,7.347L802.838,6.765L804.1,6.54L805.148,5.913L806.41,5.421L807.46,5.062L808.718,4.703L809.979,4.39L811.028,4.077L812.29,3.808L813.552,3.629L814.603,3.494L815.859,3.316L817.121,3.181L818.172,3.092L819.433,2.956L820.691,2.868L821.744,2.734L823.002,2.644L824.055,2.509L825.313,2.464L826.575,2.42L827.624,2.374L828.886,2.33L830.144,2.286L831.193,2.286L832.455,2.241L833.718,2.195L834.767,2.195L836.028,2.151L837.287,2.151L838.336,2.107L840.859,2.107L841.908,2.062L843.17,2.062L844.22,2.017L845.478,2.017L846.739,1.972L849.05,1.972L850.312,1.927L851.362,1.882L852.619,1.837L853.881,1.792L854.932,1.747L856.193,1.657L857.451,1.613L859.763,1.613L860.814,1.703L862.073,1.657L863.335,1.657L864.384,1.613L865.646,1.524L866.904,1.435L867.953,1.345L869.215,1.255L870.478,1.21L871.526,1.121L872.788,1.031L874.047,0.986L875.096,0.941L876.357,0.897L877.619,0.853L878.669,0.808L879.93,0.763L880.979,0.718L883.499,0.718L884.549,0.673L885.811,0.673L887.073,0.628L888.122,0.628L889.381,0.583L890.642,0.583L891.691,0.538L892.953,0.538L894.211,0.494L895.264,0.448L896.522,0.404L897.784,0.404L898.833,0.359L900.095,0.315L901.145,0.271L902.405,0.271L903.664,0.225L904.713,0.181L905.975,0.181L907.237,0.135L908.287,0.09L909.548,0.046L910.807,0.046L911.856,0.001L913.117,-0.044L914.379,-0.089L915.429,-0.089L916.69,-0.134L917.739,-0.179L918.998,-0.224L920.26,-0.224L921.309,-0.267L922.571,-0.312L923.833,-0.358L924.882,-0.358L926.141,-0.402" style="fill:none;fill-rule:nonzero;stroke:rgb(88,89,91);stroke-width:0.65px;"/>
        </g>
    </g>
</svg>
