<?xml version="1.0" encoding="UTF-8" standalone="no"?>
<!DOCTYPE svg PUBLIC "-//W3C//DTD SVG 1.1//EN" "http://www.w3.org/Graphics/SVG/1.1/DTD/svg11.dtd">
<svg width="100%" height="100%" viewBox="0 0 1048 293" version="1.1" xmlns="http://www.w3.org/2000/svg" xmlns:xlink="http://www.w3.org/1999/xlink" xml:space="preserve" xmlns:serif="http://www.serif.com/" style="fill-rule:evenodd;clip-rule:evenodd;">
    <g transform="matrix(1,0,0,1,60.6509,152.76)">
        <g id="depth-section" serif:id="depth section">
            <path d="M0,34.714L1.05,34.669L2.311,34.758L3.57,34.356L4.62,33.907L5.881,33.862L7.141,34.087L8.191,34.31L9.452,34.49L10.712,34.758L11.762,34.804L13.022,34.714L14.073,34.669L15.333,34.848L16.594,34.983L17.644,35.116L18.904,35.071L21.215,35.071L22.476,35.026L23.735,35.026L24.786,34.983L26.047,34.983L27.307,34.939L28.356,34.848L29.617,34.848L30.877,34.804L34.238,34.804L35.499,34.758L40.33,34.758L41.38,34.714L42.641,34.534L43.901,34.132L44.951,33.862L46.212,34.132L47.472,34.356L48.522,34.624L49.783,34.714L51.043,34.266L52.093,33.505L53.354,33.056L54.404,34.042L55.665,34.444L56.926,34.624L57.975,34.804L59.235,34.758L60.495,34.714L61.546,34.804L62.807,34.848L67.638,34.848L68.688,34.804L73.521,34.804L74.569,34.758L106.708,34.758L107.968,34.714L130.445,34.714L131.495,34.669L151.66,34.669L152.921,34.624L161.322,34.624L162.374,34.579L168.255,34.579L169.516,34.534L182.539,34.534L183.8,34.49L189.681,34.49L190.94,34.444L196.822,34.444L198.083,34.4L203.966,34.4L205.015,34.356L209.847,34.356L211.106,34.31L215.729,34.31L216.989,34.356L219.299,34.356L220.56,34.4L221.609,34.4L222.87,34.444L225.18,34.444L226.44,34.49L227.701,34.444L228.751,34.444L230.012,34.4L231.271,34.356L232.323,34.31L233.583,34.31L234.843,34.266L235.894,34.176L237.154,34.22L238.414,34.176L239.465,34.087L240.726,33.997L241.774,33.907L243.035,33.818L244.296,33.862L245.346,33.907L246.606,33.818L247.866,33.64L248.916,33.549L250.177,33.593L251.437,33.549L252.488,33.459L253.749,33.505L255.008,33.505L256.06,33.415L258.58,33.325L259.63,33.28L260.89,33.28L261.94,33.191L263.201,33.191L264.461,33.28L265.511,33.191L266.771,33.011L269.083,33.011L270.344,32.967L271.603,32.923L272.653,32.923L273.914,32.877L275.175,32.833L276.225,32.787L277.485,32.787L278.535,32.742L279.796,32.698L281.056,32.698L282.105,32.653L283.366,32.653L284.626,32.609L285.677,32.564L286.937,32.564L288.197,32.519L289.248,32.474L290.509,32.474L291.768,32.429L292.819,32.385L294.08,32.34L295.34,32.294L296.39,32.25L297.65,32.206L298.7,32.206L299.961,32.16L301.221,32.16L302.271,32.116L303.531,32.116L304.792,32.071L307.104,32.071L308.362,32.026L309.414,32.026L310.675,31.982L311.935,31.982L312.984,31.937L315.295,31.937L316.556,31.892L318.865,31.892L320.126,31.847L321.386,31.802L322.437,31.802L323.697,31.758L324.957,31.758L326.008,31.712L328.529,31.712L329.579,31.758L330.84,31.758L332.1,31.802L333.15,31.847L334.41,31.847L335.46,31.668L336.721,31.534L337.98,31.4L339.031,31.31L340.292,31.4L341.552,31.443L342.603,31.443L343.863,31.489L345.122,31.534L346.174,31.534L347.435,31.489L348.694,31.443L349.744,31.355L351.005,31.355L352.266,31.4L353.315,31.4L354.575,31.443L355.626,31.443L356.887,31.489L358.146,31.489L359.196,31.534L362.769,31.534L364.029,31.489L365.289,31.443L366.339,31.443L367.6,31.4L368.859,31.355L369.91,31.175L371.17,31.22L372.22,31.22L373.48,31.265L374.741,31.13L375.791,31.13L377.051,31.175L379.362,31.175L380.624,31.22L381.882,31.265L382.934,31.265L384.193,31.31L385.455,31.355L386.505,31.4L387.766,31.443L389.024,31.489L390.075,31.534L391.335,31.578L392.385,31.578L393.646,31.534L394.906,31.578L395.958,31.622L397.217,31.622L398.477,31.668L404.358,31.668L405.62,31.622L407.931,31.622L409.192,31.578L411.5,31.578L412.554,31.534L413.811,31.489L415.072,31.489L416.123,31.443L417.384,31.443L418.642,31.4L420.953,31.4L422.215,31.355L424.526,31.355L425.784,31.31L429.145,31.31L430.406,31.265L431.668,31.265L432.718,31.22L433.976,31.175L435.237,31.13L447.002,31.13L448.26,31.175L449.313,31.175L450.571,31.086L451.832,30.995L452.883,30.951L454.145,30.907L455.401,30.861L456.455,30.818L460.024,30.818L461.286,30.772L463.594,30.772L464.855,30.728L465.904,30.728L467.166,30.683L468.428,30.683L469.479,30.638L471.997,30.638L473.047,30.593L475.57,30.593L476.62,30.548L479.14,30.548L480.189,30.503L485.02,30.503L486.073,30.458L493.215,30.458L494.474,30.413L499.305,30.413L500.354,30.369L505.187,30.369L506.238,30.325L509.808,30.325L511.068,30.279L513.38,30.279L514.638,30.235L515.899,30.235L516.949,30.189L518.211,30.189L519.472,30.145L520.521,30.145L521.78,30.101L522.833,30.056L524.091,30.056L525.354,30.011L526.402,29.966L527.664,29.921L528.923,29.876L529.975,29.831L531.233,29.831L532.495,29.786L533.544,29.741L534.806,29.696L536.064,29.652L537.113,29.563L538.375,29.519L539.637,29.474L540.687,29.429L541.947,29.384L542.998,29.294L544.257,29.249L545.518,29.204L546.567,29.114L547.829,29.07L549.09,29.025L550.14,28.981L551.398,28.892L552.659,28.846L553.709,28.802L554.971,28.712L556.232,28.667L557.281,28.577L558.54,28.532L559.594,28.487L560.851,28.398L562.113,28.354L563.163,28.308L564.424,28.264L565.683,28.175L566.735,28.13L567.993,28.085L569.255,28.04L570.305,27.995L571.565,27.95L572.824,27.905L573.874,27.86L575.135,27.772L576.396,27.728L577.447,27.682L578.709,27.637L579.758,27.591L581.017,27.547L582.278,27.547L583.327,27.503L584.589,27.457L585.851,27.413L586.899,27.413L588.158,27.368L589.42,27.323L590.469,27.323L591.73,27.278L592.992,27.278L594.041,27.234L595.3,27.189L596.562,27.189L597.611,27.144L598.873,27.099L599.923,27.099L601.185,27.055L602.442,26.965L603.495,26.876L604.753,26.786L606.015,26.696L607.064,26.607L608.326,26.472L609.584,26.382L610.634,26.292L611.896,26.204L613.156,26.114L614.207,26.025L615.469,25.935L616.518,25.845L617.776,25.756L619.038,25.666L620.087,25.576L621.349,25.443L622.61,25.353L623.659,25.263L624.918,25.173L626.18,25.083L627.229,24.993L628.49,24.905L629.752,24.86L630.803,24.771L632.06,24.726L633.321,24.681L634.372,24.636L635.633,24.591L636.683,24.546L637.944,24.456L639.202,24.411L640.255,24.323L641.514,24.277L642.774,24.187L643.824,24.143L645.086,24.054L646.344,23.964L647.394,23.874L648.655,23.829L649.917,23.739L650.967,23.651L652.229,23.561L653.486,23.472L654.536,23.382L655.798,23.292L656.848,23.202L658.108,23.112L659.37,23.023L660.42,22.89L661.678,22.8L662.939,22.71L663.989,22.62L665.25,22.485L666.512,22.396L667.562,22.308L668.819,22.218L670.081,22.127L671.132,21.993L672.394,21.903L673.442,21.814L674.704,21.725L675.963,21.679L677.015,21.589L678.273,21.501L679.535,21.411L680.584,21.321L681.846,21.276L683.104,21.187L684.153,21.097L685.415,21.007L686.677,20.919L687.727,20.874L688.988,20.784L690.246,20.694L691.296,20.65L692.558,20.56L693.607,20.515L694.869,20.425L696.13,20.336L697.18,20.246L698.437,20.156L699.699,20.068L700.749,19.978L702.011,19.888L703.271,19.798L704.322,19.664L705.58,19.573L706.841,19.441L707.892,19.351L709.153,19.216L710.202,19.081L711.464,18.947L712.723,18.814L713.775,18.634L715.033,18.499L716.295,18.32L717.344,18.187L718.605,18.052L719.864,17.917L720.913,17.872L722.175,17.782L723.437,17.738L724.487,17.694L725.748,17.605L727.006,17.559L728.057,17.515L729.317,17.424L730.367,17.334L731.629,17.11L732.891,17.29L733.939,17.245L735.198,17.2L736.459,17.156L737.509,17.11L738.771,17.066L740.032,17.066L741.082,17.021L742.34,16.976L743.602,16.888L744.651,16.843L745.913,16.753L747.172,16.708L748.224,16.663L749.482,16.573L750.535,16.528L751.793,16.484L753.055,16.484L754.104,16.439L755.365,16.394L760.196,16.394L761.247,16.439L763.766,16.439L764.816,16.484L768.389,16.484L769.65,16.439L770.699,16.394L771.958,16.306L773.22,16.171L774.269,16.081L775.53,15.991L776.792,15.902L777.842,15.858L779.1,15.767L780.361,15.677L781.411,15.543L782.673,15.454L783.932,15.409L784.984,15.319L786.242,15.23L787.295,15.141L788.554,14.916L789.814,14.648L790.864,14.468L792.126,14.29L793.384,14.066L794.434,13.841L795.695,13.571L796.956,13.349L798.007,13.079L799.269,12.767L800.525,12.452L801.576,12.185L802.838,11.915L804.1,11.647L805.148,11.333L806.41,10.974L807.46,10.661L808.718,10.392L809.979,9.989L811.028,9.585L812.29,9.049L813.552,8.511L814.603,7.929L815.859,7.302L817.121,6.675L818.172,5.868L819.433,5.017L820.691,4.436L821.744,4.121L823.002,3.943L824.055,3.808L825.313,3.675L826.575,3.585L827.624,3.45L828.886,3.405L830.144,3.36L831.193,3.316L832.455,3.226L833.718,3.181L834.767,3.137L836.028,3.092L837.287,3.046L838.336,3.002L839.598,2.956L840.859,2.912L841.908,2.868L843.17,2.823L844.22,2.734L845.478,2.689L846.739,2.644L847.789,2.554L849.05,2.509L850.312,2.464L851.362,2.374L852.619,2.33L853.881,2.286L854.932,2.195L856.193,2.151L857.451,2.151L858.504,2.107L859.763,2.107L860.814,2.062L863.335,2.062L864.384,2.017L865.646,2.017L866.904,1.972L867.953,1.927L869.215,1.882L870.478,1.882L871.526,1.837L872.788,1.792L874.047,1.747L875.096,1.703L876.357,1.657L877.619,1.613L878.669,1.569L879.93,1.524L880.979,1.48L882.238,1.435L883.499,1.435L884.549,1.39L885.811,1.345L888.122,1.345L889.381,1.3L890.642,1.3L891.691,1.255L892.953,1.165L894.211,1.121L895.264,1.031L896.522,0.986L897.784,0.897L898.833,0.808L900.095,0.763L901.145,0.673L902.405,0.583L903.664,0.538L904.713,0.448L905.975,0.359L907.237,0.315L908.287,0.225L909.548,0.181L910.807,0.09L911.856,0.001L913.117,-0.044L914.379,-0.089L915.429,-0.089L916.69,-0.134L917.739,-0.179L918.998,-0.224L920.26,-0.224L921.309,-0.267L922.571,-0.312L923.833,-0.358L924.882,-0.358L926.141,-0.402" style="fill:none;fill-rule:nonzero;stroke:rgb(88,89,91);stroke-width:0.65px;"/>
        </g>
    </g>
</svg>
