<?xml version="1.0" encoding="UTF-8" standalone="no"?>
<!DOCTYPE svg PUBLIC "-//W3C//DTD SVG 1.1//EN" "http://www.w3.org/Graphics/SVG/1.1/DTD/svg11.dtd">
<svg width="100%" height="100%" viewBox="0 0 1048 293" version="1.1" xmlns="http://www.w3.org/2000/svg" xmlns:xlink="http://www.w3.org/1999/xlink" xml:space="preserve" xmlns:serif="http://www.serif.com/" style="fill-rule:evenodd;clip-rule:evenodd;">
    <g transform="matrix(1,0,0,1,60.6509,158.315)">
        <g id="depth-section" serif:id="depth section">
            <path d="M0,31.577L1.05,31.577L2.311,31.801L3.57,30.502L4.62,29.921L5.881,29.921L7.141,29.786L8.191,29.966L9.452,30.637L10.712,30.95L11.762,30.637L13.022,30.368L14.073,29.741L15.333,29.651L16.594,29.831L17.644,30.188L18.904,30.86L20.165,32.205L21.215,34.534L22.476,36.504L23.735,36.325L24.786,35.071L26.047,35.34L27.307,36.595L28.356,36.325L29.617,36.595L30.877,36.952L31.928,36.907L33.188,37.534L34.238,35.788L35.499,34.175L36.76,33.37L37.81,34.085L39.07,34.936L40.33,33.1L41.38,31.622L42.641,30.995L43.901,30.995L44.951,30.592L46.212,30.188L47.472,30.01L48.522,30.01L49.783,30.905L51.043,31.443L52.093,30.368L53.354,29.339L54.404,28.129L55.665,29.249L56.926,30.548L57.975,30.502L59.235,31.308L60.495,31.891L61.546,32.069L62.807,31.443L64.066,30.95L65.116,31.308L66.377,31.487L67.638,31.757L68.688,32.384L69.948,32.518L72.26,32.518L73.521,32.742L74.569,33.234L75.83,33.414L77.09,33.37L78.141,33.324L79.401,32.651L80.661,33.145L81.711,33.011L82.972,31.981L84.231,31.757L85.282,32.294L86.543,32.159L87.803,31.13L88.854,31.085L90.113,32.473L91.164,32.518L92.425,33.682L93.686,34.041L94.734,33.37L95.995,33.145L97.256,33.638L98.306,33.682L99.566,32.921L100.826,32.921L101.877,33.37L103.138,33.324L104.397,33.056L105.447,33.593L106.708,33.414L107.968,32.384L109.02,31.443L110.28,32.205L111.329,33.28L112.59,33.458L113.85,32.966L114.9,32.832L116.161,32.832L117.421,32.518L118.471,32.473L119.731,32.429L120.992,32.294L122.042,32.563L123.303,32.294L124.563,32.384L125.614,32.651L126.875,32.832L127.924,32.429L129.185,32.966L130.445,33.1L131.495,33.548L132.756,33.952L134.016,34.175L135.065,32.876L136.326,32.115L137.586,32.651L138.637,33.997L139.897,34.131L141.157,33.862L142.207,33.503L143.468,33.37L144.729,33.234L145.779,33.1L147.04,32.742L148.09,32.115L149.351,31.487L150.61,31.622L151.66,31.935L152.921,31.757L154.181,32.429L155.231,33.1L156.492,32.384L157.752,31.667L158.802,31.398L160.062,31.352L161.322,31.04L162.374,30.772L163.635,30.726L164.684,30.86L165.944,31.577L167.205,32.069L168.255,31.935L169.516,31.352L170.775,31.352L171.825,31.935L173.086,31.443L174.347,31.175L175.396,31.487L176.657,32.025L177.917,32.025L178.969,31.577L180.229,30.905L181.488,31.443L182.539,32.025L183.8,32.069L184.85,32.069L186.11,32.205L187.37,32.473L188.42,32.429L189.681,31.891L190.94,31.398L191.991,31.04L193.252,30.413L194.512,30.86L195.562,31.219L196.822,31.847L198.083,31.935L199.134,31.667L200.395,32.651L201.653,33.145L202.705,33.056L203.966,33.056L205.015,33.414L206.275,33.056L207.535,32.786L208.586,32.697L209.847,32.876L211.106,32.473L212.156,32.563L213.417,32.876L214.677,32.966L215.729,32.832L216.989,32.159L218.248,31.847L219.299,32.159L220.56,32.384L221.609,32.607L222.87,32.742L224.13,32.832L225.18,32.876L226.44,32.966L227.701,33.056L228.751,32.832L230.012,32.429L231.271,32.115L232.323,32.159L233.583,32.473L234.843,32.921L235.894,32.742L237.154,32.069L238.414,31.577L239.465,31.398L240.726,31.801L241.774,32.205L243.035,32.339L244.296,32.294L245.346,31.443L246.606,31.04L247.866,30.86L248.916,31.04L250.177,31.04L251.437,30.816L252.488,30.682L253.749,31.219L255.008,31.443L256.06,30.95L257.32,30.905L258.58,31.085L259.63,31.04L260.89,30.86L261.94,30.458L263.201,29.831L264.461,29.741L265.511,30.054L266.771,30.188L268.031,29.606L269.083,29.921L270.344,31.219L271.603,31.398L272.653,31.533L275.175,31.533L276.225,31.577L278.535,31.577L279.796,31.622L282.105,31.622L283.366,31.667L286.937,31.667L288.197,31.712L289.248,31.712L290.509,31.757L291.768,31.757L292.819,31.801L294.08,31.801L295.34,31.847L296.39,31.847L297.65,31.891L299.961,31.891L301.221,31.935L303.531,31.935L304.792,31.981L307.104,31.981L308.362,32.025L309.414,32.025L310.675,32.069L311.935,32.069L312.984,32.115L314.245,32.115L315.295,32.159L316.556,32.159L317.815,32.205L318.865,32.205L320.126,32.249L321.386,32.249L322.437,32.339L323.697,32.429L324.957,32.473L326.008,32.563L327.269,32.607L328.529,32.651L329.579,32.651L330.84,32.697L332.1,32.742L333.15,32.786L334.41,32.832L335.46,32.832L336.721,32.876L337.98,32.876L339.031,32.966L340.292,33.056L341.552,33.1L342.603,33.1L343.863,33.145L345.122,33.145L346.174,33.19L347.435,33.19L348.694,33.234L349.744,33.28L351.005,33.28L352.266,33.324L353.315,33.324L354.575,33.37L355.626,33.37L356.887,33.414L358.146,33.414L359.196,33.458L362.769,33.458L364.029,33.503L374.741,33.503L375.791,33.414L377.051,33.37L378.312,33.324L379.362,33.28L380.624,33.234L381.882,33.234L382.934,33.19L385.455,33.19L386.505,33.145L387.766,33.145L389.024,33.1L390.075,33.1L391.335,33.145L392.385,33.145L393.646,33.1L394.906,33.19L395.958,33.28L405.62,33.28L406.669,33.324L407.931,33.37L409.192,33.414L410.241,33.414L411.5,33.458L412.554,33.503L413.811,33.458L415.072,33.458L416.123,33.503L417.384,33.503L418.642,33.548L419.695,33.548L420.953,33.593L423.265,33.593L424.526,33.638L425.784,33.638L426.834,33.682L428.096,33.727L429.145,33.772L430.406,33.817L431.668,33.862L432.718,33.952L433.976,33.997L435.237,34.041L436.287,34.041L437.549,34.085L438.811,34.085L439.859,34.131L441.118,34.175L442.38,34.175L443.429,34.22L444.69,34.22L445.952,34.265L447.002,34.309L448.26,34.354L449.313,34.399L450.571,34.444L451.832,34.489L452.883,34.534L454.145,34.579L464.855,34.579L465.904,34.713L467.166,34.848L468.428,34.981L469.479,35.071L470.735,35.161L471.997,34.981L473.047,34.489L474.309,33.862L475.57,33.503L476.62,33.458L477.878,33.19L479.14,32.921L480.189,33.1L481.45,33.28L482.712,33.458L483.762,33.414L485.02,33.37L486.073,33.414L487.331,33.593L488.594,33.727L489.643,33.817L490.904,33.772L492.161,33.682L493.215,33.997L494.474,33.906L495.735,33.458L496.784,33.727L498.046,33.727L499.305,33.503L500.354,33.548L501.615,33.503L502.877,33.37L503.926,33.37L505.187,33.28L506.238,33.19L507.495,33.1L508.758,33.28L509.808,33.638L511.068,33.548L512.33,33.37L513.38,33.593L514.638,33.28L515.899,33.28L516.949,33.234L518.211,33.056L519.472,32.921L520.521,32.966L521.78,33.056L522.833,33.145L524.091,33.19L525.354,33.234L526.402,33.234L527.664,33.28L528.923,33.324L529.975,33.37L531.233,33.37L532.495,33.414L533.544,33.458L534.806,33.458L536.064,33.503L537.113,33.503L538.375,33.548L539.637,33.503L540.687,33.458L541.947,33.414L542.998,33.37L544.257,33.28L545.518,33.011L547.829,33.011L549.09,32.966L550.14,32.921L551.398,32.876L552.659,32.832L553.709,32.786L554.971,32.786L556.232,32.742L558.54,32.742L559.594,32.786L560.851,32.832L562.113,32.832L563.163,32.786L564.424,32.786L565.683,32.697L566.735,32.563L567.993,32.384L569.255,32.384L570.305,32.651L571.565,32.429L572.824,32.473L573.874,32.473L575.135,32.205L576.396,32.069L577.447,31.891L578.709,31.757L579.758,31.712L581.017,31.712L582.278,32.025L584.589,32.025L585.851,32.205L586.899,32.115L588.158,32.069L589.42,32.249L590.469,32.294L591.73,32.384L592.992,32.473L594.041,32.563L595.3,32.651L596.562,32.786L597.611,32.966L598.873,33.056L599.923,33.1L601.185,33.056L602.442,32.742L603.495,32.429L604.753,32.384L606.015,32.339L607.064,32.205L608.326,32.069L609.584,31.935L610.634,31.757L611.896,31.577L613.156,31.352L614.207,31.13L615.469,30.95L616.518,30.816L619.038,30.816L620.087,30.772L621.349,30.682L622.61,30.637L623.659,30.548L624.918,30.458L626.18,30.368L627.229,30.234L628.49,30.098L629.752,30.01L630.803,29.921L632.06,29.831L633.321,29.741L634.372,29.606L635.633,29.472L636.683,29.293L637.944,29.159L639.202,29.114L640.255,29.024L641.514,28.979L642.774,28.889L643.824,28.801L645.086,28.755L646.344,28.665L647.394,28.442L648.655,28.129L649.917,27.86L650.967,27.591L652.229,27.278L653.486,26.83L654.536,26.472L655.798,26.203L656.848,25.845L658.108,25.352L659.37,24.77L660.42,24.231L661.678,23.829L662.939,23.559L663.989,23.291L665.25,23.067L666.512,22.843L667.562,22.663L668.819,22.53L670.081,22.44L671.132,22.306L672.394,22.217L673.442,22.127L674.704,21.992L675.963,21.902L677.015,21.813L678.273,21.634L679.535,21.231L680.584,21.097L681.846,21.007L683.104,20.917L684.153,20.827L685.415,20.737L686.677,20.649L687.727,20.47L688.988,20.155L690.246,19.753L691.296,19.394L692.558,19.216L693.607,19.126L694.869,19.081L696.13,18.991L697.18,18.946L698.437,18.901L699.699,18.812L700.749,18.723L702.011,18.632L703.271,18.588L704.322,18.499L705.58,18.409L706.841,18.319L707.892,18.184L709.153,17.872L710.202,17.692L711.464,17.872L712.723,18.096L713.775,18.319L715.033,18.454L716.295,18.499L717.344,18.588L718.605,18.632L720.913,18.632L722.175,18.678L723.437,18.723L724.487,18.812L725.748,18.946L727.006,19.126L728.057,19.305L729.317,19.483L730.367,19.663L731.629,19.528L732.891,20.065L733.939,20.245L735.198,20.425L736.459,20.603L737.509,20.783L738.771,20.917L740.032,21.052L741.082,21.141L742.34,21.185L743.602,21.231L744.651,21.231L745.913,21.276L747.172,21.276L748.224,21.321L749.482,21.41L750.535,21.544L751.793,21.634L753.055,21.723L754.104,21.858L755.365,21.992L756.624,21.768L757.674,21.858L758.935,21.858L760.196,21.992L761.247,21.948L762.509,21.948L763.766,22.036L764.816,22.127L766.078,22.127L767.127,22.261L768.389,22.395L769.65,22.53L770.699,22.53L771.958,22.663L773.22,22.663L774.269,22.753L775.53,22.843L776.792,22.932L777.842,22.977L779.1,22.977L780.361,22.932L782.673,22.932L783.932,22.977L784.984,22.932L786.242,22.843L787.295,22.799L788.554,22.843L789.814,22.753L790.864,22.53L792.126,22.53L793.384,22.44L794.434,22.261L795.695,22.036L796.956,21.948L798.007,21.679L799.269,21.141L800.525,20.693L801.576,20.245L802.838,19.618L804.1,19.171L805.148,18.544L806.41,18.096L807.46,17.647L808.718,17.603L809.979,17.423L811.028,16.975L812.29,16.304L813.552,15.632L814.603,15.184L815.859,14.735L817.121,14.333L818.172,13.886L819.433,13.436L820.691,13.124L821.744,13.034L823.002,12.944L824.055,12.81L825.313,12.81L826.575,12.765L827.624,12.497L828.886,12.094L830.144,11.735L831.193,11.333L832.455,11.063L833.718,11.018L834.767,10.839L836.028,10.168L837.287,9.765L838.336,9.496L839.598,9.675L840.859,9.45L841.908,9.138L843.17,8.779L844.22,8.286L845.478,7.929L846.739,7.749L847.789,7.524L849.05,7.256L850.312,7.032L851.362,7.122L852.619,6.764L853.881,6.225L854.932,6.27L856.193,6.181L857.451,6.181L858.504,5.957L859.763,5.823L860.814,5.733L862.073,5.598L863.335,5.196L864.384,4.883L865.646,4.614L866.904,4.434L867.953,4.166L869.215,3.852L870.478,3.449L871.526,3.225L872.788,2.956L874.047,2.687L875.096,2.374L876.357,2.016L877.619,1.657L878.669,1.3L879.93,1.03L880.979,0.85L882.238,0.582L883.499,0.313L884.549,-0.045L885.811,-0.314L887.073,-0.538L888.122,-0.806L889.381,-1.029L890.642,-1.298L891.691,-1.523L892.953,-1.747L894.211,-1.97L895.264,-2.239L896.522,-2.509L897.784,-2.732L898.833,-2.956L900.095,-3.181L901.145,-3.403L902.405,-3.628L903.664,-3.852L904.713,-4.075L905.975,-4.3L907.237,-4.524L908.287,-4.747L909.548,-4.972L910.807,-5.151L911.856,-5.374L913.117,-5.599L914.379,-5.644L915.429,-5.644L916.69,-5.689L917.739,-5.734L918.998,-5.778L920.26,-5.778L921.309,-5.822L922.571,-5.867L923.833,-5.913L924.882,-5.913L926.141,-5.957" style="fill:none;fill-rule:nonzero;stroke:rgb(88,89,91);stroke-width:0.65px;"/>
        </g>
    </g>
</svg>
