<?xml version="1.0" encoding="UTF-8" standalone="no"?>
<!DOCTYPE svg PUBLIC "-//W3C//DTD SVG 1.1//EN" "http://www.w3.org/Graphics/SVG/1.1/DTD/svg11.dtd">
<svg width="100%" height="100%" viewBox="0 0 1048 293" version="1.1" xmlns="http://www.w3.org/2000/svg" xmlns:xlink="http://www.w3.org/1999/xlink" xml:space="preserve" xmlns:serif="http://www.serif.com/" style="fill-rule:evenodd;clip-rule:evenodd;">
    <g transform="matrix(1,0,0,1,61.8081,161.406)">
        <g id="depth-section" serif:id="depth section">
            <path d="M0,28.486L1.05,28.71L2.311,27.277L3.57,26.695L4.62,26.875L5.881,26.83L7.141,26.919L8.191,27.367L9.452,27.904L10.712,27.546L11.762,27.232L13.022,26.65L14.073,26.65L15.333,26.785L16.594,27.277L17.644,27.904L18.904,29.203L20.165,31.443L21.215,33.413L22.476,33.189L23.735,31.935L24.786,32.205L26.047,33.504L27.307,33.145L28.356,33.504L29.617,33.861L30.877,33.771L31.928,34.443L33.188,32.697L34.238,31.084L35.499,30.279L36.76,31.04L37.81,31.845L39.07,30.009L40.33,28.531L41.38,27.859L42.641,27.725L43.901,27.457L44.951,27.187L46.212,27.097L47.472,27.007L48.522,27.859L49.783,28.174L51.043,26.963L52.093,26.112L53.354,25.261L54.404,26.293L55.665,27.501L56.926,27.457L57.975,28.217L59.235,28.756L60.495,29.024L61.546,28.442L62.807,27.859L64.066,28.217L65.116,28.396L66.377,28.576L67.638,29.203L68.688,29.427L70.999,29.427L72.26,29.651L73.521,30.143L74.569,30.323L75.83,30.279L77.09,30.233L78.141,29.56L79.401,29.83L80.661,29.965L81.711,29.114L82.972,28.666L84.231,29.068L85.282,29.158L86.543,28.261L87.803,27.994L88.854,29.382L90.113,29.427L91.164,30.547L92.425,30.95L93.686,30.547L94.734,30.099L95.995,30.279L97.256,30.591L98.306,29.92L99.566,29.83L100.826,30.279L101.877,30.233L103.138,29.965L104.397,30.279L105.447,30.323L106.708,29.293L107.968,28.352L109.02,29.158L110.28,30.189L111.329,30.367L112.59,29.875L113.85,29.695L114.9,29.741L116.161,29.427L117.421,29.382L118.471,29.338L119.731,29.203L120.992,29.472L122.042,29.203L123.303,29.293L124.563,29.56L125.614,29.741L126.875,29.338L127.924,29.875L129.185,30.009L130.445,30.457L131.495,30.861L132.756,31.084L134.016,29.785L135.065,29.024L136.326,29.56L137.586,30.906L138.637,31.04L139.897,30.771L141.157,30.412L142.207,30.279L143.468,30.099L144.729,30.009L145.779,29.651L147.04,29.024L148.09,28.396L149.351,28.486L150.61,28.844L151.66,28.666L152.921,29.293L154.181,30.009L155.231,29.338L156.492,28.666L157.752,28.307L158.802,28.307L160.062,28.039L161.322,27.769L162.374,27.635L163.635,27.769L164.684,28.307L165.944,28.89L167.205,28.934L168.255,28.352L169.516,28.261L170.775,28.89L171.825,28.486L173.086,28.084L174.347,28.396L175.396,28.934L176.657,28.934L177.917,28.486L178.969,27.814L180.229,28.352L181.488,28.934L182.539,29.068L183.8,29.024L184.85,29.114L186.11,29.382L187.37,29.338L188.42,28.8L189.681,28.307L190.94,27.949L191.991,27.322L193.252,27.769L194.512,28.128L195.562,28.756L196.822,28.844L198.083,28.621L199.134,29.651L200.395,30.099L201.653,30.009L202.705,29.965L203.966,30.323L205.015,30.009L206.275,29.695L207.535,29.606L208.586,29.785L209.847,29.382L211.106,29.472L212.156,29.785L213.417,29.875L214.677,29.741L215.729,29.068L216.989,28.756L218.248,29.068L219.299,29.338L220.56,29.516L221.609,29.651L222.87,29.741L224.13,29.785L225.18,29.875L226.44,29.965L227.701,29.875L228.751,29.606L230.012,29.338L231.271,29.114L232.323,29.382L233.583,29.785L234.843,29.606L235.894,28.978L237.154,28.621L238.414,28.307L239.465,28.666L240.726,29.068L241.774,29.203L243.035,29.248L244.296,28.621L245.346,27.994L246.606,27.725L247.866,27.904L248.916,27.949L250.177,27.681L251.437,27.546L252.488,28.128L253.749,28.352L255.008,27.814L256.06,27.769L257.32,27.994L258.58,27.904L259.63,27.769L260.89,27.411L261.94,26.785L263.201,26.695L264.461,26.963L265.511,27.097L266.771,26.56L268.031,26.875L269.083,28.128L270.344,28.352L271.194,28.989L272.757,29.785L274.018,29.695L275.067,29.338L276.328,28.978L277.378,29.203L278.639,29.427L279.898,29.651L280.948,29.741L282.209,30.143L283.469,30.502L284.52,30.906L285.78,30.994L287.04,30.726L288.091,30.457L289.352,30.233L290.61,30.054L291.662,30.233L292.923,30.457L294.183,30.412L295.232,30.233L296.493,30.054L297.543,29.875L298.804,30.054L300.063,30.233L301.113,30.367L302.374,30.279L303.635,30.189L304.686,30.099L305.946,30.009L307.205,30.009L308.257,30.099L309.518,30.279L310.777,30.457L311.827,30.681L313.088,30.771L317.708,30.771L318.969,30.681L320.229,30.367L321.279,30.099L322.54,29.875L323.8,29.606L324.851,29.695L326.111,30.009L327.372,30.189L328.422,30.279L329.683,30.412L330.942,30.547L331.993,30.636L333.253,30.726L334.303,30.815L335.563,30.906L336.823,31.04L337.874,31.174L339.135,31.263L340.395,31.308L341.445,31.353L342.706,31.353L343.965,31.398L345.017,31.443L346.277,31.443L347.537,31.488L348.587,31.532L349.848,31.532L351.108,31.576L352.158,31.622L353.418,31.622L354.469,31.666L355.729,31.712L356.989,31.712L358.039,31.757L360.56,31.757L361.611,31.8L366.442,31.8L367.702,31.845L372.323,31.845L373.584,31.8L374.634,31.757L375.894,31.712L377.155,31.622L378.205,31.576L379.467,31.576L380.725,31.532L381.776,31.532L383.036,31.488L385.348,31.488L386.608,31.443L388.918,31.443L390.178,31.488L391.228,31.488L392.489,31.443L393.749,31.532L394.801,31.622L398.37,31.622L399.632,31.666L404.463,31.666L405.512,31.712L406.773,31.712L408.035,31.757L409.084,31.8L410.343,31.845L411.396,31.89L412.653,31.845L413.915,31.89L414.966,31.89L416.227,31.935L417.484,31.935L418.538,31.98L419.796,31.98L421.058,32.025L422.107,32.025L423.369,32.07L424.627,32.07L425.677,32.114L426.938,32.16L427.987,32.205L429.249,32.295L430.511,32.339L431.561,32.427L432.818,32.472L434.08,32.517L435.13,32.562L436.392,32.562L437.653,32.607L438.702,32.652L439.961,32.652L441.223,32.697L442.271,32.742L443.533,32.742L444.795,32.787L445.845,32.831L447.103,32.921L448.156,32.965L449.414,33.009L450.675,33.055L451.726,33.099L452.987,33.145L460.129,33.145L461.387,33.189L462.437,33.099L463.698,32.787L464.747,33.279L466.009,34.041L467.271,34.892L468.321,36.369L469.578,37.31L470.84,34.98L471.89,35.743L473.151,33.234L474.413,32.787L475.463,33.996L476.721,32.16L477.982,32.295L479.032,32.697L480.293,33.683L481.555,34.173L482.604,32.427L483.862,32.877L484.916,32.652L486.174,32.877L487.437,34.668L488.485,35.295L489.747,36.235L491.004,37.131L492.058,37.534L493.316,34.443L494.578,33.459L495.627,34.263L496.889,35.025L498.147,33.951L499.196,34.892L500.458,33.726L501.72,33.459L502.769,33.637L504.03,33.951L505.081,33.009L506.338,33.323L507.601,33.593L508.65,35.34L509.911,34.398L511.173,33.816L512.223,35.205L513.48,33.771L514.742,34.443L515.792,34.713L517.054,33.726L518.314,33.009L519.364,34.31L520.623,34.488L521.676,33.861L522.934,33.683L524.196,33.548L525.245,34.086L526.507,33.951L527.766,33.951L528.817,33.861L530.076,33.726L531.338,33.593L532.387,33.726L533.648,33.816L534.907,33.951L535.956,34.041L537.218,34.173L538.479,34.398L539.529,34.802L540.79,34.578L541.841,34.086L543.1,34.041L544.36,33.234L545.41,33.504L546.672,33.459L547.933,33.413L548.982,33.145L550.241,33.279L551.502,32.607L552.552,32.295L553.813,32.472L555.075,32.382L556.124,32.562L557.383,33.279L558.437,33.504L559.693,33.369L560.956,33.323L562.006,33.234L563.267,33.726L564.525,33.771L565.578,32.965L566.836,33.279L568.098,33.234L569.147,33.726L570.408,32.517L571.667,33.504L572.717,33.369L573.978,32.697L575.239,32.742L576.29,32.339L577.552,31.935L578.601,31.98L579.859,32.07L581.121,32.742L582.17,33.548L583.432,33.726L584.693,34.354L585.742,33.816L587.001,33.951L588.263,34.173L589.312,34.13L590.573,34.623L591.835,34.533L592.884,34.31L594.143,35.07L595.404,35.205L596.454,35.653L597.716,35.34L598.766,35.518L600.027,35.877L601.285,33.548L602.338,34.13L603.596,34.086L604.857,32.249L605.907,32.07L607.169,32.114L608.427,30.815L609.477,31.04L610.738,30.412L611.999,30.502L613.05,30.636L614.312,30.367L615.36,30.189L616.619,30.457L617.881,30.367L618.93,30.457L620.191,30.502L621.453,30.547L622.502,30.547L623.761,30.502L625.022,30.412L626.071,30.189L627.333,29.965L628.595,29.785L630.902,29.785L632.164,29.695L633.215,29.606L634.476,29.472L635.525,29.203L636.787,29.024L638.045,28.8L639.098,28.396L640.356,28.307L641.617,28.128L642.667,27.994L643.929,27.814L645.187,27.725L646.236,27.681L647.498,27.591L648.76,27.277L649.81,26.83L651.071,26.248L652.329,25.62L653.379,25.396L654.641,25.128L655.69,24.903L656.951,24.679L658.213,24.455L659.263,24.231L660.521,24.007L661.782,23.828L662.832,23.604L664.093,23.381L665.354,23.156L666.405,22.932L667.662,22.754L668.924,22.619L669.975,22.574L671.236,22.574L672.285,22.664L673.547,22.664L674.806,22.484L675.857,22.305L677.116,22.305L678.378,22.349L679.427,22.261L680.688,21.992L681.947,21.679L682.996,21.41L684.258,21.095L685.52,20.917L686.569,20.828L687.831,20.738L689.089,20.692L690.139,20.603L691.4,20.468L692.45,20.379L693.712,20.424L694.973,20.558L696.022,20.692L697.28,20.873L698.542,20.828L699.592,20.558L700.854,20.29L702.114,20.29L703.165,20.335L704.423,20.424L705.684,20.514L706.734,20.603L707.996,20.692L709.045,20.828L710.307,20.917L711.565,21.05L712.618,21.14L713.876,21.275L715.138,21.41L716.187,21.543L717.448,21.633L718.707,21.767L719.756,21.902L721.018,22.037L722.279,22.215L723.33,22.349L724.591,22.529L725.849,22.037L726.899,22.126L728.16,22.215L729.21,22.664L730.472,22.261L731.733,22.664L732.782,22.798L734.041,22.754L735.302,22.798L736.352,22.843L737.613,22.888L738.875,22.976L739.925,23.112L741.183,23.201L742.444,23.336L743.494,23.425L744.756,23.694L746.015,23.648L747.066,23.783L748.325,23.918L749.378,24.096L750.636,24.277L751.897,24.455L752.947,24.59L754.208,24.724L755.467,24.321L756.517,24.41L757.777,24.321L759.039,24.903L760.09,24.813L761.352,24.903L762.608,25.082L763.659,25.172L764.921,25.216L765.97,25.396L767.231,25.71L768.493,25.798L769.542,25.888L770.801,26.068L772.062,26.381L773.111,26.695L774.373,26.963L775.635,27.232L776.685,27.457L777.942,27.681L779.204,27.859L780.254,27.949L781.516,27.994L782.774,28.261L783.827,28.486L785.085,28.666L786.138,28.8L787.396,28.934L788.657,28.978L789.707,29.024L790.969,29.068L792.227,29.158L793.276,29.158L794.538,28.89L795.799,28.8L796.85,28.756L798.111,28.261L799.368,27.949L800.419,27.725L801.681,27.097L802.942,26.381L803.991,25.798L805.253,25.082L806.303,24.5L807.561,24.096L808.822,23.336L809.871,22.843L811.133,22.261L812.395,21.633L813.445,21.275L814.702,21.095L815.964,20.917L817.015,20.424L818.275,19.618L819.534,18.857L820.587,18.722L821.845,18.632L822.897,18.363L824.156,18.094L825.418,17.781L826.467,17.468L827.729,17.11L828.986,16.885L830.036,16.303L831.298,15.9L832.561,15.453L833.609,15.005L834.871,14.466L836.13,14.377L837.179,14.646L838.44,14.466L839.702,14.198L840.751,14.108L842.013,13.795L843.062,13.168L844.32,12.855L845.582,12.765L846.632,12.81L847.893,12.541L849.154,12.182L850.205,12.004L851.462,11.914L852.724,11.51L853.774,11.422L855.036,11.377L856.294,10.973L857.347,10.345L858.605,9.988L859.657,9.719L860.916,9.181L862.178,8.869L863.227,8.554L864.488,7.838L865.747,7.212L866.796,6.718L868.058,6.091L869.32,5.554L870.369,5.24L871.631,4.838L872.89,4.165L873.938,3.359L875.2,2.552L876.462,1.702L877.512,0.985L878.772,0.447L879.822,0.179L881.081,-0.09L882.342,-0.493L883.392,-0.941L884.653,-1.164L885.916,-1.479L886.965,-1.836L888.224,-2.196L889.484,-2.509L890.534,-2.868L891.796,-3.18L893.054,-3.494L894.106,-3.807L895.365,-4.077L896.627,-4.389L897.676,-4.703L898.937,-4.971L899.987,-5.285L901.248,-5.554L902.507,-5.823L903.556,-6.092L904.817,-6.405L906.08,-6.674L907.13,-6.943L908.391,-7.211L909.649,-7.481L910.699,-7.749L911.96,-7.973L913.222,-8.242L914.271,-8.511L915.533,-8.735L916.582,-8.825L917.841,-8.869L919.103,-8.869L920.151,-8.913L921.414,-8.958L922.676,-9.004L923.725,-9.004L924.983,-9.048" style="fill:none;fill-rule:nonzero;stroke:rgb(46,49,145);stroke-width:1.31px;"/>
        </g>
    </g>
</svg>
