<?xml version="1.0" encoding="UTF-8" standalone="no"?>
<!DOCTYPE svg PUBLIC "-//W3C//DTD SVG 1.1//EN" "http://www.w3.org/Graphics/SVG/1.1/DTD/svg11.dtd">
<svg width="100%" height="100%" viewBox="0 0 1048 293" version="1.1" xmlns="http://www.w3.org/2000/svg" xmlns:xlink="http://www.w3.org/1999/xlink" xml:space="preserve" xmlns:serif="http://www.serif.com/" style="fill-rule:evenodd;clip-rule:evenodd;">
    <g transform="matrix(1,0,0,1,330.871,161.894)">
        <g id="depth-section" serif:id="depth section">
            <path d="M0,27.51L0.124,27.864L1.383,28.088L2.434,28.67L3.694,29.297L4.955,29.207L6.005,28.85L7.266,28.49L8.315,28.715L9.576,28.94L10.836,29.163L11.886,29.253L13.146,29.656L14.406,30.014L15.457,30.418L16.718,30.506L17.978,30.239L19.028,29.969L20.289,29.745L21.548,29.567L22.6,29.745L23.86,29.969L25.12,29.924L26.17,29.745L27.431,29.567L28.48,29.387L29.741,29.567L31.001,29.745L32.051,29.879L33.312,29.791L34.572,29.701L35.623,29.612L36.884,29.522L38.143,29.522L39.194,29.612L40.455,29.791L41.715,29.969L42.765,30.194L44.025,30.283L48.646,30.283L49.906,30.194L51.166,29.879L52.217,29.612L53.478,29.387L54.737,29.118L55.788,29.207L57.049,29.522L58.31,29.701L59.359,29.791L60.62,29.924L61.88,30.059L62.931,30.149L64.19,30.239L65.24,30.327L66.501,30.418L67.761,30.552L68.812,30.686L70.072,30.776L71.332,30.821L72.383,30.865L73.644,30.865L74.902,30.91L75.954,30.955L77.215,30.955L78.475,31L79.524,31.044L80.785,31.044L82.046,31.088L83.096,31.134L84.355,31.134L85.406,31.178L86.667,31.224L87.927,31.224L88.977,31.269L91.497,31.269L92.549,31.313L97.38,31.313L98.64,31.358L103.261,31.358L104.521,31.313L105.571,31.269L106.831,31.224L108.093,31.134L109.143,31.088L110.404,31.088L111.662,31.044L112.714,31.044L113.974,31L116.285,31L117.546,30.955L119.855,30.955L121.115,31L122.165,31L123.427,30.955L124.687,31.044L125.738,31.134L129.308,31.134L130.569,31.178L135.4,31.178L136.449,31.224L137.711,31.224L138.973,31.269L140.021,31.313L141.28,31.358L142.334,31.403L143.591,31.358L144.853,31.403L145.903,31.403L147.164,31.448L148.422,31.448L149.476,31.492L150.733,31.492L151.995,31.537L153.045,31.537L154.307,31.582L155.564,31.582L156.614,31.626L157.876,31.672L158.925,31.717L160.187,31.807L161.448,31.851L162.498,31.94L163.756,31.985L165.018,32.03L166.067,32.074L167.329,32.074L168.591,32.119L169.64,32.164L170.898,32.164L172.16,32.209L173.209,32.254L174.471,32.254L175.732,32.299L176.782,32.343L178.04,32.433L179.094,32.477L180.352,32.522L181.612,32.568L182.663,32.612L183.925,32.657L188.755,32.657L189.805,32.612L191.066,32.522L192.324,32.433L193.374,32.343L194.636,32.299L195.685,32.791L196.946,33.553L198.208,34.405L199.259,35.881L200.516,36.823L201.777,34.492L202.827,35.255L204.089,32.746L205.351,32.299L206.4,33.508L207.658,31.672L208.92,31.807L209.97,32.209L211.23,33.196L212.492,33.686L213.542,31.94L214.8,32.389L215.854,32.164L217.111,32.389L218.374,34.18L219.423,34.807L220.685,35.747L221.941,36.643L222.995,37.046L224.254,33.955L225.516,32.971L226.564,33.776L227.826,34.537L229.085,33.463L230.134,34.405L231.396,33.239L232.657,32.971L233.706,33.15L234.968,33.463L236.019,32.522L237.275,32.835L238.538,33.106L239.588,34.852L240.849,33.91L242.11,33.328L243.16,34.717L244.418,33.283L245.68,33.955L246.729,34.225L247.991,33.239L249.252,32.522L250.302,33.822L251.561,34L252.613,33.373L253.871,33.196L255.134,33.06L256.183,33.598L257.444,33.463L258.703,33.463L259.755,33.373L261.014,33.239L262.275,33.106L263.324,33.239L264.586,33.328L265.845,33.463L266.894,33.553L268.155,33.686L269.417,33.91L270.467,34.315L271.728,34.09L272.778,33.598L274.037,33.553L275.298,32.746L276.348,33.016L277.609,32.971L278.87,32.925L279.92,32.657L281.179,32.791L282.439,32.119L283.489,31.807L284.751,31.985L286.013,31.895L287.062,32.074L288.32,32.791L289.374,33.016L290.631,32.881L291.894,32.835L292.943,32.746L294.204,33.239L295.463,33.283L296.516,32.477L297.773,32.791L299.035,32.746L300.085,33.239L301.346,32.03L302.604,33.016L303.654,32.881L304.915,32.209L306.177,32.254L307.228,31.851L308.489,31.448L309.538,31.492L310.797,31.403L312.059,31.626L313.107,31.717L314.369,31.851L315.631,32.074L316.68,31.807L317.938,31.851L319.2,31.94L320.249,31.985L321.511,32.164L322.772,32.209L323.821,32.254L325.08,32.343L326.342,32.389L327.392,32.433L328.653,32.522L329.703,32.568L332.223,32.568L333.275,31.94L334.533,31.94L335.795,31.672L336.845,31.582L338.106,31.626L339.364,30.327L340.414,30.552L341.676,29.924L342.937,30.014L343.987,30.149L345.249,29.879L346.298,29.701L347.557,29.969L348.818,29.879L349.867,29.969L352.391,30.059L353.439,30.059L354.698,30.014L355.96,29.924L357.009,29.701L358.271,29.477L359.532,29.297L361.84,29.297L363.102,29.207L364.152,29.118L365.413,28.985L366.463,28.715L367.725,28.536L368.982,28.313L370.035,27.908L371.294,27.82L372.555,27.64L373.604,27.506L374.866,27.326L376.124,27.238L377.174,27.194L378.436,27.104L379.697,26.789L380.747,26.342L382.009,25.76L383.267,25.132L384.316,24.908L385.578,24.64L386.628,24.415L387.889,24.192L389.15,23.967L390.2,23.743L391.458,23.52L392.72,23.34L393.77,23.116L395.03,22.893L396.292,22.668L397.343,22.445L398.6,22.266L399.861,21.996L400.912,21.774L402.174,21.549L403.223,21.369L404.484,21.324L405.743,21.369L406.795,21.369L408.054,21.324L409.315,21.28L410.364,21.146L411.626,20.877L412.885,20.563L413.934,20.295L415.195,20.071L416.457,19.891L417.507,19.712L418.769,19.578L420.026,19.533L421.076,19.533L422.338,19.444L423.388,19.354L424.649,19.174L425.91,19.309L426.96,19.444L428.218,19.578L429.479,19.533L430.529,19.354L431.791,19.174L433.052,19.174L434.103,19.264L435.36,19.309L436.621,19.309L437.672,19.13L438.934,18.996L439.982,18.772L441.244,18.951L442.503,19.13L443.556,19.22L446.075,19.22L447.124,19.444L448.386,19.622L449.645,19.758L450.693,19.758L451.955,19.802L453.217,19.847L454.268,19.891L455.528,19.891L456.786,19.802L457.837,19.758L459.098,20.027L460.147,20.25L461.409,19.937L462.671,20.34L463.72,20.385L464.979,20.295L466.239,20.385L467.289,20.473L468.551,20.518L469.812,20.608L470.862,20.653L472.12,20.698L473.382,20.832L474.432,20.967L475.693,21.102L476.952,21.192L478.004,21.324L479.263,21.459L480.315,21.594L481.573,21.774L482.835,21.906L483.885,22.041L485.146,22.131L486.404,21.996L487.454,21.906L488.715,21.862L489.977,22.041L491.027,22.131L492.289,22.041L494.597,22.041L495.858,22.086L496.907,22.266L498.169,22.31L499.431,22.401L500.479,22.668L501.738,22.983L503,23.206L504.049,23.385L505.311,23.52L506.572,23.52L507.622,23.699L508.88,23.833L510.142,23.609L511.191,23.654L512.453,23.565L514.765,23.565L516.022,23.475L517.075,23.295L518.334,22.938L519.595,22.578L520.645,22.176L521.906,21.728L523.164,21.236L524.214,20.787L525.476,20.429L526.736,20.25L527.787,20.115L529.049,19.847L530.306,19.622L531.356,19.444L533.88,19.174L534.929,18.951L536.19,18.638L537.24,18.323L538.498,18.1L539.76,17.875L540.809,17.518L542.07,17.204L543.332,16.936L544.383,16.576L545.64,16.264L546.901,15.994L547.952,15.637L549.213,15.278L550.472,14.875L551.524,14.74L552.782,14.875L553.835,14.83L555.094,14.696L556.355,14.517L557.404,14.202L558.666,13.62L559.924,13.487L560.974,13.307L562.235,12.86L563.498,12.591L564.547,12.367L565.809,12.098L567.067,11.829L568.116,12.053L570.64,12.143L571.688,12.053L572.95,11.74L574,11.246L575.258,10.754L576.52,10.574L577.569,10.486L578.83,10.307L580.092,10.082L581.143,9.993L582.399,9.724L583.661,9.545L584.712,9.589L585.974,9.321L587.231,9.007L588.284,8.605L589.543,8.2L590.595,7.932L591.854,7.53L593.115,7.127L594.164,6.678L595.426,6.186L596.685,5.782L597.733,5.424L598.995,4.977L600.258,4.394L601.307,4.08L602.568,3.768L603.827,3.229L604.876,2.737L606.138,2.065L607.399,1.214L608.449,0.497L609.71,-0.041L610.76,-0.308L612.019,-0.578L613.279,-0.98L614.329,-1.428L615.591,-1.652L616.854,-1.967L617.902,-2.324L619.161,-2.683L620.422,-2.997L621.472,-3.355L622.733,-3.668L623.991,-3.982L625.044,-4.295L626.303,-4.564L627.564,-4.877L628.613,-5.191L629.875,-5.459L630.925,-5.773L632.186,-6.042L633.444,-6.31L634.493,-6.58L635.755,-6.892L637.018,-7.162L638.067,-7.43L639.328,-7.699L640.587,-7.969L641.637,-8.237L642.897,-8.461L644.159,-8.729L645.209,-8.999L646.471,-9.222L647.52,-9.312L648.778,-9.357L650.04,-9.357L651.089,-9.401L652.352,-9.446L653.613,-9.492L654.662,-9.492L655.921,-9.536" style="fill:none;fill-rule:nonzero;stroke:rgb(88,89,91);stroke-width:0.65px;"/>
        </g>
    </g>
</svg>
