<?xml version="1.0" encoding="UTF-8" standalone="no"?>
<!DOCTYPE svg PUBLIC "-//W3C//DTD SVG 1.1//EN" "http://www.w3.org/Graphics/SVG/1.1/DTD/svg11.dtd">
<svg width="100%" height="100%" viewBox="0 0 928 291" version="1.1" xmlns="http://www.w3.org/2000/svg" xmlns:xlink="http://www.w3.org/1999/xlink" xml:space="preserve" xmlns:serif="http://www.serif.com/" style="fill-rule:evenodd;clip-rule:evenodd;">
    <g transform="matrix(1,0,0,1,155.145,153.085)">
        <g id="depth-section" serif:id="depth section">
            <path d="M0,35.334L1.204,35.437L2.297,35.283L3.5,35.334L7.112,35.334L8.314,35.232L9.409,35.078L10.612,34.873L11.815,34.771L13.019,34.924L14.222,35.181L15.425,35.59L20.13,35.59L21.333,35.539L34.351,35.539L35.555,35.488L41.463,35.488L42.667,35.539L46.167,35.539L47.37,35.59L50.98,35.59L52.184,35.641L56.888,35.641L58.092,35.692L61.592,35.692L62.796,35.743L66.405,35.743L67.5,35.794L75.814,35.794L77.018,35.743L81.722,35.743L82.925,35.692L90.036,35.692L91.239,35.743L94.85,35.743L95.943,35.794L99.554,35.794L100.756,35.846L105.461,35.846L106.665,35.897L110.165,35.897L111.369,35.948L112.573,35.948L113.776,36L114.979,36.051L116.183,36.102L117.277,36.102L118.479,36.153L119.683,36.204L120.886,36.255L122.09,36.307L123.293,36.358L124.388,36.358L125.59,36.409L126.794,36.46L127.998,36.512L129.202,36.512L130.404,36.563L131.608,36.614L132.702,36.665L133.906,36.716L135.108,36.716L136.312,36.768L137.515,36.819L138.719,36.87L139.813,36.87L142.219,36.972L143.423,37.023L144.626,37.075L145.83,37.126L146.924,37.177L148.127,37.177L149.331,37.28L150.534,37.28L152.94,37.382L154.035,37.433L155.238,37.433L156.441,37.484L157.645,37.536L158.848,37.587L160.052,37.587L161.145,37.638L162.349,37.689L163.553,37.689L164.756,37.741L165.959,37.741L167.163,37.792L168.257,37.792L169.46,37.843L173.07,37.843L174.273,37.894L189.589,37.894L190.793,37.843L197.904,37.843L199.107,37.792L206.218,37.792L207.421,37.741L220.44,37.741L221.644,37.792L224.05,37.792L225.253,37.843L227.551,37.843L228.754,37.894L229.958,37.894L231.162,37.945L237.069,37.945L238.272,37.894L239.475,37.792L240.57,37.638L241.773,37.433L242.977,37.126L244.18,37.28L245.383,37.382L246.587,37.382L247.681,37.126L248.884,37.075L250.087,37.126L251.291,37.177L253.698,37.177L254.792,37.229L255.995,37.229L257.198,37.126L258.402,37.075L259.605,37.229L260.809,37.331L261.903,37.382L265.513,37.382L266.716,37.433L272.624,37.433L273.827,37.382L275.031,37.229L276.124,37.075L277.328,37.023L278.532,37.075L279.734,37.126L280.938,37.177L282.142,37.229L283.236,37.28L285.642,37.28L286.846,37.229L288.049,37.126L289.252,37.075L290.347,37.023L291.549,36.921L292.753,36.819L293.957,36.716L295.16,36.614L296.363,36.46L297.567,36.255L298.661,36.153L299.864,36.358L301.067,36.46L302.271,36.512L304.678,36.512L305.772,36.563L308.178,36.563L309.382,36.614L310.586,36.563L311.789,36.46L312.883,36.409L314.086,36.563L315.289,36.716L316.493,36.614L317.696,36.512L318.899,36.46L319.994,36.409L322.401,36.409L323.604,36.102L324.807,36.102L326.011,36.051L330.714,36.051L331.918,36L333.122,35.846L334.216,35.692L335.418,35.59L336.623,35.692L337.826,35.743L339.029,35.846L340.232,36L341.327,36.102L342.529,35.743L343.733,35.59L344.937,35.846L346.141,36L347.343,35.948L348.437,35.897L354.454,35.897L355.548,35.846L365.066,35.846L366.269,35.794L368.677,35.794L369.771,35.743L370.974,35.743L372.177,35.692L373.381,35.641L374.583,35.488L375.787,35.334L376.991,35.283L378.084,35.232L381.695,35.232L382.898,35.283L385.196,35.283L386.399,35.129L387.603,34.924L388.806,34.975L390.009,35.027L391.212,35.027L392.307,34.975L395.917,34.975L397.121,35.027L398.323,34.873L399.417,34.771L400.621,34.771L401.824,34.821L403.028,34.771L404.231,34.617L405.434,34.515L406.528,34.565L407.732,34.617L408.936,34.821L410.139,35.027L411.342,34.975L412.546,34.873L413.639,34.771L414.843,34.054L416.046,33.49L417.25,33.388L418.453,33.132L419.657,32.876L420.751,32.313L421.954,31.75L423.157,31.34L424.361,31.084L425.564,30.879L427.862,30.879L429.065,30.981L430.268,31.186L431.472,31.391L432.675,31.289L433.878,31.391L434.972,31.544L436.176,31.391L437.379,31.237L438.583,31.084L440.989,30.674L442.083,30.52L443.287,30.315L444.491,30.111L445.693,29.957L448.101,29.547L449.194,29.343L450.397,29.189L451.601,28.984L452.805,28.933L454.008,28.831L455.211,28.779L456.415,28.677L457.508,28.626L458.712,28.574L459.916,28.523L461.119,28.472L462.322,28.42L463.526,28.42L464.62,28.318L465.823,28.165L467.026,28.063L468.23,27.96L469.433,28.011L470.637,28.114L471.731,28.165L472.934,28.268L474.137,28.268L475.341,28.165L476.544,28.063L477.748,27.96L478.842,27.909L481.248,28.011L482.452,28.063L484.858,28.165L485.953,28.216L487.156,28.165L488.36,28.114L489.562,28.114L490.766,27.909L491.97,27.755L493.063,27.601L494.267,27.653L495.471,27.653L496.673,27.601L497.877,27.601L499.081,27.345L500.175,27.141L501.378,26.936L502.582,26.936L503.785,27.089L504.988,27.039L506.191,26.987L507.286,26.885L508.488,26.782L509.692,26.578L510.896,26.526L512.099,26.526L513.302,26.629L514.396,26.782L515.6,26.885L516.803,27.039L518.007,27.294L519.21,27.704L520.413,28.063L521.507,28.472L522.711,28.831L523.915,29.035L525.117,28.933L526.321,28.779L527.525,28.574L528.618,28.37L529.822,28.42L531.025,28.574L532.228,28.677L533.432,28.831L535.729,28.831L536.933,28.574L538.136,28.268L539.34,28.114L540.542,28.063L542.95,28.165L544.043,28.318L545.247,28.42L546.451,28.42L547.653,28.268L548.857,28.165L550.061,28.063L551.155,27.755L552.358,27.448L553.562,26.834L554.765,25.912L555.968,24.734L557.171,23.71L558.266,23.249L559.469,22.634L560.672,22.225L561.876,21.713L563.08,21.661L564.282,21.559L565.376,20.842L566.58,20.074L567.783,19.459L568.987,19.101L570.19,18.691L571.393,18.436L572.487,18.333L573.691,17.975L574.895,17.565L576.098,17.257L577.301,16.746L578.505,16.08L579.598,15.722L580.802,15.209L582.005,14.902L583.208,14.749L584.413,14.339L585.616,14.031L586.709,13.724L589.117,13.008L590.32,12.649L591.522,12.239L592.726,11.83L593.821,11.574L595.024,11.317L596.226,11.113L597.43,10.806L598.633,10.447L599.837,10.14L600.931,9.935L602.134,9.679L604.542,9.167L605.745,9.013L606.947,8.809L608.042,8.706L609.246,8.604L610.45,8.398L611.651,8.296L612.855,8.194L614.059,8.04L615.152,7.938L617.56,7.63L618.763,7.528L619.967,7.375L621.17,7.272L622.374,7.068L623.467,6.914L624.671,6.709L625.875,6.453L627.077,6.146L628.28,5.838L629.484,5.634L630.579,5.531L631.781,5.327L632.985,5.122L634.188,4.968L636.596,4.558L637.689,4.354L638.893,4.2L640.096,4.2L641.3,3.893L642.502,3.636L643.706,3.329L644.801,3.125L646.004,2.869L647.206,2.664L649.614,2.254L650.817,2.049L651.911,1.844L653.114,1.588L654.318,1.333L655.521,1.127L656.726,0.923L657.929,0.718L659.022,0.513L660.226,0.256L661.43,0.052L662.632,-0.152L663.835,-0.409L665.039,-0.562L666.134,-0.562L667.336,-0.613L668.54,-0.665L670.946,-0.767L672.15,-0.767L673.243,-0.921L674.447,-1.075L675.651,-1.125L676.854,-1.382L678.057,-1.484L679.261,-1.638L680.355,-1.689L681.56,-1.791L682.761,-1.843L683.965,-1.843L685.169,-1.894L688.669,-1.894L689.872,-1.945L692.28,-1.945L693.481,-1.996L694.577,-2.047L695.78,-2.047L696.984,-2.099L699.39,-2.201L700.594,-2.252L701.687,-2.252L702.891,-2.304L704.095,-2.354L705.298,-2.406L706.501,-2.457L707.706,-2.457L708.909,-2.508L710.003,-2.56L711.206,-2.611" style="fill:none;fill-rule:nonzero;stroke:rgb(88,89,91);stroke-width:0.65px;"/>
        </g>
    </g>
</svg>
