<?xml version="1.0" encoding="UTF-8" standalone="no"?>
<!DOCTYPE svg PUBLIC "-//W3C//DTD SVG 1.1//EN" "http://www.w3.org/Graphics/SVG/1.1/DTD/svg11.dtd">
<svg width="100%" height="100%" viewBox="0 0 928 291" version="1.1" xmlns="http://www.w3.org/2000/svg" xmlns:xlink="http://www.w3.org/1999/xlink" xml:space="preserve" xmlns:serif="http://www.serif.com/" style="fill-rule:evenodd;clip-rule:evenodd;">
    <g transform="matrix(1,0,0,1,61.5,160.869)">
        <g id="depth-section" serif:id="depth section">
            <path d="M0,26.525L1.203,26.525L2.298,26.269L3.5,26.218L4.704,26.423L5.907,27.396L7.111,27.294L8.314,26.679L9.408,26.73L11.815,26.73L13.019,26.576L14.222,26.576L15.425,26.679L16.52,26.628L17.723,26.525L18.926,26.833L20.129,27.037L21.332,27.14L22.536,27.191L23.63,26.781L24.833,26.474L26.037,26.986L27.24,27.037L28.444,27.088L29.647,27.14L30.741,27.191L31.944,27.242L33.148,27.294L34.351,27.344L35.555,27.396L36.757,27.447L37.853,28.164L39.055,28.983L40.259,29.649L41.462,30.058L42.666,29.136L43.869,28.42L44.962,28.676L46.166,28.625L47.37,27.396L48.574,26.525L49.777,26.781L50.98,27.396L52.074,27.754L53.278,28.062L54.48,27.6L55.684,26.833L56.887,27.088L58.091,27.088L59.294,27.294L60.388,27.549L61.591,27.652L62.795,27.754L63.999,27.396L65.203,27.14L66.405,27.652L67.5,28.164L69.906,29.29L71.109,29.854L72.313,29.956L73.516,30.058L74.61,30.366L75.814,30.827L77.017,30.929L78.22,30.622L79.424,30.109L80.628,29.802L81.721,29.546L82.925,29.649L84.128,29.7L85.332,29.086L86.535,28.471L87.738,27.908L88.833,27.396L90.036,27.344L91.239,27.908L92.442,28.01L93.646,27.549L94.849,27.652L95.942,27.498L97.146,27.549L100.757,27.549L101.96,27.447L103.054,27.294L104.258,27.088L105.46,26.986L106.665,27.14L107.867,27.396L109.071,27.908L110.165,28.368L111.369,28.727L112.571,29.086L113.775,29.341L114.979,29.649L116.183,29.854L117.276,30.058L118.479,30.212L119.683,30.417L120.887,30.519L122.09,30.57L123.292,30.673L124.388,30.724L125.59,30.775L126.794,30.827L127.997,30.929L129.2,30.98L130.404,31.031L131.498,31.134L132.701,31.185L133.905,31.288L135.108,31.338L136.312,31.441L137.515,31.544L138.609,31.595L139.812,31.697L141.016,31.799L142.219,31.902L143.422,31.953L144.625,32.056L145.829,32.158L146.923,32.26L148.126,32.363L150.534,32.363L151.737,32.414L154.034,32.414L155.238,32.465L157.645,32.465L158.847,32.517L161.145,32.517L162.349,32.568L168.256,32.568L169.459,32.517L171.867,32.517L173.07,32.465L176.57,32.465L177.774,32.414L182.479,32.414L183.681,32.465L186.088,32.465L187.292,32.517L189.589,32.517L190.793,32.568L193.199,32.568L194.402,32.619L196.7,32.619L197.904,32.67L201.514,32.67L202.717,32.721L203.811,32.721L205.014,32.773L207.422,32.875L209.828,32.977L210.922,33.028L212.125,33.08L213.329,33.131L214.532,33.182L215.735,33.285L216.939,33.336L218.033,33.387L220.439,33.489L221.643,33.541L222.847,33.591L224.05,33.643L225.253,33.694L226.348,33.745L227.551,33.797L229.957,33.899L231.161,33.95L232.364,34.001L233.458,34.053L234.661,34.104L235.865,34.207L237.068,34.257L238.272,34.309L239.475,34.359L240.569,34.411L241.773,34.462L242.977,34.565L244.179,34.616L245.383,34.667L246.586,34.718L247.68,34.769L248.884,34.82L250.086,34.872L252.494,34.974L253.697,35.025L254.791,35.025L255.995,35.077L257.198,35.128L258.402,35.179L259.604,35.025L260.808,35.025L261.902,35.077L263.106,35.077L264.309,35.128L266.715,35.128L267.919,35.179L283.235,35.179L284.438,35.128L290.346,35.128L291.549,35.077L296.363,35.077L297.457,35.025L303.474,35.025L304.678,34.974L312.882,34.974L314.086,35.025L316.493,35.025L317.695,35.077L318.899,35.077L319.993,35.128L321.196,35.128L322.4,35.179L323.604,35.384L324.807,35.384L326.011,35.588L327.104,34.411L328.308,34.718L329.511,34.872L330.714,35.025L331.918,35.435L333.121,35.486L334.216,35.23L335.418,35.486L336.622,35.486L337.825,35.333L339.029,35.435L340.232,34.82L341.327,35.025L342.529,34.257L343.733,34.309L344.937,34.257L346.14,33.848L347.343,34.001L348.437,34.155L349.64,34.257L350.844,33.591L352.047,33.336L353.25,34.053L354.454,34.872L355.548,35.691L356.752,35.64L357.955,35.896L359.158,36.664L360.362,36.92L361.565,36.254L362.659,36.254L363.863,35.947L365.065,35.538L366.269,35.538L367.473,35.742L368.676,35.896L369.77,35.896L370.973,35.435L372.177,35.486L373.38,36.101L374.583,36.049L375.787,35.538L376.881,35.025L378.084,35.179L379.288,35.435L380.492,35.333L381.694,35.179L382.898,34.565L383.992,34.411L385.195,34.82L386.398,34.616L387.602,34.718L388.805,35.435L390.009,34.718L391.212,34.155L392.307,33.745L393.509,34.053L394.713,34.872L395.917,34.718L397.12,34.616L398.323,34.513L399.417,34.923L400.62,35.077L401.824,35.128L403.027,35.128L404.231,35.179L405.434,34.616L406.528,34.207L407.732,34.513L408.935,35.179L410.138,35.282L411.342,35.077L412.545,34.923L413.639,34.923L414.843,35.128L416.046,35.077L417.249,34.769L418.453,34.769L419.656,34.872L420.75,34.974L421.954,35.077L423.157,35.23L424.36,35.179L425.563,35.179L426.767,35.128L427.861,34.974L429.064,34.923L430.268,34.872L431.472,35.025L432.674,34.82L433.878,34.923L434.972,34.667L436.175,34.411L437.379,34.411L438.583,34.718L439.786,34.923L440.989,35.077L442.083,35.333L443.287,35.128L444.489,34.718L445.693,34.411L446.897,34.359L448.1,34.309L449.194,34.257L450.397,34.207L451.601,34.207L452.804,34.257L454.008,34.565L455.211,34.718L456.305,34.616L457.508,34.513L458.712,34.411L459.915,34.359L461.118,34.513L462.322,34.667L463.416,35.333L464.619,35.588L465.823,35.384L467.026,35.486L468.229,35.794L469.433,35.538L470.637,35.384L471.73,35.128L472.934,35.179L474.137,35.64L475.341,35.998L476.543,36.152L477.748,36.049L478.841,35.896L480.044,35.691L481.248,35.486L482.452,35.742L483.654,35.742L484.858,35.691L485.952,35.64L487.156,35.64L488.359,35.588L489.562,35.588L490.766,35.538L491.969,35.486L493.063,35.179L494.267,35.179L495.47,35.128L496.673,34.513L497.877,33.848L499.08,34.001L500.174,34.718L501.377,34.616L502.581,34.616L503.784,34.207L504.988,33.541L506.191,32.773L507.285,31.953L508.488,31.031L509.692,30.109L510.896,29.29L513.302,28.062L514.396,27.447L515.599,26.833L516.803,26.576L518.006,26.474L519.209,26.679L520.413,26.781L521.507,27.14L522.711,28.01L523.914,28.164L525.117,28.625L526.321,29.188L527.524,29.29L528.618,29.649L529.822,29.546L531.024,29.188L532.228,28.471L533.432,28.01L534.634,28.112L535.729,28.164L536.932,28.112L538.136,27.805L539.339,27.396L540.542,26.935L541.746,26.576L542.839,26.423L544.043,26.115L545.247,26.065L546.451,26.218L547.653,25.911L548.857,26.013L550.061,26.013L551.154,26.065L552.357,26.218L553.561,25.655L554.764,25.501L555.968,25.296L557.171,25.296L558.266,24.989L559.468,25.194L560.672,25.296L561.876,25.245L563.079,25.501L564.282,25.655L565.376,25.911L566.579,26.115L567.783,26.269L568.986,26.269L570.189,26.32L571.393,26.525L572.487,26.73L573.691,26.935L574.894,26.884L576.097,26.679L577.301,26.525L578.504,26.576L579.598,26.628L580.802,26.576L582.005,26.525L583.208,26.628L584.412,26.218L585.615,24.887L586.708,24.682L587.913,24.938L589.116,25.296L590.319,25.655L591.522,25.911L592.726,25.962L593.82,25.808L595.023,25.399L596.227,25.655L597.431,25.859L598.633,25.655L599.837,25.552L600.931,25.655L602.134,25.808L603.338,25.911L604.542,26.115L605.744,26.218L606.948,26.884L608.042,27.191L609.246,27.447L610.448,27.549L611.652,27.908L612.856,28.164L614.059,28.676L615.153,29.393L617.56,29.393L618.763,29.29L619.967,29.239L621.17,29.188L622.264,29.239L623.467,29.751L624.671,29.905L625.874,29.956L627.077,30.109L628.281,30.315L629.375,30.007L630.578,29.7L631.782,29.649L634.188,29.751L635.392,29.905L636.596,29.854L637.689,29.956L638.893,30.007L640.096,30.058L641.299,30.212L642.502,30.263L643.707,29.751L644.8,29.239L646.003,29.188L647.207,28.932L648.411,28.625L649.613,28.676L650.817,28.727L651.911,28.676L653.115,28.266L654.318,28.317L655.521,28.266L656.725,28.164L657.928,28.062L659.022,27.6L660.226,27.549L661.429,27.242L662.632,27.088L663.836,26.73L665.039,26.32L666.133,25.859L667.336,25.245L668.54,24.375L669.743,23.401L670.947,22.889L672.15,22.019L673.244,21.302L674.447,20.534L675.651,19.97L676.854,19.356L678.058,18.793L679.262,18.178L680.355,17.513L681.559,16.898L682.762,16.181L683.965,15.515L685.167,14.696L686.371,14.082L687.466,13.519L688.67,12.955L689.872,12.443L691.075,11.624L692.279,10.856L693.483,10.139L694.576,9.114L695.78,8.398L696.983,7.886L698.187,7.22L699.391,6.4L700.593,5.53L701.687,4.813L702.891,4.046L704.095,3.072L705.297,2.56L706.5,2.458L707.704,2.304L708.797,2.15L710.001,1.945L711.205,1.69L712.409,1.536L713.612,1.382L714.816,1.229L716.02,1.024L717.113,0.819L718.316,0.614L719.521,0.358L720.722,0L721.926,-0.358L723.129,-0.666L724.225,-0.205L725.426,-0.564L726.63,-0.717L727.834,-1.024L729.038,-1.229L730.241,-1.485L731.334,-1.639L732.538,-1.741L733.742,-1.741L734.945,-2.049L736.147,-2.305L737.351,-2.612L738.446,-2.868L739.65,-3.124L740.852,-3.431L742.055,-3.687L743.259,-3.943L744.463,-4.148L745.556,-4.507L746.76,-4.814L747.963,-5.018L749.167,-5.377L750.371,-5.531L751.574,-5.838L752.668,-6.094L753.871,-6.298L755.075,-6.555L756.277,-6.76L757.48,-7.016L758.685,-7.221L759.779,-7.476L760.981,-7.681L762.186,-7.937L764.592,-8.347L765.796,-8.5L766.889,-8.654L768.093,-8.859L769.297,-8.91L770.5,-9.166L771.702,-9.269L772.906,-9.422L774.001,-9.474L775.205,-9.576L776.406,-9.627L777.61,-9.627L778.814,-9.678L782.314,-9.678L783.518,-9.73L785.926,-9.73L787.127,-9.781L788.223,-9.832L789.426,-9.832L790.63,-9.883L791.832,-9.934L793.035,-9.986L794.239,-10.037L795.332,-10.037L797.74,-10.139L798.943,-10.19L800.146,-10.242L801.352,-10.242L802.555,-10.293L803.648,-10.344L804.852,-10.395" style="fill:none;fill-rule:nonzero;stroke:rgb(46,49,145);stroke-width:1.31px;"/>
        </g>
    </g>
</svg>
