<?xml version="1.0" encoding="UTF-8" standalone="no"?>
<!DOCTYPE svg PUBLIC "-//W3C//DTD SVG 1.1//EN" "http://www.w3.org/Graphics/SVG/1.1/DTD/svg11.dtd">
<svg width="100%" height="100%" viewBox="0 0 928 291" version="1.1" xmlns="http://www.w3.org/2000/svg" xmlns:xlink="http://www.w3.org/1999/xlink" xml:space="preserve" xmlns:serif="http://www.serif.com/" style="fill-rule:evenodd;clip-rule:evenodd;">
    <g transform="matrix(1,0,0,1,61.5,150.474)">
        <g id="depth-section" serif:id="depth section">
            <path d="M0,35.231L4.704,35.231L5.907,35.18L17.723,35.18L18.926,35.128L21.332,35.026L22.536,34.923L23.63,34.872L24.833,34.821L26.037,34.77L28.444,34.77L29.647,34.821L31.944,34.821L33.148,34.872L34.351,34.923L35.555,34.923L36.757,34.975L37.853,35.128L39.055,35.18L40.259,35.128L41.462,35.077L42.666,35.026L43.869,34.923L44.962,34.923L46.166,34.872L47.37,34.77L48.574,34.719L50.98,34.719L52.074,34.77L53.278,34.923L54.48,34.872L55.684,34.668L56.887,34.565L58.091,34.514L59.294,34.565L60.388,34.565L61.591,34.616L62.795,34.616L63.999,34.668L65.203,34.719L66.405,34.77L67.5,34.77L68.703,34.821L69.906,34.821L71.109,34.872L72.313,34.872L73.516,34.821L74.61,34.77L75.814,34.719L77.017,34.668L78.22,34.616L80.628,34.514L84.128,34.514L85.332,34.411L86.535,34.207L87.738,34.104L88.833,34.002L90.036,33.951L91.239,34.002L92.442,34.104L98.35,34.104L99.554,34.155L100.757,34.258L103.054,34.258L104.258,34.207L106.665,34.207L107.867,34.155L109.071,34.155L110.165,34.104L111.369,34.104L112.571,34.155L113.775,34.207L114.979,34.258L117.276,34.258L118.479,34.207L119.683,34.207L120.887,34.155L122.09,34.155L123.292,34.104L125.59,34.104L126.794,34.053L127.997,34.053L129.2,34.002L130.404,34.002L131.498,33.951L133.905,33.951L135.108,33.899L138.609,33.899L139.812,33.848L146.923,33.848L148.126,33.797L156.441,33.797L157.645,33.746L162.349,33.746L163.552,33.694L165.959,33.694L167.163,33.643L168.256,33.643L169.459,33.592L170.663,33.592L171.867,33.541L173.07,33.49L174.273,33.49L175.368,33.439L176.57,33.387L177.774,33.387L178.977,33.336L180.181,33.336L181.384,33.285L182.479,33.285L183.681,33.233L184.885,33.233L186.088,33.182L187.292,33.182L188.495,33.131L189.589,33.131L190.793,33.08L191.997,33.08L193.199,33.029L194.402,33.029L195.606,32.978L197.904,32.978L199.106,32.926L200.31,32.926L201.514,32.875L202.717,32.875L203.811,32.824L206.218,32.824L207.422,32.773L209.828,32.773L210.922,32.722L212.125,32.773L213.329,32.722L226.348,32.722L227.551,32.67L229.957,32.67L231.161,32.619L233.458,32.619L234.661,32.568L235.865,32.568L237.068,32.517L239.475,32.517L240.569,32.465L242.977,32.465L244.179,32.414L245.383,32.414L246.586,32.363L247.68,32.363L248.884,32.312L250.086,32.312L251.29,32.261L252.494,32.261L253.697,32.21L254.791,32.158L255.995,32.158L257.198,32.107L258.402,32.056L265.512,32.056L266.715,32.107L269.013,32.107L270.216,32.056L284.438,32.056L285.641,32.004L293.957,32.004L295.159,31.954L304.678,31.954L305.771,31.902L321.196,31.902L322.4,31.851L323.604,31.851L324.807,31.8L327.104,31.8L328.308,31.749L329.511,31.749L330.714,31.698L331.918,31.698L333.121,31.646L334.216,31.646L335.418,31.595L336.622,31.595L337.825,31.544L339.029,31.493L340.232,31.493L341.327,31.442L342.529,31.442L343.733,31.39L344.937,31.39L346.14,31.339L348.437,31.339L349.64,31.288L352.047,31.288L353.25,31.236L355.548,31.236L356.752,31.185L359.158,31.185L360.362,31.134L362.659,31.134L363.863,31.185L368.676,31.185L369.77,31.134L370.973,31.031L378.084,31.031L379.288,30.981L380.492,30.981L381.694,30.929L383.992,30.929L385.195,30.878L386.398,30.775L387.602,30.725L388.805,30.673L398.323,30.673L399.417,30.622L400.62,30.622L401.824,30.571L403.027,30.571L404.231,30.52L405.434,30.52L406.528,30.469L407.732,30.469L408.935,30.418L410.138,30.418L411.342,30.366L412.545,30.366L413.639,30.315L414.843,30.315L416.046,30.264L417.249,30.264L418.453,30.212L419.656,30.212L420.75,30.162L421.954,30.162L423.157,30.11L424.36,30.11L425.563,30.059L426.767,30.059L427.861,30.008L429.064,29.956L430.268,29.956L431.472,29.905L436.175,29.905L437.379,29.802L438.583,29.752L439.786,29.7L440.989,29.649L442.083,29.598L443.287,29.546L444.489,29.444L446.897,29.342L448.1,29.342L449.194,29.291L450.397,29.24L451.601,29.137L452.804,29.086L454.008,29.035L455.211,28.983L456.305,28.932L457.508,28.881L458.712,28.83L461.118,28.728L462.322,28.728L463.416,28.676L464.619,28.625L465.823,28.625L467.026,28.574L468.229,28.625L469.433,28.625L470.637,28.523L471.73,28.471L472.934,28.42L474.137,28.318L475.341,28.267L476.543,28.215L477.748,28.164L478.841,28.113L480.044,28.113L481.248,28.062L483.654,28.062L484.858,28.01L487.156,28.01L488.359,27.96L489.562,27.908L490.766,27.806L491.969,27.754L493.063,27.703L494.267,27.601L496.673,27.499L497.877,27.396L499.08,27.345L500.174,27.294L501.377,27.294L502.581,27.242L508.488,27.242L509.692,27.191L512.099,27.191L513.302,27.14L514.396,27.089L515.599,27.038L516.803,26.986L518.006,26.986L519.209,26.935L525.117,26.935L526.321,26.986L528.618,26.986L529.822,27.038L533.432,27.038L534.634,26.986L535.729,26.986L536.932,26.935L538.136,26.935L539.339,26.884L540.542,26.781L541.746,26.679L542.839,26.628L544.043,26.525L546.451,26.321L547.653,26.218L550.061,26.116L551.154,26.064L557.171,26.064L558.266,26.013L560.672,26.013L561.876,25.962L566.579,25.962L567.783,25.911L568.986,25.809L570.189,25.706L571.393,25.604L572.487,25.553L573.691,25.604L574.894,25.655L576.097,25.399L577.301,25.194L578.504,25.091L579.598,25.091L580.802,24.989L583.208,24.887L584.412,24.784L585.615,24.733L586.708,24.682L587.913,24.733L589.116,24.784L590.319,24.784L591.522,24.733L592.726,24.63L593.82,24.478L595.023,24.222L596.227,24.016L597.431,24.016L598.633,24.068L600.931,24.068L602.134,24.17L603.338,24.272L604.542,24.375L605.744,24.528L606.948,24.784L608.042,24.887L609.246,25.041L610.448,25.143L611.652,24.989L612.856,25.041L614.059,25.091L615.153,25.091L616.356,24.989L617.56,24.733L618.763,24.63L619.967,24.58L621.17,24.478L622.264,24.375L623.467,24.324L624.671,24.222L625.874,23.811L627.077,23.606L628.281,23.453L629.375,22.839L630.578,22.02L631.782,21.712L632.985,21.559L634.188,21.2L635.392,20.944L636.596,20.739L637.689,20.483L638.893,20.329L640.096,20.176L641.299,20.073L642.502,19.971L643.707,19.817L644.8,19.715L646.003,19.766L647.207,19.51L648.411,19.305L649.613,18.896L650.817,18.281L651.911,17.564L653.115,16.848L654.318,16.181L655.521,15.619L656.725,15.26L657.928,15.106L659.022,15.414L660.226,15.823L661.429,16.284L662.632,16.181L663.836,15.465L665.039,14.543L666.133,13.57L667.336,12.648L668.54,11.214L669.743,9.73L670.947,8.398L672.15,7.066L673.244,6.043L674.447,5.582L675.651,5.274L676.854,5.019L678.058,4.865L679.262,4.762L680.355,4.66L681.559,4.608L682.762,4.506L683.965,4.455L685.167,4.404L686.371,4.301L687.466,4.25L688.67,4.199L689.872,4.148L691.075,4.045L692.279,3.994L693.483,3.892L694.576,3.84L695.78,3.84L696.983,3.79L698.187,3.738L699.391,3.738L700.593,3.687L701.687,3.636L702.891,3.636L704.095,3.585L705.297,3.585L706.5,3.534L707.704,3.534L708.797,3.482L710.001,3.482L712.409,3.38L713.612,3.329L714.816,3.329L716.02,3.278L717.113,3.226L718.316,3.175L719.521,3.175L720.722,3.124L721.926,3.124L723.129,3.073L724.225,3.021L725.426,2.867L726.63,2.714L727.834,2.663L729.038,2.561L730.241,2.509L731.334,2.459L732.538,2.407L733.742,2.356L734.945,2.305L736.147,2.253L737.351,2.202L738.446,2.1L739.65,2.048L740.852,1.998L742.055,1.946L743.259,1.895L744.463,1.792L745.556,1.639L746.76,1.536L747.963,1.332L749.167,1.178L750.371,1.127L752.668,1.127L753.871,1.076L758.685,1.076L759.779,1.024L764.592,1.024L765.796,0.973L768.093,0.973L769.297,0.922L770.5,0.922L771.702,0.871L772.906,0.871L774.001,0.819L775.205,0.819L776.406,0.768L777.61,0.768L778.814,0.717L780.018,0.717L781.111,0.666L785.926,0.666L787.127,0.615L788.223,0.564L789.426,0.564L790.63,0.512L791.832,0.461L793.035,0.41L794.239,0.359L795.332,0.359L796.536,0.307L797.74,0.256L800.146,0.154L801.352,0.154L802.555,0.103L803.648,0.051L804.852,0" style="fill:none;fill-rule:nonzero;stroke:rgb(88,89,91);stroke-width:0.65px;"/>
        </g>
    </g>
</svg>
