<?xml version="1.0" encoding="UTF-8" standalone="no"?>
<!DOCTYPE svg PUBLIC "-//W3C//DTD SVG 1.1//EN" "http://www.w3.org/Graphics/SVG/1.1/DTD/svg11.dtd">
<svg width="100%" height="100%" viewBox="0 0 928 291" version="1.1" xmlns="http://www.w3.org/2000/svg" xmlns:xlink="http://www.w3.org/1999/xlink" xml:space="preserve" xmlns:serif="http://www.serif.com/" style="fill-rule:evenodd;clip-rule:evenodd;stroke-miterlimit:10;">
    <g transform="matrix(1,0,0,1,61.5,150.474)">
        <g id="depth-section" serif:id="depth section">
            <path d="M0,34.821L3.5,34.821L4.704,34.77L8.314,34.77L9.408,34.718L10.611,34.718L11.815,34.667L13.019,34.667L14.222,34.616L15.425,34.616L16.52,34.565L17.723,34.565L18.926,34.513L29.647,34.513L30.741,34.462L31.944,34.462L33.148,34.411L34.351,34.411L35.555,34.36L36.757,34.36L37.853,34.309L39.055,34.309L40.259,34.258L42.666,34.258L43.869,34.206L46.166,34.206L47.37,34.155L56.887,34.155L58.091,34.104L59.294,34.052L60.388,34.002L61.591,33.95L65.203,33.797L67.5,33.797L68.703,33.745L72.313,33.745L73.516,33.694L79.424,33.694L80.628,33.745L86.535,33.745L87.738,33.694L88.833,33.592L90.036,33.541L91.239,33.489L92.442,33.489L93.646,33.438L94.849,33.438L95.942,33.387L98.35,33.387L99.554,33.336L112.571,33.336L113.775,33.387L119.683,33.387L120.887,33.438L129.2,33.438L130.404,33.489L133.905,33.489L135.108,33.438L136.312,33.438L137.515,33.387L139.812,33.387L141.016,33.336L142.219,33.336L143.422,33.284L145.829,33.284L146.923,33.233L148.126,33.233L149.33,33.182L151.737,33.182L152.94,33.131L154.034,33.131L155.238,33.08L157.645,33.08L158.847,33.029L160.051,33.029L161.145,32.977L169.459,32.977L170.663,33.029L173.07,33.029L174.273,33.08L176.57,33.08L177.774,33.131L182.479,33.131L183.681,33.08L186.088,33.08L187.292,33.029L188.495,33.029L189.589,32.977L191.997,32.977L193.199,32.926L195.606,32.926L196.7,32.875L199.106,32.875L200.31,32.823L202.717,32.823L203.811,32.772L205.014,32.721L206.218,32.721L207.422,32.619L209.828,32.517L210.922,32.465L212.125,32.414L213.329,32.311L214.532,32.261L215.735,32.209L216.939,32.158L218.033,32.107L219.236,32.004L220.439,31.953L221.643,31.902L222.847,31.85L224.05,31.8L225.253,31.748L226.348,31.697L227.551,31.646L228.754,31.594L229.957,31.544L231.161,31.492L232.364,31.442L233.458,31.39L234.661,31.339L235.865,31.288L237.068,31.236L238.272,31.185L239.475,31.134L240.569,31.083L241.773,30.98L242.977,30.929L244.179,30.878L245.383,30.827L246.586,30.775L247.68,30.724L248.884,30.673L250.086,30.673L251.29,30.621L252.494,30.571L253.697,30.519L254.791,30.468L255.995,30.468L257.198,30.417L258.402,30.365L259.604,30.365L260.808,30.315L261.902,30.315L263.106,30.263L265.512,30.263L266.715,30.212L286.845,30.212L288.049,30.263L292.753,30.263L293.957,30.315L301.066,30.315L302.27,30.365L314.086,30.365L315.289,30.315L317.695,30.315L318.899,30.263L319.993,30.263L321.196,30.212L322.4,30.212L323.604,30.161L324.807,30.11L326.011,30.11L327.104,30.059L328.308,30.008L329.511,29.956L330.714,29.956L331.918,29.905L333.121,29.854L334.216,29.802L335.418,29.751L336.622,29.7L337.825,29.649L339.029,29.598L340.232,29.546L341.327,29.546L342.529,29.444L344.937,29.342L346.14,29.29L347.343,29.239L348.437,29.188L349.64,29.136L350.844,29.086L352.047,29.034L353.25,28.983L354.454,28.932L355.548,28.881L356.752,28.83L357.955,28.779L359.158,28.727L360.362,28.676L361.565,28.676L362.659,28.625L363.863,28.573L365.065,28.522L367.473,28.42L368.676,28.369L369.77,28.369L370.973,28.318L372.177,28.266L374.583,28.164L375.787,28.113L376.881,28.113L378.084,28.061L380.492,27.959L381.694,27.908L382.898,27.857L383.992,27.857L385.195,27.805L386.398,27.754L387.602,27.703L388.805,27.652L390.009,27.601L391.212,27.601L392.307,27.55L393.509,27.498L395.917,27.396L397.12,27.396L398.323,27.344L399.417,27.293L400.62,27.242L401.824,27.242L403.027,27.191L404.231,27.14L405.434,27.089L406.528,27.089L407.732,27.037L408.935,26.986L410.138,26.986L411.342,26.935L412.545,26.884L413.639,26.832L414.843,26.832L417.249,26.73L418.453,26.73L419.656,26.679L420.75,26.628L421.954,26.628L423.157,26.576L424.36,26.525L425.563,26.525L426.767,26.474L427.861,26.474L429.064,26.423L430.268,26.371L431.472,26.321L432.674,26.269L433.878,26.167L434.972,26.115L436.175,25.962L438.583,26.064L440.989,26.064L442.083,26.115L443.287,26.064L444.489,26.064L445.693,26.013L446.897,26.013L448.1,25.962L449.194,25.91L450.397,25.86L451.601,25.808L452.804,25.757L454.008,25.706L455.211,25.706L456.305,25.654L457.508,25.603L458.712,25.552L459.915,25.501L461.118,25.449L462.322,25.399L463.416,25.347L464.619,25.297L465.823,25.245L468.229,25.143L469.433,25.091L470.637,25.04L471.73,24.989L472.934,24.887L474.137,24.835L475.341,24.784L476.543,24.733L477.748,24.682L478.841,24.63L480.044,24.528L481.248,24.477L482.452,24.374L483.654,24.323L484.858,24.221L485.952,24.17L487.156,24.068L488.359,23.965L489.562,23.863L490.766,23.76L491.969,23.658L493.063,23.606L494.267,23.453L495.47,23.35L496.673,23.248L497.877,23.145L499.08,23.043L500.174,22.941L501.377,22.839L502.581,22.736L503.784,22.633L504.988,22.531L506.191,22.428L507.285,22.378L508.488,22.275L509.692,22.172L510.896,22.07L512.099,21.968L513.302,21.865L514.396,21.763L515.599,21.66L516.803,21.558L518.006,21.456L519.209,21.404L520.413,21.302L521.507,21.2L522.711,21.097L523.914,20.995L525.117,20.892L526.321,20.842L527.524,20.739L528.618,20.636L529.822,20.585L531.024,20.483L532.228,20.381L533.432,20.329L534.634,20.227L535.729,20.175L536.932,20.073L538.136,20.022L539.339,19.92L540.542,19.868L541.746,19.817L542.839,19.715L544.043,19.663L545.247,19.561L546.451,19.509L547.653,19.407L548.857,19.305L550.061,19.202L551.154,19.1L552.357,18.998L553.561,18.895L554.764,18.793L555.968,18.639L557.171,18.537L558.266,18.383L559.468,18.229L560.672,18.076L561.876,17.871L563.079,17.717L564.282,17.564L565.376,17.41L566.579,17.205L567.783,17.051L568.986,16.898L570.189,16.694L571.393,16.54L572.487,16.335L573.691,16.13L574.894,15.976L576.097,15.771L577.301,15.618L578.504,15.413L579.598,15.208L580.802,15.004L583.208,14.594L584.412,14.389L585.615,14.184L586.708,13.98L587.913,13.775L589.116,13.519L591.522,13.109L592.726,12.904L593.82,12.648L595.023,12.443L596.227,12.238L597.431,11.982L598.633,11.778L599.837,11.572L600.931,11.317L602.134,11.112L603.338,10.906L604.542,10.702L605.744,10.447L606.948,10.241L608.042,10.037L609.246,9.831L610.448,9.627L612.856,9.217L614.059,9.064L615.153,8.859L616.356,8.654L617.56,8.5L618.763,8.296L619.967,8.142L621.17,7.937L622.264,7.783L623.467,7.63L624.671,7.425L625.874,7.271L627.077,7.118L628.281,6.964L629.375,6.81L630.578,6.657L631.782,6.503L632.985,6.349L634.188,6.196L636.596,5.888L637.689,5.735L638.893,5.581L640.096,5.479L641.299,5.325L642.502,5.172L643.707,5.069L644.8,4.916L646.003,4.762L647.207,4.659L648.411,4.506L649.613,4.404L650.817,4.301L651.911,4.148L653.115,4.045L654.318,3.943L655.521,3.789L656.725,3.686L657.928,3.533L659.022,3.43L660.226,3.328L661.429,3.175L662.632,3.072L663.836,2.97L665.039,2.867L666.133,2.765L667.336,2.714L668.54,2.611L669.743,2.56L670.947,2.458L672.15,2.406L673.244,2.355L674.447,2.304L675.651,2.304L676.854,2.253L678.058,2.201L679.262,2.151L680.355,2.151L681.559,2.099L682.762,2.048L683.965,2.048L685.167,1.997L686.371,1.946L687.466,1.895L688.67,1.895L689.872,1.843L691.075,1.792L692.279,1.792L693.483,1.741L694.576,1.741L695.78,1.69L696.983,1.69L698.187,1.639L699.391,1.639L700.593,1.587L701.687,1.587L702.891,1.536L705.297,1.536L706.5,1.485L707.704,1.485L708.797,1.434L710.001,1.434L711.205,1.383L712.409,1.383L713.612,1.331L714.816,1.331L716.02,1.383L718.316,1.383L719.521,1.331L721.926,1.331L723.129,1.383L730.241,1.383L731.334,1.331L733.742,1.331L734.945,1.28L738.446,1.28L739.65,1.229L743.259,1.229L744.463,1.178L746.76,1.178L747.963,1.126L752.668,1.126L753.871,1.075L758.685,1.075L759.779,1.024L764.592,1.024L765.796,0.973L768.093,0.973L769.297,0.922L770.5,0.922L771.702,0.87L772.906,0.87L774.001,0.819L775.205,0.819L776.406,0.768L777.61,0.768L778.814,0.717L780.018,0.717L781.111,0.665L785.926,0.665L787.127,0.614L788.223,0.563L789.426,0.563L790.63,0.512L791.832,0.461L793.035,0.409L794.239,0.359L795.332,0.359L796.536,0.307L797.74,0.256L800.146,0.154L801.352,0.154L802.555,0.102L803.648,0.051L804.852,0" style="fill:none;fill-rule:nonzero;stroke:rgb(5,0,0);stroke-width:0.48px;"/>
        </g>
    </g>
</svg>
