<?xml version="1.0" encoding="UTF-8" standalone="no"?>
<!DOCTYPE svg PUBLIC "-//W3C//DTD SVG 1.1//EN" "http://www.w3.org/Graphics/SVG/1.1/DTD/svg11.dtd">
<svg width="100%" height="100%" viewBox="0 0 928 291" version="1.1" xmlns="http://www.w3.org/2000/svg" xmlns:xlink="http://www.w3.org/1999/xlink" xml:space="preserve" xmlns:serif="http://www.serif.com/" style="fill-rule:evenodd;clip-rule:evenodd;">
    <g transform="matrix(1,0,0,1,61.5,159.537)">
        <g id="depth-section" serif:id="depth section">
            <path d="M0,27.857L1.203,27.857L2.298,27.601L3.5,27.55L4.704,27.755L5.907,28.728L7.111,28.626L8.314,28.011L9.408,28.062L11.815,28.062L13.019,27.908L14.222,27.908L15.425,28.011L16.52,27.96L17.723,27.857L18.926,28.165L20.129,28.369L21.332,28.472L22.536,28.523L23.63,28.113L24.833,27.806L26.037,28.318L27.24,28.369L28.444,28.42L29.647,28.472L30.741,28.523L31.944,28.574L33.148,28.626L34.351,28.676L35.555,28.728L36.757,28.779L37.853,29.496L39.055,30.315L40.259,30.981L41.462,31.39L42.666,30.468L43.869,29.752L44.962,30.008L46.166,29.957L47.37,28.728L48.574,27.857L49.777,28.113L50.98,28.728L52.074,29.086L53.278,29.394L54.48,28.932L55.684,28.165L56.887,28.42L58.091,28.42L59.294,28.626L60.388,28.881L61.591,28.984L62.795,29.086L63.999,28.728L65.203,28.472L66.405,28.984L67.5,29.496L69.906,30.622L71.109,31.186L72.313,31.288L73.516,31.39L74.61,31.698L75.814,32.159L77.017,32.261L78.22,31.954L79.424,31.441L80.628,31.134L81.721,30.878L82.925,30.981L84.128,31.032L85.332,30.418L86.535,29.803L87.738,29.24L88.833,28.728L90.036,28.676L91.239,29.24L92.442,29.342L93.646,28.881L94.849,28.984L95.942,28.83L97.146,28.881L100.757,28.881L101.96,28.779L103.054,28.626L104.258,28.42L105.46,28.318L106.665,28.472L107.867,28.728L109.071,29.24L110.165,29.7L111.369,30.059L112.571,30.418L113.775,30.673L114.979,30.981L116.183,31.186L117.276,31.39L118.479,31.544L119.683,31.749L120.887,31.851L122.09,31.902L123.292,32.005L124.388,32.056L125.59,32.107L126.794,32.159L127.997,32.261L129.2,32.312L130.404,32.363L131.498,32.466L132.701,32.517L133.905,32.62L135.108,32.67L136.312,32.773L137.515,32.876L138.609,32.927L139.812,33.029L141.016,33.131L142.219,33.234L143.422,33.285L144.625,33.388L145.829,33.49L146.923,33.592L148.126,33.695L150.534,33.695L151.737,33.746L154.034,33.746L155.238,33.797L157.645,33.797L158.847,33.849L161.145,33.849L162.349,33.9L168.256,33.9L169.459,33.849L171.867,33.849L173.07,33.797L176.57,33.797L177.774,33.746L182.479,33.746L183.681,33.797L186.088,33.797L187.292,33.849L189.589,33.849L190.793,33.9L193.199,33.9L194.402,33.951L196.7,33.951L197.904,34.002L201.514,34.002L202.717,34.053L203.811,34.053L205.014,34.105L207.422,34.207L209.828,34.309L210.922,34.36L212.125,34.412L213.329,34.463L214.532,34.514L215.735,34.617L216.939,34.668L218.033,34.719L220.439,34.821L221.643,34.873L222.847,34.923L224.05,34.975L225.253,35.026L226.348,35.077L227.551,35.129L229.957,35.231L231.161,35.282L232.364,35.333L233.458,35.385L234.661,35.436L235.865,35.539L237.068,35.589L238.272,35.641L239.475,35.691L240.569,35.743L241.773,35.794L242.977,35.897L244.179,35.948L245.383,35.999L246.586,36.05L247.68,36.101L248.884,36.152L250.086,36.204L252.494,36.306L253.697,36.357L254.791,36.357L255.995,36.409L257.198,36.46L258.402,36.511L259.604,36.357L260.808,36.357L261.902,36.409L263.106,36.409L264.309,36.46L266.715,36.46L267.919,36.511L283.235,36.511L284.438,36.46L290.346,36.46L291.549,36.409L296.363,36.409L297.457,36.357L303.474,36.357L304.678,36.306L312.882,36.306L314.086,36.357L316.493,36.357L317.695,36.409L318.899,36.409L319.993,36.46L321.196,36.46L322.4,36.511L323.604,36.716L324.807,36.716L326.011,36.92L327.104,35.743L328.308,36.05L329.511,36.204L330.714,36.357L331.918,36.767L333.121,36.818L334.216,36.562L335.418,36.818L336.622,36.818L337.825,36.665L339.029,36.767L340.232,36.152L341.327,36.357L342.529,35.589L343.733,35.641L344.937,35.589L346.14,35.18L347.343,35.333L348.437,35.487L349.64,35.589L350.844,34.923L352.047,34.668L353.25,35.333L354.454,35.589L355.548,35.845L356.752,35.897L357.955,35.897L359.158,35.948L360.362,35.999L362.659,35.999L363.863,35.845L365.065,35.691L366.269,35.641L367.473,35.691L368.676,35.487L369.77,35.436L370.973,35.487L372.177,35.539L373.38,35.794L374.583,35.641L375.787,35.487L376.881,35.282L378.084,35.333L379.288,35.436L380.492,35.589L381.694,35.282L382.898,34.923L383.992,34.77L386.398,34.77L387.602,34.873L388.805,34.975L390.009,34.821L391.212,34.463L392.307,34.207L393.509,34.309L394.713,34.923L395.917,35.026L397.12,34.873L398.323,34.668L399.417,34.719L400.62,34.821L401.824,34.923L403.027,34.923L404.231,34.821L405.434,34.668L406.528,34.565L407.732,34.719L408.935,35.026L410.138,35.129L411.342,35.077L414.843,35.077L416.046,35.026L417.249,34.923L423.157,34.923L424.36,34.873L426.767,34.873L427.861,34.821L429.064,34.77L433.878,34.77L434.972,34.617L436.175,34.565L437.379,34.36L438.583,34.565L440.989,34.873L442.083,34.975L443.287,34.873L444.489,34.668L445.693,34.412L446.897,34.412L448.1,34.36L450.397,34.36L451.601,34.309L454.008,34.309L455.211,34.258L456.305,34.207L457.508,34.105L458.712,33.746L459.915,33.695L461.118,33.951L462.322,33.9L463.416,33.9L464.619,33.849L465.823,33.797L467.026,33.746L468.229,33.746L470.637,33.644L471.73,33.541L472.934,33.336L474.137,33.388L475.341,33.592L476.543,33.592L477.748,33.541L478.841,33.541L480.044,33.49L482.452,33.388L483.654,33.388L484.858,33.336L488.359,33.336L489.562,33.285L490.766,33.183L491.969,33.131L493.063,32.978L494.267,32.824L495.47,32.722L496.673,32.415L497.877,32.056L499.08,32.005L500.174,31.954L501.377,31.749L502.581,31.954L503.784,32.159L504.988,31.954L506.191,31.749L507.285,31.339L508.488,30.776L509.692,30.212L510.896,30.008L512.099,29.752L513.302,29.394L514.396,28.779L515.599,28.165L516.803,27.908L518.006,27.806L519.209,28.011L520.413,28.113L521.507,28.472L522.711,29.342L523.914,29.496L525.117,29.957L526.321,30.52L527.524,30.622L528.618,30.981L529.822,30.878L531.024,30.52L532.228,29.803L533.432,29.342L534.634,29.444L535.729,29.496L536.932,29.444L538.136,29.137L539.339,28.728L540.542,28.267L541.746,27.908L542.839,27.755L544.043,27.447L545.247,27.397L546.451,27.55L547.653,27.243L548.857,27.345L550.061,27.345L551.154,27.397L552.357,27.55L553.561,26.987L554.764,26.833L555.968,26.628L557.171,26.628L558.266,26.321L559.468,26.526L560.672,26.628L561.876,26.577L563.079,26.526L564.282,26.423L565.376,26.321L566.579,26.168L567.783,26.27L568.986,26.27L570.189,26.219L571.393,26.219L572.487,26.372L573.691,26.577L574.894,26.679L576.097,26.372L577.301,26.423L578.504,26.475L579.598,26.526L583.208,26.526L584.412,26.475L585.615,25.041L586.708,24.528L587.913,24.887L589.116,25.246L591.522,25.758L592.726,25.707L593.82,25.655L595.023,25.604L596.227,25.604L597.431,25.758L598.633,25.707L599.837,25.553L600.931,25.655L602.134,25.707L603.338,25.604L604.542,25.553L605.744,25.707L606.948,25.962L608.042,26.065L609.246,26.116L610.448,26.116L611.652,26.475L612.856,26.423L614.059,26.987L615.153,27.55L616.356,27.857L617.56,27.96L618.763,27.755L619.967,27.908L621.17,27.55L622.264,27.652L623.467,27.755L624.671,27.806L625.874,27.806L627.077,28.062L628.281,27.703L629.375,27.191L630.578,27.089L631.782,26.731L632.985,26.833L634.188,27.14L635.392,27.14L636.596,27.089L637.689,27.038L638.893,26.577L640.096,26.116L641.299,25.297L642.502,24.631L643.707,24.067L644.8,23.607L646.003,23.402L647.207,22.941L648.411,22.429L649.613,22.531L650.817,22.327L651.911,22.071L653.115,21.866L654.318,21.61L655.521,21.456L656.725,21.098L657.928,20.637L659.022,20.073L660.226,19.459L661.429,18.947L662.632,18.23L663.836,17.82L665.039,17.616L666.133,17.565L667.336,17.104L668.54,16.643L669.743,16.336L670.947,15.926L672.15,15.107L673.244,14.595L674.447,14.185L675.651,13.775L676.854,13.365L678.058,13.007L679.262,12.7L680.355,12.393L681.559,11.983L682.762,11.522L683.965,11.01L685.167,10.498L686.371,10.037L687.466,9.576L688.67,9.32L689.872,9.013L691.075,8.654L692.279,8.296L693.483,7.784L694.576,7.272L695.78,6.862L696.983,6.606L698.187,6.35L699.391,5.992L700.593,5.48L701.687,5.172L702.891,4.763L704.095,4.199L705.297,3.892L706.5,3.79L707.704,3.636L708.797,3.482L710.001,3.277L711.205,3.022L712.409,2.868L713.612,2.714L714.816,2.561L716.02,2.356L717.113,2.151L718.316,1.946L719.521,1.69L720.722,1.332L721.926,0.974L723.129,0.666L724.225,1.127L725.426,0.768L726.63,0.615L727.834,0.308L729.038,0.103L730.241,-0.153L731.334,-0.307L732.538,-0.409L733.742,-0.409L734.945,-0.717L736.147,-0.973L737.351,-1.28L738.446,-1.536L739.65,-1.792L740.852,-2.099L742.055,-2.355L743.259,-2.611L744.463,-2.816L745.556,-3.175L746.76,-3.482L747.963,-3.686L749.167,-4.045L750.371,-4.199L751.574,-4.506L752.668,-4.762L753.871,-4.966L755.075,-5.223L756.277,-5.428L757.48,-5.684L758.685,-5.889L759.779,-6.144L760.981,-6.349L762.186,-6.605L764.592,-7.015L765.796,-7.168L766.889,-7.322L768.093,-7.527L769.297,-7.578L770.5,-7.834L771.702,-7.937L772.906,-8.09L774.001,-8.142L775.205,-8.244L776.406,-8.295L777.61,-8.295L778.814,-8.346L782.314,-8.346L783.518,-8.398L785.926,-8.398L787.127,-8.449L788.223,-8.5L789.426,-8.5L790.63,-8.551L791.832,-8.602L793.035,-8.654L794.239,-8.705L795.332,-8.705L797.74,-8.807L798.943,-8.858L800.146,-8.91L801.352,-8.91L802.555,-8.961L803.648,-9.012L804.852,-9.063" style="fill:none;fill-rule:nonzero;stroke:rgb(88,89,91);stroke-width:0.65px;"/>
        </g>
    </g>
</svg>
