<?xml version="1.0" encoding="UTF-8" standalone="no"?>
<!DOCTYPE svg PUBLIC "-//W3C//DTD SVG 1.1//EN" "http://www.w3.org/Graphics/SVG/1.1/DTD/svg11.dtd">
<svg width="100%" height="100%" viewBox="0 0 928 291" version="1.1" xmlns="http://www.w3.org/2000/svg" xmlns:xlink="http://www.w3.org/1999/xlink" xml:space="preserve" xmlns:serif="http://www.serif.com/" style="fill-rule:evenodd;clip-rule:evenodd;">
    <g transform="matrix(1,0,0,1,61.5,150.474)">
        <g id="depth-section" serif:id="depth section">
            <path d="M0,35.589L3.5,35.589L4.704,35.538L17.723,35.538L18.926,35.486L21.332,35.384L22.536,35.282L23.63,35.231L24.833,35.179L26.037,35.128L29.647,35.128L30.741,35.179L31.944,35.179L33.148,35.231L34.351,35.282L35.555,35.282L36.757,35.333L37.853,35.486L39.055,35.538L40.259,35.538L41.462,35.435L42.666,35.384L43.869,35.282L44.962,35.282L46.166,35.231L47.37,35.128L48.574,35.077L50.98,35.077L52.074,35.179L53.278,35.282L54.48,35.179L55.684,35.026L56.887,34.872L58.091,34.872L59.294,34.923L60.388,34.923L61.591,34.974L62.795,35.026L63.999,35.026L65.203,35.077L66.405,35.128L67.5,35.128L68.703,35.179L69.906,35.179L71.109,35.231L72.313,35.231L73.516,35.179L74.61,35.128L75.814,35.077L77.017,35.026L78.22,34.974L79.424,34.923L80.628,34.923L81.721,34.872L84.128,34.872L85.332,34.77L86.535,34.565L87.738,34.462L88.833,34.309L90.036,34.309L91.239,34.411L92.442,34.462L98.35,34.462L99.554,34.513L100.757,34.616L103.054,34.616L104.258,34.565L106.665,34.565L107.867,34.513L109.071,34.513L110.165,34.462L111.369,34.462L112.571,34.513L113.775,34.565L114.979,34.616L117.276,34.616L118.479,34.565L119.683,34.565L120.887,34.513L123.292,34.513L124.388,34.462L125.59,34.462L126.794,34.411L127.997,34.411L129.2,34.36L130.404,34.36L131.498,34.309L133.905,34.309L135.108,34.257L138.609,34.257L139.812,34.206L146.923,34.206L148.126,34.155L156.441,34.155L157.645,34.104L162.349,34.104L163.552,34.052L165.959,34.052L167.163,34.002L168.256,34.002L169.459,33.95L170.663,33.95L171.867,33.899L173.07,33.848L174.273,33.848L175.368,33.797L176.57,33.745L177.774,33.745L178.977,33.694L180.181,33.643L181.384,33.643L182.479,33.591L183.681,33.591L184.885,33.541L186.088,33.541L187.292,33.489L189.589,33.489L190.793,33.438L191.997,33.438L193.199,33.387L194.402,33.387L195.606,33.336L196.7,33.336L197.904,33.284L199.106,33.284L200.31,33.233L201.514,33.233L202.717,33.182L205.014,33.182L206.218,33.131L210.922,33.131L212.125,33.08L226.348,33.08L227.551,33.028L229.957,33.028L231.161,32.977L233.458,32.977L234.661,32.926L237.068,32.926L238.272,32.875L240.569,32.875L241.773,32.823L244.179,32.823L245.383,32.772L246.586,32.772L247.68,32.721L248.884,32.721L250.086,32.67L251.29,32.67L252.494,32.619L253.697,32.619L254.791,32.568L255.995,32.517L257.198,32.517L258.402,32.465L259.604,32.414L260.808,32.465L279.734,32.465L280.938,32.414L289.252,32.414L290.346,32.363L298.661,32.363L299.864,32.311L310.584,32.311L311.788,32.261L312.882,32.261L314.086,32.311L323.604,32.311L324.807,32.261L327.104,32.261L328.308,32.209L329.511,32.209L330.714,32.158L331.918,32.158L333.121,32.107L334.216,32.107L335.418,32.055L336.622,32.055L337.825,32.004L339.029,31.901L340.232,31.85L341.327,31.799L342.529,31.748L343.733,31.748L344.937,31.697L354.454,31.697L355.548,31.646L360.362,31.646L361.565,31.594L363.863,31.594L365.065,31.544L367.473,31.544L368.676,31.492L370.973,31.492L372.177,31.442L373.38,31.442L374.583,31.39L375.787,31.39L376.881,31.339L379.288,31.339L380.492,31.288L381.694,31.288L382.898,31.236L383.992,31.236L385.195,31.185L387.602,31.185L388.805,31.134L390.009,31.134L391.212,31.083L392.307,31.083L393.509,31.031L394.713,31.031L395.917,30.98L398.323,30.98L399.417,30.929L400.62,30.929L401.824,30.878L403.027,30.878L404.231,30.827L406.528,30.827L407.732,30.775L410.138,30.775L411.342,30.724L413.639,30.724L414.843,30.673L416.046,30.673L417.249,30.621L418.453,30.621L419.656,30.57L420.75,30.57L421.954,30.519L423.157,30.519L425.563,30.417L426.767,30.417L427.861,30.365L430.268,30.365L431.472,30.315L432.674,30.315L433.878,30.365L436.175,30.365L437.379,30.263L438.583,30.212L440.989,30.11L442.083,30.059L443.287,30.059L444.489,30.007L446.897,30.007L448.1,29.956L454.008,29.956L455.211,29.905L456.305,29.905L457.508,29.854L458.712,29.802L459.915,29.751L461.118,29.751L462.322,29.7L463.416,29.649L464.619,29.598L465.823,29.546L467.026,29.546L468.229,29.495L469.433,29.444L470.637,29.444L471.73,29.393L472.934,29.393L474.137,29.341L475.341,29.29L476.543,29.29L477.748,29.239L478.841,29.239L480.044,29.188L481.248,29.136L482.452,29.136L483.654,29.086L484.858,29.034L485.952,29.034L487.156,28.983L488.359,28.983L489.562,28.932L490.766,28.932L491.969,28.881L493.063,28.881L494.267,28.83L495.47,28.778L496.673,28.676L497.877,28.573L499.08,28.471L500.174,28.42L501.377,28.369L502.581,28.318L503.784,28.318L504.988,28.266L506.191,28.215L507.285,28.215L508.488,28.164L509.692,28.164L510.896,28.112L512.099,28.061L513.302,28.061L514.396,28.01L515.599,28.01L516.803,27.959L518.006,27.959L519.209,27.908L522.711,27.908L523.914,27.959L527.524,27.959L528.618,28.01L529.822,28.01L531.024,27.959L532.228,27.959L533.432,27.908L534.634,27.908L535.729,27.857L536.932,27.805L538.136,27.754L539.339,27.652L540.542,27.498L541.746,27.396L542.839,27.293L544.043,27.14L546.451,26.832L547.653,26.73L548.857,26.628L550.061,26.474L551.154,26.422L552.357,26.474L553.561,26.628L554.764,26.781L555.968,26.935L557.171,27.089L558.266,27.191L559.468,27.242L560.672,27.191L563.079,27.191L564.282,27.14L565.376,26.935L566.579,26.73L567.783,26.525L568.986,26.422L570.189,26.32L571.393,26.218L572.487,26.218L573.691,26.269L574.894,26.167L576.097,26.064L577.301,25.962L578.504,25.86L579.598,25.757L580.802,25.706L582.005,25.654L583.208,25.603L584.412,25.552L585.615,25.501L587.913,25.501L589.116,25.552L590.319,25.552L591.522,25.501L592.726,25.449L593.82,25.297L595.023,24.989L596.227,24.938L597.431,24.938L598.633,24.989L600.931,24.989L602.134,25.04L603.338,25.04L604.542,25.143L605.744,25.245L606.948,25.399L608.042,25.552L609.246,25.757L610.448,25.91L612.856,26.218L614.059,26.32L615.153,26.422L616.356,26.525L617.56,26.576L618.763,26.679L619.967,26.679L621.17,26.628L622.264,26.576L623.467,26.422L624.671,26.218L625.874,25.706L627.077,25.245L628.281,24.784L629.375,24.272L630.578,23.811L631.782,23.555L632.985,23.299L634.188,23.145L635.392,22.941L636.596,22.735L637.689,22.531L638.893,22.326L640.096,22.122L641.299,21.968L642.502,21.763L643.707,21.609L644.8,21.404L646.003,21.302L647.207,21.046L648.411,20.739L649.613,20.278L650.817,19.561L651.911,18.793L653.115,17.973L654.318,17.307L655.521,16.693L656.725,16.233L657.928,15.976L659.022,15.925L660.226,16.181L661.429,16.642L662.632,16.949L663.836,17.001L665.039,16.54L666.133,15.362L667.336,13.826L668.54,12.34L669.743,11.317L670.947,10.087L672.15,7.937L673.244,6.708L674.447,6.298L675.651,6.093L676.854,5.888L678.058,5.735L679.262,5.632L680.355,5.53L681.559,5.479L682.762,5.427L683.965,5.377L685.167,5.325L686.371,5.274L687.466,5.223L688.67,5.172L689.872,5.12L691.075,5.018L692.279,4.966L693.483,4.916L694.576,4.813L695.78,4.762L696.983,4.711L698.187,4.608L699.391,4.506L700.593,4.403L701.687,4.352L704.095,4.25L705.297,4.25L706.5,4.199L707.704,4.148L708.797,4.097L710.001,4.045L712.409,3.943L713.612,3.891L716.02,3.789L717.113,3.686L718.316,3.635L719.521,3.584L720.722,3.533L721.926,3.43L723.129,3.38L724.225,3.482L725.426,3.38L726.63,3.328L729.038,3.226L730.241,3.174L731.334,3.124L732.538,3.072L733.742,3.072L734.945,2.97L736.147,2.919L737.351,2.867L738.446,2.817L739.65,2.765L740.852,2.714L742.055,2.663L743.259,2.611L744.463,2.56L745.556,2.509L746.76,2.406L747.963,2.304L749.167,2.253L750.371,2.201L751.574,2.151L753.871,2.151L755.075,2.099L756.277,2.099L757.48,2.048L759.779,2.048L760.981,1.997L762.186,1.945L763.389,1.895L764.592,1.843L765.796,1.843L766.889,1.69L768.093,1.536L769.297,1.485L770.5,1.229L771.702,1.126L772.906,0.973L774.001,0.922L775.205,0.819L776.406,0.768L777.61,0.768L778.814,0.717L782.314,0.717L783.518,0.665L785.926,0.665L787.127,0.614L788.223,0.563L789.426,0.563L790.63,0.512L791.832,0.461L793.035,0.409L794.239,0.359L795.332,0.359L796.536,0.307L797.74,0.256L798.943,0.205L800.146,0.153L801.352,0.153L802.555,0.102L803.648,0.051L804.852,0" style="fill:none;fill-rule:nonzero;stroke:rgb(88,89,91);stroke-width:0.65px;"/>
        </g>
    </g>
</svg>
