<?xml version="1.0" encoding="UTF-8" standalone="no"?>
<!DOCTYPE svg PUBLIC "-//W3C//DTD SVG 1.1//EN" "http://www.w3.org/Graphics/SVG/1.1/DTD/svg11.dtd">
<svg width="100%" height="100%" viewBox="0 0 928 291" version="1.1" xmlns="http://www.w3.org/2000/svg" xmlns:xlink="http://www.w3.org/1999/xlink" xml:space="preserve" xmlns:serif="http://www.serif.com/" style="fill-rule:evenodd;clip-rule:evenodd;">
    <g transform="matrix(1,0,0,1,61.5,150.578)">
        <g id="depth-section" serif:id="depth section">
            <path d="M0,35.793L13.019,35.793L14.222,35.844L17.723,35.844L18.926,35.793L20.129,35.844L21.332,35.896L22.536,35.844L23.63,35.69L24.833,35.537L26.037,35.486L27.24,35.537L30.741,35.537L31.944,35.588L33.148,35.588L34.351,35.639L35.555,35.69L36.757,35.742L37.853,35.844L39.055,35.896L41.462,35.896L42.666,35.844L43.869,35.844L44.962,35.793L46.166,35.793L48.574,35.383L49.777,35.383L50.98,35.435L52.074,35.588L53.278,35.537L54.48,35.435L55.684,35.332L56.887,35.281L58.091,35.332L59.294,35.332L60.388,35.383L61.591,35.383L62.795,35.435L65.203,35.435L66.405,35.486L67.5,35.486L68.703,35.588L69.906,35.793L71.109,35.742L72.313,35.69L73.516,35.639L74.61,35.588L75.814,35.537L77.017,35.486L84.128,35.486L85.332,35.23L86.535,34.974L87.738,34.871L88.833,34.82L90.036,34.769L91.239,34.769L92.442,34.871L93.646,34.871L94.849,34.922L97.146,34.922L98.35,34.974L99.554,35.076L100.757,35.127L101.96,35.076L103.054,35.025L104.258,34.974L105.46,34.871L106.665,34.769L107.867,34.718L109.071,34.718L110.165,34.769L111.369,34.82L112.571,34.871L113.775,34.974L116.183,35.076L117.276,35.127L119.683,35.127L120.887,35.076L123.292,35.076L124.388,35.025L125.59,35.025L126.794,34.974L127.997,34.974L129.2,34.922L132.701,34.922L133.905,34.871L136.312,34.871L137.515,34.82L139.812,34.82L141.016,34.769L143.422,34.769L144.625,34.718L145.829,34.718L146.923,34.667L148.126,34.667L149.33,34.615L151.737,34.615L152.94,34.564L154.034,34.564L155.238,34.513L156.441,34.513L157.645,34.461L161.145,34.461L162.349,34.41L164.755,34.41L165.959,34.359L167.163,34.359L168.256,34.308L169.459,34.308L170.663,34.257L171.867,34.257L173.07,34.206L174.273,34.206L175.368,34.154L176.57,34.154L177.774,34.103L178.977,34.103L180.181,34.052L182.479,34.052L183.681,34.001L186.088,34.001L187.292,33.949L190.793,33.949L191.997,33.898L194.402,33.898L195.606,33.847L197.904,33.847L199.106,33.796L201.514,33.796L202.717,33.745L205.014,33.745L206.218,33.693L219.236,33.693L220.439,33.642L226.348,33.642L227.551,33.591L233.458,33.591L234.661,33.54L247.68,33.54L248.884,33.591L250.086,33.591L252.494,33.693L253.697,33.642L254.791,33.488L255.995,33.335L257.198,33.386L259.604,33.386L260.808,33.438L263.106,33.438L264.309,33.488L269.013,33.488L270.216,33.54L280.938,33.54L282.141,33.591L312.882,33.591L314.086,33.642L317.695,33.642L318.899,33.693L321.196,33.693L322.4,33.745L324.807,33.745L326.011,33.796L327.104,33.796L328.308,33.847L329.511,33.847L330.714,33.898L331.918,33.847L333.121,33.796L334.216,33.745L335.418,33.693L336.622,33.642L337.825,33.54L341.327,33.54L342.529,33.591L343.733,33.642L346.14,33.642L347.343,33.591L348.437,33.693L349.64,33.796L350.844,33.796L352.047,33.745L354.454,33.745L355.548,33.796L356.752,33.847L359.158,33.949L361.565,33.949L362.659,33.898L363.863,33.898L365.065,33.847L366.269,33.847L367.473,33.796L368.676,33.745L369.77,33.693L370.973,33.693L372.177,33.642L375.787,33.642L376.881,33.693L378.084,33.949L379.288,33.949L380.492,33.898L381.694,33.847L382.898,33.949L383.992,34.052L385.195,34.001L386.398,34.001L387.602,34.052L388.805,34.154L390.009,34.206L391.212,34.206L392.307,34.154L393.509,34.154L394.713,34.052L395.917,33.898L397.12,33.796L398.323,33.693L399.417,33.693L400.62,33.642L403.027,33.642L404.231,33.693L406.528,33.693L407.732,33.898L408.935,34.154L410.138,34.206L411.342,34.206L412.545,33.847L413.639,33.796L414.843,33.693L416.046,33.847L417.249,33.745L418.453,33.745L419.656,33.693L420.75,33.642L421.954,33.642L423.157,33.591L424.36,33.591L425.563,33.54L426.767,33.54L427.861,33.488L429.064,33.488L430.268,33.438L433.878,33.438L434.972,33.488L436.175,33.54L437.379,33.488L438.583,33.54L439.786,33.693L440.989,33.796L442.083,33.898L443.287,33.847L444.489,33.745L445.693,33.642L446.897,33.591L449.194,33.591L450.397,33.642L451.601,33.642L452.804,33.693L454.008,33.745L456.305,33.745L457.508,33.796L462.322,33.796L463.416,33.847L464.619,33.847L465.823,33.898L468.229,33.898L470.637,33.488L471.73,33.284L476.543,33.284L477.748,33.335L481.248,33.335L482.452,33.386L484.858,33.386L485.952,33.438L490.766,33.438L491.969,33.386L493.063,33.386L494.267,33.335L495.47,33.284L496.673,33.284L497.877,33.232L499.08,33.079L500.174,33.079L501.377,33.232L502.581,33.386L503.784,33.335L504.988,33.284L506.191,33.13L507.285,32.925L510.896,32.925L512.099,32.823L513.302,32.669L514.396,32.516L515.599,32.26L516.803,32.055L518.006,32.106L519.209,32.106L520.413,32.158L521.507,32.158L522.711,32.208L523.914,32.208L525.117,32.26L527.524,32.26L528.618,32.311L532.228,32.311L533.432,32.26L534.634,32.26L535.729,32.158L536.932,32.055L538.136,31.952L539.339,31.85L540.542,31.747L541.746,31.696L542.839,31.594L544.043,31.543L545.247,31.491L546.451,31.44L547.653,31.338L548.857,31.287L550.061,31.185L551.154,31.133L552.357,31.082L553.561,31.031L554.764,30.98L555.968,30.928L557.171,30.928L558.266,30.826L559.468,30.672L560.672,30.57L561.876,30.467L563.079,30.518L564.282,30.621L565.376,30.672L566.579,30.775L567.783,30.775L568.986,30.672L570.189,30.57L571.393,30.467L572.487,30.416L573.691,30.467L574.894,30.518L576.097,30.57L577.301,30.621L578.504,30.672L579.598,30.724L580.802,30.672L582.005,30.621L583.208,30.621L584.412,30.416L585.615,30.262L586.708,30.108L587.913,30.16L589.116,30.16L590.319,30.108L591.522,30.108L592.726,29.853L593.82,29.648L595.023,29.443L596.227,29.443L597.431,29.597L598.633,29.546L599.837,29.495L600.931,29.392L602.134,29.29L603.338,29.085L604.542,29.033L605.744,29.033L606.948,29.136L608.042,29.29L609.246,29.392L610.448,29.546L611.652,29.802L612.856,30.211L614.059,30.57L615.153,30.98L616.356,31.338L617.56,31.543L618.763,31.44L619.967,31.287L621.17,31.082L622.264,30.877L623.467,30.928L624.671,31.082L625.874,31.185L627.077,31.338L629.375,31.338L630.578,31.082L631.782,30.775L632.985,30.621L634.188,30.57L636.596,30.672L637.689,30.826L638.893,30.57L640.096,30.467L641.299,30.262L642.502,30.16L643.707,30.006L644.8,29.751L646.003,29.392L647.207,28.88L648.411,27.958L649.613,26.985L650.817,25.807L651.911,25.142L653.115,24.22L654.318,23.555L655.521,22.991L656.725,22.582L657.928,22.376L659.022,21.762L660.226,20.738L661.429,19.97L662.632,19.611L663.836,19.356L665.039,18.485L666.133,18.024L667.336,17.512L668.54,16.948L669.743,16.795L670.947,15.72L672.15,15.515L673.244,14.491L674.447,12.34L675.651,10.957L676.854,9.421L678.058,9.063L679.262,8.653L680.355,8.397L681.559,8.039L682.762,7.731L683.965,7.476L685.167,7.322L686.371,7.168L687.466,7.015L688.67,6.912L689.872,6.81L691.075,6.707L692.279,6.554L693.483,6.451L694.576,6.349L695.78,6.195L696.983,6.042L698.187,5.939L699.391,5.888L700.593,5.785L702.891,5.785L704.095,5.581L705.297,5.529L706.5,5.427L707.704,5.376L708.797,5.324L710.001,5.12L713.612,5.12L714.816,5.068L716.02,5.017L717.113,4.915L718.316,4.813L719.521,4.71L720.722,4.556L721.926,4.352L723.129,4.198L724.225,4.454L725.426,4.249L726.63,4.096L727.834,3.891L729.038,3.737L730.241,3.583L731.334,3.379L732.538,3.225L733.742,3.123L734.945,2.918L736.147,2.815L737.351,2.764L738.446,2.713L739.65,2.662L740.852,2.611L742.055,2.56L743.259,2.508L744.463,2.457L745.556,2.406L746.76,2.303L747.963,2.201L749.167,2.15L750.371,2.098L751.574,2.047L753.871,2.047L755.075,1.996L756.277,1.996L757.48,1.945L759.779,1.945L760.981,1.894L762.186,1.842L763.389,1.792L764.592,1.74L765.796,1.74L766.889,1.586L768.093,1.433L769.297,1.382L770.5,1.126L771.702,1.023L772.906,0.87L774.001,0.818L775.205,0.716L776.406,0.665L777.61,0.665L778.814,0.614L782.314,0.614L783.518,0.562L785.926,0.562L787.127,0.511L788.223,0.46L789.426,0.46L790.63,0.409L791.832,0.357L793.035,0.306L794.239,0.255L795.332,0.255L797.74,0.153L798.943,0.102L800.146,0.05L801.352,0.05L802.555,-0.001L803.648,-0.052L804.852,-0.103" style="fill:none;fill-rule:nonzero;stroke:rgb(88,89,91);stroke-width:0.65px;"/>
        </g>
    </g>
</svg>
