<?xml version="1.0" encoding="UTF-8" standalone="no"?>
<!DOCTYPE svg PUBLIC "-//W3C//DTD SVG 1.1//EN" "http://www.w3.org/Graphics/SVG/1.1/DTD/svg11.dtd">
<svg width="100%" height="100%" viewBox="0 0 928 291" version="1.1" xmlns="http://www.w3.org/2000/svg" xmlns:xlink="http://www.w3.org/1999/xlink" xml:space="preserve" xmlns:serif="http://www.serif.com/" style="fill-rule:evenodd;clip-rule:evenodd;">
    <g transform="matrix(1,0,0,1,61.5,150.474)">
        <g id="depth-section" serif:id="depth section">
            <path d="M0,35.231L4.704,35.231L5.907,35.18L17.723,35.18L18.926,35.128L21.332,35.026L22.536,34.923L23.63,34.872L24.833,34.821L26.037,34.77L28.444,34.77L29.647,34.821L31.944,34.821L33.148,34.872L34.351,34.923L35.555,34.923L36.757,34.975L37.853,35.128L39.055,35.18L40.259,35.128L41.462,35.077L42.666,35.026L43.869,34.923L44.962,34.923L46.166,34.872L47.37,34.77L48.574,34.719L50.98,34.719L52.074,34.77L53.278,34.923L54.48,34.872L55.684,34.668L56.887,34.565L58.091,34.514L59.294,34.565L60.388,34.565L61.591,34.616L62.795,34.616L63.999,34.668L65.203,34.719L66.405,34.77L67.5,34.77L68.703,34.821L69.906,34.821L71.109,34.872L72.313,34.872L73.516,34.821L74.61,34.77L75.814,34.719L77.017,34.668L78.22,34.616L80.628,34.514L84.128,34.514L85.332,34.411L86.535,34.207L87.738,34.104L88.833,34.002L90.036,33.951L91.239,34.002L92.442,34.104L98.35,34.104L99.554,34.155L100.757,34.258L103.054,34.258L104.258,34.207L106.665,34.207L107.867,34.155L109.071,34.155L110.165,34.104L111.369,34.104L112.571,34.155L113.775,34.207L114.979,34.258L117.276,34.258L118.479,34.207L119.683,34.207L120.887,34.155L122.09,34.155L123.292,34.104L125.59,34.104L126.794,34.053L127.997,34.053L129.2,34.002L130.404,34.002L131.498,33.951L133.905,33.951L135.108,33.899L138.609,33.899L139.812,33.848L146.923,33.848L148.126,33.797L156.441,33.797L157.645,33.746L162.349,33.746L163.552,33.694L165.959,33.694L167.163,33.643L168.256,33.643L169.459,33.592L170.663,33.592L171.867,33.541L173.07,33.49L174.273,33.49L175.368,33.439L176.57,33.387L177.774,33.387L178.977,33.336L180.181,33.336L181.384,33.285L182.479,33.285L183.681,33.233L184.885,33.233L186.088,33.182L187.292,33.182L188.495,33.131L189.589,33.131L190.793,33.08L191.997,33.08L193.199,33.029L194.402,33.029L195.606,32.978L197.904,32.978L199.106,32.926L200.31,32.926L201.514,32.875L202.717,32.875L203.811,32.824L206.218,32.824L207.422,32.773L209.828,32.773L210.922,32.722L214.532,32.722L215.735,32.67L218.033,32.67L219.236,32.619L221.643,32.619L222.847,32.568L225.253,32.568L226.348,32.517L227.551,32.517L228.754,32.465L231.161,32.465L232.364,32.414L234.661,32.414L235.865,32.363L237.068,32.363L238.272,32.312L239.475,32.312L240.569,32.261L241.773,32.261L242.977,32.21L244.179,32.21L245.383,32.158L246.586,32.158L247.68,32.107L248.884,32.107L250.086,32.056L251.29,32.056L252.494,32.004L253.697,32.004L254.791,31.954L255.995,31.902L257.198,31.902L258.402,31.851L285.641,31.851L286.845,31.8L296.363,31.8L297.457,31.749L303.474,31.749L304.678,31.698L306.975,31.698L308.178,31.646L317.695,31.646L318.899,31.595L321.196,31.595L322.4,31.544L323.604,31.544L324.807,31.493L326.011,31.442L327.104,31.442L328.308,31.39L329.511,31.39L330.714,31.339L331.918,31.288L333.121,31.288L334.216,31.236L335.418,31.236L336.622,31.185L341.327,31.185L342.529,31.134L343.733,31.083L344.937,31.083L346.14,31.031L347.343,30.981L349.64,30.981L350.844,30.929L360.362,30.929L361.565,30.878L362.659,30.827L363.863,30.775L365.065,30.827L368.676,30.827L369.77,30.775L370.973,30.775L372.177,30.673L374.583,30.673L375.787,30.622L378.084,30.622L379.288,30.673L380.492,30.622L381.694,30.571L382.898,30.52L383.992,30.469L385.195,30.418L386.398,30.366L387.602,30.315L390.009,30.315L391.212,30.264L392.307,30.264L393.509,30.212L397.12,30.212L398.323,30.162L399.417,30.008L400.62,29.956L401.824,29.905L403.027,29.956L405.434,29.956L406.528,30.008L407.732,29.956L410.138,29.854L411.342,29.854L412.545,29.802L413.639,29.752L416.046,29.752L417.249,29.7L418.453,29.649L419.656,29.546L420.75,29.496L421.954,29.444L424.36,29.444L425.563,29.393L426.767,29.393L427.861,29.342L429.064,29.342L431.472,29.24L432.674,29.189L433.878,29.189L434.972,29.137L436.175,29.137L437.379,29.086L438.583,28.983L440.989,28.881L442.083,28.779L443.287,28.779L444.489,28.728L445.693,28.676L446.897,28.625L448.1,28.523L449.194,28.523L450.397,28.471L451.601,28.471L452.804,28.42L454.008,28.369L455.211,28.318L456.305,28.267L457.508,28.215L458.712,28.164L461.118,28.062L462.322,28.01L463.416,27.96L464.619,27.908L465.823,27.857L467.026,27.806L468.229,27.754L469.433,27.703L470.637,27.703L471.73,27.652L472.934,27.601L475.341,27.601L476.543,27.55L477.748,27.499L478.841,27.447L480.044,27.396L482.452,27.294L483.654,27.242L484.858,27.191L485.952,27.14L487.156,27.14L489.562,27.038L490.766,26.986L491.969,26.986L493.063,26.884L494.267,26.833L495.47,26.73L496.673,26.628L497.877,26.474L499.08,26.372L500.174,26.474L501.377,26.474L502.581,26.423L503.784,26.27L504.988,26.218L506.191,26.321L507.285,26.372L508.488,26.321L509.692,26.218L510.896,26.167L512.099,26.064L513.302,25.962L514.396,25.962L515.599,25.911L516.803,25.86L518.006,25.757L519.209,25.655L520.413,25.604L521.507,25.501L523.914,25.501L525.117,25.553L526.321,25.501L527.524,25.45L528.618,25.399L529.822,25.348L531.024,25.297L532.228,25.348L533.432,25.245L534.634,25.143L535.729,25.041L536.932,24.938L538.136,24.887L539.339,24.784L540.542,24.733L541.746,24.63L542.839,24.58L544.043,24.478L545.247,24.426L546.451,24.375L547.653,24.272L548.857,24.222L550.061,24.119L551.154,24.016L552.357,23.914L553.561,23.76L554.764,23.709L555.968,23.658L557.171,23.555L558.266,23.504L559.468,23.453L561.876,23.351L563.079,23.402L564.282,23.351L565.376,23.299L566.579,23.197L567.783,22.992L568.986,22.941L570.189,22.839L571.393,22.788L572.487,22.736L573.691,22.582L574.894,22.582L576.097,22.531L577.301,22.48L578.504,22.378L579.598,22.172L580.802,22.122L582.005,22.02L583.208,22.02L584.412,22.122L585.615,22.122L586.708,22.224L587.913,22.122L589.116,22.172L590.319,22.172L591.522,22.122L593.82,22.122L595.023,22.07L596.227,22.122L597.431,22.172L598.633,22.275L599.837,22.275L600.931,22.326L602.134,22.378L603.338,22.48L604.542,22.378L605.744,22.429L606.948,22.48L608.042,22.531L609.246,22.634L610.448,22.685L611.652,22.736L612.856,22.788L614.059,22.941L615.153,23.146L616.356,23.299L617.56,23.095L618.763,22.992L619.967,22.839L621.17,22.685L622.264,22.48L623.467,22.582L624.671,22.429L625.874,22.224L627.077,22.07L628.281,21.712L629.375,21.2L630.578,20.483L631.782,20.022L632.985,19.664L634.188,19.151L635.392,18.69L636.596,18.333L637.689,18.025L638.893,17.769L640.096,17.513L641.299,17.308L642.502,17.257L643.707,17.052L644.8,16.898L646.003,16.591L647.207,16.335L648.411,16.027L649.613,15.721L650.817,15.26L651.911,14.748L653.115,14.287L654.318,13.877L655.521,13.314L656.725,12.904L657.928,12.443L659.022,12.085L660.226,11.47L661.429,10.753L662.632,9.985L663.836,9.269L665.039,8.552L666.133,7.886L667.336,7.272L668.54,6.811L669.743,6.247L670.947,5.838L672.15,5.48L673.244,5.069L674.447,4.865L675.651,4.506L676.854,4.199L678.058,3.943L679.262,3.892L680.355,3.687L681.559,3.482L682.762,3.278L683.965,3.073L685.167,3.021L686.371,2.97L687.466,2.867L689.872,2.867L691.075,2.817L692.279,2.817L693.483,2.765L698.187,2.765L699.391,2.817L707.704,2.817L708.797,2.765L713.612,2.765L714.816,2.714L716.02,2.714L717.113,2.663L718.316,2.663L719.521,2.611L720.722,2.611L721.926,2.561L723.129,2.509L724.225,2.509L725.426,2.459L726.63,2.407L729.038,2.305L730.241,2.253L731.334,2.202L732.538,2.202L733.742,2.1L734.945,2.048L736.147,1.998L737.351,1.895L738.446,1.844L739.65,1.792L740.852,1.69L742.055,1.639L743.259,1.536L744.463,1.434L745.556,1.332L746.76,1.178L747.963,1.127L752.668,1.127L753.871,1.076L758.685,1.076L759.779,1.024L764.592,1.024L765.796,0.973L768.093,0.973L769.297,0.922L770.5,0.922L771.702,0.871L772.906,0.871L774.001,0.819L775.205,0.819L776.406,0.768L777.61,0.768L778.814,0.717L780.018,0.717L781.111,0.666L785.926,0.666L787.127,0.615L788.223,0.564L789.426,0.564L790.63,0.512L791.832,0.461L793.035,0.41L794.239,0.359L795.332,0.359L796.536,0.307L797.74,0.256L800.146,0.154L801.352,0.154L802.555,0.103L803.648,0.051L804.852,0" style="fill:none;fill-rule:nonzero;stroke:rgb(88,89,91);stroke-width:0.65px;"/>
        </g>
    </g>
</svg>
